<svg xmlns="http://www.w3.org/2000/svg" width="50" height="50" fill="none" viewBox="0 0 50 50"><path fill="#2100df" d="M27.95 50H0V0h50v50zM16.43 5.84c-1.35-.32-2.7-.65-4.05-.96-.14-.03-.3-.03-.45 0-.58.11-.89.55-.89 1.22v19.53c0 6.07.01 12.15-.01 18.22-.01.97.79 1.47 1.58 1.22 1.54-.49 3.1-.9 4.65-1.34 1.32-.38 2.64-.76 3.96-1.13.59-.17.88-.55.88-1.17.01-.46 0-.92 0-1.38 0-.07.01-.14.02-.22.08.02.13.03.19.04 2.17.6 4.38.75 6.6.38 4-.65 7.24-2.59 9.76-5.76.09-.11.17-.25.22-.39.17-.47.01-.92-.43-1.27-1.96-1.56-3.92-3.11-5.87-4.67-1.03-.81-2.2-.78-3.18.09-.75.66-1.62 1.03-2.62 1.11-3.18.25-5.56-2.99-4.37-5.96 1.14-2.85 4.68-3.68 6.99-1.65.95.83 2.2.89 3.12.12 1.96-1.64 3.9-3.29 5.85-4.93.53-.46.58-1.09.13-1.64a15.4 15.4 0 0 0-16.06-5.22c-.11.03-.22.05-.35.08V8.23c0-.75-.29-1.11-1.02-1.29-1.54-.36-3.07-.73-4.65-1.1"/><path d="M0 50V0h50v50H0M12.38 4.88c-.14-.03-.3-.03-.45 0-.58.11-.89.55-.89 1.22v19.53c0 6.07.01 12.15-.01 18.22-.01.97.79 1.47 1.58 1.22 1.54-.49 3.1-.9 4.65-1.34 1.32-.38 2.64-.76 3.96-1.13.59-.17.88-.55.88-1.17.01-.46 0-.92 0-1.38 0-.07.01-.14.02-.22.08.02.13.03.19.04 2.17.6 4.38.75 6.6.38 4-.65 7.24-2.59 9.76-5.76.09-.11.17-.25.22-.39.17-.47.01-.92-.43-1.27-1.96-1.56-3.92-3.11-5.87-4.67-1.03-.81-2.2-.78-3.18.09-.75.66-1.62 1.03-2.62 1.11-3.18.25-5.56-2.99-4.37-5.96 1.14-2.85 4.68-3.68 6.99-1.65.95.83 2.2.89 3.12.12 1.96-1.64 3.9-3.29 5.85-4.93.53-.46.58-1.09.13-1.64a15.4 15.4 0 0 0-16.06-5.22c-.11.03-.22.05-.35.08V8.23c0-.75-.29-1.11-1.02-1.29-1.54-.36-3.07-.73-4.65-1.1-1.35-.32-2.7-.65-4.05-.96"/><path fill="#fefeff" d="M16.45 5.84c1.56.37 3.09.74 4.63 1.1.73.18 1.02.54 1.02 1.29v1.93c.13-.03.24-.05.35-.08 5.92-1.61 12.2.43 16.06 5.22.45.55.4 1.18-.13 1.64-1.95 1.64-3.89 3.29-5.85 4.93-.92.77-2.17.71-3.12-.12-2.31-2.03-5.85-1.2-6.99 1.65-1.19 2.97 1.19 6.21 4.37 5.96 1-.08 1.87-.45 2.62-1.11.98-.87 2.15-.9 3.18-.09 1.95 1.56 3.91 3.11 5.87 4.67.44.35.6.8.43 1.27-.05.14-.13.28-.22.39-2.52 3.17-5.76 5.11-9.76 5.76-2.22.37-4.43.22-6.6-.38-.06-.01-.11-.02-.19-.04-.01.08-.02.15-.02.22 0 .46.01.92 0 1.38 0 .62-.29 1-.88 1.17-1.32.37-2.64.75-3.96 1.13-1.55.44-3.11.85-4.65 1.34-.79.25-1.59-.25-1.58-1.22.02-6.07.01-12.15.01-18.22V6.1c0-.67.31-1.11.89-1.22.15-.03.31-.03.45 0 1.35.31 2.7.64 4.07.96m3.44 23.13v-15.4l-.09-.03c-4.65 3.04-6.98 7.3-6.43 12.91.43 4.4 2.75 7.68 6.52 10.03zm15.38 5.93c.32-.33.64-.66.97-.99-.03-.03-.07-.06-.1-.09-1.65-1.31-3.29-2.61-4.93-3.92-.15-.12-.23-.07-.36.03-2.51 2.17-5.99 2.22-8.58.13-.05-.03-.09-.06-.16-.11 0 .07-.01.1-.01.13 0 2.41.01 4.81 0 7.22 0 .17.07.21.2.25 1.73.58 3.51.79 5.32.63 2.9-.26 5.44-1.34 7.65-3.28M22.1 13.87v6.21c.07-.04.09-.06.11-.07a6.53 6.53 0 0 1 8.67.08c.14.13.23.08.35-.02 1.11-.94 2.23-1.88 3.34-2.82l1.55-1.31c-3.71-4.08-9.57-5.07-14.02-3.41zm-5.01-1.15c.83-.63 1.7-1.18 2.63-1.62.07-.03.16-.12.16-.18.02-.65.01-1.31.01-1.98-2.22-.53-4.42-1.05-6.63-1.58v9.61c1.04-1.67 2.29-3.07 3.83-4.25m-3.84 23.85v5.99c2.23-.63 4.43-1.26 6.64-1.89 0-.37-.03-.73.01-1.09.05-.44-.1-.66-.52-.87-2.48-1.27-4.47-3.1-5.97-5.45l-.16-.24z"/><path d="M21.08 6.94c.73.18 1.02.54 1.02 1.29v1.93c.13-.03.24-.05.35-.08 5.92-1.61 12.2.43 16.06 5.22.45.55.4 1.18-.13 1.64-1.95 1.64-3.89 3.29-5.85 4.93-.92.77-2.17.71-3.12-.12-2.31-2.03-5.85-1.2-6.99 1.65-1.19 2.97 1.19 6.21 4.37 5.96 1-.08 1.87-.45 2.62-1.11.98-.87 2.15-.9 3.18-.09 1.95 1.56 3.91 3.11 5.87 4.67.44.35.6.8.43 1.27-.05.14-.13.28-.22.39-2.52 3.17-5.76 5.11-9.76 5.76-2.22.37-4.43.22-6.6-.38-.06-.01-.11-.02-.19-.04-.01.08-.02.15-.02.22 0 .46.01.92 0 1.38 0 .62-.29 1-.88 1.17-1.32.37-2.64.75-3.96 1.13-1.55.44-3.11.85-4.65 1.34-.79.25-1.59-.25-1.58-1.22.02-6.07.01-12.15.01-18.22V6.1c0-.67.31-1.11.89-1.22.15-.03.31-.03.45 0 1.35.31 2.7.64 4.07.96 1.56.37 3.09.74 4.63 1.1m-1.19 6.63-.09-.03c-4.65 3.04-6.98 7.3-6.43 12.91.43 4.4 2.75 7.68 6.52 10.03V13.57m16.35 20.34c-.03-.03-.07-.06-.1-.09-1.65-1.31-3.29-2.61-4.93-3.92-.15-.12-.23-.07-.36.03-2.51 2.17-5.99 2.22-8.58.13-.05-.03-.09-.06-.16-.11 0 .07-.01.1-.01.13 0 2.41.01 4.81 0 7.22 0 .17.07.21.2.25 1.73.58 3.51.79 5.32.63 2.9-.26 5.44-1.34 7.65-3.28.32-.33.64-.66.97-.99M22.1 20.08c.07-.04.09-.06.11-.07a6.53 6.53 0 0 1 8.67.08c.14.13.23.08.35-.02 1.11-.94 2.23-1.88 3.34-2.82l1.55-1.31c-3.71-4.08-9.57-5.07-14.02-3.41v7.55m-2.38-8.98c.07-.03.16-.12.16-.18.02-.65.01-1.31.01-1.98-2.22-.53-4.42-1.05-6.63-1.58v9.61c1.04-1.67 2.29-3.07 3.83-4.25.83-.63 1.7-1.18 2.63-1.62m-6.47 31.46c2.23-.63 4.43-1.26 6.64-1.89 0-.37-.03-.73.01-1.09.05-.44-.1-.66-.52-.87-2.48-1.27-4.47-3.1-5.97-5.45l-.16-.24v9.54"/><path fill="#2201df" d="M19.89 29v7.48c-3.77-2.35-6.09-5.63-6.52-10.03-.55-5.61 1.78-9.87 6.43-12.91l.09.03z"/><path d="M19.89 36.48c-3.77-2.35-6.09-5.63-6.52-10.03-.55-5.61 1.78-9.87 6.43-12.91l.09.03v22.91"/><path fill="#2201df" d="M35.26 34.91c-2.2 1.93-4.74 3.01-7.64 3.27-1.81.16-3.59-.05-5.32-.63-.13-.04-.2-.08-.2-.25.01-2.41 0-4.81 0-7.22 0-.03.01-.06.01-.13.07.05.11.08.16.11 2.59 2.09 6.07 2.04 8.58-.13.13-.1.21-.15.36-.03 1.64 1.31 3.28 2.61 4.93 3.92.03.03.07.06.1.09-.33.33-.65.66-.98 1"/><path d="M27.62 38.18c-1.81.16-3.59-.05-5.32-.63-.13-.04-.2-.08-.2-.25.01-2.41 0-4.81 0-7.22 0-.03.01-.06.01-.13.07.05.11.08.16.11 2.59 2.09 6.07 2.04 8.58-.13.13-.1.21-.15.36-.03 1.64 1.31 3.28 2.61 4.93 3.92.03.03.07.06.1.09-.33.33-.65.66-.98 1-2.2 1.93-4.74 3.01-7.64 3.27"/><path fill="#2201df" d="M22.1 13.85v-1.32c4.45-1.66 10.31-.67 14.02 3.41l-1.55 1.31c-1.11.94-2.23 1.88-3.34 2.82-.12.1-.21.15-.35.02a6.53 6.53 0 0 0-8.67-.08c-.02.01-.04.03-.11.07z"/><path d="M22.1 12.53c4.45-1.66 10.31-.67 14.02 3.41l-1.55 1.31c-1.11.94-2.23 1.88-3.34 2.82-.12.1-.21.15-.35.02a6.53 6.53 0 0 0-8.67-.08c-.02.01-.04.03-.11.07v-7.55"/><path fill="#2201df" d="M17.08 12.73c-1.53 1.17-2.78 2.57-3.82 4.24V7.36c2.21.53 4.41 1.05 6.63 1.58 0 .67.01 1.33-.01 1.98 0 .06-.09.15-.16.18-.93.44-1.8.99-2.64 1.63"/><path d="M13.26 16.97V7.36c2.21.53 4.41 1.05 6.63 1.58 0 .67.01 1.33-.01 1.98 0 .06-.09.15-.16.18-.93.44-1.8.99-2.64 1.63-1.53 1.17-2.78 2.57-3.82 4.24"/><path fill="#2201df" d="M13.25 36.54v-3.52l.16.24c1.5 2.35 3.49 4.18 5.97 5.45.42.21.57.43.52.87-.04.36-.01.72-.01 1.09-2.21.63-4.41 1.26-6.64 1.89z"/><path d="m13.25 33.02.16.24c1.5 2.35 3.49 4.18 5.97 5.45.42.21.57.43.52.87-.04.36-.01.72-.01 1.09-2.21.63-4.41 1.26-6.64 1.89v-9.54"/></svg>