<svg xmlns="http://www.w3.org/2000/svg" width="50.469" height="50" fill="none" viewBox="0 0 50.469 50"><defs><filter id="b" width="27.571" height="33.687" x="-1.257" y="6.46" color-interpolation-filters="sRGB" filterUnits="userSpaceOnUse"><feFlood flood-opacity="0" result="BackgroundImageFix"/><feBlend in="SourceGraphic" in2="BackgroundImageFix" result="shape"/><feGaussianBlur result="effect_layerBlur_1" stdDeviation="1.876"/></filter><filter id="c" width="26.799" height="33.613" x="-3.601" y="8.8" color-interpolation-filters="sRGB" filterUnits="userSpaceOnUse"><feFlood flood-opacity="0" result="BackgroundImageFix"/><feBlend in="SourceGraphic" in2="BackgroundImageFix" result="shape"/><feGaussianBlur result="effect_layerBlur_1" stdDeviation="1.876"/></filter><filter id="e" width="63.592" height="42.598" x="-5.385" y="2.035" color-interpolation-filters="sRGB" filterUnits="userSpaceOnUse"><feFlood flood-opacity="0" result="BackgroundImageFix"/><feBlend in="SourceGraphic" in2="BackgroundImageFix" result="shape"/><feGaussianBlur result="effect_layerBlur_1" stdDeviation="1.876"/></filter><filter id="f" width="63.6" height="42.6" x="-7.738" y="4.373" color-interpolation-filters="sRGB" filterUnits="userSpaceOnUse"><feFlood flood-opacity="0" result="BackgroundImageFix"/><feBlend in="SourceGraphic" in2="BackgroundImageFix" result="shape"/><feGaussianBlur result="effect_layerBlur_1" stdDeviation="1.876"/></filter><filter id="h" width="39.57" height="28.124" x="16.826" y="11.857" color-interpolation-filters="sRGB" filterUnits="userSpaceOnUse"><feFlood flood-opacity="0" result="BackgroundImageFix"/><feBlend in="SourceGraphic" in2="BackgroundImageFix" result="shape"/><feGaussianBlur result="effect_layerBlur_1" stdDeviation="1.856"/></filter><filter id="i" width="37.974" height="28.113" x="15.766" y="14.178" color-interpolation-filters="sRGB" filterUnits="userSpaceOnUse"><feFlood flood-opacity="0" result="BackgroundImageFix"/><feBlend in="SourceGraphic" in2="BackgroundImageFix" result="shape"/><feGaussianBlur result="effect_layerBlur_1" stdDeviation="1.856"/></filter><filter id="k" width="41.116" height="35.044" x="16.433" y="9.203" color-interpolation-filters="sRGB" filterUnits="userSpaceOnUse"><feFlood flood-opacity="0" result="BackgroundImageFix"/><feBlend in="SourceGraphic" in2="BackgroundImageFix" result="shape"/><feGaussianBlur result="effect_layerBlur_1" stdDeviation="1.856"/></filter><filter id="l" width="41.116" height="35.044" x="14.112" y="11.524" color-interpolation-filters="sRGB" filterUnits="userSpaceOnUse"><feFlood flood-opacity="0" result="BackgroundImageFix"/><feBlend in="SourceGraphic" in2="BackgroundImageFix" result="shape"/><feGaussianBlur result="effect_layerBlur_1" stdDeviation="1.856"/></filter></defs><path fill="#000" d="M.23 10v29h50V16.44H22.51V10z"/><path stroke="#000" stroke-width=".469" d="M.23 39h50V16.44H22.51V10H.23z"/><path fill="#fff" fill-rule="evenodd" d="M4.37 14.43h13.97v4.28c-3.65 4.44-5.95 9.56-6.16 15.72H7.4c.19-5.32.73-10.54 4.78-14.89H4.37z"/><path stroke="#000" stroke-width=".469" d="M18.34 14.43v4.28c-3.65 4.44-5.95 9.56-6.16 15.72H7.4c.19-5.32.73-10.54 4.78-14.89H4.37v-5.11z"/><mask id="a" width="13.971" height="20.013" x="4.37" y="14.426" mask-type="alpha" maskUnits="userSpaceOnUse"><path fill="#fff" d="M4.37 14.43h13.97v4.28c-3.65 4.44-5.95 9.56-6.16 15.72H7.4c.19-5.32.73-10.54 4.78-14.89H4.37z"/></mask><g mask="url(#a)"><g filter="url(#b)"><path stroke="#fff" stroke-width="4.689" d="M4.37 14.43h13.97v4.28c-3.65 4.44-5.95 9.56-6.16 15.72"/></g><g filter="url(#c)"><path stroke="#000" stroke-width="4.689" d="M12.18 34.44H7.4c.19-5.32.73-10.55 4.78-14.9H4.37v-5.12"/></g></g><mask id="d" width="50" height="29" x=".234" y="10" mask-type="alpha" maskUnits="userSpaceOnUse"><path fill="#fff" d="M.23 10v29h50V16.44H22.51V10z"/></mask><g mask="url(#d)"><g filter="url(#e)"><path stroke="#fff" stroke-width="4.689" d="M50.23 39V16.44H22.51V10H.24"/></g><g filter="url(#f)"><path stroke="#000" stroke-width="4.689" d="M.23 10v29h50"/></g></g><path fill="#fff" d="M49.65 17.09v21.58H22V17.09z"/><path stroke="#000" stroke-width=".464" d="M49.65 38.67H22V17.09h27.65z"/><path fill="#000" fill-rule="evenodd" d="M34.62 19.74v14.49h3.01V19.74zm-10.79.09v3.3h4.66l-4.84 7.98v3.21h8.87v-3.21h-5.67l5.85-8.34v-2.93zm16.54.01V34.4h3.29v-5.13h2.19c3.51-.01 3.6-9.54-.19-9.44zm3.11 3.12h1.28c1.43-.05 1.46 3.22 0 3.01l-1.19.1z"/><path stroke="#000" stroke-width=".464" d="M34.62 34.23h3.01V19.74h-3.01zm-10.79-11.1h4.66l-4.84 7.98v3.21h8.87v-3.21h-5.67l5.85-8.34v-2.93l-8.87-.01zM40.37 34.4h3.29v-5.13h2.19c3.51-.01 3.6-9.54-.19-9.44l-5.29.01zm4.39-11.44c1.43-.05 1.46 3.22 0 3.01l-1.19.1-.09-3.11z"/><mask id="g" width="24.842" height="14.662" x="23.656" y="19.747" mask-type="alpha" maskUnits="userSpaceOnUse"><path fill="#fff" d="M34.62 19.74v14.49h3.01V19.74zm-10.79.09v3.3h4.66l-4.84 7.98v3.21h8.87v-3.21h-5.67l5.85-8.34v-2.93zm16.54.01V34.4h3.29v-5.13h2.19c3.51-.01 3.6-9.54-.19-9.44zm3.11 3.12h1.28c1.43-.05 1.46 3.22 0 3.01l-1.19.1z"/></mask><g mask="url(#g)"><g filter="url(#h)"><path stroke="#fff" stroke-width="4.641" d="M37.63 34.23V19.74h-3.01m-2.1 14.58v-3.21h-5.67l5.85-8.34v-2.94h-8.86m19.83 14.58v-5.13m2.19 0c3.51-.02 3.6-9.55-.19-9.44h-5.29m4.39 6.13-1.19.1-.1-3.12"/></g><g filter="url(#i)"><path stroke="#000" stroke-width="4.641" d="M34.62 19.74v14.49h3.01m-13.8-14.41v3.31h4.66l-4.84 7.97v3.21h8.87m7.85-14.48V34.4h3.29m0-5.14h2.19m-2.37-6.31h1.28c1.43-.05 1.46 3.21 0 3.01"/></g></g><mask id="j" width="27.656" height="21.585" x="22.002" y="17.092" mask-type="alpha" maskUnits="userSpaceOnUse"><path fill="#fff" d="M49.65 17.09v21.58H22V17.09z"/></mask><g mask="url(#j)"><g filter="url(#k)"><path stroke="#fff" stroke-width="4.641" d="M49.65 38.67V17.09H22"/></g><g filter="url(#l)"><path stroke="#000" stroke-width="4.641" d="M49.65 38.67H22V17.09"/></g></g></svg>