<svg xmlns="http://www.w3.org/2000/svg" width="50" height="50.001" fill="none" viewBox="0 0 50 50.001"><defs><linearGradient id="b" x1="15.685" x2="56.475" y1="18.727" y2="59.654" gradientUnits="userSpaceOnUse"><stop stop-color="#fff"/><stop offset="1" stop-color="#dfdfec"/></linearGradient><linearGradient id="c" x1="43.827" x2="4.488" y1="8.86" y2="48.331" gradientUnits="userSpaceOnUse"><stop stop-color="#fff"/><stop offset=".317" stop-color="#fcfcfc"/><stop offset=".512" stop-color="#f4f4f4"/><stop offset=".674" stop-color="#e6e6e6"/><stop offset=".817" stop-color="#d1d1d1"/><stop offset=".948" stop-color="#b7b7b7"/><stop offset="1" stop-color="#aaa"/></linearGradient><linearGradient id="d" x1="-8.07" x2="49.448" y1="-11.133" y2="57.107" gradientUnits="userSpaceOnUse"><stop stop-color="#fff"/><stop offset=".517" stop-color="red"/><stop offset="1" stop-color="#800"/></linearGradient><clipPath id="a"><path fill="#fff" fill-opacity="0" d="M3 0h44v50.001H3z"/></clipPath></defs><g clip-path="url(#a)"><path fill="url(#b)" d="M46.51 49.51H3.48V6.33h43.03z"/><path fill="red" d="M46.51 49.51H3.48V6.33h43.03z"/><path fill="url(#c)" d="M44.43 47.42H5.56V8.43h38.87z"/><path fill="url(#d)" d="M3.48 5.85a.48.48 0 0 0-.48.48v43.18c0 .27.21.49.48.49h43.03c.27 0 .49-.22.49-.49V6.33c0-.26-.22-.48-.49-.48zm42.55.96v42.22H3.96V6.81z"/><g opacity=".35"><path fill="none" d="M27.28 2.26C23.44 5.69 40.11 35.97 44.1 28.19c4.49-8.74-39.97 9.77-30.38 12.28C24.95 43.4 34.43-4.13 27.28 2.26"/><path fill="#000" d="M26.53 1.79c-2.84 2.8.29 8.79 1.55 11.64 2.3 5.21 5.31 10.63 9.39 14.66 1.19 1.19 2.68 2.45 4.46 2.41 1.73-.04 3.17-1.57 3.63-3.15.95-3.32-4.32-2.48-5.98-2.18-4.95.88-9.79 2.79-14.39 4.77-4.19 1.81-8.62 3.83-12.13 6.81-.92.79-1.99 1.89-1.94 3.18.05 1.27 1.88 1.65 2.82 1.69 4.2.21 7.2-4.09 9.05-7.28 4.11-7.07 6.36-15.64 7.55-23.68.39-2.64.89-5.75.18-8.38-.63-2.28-2.74-1.74-4.19-.49-1.41 1.21.43 1.86 1.5.94.26-.22-.27-.09-.12.02.19.13.38.81.45 1.19.35 1.82.14 3.76-.06 5.58-.62 5.65-2.04 11.28-3.92 16.63-1.48 4.23-3.44 9.93-7.21 12.69-.99.74-2.34 1.04-3.41.29-.21-.14-.17-.3-.12-.42.14-.3.61-.75 1.06-1.14 3.46-2.94 8.13-4.8 12.27-6.52 4.3-1.78 8.96-3.64 13.62-4.1.81-.08 2.42-.17 2.57.5.06.26-.1.76-.32 1-.32.01-.73-.2-1.01-.34-2-1.01-3.52-3.05-4.83-4.8-1.84-2.43-3.41-5.07-4.84-7.77-1.35-2.57-2.57-5.25-3.45-8.03-.33-1.06-.6-2.15-.72-3.25-.04-.36-.05-.72-.01-1.08.02-.23.26-.66.05-.45 1.31-1.3-.48-1.95-1.5-.94" opacity=".35"/></g><path fill="none" d="M25.75 1.55c-3.84 3.42 12.83 33.7 16.82 25.93 4.49-8.75-39.97 9.77-30.38 12.27 11.23 2.94 20.72-44.6 13.56-38.2"/><path fill="red" d="M25 1.07c-2.83 2.8.29 8.8 1.55 11.65 2.3 5.21 5.31 10.62 9.38 14.66 1.21 1.18 2.69 2.44 4.47 2.4 1.73-.04 3.17-1.56 3.63-3.14.96-3.32-4.32-2.48-5.98-2.19-4.96.89-9.79 2.8-14.39 4.78-4.2 1.8-8.62 3.82-12.12 6.81-.92.78-2 1.89-1.95 3.19.05 1.26 1.88 1.63 2.83 1.68 4.19.21 7.19-4.09 9.04-7.28 4.11-7.08 6.36-15.64 7.55-23.68.39-2.64.9-5.76.18-8.39-.62-2.27-2.74-1.74-4.19-.49-1.4 1.22.43 1.87 1.5.95.26-.23-.27-.09-.12.02.19.13.38.81.45 1.19.35 1.82.14 3.76-.06 5.58-.61 5.64-2.04 11.28-3.92 16.63-1.48 4.23-3.44 9.92-7.21 12.7-.98.72-2.34 1.02-3.41.27-.2-.14-.17-.29-.11-.41.13-.3.61-.76 1.05-1.14 3.45-2.95 8.13-4.8 12.28-6.52 4.29-1.79 8.96-3.65 13.63-4.11.79-.08 2.4-.16 2.55.51.06.25-.1.76-.32 1-.32 0-.73-.2-1.01-.34-1.99-1.02-3.51-3.06-4.83-4.8-1.84-2.44-3.41-5.08-4.83-7.77-1.36-2.57-2.58-5.25-3.46-8.03-.33-1.06-.6-2.15-.72-3.25-.04-.36-.05-.72-.01-1.08.02-.24.26-.66.05-.45 1.32-1.3-.48-1.95-1.5-.95"/></g></svg>