<svg xmlns="http://www.w3.org/2000/svg" width="58" height="58" fill="none" viewBox="0 0 58 58"><g filter="url(#a)"><path fill="#000" d="M19.345 4H5.3C4.582 4 4 4.607 4 5.356v13.938c0 .749.582 1.356 1.3 1.356h14.045c.718 0 1.3-.607 1.3-1.356V5.356c0-.749-.582-1.356-1.3-1.356"/></g><g filter="url(#b)"><path fill="#000" d="M36.018 20.675H21.955c-.718 0-1.3.607-1.3 1.356V35.97c0 .749.582 1.356 1.3 1.356h14.063c.718 0 1.3-.607 1.3-1.357V22.032c0-.749-.582-1.356-1.3-1.356"/></g><g filter="url(#c)"><path fill="#000" d="M52.7 37.35H38.635c-.718 0-1.3.607-1.3 1.356v13.938c0 .749.582 1.356 1.3 1.356H52.7c.718 0 1.3-.607 1.3-1.356V38.706c0-.749-.582-1.356-1.3-1.356"/></g><path fill="url(#d)" d="M5.262 6.107H4v11.601h1.262z"/><path fill="url(#e)" d="M18.912 6.134h1.732v11.154h-1.732z"/><path fill="#f3f3f3" d="M18.384 4H5.47v.94h12.915z"/><path fill="url(#f)" d="M5.121 6.569 4 6.179v-.902C4.055 4.454 4.73 4 5.25 4h.239l.403 1.667z"/><path fill="url(#g)" d="m18.968 7.305 1.676-1.097v-.976c-.039-.459-.393-1.193-1.266-1.232h-1.154l-.398 2.017z"/><path fill="url(#h)" d="m18.716 16.839 1.928.39v2.19c-.039.458-.393 1.192-1.266 1.231h-1.032l-.343-1.972z"/><path fill="url(#i)" d="M5.914 17.27 4 17.183v2.19c.055.824.73 1.277 1.25 1.277h1.046l.417-1.928z"/><path fill="#b7b7b7" d="M18.369 17.559H6.25v3.09h12.118z"/><path fill="url(#j)" d="M35.586 22.757h1.732V33.91h-1.732z"/><path fill="#f3f3f3" d="M34.948 20.675H22.133v1.066h12.815z"/><path fill="url(#k)" d="m21.776 23.244-1.121-.39v-.902c.055-.823.73-1.277 1.25-1.277h.239l.403 1.668z"/><path fill="url(#l)" d="m35.642 23.98 1.676-1.097v-.976c-.039-.459-.393-1.193-1.266-1.232h-1.154l-.027 2.404z"/><path fill="url(#m)" d="M52.266 39.432h1.732v11.154h-1.732z"/><path fill="#f3f3f3" d="M51.628 37.35H38.813v1.372h12.815z"/><path fill="url(#n)" d="m38.816 40.455-1.481-.926v-.902c.055-.823.73-1.277 1.25-1.277h.239l.403 1.668z"/><path fill="url(#o)" d="m52.322 40.655 1.676-1.097v-.977c-.039-.458-.393-1.192-1.266-1.231h-1.154l-.027 2.404z"/><path fill="url(#p)" d="m35.391 33.514 1.929.39v2.19c-.04.458-.394 1.192-1.266 1.231H35.02l-.4-2.91z"/><path fill="url(#q)" d="m39.263 50.144-1.928.39v2.19c.055.823.73 1.276 1.25 1.276h1.046l.403-2.956z"/><path fill="url(#r)" d="m52.071 50.189 1.929.39v2.19c-.04.458-.393 1.192-1.266 1.231H51.7l-.4-2.91z"/><path fill="url(#s)" d="m22.533 34.07-1.878-.211v2.19c.055.823.73 1.276 1.25 1.276h1.046l.877-2.27z"/><path fill="#b7b7b7" d="M35.24 34.234H22.95v3.09h12.29z"/><path fill="url(#t)" d="M22.12 22.704h-1.465v11.66h1.464z"/><path fill="url(#u)" d="M34.935 21.482h-11.91c-.622 0-1.125.525-1.125 1.173v12.054c0 .648.503 1.174 1.124 1.174h11.91c.622 0 1.125-.526 1.125-1.174V22.655c0-.648-.503-1.174-1.124-1.174"/><path fill="#b7b7b7" d="M51.977 50.909H39.46v3.09h12.517z"/><path fill="url(#v)" d="M38.84 39.379h-1.505V50.92h1.505z"/><path fill="url(#w)" d="M51.849 38.156h-11.91c-.62 0-1.123.526-1.123 1.174v12.054c0 .648.503 1.173 1.124 1.173h11.909c.62 0 1.124-.525 1.124-1.173V39.33c0-.648-.503-1.174-1.124-1.174"/><path fill="url(#x)" d="M17.843 4.807H5.983c-.621 0-1.125.525-1.125 1.173v12.055c0 .647.504 1.173 1.125 1.173h11.86c.621 0 1.125-.526 1.125-1.173V5.98c0-.648-.504-1.173-1.125-1.173"/><path fill="#000" d="m12.648 12.542.346 1.062h.516l-1.266-3.649h-.536l-1.315 3.649h.487l.365-1.062zm-1.256-.437.56-1.606h.01l.516 1.606zM30.11 28.164h-1.826v-1.509h-.472v3.649h.472V28.6h1.827v1.703h.472v-3.649h-.472zM44.992 45.678l.55-.548 1.223 1.829h.613l-1.495-2.175 1.456-1.474h-.652l-1.695 1.769V43.31h-.473v3.649h.473z"/><defs><linearGradient id="d" x1="4" x2="6.354" y1="17.555" y2="6.336" gradientUnits="userSpaceOnUse"><stop stop-color="#cfd0d1"/><stop offset="1" stop-color="#dbdbdb"/></linearGradient><linearGradient id="e" x1="20.644" x2="18.981" y1="17.288" y2="6.123" gradientUnits="userSpaceOnUse"><stop stop-color="#cfd0d1"/><stop offset="1" stop-color="#dbdbdb"/></linearGradient><linearGradient id="f" x1="4.907" x2="6.025" y1="6.3" y2="5.564" gradientUnits="userSpaceOnUse"><stop stop-color="#dbdbdb"/><stop offset="1" stop-color="#f3f3f3"/></linearGradient><linearGradient id="g" x1="19.338" x2="18.52" y1="5.973" y2="4.837" gradientUnits="userSpaceOnUse"><stop stop-color="#dbdbdb"/><stop offset="1" stop-color="#f3f3f3"/></linearGradient><linearGradient id="h" x1="19.738" x2="18.62" y1="18.396" y2="19.131" gradientUnits="userSpaceOnUse"><stop stop-color="#cfd0d1"/><stop offset="1" stop-color="#b7b7b7"/></linearGradient><linearGradient id="i" x1="4.907" x2="6.025" y1="18.351" y2="19.086" gradientUnits="userSpaceOnUse"><stop stop-color="#cfd0d1"/><stop offset="1" stop-color="#b7b7b7"/></linearGradient><linearGradient id="j" x1="37.318" x2="35.655" y1="33.911" y2="22.746" gradientUnits="userSpaceOnUse"><stop stop-color="#cfd0d1"/><stop offset="1" stop-color="#dbdbdb"/></linearGradient><linearGradient id="k" x1="21.561" x2="22.679" y1="22.974" y2="22.239" gradientUnits="userSpaceOnUse"><stop stop-color="#dbdbdb"/><stop offset="1" stop-color="#f3f3f3"/></linearGradient><linearGradient id="l" x1="36.011" x2="35.193" y1="22.648" y2="21.512" gradientUnits="userSpaceOnUse"><stop stop-color="#dbdbdb"/><stop offset="1" stop-color="#f3f3f3"/></linearGradient><linearGradient id="m" x1="53.998" x2="52.335" y1="50.586" y2="39.421" gradientUnits="userSpaceOnUse"><stop stop-color="#cfd0d1"/><stop offset="1" stop-color="#dbdbdb"/></linearGradient><linearGradient id="n" x1="38.239" x2="39.357" y1="39.649" y2="38.914" gradientUnits="userSpaceOnUse"><stop stop-color="#dbdbdb"/><stop offset="1" stop-color="#f3f3f3"/></linearGradient><linearGradient id="o" x1="52.691" x2="51.873" y1="39.323" y2="38.187" gradientUnits="userSpaceOnUse"><stop stop-color="#dbdbdb"/><stop offset="1" stop-color="#f3f3f3"/></linearGradient><linearGradient id="p" x1="36.414" x2="35.296" y1="35.071" y2="35.806" gradientUnits="userSpaceOnUse"><stop stop-color="#cfd0d1"/><stop offset="1" stop-color="#b7b7b7"/></linearGradient><linearGradient id="q" x1="38.239" x2="39.357" y1="51.701" y2="52.436" gradientUnits="userSpaceOnUse"><stop stop-color="#cfd0d1"/><stop offset="1" stop-color="#b7b7b7"/></linearGradient><linearGradient id="r" x1="53.093" x2="51.975" y1="51.746" y2="52.481" gradientUnits="userSpaceOnUse"><stop stop-color="#cfd0d1"/><stop offset="1" stop-color="#b7b7b7"/></linearGradient><linearGradient id="s" x1="21.561" x2="22.679" y1="35.026" y2="35.761" gradientUnits="userSpaceOnUse"><stop stop-color="#cfd0d1"/><stop offset="1" stop-color="#b7b7b7"/></linearGradient><linearGradient id="t" x1="20.655" x2="22.78" y1="34.365" y2="22.826" gradientUnits="userSpaceOnUse"><stop stop-color="#cfd0d1"/><stop offset="1" stop-color="#dbdbdb"/></linearGradient><linearGradient id="u" x1="21.9" x2="28.98" y1="28.682" y2="28.682" gradientUnits="userSpaceOnUse"><stop stop-color="#f4f5f7"/><stop offset="1" stop-color="#e9eaeb"/></linearGradient><linearGradient id="v" x1="37.335" x2="39.366" y1="50.921" y2="39.472" gradientUnits="userSpaceOnUse"><stop stop-color="#cfd0d1"/><stop offset="1" stop-color="#dbdbdb"/></linearGradient><linearGradient id="w" x1="38.816" x2="45.894" y1="45.357" y2="45.357" gradientUnits="userSpaceOnUse"><stop stop-color="#f4f5f7"/><stop offset="1" stop-color="#e9eaeb"/></linearGradient><linearGradient id="x" x1="4.858" x2="11.913" y1="12.007" y2="12.007" gradientUnits="userSpaceOnUse"><stop stop-color="#f4f5f7"/><stop offset="1" stop-color="#e9eaeb"/></linearGradient><filter id="a" width="22.692" height="22.697" x=".977" y=".977" color-interpolation-filters="sRGB" filterUnits="userSpaceOnUse"><feFlood flood-opacity="0" result="BackgroundImageFix"/><feBlend in="SourceGraphic" in2="BackgroundImageFix" result="shape"/><feGaussianBlur result="effect1_foregroundBlur_207_200" stdDeviation="1.512"/></filter><filter id="b" width="22.71" height="22.697" x="17.631" y="17.651" color-interpolation-filters="sRGB" filterUnits="userSpaceOnUse"><feFlood flood-opacity="0" result="BackgroundImageFix"/><feBlend in="SourceGraphic" in2="BackgroundImageFix" result="shape"/><feGaussianBlur result="effect1_foregroundBlur_207_200" stdDeviation="1.512"/></filter><filter id="c" width="22.712" height="22.697" x="34.311" y="34.326" color-interpolation-filters="sRGB" filterUnits="userSpaceOnUse"><feFlood flood-opacity="0" result="BackgroundImageFix"/><feBlend in="SourceGraphic" in2="BackgroundImageFix" result="shape"/><feGaussianBlur result="effect1_foregroundBlur_207_200" stdDeviation="1.512"/></filter></defs></svg>