<svg xmlns="http://www.w3.org/2000/svg" width="50" height="50" fill="none" viewBox="0 0 50 50"><path fill="#b0c1d4" d="M47.222.347H2.778a2.43 2.43 0 0 0-2.43 2.43v44.445a2.43 2.43 0 0 0 2.43 2.43h44.444a2.43 2.43 0 0 0 2.43-2.43V2.778a2.43 2.43 0 0 0-2.43-2.43"/><path fill="#66798f" d="M47.222.694a2.083 2.083 0 0 1 2.084 2.084v44.444a2.083 2.083 0 0 1-2.084 2.084H2.778a2.083 2.083 0 0 1-2.084-2.084V2.778A2.083 2.083 0 0 1 2.778.694zm0-.694H2.778A2.78 2.78 0 0 0 0 2.778v44.444A2.78 2.78 0 0 0 2.778 50h44.444A2.78 2.78 0 0 0 50 47.222V2.778A2.78 2.78 0 0 0 47.222 0"/><path fill="#d8e2ed" d="M47.222.694H2.778c-1.15 0-2.084.933-2.084 2.084v40.278c0 1.15.933 2.083 2.084 2.083h44.444c1.15 0 2.084-.933 2.084-2.083V2.778c0-1.15-.933-2.084-2.084-2.084"/><path fill="#36404d" d="M17.917 31.639H8.333V13.583h9.18V15.5h-7.062v6.014h6.535v1.903h-6.535v6.305h7.466zm2.423-.465v-2.216a6.12 6.12 0 0 0 3.723 1.25q2.721 0 2.722-1.82a1.58 1.58 0 0 0-.236-.874 2.3 2.3 0 0 0-.632-.639 5 5 0 0 0-.917-.486l-1.153-.458a15 15 0 0 1-1.507-.695 4.6 4.6 0 0 1-1.083-.785 2.9 2.9 0 0 1-.653-.993 3.5 3.5 0 0 1-.222-1.298 3.1 3.1 0 0 1 .417-1.611c.279-.469.658-.87 1.11-1.174a5.2 5.2 0 0 1 1.584-.694 7 7 0 0 1 1.833-.244 7.4 7.4 0 0 1 3 .584v2.083A5.85 5.85 0 0 0 25 20.14a3.8 3.8 0 0 0-1.049.132 2.6 2.6 0 0 0-.798.375c-.213.15-.389.348-.514.576-.122.226-.184.48-.18.736-.012.293.05.585.18.848.132.238.314.444.535.604q.4.291.86.479l1.147.465q.788.306 1.541.695c.42.209.81.472 1.16.784.311.28.562.62.736 1 .181.426.269.885.257 1.348a3.2 3.2 0 0 1-.403 1.68c-.283.472-.67.874-1.132 1.174a5.2 5.2 0 0 1-1.625.694 8 8 0 0 1-1.93.23 7.3 7.3 0 0 1-3.445-.785m20.549-.125a6.7 6.7 0 0 1-3.535.895 5.85 5.85 0 0 1-4.458-1.798 6.51 6.51 0 0 1-1.695-4.66 7.16 7.16 0 0 1 1.827-5.125 6.4 6.4 0 0 1 4.86-1.937 6.8 6.8 0 0 1 3 .632v2.118a5.26 5.26 0 0 0-3.055-1.035 4.17 4.17 0 0 0-3.25 1.389 5.38 5.38 0 0 0-1.25 3.785 5.13 5.13 0 0 0 1.18 3.576 4.11 4.11 0 0 0 3.195 1.312 5.2 5.2 0 0 0 3.18-1.125z"/><path fill="red" d="m21.557 36.92-.904.256a1.7 1.7 0 0 0-.251-.439 1.2 1.2 0 0 0-.443-.358q-.282-.14-.72-.14-.6 0-1.002.277-.396.272-.396.694 0 .375.273.593.271.216.852.362l.971.238q.879.214 1.309.652.43.435.43 1.121 0 .562-.324 1.006a2.15 2.15 0 0 1-.895.699q-.575.255-1.338.255-1.001 0-1.657-.434-.657-.435-.831-1.27l.954-.239q.137.529.516.793.384.264 1.001.264.703 0 1.117-.298.417-.303.417-.725a.76.76 0 0 0-.238-.57q-.24-.235-.733-.35l-1.091-.256q-.9-.213-1.321-.66-.418-.452-.418-1.13 0-.554.311-.98.315-.426.857-.669a3 3 0 0 1 1.236-.243q.971 0 1.525.426.558.427.793 1.125m4.292 5.216q-.92 0-1.585-.434a2.83 2.83 0 0 1-1.023-1.198q-.358-.763-.358-1.743 0-.996.367-1.76.37-.766 1.03-1.197.666-.435 1.552-.435.69 0 1.244.256t.908.716.439 1.074h-1.006a1.56 1.56 0 0 0-.511-.793q-.392-.35-1.057-.35-.588 0-1.031.308a2 2 0 0 0-.686.856q-.243.55-.243 1.291 0 .759.239 1.321.242.562.681.874.444.31 1.04.311.392 0 .712-.136.32-.137.54-.392.223-.255.316-.614h1.006a2.33 2.33 0 0 1-1.304 1.777q-.546.268-1.27.268m7.095-8.863V42h-1.057v-7.62h-.05l-2.131 1.415v-1.073l2.181-1.45z"/></svg>