<svg xmlns="http://www.w3.org/2000/svg" width="50" height="50" fill="none" viewBox="0 0 50 50"><path fill="#fe99a0" d="M43.471 35.753c1.073 1.173 2.435 2.94 2.435 4.403 0 3.438-2.807 6.227-6.273 6.235h-.015a6.3 6.3 0 0 1-1.904-.293.41.41 0 0 0-.5.22A6.31 6.31 0 0 1 31.485 50c-3.48.012-6.328-2.894-6.328-6.345L20.81 12.167l4.348-7.496c0-2.53 2.088-4.678 4.64-4.671a4.62 4.62 0 0 1 4.474 3.465c.058.23.301.365.527.285a6.2 6.2 0 0 1 2.498-.338c3.088.214 5.556 2.724 5.696 5.79a6 6 0 0 1-.308 2.207c-.08.237.076.49.326.525 3.146.448 5.565 3.13 5.565 6.373a6.37 6.37 0 0 1-1.297 3.858.4.4 0 0 0 .066.544A7.54 7.54 0 0 1 50 28.452c0 3.35-3.18 5.704-6.344 6.647a.4.4 0 0 0-.185.654"/><path fill="#fe646f" d="M34.66 8.925a.72.72 0 0 0-.354-.437.74.74 0 0 0-.562-.06c-.282.081-.755-.186-1.16-.52q.353-.435.65-.97a.72.72 0 0 0 .067-.56.72.72 0 0 0-.354-.44.74.74 0 0 0-.565-.061.73.73 0 0 0-.442.355c-.54.973-1.22 1.585-2.072 1.866.15-1.07.077-2.635-1.268-3.645a.74.74 0 0 0-.547-.142.735.735 0 0 0-.537 1.096q.075.126.191.213c.904.679.784 1.944.632 2.64-1.743-.14-3.333-1.202-3.354-1.216a.74.74 0 0 0-.552-.114.735.735 0 0 0-.59.852.72.72 0 0 0 .305.47c.103.07 2.214 1.488 4.568 1.488.4 0 .806-.04 1.21-.136a4.6 4.6 0 0 0 1.572-.69c.499.437 1.298.992 2.147.992q.256.002.513-.072a.734.734 0 0 0 .502-.91m-.936 11.373a8 8 0 0 1-.26-.004.736.736 0 0 1-.713-.758.74.74 0 0 1 .764-.706c.848.03 1.487-.122 1.8-.425.187-.18.276-.44.273-.792a.72.72 0 0 1 .211-.52.73.73 0 0 1 .52-.22h.008a.74.74 0 0 1 .738.726c.007.764-.234 1.388-.718 1.855-.58.56-1.462.844-2.623.844"/><path fill="#fd8087" d="M43.471 35.753c1.073 1.173 2.435 2.94 2.435 4.403 0 3.438-2.807 6.227-6.273 6.235 2.37-.936 4.044-3.23 4.044-5.913 0-1.494-1.39-3.297-2.486-4.494a.41.41 0 0 1 .19-.668c3.229-.962 6.473-3.363 6.473-6.783a7.7 7.7 0 0 0-2.71-5.86.41.41 0 0 1-.066-.555 6.5 6.5 0 0 0 1.324-3.937c0-3.31-2.469-6.047-5.68-6.504a.41.41 0 0 1-.332-.535 6.2 6.2 0 0 0 .313-2.252c-.113-2.486-1.726-4.613-3.964-5.492q.276-.005.558.014c3.088.214 5.556 2.724 5.696 5.79a6 6 0 0 1-.308 2.207c-.08.237.076.49.326.525 3.146.448 5.565 3.13 5.565 6.373a6.37 6.37 0 0 1-1.297 3.858.4.4 0 0 0 .066.544A7.54 7.54 0 0 1 50 28.452c0 3.35-3.18 5.704-6.344 6.647a.4.4 0 0 0-.185.654"/><path fill="#fe646f" d="M28.965 16.327a.73.73 0 0 1-.381-.105.7.7 0 0 1-.272-.285.7.7 0 0 1-.084-.383.7.7 0 0 1 .127-.372c.964-1.401 2.813-3.065 6.132-3.014a.735.735 0 0 1 .669 1.016.73.73 0 0 1-.399.394.7.7 0 0 1-.281.055h-.011c-2.136-.032-3.784.768-4.889 2.374a.7.7 0 0 1-.61.32m5.903 26.996a.74.74 0 0 0-.833-.625c-1.847.252-3.067-.36-3.64-1.822a5.2 5.2 0 0 0 2.199-1.318.725.725 0 0 0 .157-.796.73.73 0 0 0-.398-.396.74.74 0 0 0-.564 0 .7.7 0 0 0-.24.157c-1.047 1.038-2.441 1.353-4.144.938a8.7 8.7 0 0 1-2.426-1.029.73.73 0 0 0-.555-.11.734.734 0 0 0-.473 1.124q.082.12.204.202c.05.034 1.247.824 2.852 1.225q.927.23 1.778.23l.123-.003c.662 2.018 2.205 3.117 4.363 3.117q.465 0 .966-.068a.736.736 0 0 0 .63-.826m2.358-4.215a.73.73 0 0 1-.38-.103.7.7 0 0 1-.271-.283c-1.114-2.057-.761-3.552-.269-4.443a3.9 3.9 0 0 1 1.405-1.465.74.74 0 0 1 .562-.066.733.733 0 0 1 .383 1.155.7.7 0 0 1-.217.186c-.215.125-2.009 1.27-.562 3.94a.726.726 0 0 1-.287.984.74.74 0 0 1-.364.095m1.285 3.549-.2-.003a.737.737 0 0 1-.72-.75.734.734 0 0 1 .758-.714c.963.024 1.66-.165 2.018-.545a1.05 1.05 0 0 0 .285-.708.72.72 0 0 1 .166-.536.73.73 0 0 1 .5-.263.737.737 0 0 1 .805.66c.01.104.077 1.045-.676 1.846-.633.672-1.62 1.013-2.936 1.013"/><path fill="#99e6fc" d="M25.158 4.588v39.16C25.158 47.2 22.334 50 18.85 50q-.437 0-.86-.058a6.3 6.3 0 0 1-5.033-3.968 6.3 6.3 0 0 1-2.26.417c-3.473 0-6.288-2.792-6.288-6.235 0-1.682 1.798-3.764 2.89-4.885C3.94 34.47.317 32.029.317 28.452a7.55 7.55 0 0 1 2.958-5.99 6.38 6.38 0 0 1-1.535-4.155c0-3.416 2.683-6.208 6.072-6.425a6 6 0 0 1-.495-2.398c0-3.362 2.749-6.087 6.14-6.087.889 0 1.733.189 2.496.526A4.61 4.61 0 0 1 20.531 0c2.555 0 4.627 2.055 4.627 4.588"/><path fill="#62dbfb" d="M25.158 4.588v39.16C25.158 47.2 22.334 50 18.85 50q-.437 0-.86-.058c2.725-.706 4.737-3.162 4.737-6.085V4.467c0-2.027-1.32-3.751-3.157-4.368Q20.036 0 20.53 0c2.556 0 4.627 2.055 4.627 4.588"/><g fill="#6fd7a3"><ellipse cx="12.912" cy="46.454" rx="3.246" ry="3.218"/><path d="M19.281 20.858a.72.72 0 0 1-.45-.151l-11.82-9.001a.728.728 0 0 1 .088-1.207.74.74 0 0 1 .555-.077q.141.035.257.122l11.82 9.001a.7.7 0 0 1 .258.369.7.7 0 0 1-.008.448.7.7 0 0 1-.27.36.73.73 0 0 1-.43.136M6.371 35.954a.72.72 0 0 1-.458-.156.7.7 0 0 1-.261-.404.7.7 0 0 1 .045-.477.7.7 0 0 1 .334-.347l11.82-6.05a.74.74 0 0 1 .808.098.725.725 0 0 1 .226.774.72.72 0 0 1-.356.429L6.71 35.872a.7.7 0 0 1-.338.082M17.98 25.095a1 1 0 0 1-.1-.007L3.103 23.094a.737.737 0 0 1-.633-.825.74.74 0 0 1 .832-.627l14.775 1.995a.736.736 0 0 1 .638.775.72.72 0 0 1-.232.485.73.73 0 0 1-.504.198m-4.403 20.726a.73.73 0 0 1-.383-.107.7.7 0 0 1-.271-.287.7.7 0 0 1-.083-.385.7.7 0 0 1 .13-.372l8.373-11.955a.743.743 0 0 1 1.029-.184c.335.231.418.687.185 1.02l-8.373 11.955a.7.7 0 0 1-.607.315m8.745-28.198a.73.73 0 0 1-.392-.111.7.7 0 0 1-.272-.3L15.748 5.25a.72.72 0 0 1-.036-.559.72.72 0 0 1 .374-.42.74.74 0 0 1 .564-.035.73.73 0 0 1 .425.37l5.91 11.962a.724.724 0 0 1-.155.853.74.74 0 0 1-.508.201"/></g><path fill="#3ec3a4" d="M16.158 46.454c0 1.777-1.453 3.218-3.246 3.218q-.482-.002-.921-.132a3.37 3.37 0 0 0 2.037-3.086c0-1.38-.839-2.567-2.04-3.086q.452-.133.925-.133c1.792 0 3.245 1.442 3.245 3.22"/><path fill="#fe646f" d="M41.589 27.196c-1.148-.57-2.224.245-2.818.858-1.061-.576-2.515-.814-3.77-.903a.737.737 0 0 0-.75.96.73.73 0 0 0 .367.424q.132.066.277.077c2.087.149 3.595.688 3.84 1.374a.7.7 0 0 0 .27.353.73.73 0 0 0 .601.113.74.74 0 0 0 .557-.612.7.7 0 0 0-.035-.345 2.2 2.2 0 0 0-.24-.475c.342-.337.78-.643 1.04-.514a.74.74 0 0 0 .564.04.734.734 0 0 0 .467-.927.72.72 0 0 0-.37-.423"/><path fill="#dff6fd" d="M35.652 25c0 5.746-4.699 10.404-10.495 10.404q-.161 0-.323-.005c-5.646-.169-10.17-4.76-10.17-10.399 0-5.64 4.526-10.231 10.174-10.398q.16-.005.32-.005c5.795 0 10.494 4.657 10.494 10.403"/><path fill="#d8ecfe" d="M35.652 25c0 5.746-4.699 10.404-10.495 10.404q-.161 0-.323-.005c4.79-1.077 8.364-5.324 8.364-10.399s-3.572-9.32-8.36-10.398q.16-.005.32-.005c5.795 0 10.494 4.657 10.494 10.403"/><ellipse cx="5.582" cy="35.625" fill="#6fd7a3" rx="3.246" ry="3.218"/><path fill="#3ec3a4" d="M8.828 35.625c0 1.777-1.453 3.218-3.246 3.218q-.482-.002-.922-.132a3.37 3.37 0 0 0 2.038-3.086c0-1.38-.84-2.567-2.041-3.086q.453-.133.925-.133c1.793 0 3.246 1.442 3.246 3.219"/><ellipse cx="3.246" cy="22.374" fill="#6fd7a3" rx="3.246" ry="3.218"/><path fill="#3ec3a4" d="M6.492 22.374c0 1.777-1.453 3.219-3.246 3.219a3.2 3.2 0 0 1-.924-.133 3.36 3.36 0 0 0 2.04-3.086c0-1.38-.839-2.566-2.04-3.085a3.2 3.2 0 0 1 .924-.133c1.793 0 3.246 1.44 3.246 3.218"/><ellipse cx="7.134" cy="10.876" fill="#6fd7a3" rx="3.246" ry="3.218"/><path fill="#3ec3a4" d="M10.38 10.876c0 1.777-1.453 3.219-3.246 3.219a3.2 3.2 0 0 1-.924-.133 3.36 3.36 0 0 0 2.04-3.086c0-1.379-.839-2.566-2.04-3.085a3.2 3.2 0 0 1 .924-.133c1.793 0 3.246 1.44 3.246 3.218"/><ellipse cx="15.796" cy="3.686" fill="#6fd7a3" rx="3.246" ry="3.218"/><path fill="#3ec3a4" d="M19.041 3.686c0 1.777-1.453 3.217-3.245 3.217q-.483-.002-.923-.131a3.37 3.37 0 0 0 2.039-3.087c0-1.38-.84-2.567-2.04-3.085q.441-.13.924-.132c1.793 0 3.245 1.44 3.245 3.218"/><path fill="#9facba" d="m27.18 28.96-3.12-8.198-.008-.02a.9.9 0 0 0-.341-.415.9.9 0 0 0-.518-.155.9.9 0 0 0-.526.16.9.9 0 0 0-.34.429l-3.149 8.196a.72.72 0 0 0 .017.56.73.73 0 0 0 .41.385.74.74 0 0 0 .954-.423l.603-1.57h4.04l.596 1.568a.7.7 0 0 0 .271.344.73.73 0 0 0 .597.108.74.74 0 0 0 .557-.622.7.7 0 0 0-.042-.348m-5.455-2.516 1.466-3.816 1.453 3.816zm7.504 3.384a.74.74 0 0 1-.739-.733v-8.314c0-.404.331-.732.74-.732.407 0 .738.328.738.732v8.314a.72.72 0 0 1-.216.518.73.73 0 0 1-.523.215"/><path fill="#fe646f" d="M43.77 18.506a.72.72 0 0 0-.349-.442.74.74 0 0 0-.56-.069.733.733 0 0 0-.516.901c.09.32.071.578-.055.787-.119.199-.346.38-.655.53a3 3 0 0 0-1.386-1.824.74.74 0 0 0-.562-.057.74.74 0 0 0-.524.626.72.72 0 0 0 .161.538.7.7 0 0 0 .222.182c.006.003.526.307.67.939.147.65-.142 1.489-.836 2.427a.726.726 0 0 0 .157 1.027.74.74 0 0 0 .551.133.74.74 0 0 0 .484-.294q.82-1.111 1.06-2.123c.71-.226 1.493-.63 1.928-1.354.333-.556.406-1.222.21-1.927m-3.115-2.882a.73.73 0 0 0 .423-.132.7.7 0 0 0 .27-.35.72.72 0 0 0-.023-.56.73.73 0 0 0-.417-.379c-.95-.344-1.523-.857-1.7-1.524-.134-.5-.004-.934.002-.955a.72.72 0 0 0-.039-.557.73.73 0 0 0-.425-.368.74.74 0 0 0-.562.036.73.73 0 0 0-.373.42c-.362 1.04-.286 3.284 2.59 4.324q.127.045.254.045"/></svg>