<svg xmlns="http://www.w3.org/2000/svg" width="50" height="50" fill="none" viewBox="0 0 50 50"><mask id="a" width="50" height="50" x="0" y="0" mask-type="alpha" maskUnits="userSpaceOnUse"><path fill="#fff" d="M49.98 17.92c.02.02.02.06-.01.07-.21.11-.42.23-.64.33-1.69.78-3.3 1.68-4.67 2.98-.46.45-.89.95-1.28 1.47-.38.49-.5 1.09-.5 1.71 0 .09.02.19.03.29.02.11.1.19.21.19h1.82c.11 0 .21.1.2.22-.04.75-.3 1.41-.74 1.95-.6.74-.85 1.62-1.13 2.51-.41 1.29-.44 2.61-.34 3.93.1 1.37-.39 2.47-1.18 3.49-.62.8-1.22 1.62-1.84 2.43-.63.82-.86 1.76-.8 2.8.09 1.35.4 2.64.68 3.95.23 1.07.3 2.17.44 3.26.01.03.01.06.01.1-.01.15-.17.24-.3.19-.21-.09-.39-.16-.55-.28-.79-.58-1.27-1.41-1.67-2.3-.19-.44-.37-.87-.56-1.3a.2.2 0 0 0-.11-.11c-.53-.22-.69-.36-.84-.73-.04-.08-.11-.14-.19-.14-.83-.01-1.66.08-2.45.36-1.43.52-2.85 1.02-4.26 1.59-1.56.63-3.18.76-4.81.55-1.56-.19-3.1-.54-4.65-.82-.52-.09-1.05-.14-1.57-.22-.13-.02-.26-.08-.38-.14-.94-.47-1.86-.97-2.81-1.43-1.03-.49-1.82-.14-2.2.95-.16.46-.25.93-.41 1.38-.23.69-.47 1.38-.74 2.05-.18.47-.52.71-1.03.79-.12.02-.23-.09-.22-.22.04-.43.06-.85.13-1.26.14-.87.39-1.73.48-2.61.08-.88.04-1.78.03-2.66 0-.13-.11-.28-.21-.38-.7-.74-1.39-1.47-2.11-2.19-.75-.76-1.48-1.54-1.99-2.5-.45-.87-1.17-.99-1.96-.83-1.28.26-2.54.59-3.81.9-.32.08-.63.16-.95.25-.04.01-.08-.01-.09-.05a.09.09 0 0 1 .01-.11c.15-.16.29-.32.46-.47.96-.83 1.94-1.63 2.89-2.47.57-.5 1.09-1.06 1.62-1.61.1-.11.17-.32.16-.48-.26-3.94.62-7.64 2.19-11.19.67-1.49 1.36-2.97 2.05-4.5.04-.08.11-.12.2-.13.57-.05.66-.67.89-1.12.15-.29.27-.61.39-.94.05-.14.22-.18.33-.07.07.07.15.14.23.22s.2.08.29 0c.19-.18.39-.36.54-.57.59-.88 1.17-1.76 1.71-2.68.24-.42.52-.68.99-.82 1.58-.46 3.15-.97 4.71-1.46.05-.02.1-.05.12-.09 0-.01 0-.02.01-.02.11-.97.19-1.05 1.13-1.21 1.01-.17 1.64-.73 1.81-1.79.17-1.05.22-2.13.32-3.19.08-.9.14-1.8.24-2.7.06-.53.2-.8.53-1.01.1-.07.22-.02.28.08.17.36.37.71.48 1.08.33 1.06.59 2.14.91 3.2.28.92.57 1.83.9 2.72.44 1.19 1.35 1.7 2.55 1.72.46.01.92.02 1.39 0 .56-.02 1.09.1 1.54.44 1.22.91 2.46 1.81 3.63 2.79.89.73 1.69 1.56 2.57 2.39.05.05.13.06.2.05.42-.07.8.15 1.18.42.08.06.11.17.07.27-.12.25-.24.5-.36.76-.05.11 0 .25.11.3.87.41 1.49 1.13 2.18 1.76.24.22.5.43.76.63.49.39 1.03.47 1.62.32 1.14-.3 2.29-.61 3.44-.87.89-.2 1.74-.31 2.68-.17zM25.79 43.76c.94 0 1.87.01 2.81 0 .25-.01.53-.05.74-.16 1.18-.62 2.36-1.22 3.5-1.91 1.17-.7 1.27-1.05.92-2.43-.31-1.24-.89-2.36-1.5-3.46-.73-1.3-1.29-2.63-1.33-4.16-.02-.81-.24-1.58-.61-2.31-.33-.64-.83-.94-1.51-.95-1.89-.02-3.74.21-5.54.84-4.64 1.64-7.48 5.61-7.55 10.57-.02 1.2.48 2.01 1.48 2.48.71.33 1.44.61 2.17.84 2.09.67 4.25.73 6.42.65M9.21 30.99c.19-.02.32-.02.45-.04 1.65-.28 3.19-.91 4.67-1.67.47-.25.91-.56 1.34-.88.16-.12.3-.34.36-.54 1.25-4.02 2.48-8.04 3.71-12.07.02-.04.03-.08.04-.13.02-.11-.05-.23-.16-.24-.45-.05-.84.1-1.21.33a22.8 22.8 0 0 0-4.01 3.11c-1.79 1.74-3.3 3.69-4.2 6.1-.71 1.92-.97 3.91-.99 6.03m30.21-6.6c-.13 0-.25-.02-.36.01-.59.1-1.18.19-1.76.34-1.24.33-2.43.79-3.55 1.45-.62.38-.73.62-.61 1.35.05.26.09.53.17.78.5 1.58.97 3.17 1.53 4.72.5 1.35 1.11 2.66 1.69 3.97.08.17.2.31.33.47.1.11.28.1.35-.04.64-1.2 1.11-2.36 1.41-3.6.74-3.04.86-6.15.83-9.27 0-.05-.01-.1-.03-.18m-19.3 1.94c.08.01.15.03.21.03 1.32 0 2.63-.1 3.91-.44.88-.24 1.7-.58 2.46-1.11.58-.41.85-.98.75-1.7-.07-.47-.15-.95-.3-1.4-.72-2.2-1.87-4.18-2.98-6.18-.18-.3-.47-.29-.65 0-.1.16-.17.33-.23.5-.28.81-.55 1.61-.81 2.43-.77 2.54-1.54 5.07-2.3 7.61-.03.08-.04.16-.06.26M28.3 14.8l-.1.1c-.01.02-.02.04-.01.06.56 1.81 1.1 3.62 1.71 5.42.22.67.57 1.3.9 1.93.3.57.79.78 1.44.72 1.6-.15 2.91-1.02 4.26-1.72.06-.03.11-.09.11-.16a2.1 2.1 0 0 0-.44-1.52c-.23-.3-.46-.61-.73-.86a18.5 18.5 0 0 0-6.08-3.75c-.34-.12-.71-.15-1.06-.22M12.12 38.72a.17.17 0 0 0 .1-.13c.36-1.29.72-2.57 1.06-3.86.04-.17.06-.34.07-.53.01-.13-.09-.25-.22-.24-1.07.09-2.03.3-2.84 1.02-.31.27-.57.63-.49 1.06.18 1.06.62 1.98 1.53 2.59.24.16.5.22.79.09"/></mask><g mask="url(#a)"><path fill="#f3ac49" d="M18.68 40.74c-.05.65-.22 1.33-.12 1.95.25 1.57-.88 1.45-1.72 1.53-.91.1-1.68 1.05-2.69.51.05-.07.08-.12.13-.19 1.19-.84 1.83-2.39 3.4-2.8.31-.07.29-1.02 1-1"/><path fill="#f4acba" d="M-.49 25.39c0-8.82 0-17.64-.01-26.45 0-.26.05-.31.29-.31 17 .01 33.99.01 50.99 0 .24 0 .29.05.29.31-.01 17.65-.01 35.32 0 52.97 0 .26-.05.31-.29.31-17-.01-33.99-.01-50.99 0-.24 0-.29-.05-.29-.31.01-8.84.01-17.68.01-26.52m.46 2.43v23.01c.14.29-.38.91.31.91 15.09.02 30.19.02 45.29.01.13 0 .38-.19.37-.23-.27-1.22.46-1.14 1.23-1.1.84.04 1.68-.01 2.53.01.3.01.37-.08.37-.4-.01-3.54-.01-7.08-.01-10.63 0-13.29 0-26.59-.01-39.88-.06-.05-.11-.14-.17-.14-1.55 0-3.09 0-4.64.02-.07 0-.23.26-.23.38-.01 4.52 0 9.02.06 13.53.02 1.07-.55 1.5-1.37 1.76-.27.07-.52.11-.79.18-1.04 0-2.12-.33-2.56 1.28-.28 1.01-1.19 1.84-1.82 2.74-.29.23-.56.51-.88.67-1.5.75-2.91-.42-4.5-.19-1.76.26-2.91.76-2.97 2.68 0 .09.9 1.94-.76.88-.07-.05-.17 0-.27 0-1.2-.83-2.64.02-3.87-.61-.05-.1-.1-.19-.16-.29.01-.5.05-1 .01-1.5-.07-.69.03-1.09.86-.94.5.09 1.3.26 1.48-.31.66-2.06 1.65-3.94 2.5-5.89.49-1.13-.64-2.21-.78-3.37-.14-1.1-1.02-2.05-.68-3.23.48-1.63 1.61-2.86 2.52-4.22.1-.1.19-.2.29-.3.79-1.21 1.7-2.26 3.11-2.7.22-.12.69.1.62-.37-.06-.4-.47-.19-.7-.19-11.03 0-22.07.03-33.11-.04C-.05-.66-.25-.2-.04.89v26.03c.01.3.01.6.01.9M38.16 5.91h-.05V.01c0-.22.09-.5-.31-.49-.39.01-.28.3-.28.5-.03 3.84-.05 7.68-.08 11.52 0 .43.18.7.55.85.03.02.16-.11.16-.16.01-2.11.01-4.21.01-6.32"/><path fill="#f18928" d="M50.04-.46c0 13.29 0 26.58.01 39.87 0 3.55 0 7.09.01 10.64 0 .31-.07.4-.38.4-.84-.03-1.68.02-2.52-.02-.78-.04-1.51-.12-1.24 1.1.02.05-.23.23-.36.23q-22.65.015-45.3 0c-.69 0-.17-.63-.31-.92.08-.08.16-.16.23-.24.79-.91 1.57-1.82 2.35-2.72 2.79-.05 5.58-.06 8.37-.2.33-.01.4 1.07.79.16.14-.31.39-.57.59-.85-.05.21-.19.48-.12.62.22.41.38-.05.49-.14.7-.58 1.3.08 1.88.23.38.1.64.78.92 1.22.26.38.47.79.7 1.19.02-.33.05-.66.05-.98.01-.3-.03-.6.01-.9.12-.94-.08-1.83 1.08-2.54.93-.57 2.32-1.31 2.07-3.04-.11-.74 0-1.5.01-2.26.72-.54 1.45-1.08 2.17-1.62 1.02-.91 2.19-1.49 3.46-1.89h.11c.05-.03.12-.06.18-.08 1.42.15 1.26-1.07 1.51-1.92 1.84-.72 3.92.68 5.69-.74.49-.4 1.14-.61 1.54-1.07.66-.76 1.35-1.34 2.37-1.52.56-.09 1.47.29 1.63-.46.16-.78-.13-1.65-.22-2.49.34-.45.68-.89 1.03-1.34.28-.93.87-.22 1.3-.23 1.45-.07 1.68-1.45 2.35-2.32 1.25-1.6 2-3.51 2.61-5.42.59-1.81.04-3.72.04-5.59V-.05c0-.12.06-.25.09-.37.09.05.17.08.25.13-.05.02-.12.04-.18.06.02.03.04.05.06.08.04-.05.09-.09.12-.14 1.54-.08 3.04-.13 4.56-.17"/><path stroke="#f18928" stroke-width=".755" d="M45.48-.29c-.03.05-.08.09-.12.14-.02-.03-.04-.05-.06-.08.06-.02.13-.04.18-.06 1.54-.08 3.04-.13 4.56-.17 0 13.29 0 26.58.01 39.87 0 3.55 0 7.09.01 10.64 0 .31-.07.4-.38.4-.84-.03-1.68.02-2.52-.02-.78-.04-1.51-.12-1.24 1.1.02.05-.23.23-.36.23q-22.65.015-45.3 0c-.69 0-.17-.63-.31-.92.08-.08.16-.16.23-.24.79-.91 1.57-1.82 2.35-2.72 2.79-.05 5.58-.06 8.37-.2.33-.01.4 1.07.79.16.14-.31.39-.57.59-.85-.05.21-.19.48-.12.62.22.41.38-.05.49-.14.7-.58 1.3.08 1.88.23.38.1.64.78.92 1.22.26.38.47.79.7 1.19.02-.33.05-.66.05-.98.01-.3-.03-.6.01-.9.12-.94-.08-1.83 1.08-2.54.93-.57 2.32-1.31 2.07-3.04-.11-.74 0-1.5.01-2.26.72-.54 1.45-1.08 2.17-1.62 1.02-.91 2.19-1.49 3.46-1.89h.11c.05-.03.12-.06.18-.08 1.42.15 1.26-1.07 1.51-1.92 1.84-.72 3.92.68 5.69-.74.49-.4 1.14-.61 1.54-1.07.66-.76 1.35-1.34 2.37-1.52.56-.09 1.47.29 1.63-.46.16-.78-.13-1.65-.22-2.49.34-.45.68-.89 1.03-1.34.28-.93.87-.22 1.3-.23 1.45-.07 1.68-1.45 2.35-2.32 1.25-1.6 2-3.51 2.61-5.42.59-1.81.04-3.72.04-5.59V-.05c0-.12.06-.25.09-.37.09.05.17.08.25.13"/><path fill="#66bcb2" d="M-.05 26.92V.89C-.02.89.03.88.06.88 4.44.88 8.82.93 13.2.85c1.2-.02 2.02.32 2.82 1.23.77.85 1.73 1.51 2.61 2.25.78.71.42 1.76.4 2.52-.06 2.18-.06 4.39-.74 6.52-.16.53-.14 1.13-.31 1.67-.36 1.12.28 2.37-.54 3.46-.67.88-1.14 1.92-1.69 2.88-.49.82-1.2 1.51-1.3 2.54-.05.01-.1.02-.15.04-1.06-.22-2.34.99-3.21-.53 0 0-.06.02-.07.03-.25.85-1.1.88-1.66 1.03-2.45.66-4.98.63-7.48.45-1.62-.12-2.13.4-1.83 1.97-.03.01-.07.01-.1.01"/><path stroke="#66bcb2" stroke-width=".755" d="M-.05.89C-.02.89.03.88.06.88 4.44.88 8.82.93 13.2.85c1.2-.02 2.02.32 2.82 1.23.77.85 1.73 1.51 2.61 2.25.78.71.42 1.76.4 2.52-.06 2.18-.06 4.39-.74 6.52-.16.53-.14 1.13-.31 1.67-.36 1.12.28 2.37-.54 3.46-.67.88-1.14 1.92-1.69 2.88-.49.82-1.2 1.51-1.3 2.54-.05.01-.1.02-.15.04-1.06-.22-2.34.99-3.21-.53 0 0-.06.02-.07.03-.25.85-1.1.88-1.66 1.03-2.45.66-4.98.63-7.48.45-1.62-.12-2.13.4-1.83 1.97-.03.01-.07.01-.1.01z"/><path fill="#7ebad2" d="M15.76 21.38c.55-.97 1.02-2.01 1.68-2.89.83-1.09.18-2.34.54-3.46.18-.53.15-1.13.32-1.67.67-2.12.67-4.34.73-6.52.03-.76.38-1.8-.39-2.51 1.05.5 2.46-.12 3.23 1.38.65 1.26 1.6-.32 2.43-.02.15-.51.57-.86.58-1.5.02-.5.15-1.6.74-1.44 1.81.49 3.61-.12 5.39.22-.91 1.36-2.05 2.59-2.52 4.22-.34 1.18.54 2.13.68 3.24.14 1.15 1.27 2.23.78 3.36-.85 1.96-1.84 3.84-2.5 5.89-.18.57-.98.4-1.48.31-.84-.15-.93.24-.86.94.04.5 0 1-.01 1.5-1.02-.05-2.03-.07-3.04-.17-.3-.03-.59-.24-.89-.37.15-.3.01-.77.5-.87.05 0 .14-.19.12-.23-.28-.4-.58-.79-.88-1.17-.01-.01-.18.09-.25.16-1.31 1.57-2.81 2.58-4.9 1.6"/><path stroke="#7ebad2" stroke-width=".755" d="M17.44 18.49c.83-1.09.18-2.34.54-3.46.18-.53.15-1.13.32-1.67.67-2.12.67-4.34.73-6.52.03-.76.38-1.8-.39-2.51 1.05.5 2.46-.12 3.23 1.38.65 1.26 1.6-.32 2.43-.02.15-.51.57-.86.58-1.5.02-.5.15-1.6.74-1.44 1.81.49 3.61-.12 5.39.22-.91 1.36-2.05 2.59-2.52 4.22-.34 1.18.54 2.13.68 3.24.14 1.15 1.27 2.23.78 3.36-.85 1.96-1.84 3.84-2.5 5.89-.18.57-.98.4-1.48.31-.84-.15-.93.24-.86.94.04.5 0 1-.01 1.5-1.02-.05-2.03-.07-3.04-.17-.3-.03-.59-.24-.89-.37.15-.3.01-.77.5-.87.05 0 .14-.19.12-.23-.28-.4-.58-.79-.88-1.17-.01-.01-.18.09-.25.16-1.31 1.57-2.81 2.58-4.9 1.6.55-.97 1.02-2.01 1.68-2.89Z"/><path fill="#6e9aca" d="M31.02 2.97c-1.78-.33-3.59.27-5.39-.22-.6-.16-.73.94-.74 1.44-.02.64-.43.99-.58 1.5-.83-.3-1.78 1.28-2.43.02-.77-1.5-2.18-.88-3.23-1.38-.88-.75-1.86-1.4-2.61-2.26-.8-.9-1.64-1.25-2.83-1.22C8.82.93 4.44.88.06.88.29.46-.44-.44.49-.45c10.87-.04 21.74-.03 32.61 0 .44 0 .87.28 1.31.43C33 .4 32.09 1.46 31.3 2.67c-.09.1-.19.2-.28.3"/><path stroke="#87add4" stroke-width=".755" d="M25.63 2.75c-.6-.16-.73.94-.74 1.44-.02.64-.43.99-.58 1.5-.83-.3-1.78 1.28-2.43.02-.77-1.5-2.18-.88-3.23-1.38-.88-.75-1.86-1.4-2.61-2.26-.8-.9-1.64-1.25-2.83-1.22C8.82.93 4.44.88.06.88.29.46-.44-.44.49-.45c10.87-.04 21.74-.03 32.61 0 .44 0 .87.28 1.31.43C33 .4 32.09 1.46 31.3 2.67c-.09.1-.19.2-.28.3-1.78-.33-3.59.27-5.39-.22Z"/><path fill="#f3ac49" d="M29.71 31.1c.07-.77.43-1.15 1.22-1.21.82-.06.3-.87.52-1.31.49-1.01.83-2.12.78-3.31.32-.11.66-.19.94-.37.98-.63 1.67-1.58 2.94-1.94.69-.2 1.39-.15 2.04-.38 1.19-.43 1.13-1.77 1.66-2.69.65-.54.94-1.28 1.32-2.02.34-.69-.18-1.99 1.13-2.06.39-.02.54-.22.6-.56.28-.08.55-.15.83-.22.65 3.3-.7 6-3.03 7.85-1.62 1.27-1.57 2.76-1.82 4.36-.35.45-.69.89-1.03 1.34-.37.73-1.03.36-1.56.43-.48.06-.95-.08-1.39.3-1.48 1.29-3.19 1.95-5.15 1.79"/><path stroke="#f3ac49" stroke-width=".755" d="M30.93 29.89c.82-.06.3-.87.52-1.31.49-1.01.83-2.12.78-3.31.32-.11.66-.19.94-.37.98-.63 1.67-1.58 2.94-1.94.69-.2 1.39-.15 2.04-.38 1.19-.43 1.13-1.77 1.66-2.69.65-.54.94-1.28 1.32-2.02.34-.69-.18-1.99 1.13-2.06.39-.02.54-.22.6-.56.28-.08.55-.15.83-.22.65 3.3-.7 6-3.03 7.85-1.62 1.27-1.57 2.76-1.82 4.36-.35.45-.69.89-1.03 1.34-.37.73-1.03.36-1.56.43-.48.06-.95-.08-1.39.3-1.48 1.29-3.19 1.95-5.15 1.79.07-.77.43-1.15 1.22-1.21Z"/><path fill="#fbcf67" d="M39.83 19.88c-.53.92-.48 2.27-1.67 2.7-.65.23-1.35.18-2.05.38-1.26.36-1.96 1.31-2.94 1.94-.28.18-.63.26-.94.38-1.03-.65-2.06-1.33-3.1-1.98.1 0 .22-.04.29 0 1.59 1.03.74-.78.74-.87.06-1.93 1.22-2.43 2.97-2.68 1.59-.23 3 .93 4.5.19.32-.17.59-.45.88-.67.44.2.89.41 1.32.61"/><path stroke="#fbcf67" stroke-linejoin="bevel" stroke-width=".755" d="M38.16 22.58c-.65.23-1.35.18-2.05.38-1.26.36-1.96 1.31-2.94 1.94-.28.18-.63.26-.94.38-1.03-.65-2.06-1.33-3.1-1.98.1 0 .22-.04.29 0 1.59 1.03.74-.78.74-.87.06-1.93 1.22-2.43 2.97-2.68 1.59-.23 3 .93 4.5.19.32-.17.59-.45.88-.67.44.2.89.41 1.32.61-.53.92-.48 2.27-1.67 2.7Z"/><path fill="#8d888c" d="M26.8 34.87c-.26.85-.09 2.07-1.52 1.92-.03-.09-.16 0-.18.08-.04 0-.09-.03-.13-.03-.21-4.28-.03-8.56-.71-12.81.05-.67.46-1.06 1.01-1.34 1.23.64 2.67-.22 3.88.61 1.03.65 2.04 1.32 3.08 1.97.05 1.19-.27 2.28-.76 3.3-.22.43.3 1.24-.52 1.3-.79.06-1.15.45-1.22 1.22-.99 1.26-1.97 2.52-2.93 3.78"/><path stroke="#8d888c" stroke-width=".755" d="M25.28 36.79c-.03-.09-.16 0-.18.08-.04 0-.09-.03-.13-.03-.21-4.28-.03-8.56-.71-12.81.05-.67.46-1.06 1.01-1.34 1.23.64 2.67-.22 3.88.61 1.03.65 2.04 1.32 3.08 1.97.05 1.19-.27 2.28-.76 3.3-.22.43.3 1.24-.52 1.3-.79.06-1.15.45-1.22 1.22-.99 1.26-1.97 2.52-2.93 3.78-.26.85-.09 2.07-1.52 1.92Z"/><path fill="#5e5f97" d="M-.05 26.92c.03 0 .07-.01.1-.01 4.43.17 8.85.39 13.27-.14-1.29 1.7-2.55 3.12-5.04 2.89-2.69-.24-5.42.09-8.13.18-.07-.67-.12-1.35-.19-2.02-.01-.3-.01-.6-.01-.9"/><path stroke="#5e5f97" stroke-width=".755" d="M.05 26.91c4.43.17 8.85.39 13.27-.14-1.29 1.7-2.55 3.12-5.04 2.89-2.69-.24-5.42.09-8.13.18-.07-.67-.12-1.35-.19-2.02-.01-.3-.01-.6-.01-.9.03 0 .07-.01.1-.01Z"/><path fill="#f6a453" d="M38.84 27.24c.25-1.6.2-3.09 1.82-4.36 2.33-1.85 3.68-4.54 3.02-7.85.82-.26 1.35-.62 1.34-1.7-.06-4.51-.03-9.02-.02-13.53 0-.13.14-.38.23-.38 1.55-.03 3.09-.03 4.64-.02.06 0 .11.09.17.14-1.52.05-3.03.1-4.54.14-.09-.04-.18-.08-.25-.12-.03.12-.09.24-.09.36-.01 4.59 0 9.17-.01 13.76-.01 1.86.55 3.78-.03 5.58-.62 1.92-1.37 3.83-2.61 5.43-.68.87-.91 2.25-2.36 2.31-.44.03-1.03-.68-1.31.24"/><path fill="#87add4" d="M25.29 22.68c-.54.28-.97.7-1.03 1.37l-.88.61c-1.44-.04-2.87-.1-4.31-.14-.29-.05-.58-.1-.86-.14-1.19-.71-2.5-.36-3.75-.47.09-1.03.81-1.72 1.3-2.53 2.09.98 3.58-.03 4.91-1.61a.8.8 0 0 1 .24-.16c.31.38.6.77.88 1.17.02.04-.05.22-.11.24-.49.09-.35.56-.5.86.3.13.58.34.89.37 1.01.09 2.05.1 3.06.16.06.09.11.17.16.27"/><path fill="#ddc4e0" d="M38.17 5.9c0 2.12-.01 4.29-.02 6.4 0 .06-.13.18-.16.16-.37-.15-.55-.42-.55-.85.03-3.86.04-7.72.07-11.57 0-.21-.11-.52.29-.52.39-.01.32.27.33.49 0 1.97-.01 3.91-.01 5.89z"/><path fill="#f8c9d1" d="M39.81 19.9c-.43-.2-.88-.44-1.31-.64.62-.91 1.52-1.72 1.8-2.73.44-1.61 1.59-1.29 2.62-1.3-.06.34-.25.57-.64.58-1.32.07-.77 1.38-1.12 2.06-.37.76-.7 1.49-1.35 2.03"/><path stroke="#f8c9d1" stroke-width=".755" d="M38.5 19.26c.62-.91 1.52-1.72 1.8-2.73.44-1.61 1.59-1.29 2.62-1.3-.06.34-.25.57-.64.58-1.32.07-.77 1.38-1.12 2.06-.37.76-.7 1.49-1.35 2.03-.43-.2-.88-.44-1.31-.64Z"/><path fill="#7ebad2" d="M34.41-.02c-.44-.15-.87-.43-1.31-.43C22.23-.47 11.36-.49.49-.45-.44-.45.29.46.06.88c-.03 0-.08.01-.11.01C-.27-.2-.07-.66 1.22-.65c11.04.07 22.08.04 33.11.05.24 0 .64-.21.7.2.08.47-.39.26-.62.38"/><path stroke="#7ebad2" stroke-width=".755" d="M33.1-.45C22.23-.47 11.36-.49.49-.45-.44-.45.29.46.06.88c-.03 0-.08.01-.11.01C-.27-.2-.07-.66 1.22-.65c11.04.07 22.08.04 33.11.05.24 0 .64-.21.7.2.08.47-.39.26-.62.38-.44-.15-.87-.43-1.31-.43Z"/><path fill="#9b8bc1" d="M-.05 27.82c.07.67.13 1.35.19 2.02-.03.46-.09.91-.09 1.37v18.95c0 .14.08.29.13.43-.08.08-.16.16-.23.24z"/><path fill="#7ebad2" d="M31.02 2.97c.09-.1.19-.19.29-.3-.1.1-.2.2-.29.3"/><path fill="#513f92" d="M.18 50.59c-.05-.14-.13-.29-.13-.43V31.21c0-.46.06-.91.09-1.37 2.72-.08 5.45-.42 8.13-.18 2.49.23 3.76-1.19 5.04-2.89.03-.01.08-.01.11-.03.51-.19.75.11 1.18.38 1.71 1.03 3.57.5 5.21-.33 1.09-.54 1.84-.22 2.22.63.99 2.23.56 4.7.82 7.05.3 2.65-1.24 2.02-2.56 2.02-.88.01-1.75.02-2.63 0a.95.95 0 0 1-.55-.22c-.97-.81-2.12.17-3.11-.34-1.07-.54-1.78.83-2.76.53-.3-.09-.52-.69-.78-.68-1.56.03-3.13.03-4.45 1.16-.57.48-1.53.59-1.57 1.56-.07 1.5-.06 3.02-.05 4.52.01 1.39.02 1.39.79 1.67.04.01.05.13.07.2-.91.99-1.81 1.99-2.72 2.97-.78.92-1.57 1.82-2.35 2.73"/><path stroke="#513f92" stroke-width=".755" d="M.05 50.16V31.21c0-.46.06-.91.09-1.37 2.72-.08 5.45-.42 8.13-.18 2.49.23 3.76-1.19 5.04-2.89.03-.01.08-.01.11-.03.51-.19.75.11 1.18.38 1.71 1.03 3.57.5 5.21-.33 1.09-.54 1.84-.22 2.22.63.99 2.23.56 4.7.82 7.05.3 2.65-1.24 2.02-2.56 2.02-.88.01-1.75.02-2.63 0a.95.95 0 0 1-.55-.22c-.97-.81-2.12.17-3.11-.34-1.07-.54-1.78.83-2.76.53-.3-.09-.52-.69-.78-.68-1.56.03-3.13.03-4.45 1.16-.57.48-1.53.59-1.57 1.56-.07 1.5-.06 3.02-.05 4.52.01 1.39.02 1.39.79 1.67.04.01.05.13.07.2-.91.99-1.81 1.99-2.72 2.97-.78.92-1.57 1.82-2.35 2.73-.05-.14-.13-.29-.13-.43Z"/><path fill="#5e5f97" d="M5.25 44.89c-.02-.07-.03-.18-.07-.19-.77-.29-.78-.28-.79-1.67-.01-1.51-.01-3.02.05-4.52.04-.98 1-1.08 1.57-1.57 1.32-1.12 2.89-1.13 4.45-1.16.25 0 .48.6.78.69.98.3 1.69-1.08 2.76-.53.99.51 2.14-.47 3.11.34.15.12.36.21.55.21.88.03 1.75.02 2.63.01 1.32-.01 2.85.63 2.56-2.02-.26-2.36.17-4.82-.82-7.06-.37-.84-1.13-1.16-2.22-.62-1.64.82-3.5 1.36-5.21.32-.43-.27-.67-.57-1.18-.37.3-.93.59-1.87.89-2.8.05-.01.1-.02.15-.04 1.25.11 2.56-.25 3.75.46.28.05.57.1.86.15.2.34 3.96.46 4.31.14.29-.2.59-.42.88-.62.67 4.25.51 8.56.72 12.84-1.26.39-2.45.98-3.45 1.89-1.21-.05-2.45.02-3.63-.2-1.69-.3-2.99.45-4.29 1.31-.54.36-1.13.45-1.7.27-1.95-.57-3.73.66-3.63 2.71.07 1.38-.1 2.2-1.69 1.73-.32-.09-.72.06-1.08.1-.08.06-.18.13-.26.2"/><path stroke="#5e5f97" stroke-width=".755" d="M5.18 44.7c-.77-.29-.78-.28-.79-1.67-.01-1.51-.01-3.02.05-4.52.04-.98 1-1.08 1.57-1.57 1.32-1.12 2.89-1.13 4.45-1.16.25 0 .48.6.78.69.98.3 1.69-1.08 2.76-.53.99.51 2.14-.47 3.11.34.15.12.36.21.55.21.88.03 1.75.02 2.63.01 1.32-.01 2.85.63 2.56-2.02-.26-2.36.17-4.82-.82-7.06-.37-.84-1.13-1.16-2.22-.62-1.64.82-3.5 1.36-5.21.32-.43-.27-.67-.57-1.18-.37.3-.93.59-1.87.89-2.8.05-.01.1-.02.15-.04 1.25.11 2.56-.25 3.75.46.28.05.57.1.86.15.2.34 3.96.46 4.31.14.29-.2.59-.42.88-.62.67 4.25.51 8.56.72 12.84-1.26.39-2.45.98-3.45 1.89-1.21-.05-2.45.02-3.63-.2-1.69-.3-2.99.45-4.29 1.31-.54.36-1.13.45-1.7.27-1.95-.57-3.73.66-3.63 2.71.07 1.38-.1 2.2-1.69 1.73-.32-.09-.72.06-1.08.1-.08.06-.18.13-.26.2-.02-.07-.03-.18-.07-.19Z"/><path fill="#8d888c" d="M5.52 44.68c.36-.04.76-.19 1.08-.09 1.59.46 1.76-.35 1.69-1.73-.1-2.05 1.67-3.29 3.63-2.71.57.17 1.16.08 1.7-.27 1.3-.86 2.6-1.62 4.28-1.31 1.18.21 2.42.14 3.63.19-.72.54-1.44 1.09-2.16 1.63-.26.15-.5.31-.75.46-.67-.01-.66.88-.95.96-1.5.39-2.11 1.86-3.25 2.67-.11-.22-.19-.28-.46-.12-.43.24-.92.46-1.39.48-2.18.1-4.35.13-6.52.15-.18.01-.36-.2-.53-.31"/><path stroke="#8d888c" stroke-width=".755" d="M6.6 44.59c1.59.46 1.76-.35 1.69-1.73-.1-2.05 1.67-3.29 3.63-2.71.57.17 1.16.08 1.7-.27 1.3-.86 2.6-1.62 4.28-1.31 1.18.21 2.42.14 3.63.19-.72.54-1.44 1.09-2.16 1.63-.26.15-.5.31-.75.46-.67-.01-.66.88-.95.96-1.5.39-2.11 1.86-3.25 2.67-.11-.22-.19-.28-.46-.12-.43.24-.92.46-1.39.48-2.18.1-4.35.13-6.52.15-.18.01-.36-.2-.53-.31.36-.04.76-.19 1.08-.09Z"/><path fill="#f6a453" d="M29.71 31.1c1.96.16 3.67-.5 5.16-1.79.44-.38.91-.24 1.39-.3.53-.07 1.19.3 1.55-.43.1.84.38 1.72.23 2.5-.16.75-1.07.36-1.63.46-1.02.18-1.71.75-2.37 1.52-.41.46-1.06.67-1.54 1.06-1.77 1.43-3.86.02-5.69.75.95-1.26 1.93-2.51 2.9-3.77"/><path fill="#b59259" d="M5.52 44.68c.18.11.35.32.53.31 2.17-.03 4.35-.06 6.52-.15.47-.02.96-.24 1.38-.49.28-.15.37-.09.48.13-.04.06-.08.12-.13.18-.67.77-1.34 1.55-2.02 2.32-.2.28-.45.54-.59.85-.39.92-.46-.17-.79-.15-2.79.14-5.59.14-8.37.19.9-1 1.81-1.99 2.72-2.98.08-.07.18-.14.27-.21"/><path stroke="#b59259" stroke-width=".755" d="M6.05 44.99c2.17-.03 4.35-.06 6.52-.15.47-.02.96-.24 1.38-.49.28-.15.37-.09.48.13-.04.06-.08.12-.13.18-.67.77-1.34 1.55-2.02 2.32-.2.28-.45.54-.59.85-.39.92-.46-.17-.79-.15-2.79.14-5.59.14-8.37.19.9-1 1.81-1.99 2.72-2.98.08-.07.18-.14.27-.21.18.11.35.32.53.31Z"/><path fill="#f8b570" d="M12.28 46.97c.68-.77 1.35-1.55 2.02-2.32.97.52 1.69-.39 2.57-.48.8-.08 1.87.04 1.63-1.46-.09-.59.07-1.23.11-1.85.25-.16.5-.32.75-.47-.01.75-.12 1.52-.02 2.26.26 1.73-1.13 2.47-2.06 3.04-1.16.71-.97 1.6-1.08 2.54-.04.29 0 .6-.01.9-.01.33-.04.66-.05.98-.23-.4-.45-.81-.7-1.19-.29-.44-.54-1.12-.92-1.22-.59-.15-1.18-.8-1.88-.23-.1.09-.27.55-.49.14-.06-.15.08-.42.13-.64"/><path fill="#8d888c" d="M14.31 23.95c-.3.93-.58 1.86-.88 2.79-.04.01-.08.02-.11.03-4.42.53-8.84.31-13.27.14-.29-1.56.23-2.08 1.83-1.97 2.5.18 5.04.21 7.49-.45.55-.15 1.4-.19 1.66-1.03.01-.02.07-.03.07-.03.87 1.51 2.15.31 3.21.52"/><path stroke="#8d888c" stroke-width=".755" d="M13.43 26.74c-.04.01-.08.02-.11.03-4.42.53-8.84.31-13.27.14-.29-1.56.23-2.08 1.83-1.97 2.5.18 5.04.21 7.49-.45.55-.15 1.4-.19 1.66-1.03.01-.02.07-.03.07-.03.87 1.51 2.15.31 3.21.52-.3.93-.58 1.86-.88 2.79Z"/><path fill="#7d89c1" d="M23.38 24.66c-.3.33-4.11.2-4.31-.14 1.44.04 2.88.1 4.31.14"/><path stroke="#7d89c1" stroke-width=".755" d="M19.07 24.52c1.44.04 2.88.1 4.31.14-.3.33-4.11.2-4.31-.14Z"/><path fill="#7d89c1" d="M19.07 24.52"/></g></svg>