<svg xmlns="http://www.w3.org/2000/svg" width="50" height="50" fill="none" viewBox="0 0 50 50"><path fill="#fb8c00" d="M44.73 22.96c2-3.32 3.95-5.46 3.95-17.96 0-3.75-1.32-5-4.11-5-7.57 0-13 11.25-13 11.25S28.94 12.5 25 12.5c-3.95 0-6.58-1.25-6.58-1.25S12.99 0 5.42 0C2.83 0 1.51 1.07 1.33 4.21c-.01.25-.02.51-.02.79 0 12.5 1.95 14.64 3.95 17.96 0 0-3.53 4.06-5.03 8.73-.08.27-.16.53-.23.81 1.31 0 5.09 2.5 5.09 5l9.38 6.25h21.05l9.38-6.25c0-2.5 3.78-5 5.1-5-1.32-5-5.27-9.54-5.27-9.54"/><path fill="#d7ccc8" d="M43.68 2.6c.03-.01.53-.1.56-.1.16-.01.28 0 .33 0 1.1 0 1.48 0 1.48 2.5 0 13.12-3.95 16.25-3.95 16.25s0-3.75-1.32-5c-.98 1.25-2.63 1.25-2.63 1.25s1.02-6.36.33-8.13c0 0 1.2-5.9 5.2-6.77"/><path fill="#bcaaa4" d="M44.4 2.49c-4.93 0-8.88 10-8.88 10s1.32-1.25 2.63-1.25v6.26s2.63-3.75 2.63-8.75c0-4.22 3.95-6.25 3.95-6.25z"/><path fill="#d7ccc8" d="M6.31 2.6c-.03-.01-.53-.1-.56-.1-.16-.01-.28 0-.33 0-1.1 0-1.48 0-1.48 2.5 0 13.12 3.95 16.25 3.95 16.25s0-3.75 1.32-5c.98 1.25 2.63 1.25 2.63 1.25s-1.02-6.36-.33-8.13c0 0-1.2-5.9-5.2-6.77"/><path fill="#bcaaa4" d="M5.59 2.49c4.93 0 8.88 10 8.88 10s-1.32-1.25-2.63-1.25v6.26s-2.63-3.75-2.63-8.75c0-4.22-3.95-6.25-3.95-6.25z"/><path fill="#ff9800" d="M30.09 26.25c1.48-2.5 6.75-3.75 6.75-3.75v1.25c1.64 0 2.63-1.25 2.63-1.25s0 3.75-1.32 5c-3.13 2.97-8.68 4.04-9.21 6.25 0-2.1-.15-5.3 1.15-7.5"/><path fill="#f57c00" d="M28.94 34.97c0 3.06 3.38 6.28 3.38 6.28s8.46-3.68 8.46-14.85c0 0-1.31-.15-5.26-.15-5.26 0-6.58 3.51-6.58 8.72"/><path fill="#ff9800" d="M19.9 26.25c-1.48-2.5-6.75-3.75-6.75-3.75v1.25c-1.64 0-2.63-1.25-2.63-1.25s0 3.75 1.32 5c3.13 2.97 8.68 4.04 9.21 6.25 0-2.1.15-5.3-1.15-7.5"/><path fill="#f57c00" d="M14.47 26.25H9.21c0 11.28 8.46 15 8.46 15s3.38-3.26 3.38-6.35c0-5.25-1.32-8.65-6.58-8.65M25 10c-3.95 0-6.58 1.25-6.58 1.25s1.31 3.43 1.31 5c0 0 2.14-.16 2.63-1.25 0 1.4 2.64 2.5 2.64 2.5s2.63-1.1 2.63-2.5c.49 1.09 2.63 1.25 2.63 1.25 0-1.57 1.31-5 1.31-5S28.94 10 25 10"/><path fill="#d7ccc8" d="M50 36.25S47.36 35 40.78 35c-6.57 0-8.55 6.25-8.55 6.25l-1.74 7.45s15.56-3.86 18.19-7.45c-2.63 0-3.95-1.25-3.95-1.25 3.95-.63 5.27-3.75 5.27-3.75M9.21 35C2.63 35 0 36.25 0 36.25S1.31 39.37 5.26 40c0 0-1.32 1.25-3.95 1.25C3.94 44.84 19.5 48.7 19.5 48.7l-1.74-7.45S15.78 35 9.21 35"/><path fill="#bcaaa4" d="M27.63 40h-5.27c-3.99 0-5.26.98-5.26 3.75 0 3.75 2.58 6.25 6.58 6.25h2.63c4 0 6.58-2.5 6.58-6.25 0-2.77-1.27-3.75-5.26-3.75"/><path fill="#a1887f" d="M21.62 49.72c.3.07.73.16 1.05.19.33.04.66.09 1.01.09h2.63c.31 0 .59-.05.89-.08.02 0 .11 0 .13-.01.32-.03.63-.09.93-.16.85-.23 1.73-.62 2.36-1.11-2.99-.05-5.46-2.71-5.45-3.8h-.34c0 1.09-2.47 3.75-5.46 3.8.63.49 1.39.86 2.25 1.08"/><path fill="#3e2723" d="M25.01 40c-2.18 0-3.96-.13-3.96 1.25S23.7 45 25.01 45c1.3 0 3.93-2.37 3.93-3.75S27.18 40 25.01 40"/><path fill="#795548" d="M34.53 28.75h3.62s-1.35 1-1.31 2.18c.05 1.7-1.13 4.07-3.95 4.07-1.48 0-3.95-.01-3.95-.01s-.01-6.24 5.59-6.24"/><path fill="#ffb300" d="M33.55 30c.67 0 1.22.06 1.69.15.18.33.28.7.28 1.1 0 1.38-1.18 2.5-2.63 2.5-.95 0-1.78-.49-2.24-1.2.41-1.27 1.23-2.55 2.9-2.55"/><path fill="#212121" d="M33.11 30.04c.62.1 1.1.59 1.1 1.21 0 .69-.59 1.25-1.32 1.25s-1.32-.56-1.32-1.25c0-.19.05-.36.12-.51.37-.36.84-.61 1.42-.7"/><path fill="#795548" d="M15.45 28.75h-3.61s1.35 1 1.31 2.18C13.1 32.63 14.28 35 17.1 35c1.48 0 3.95-.01 3.95-.01s0-6.24-5.6-6.24"/><path fill="#ffb300" d="M16.44 30c-.67 0-1.22.06-1.69.15-.18.33-.28.7-.28 1.1 0 1.38 1.18 2.5 2.63 2.5.95 0 1.78-.49 2.24-1.2-.41-1.27-1.23-2.55-2.9-2.55"/><path fill="#212121" d="M16.88 30.04c-.62.1-1.1.59-1.1 1.21 0 .69.59 1.25 1.32 1.25s1.32-.56 1.32-1.25c0-.19-.05-.36-.12-.51-.37-.36-.84-.61-1.42-.7"/></svg>