<svg xmlns="http://www.w3.org/2000/svg" width="50" height="50" fill="none" viewBox="0 0 50 50"><path fill="#bbdefb" d="M44.318 22.727c0 11.932-9.66 21.591-21.59 21.591-11.933 0-21.592-9.659-21.592-21.59 0-11.933 9.66-21.592 21.591-21.592s21.59 9.66 21.59 21.591"/><path fill="#f54245" d="m22.727 0-.186.01C10.126.11 0 10.29 0 22.726c0 12.5 10.227 22.728 22.727 22.728 2.799 0 5.473-.538 7.954-1.474v-2.42c-.418.179-.852.323-1.282.474a16 16 0 0 0 1.282-1.638v-4.96c-1.66 4.126-4.09 6.983-6.818 7.612V34.09h6.819v-2.273h-6.819v-7.954h7.204a3.97 3.97 0 0 1 1.868-1.87c.046-.023.089-.052.136-.072a3.95 3.95 0 0 1 1.655-.331h.05c.14.005.282.021.421.04.796.11 1.558.453 2.173 1.026l1.292 1.207h4.462a20.4 20.4 0 0 1-.538 3.661l1.889 1.763c.631-2.08.98-4.281.98-6.56C45.454 10.227 35.226 0 22.726 0m-6.672 3.42c-1.744 1.965-3.179 4.695-4.19 7.944H5.78a20.6 20.6 0 0 1 10.276-7.945M4.465 13.622c.03 0 .05.013.08.013h6.704c-.57 2.447-.917 5.123-.991 7.955H2.33c.159-2.851.918-5.543 2.135-7.968m-.022 18.196a20.2 20.2 0 0 1-2.112-7.955h7.927c.074 2.827.406 5.509.976 7.954H4.545zm1.304 2.272h6.11c1.012 3.256 2.454 5.977 4.2 7.944a20.6 20.6 0 0 1-10.31-7.944m15.844 8.953c-3.017-.694-5.674-4.104-7.324-8.953h7.324zm0-11.226h-7.984c-.618-2.43-.997-5.121-1.078-7.954h9.062zm0-10.227h-9.062c.082-2.835.47-5.523 1.088-7.955h7.974zm0-10.227H14.29c1.646-4.842 4.288-8.254 7.3-8.95zm2.272-8.95c3.013.695 5.655 4.108 7.302 8.95h-7.302zm0 19.177v-7.955h7.974a36.8 36.8 0 0 1 1.088 7.955zM29.4 3.419a20.6 20.6 0 0 1 10.277 7.945h-6.087c-1.01-3.25-2.447-5.98-4.19-7.945m5.797 18.172c-.074-2.832-.42-5.508-.99-7.955h6.703c.03 0 .05-.012.08-.013a20.25 20.25 0 0 1 2.135 7.968z"/><path fill="#c5e3fc" d="M31.067 23.864a4 4 0 0 0-.386 1.704v6.25h1.166c.619-2.43.997-5.121 1.078-7.954zm4.13 0c-.075 2.827-.406 5.509-.977 7.954h1.007v-4.944l5.297 4.944h.385c.035 0 .061.015.095.017a20.3 20.3 0 0 0 1.582-4.309l-3.924-3.662zm-1.6 10.227c-.753 2.423-1.738 4.562-2.916 6.306v1.164a20.5 20.5 0 0 0 4.546-2.697V34.09zm-2.916 0v1.345c.177-.437.348-.88.506-1.345z"/><path fill="#90caf9" d="M42.586 27.525a20.3 20.3 0 0 1-1.582 4.31c-.049.098-.093.2-.144.297l1.142 1.066.577.538c.782-1.4 1.42-2.888 1.896-4.448zm-7.359 11.339c-1.389 1.08-2.907 2-4.545 2.697v2.42a22.7 22.7 0 0 0 4.545-2.31zm3.435-15-1.292-1.207a3.97 3.97 0 0 0-2.173-1.025c-.14-.02-.28-.038-.421-.041h-.05a3.9 3.9 0 0 0-1.655.33c-.047.021-.09.05-.136.072a3.97 3.97 0 0 0-1.868 1.87h1.858c-.082 2.834-.46 5.526-1.078 7.955h-1.166v2.273h.506c-.158.465-.33.908-.506 1.345v4.96c1.178-1.743 2.163-3.882 2.916-6.305h1.63v-2.273H34.22c.57-2.445.904-5.127.976-7.954z"/><path fill="#fafafa" d="M43.011 48.864a.57.57 0 0 1-.523-.343l-3.316-7.666-4.126 3.877a.57.57 0 0 1-.614.108.57.57 0 0 1-.341-.522v-18.75a.57.57 0 0 1 .956-.416L48.684 37.88a.569.569 0 0 1-.339.982l-5.787.498 3.47 7.563a.57.57 0 0 1-.28.755l-2.5 1.137a.6.6 0 0 1-.237.049"/><path fill="#455a64" d="M49.459 37.05 35.822 24.322a1.7 1.7 0 0 0-1.843-.316 1.7 1.7 0 0 0-1.025 1.562v18.75a1.705 1.705 0 0 0 2.872 1.242l2.62-2.462 2.753 6.225c.187.425.604.677 1.04.677.122 0 .244-.036.365-.077.03-.01 4.32-1.906 4.357-1.928.22-.13.403-.314.497-.555.109-.282.1-.594-.02-.87l-2.766-6.252 3.772-.325a1.71 1.71 0 0 0 1.463-1.14 1.71 1.71 0 0 0-.448-1.803m-8.153 1.277 3.593 8.12-2.08.919-3.592-8.12-4 3.758V26.876l11.748 10.964z"/></svg>