<svg xmlns="http://www.w3.org/2000/svg" width="50" height="50" fill="none" viewBox="0 0 50 50"><g clip-path="url(#a)"><mask id="b" width="50" height="50" x="0" y="0" maskUnits="userSpaceOnUse" style="mask-type:luminance"><path fill="#fff" d="M50 0H0v50h50z"/></mask><g mask="url(#b)"><path fill="#061a23" d="M40.234 0H9.766C4.372 0 0 4.372 0 9.766v30.468C0 45.628 4.372 50 9.766 50h30.468C45.628 50 50 45.628 50 40.234V9.766C50 4.372 45.628 0 40.234 0"/><path fill="url(#c)" d="M29.94 33.773c4.927-1.768 5.684-5.468 5.643-7.18-.061-2.517-1.943-4.994-2.018-6.363-.065-1.224.391-2.128 2.442-1.832a8 8 0 0 0-1.127-2.09c-.664-.836-1.535-1.482-2.924-1.48-2.35 0-3.125 2.128-3.664 3.497-.54 1.37.02 1.918-1.442 3.99.222 2.499.128 2.523-.26 4.078-.938 3.75-4.275 8.178-5.977 10.584s-3.108 3.648-1.59 4.845c1.517 1.197 2.238-.536 2.793-1.536s1.147-2.298 1.407-2.22.333-.167-.352 1.906c-.684 2.072-.518 2.98.962 3.09 1.48.112 1.758-.795 1.87-2.35.11-1.555.314-2.405.517-2.405s.259-.26.407 1.702c.148 1.96.203 3.294 2.09 2.628 1.889-.666 1.314-1.74.852-2.776s-.592-2.072-.39-2.165.443.39 1.183 1.535 1.148 2.517 2.721 1.465c2.187-1.465-.796-4.014-2.128-5.698-2.37.85-3.571.85-3.59 0s1.014-.665 2.575-1.225m2.375-17.647a.734.734 0 1 1 0 1.469.734.734 0 0 1 0-1.469"/><mask id="d" width="16" height="13" x="18" y="31" maskUnits="userSpaceOnUse" style="mask-type:luminance"><path fill="#fff" d="M20.613 36.975c-1.702 2.405-3.108 3.645-1.59 4.847 1.517 1.202 2.238-.536 2.793-1.536s1.147-2.298 1.407-2.22.333-.167-.352 1.906c-.684 2.072-.518 2.98.962 3.09 1.48.112 1.758-.795 1.87-2.35.11-1.555.314-2.405.517-2.405s.259-.26.407 1.702c.148 1.96.203 3.294 2.09 2.628 1.889-.666 1.314-1.74.852-2.776s-.592-2.072-.39-2.165.443.39 1.183 1.535 1.148 2.517 2.721 1.465c2.187-1.465-.796-4.014-2.128-5.698-2.37.85-3.571.85-3.59 0l-1.503-3.33z"/></mask><g mask="url(#d)"><path fill="url(#e)" d="M30.547 37.883c2.314-.58 3.876-2.3 3.49-3.84-.387-1.541-2.576-2.32-4.89-1.74-2.313.581-3.876 2.3-3.49 3.841.387 1.54 2.576 2.32 4.89 1.739"/></g><path fill="url(#f)" d="M25.586 22.7c.009 2.538-.406 5.201-2.889 8.581-1.977.225-3.665.34-4.062-.463-.47-.935.54-1.107 1.677-1.935 0 0 1.893-1.121 1.515-1.542s-2.246.879-3.142 1.22-2.648 1.185-3.59-.477c-.42-.743.113-1.122 1.754-1.459 1.64-.337 2.622-.799 2.343-1.163s-2.832.56-4.851.574-2.65-.879-2.65-1.612.63-.617 2.397-.73 2.896.057 2.861-.63c-.028-.547-2.58-.127-4.123-.365s-3.814-.659-3.814-2.3c0-.7.407-.912 1.66-.505s4.613 1.01 4.613.253c0-.758-4.375-.336-6.773-2.58-2.399-2.245-.836-3.436-.36-3.436.73 0 1.3 1.172 5.217 2.426 1.879.603 6.584 1.05 7.951 1.71 1.711.828 4.266 4.432 4.266 4.432"/><path fill="#fff" d="M31.901 13.298c1.096-2.14 1.348-2.52 1.82-4.019.473-1.499.742-2.798 1.549-2.734 1.092.079 1.493 1.367 1.04 2.938-.524 1.823-2.033 3.727-2.404 4.297-.605-.558-2.005-.482-2.005-.482M34.57 14.007c1.434-1.556 1.62-2.813 2.335-2.824.715-.012 1.109.858.969 1.626s-1.081 2.148-1.709 2.808c-.755-.79-1.183-1.282-1.595-1.61M36.666 16.385c.149-.39 1.047-.88 1.465-.497.523.48.576 1.945-.444 2.957-.332-1.16-.768-2.146-1.021-2.46"/><path fill="url(#g)" d="M36.5 23.756c.602-.454 1.753-1.78 1.553-2.644-.2-.863-.349-.967-1.553-1.125-1.204-.157-1.588-.288-1.526.14.061.428 1.5 3.288 1.526 3.629"/></g></g><defs><radialGradient id="e" cx="0" cy="0" r="1" gradientTransform="matrix(4.19217 -1.05145 .69696 2.77881 29.85 34.943)" gradientUnits="userSpaceOnUse"><stop stop-color="#989898"/><stop offset="1" stop-color="#fff" stop-opacity="0"/></radialGradient><radialGradient id="g" cx="0" cy="0" r="1" gradientTransform="translate(34.925 19.21)scale(3.84668)" gradientUnits="userSpaceOnUse"><stop stop-color="#8e8e8e"/><stop offset=".03" stop-color="#949494"/><stop offset=".23" stop-color="#bababa"/><stop offset=".43" stop-color="#d8d8d8"/><stop offset=".63" stop-color="#eee"/><stop offset=".82" stop-color="#fbfbfb"/><stop offset="1" stop-color="#fff"/></radialGradient><linearGradient id="c" x1="30.409" x2="25.665" y1="22.263" y2="41.937" gradientUnits="userSpaceOnUse"><stop stop-color="#fff"/><stop offset="1" stop-color="#d0d0d0"/></linearGradient><linearGradient id="f" x1="16.101" x2="12.297" y1="21.463" y2="26.92" gradientUnits="userSpaceOnUse"><stop stop-color="#fff"/><stop offset="1" stop-color="#f6f6f6"/></linearGradient><clipPath id="a"><path fill="#fff" d="M0 0h50v50H0z"/></clipPath></defs></svg>