<svg xmlns="http://www.w3.org/2000/svg" width="50" height="50" fill="none" viewBox="0 0 50 50"><defs><linearGradient id="a" x1="3.351" x2="46.647" y1="15.625" y2="15.625" gradientUnits="userSpaceOnUse"><stop stop-color="#d93025"/><stop offset="1" stop-color="#ea4335"/></linearGradient><linearGradient id="b" x1="21.585" x2="43.233" y1="49.666" y2="12.17" gradientUnits="userSpaceOnUse"><stop stop-color="#fcc934"/><stop offset="1" stop-color="#fbbc04"/></linearGradient><linearGradient id="c" x1="27.706" x2="6.059" y1="48.439" y2="10.944" gradientUnits="userSpaceOnUse"><stop stop-color="#1e8e3e"/><stop offset="1" stop-color="#34a853"/></linearGradient></defs><circle cx="25" cy="24.995" r="12.5" fill="#fff"/><path fill="none" d="M3.34 37.5c.83 1.42 1.78 2.74 2.86 3.98a25.148 25.148 0 0 0 7.74 5.94c1.47.72 3 1.3 4.58 1.72 1.59.43 3.2.69 4.84.8s3.27.06 4.9-.16q2.445-.315 4.77-1.11c1.56-.53 3.04-1.2 4.47-2.02 1.42-.83 2.74-1.78 3.98-2.86a25.148 25.148 0 0 0 5.94-7.74c.72-1.47 1.3-3 1.72-4.58.43-1.59.69-3.2.8-4.84s.06-3.27-.16-4.9q-.315-2.445-1.11-4.77c-.53-1.56-1.2-3.04-2.02-4.46-.83-1.43-1.78-2.75-2.86-3.99a25.148 25.148 0 0 0-7.74-5.94c-1.47-.72-3-1.3-4.58-1.72-1.59-.43-3.2-.69-4.84-.8a24.3 24.3 0 0 0-4.9.16q-2.445.315-4.77 1.11c-1.56.53-3.04 1.2-4.46 2.02-1.43.83-2.75 1.78-3.99 2.86a25.148 25.148 0 0 0-5.94 7.74c-.72 1.47-1.3 3-1.72 4.58-.43 1.59-.69 3.2-.8 4.84s-.06 3.27.16 4.9q.315 2.445 1.11 4.77c.53 1.56 1.2 3.04 2.02 4.47m32.48-18.75c.83 1.43 1.35 2.97 1.57 4.61a12.5 12.5 0 0 1-2.48 9.24 12.4 12.4 0 0 1-3.66 3.22 12.48 12.48 0 0 1-9.49 1.25c-1.6-.43-3.06-1.15-4.37-2.16a12.4 12.4 0 0 1-3.22-3.66 12.48 12.48 0 0 1-1.25-9.49c.43-1.6 1.15-3.06 2.16-4.37a12.3 12.3 0 0 1 3.67-3.22c1.43-.83 2.97-1.35 4.61-1.57a12.5 12.5 0 0 1 9.24 2.48 12.3 12.3 0 0 1 3.22 3.67"/><path fill="url(#a)" d="M25 12.5h21.64c-2.23-3.87-5.28-6.92-9.15-9.16C33.63 1.11 29.46 0 25 0c-4.47 0-8.64 1.11-12.51 3.35-3.86 2.23-6.91 5.28-9.14 9.15l10.82 18.75a12.3 12.3 0 0 1-1.67-6.26c-.01-2.23.55-4.31 1.67-6.25 1.11-1.93 2.64-3.46 4.57-4.58 1.94-1.11 4.02-1.67 6.26-1.66"/><circle cx="25" cy="25" r="9.896" fill="#1a73e8"/><path fill="url(#b)" d="M35.82 31.25 25 50c4.46 0 8.63-1.12 12.5-3.35q5.79-3.36 9.15-9.15c2.23-3.87 3.34-8.04 3.34-12.5 0-4.47-1.12-8.64-3.35-12.5H24.99c2.24-.01 4.32.56 6.26 1.67a12.35 12.35 0 0 1 4.58 4.58c1.11 1.93 1.67 4.01 1.67 6.25 0 2.23-.56 4.31-1.68 6.25"/><path fill="url(#c)" d="M14.17 31.25 3.35 12.5C1.11 16.37 0 20.53 0 25s1.11 8.63 3.35 12.5q3.345 5.805 9.15 9.15C16.37 48.88 20.53 50 25 50l10.82-18.75a12.2 12.2 0 0 1-4.58 4.57 12.23 12.23 0 0 1-6.25 1.68c-2.23 0-4.31-.55-6.25-1.67a12.4 12.4 0 0 1-4.57-4.58"/></svg>