<svg xmlns="http://www.w3.org/2000/svg" width="50" height="50" fill="none" viewBox="0 0 50 50"><path fill="#41afc4" d="M23.25.02c.25 0 .49 0 .74.01h.56c.21.61.21.61.42 1.23q.21-.6.42-1.23c3.38-.25 6.6.77 9.72 2.22l.21 1.72c.12-.13.24-.25.37-.38.47-.36.47-.36.84-.32.68.3 1.26.74 1.87 1.19.13.1.25.2.39.3 1.24.95 2.39 2 3.5 3.15l.49.49c.35.49.35.49.39 1.02-.08.48-.16.96-.25 1.44.13-.12.26-.25.39-.38.15-.12.3-.24.46-.36.86.34 1.14 1.01 1.62 1.87.09.16.19.32.28.49 1.17 2.11 2.45 4.55 2.96 7-.19.68-.5 1.12-.85 1.72.63-.12.63-.12 1.27-.25l.3 1.26c.06.24.11.47.17.71.42 1.94.43 3.82.44 5.8 0 .32.01.65.02.98v.95c.01.42.01.42.01.85-.14 1.12-.61 1.67-1.33 2.39-.13.11-.26.22-.4.33-.15.13-.3.25-.46.38s-.32.26-.48.4l-.5.41c-.53.44-1.05.87-1.57 1.29l-1.02.84c-.47.39-.94.78-1.42 1.17-.14.11-.28.22-.42.34-.12.1-.24.2-.37.3-.12.1-.24.2-.36.31-.15.09-.3.19-.46.29-.59.68-.56 1.45-.6 2.37l-.04.57c-.04.6-.07 1.2-.11 1.8-.03.6-.07 1.2-.11 1.8l-.06 1.11c-.05.84-.14 1.58-.31 2.4H9.76c-.63-8.62-.63-8.62-.63-9.85-.18-.1-.18-.1-.37-.2-.83-.51-1.59-1.15-2.36-1.77-.27-.21-.27-.21-.54-.43-1.28-1.03-2.53-2.1-3.75-3.23-.59-.54-.59-.54-1.28-1.05-.57-.46-.57-.46-.78-.95-.06-1.2-.05-2.4-.05-3.6v-.52c-.01-2.55.11-4.97.68-7.45h1.27c-.16-.26-.16-.26-.33-.52-.38-.89-.29-1.22-.09-2.18.22-.62.45-1.21.71-1.8.07-.17.15-.34.22-.51.9-2.03 1.99-3.92 3.08-5.82.46.13.85.25 1.27.5-.08-.33-.08-.33-.16-.67-.05-.81-.05-.81.26-1.39 1.8-2 3.93-4.15 6.23-5.33.65.09.92.31 1.48.74V2.5c1.28-.76 2.57-1.23 3.95-1.65.17-.05.35-.11.52-.16C20.5.27 21.8 0 23.25.02"/><path fill="#4ed2d9" d="M23.28 2.74c.11.4.11.4.22.81.09.36.19.71.28 1.07.05.17.1.35.14.53.05.17.1.35.14.52.05.17.1.35.14.52.12.44.25.87.38 1.29.18.68.18.68.18 1.66h.42c.02-.23.05-.47.07-.71.14-1.19.47-2.31.79-3.46.06-.21.12-.43.18-.65.15-.53.29-1.05.44-1.58.95-.32 1.76-.16 2.71.06.22.05.22.05.45.11 1.04.24 1.99.57 2.97 1.06-.08 1.89-.45 3.58-.91 5.38-.04.18-.09.37-.14.56-.04.16-.08.33-.13.5-.12.5-.12.5-.09 1.19.16-.19.32-.39.49-.58 1.1-1.3 2.2-2.57 3.39-3.75.35-.34.35-.34.65-.77.33-.31.33-.31.7-.31.7.36 1.26.89 1.86 1.44l.37.34c.33.3.66.61.99.92.13.13.27.25.41.38.22.36.22.36.16.9-.18.81-.44 1.55-.73 2.32-.05.15-.11.3-.17.46-.17.48-.35.96-.53 1.44-.12.32-.24.65-.37.97-.29.8-.59 1.6-.89 2.39 1.36-1 2.72-2.01 4.06-3.06l.42-.33c.34-.26.68-.53 1.02-.79.71.76 1.16 1.55 1.62 2.54.13.27.25.53.38.81.34.89.51 1.58.53 2.56-.29.56-.29.56-.73 1.06-.62.75-1.21 1.5-1.77 2.32-1.03 1.53-2.12 3.01-3.2 4.49 1.49-.51 2.96-1.06 4.4-1.75.9-.43 1.59-.71 2.57-.71.57 2 .56 4.6.21 6.65-.55 1.16-1.54 1.67-2.54 2.21-.3.23-.61.47-.91.71-.72.51-1.48.87-2.25 1.26-.46.32-.9.65-1.34.99-.35.24-.35.24-.78.24l-.06-.66c-.27-2.56-.83-4.68-1.84-6.97v-.49h-.42v-.74h-.42v-.74c-.19-.09-.19-.09-.37-.18-.55-.36-.87-.78-1.3-1.32-2.62-3.11-6.48-4.63-10.17-4.71-2.45.03-4.77.78-6.96 2.03-.17.1-.35.19-.53.29-1.98 1.24-3.62 3.29-4.96 5.37-.21.12-.21.12-.42.25-.16.48-.29.98-.42 1.47-.07.19-.14.37-.2.56-.7 2-.9 3.96-1.07 6.09-1.21-.49-2.25-1.07-3.33-1.88-.14-.11-.29-.21-.44-.32-3.49-2.62-3.49-2.62-4.26-3.96-.05-.56-.05-.56-.05-1.22 0-.24 0-.47.01-.72v-1.49c.01-2 .01-2 .25-2.96l1.47.51 1.32.45c1.53.52 2.96 1.17 4.39 1.99l-.51-.69c-.72-.98-1.42-1.96-2.11-2.96-.4-.58-.81-1.15-1.24-1.71-.23-.32-.47-.64-.7-.96-.12-.15-.23-.3-.35-.45-.76-1.06-.76-1.06-.83-1.85.08-1.08.39-1.94.86-2.87.11-.22.22-.44.33-.67.11-.21.22-.42.33-.64.12-.23.24-.46.36-.7.09-.17.18-.35.27-.53.83.34 1.45.79 2.14 1.4 1.15 1 2.35 1.9 3.57 2.78-.19-.58-.37-1.17-.56-1.75-.05-.18-.11-.35-.17-.54-.28-.89-.58-1.77-.91-2.64l-.18-.46c-.17-.43-.34-.85-.51-1.28-.21-.71-.21-.71-.2-1.23.65-1.49 2.31-2.89 3.58-3.66.94.03 1.46.89 2.06 1.63.23.27.45.54.68.8.11.13.22.27.33.4 1.11 1.32 1.11 1.32 2.42 2.34-.04-.2-.09-.4-.14-.6-.2-.9-.41-1.79-.61-2.68-.07-.31-.14-.62-.22-.94l-.2-.9c-.07-.28-.13-.55-.19-.84-.11-.69-.11-.69.1-1.43 1.76-.98 4.18-1.8 6.12-1.23"/><path fill="#eb9e46" d="M23.25.02c.25 0 .49 0 .74.01h.56c.21.61.21.61.42 1.23q.21-.6.42-1.23c3.38-.25 6.6.77 9.72 2.22l.21 1.72c.12-.13.24-.25.37-.38.47-.36.47-.36.84-.32.68.3 1.26.74 1.87 1.19.13.1.25.2.39.3 1.24.95 2.39 2 3.5 3.15l.49.49c.35.49.35.49.39 1.02-.08.48-.16.96-.25 1.44.13-.12.26-.25.39-.38.15-.12.3-.24.46-.36.86.34 1.14 1.01 1.62 1.87.09.16.19.32.28.49 1.17 2.11 2.45 4.55 2.96 7-.19.68-.5 1.12-.85 1.72.63-.12.63-.12 1.27-.25l.3 1.26c.06.24.11.47.17.71.42 1.94.43 3.82.44 5.8 0 .32.01.65.02.98v.95c.01.42.01.42.01.85-.14 1.12-.61 1.67-1.33 2.39-.13.11-.26.22-.4.33-.15.13-.3.25-.46.38s-.32.26-.48.4l-.5.41c-.53.44-1.05.87-1.57 1.29l-1.02.84c-.47.39-.94.78-1.42 1.17-.14.11-.28.22-.42.34-.12.1-.24.2-.37.3-.12.1-.24.2-.36.31-.15.09-.3.19-.46.29-.59.68-.56 1.45-.6 2.37l-.04.57c-.04.6-.07 1.2-.11 1.8-.03.6-.07 1.2-.11 1.8l-.06 1.11c-.05.84-.14 1.58-.31 2.4H9.76c-.63-8.62-.63-8.62-.63-9.85-.18-.1-.18-.1-.37-.2-.83-.51-1.59-1.15-2.36-1.77-.27-.21-.27-.21-.54-.43-1.28-1.03-2.53-2.1-3.75-3.23-.59-.54-.59-.54-1.28-1.05-.57-.46-.57-.46-.78-.95-.06-1.2-.05-2.4-.05-3.6v-.52c-.01-2.55.11-4.97.68-7.45h1.27c-.16-.26-.16-.26-.33-.52-.38-.89-.29-1.22-.09-2.18.22-.62.45-1.21.71-1.8.07-.17.15-.34.22-.51.9-2.03 1.99-3.92 3.08-5.82.46.13.85.25 1.27.5-.08-.33-.08-.33-.16-.67-.05-.81-.05-.81.26-1.39 1.8-2 3.93-4.15 6.23-5.33.65.09.92.31 1.48.74V2.5c1.28-.76 2.57-1.23 3.95-1.65.17-.05.35-.11.52-.16C20.5.27 21.8 0 23.25.02m-6.09 3.95c-.27.93-.12 1.37.09 2.32.1.46.1.46.2.93.08.33.15.66.22.98.07.33.15.66.22.99.17.8.35 1.61.53 2.41l-.34-.4c-.14-.17-.29-.35-.45-.53-.14-.17-.29-.34-.44-.52-.56-.63-1.14-1.22-1.73-1.81-.56-.58-1.05-1.21-1.55-1.86-.33-.34-.33-.34-.74-.27-1.03.51-1.89 1.39-2.77 2.19-.13.12-.26.23-.4.35-.33.32-.33.32-.66.88.08 1.04.33 1.89.7 2.84.09.24.19.49.28.74.1.26.2.51.3.78.2.5.4 1.01.59 1.52l.26.68c.2.58.2.58.2 1.32-.65-.47-1.3-.94-1.95-1.42-.18-.13-.36-.26-.55-.4-.9-.66-1.74-1.34-2.57-2.12h-.43l-.81 1.65c-.08.15-.16.3-.24.46-.89 1.78-.89 1.78-1.06 3.8.23.49.23.49.57.92.12.17.24.34.37.51.13.18.26.35.4.54.2.27.2.27.4.55.4.56.81 1.11 1.22 1.66.34.47.68.93 1.02 1.4.19.27.39.54.59.81.41.56.78 1.11 1.13 1.73-.17-.1-.17-.1-.35-.21-1.4-.79-2.83-1.39-4.31-1.96-.29-.12-.29-.12-.6-.23-.94-.4-.94-.4-1.92-.55-.3 1.21-.26 2.42-.27 3.67-.01.25-.02.49-.02.74-.01 1.38-.01 1.38.38 2.67.82.81 1.69 1.5 2.59 2.18.2.15.39.3.6.45.95.73 1.91 1.45 2.88 2.14.16.12.33.24.5.37l.93.66c1.02.74 1.02.74 1.27 1.47.01.32.01.32.01.66l.06.92c.02.52.04 1.04.05 1.55.07 1.68.3 3.21.53 4.91h25.76c.53-4.61.53-4.61.27-7 .05-.93.18-1.41.78-2.05 1.15-.99 2.39-1.81 3.64-2.61.83-.55 1.61-1.16 2.4-1.78l.38-.29c.33-.26.66-.52.98-.79.2-.12.4-.25.61-.37.76-1.04.57-2.27.53-3.58-.01-.27-.01-.54-.01-.82-.01-1.45-.01-1.45-.28-2.86-1.99.21-3.85 1.15-5.71 1.97-.42.17-.84.33-1.26.49.1-.13.2-.25.3-.39a99 99 0 0 0 2.8-3.83l1.02-1.44c.17-.24.35-.48.52-.72.24-.32.24-.32.48-.65.35-.57.53-.89.58-1.58-.4-1.91-1.39-3.56-2.32-5.17-1.86 1.36-3.68 2.76-5.49 4.18.15-.87.43-1.63.74-2.44.11-.28.21-.56.32-.85.22-.6.45-1.19.67-1.78.11-.28.21-.56.32-.85.15-.38.15-.38.29-.78.2-.71.23-.99-.02-1.66-.58-.73-1.24-1.35-1.9-1.97-.14-.14-.28-.27-.43-.41-.66-.64-.66-.64-1.47-.79-.54.27-.82.61-1.22 1.1-.57.7-1.14 1.35-1.77 1.97-.73.74-1.41 1.51-2.08 2.31.27-1.79.66-3.54 1.1-5.29.16-.81.2-1.51.17-2.34-3.01-1.25-3.01-1.25-6.13-1.23-.25.88-.49 1.76-.74 2.65l-.21.75c-.07.25-.14.49-.2.74-.07.22-.13.44-.19.67-.17.66-.17.66-.14 1.59h-.42c-.02-.24-.05-.49-.07-.74-.13-1.03-.38-2-.66-3-.06-.26-.06-.26-.14-.52-.22-.83-.46-1.62-.82-2.38-1.98 0-4.12.47-5.91 1.47"/><path fill="#59e7e1" d="M23.28 2.74c.11.4.11.4.22.81.09.36.19.71.28 1.07.05.17.1.35.14.53l.15.52c.04.17.09.35.13.52.12.44.25.87.38 1.29.18.68.18.68.18 1.66h.42c.02-.23.05-.47.07-.71.14-1.19.47-2.31.79-3.46.06-.21.12-.43.18-.65.15-.53.29-1.05.44-1.58.95-.32 1.76-.16 2.71.06.22.05.22.05.45.11 1.04.24 1.99.57 2.97 1.06-.08 1.89-.45 3.58-.91 5.38-.04.18-.09.37-.14.56-.04.16-.08.33-.13.5-.12.5-.12.5-.09 1.19.16-.19.32-.39.49-.58 1.1-1.3 2.2-2.57 3.39-3.75.35-.34.35-.34.65-.77.33-.31.33-.31.7-.31.7.36 1.26.89 1.86 1.44l.37.34c.33.3.66.61.99.92.13.13.27.25.41.38.22.36.22.36.16.9-.28 1.29-.78 2.5-1.23 3.72-.18.48-.35.97-.53 1.45-.11.31-.22.62-.34.93-.1.28-.2.56-.31.84-.28.64-.28.64-.7.89-.09-.15-.17-.3-.26-.45-.61-.87-1.43-1.26-2.27-1.76-.16-.11-.32-.21-.48-.31-2.63-1.66-5.44-2.38-8.39-2.65-.18-.02-.36-.03-.54-.05-3.1-.15-7.09.7-9.76 2.55-.69.46-.69.46-1.32.46v.49c-.16.06-.31.12-.47.18-.63.33-.98.71-1.43 1.29v-.49h-.42v-.74c-.21-.08-.42-.16-.64-.24-.44-.93-.76-1.93-1.1-2.91-.15-.41-.15-.41-.31-.83-.09-.26-.18-.52-.28-.79-.08-.24-.17-.48-.26-.73-.17-.69-.18-.98.05-1.63.97-1.21 2.12-2.43 3.38-3.2.94.03 1.46.89 2.06 1.63.23.27.45.54.68.8.11.13.22.27.33.4 1.11 1.32 1.11 1.32 2.42 2.34-.04-.2-.09-.4-.14-.6-.2-.9-.41-1.79-.61-2.68l-.22-.94c-.07-.3-.13-.6-.2-.9-.1-.42-.1-.42-.19-.84-.11-.69-.11-.69.1-1.43 1.77-.98 4.18-1.8 6.12-1.23"/><path fill="#ec8e14" d="M23.25.02c.25 0 .49 0 .74.01h.56c.21.61.21.61.42 1.23q.21-.6.42-1.23c3.38-.25 6.6.77 9.72 2.22l.21 1.72c.12-.13.24-.25.37-.38.47-.36.47-.36.84-.32.68.3 1.26.74 1.87 1.19.13.1.25.2.39.3 1.24.95 2.39 2 3.5 3.15l.49.49c.35.49.35.49.39 1.02-.08.48-.16.96-.25 1.44.13-.12.26-.25.39-.38.15-.12.3-.24.46-.36.86.34 1.14 1.01 1.62 1.87.09.16.19.32.28.49 1.17 2.11 2.45 4.55 2.96 7-.19.68-.5 1.12-.85 1.72.63-.12.63-.12 1.27-.25l.3 1.26c.06.24.11.47.17.71.42 1.94.43 3.82.44 5.8 0 .32.01.65.02.98v.95c.01.42.01.42.01.85-.14 1.12-.61 1.67-1.33 2.39-.13.11-.26.22-.4.33-.15.13-.3.25-.46.38s-.32.26-.48.4l-.5.41c-.53.44-1.05.87-1.57 1.29l-1.02.84c-.47.39-.94.78-1.42 1.17-.14.11-.28.22-.42.34-.12.1-.24.2-.37.3-.12.1-.24.2-.36.31-.15.09-.3.19-.46.29-.59.68-.56 1.45-.6 2.37l-.04.57c-.04.6-.07 1.2-.11 1.8-.03.6-.07 1.2-.11 1.8l-.06 1.11c-.05.84-.14 1.58-.31 2.4H9.76c-.63-8.62-.63-8.62-.63-9.85-.18-.1-.18-.1-.37-.2-.83-.51-1.59-1.15-2.36-1.77-.27-.21-.27-.21-.54-.43-1.28-1.03-2.53-2.1-3.75-3.23-.59-.54-.59-.54-1.28-1.05-.57-.46-.57-.46-.78-.95-.06-1.2-.05-2.4-.05-3.6v-.52c-.01-2.55.11-4.97.68-7.45h1.27c-.16-.26-.16-.26-.33-.52-.38-.89-.29-1.22-.09-2.18.22-.62.45-1.21.71-1.8.07-.17.15-.34.22-.51.9-2.03 1.99-3.92 3.08-5.82.46.13.85.25 1.27.5-.08-.33-.08-.33-.16-.67-.05-.81-.05-.81.26-1.39 1.8-2 3.93-4.15 6.23-5.33.65.09.92.31 1.48.74V2.5c1.28-.76 2.57-1.23 3.95-1.65.17-.05.35-.11.52-.16C20.5.27 21.8 0 23.25.02m-3.11 1.43c-.19.04-.37.09-.56.13-2.11.44-2.11.44-3.9 1.65-.05.33-.09.67-.12 1l-.09.97c-.49.05-.49.05-1.06 0l-.32-.38c-.1-.12-.21-.24-.31-.36-2.06.24-3.98 2.43-5.49 3.94-.13.11-.25.23-.38.34-.39.61-.27 1.07-.19 1.8.02.24.05.49.08.74.02.19.04.37.06.57H6.39v-.49c-1.52.58-2.42 3.55-3.15 5.15-.08.18-.16.36-.25.55-.08.17-.15.34-.23.52-.07.15-.14.3-.21.46-.19.49-.33.91-.39 1.44.28.41.56.82.85 1.23.15.81.15.81.21 1.47H1.53c-.67 2.14-.71 4.27-.75 6.53-.02.29-.03.59-.04.89-.05 1.57-.05 1.57.48 2.97.43.45.87.82 1.36 1.18l.83.71c.28.23.57.46.85.69.15.13.3.25.46.38.81.67 1.62 1.3 2.47 1.88 2.38 1.69 2.38 1.69 2.88 3.12.1.94.1.94.12 3.07.14 1.78.28 3.57.42 5.41h28.51c.33-.77.3-1.61.34-2.46.03-.4.05-.8.08-1.2.03-.63.07-1.26.1-1.9.04-.61.07-1.21.11-1.82l.03-.58c.04-.53.04-.53.19-1.39.38-.33.38-.33.84-.49.27-.2.53-.4.79-.61l.43-.35c.15-.12.3-.24.46-.37.22-.17.22-.17.45-.36.79-.64 1.55-1.3 2.31-2.01.14-.08.27-.16.42-.24v-.49c.15-.07.3-.13.46-.19.65-.34 1.14-.74 1.7-1.26.19-.17.37-.33.56-.51.68-.77.68-1.52.69-2.6.01-.44.01-.88.01-1.32v-.7c.02-3.07.02-3.07-.68-5.98h-1.47c-.16-.52-.16-.52-.22-1.23.29-.49.57-.98.85-1.47-.12-1.32-.68-2.38-1.2-3.53l-.27-.6c-.88-2.03-.88-2.03-2.12-3.75-.68-.08-1.25.03-1.9.25.06-.23.06-.23.13-.45.14-.74.18-1.26.08-2.01-.66-1-1.46-1.72-2.32-2.46-.3-.26-.3-.26-.59-.52-1.4-1.33-1.4-1.33-3-1.92-.46.22-.46.22-.97.6-.51.36-.51.36-1.15.36V2.99c-2.54-1.08-5.28-2.17-8.02-1.97-.47.55-.62 1-.85 1.72-.35-.08-.69-.16-1.05-.24-.21-.74-.21-.74-.43-1.48-1.3-.05-2.49.12-3.77.43"/><path fill="#338cb1" d="M27.57 36.75c1.99 1.3 1.99 1.3 2.47 2.42.06.13.12.27.18.41.78 1.87 1.12 3.25 1.1 5.31v.55c-.01.45-.01.91-.01 1.36.31.12.31.12.63.24H12.09c-.07-.81-.14-1.62-.21-2.46.42.49.42.49.42 2.22h6.97c-.01-.65-.03-1.29-.04-1.96-.02-1.63.1-2.93.67-4.44h.42c.06-.25.06-.25.12-.51.64-1.52 1.82-2.58 3.05-3.43 1.39-.54 2.76-.45 4.08.29"/><path fill="#46c9c2" d="M6.17 13.57c.83.34 1.45.79 2.14 1.4 1.15 1 2.35 1.9 3.57 2.78-.28.75-.58 1.2-1.1 1.74-1.27 1.44-2.18 3.28-2.92 5.16a46 46 0 0 1-2.5-3.16c-.2-.25-.2-.25-.39-.5-.88-1.21-.88-1.21-.96-2.03.08-1.06.41-1.94.87-2.85.11-.22.22-.44.33-.67l.33-.64c.12-.23.24-.46.36-.7.09-.17.18-.35.27-.53"/><path fill="#45c9c3" d="M43.35 13.57c.7.79 1.15 1.54 1.62 2.54.13.27.25.53.38.81.34.89.51 1.58.53 2.56-.29.56-.29.56-.73 1.06-.68.81-1.31 1.63-1.91 2.52-.14.21-.28.42-.43.63-.15.23-.15.23-.31.46-.66-.7-1.16-1.38-1.64-2.26-.63-1.16-1.4-2.12-2.21-3.11-.37-.53-.37-.53-.37-1.27.46-.45.46-.45 1.11-.94.22-.17.45-.35.69-.53s.49-.36.73-.55c.25-.18.49-.37.73-.56.6-.45 1.2-.91 1.81-1.36"/><path fill="#f8b617" d="M2.58 20.22c.64.49.64.49.82.96.03.51.03.51-.2.94-.56.43-1.01.33-1.67.31-.35 2.11-.54 4.19-.58 6.34-.02.28-.03.57-.05.87-.03 1.61-.03 1.61.62 2.98.55.51 1.1.95 1.7 1.38.31.26.62.53.93.8l.92.77c.16.13.32.27.49.41.76.66 1.53 1.28 2.35 1.83 1.92 1.34 1.92 1.34 2.33 2.77.15 1.01.15 2 .16 3.02.04.52.08 1.04.13 1.57.1 1.29.08 2.52.08 3.84h28.51c.07-.16.14-.32.21-.49v.74c-10.14.12-10.14.12-20.48.24v.25H9.76c-.1-1.36-.2-2.71-.31-4.11-.04-.42-.07-.85-.1-1.29-.03-.34-.05-.68-.08-1.02-.01-.17-.03-.35-.04-.53a29 29 0 0 1-.1-2.65c-.12-.07-.24-.13-.37-.2-.85-.52-1.62-1.18-2.41-1.81-.18-.14-.35-.28-.52-.42-3.34-2.66-3.34-2.66-4.51-4.71-.21-.16-.42-.32-.64-.49-.33-1.54-.25-3.16-.25-4.74 0-.52 0-1.03-.01-1.55 0-1.67.03-3.19.47-4.78.7.16 1.4.32 2.12.49a144 144 0 0 0-.43-1.72"/><path fill="#feb61c" d="M45.25 36.7c-.11.09-.21.18-.32.26-.48.39-.95.79-1.43 1.18l-.49.4c-.16.13-.32.27-.49.4l-.44.36-.42.36c-.16.1-.31.19-.47.29-.58.68-.55 1.45-.59 2.37l-.04.57c-.04.6-.07 1.2-.11 1.8-.03.6-.07 1.2-.11 1.8l-.06 1.11c-.05.84-.14 1.58-.31 2.4H9.76v-.25c1.05-.12 1.05-.12 2.12-.25v-.24h27.45v-3.7c.04-.95.08-1.9.15-2.86l.03-.7c.08-1.08.13-1.68.72-2.56l.58-.52c.19-.18.37-.35.57-.53l.58-.5c.19-.17.38-.33.58-.5.93-.69 1.63-1.06 2.71-.69"/><path fill="#f1a614" d="M15.04 2.5c.21.08.42.16.64.24-.07.89-.14 1.79-.21 2.71h-1.06c-.1-.13-.21-.26-.32-.39-.1-.11-.21-.23-.31-.35-2.17.24-4.43 2.7-5.92 4.43.01.65.01.65.1 1.37.04.44.08.89.11 1.34q-.09.12-.21.24-.735-.105-1.47-.24v-.49c-.95.99-1.53 2.06-2.13 3.36-.09.2-.18.4-.28.6-.99 1.99-.99 1.99-1.61 4.16.23.83.23.83.64 1.47v.99c-.74-.11-1.41-.22-2.12-.49-.24 1.76-.24 3.51-.23 5.29 0 .52 0 1.04-.01 1.56v1c.01.3.01.6.01.91.02.8.07 1.53.23 2.31.51.53.51.53 1.06.99.28.55.28.55.42.98C.45 33.46.45 33.46.05 32.52c-.06-1.2-.05-2.4-.05-3.6v-.52c-.01-2.55.11-4.97.68-7.45h1.27c-.16-.26-.16-.26-.33-.52-.38-.89-.29-1.22-.09-2.18.22-.62.45-1.21.71-1.8.07-.17.15-.34.22-.51.9-2.03 1.99-3.92 3.08-5.82.46.13.85.25 1.27.5-.05-.22-.11-.44-.16-.67-.05-.81-.05-.81.26-1.39 1.8-2 3.93-4.14 6.23-5.33.45.03.45.03.85.25.26.51.26.51.42.98h.42z"/><path fill="#2da199" d="M2.58 24.65c1.63.56 3.24 1.14 4.86 1.72-.1.18-.2.37-.3.56-1.02 2.06-.87 4.76-.97 7.07.98.73 1.96 1.46 2.96 2.21-.07.17-.14.33-.21.49-.7-.53-1.4-1.07-2.1-1.61-.19-.15-.39-.3-.59-.45-3.46-2.68-3.46-2.68-3.86-3.6-.02-.39-.03-.79-.03-1.19v-.73c0-.37 0-.37.01-.75 0-.25-.01-.5-.01-.75v-.73c0-.22 0-.43.01-.66.02-.56.1-1.05.23-1.58"/><path fill="#2ba09a" d="M47.15 24.89c.57 1.99.57 4.6.21 6.65-.56 1.15-1.52 1.69-2.54 2.21l-.5.3c-.17.09-.17.09-.34.19l-.03-.8c-.07-2.05-.23-3.96-.68-5.95-.14-.63-.14-.63-.14-1.37.51-.2 1.02-.41 1.54-.61.21-.09.21-.09.43-.18.73-.29 1.27-.44 2.05-.44"/><path fill="#ef9413" d="M49.26 22.43h.21c.41 2.13.5 4.19.5 6.37.01.32.01.63.02.96v.93c0 .27 0 .55.01.83-.18 1.28-.89 1.99-1.75 2.73l-.93.78-.46.4c-1.07.88-2.01 1.31-3.3 1.52.29-.37.29-.37.63-.74h.42c.07-.24.14-.48.21-.74.44-.16.44-.16.85-.24v-.49c.62-.54 1.24-1.04 1.89-1.53.13-.1.26-.21.4-.32.12-.09.24-.19.37-.29.68-.76.54-1.93.57-2.97 0-.32.01-.65.02-.98.01-.34.01-.68.02-1.02.02-.67.03-1.33.05-2 0-.29.01-.59.02-.89.04-.79.12-1.54.25-2.31"/><path fill="#fdca3b" d="M9.98 40.89h.21l.21 2.68.06.75.06.75c.01.23.03.45.05.68.05 1.09.04 2.17.04 3.26h28.51c.07-.16.14-.32.21-.49v.74c-9.55.08-19.09.16-28.93.24-.36-1.26-.48-1.91-.47-3.18.01-.32.01-.63.01-.96s.01-.66.01-.99c0-.34 0-.68.01-1.02 0-.82.01-1.64.02-2.46"/><path fill="#e9a60d" d="M41.02 39.17h.42v.73c-.2.17-.41.33-.63.5-.1.64-.16 1.24-.19 1.89-.01.19-.03.38-.04.57-.04.61-.08 1.21-.11 1.81l-.12 1.81c-.02.37-.05.74-.07 1.12-.05.83-.14 1.58-.31 2.4H9.76v-.25h29.99v-2.71c.07-1.19.17-2.37.28-3.55.03-.31.05-.62.08-.94.02-.29.05-.59.08-.89.02-.27.04-.53.07-.81.14-.75.31-1.14.76-1.68"/><path fill="#f5a521" d="M45.25 36.7c-1.19.98-2.37 1.95-3.59 2.96-.07-.16-.14-.33-.22-.49-.55.54-.81.86-.99 1.69l-.06.81c-.02.29-.04.59-.07.9l-.06.93c-.16 2.04-.34 4.01-.72 6h-1.9v-.24h1.69c0-.21-.01-.41-.01-.62-.03-1.99.03-3.96.16-5.94l.03-.7c.08-1.09.14-1.68.72-2.56l.58-.52c.19-.18.37-.35.57-.53.19-.17.38-.33.58-.5l.58-.5c.98-.72 1.57-1.02 2.71-.69"/><path fill="#fec934" d="M2.58 20.22c.64.49.64.49.82.96.03.51.03.51-.2.94-.56.43-1.01.33-1.67.31-.35 2.11-.54 4.19-.58 6.34-.02.28-.03.57-.05.87-.03 1.63-.03 1.63.66 3 .53.51 1.07.94 1.66 1.36.29.24.58.49.87.74.2.16.4.32.61.49l-.64.24c-.29-.23-.57-.48-.84-.73-.26-.11-.26-.11-.53-.22-.67-.35-.94-.83-1.37-1.51-.21-.16-.42-.32-.64-.49-.33-1.54-.25-3.16-.25-4.74 0-.52 0-1.03-.01-1.55 0-1.67.03-3.19.47-4.78.7.16 1.4.32 2.12.49a144 144 0 0 0-.43-1.72"/><path fill="#ed861d" d="M46.09 15.29h.42c1.71 3.45 1.71 3.45 1.37 5.49-.03.14-.07.28-.1.42.42-.08.84-.16 1.27-.25.61 1.44.17 3.64 0 5.17h-.21c-.14-1.3-.28-2.6-.43-3.94-.48.09-.97.17-1.47.25l-.43-.49c.06-.76.2-1.2.56-1.85.36-.77.28-1.01.08-1.84-.17-.44-.35-.86-.54-1.28-.52-1.13-.52-1.13-.52-1.68"/><path fill="#fbc42c" d="M2.37 34.49c2.73.52 5.47 2.93 7.39 5.17-1.83-.53-3.19-1.24-4.71-2.57-.25-.21-.25-.21-.5-.43-.78-.67-1.52-1.33-2.18-2.17"/><path fill="#fdba24" d="M2.58 20.22c.64.49.64.49.82.96.03.51.03.51-.2.94-.56.43-1.01.36-1.67.31-.54 1.1-.72 1.92-.74 3.18l-.03.96c0 .34-.01.67-.01 1-.01.34-.02.67-.02 1.01-.02.82-.03 1.64-.05 2.46H.47c-.01-1.05-.02-2.1-.02-3.15 0-.35-.01-.71-.01-1.07-.04-3.64-.04-3.64.45-5.37.7.16 1.4.32 2.12.49a144 144 0 0 0-.43-1.72"/><path fill="#eb7725" d="M41.02 7.91c.61.32 1.07.61 1.48 1.23.02.61.02.61-.07 1.28-.03.33-.03.33-.07.67-.02.17-.05.34-.07.51.63-.16 1.25-.32 1.9-.49l.96 1.68c.14.23.14.23.28.47.24.42.45.86.66 1.29l-.21.74c-.63-1.13-1.25-2.27-1.9-3.44-.31.04-.62.09-.94.14-.32.04-.64.08-.96.1l-.21-.24c.04-.39.1-.77.16-1.16.09-.93.09-.93-.17-1.79-.32-.46-.32-.46-.84-.99"/><path fill="#f2971b" d="M47.78 33.01c.14.08.28.17.42.25-.12.14-.25.27-.38.41-.48.54-.48.54-.75 1.19-.65 1.17-1.51 1.61-2.64 1.91l-.87.18c.29-.37.29-.37.63-.74h.42c.07-.24.14-.48.21-.74.44-.16.44-.16.85-.24v-.49c.46-.43.46-.43 1.05-.9.2-.15.4-.31.6-.47.15-.12.3-.23.46-.36"/><path fill="#eba30e" d="M5.54 10.12c.69.18 1.01.36 1.48.99-.63-.12-.63-.12-1.27-.25l-.42 1.23h-.42v.99h-.43c-.05.19-.1.38-.15.58-.3.73-.48.87-1.11 1.14.33-1.12.84-2.05 1.4-3.03.09-.16.17-.32.27-.48.21-.39.43-.78.65-1.17"/><path fill="#ec9d0d" d="M13.66 3.29c.11.07.22.13.33.19-.75.68-1.54 1.27-2.34 1.86-1.05.78-1.05.78-2.1 1.59-.14-.17-.28-.33-.42-.5 3.63-3.24 3.63-3.24 4.53-3.14"/><path fill="#fbb429" d="M4.48 13.08c.14.08.28.16.43.24-.07.16-.14.31-.21.46-.32.69-.63 1.38-.94 2.07-.11.24-.22.47-.33.72-.11.23-.21.46-.32.7-.09.21-.19.42-.29.64-.33.81-.45 1.41-.45 2.31-.14-.17-.28-.33-.42-.5.07-1.5.4-2.89 1.06-4.18h.42c-.07-.24-.14-.49-.21-.74.17-.19.34-.39.51-.58.54-.58.54-.58.75-1.14"/><path fill="#f9a91d" d="M7.44 9.14c.55.95.56 1.57.63 2.71q-.09.12-.21.24-.735-.105-1.47-.24v-.49c-.17.19-.34.38-.51.58-.32.38-.65.76-.97 1.14 0-.99 0-.99.3-1.39l.33-.33c.07-.17.14-.33.21-.5.49.08.98.17 1.48.25.07-.65.14-1.3.21-1.97"/><path fill="#f0b012" d="M2.37 34.49c.87.15 1.55.5 2.33.98v.5c.15.05.3.1.46.15.79.45 1.12 1 1.65 1.82-.9 0-1.41-.58-2.1-1.17-.13-.11-.26-.22-.4-.33-.7-.6-1.34-1.21-1.94-1.95"/><path fill="#fba616" d="M39.97 39.66h.63c-.07.91-.13 1.81-.2 2.72-.02.26-.04.51-.05.78-.1 1.3-.21 2.59-.38 3.88h-.22c-.02-2.48.01-4.91.22-7.38"/><path fill="#ebac0f" d="M7.65 38.92c1.13.15 1.13.15 1.63.5.44.77.34 1.6.31 2.5 0 .18 0 .37-.01.56 0 .45-.01.91-.03 1.36h-.21c-.01-.39-.01-.39-.01-.79-.02-.34-.03-.68-.04-1.02 0-.17-.01-.35-.01-.52-.01-.57-.01-.57-.15-1.36-.39-.36-.39-.36-.84-.49-.37-.4-.37-.4-.64-.74"/><path fill="#41b2a6" d="M3.22 24.89c1.39.49 2.79.98 4.22 1.48q-.42.6-.84 1.23c-.01-.15-.01-.3-.01-.45-.18-.63-.18-.63-.92-.9-.29-.11-.59-.21-.88-.31-.15-.06-.3-.11-.46-.17l-1.11-.39z"/><path fill="#e79f0b" d="M8.71 6.68c.14.08.28.16.42.25q-.18.165-.36.36C7.67 8.42 7.67 8.42 7.23 10v.86c-.62-1.07-.62-1.07-.63-1.72.44-.63.44-.63 1.04-1.29.2-.22.4-.44.6-.67z"/><path fill="#f7a82d" d="M7.44 9.14c.55.95.56 1.57.64 2.71-.07.08-.14.16-.22.24q-.735-.105-1.47-.24v-.25h1.26c-.07-.81-.14-1.62-.21-2.46"/><path fill="#e5950b" d="M25.39.03h1.06c-.21.17-.42.33-.63.5-.16.75-.16.75-.22 1.47q-.51-.12-1.05-.24c.07-.33.14-.65.21-.99.07.16.14.33.21.49q.21-.6.42-1.23"/><path fill="#ea9d0c" d="m45.25 36.7-1.48 1.24c-.14-.09-.28-.17-.42-.25.21-.74.21-.74.59-1.05.46-.18.46-.18 1.31.06"/><path fill="#df974e" d="m17.79 9.63.21.74h.42l.21 1.48c-.41-.41-.83-.81-1.26-1.23.14-.33.28-.65.42-.99"/><path fill="#e09409" d="M49.26 22.43h.21c.14 1.06.28 2.11.42 3.2-.42-.25-.42-.25-.67-.91-.18-.87-.14-1.42.04-2.29"/><path fill="#d18153" d="M31.73 10.12c.21.09.42.17.63.25-.29.78-.42.98-1.05 1.48.18-1.45.18-1.45.42-1.73"/><path fill="#d07f51" d="M38.28 16.03c.21.33.41.65.63.99-.28.32-.56.65-.84.98-.14-.08-.28-.16-.43-.25.21-.56.42-1.13.64-1.72"/></svg>