<svg xmlns="http://www.w3.org/2000/svg" width="50" height="50" fill="none" viewBox="0 0 50 50"><path fill="#fe758c" d="M48.34 13h1.62c.01 0 .02.01.04.01v23.95c-.12.04-49.7.05-50 .02 0-.52 0-1.04.01-1.58.29-.01.56-.01.82-.01h.83V15.64c.01-.34 0-.68.01-1.01.03-.02.03-.03.03-.03h.02c.01 0 .01 0 .02-.01h46.54l.01-.01h.02c0-.01.01-.01.03-.03zM3.33 27.42c0 .52.01 1.05 0 1.6v3.2c0 .52.01 1.05 0 1.6v1.56h45.01v-.15c0-6.34-.01-12.67-.01-19 0-.01 0-.01-.01-.02 0 0-.01 0-.02-.02h-2.23c-.36 0-.71.01-1.09 0-.55.01-1.1.01-1.68.01-.54 0-1.08-.01-1.65-.01h-.58c-.36 0-.71.01-1.1 0-.54.01-1.09.01-1.67.01-.54 0-1.08-.01-1.66-.01h-.58c-.35 0-.7.01-1.09 0-.54.01-1.09.01-1.67.01-.54 0-1.08-.01-1.66-.01h-.58c-.35 0-.7.01-1.09 0-.54.01-1.09.01-1.67.01-.54 0-1.08-.01-1.66-.01h-.58c-.35 0-.7.01-1.09 0-.55.01-1.09.01-1.67.01-.54 0-1.08-.01-1.66-.01h-.58c-.35 0-.71.01-1.09 0-.55.01-1.09.01-1.67.01-.54 0-1.09-.01-1.66-.01h-.58c-.35 0-.71.01-1.09 0-.55.01-1.09.01-1.67.01-.54 0-1.09-.01-1.66-.01h-.58c-.35 0-.71.01-1.09 0-.55.01-1.1.01-1.67.01-.55 0-1.09-.01-1.66-.01h-.58c-.36 0-.71.01-1.09 0H3.88c-.18.01-.36-.01-.54.01 0 .55 0 1.07-.01 1.62 0 .52.01 1.05 0 1.6v3.2c0 .52.01 1.05 0 1.6v1.6c0 .52.01 1.04 0 1.6"/><path d="M49.96 13c.01 0 .02.01.04.01v23.95c-.12.04-49.7.05-50 .02 0-.52 0-1.04.01-1.58.29-.01.56-.01.82-.01h.83V15.64c.01-.34 0-.68.01-1.01.03-.02.03-.03.03-.03h.02c.01 0 .01 0 .02-.01h46.54l.01-.01h.02c0-.01.01-.01.03-.03V13zM3.33 29.02v3.2c0 .52.01 1.05 0 1.6v1.56h45.01v-.15c0-6.34-.01-12.67-.01-19 0-.01 0-.01-.01-.02 0 0-.01 0-.02-.02h-2.23c-.36 0-.71.01-1.09 0-.55.01-1.1.01-1.68.01-.54 0-1.08-.01-1.65-.01h-.58c-.36 0-.71.01-1.1 0-.54.01-1.09.01-1.67.01-.54 0-1.08-.01-1.66-.01h-.58c-.35 0-.7.01-1.09 0-.54.01-1.09.01-1.67.01-.54 0-1.08-.01-1.66-.01h-.58c-.35 0-.7.01-1.09 0-.54.01-1.09.01-1.67.01-.54 0-1.08-.01-1.66-.01h-.58c-.35 0-.7.01-1.09 0-.55.01-1.09.01-1.67.01-.54 0-1.08-.01-1.66-.01h-.58c-.35 0-.71.01-1.09 0-.55.01-1.09.01-1.67.01-.54 0-1.09-.01-1.66-.01h-.58c-.35 0-.71.01-1.09 0-.55.01-1.09.01-1.67.01-.54 0-1.09-.01-1.66-.01h-.58c-.35 0-.71.01-1.09 0-.55.01-1.1.01-1.67.01-.55 0-1.09-.01-1.66-.01h-.58c-.36 0-.71.01-1.09 0H3.88c-.18.01-.36-.01-.54.01 0 .55 0 1.07-.01 1.62 0 .52.01 1.05 0 1.6v3.2c0 .52.01 1.05 0 1.6v1.6c0 .52.01 1.04 0 1.6 0 .52.01 1.05 0 1.6"/><path fill="#ffc4da" d="M48.32 13c.02.52.02 1.04.02 1.55-.02.02-.03.02-.03.03h-.02l-.01.01H1.74c-.01.01-.01.01-.02.01H1.7s0 .01-.03.03c-.01.33 0 .67-.01 1.01v19.75H.02C0 35.33 0 35.27 0 35.21V13h48.32"/><path d="M48.34 14.55c-.02.02-.03.02-.03.03h-.02l-.01.01H1.74c-.01.01-.01.01-.02.01H1.7s0 .01-.03.03c-.01.33 0 .67-.01 1.01v19.75H.02C0 35.33 0 35.27 0 35.21V13h48.32c.02.52.02 1.04.02 1.55"/><path fill="#010101" d="M11.67 16.19c.54 0 1.09.01 1.64.02.02.13.02.24.02.35 0 .41.01.82.01 1.24-.01.54-.01 1.06-.01 1.58h3.34v-.18c0-.94-.01-1.88 0-2.82v-.19c.54 0 1.09.01 1.65.02.01.13.01.24.01.35 0 .41.01.82.01 1.24-.01.54-.01 1.06-.01 1.58h3.34v-3.19c.55 0 1.09.01 1.65.02a50.848 50.848 0 0 1 .02 1.59c-.01.54-.01 1.06-.01 1.58h3.34v-3.19c.55 0 1.09.01 1.65.02a50.848 50.848 0 0 1 .02 1.59c-.01.54-.01 1.06-.01 1.58h3.34v-3.19c.55 0 1.09.01 1.65.02.01.13.01.24.02.35v2.82h3.33v-3c0-.06 0-.12.01-.19.54 0 1.08.01 1.64.02.02.13.02.24.02.35v2.82h3.33v-3c0-.06 0-.12.01-.19.54 0 1.08.01 1.64.02.02.13.02.24.02.35v2.82h3.33v-3c0-.06.01-.12.01-.19h1.62c.01.02.02.02.02.02.01.01.01.01.01.02 0 6.33.01 12.66.01 19v.15H3.33c0-.52 0-1.04.02-1.58 2.16-.01 4.29-.01 6.43-.01.06 0 .12 0 .18-.01h.02c0-.01.01-.01.01-.01v-3.16c-.02-.01-.03-.02-.04-.02-.54.01-1.08.01-1.63.01-1.67-.01-3.33-.01-4.98-.01-.01-.52-.01-1.05.01-1.58.38-.02.75-.02 1.12-.02h2.19v-3.17l-.01-.01c-.01 0-.01-.01-.02-.02H3.34c-.01-.52-.01-1.04.01-1.58 2.15-.02 4.28-.02 6.41-.02h.2c.01 0 .01-.01.02-.01l.01-.01v-3.16C9.97 21 9.96 21 9.95 21H8.32c-1.67-.01-3.33-.01-4.98-.01-.01-.52-.01-1.04.01-1.58.38-.02.75-.02 1.12-.02h2.19v-3.01c0-.06.01-.12.01-.19.54 0 1.08.01 1.64.02.02.13.02.24.02.35 0 .41.01.82 0 1.24v1.58h3.33v-3c0-.06.01-.12.01-.19m1.64 4.8h-1.63c-.01.03-.01.04-.01.05 0 .51 0 1.03-.01 1.58v1.56h3.33v-3.17c-.02-.01-.03-.01-.04-.01-.54 0-1.08 0-1.64-.01m5 0h-1.62c-.01.03-.02.04-.02.05v3.14h3.32v-3.17c-.02-.01-.03-.01-.04-.01-.54 0-1.08 0-1.64-.01m18.36 11.23v1.56h3.32v-3.17c-.02-.01-.03-.02-.04-.02-.53.01-1.07.01-1.64 0h-1.62c-.01.03-.02.04-.02.05zm-23.36-1.63h-1.63c-.01.03-.01.04-.01.05 0 .51 0 1.03-.01 1.58v1.56h3.33v-3.17c-.02-.01-.03-.02-.04-.02-.54.01-1.08.01-1.64 0m21.67-4.8h-1.62c-.01.03-.02.04-.02.05v3.14h3.32v-3.17c-.02-.01-.03-.01-.04-.01-.54 0-1.08 0-1.64-.01m-6.65 1.63v1.56h3.33v-3.17c-.02-.01-.03-.01-.04-.01-.54 0-1.08 0-1.64-.01h-1.63c-.01.03-.01.04-.01.05 0 .51 0 1.03-.01 1.58m-8.36-1.63h-1.62c-.01.03-.01.04-.01.05 0 .51 0 1.03-.01 1.58v1.56h3.33v-3.17c-.02-.01-.03-.01-.04-.01-.54 0-1.08 0-1.65-.01m-5 0h-1.62c-.01.03-.02.04-.02.05.01.51.01 1.03 0 1.58v1.56h3.33v-3.17c-.02-.01-.03-.01-.04-.01-.54 0-1.08 0-1.65-.01m-6.64 1.63v1.56h3.32v-3.17c-.01-.01-.02-.01-.03-.01-.54 0-1.08 0-1.65-.01H8.35c-.01.03-.02.04-.02.05 0 .51.01 1.03 0 1.58m29.98-6.43h-1.62c-.01.03-.02.04-.02.05v3.14h3.32v-3.17c-.02-.01-.03-.01-.04-.01-.53 0-1.07 0-1.64-.01m-5 0h-1.62c-.01.03-.02.04-.02.05v3.14h3.32v-3.17c-.02-.01-.03-.01-.04-.01-.53 0-1.07 0-1.64-.01m-5 0h-1.62c-.01.03-.02.04-.02.05v3.14h3.32v-3.17c-.02-.01-.03-.01-.04-.01-.54 0-1.07 0-1.64-.01m-6.64 1.63v1.56h3.32v-3.17c-.02-.01-.03-.01-.04-.01-.54 0-1.07 0-1.64-.01h-1.62c-.01.03-.02.04-.02.05zm1.66 4.8v1.56h3.33v-3.17c-.02-.01-.03-.01-.04-.01-.54 0-1.08 0-1.65-.01h-1.62c-.01.03-.01.04-.01.05 0 .51 0 1.03-.01 1.58m18.34 4.8v1.56h4.99v-3.17c-.02-.01-.03-.02-.04-.02-.54.01-1.07.01-1.64 0h-3.29c-.01.03-.02.04-.02.05 0 .51.01 1.03 0 1.58m1.64-11.23h-1.62c-.01.03-.02.04-.02.05 0 .51.01 1.03 0 1.58v1.56h4.99V21c-.05 0-.1-.01-.14-.01h-3.06c-.04 0-.08.01-.15 0m1.67 4.8h-6.62c-.01.03-.02.04-.02.05v3.14c.27.03 8.21.02 8.32-.01v-3.16c-.02-.01-.03-.01-.04-.01-.53 0-1.07 0-1.64-.01m-28.31 6.43v1.55c.27.04 18.21.03 18.32 0v-3.16c-.02-.01-.03-.02-.04-.02-.53.01-1.07.01-1.64 0H16.83c-.05 0-.1.01-.15.01 0 .02-.01.03-.01.03z"/><path d="M13.31 16.21c.02.13.02.24.02.35 0 .41.01.82.01 1.24-.01.54-.01 1.06-.01 1.58h3.34v-.18c0-.94-.01-1.88 0-2.82v-.19c.54 0 1.09.01 1.65.02.01.13.01.24.01.35 0 .41.01.82.01 1.24-.01.54-.01 1.06-.01 1.58h3.34v-3.19c.55 0 1.09.01 1.65.02a50.848 50.848 0 0 1 .02 1.59c-.01.54-.01 1.06-.01 1.58h3.34v-3.19c.55 0 1.09.01 1.65.02a50.848 50.848 0 0 1 .02 1.59c-.01.54-.01 1.06-.01 1.58h3.34v-3.19c.55 0 1.09.01 1.65.02.01.13.01.24.02.35v2.82h3.33v-3c0-.06 0-.12.01-.19.54 0 1.08.01 1.64.02.02.13.02.24.02.35v2.82h3.33v-3c0-.06 0-.12.01-.19.54 0 1.08.01 1.64.02.02.13.02.24.02.35v2.82h3.33v-3c0-.06.01-.12.01-.19h1.62c.01.02.02.02.02.02.01.01.01.01.01.02 0 6.33.01 12.66.01 19v.15H3.33c0-.52 0-1.04.02-1.58 2.16-.01 4.29-.01 6.43-.01.06 0 .12 0 .18-.01h.02c0-.01.01-.01.01-.01v-3.16c-.02-.01-.03-.02-.04-.02-.54.01-1.08.01-1.63.01-1.67-.01-3.33-.01-4.98-.01-.01-.52-.01-1.05.01-1.58.38-.02.75-.02 1.12-.02h2.19v-3.17l-.01-.01c-.01 0-.01-.01-.02-.02H3.34c-.01-.52-.01-1.04.01-1.58 2.15-.02 4.28-.02 6.41-.02h.2c.01 0 .01-.01.02-.01l.01-.01v-3.16C9.97 21 9.96 21 9.95 21H8.32c-1.67-.01-3.33-.01-4.98-.01-.01-.52-.01-1.04.01-1.58.38-.02.75-.02 1.12-.02h2.19v-3.01c0-.06.01-.12.01-.19.54 0 1.08.01 1.64.02.02.13.02.24.02.35 0 .41.01.82 0 1.24v1.58h3.33v-3c0-.06.01-.12.01-.19.54 0 1.09.01 1.64.02m-1.63 4.78c-.01.03-.01.04-.01.05 0 .51 0 1.03-.01 1.58v1.56h3.33v-3.17c-.02-.01-.03-.01-.04-.01-.54 0-1.08 0-1.64-.01zm5.01 0c-.01.03-.02.04-.02.05v3.14h3.32v-3.17c-.02-.01-.03-.01-.04-.01-.54 0-1.08 0-1.64-.01zm19.98 12.79h3.32v-3.17c-.02-.01-.03-.02-.04-.02-.53.01-1.07.01-1.64 0h-1.62c-.01.03-.02.04-.02.05v3.14m-24.99-3.19c-.01.03-.01.04-.01.05 0 .51 0 1.03-.01 1.58v1.56h3.33v-3.17c-.02-.01-.03-.02-.04-.02-.54.01-1.08.01-1.64 0zm21.68-4.8c-.01.03-.02.04-.02.05v3.14h3.32v-3.17c-.02-.01-.03-.01-.04-.01-.54 0-1.08 0-1.64-.01zm-5.03 3.19h3.33v-3.17c-.02-.01-.03-.01-.04-.01-.54 0-1.08 0-1.64-.01h-1.63c-.01.03-.01.04-.01.05 0 .51 0 1.03-.01 1.58zm-9.98-3.19c-.01.03-.01.04-.01.05 0 .51 0 1.03-.01 1.58v1.56h3.33v-3.17c-.02-.01-.03-.01-.04-.01-.54 0-1.08 0-1.65-.01zm-5 0c-.01.03-.02.04-.02.05.01.51.01 1.03 0 1.58v1.56h3.33v-3.17c-.02-.01-.03-.01-.04-.01-.54 0-1.08 0-1.65-.01zm-5.02 3.19h3.32v-3.17c-.01-.01-.02-.01-.03-.01-.54 0-1.08 0-1.65-.01H8.35c-.01.03-.02.04-.02.05 0 .51.01 1.03 0 1.58zm28.36-7.99c-.01.03-.02.04-.02.05v3.14h3.32v-3.17c-.02-.01-.03-.01-.04-.01-.53 0-1.07 0-1.64-.01zm-5 0c-.01.03-.02.04-.02.05v3.14h3.32v-3.17c-.02-.01-.03-.01-.04-.01-.53 0-1.07 0-1.64-.01zm-5 0c-.01.03-.02.04-.02.05v3.14h3.32v-3.17c-.02-.01-.03-.01-.04-.01-.54 0-1.07 0-1.64-.01zm-5.02 3.19h3.32v-3.17c-.02-.01-.03-.01-.04-.01-.54 0-1.07 0-1.64-.01h-1.62c-.01.03-.02.04-.02.05v3.14m1.66 4.8h3.33v-3.17c-.02-.01-.03-.01-.04-.01-.54 0-1.08 0-1.65-.01h-1.62c-.01.03-.01.04-.01.05 0 .51 0 1.03-.01 1.58zm18.34 4.8h4.99v-3.17c-.02-.01-.03-.02-.04-.02-.54.01-1.07.01-1.64 0h-3.29c-.01.03-.02.04-.02.05 0 .51.01 1.03 0 1.58zm.02-12.79c-.01.03-.02.04-.02.05 0 .51.01 1.03 0 1.58v1.56h4.99V21c-.05 0-.1-.01-.14-.01h-3.06c-.04 0-.08.01-.15 0zm-3.33 4.8c-.01.03-.02.04-.02.05v3.14c.27.03 8.21.02 8.32-.01v-3.16c-.02-.01-.03-.01-.04-.01-.53 0-1.07 0-1.64-.01zm-21.69 7.98c.27.04 18.21.03 18.32 0v-3.16c-.02-.01-.03-.02-.04-.02-.53.01-1.07.01-1.64 0H16.83c-.05 0-.1.01-.15.01 0 .02-.01.03-.01.03v3.14"/><path fill="#fda7c1" d="M8.33 30.6c.54 0 1.08 0 1.62-.01.01 0 .02.01.04.02v3.16c-.01 0-.01 0-.01.01h-.02c-.06.01-.12.01-.18.01H3.35c-.01-.52-.02-1.05 0-1.59 1.65-.02 3.28-.02 4.91-.02h.03c0-.01.01-.01.01-.01.01 0 .01-.01.03-.03z"/><path d="M9.95 30.59c.01 0 .02.01.04.02v3.16c-.01 0-.01 0-.01.01h-.02c-.06.01-.12.01-.18.01H3.35c-.01-.52-.02-1.05 0-1.59 1.65-.02 3.28-.02 4.91-.02h.03c0-.01.01-.01.01-.01.01 0 .01-.01.03-.03V30.6c.54 0 1.08 0 1.62-.01"/><path fill="#fda7c1" d="M8.33 21h1.62c.01 0 .02 0 .04.01v3.16c-.01 0-.01.01-.01.01-.01 0-.01.01-.02.01H3.35c-.01-.52-.02-1.05 0-1.59 1.65-.01 3.28-.01 4.91-.02h.03l.01-.01c.01 0 .01-.01.03-.03z"/><path d="M9.95 21c.01 0 .02 0 .04.01v3.16c-.01 0-.01.01-.01.01-.01 0-.01.01-.02.01H3.35c-.01-.52-.02-1.05 0-1.59 1.65-.01 3.28-.01 4.91-.02h.03l.01-.01c.01 0 .01-.01.03-.03V21z"/><path fill="#ffa8c2" d="M16.66 16.19c.01.07.01.13.01.19-.01.94-.01 1.88-.01 2.82v.18h-3.33c0-.52 0-1.04.02-1.58.2-.01.38-.01.57-.01h.53c.18 0 .36.01.55-.01V16.2c.35 0 .71-.01 1.06-.01z"/><path d="M16.67 16.38c-.01.94-.01 1.88-.01 2.82v.18h-3.33c0-.52 0-1.04.02-1.58.2-.01.38-.01.57-.01h.53c.18 0 .36.01.55-.01V16.2c.35 0 .71-.01 1.06-.01h.6c.01.07.01.13.01.19"/><path fill="#ffa8c2" d="M26.66 16.19c.01.07.01.13.01.19v3h-3.34c0-.52 0-1.04.02-1.58.2-.01.39-.01.57-.01h.53c.18 0 .36.01.55-.01V16.2c.36 0 .71-.01 1.06-.01z"/><path d="M26.67 16.38v3h-3.34c0-.52 0-1.04.02-1.58.2-.01.39-.01.57-.01h.53c.18 0 .36.01.55-.01V16.2c.36 0 .71-.01 1.06-.01h.6c.01.07.01.13.01.19"/><path fill="#ffa8c2" d="M11.65 16.19c.02.07.01.13.01.19v3H8.33c0-.52 0-1.04.02-1.58.2-.01.38-.01.57-.01h.53c.18 0 .36.01.55-.01V16.2c.35 0 .71-.01 1.06-.01z"/><path d="M11.66 16.38v3H8.33c0-.52 0-1.04.02-1.58.2-.01.38-.01.57-.01h.53c.18 0 .36.01.55-.01V16.2c.35 0 .71-.01 1.06-.01h.59c.02.07.01.13.01.19"/><path fill="#ffc4da" d="M8.32 30.6c.01.52.01 1.04.01 1.54-.02.02-.02.03-.03.03 0 0-.01 0-.01.01h-.03c-1.63 0-3.26 0-4.91.01-.02-.53-.02-1.05-.02-1.58 1.66-.02 3.32-.02 4.99-.01"/><path d="M8.33 32.14c-.02.02-.02.03-.03.03 0 0-.01 0-.01.01h-.03c-1.63 0-3.26 0-4.91.01-.02-.53-.02-1.05-.02-1.58 1.66-.02 3.32-.02 4.99-.01.01.52.01 1.04.01 1.54"/><path fill="#ffa8c2" d="M6.65 16.19c.02.07.01.13.01.19v3.01H3.35c-.01-.52-.02-1.05 0-1.59.2-.01.38-.01.56-.01h.54c.18 0 .36.01.55-.01V16.2c.35 0 .7-.01 1.06-.01z"/><path d="M6.66 16.38v3.01H3.35c-.01-.52-.02-1.05 0-1.59.2-.01.38-.01.56-.01h.54c.18 0 .36.01.55-.01V16.2c.35 0 .7-.01 1.06-.01h.59c.02.07.01.13.01.19"/><path fill="#ffa8c2" d="M41.66 16.19c.01.07.01.13.01.19v3h-3.33c0-.52 0-1.04.02-1.58.2-.01.38-.01.56-.01h.53c.18 0 .36.01.55-.01V16.2c.36 0 .71-.01 1.07-.01z"/><path d="M41.67 16.38v3h-3.33c0-.52 0-1.04.02-1.58.2-.01.38-.01.56-.01h.53c.18 0 .36.01.55-.01V16.2c.36 0 .71-.01 1.07-.01h.59c.01.07.01.13.01.19"/><path fill="#ffa8c2" d="M36.66 16.19c.01.07.01.13.01.19v3h-3.33c0-.52 0-1.04.01-1.58.21-.01.39-.01.57-.01h.53c.18 0 .36.01.55-.01V16.2c.36 0 .71-.01 1.06-.01z"/><path d="M36.67 16.38v3h-3.33c0-.52 0-1.04.01-1.58.21-.01.39-.01.57-.01h.53c.18 0 .36.01.55-.01V16.2c.36 0 .71-.01 1.06-.01h.6c.01.07.01.13.01.19"/><path fill="#ffa8c2" d="M31.66 16.19c.01.07.01.13.01.19v3h-3.34c0-.52 0-1.04.02-1.58.2-.01.39-.01.57-.01h.53c.18 0 .36.01.55-.01V16.2c.36 0 .71-.01 1.06-.01z"/><path d="M31.67 16.38v3h-3.34c0-.52 0-1.04.02-1.58.2-.01.39-.01.57-.01h.53c.18 0 .36.01.55-.01V16.2c.36 0 .71-.01 1.06-.01h.6c.01.07.01.13.01.19"/><path fill="#ffa8c2" d="M46.66 16.19c.02.07.01.13.01.19v3h-3.33c0-.52 0-1.04.02-1.58.2-.01.38-.01.56-.01h.53c.18 0 .36.01.56-.01V16.2c.35 0 .7-.01 1.06-.01z"/><path d="M46.67 16.38v3h-3.33c0-.52 0-1.04.02-1.58.2-.01.38-.01.56-.01h.53c.18 0 .36.01.56-.01V16.2c.35 0 .7-.01 1.06-.01h.59c.02.07.01.13.01.19"/><path fill="#ffc4da" d="M8.32 21c.01.52.01 1.04.01 1.54-.02.02-.02.03-.03.03l-.01.01h-.03c-1.63.01-3.26.01-4.91.01-.02-.52-.02-1.05-.02-1.58 1.66-.02 3.32-.02 4.99-.01"/><path d="M8.33 22.54c-.02.02-.02.03-.03.03l-.01.01h-.03c-1.63.01-3.26.01-4.91.01-.02-.52-.02-1.05-.02-1.58 1.66-.02 3.32-.02 4.99-.01.01.52.01 1.04.01 1.54"/><path fill="#ffa8c2" d="M21.66 16.19c.01.07.01.13.01.19v3h-3.34c0-.52 0-1.04.02-1.58.2-.01.39-.01.57-.01h.53c.18 0 .36.01.55-.01V16.2c.35 0 .71-.01 1.06-.01z"/><path d="M21.67 16.38v3h-3.34c0-.52 0-1.04.02-1.58.2-.01.39-.01.57-.01h.53c.18 0 .36.01.55-.01V16.2c.35 0 .71-.01 1.06-.01h.6c.01.07.01.13.01.19"/><path fill="#ffa8c2" d="M6.66 27.39v1.6H3.35c-.01-.52-.02-1.05 0-1.59 1.11-.01 2.21-.01 3.31-.01"/><path d="M6.66 28.99H3.35c-.01-.52-.02-1.05 0-1.59 1.11-.01 2.21-.01 3.31-.01z"/><path fill="#ffc4da" d="M6.66 27.37c-1.1.02-2.2.02-3.31.02-.02-.53-.02-1.05-.02-1.58 1.1-.02 2.21-.02 3.3-.02.01.01.01.02.02.02l.01.01z"/><path d="M3.35 27.39c-.02-.53-.02-1.05-.02-1.58 1.1-.02 2.21-.02 3.3-.02.01.01.01.02.02.02l.01.01v1.55c-1.1.02-2.2.02-3.31.02"/><path fill="#ffc4da" d="M39.99 16.2c.01.52.01 1.04.01 1.58-.19.02-.37.01-.55.01h-1.09c-.02-.41-.02-.82-.02-1.23 0-.11 0-.22-.01-.35.55-.01 1.1-.01 1.66-.01"/><path d="M40 17.78c-.19.02-.37.01-.55.01h-1.09c-.02-.41-.02-.82-.02-1.23 0-.11 0-.22-.01-.35.55-.01 1.1-.01 1.66-.01.01.52.01 1.04.01 1.58"/><path fill="#ffc4da" d="M14.98 16.2c.02.52.02 1.04.02 1.58-.19.02-.37.01-.55.01h-1.1c-.01-.41-.02-.82-.02-1.23v-.35c.55-.01 1.09-.01 1.65-.01"/><path d="M15 17.78c-.19.02-.37.01-.55.01h-1.1c-.01-.41-.02-.82-.02-1.23v-.35c.55-.01 1.09-.01 1.65-.01.02.52.02 1.04.02 1.58"/><path fill="#ffc4da" d="M34.99 16.2c.01.52.01 1.04.01 1.58-.19.02-.37.01-.55.01h-1.09c-.02-.41-.02-.82-.02-1.23-.01-.11-.01-.22-.01-.35.55-.01 1.1-.01 1.66-.01"/><path d="M35 17.78c-.19.02-.37.01-.55.01h-1.09c-.02-.41-.02-.82-.02-1.23-.01-.11-.01-.22-.01-.35.55-.01 1.1-.01 1.66-.01.01.52.01 1.04.01 1.58"/><path fill="#ffc4da" d="M9.98 16.2c.02.52.02 1.04.02 1.58-.19.02-.37.01-.55.01h-1.1c-.02-.41-.02-.82-.02-1.23v-.35c.54-.01 1.09-.01 1.65-.01"/><path d="M10 17.78c-.19.02-.37.01-.55.01h-1.1c-.02-.41-.02-.82-.02-1.23v-.35c.54-.01 1.09-.01 1.65-.01.02.52.02 1.04.02 1.58"/><path fill="#ffc4da" d="M29.99 16.2c.01.52.01 1.04.01 1.58-.19.02-.37.01-.55.01h-1.09c-.02-.41-.02-.82-.03-1.23v-.35c.55-.01 1.1-.01 1.66-.01"/><path d="M30 17.78c-.19.02-.37.01-.55.01h-1.09c-.02-.41-.02-.82-.03-1.23v-.35c.55-.01 1.1-.01 1.66-.01.01.52.01 1.04.01 1.58"/><path fill="#ffc4da" d="M4.98 16.2c.02.52.02 1.04.02 1.58-.19.02-.37.01-.55.01h-1.1c-.01-.52-.01-1.04-.01-1.59.18-.02.36 0 .54-.01h.54c.18 0 .36 0 .56.01"/><path d="M5 17.78c-.19.02-.37.01-.55.01h-1.1c-.01-.52-.01-1.04-.01-1.59.18-.02.36 0 .54-.01h.54c.18 0 .36 0 .56.01.02.52.02 1.04.02 1.58"/><path fill="#ffc4da" d="M24.99 16.2c.01.52.01 1.04.01 1.58-.19.02-.37.01-.55.01h-1.09c-.02-.41-.02-.82-.03-1.23v-.35c.55-.01 1.09-.01 1.66-.01"/><path d="M25 17.78c-.19.02-.37.01-.55.01h-1.09c-.02-.41-.02-.82-.03-1.23v-.35c.55-.01 1.09-.01 1.66-.01.01.52.01 1.04.01 1.58"/><path fill="#ffc4da" d="M44.99 16.2c.02.52.02 1.04.02 1.58-.2.02-.38.01-.56.01h-1.09c-.02-.41-.02-.82-.02-1.23v-.35c.54-.01 1.09-.01 1.65-.01"/><path d="M45.01 17.78c-.2.02-.38.01-.56.01h-1.09c-.02-.41-.02-.82-.02-1.23v-.35c.54-.01 1.09-.01 1.65-.01.02.52.02 1.04.02 1.58"/><path fill="#ffc4da" d="M19.99 16.2c.01.52.01 1.04.01 1.58-.19.02-.37.01-.55.01h-1.1c-.01-.41-.02-.82-.02-1.23v-.35c.55-.01 1.09-.01 1.66-.01"/><path d="M20 17.78c-.19.02-.37.01-.55.01h-1.1c-.01-.41-.02-.82-.02-1.23v-.35c.55-.01 1.09-.01 1.66-.01.01.52.01 1.04.01 1.58"/><path fill="#fea8c1" d="M33.34 30.6c.54 0 1.08 0 1.61-.01.01 0 .02.01.04.02v3.16c-.11.03-18.05.04-18.32 0 0-.51 0-1.03.01-1.57 5.54-.02 11.06-.02 16.58-.02h.03l.01-.01c.01 0 .01-.01.04-.04z"/><path d="M34.95 30.59c.01 0 .02.01.04.02v3.16c-.11.03-18.05.04-18.32 0 0-.51 0-1.03.01-1.57 5.54-.02 11.06-.02 16.58-.02h.03l.01-.01c.01 0 .01-.01.04-.04V30.6c.54 0 1.08 0 1.61-.01"/><path fill="#ffc4da" d="M33.32 30.6c.02.52.02 1.04.02 1.53-.03.03-.03.04-.04.04l-.01.01h-.03c-5.52 0-11.04.01-16.57.01-.02-.52-.02-1.04-.02-1.55 0-.01.01-.02.01-.04.05 0 .1-.01.15-.01h16.45c.01 0 .02 0 .04.01"/><path d="M33.34 32.13c-.03.03-.03.04-.04.04l-.01.01h-.03c-5.52 0-11.04.01-16.57.01-.02-.52-.02-1.04-.02-1.55 0-.01.01-.02.01-.04.05 0 .1-.01.15-.01h16.45c.01 0 .02 0 .04.01.02.52.02 1.04.02 1.53"/><path fill="#fea7c1" d="M45.01 25.8h1.61c.01 0 .02 0 .04.01v3.16c-.11.03-8.05.04-8.32.01 0-.52 0-1.04.02-1.58 2.2-.01 4.38-.01 6.57-.02h.03s.01 0 .01-.01c.01 0 .01-.01.04-.03z"/><path d="M46.62 25.8c.01 0 .02 0 .04.01v3.16c-.11.03-8.05.04-8.32.01 0-.52 0-1.04.02-1.58 2.2-.01 4.38-.01 6.57-.02h.03s.01 0 .01-.01c.01 0 .01-.01.04-.03V25.8z"/><path fill="#fea7c1" d="M43.34 21c.04 0 .08-.01.12-.01h3.06c.04 0 .09.01.14.01v3.18h-4.99c0-.52 0-1.04.02-1.58.29-.01.55-.01.82-.01s.54 0 .83-.01z"/><path d="M43.46 20.99h3.06c.04 0 .09.01.14.01v3.18h-4.99c0-.52 0-1.04.02-1.58.29-.01.55-.01.82-.01s.54 0 .83-.01V21c.04 0 .08-.01.12-.01"/><path fill="#fda7c1" d="M45.01 30.6c.54 0 1.07 0 1.61-.01.01 0 .02.01.04.02v3.17h-4.99c0-.52 0-1.04.02-1.58 1.09-.02 2.16-.02 3.24-.02h.03l.01-.01c.01 0 .01-.01.04-.03z"/><path d="M46.62 30.59c.01 0 .02.01.04.02v3.17h-4.99c0-.52 0-1.04.02-1.58 1.09-.02 2.16-.02 3.24-.02h.03l.01-.01c.01 0 .01-.01.04-.03V30.6c.54 0 1.07 0 1.61-.01"/><path fill="#ffc4da" d="M44.99 25.8c.02.52.02 1.04.02 1.54-.03.02-.03.03-.04.03l-.01.01h-.04c-2.18.01-4.36.01-6.56.01-.02-.52-.02-1.04-.02-1.55 0-.01.01-.02.02-.05 2.2 0 4.41 0 6.63.01"/><path d="M45.01 27.34c-.03.02-.03.03-.04.03l-.01.01h-.04c-2.18.01-4.36.01-6.56.01-.02-.52-.02-1.04-.02-1.55 0-.01.01-.02.02-.05 2.2 0 4.41 0 6.63.01.02.52.02 1.04.02 1.54"/><path fill="#fda7c1" d="M25 25.8h1.62c.01 0 .02 0 .04.01v3.17h-3.33c0-.52 0-1.04.02-1.58.29-.01.55-.01.82-.01s.54 0 .83-.01z"/><path d="M26.62 25.8c.01 0 .02 0 .04.01v3.17h-3.33c0-.52 0-1.04.02-1.58.29-.01.55-.01.82-.01s.54 0 .83-.01V25.8z"/><path fill="#fda7c1" d="M23.34 21h1.61c.01 0 .02 0 .04.01v3.17h-3.32c0-.52 0-1.04.02-1.58.28-.01.55-.01.81-.01.27 0 .54 0 .84-.01z"/><path d="M24.95 21c.01 0 .02 0 .04.01v3.17h-3.32c0-.52 0-1.04.02-1.58.28-.01.55-.01.81-.01.27 0 .54 0 .84-.01V21z"/><path fill="#fda7c1" d="M28.34 21h1.61c.01 0 .02 0 .04.01v3.17h-3.32c0-.52 0-1.04.02-1.58.28-.01.55-.01.82-.01s.54 0 .83-.01z"/><path d="M29.95 21c.01 0 .02 0 .04.01v3.17h-3.32c0-.52 0-1.04.02-1.58.28-.01.55-.01.82-.01s.54 0 .83-.01V21z"/><path fill="#fda7c1" d="M33.34 21h1.61c.01 0 .02 0 .04.01v3.17h-3.32c0-.52 0-1.04.02-1.58.28-.01.55-.01.82-.01s.54 0 .83-.01z"/><path d="M34.95 21c.01 0 .02 0 .04.01v3.17h-3.32c0-.52 0-1.04.02-1.58.28-.01.55-.01.82-.01s.54 0 .83-.01V21z"/><path fill="#fda7c1" d="M38.34 21h1.61c.01 0 .02 0 .04.01v3.17h-3.32c0-.52 0-1.04.02-1.58.28-.01.55-.01.82-.01s.54 0 .83-.01z"/><path d="M39.95 21c.01 0 .02 0 .04.01v3.17h-3.32c0-.52 0-1.04.02-1.58.28-.01.55-.01.82-.01s.54 0 .83-.01V21z"/><path fill="#fda7c1" d="M10 25.8h1.62c.01 0 .01 0 .03.01v3.17H8.33c0-.52 0-1.04.02-1.58.28-.01.55-.01.82-.01s.54 0 .83-.01z"/><path d="M11.62 25.8c.01 0 .01 0 .03.01v3.17H8.33c0-.52 0-1.04.02-1.58.28-.01.55-.01.82-.01s.54 0 .83-.01V25.8z"/><path fill="#fda7c1" d="M15 25.8h1.62c.01 0 .02 0 .04.01v3.17h-3.33c0-.52 0-1.04.02-1.58.29-.01.55-.01.82-.01s.54 0 .83-.01z"/><path d="M16.62 25.8c.01 0 .02 0 .04.01v3.17h-3.33c0-.52 0-1.04.02-1.58.29-.01.55-.01.82-.01s.54 0 .83-.01V25.8z"/><path fill="#fda7c1" d="M20 25.8h1.62c.01 0 .02 0 .04.01v3.17h-3.33c0-.52 0-1.04.02-1.58.29-.01.55-.01.82-.01s.54 0 .83-.01z"/><path d="M21.62 25.8c.01 0 .02 0 .04.01v3.17h-3.33c0-.52 0-1.04.02-1.58.29-.01.55-.01.82-.01s.54 0 .83-.01V25.8z"/><path fill="#fda7c1" d="M30.01 25.8h1.61c.01 0 .02 0 .04.01v3.17h-3.33c0-.52 0-1.04.02-1.58.29-.01.56-.01.82-.01.27 0 .54 0 .84-.01z"/><path d="M31.62 25.8c.01 0 .02 0 .04.01v3.17h-3.33c0-.52 0-1.04.02-1.58.29-.01.56-.01.82-.01.27 0 .54 0 .84-.01V25.8z"/><path fill="#fda7c1" d="M35.01 25.8h1.61c.01 0 .02 0 .04.01v3.17h-3.32c0-.52 0-1.04.01-1.58.29-.01.56-.01.82-.01.27 0 .54 0 .84-.01z"/><path d="M36.62 25.8c.01 0 .02 0 .04.01v3.17h-3.32c0-.52 0-1.04.01-1.58.29-.01.56-.01.82-.01.27 0 .54 0 .84-.01V25.8z"/><path fill="#fda7c1" d="M13.34 30.6c.53 0 1.07 0 1.61-.01.01 0 .02.01.04.02v3.17h-3.33c0-.52 0-1.04.02-1.58.29-.01.56-.01.82-.01.27-.01.54 0 .84-.01z"/><path d="M14.95 30.59c.01 0 .02.01.04.02v3.17h-3.33c0-.52 0-1.04.02-1.58.29-.01.56-.01.82-.01.27-.01.54 0 .84-.01V30.6c.53 0 1.07 0 1.61-.01"/><path fill="#fda7c1" d="M38.34 30.6c.54 0 1.08 0 1.61-.01.01 0 .02.01.04.02v3.17h-3.32c0-.52 0-1.04.02-1.58.28-.01.55-.01.82-.01.27-.01.54 0 .83-.01z"/><path d="M39.95 30.59c.01 0 .02.01.04.02v3.17h-3.32c0-.52 0-1.04.02-1.58.28-.01.55-.01.82-.01.27-.01.54 0 .83-.01V30.6c.54 0 1.08 0 1.61-.01"/><path fill="#fda7c1" d="M18.34 21h1.61c.01 0 .02 0 .04.01v3.17h-3.32c0-.52 0-1.04.01-1.58.29-.01.56-.01.82-.01.27 0 .54 0 .84-.01z"/><path d="M19.95 21c.01 0 .02 0 .04.01v3.17h-3.32c0-.52 0-1.04.01-1.58.29-.01.56-.01.82-.01.27 0 .54 0 .84-.01V21z"/><path fill="#fda7c1" d="M13.34 21h1.61c.01 0 .02 0 .04.01v3.17h-3.33c0-.52 0-1.04.02-1.58.29-.01.56-.01.82-.01.27 0 .54 0 .84-.01z"/><path d="M14.95 21c.01 0 .02 0 .04.01v3.17h-3.33c0-.52 0-1.04.02-1.58.29-.01.56-.01.82-.01.27 0 .54 0 .84-.01V21z"/><path fill="#ffc4da" d="M44.99 30.6c.02.52.02 1.04.02 1.54-.03.02-.03.03-.04.03l-.01.01h-.03c-1.08 0-2.15 0-3.24.01-.01-.52-.02-1.04-.02-1.55 0-.01.01-.02.02-.05 1.09 0 2.19 0 3.3.01"/><path d="M45.01 32.14c-.03.02-.03.03-.04.03l-.01.01h-.03c-1.08 0-2.15 0-3.24.01-.01-.52-.02-1.04-.02-1.55 0-.01.01-.02.02-.05 1.09 0 2.19 0 3.3.01.02.52.02 1.04.02 1.54"/><path fill="#ffc4da" d="M13.32 30.6c.02.52.02 1.04.02 1.58-.3.01-.57.01-.84.01h-.81c-.02-.52-.02-1.04-.02-1.55 0-.01 0-.02.01-.05.54 0 1.08 0 1.64.01"/><path d="M13.34 32.18c-.3.01-.57.01-.84.01h-.81c-.02-.52-.02-1.04-.02-1.55 0-.01 0-.02.01-.05.54 0 1.08 0 1.64.01.02.52.02 1.04.02 1.58"/><path fill="#ffc4da" d="M38.33 30.6c.01.52.01 1.04.01 1.58-.29.01-.56.01-.83.01h-.82c-.02-.52-.02-1.04-.02-1.55 0-.01.01-.02.02-.05.54 0 1.08 0 1.64.01"/><path d="M38.34 32.18c-.29.01-.56.01-.83.01h-.82c-.02-.52-.02-1.04-.02-1.55 0-.01.01-.02.02-.05.54 0 1.08 0 1.64.01.01.52.01 1.04.01 1.58"/><path fill="#ffc4da" d="M23.32 21c.02.52.02 1.04.02 1.58-.29.01-.57.01-.84.01h-.81c-.02-.52-.02-1.04-.02-1.55 0-.01.01-.02.02-.05.53 0 1.08 0 1.63.01"/><path d="M23.34 22.58c-.29.01-.57.01-.84.01h-.81c-.02-.52-.02-1.04-.02-1.55 0-.01.01-.02.02-.05.53 0 1.08 0 1.63.01.02.52.02 1.04.02 1.58"/><path fill="#ffc4da" d="M34.99 25.8c.02.52.02 1.04.02 1.58-.3.01-.57.01-.84.01h-.81c-.02-.52-.02-1.04-.02-1.55 0-.01.01-.02.02-.05.53 0 1.07 0 1.63.01"/><path d="M35.01 27.38c-.3.01-.57.01-.84.01h-.81c-.02-.52-.02-1.04-.02-1.55 0-.01.01-.02.02-.05.53 0 1.07 0 1.63.01.02.52.02 1.04.02 1.58"/><path fill="#ffc4da" d="M29.99 25.8c.02.52.02 1.04.02 1.58-.3.01-.57.01-.84.01h-.81c-.02-.52-.02-1.04-.02-1.55 0-.01 0-.02.01-.05.54 0 1.08 0 1.64.01"/><path d="M30.01 27.38c-.3.01-.57.01-.84.01h-.81c-.02-.52-.02-1.04-.02-1.55 0-.01 0-.02.01-.05.54 0 1.08 0 1.64.01.02.52.02 1.04.02 1.58"/><path fill="#ffc4da" d="M24.99 25.8c.01.52.01 1.04.01 1.58-.29.01-.56.01-.83.01h-.81c-.02-.52-.02-1.04-.02-1.55 0-.01 0-.02.01-.05.54 0 1.08 0 1.64.01"/><path d="M25 27.38c-.29.01-.56.01-.83.01h-.81c-.02-.52-.02-1.04-.02-1.55 0-.01 0-.02.01-.05.54 0 1.08 0 1.64.01.01.52.01 1.04.01 1.58"/><path fill="#ffc4da" d="M19.99 25.8c.01.52.01 1.04.01 1.58-.29.01-.56.01-.83.01h-.82c-.01-.52-.01-1.04-.01-1.55 0-.01 0-.02.01-.05.54 0 1.08 0 1.64.01"/><path d="M20 27.38c-.29.01-.56.01-.83.01h-.82c-.01-.52-.01-1.04-.01-1.55 0-.01 0-.02.01-.05.54 0 1.08 0 1.64.01.01.52.01 1.04.01 1.58"/><path fill="#ffc4da" d="M14.99 25.8c.01.52.01 1.04.01 1.58-.29.01-.56.01-.83.01h-.82c-.01-.52-.02-1.04-.02-1.55 0-.01.01-.02.02-.05.54 0 1.08 0 1.64.01"/><path d="M15 27.38c-.29.01-.56.01-.83.01h-.82c-.01-.52-.02-1.04-.02-1.55 0-.01.01-.02.02-.05.54 0 1.08 0 1.64.01.01.52.01 1.04.01 1.58"/><path fill="#ffc4da" d="M9.99 25.8c.01.52.01 1.04.01 1.58-.29.01-.56.01-.83.01h-.82c-.01-.52-.02-1.04-.02-1.55 0-.01.01-.02.02-.05.54 0 1.08 0 1.64.01"/><path d="M10 27.38c-.29.01-.56.01-.83.01h-.82c-.01-.52-.02-1.04-.02-1.55 0-.01.01-.02.02-.05.54 0 1.08 0 1.64.01.01.52.01 1.04.01 1.58"/><path fill="#ffc4da" d="M43.33 21c.01.52.01 1.04.01 1.58-.29.01-.56.01-.83.01h-.82c-.01-.52-.02-1.04-.02-1.55 0-.01.01-.02.02-.05.54 0 1.08 0 1.64.01"/><path d="M43.34 22.58c-.29.01-.56.01-.83.01h-.82c-.01-.52-.02-1.04-.02-1.55 0-.01.01-.02.02-.05.54 0 1.08 0 1.64.01.01.52.01 1.04.01 1.58"/><path fill="#ffc4da" d="M13.32 21c.02.52.02 1.04.02 1.58-.3.01-.57.01-.84.01h-.81c-.02-.52-.02-1.04-.02-1.55 0-.01 0-.02.01-.05.54 0 1.08 0 1.64.01"/><path d="M13.34 22.58c-.3.01-.57.01-.84.01h-.81c-.02-.52-.02-1.04-.02-1.55 0-.01 0-.02.01-.05.54 0 1.08 0 1.64.01.02.52.02 1.04.02 1.58"/><path fill="#ffc4da" d="M38.33 21c.01.52.01 1.04.01 1.58-.29.01-.56.01-.83.01h-.82c-.02-.52-.02-1.04-.02-1.55 0-.01.01-.02.02-.05.54 0 1.08 0 1.64.01"/><path d="M38.34 22.58c-.29.01-.56.01-.83.01h-.82c-.02-.52-.02-1.04-.02-1.55 0-.01.01-.02.02-.05.54 0 1.08 0 1.64.01.01.52.01 1.04.01 1.58"/><path fill="#ffc4da" d="M33.32 21c.02.52.02 1.04.02 1.58-.29.01-.56.01-.83.01h-.82c-.02-.52-.02-1.04-.02-1.55 0-.01.01-.02.02-.05.53 0 1.08 0 1.63.01"/><path d="M33.34 22.58c-.29.01-.56.01-.83.01h-.82c-.02-.52-.02-1.04-.02-1.55 0-.01.01-.02.02-.05.53 0 1.08 0 1.63.01.02.52.02 1.04.02 1.58"/><path fill="#ffc4da" d="M18.32 21c.02.52.02 1.04.02 1.58-.3.01-.57.01-.84.01h-.81c-.02-.52-.02-1.04-.02-1.55 0-.01.01-.02.02-.05.53 0 1.07 0 1.63.01"/><path d="M18.34 22.58c-.3.01-.57.01-.84.01h-.81c-.02-.52-.02-1.04-.02-1.55 0-.01.01-.02.02-.05.53 0 1.07 0 1.63.01.02.52.02 1.04.02 1.58"/><path fill="#ffc4da" d="M28.32 21c.02.52.02 1.04.02 1.58-.29.01-.56.01-.83.01h-.82c-.02-.52-.02-1.04-.02-1.55 0-.01.01-.02.02-.05.53 0 1.08 0 1.63.01"/><path d="M28.34 22.58c-.29.01-.56.01-.83.01h-.82c-.02-.52-.02-1.04-.02-1.55 0-.01.01-.02.02-.05.53 0 1.08 0 1.63.01.02.52.02 1.04.02 1.58"/></svg>