<svg xmlns="http://www.w3.org/2000/svg" width="50" height="50" fill="none" viewBox="0 0 50 50"><rect width="50" height="50" fill="#d9d9d9" rx="5"/><path fill="#000" d="M47.484 0H2.516A2.514 2.514 0 0 0 0 2.516v44.968A2.514 2.514 0 0 0 2.516 50h44.968A2.513 2.513 0 0 0 50 47.484V2.516A2.515 2.515 0 0 0 47.484 0M18.938 2.594h3.468a.781.781 0 1 1 0 1.562h-3.468a.781.781 0 1 1 0-1.562m-6.907 0h3.453a.781.781 0 1 1 0 1.562h-3.453a.781.781 0 1 1 0-1.562m-6.922 0h3.454a.781.781 0 1 1 0 1.562H5.108a.781.781 0 1 1 0-1.562m43.329 44.89a.945.945 0 0 1-.954.953H2.516a.945.945 0 0 1-.953-.953V6.734h46.875zM7.03 45.672H42.97a2.58 2.58 0 0 0 2.578-2.578v-31a2.58 2.58 0 0 0-2.578-2.578H7.03a2.58 2.58 0 0 0-2.578 2.578v31a2.58 2.58 0 0 0 2.578 2.578m9.313-24.906h5.203a.783.783 0 0 1 .781.78.794.794 0 0 1-.781.782h-5.203a.794.794 0 0 1-.782-.781.784.784 0 0 1 .782-.781m-5.735-5.594a.774.774 0 0 1 0-1.11.8.8 0 0 1 1.11 0l3.453 3.47a.756.756 0 0 1 0 1.093l-3.453 3.469a.8.8 0 0 1-.563.234.79.79 0 0 1-.547-.234.773.773 0 0 1 0-1.11l2.907-2.906z"/></svg>