<svg xmlns="http://www.w3.org/2000/svg" width="50" height="50" fill="none" viewBox="0 0 50 50"><path fill="#d71b5a" fill-rule="evenodd" d="M2.625 9.554h9.567c1.052 0 1.914.847 1.914 1.884v9.415c0 1.035-.861 1.883-1.914 1.883H2.625c-1.052 0-1.914-.847-1.914-1.883v-9.416c0-1.036.861-1.883 1.914-1.883"/><ellipse cx="3.191" cy="3.143" fill="#eaeaea" rx="3.191" ry="3.143" transform="matrix(.9874 -.15826 .16326 .98658 3.74 13.549)"/><path fill="#fcb13c" fill-rule="evenodd" d="M28.897 34.093H39.93c1.214 0 2.207.977 2.207 2.172v10.86c0 1.194-.993 2.17-2.207 2.17H28.897c-1.214 0-2.207-.976-2.207-2.17v-10.86c0-1.195.993-2.172 2.207-2.172"/><path fill="#ed2224" fill-rule="evenodd" d="M1.522 33.778h21.73v13.67c0 1.018-.844 1.848-1.878 1.848H3.4c-1.035 0-1.879-.83-1.879-1.849zm.582-5.007 17.36-4.578c1-.263 2.033.324 2.301 1.307l.747 2.744-20.99 5.534-.747-2.744c-.267-.983.33-2 1.329-2.263"/><path fill="#ffdc97" fill-rule="evenodd" d="M33.268 8.037c4.72 0 8.547 3.766 8.547 8.41 0 3.188-2.214 5.93-3.978 8.437h-9.103c-1.774-2.52-4.011-5.226-4.011-8.436 0-4.645 3.825-8.411 8.545-8.411"/><path fill="#fff" fill-rule="evenodd" d="m29.77 29.347.799 1.167c.327.478.83.742 1.416.742h2.566c.585 0 1.09-.264 1.416-.742l.798-1.167zm-.647-4.463h8.29c1.5 0 1.5 2.231 0 2.231h-8.29c-1.5 0-1.5-2.231 0-2.231m0 4.463h8.29c1.5 0 1.5-2.232 0-2.232h-8.29c-1.5 0-1.5 2.232 0 2.232"/><path fill="#ffdc97" fill-rule="evenodd" d="m37.528 17.711-6.631 3.768v-7.535z"/><path fill="#010101" fill-rule="evenodd" d="M49.298 16.164h-3.437c-.108 0-.198.03-.252.127a.36.36 0 0 0-.043.173c0 .183.104.3.296.3h3.437c.108 0 .198-.031.252-.127a.36.36 0 0 0 .043-.173c0-.183-.105-.3-.296-.3"/><path fill="#010101" fill-rule="evenodd" d="M2.625 8.857h9.567c1.445 0 2.625 1.161 2.625 2.584v9.415c0 1.422-1.18 2.583-2.625 2.583H2.625C1.18 23.44 0 22.28 0 20.856V11.44c0-1.423 1.18-2.584 2.625-2.584m35.162 9.517-6.534 3.713c-.497.283-1.067-.083-1.067-.636v-7.504c0-.574.66-.895 1.123-.571l6.571 3.734c.565.32.424.97-.093 1.264m-6.179 1.898 4.5-2.558-4.5-2.557zm-2.485 7.547c-.559 0-.559.83 0 .83h8.29c.559 0 .559-.83 0-.83zm9.763-.7c.515-.7.481-1.699-.098-2.353l.166-.232c1.708-2.389 3.572-4.993 3.572-8.083 0-5.032-4.145-9.111-9.258-9.111s-9.258 4.079-9.258 9.11c0 3.198 1.975 5.8 3.758 8.295-.596.65-.638 1.667-.117 2.373-.865 1.173-.136 2.932 1.471 2.932h.272l.584.855a2.39 2.39 0 0 0 2.006 1.054h2.566a2.395 2.395 0 0 0 2.006-1.053l.584-.856h.272c1.61.001 2.338-1.76 1.474-2.932m-3.454 2.932-.054.078a1 1 0 0 1-.356.323q-.203.106-.471.107h-2.566c-.178 0-.338-.037-.471-.107a1 1 0 0 1-.356-.323l-.054-.078zM32.56.688c0-.917 1.417-.917 1.417 0V4.07c0 .917-1.417.917-1.417 0zM17.238 17.16a.703.703 0 0 1-.708-.697c0-.385.317-.697.708-.697h3.438c.39 0 .708.312.708.697a.703.703 0 0 1-.708.697zm4.193-11.358c-.662-.651.344-1.641 1.006-.99l2.43 2.392c.662.65-.345 1.64-1.006.99zm27.867 9.96c.936 0 .936 1.401 0 1.401h-3.437c-.936 0-.936-1.4 0-1.4zM44.1 4.814c.662-.65 1.668.34 1.006.991l-2.43 2.392c-.662.65-1.668-.34-1.007-.99zm-6.687 19.374h.054c.129-.182.226-.32.325-.456 1.583-2.214 3.311-4.629 3.311-7.28 0-4.257-3.507-7.71-7.835-7.71-4.326 0-7.835 3.452-7.835 7.71 0 2.634 1.694 4.992 3.269 7.18l.398.556zm-8.295 1.4h8.3c.553.004.553.831-.005.831h-8.29c-.558 0-.558-.827-.005-.831M15.732 44.621l-5.075 2.883c-.54.306-1.064-.114-1.064-.686v-5.692c0-.574.66-.895 1.123-.571l5.023 2.853a.693.693 0 0 1-.007 1.213m-4.717 1.07 2.954-1.678-2.954-1.679zM2.234 37.77h1.991l2.31-3.289H2.233zm3.716 0 2.309-3.289h4.422l-2.31 3.289zm6.145 0h4.422l2.309-3.289h-4.422zm6.145 0 2.31-3.289h1.99v3.289zm4.3 1.4H2.235v8.28c0 .633.525 1.149 1.167 1.149h17.973c.642 0 1.167-.517 1.167-1.149zM16.623 25.67l3.097 2.59 1.923-.508-.563-2.068a1.17 1.17 0 0 0-1.431-.812zm1.43 3.03-4.27 1.126-3.096-2.59 4.27-1.126zm-5.936 1.565-3.097-2.59-4.27 1.127 3.097 2.59zM6.179 31.83l-4.153 1.095-.563-2.069a1.15 1.15 0 0 1 .825-1.407l.795-.21zm-4.258-3.731c-1.376.363-2.2 1.765-1.832 3.12l.722 2.652v13.58C.811 48.856 1.974 50 3.401 50h17.973c1.427 0 2.59-1.144 2.59-2.549V33.782c0-.387-.319-.7-.712-.7H6.923l15.773-4.16c.38-.1.605-.482.503-.855l-.747-2.744c-.368-1.353-1.795-2.166-3.17-1.803zm30.947 14.098c.39 0 .76.088 1.09.244v-5.486c0-.387.317-.7.71-.7.148 0 .285.044.4.12l3.048 1.732c.34.193.455.621.258.954a.715.715 0 0 1-.97.254l-2.024-1.15v6.505c0 .683-.281 1.301-.736 1.748-.975.96-2.577.96-3.553 0-1.56-1.536-.478-4.22 1.777-4.22m-1.09 2.473c0 1.41 2.18 1.41 2.18 0s-2.18-1.41-2.18 0m-2.881-11.274c-1.607 0-2.918 1.291-2.918 2.872v10.86c0 1.58 1.312 2.871 2.918 2.871H39.93c1.607 0 2.918-1.291 2.918-2.872v-10.86c0-1.58-1.312-2.871-2.918-2.871zm11.034 1.4H28.897c-.821 0-1.495.663-1.495 1.472v10.86c0 .807.674 1.47 1.495 1.47H39.93c.822 0 1.495-.663 1.495-1.47v-10.86c0-.808-.674-1.472-1.495-1.472M10.17 13.431c-1.517-1.492-4.005-1.492-5.52 0a3.81 3.81 0 0 0 0 5.432c1.516 1.493 4.004 1.493 5.52 0a3.814 3.814 0 0 0 0-5.432m-1.007.99a2.52 2.52 0 0 0-3.508 0 2.424 2.424 0 0 0 0 3.453 2.52 2.52 0 0 0 3.508 0 2.424 2.424 0 0 0 0-3.453m3.03-4.164H2.625c-.66 0-1.202.534-1.202 1.184v9.415c0 .649.543 1.183 1.202 1.183h9.567c.66 0 1.202-.534 1.202-1.183V11.44a1.2 1.2 0 0 0-1.202-1.183"/></svg>