<svg xmlns="http://www.w3.org/2000/svg" width="50" height="50" fill="none" viewBox="0 0 50 50"><path fill="#52bedc" d="M41.02 35.25c.74-.05 1.59.09 2.14-.11.52.22 1.19-.15 1.71-.06.36.07.37.33.72.39.9-.71 1.55-1.67 2.36-2.47-.09-.31-.14-.66-.22-.99l-.33-.49h-.34c-.02-.24-.09-.46-.21-.67-.18.03-.37.03-.55 0-.25-.01-.48.07-.61 0-.45-.31-.87-.65-1.26-1.04-.28-.25-1-.89-1.38-.93-.37-.04-.79.21-1.21.33-.42.13-.84.24-1.27.33-.78.11-1.71.07-2.58.11-5.47.19-11.54.58-16.89.65 6.68-3.55 13.49-7.49 20.2-11.11.5-.28 1.14-.72 1.48-.77.49-.08 1.12.1 1.6.16.5.05 1 .15 1.48.28 1.34-.74 2.83-1.32 4.14-2.09a1.7 1.7 0 0 1-.72-.55c.01-.04.01-.08 0-.13.24-.11.47-.22.71-.31-.4-.53-1.14-.84-1.83-1.24-.07-.07-.19-.13-.12-.23-.72-.44-1.42-.92-2.2-1.31-.76.26-1.17.51-1.94.76-.12.06-.32-.14-.49-.16-1.14.68-2.34 1.27-3.58 1.75-.92.39-1.8.84-2.64 1.37-.28.18-.59.33-.88.5l-.77.56c-9.4 4.69-17.06 8.01-26.13 12.14.16.09.3.21.42.35l-3.94 1.41c-1.14.62-3.01 1.31-4.57.82-.48.19-.92.45-1.32.77.45.24.94.48 1.44.72-.07.03-.15.07-.23.11 1.51.68 3.26 1.54 4.85 2.19q.825.39 1.71.66.63.09 1.26 0c1.77-.08 3.44-.18 5.12-.33.97-.09 1.97-.27 2.92-.27 1.56 0 3.11.06 4.68.05 1.58 0 3.19-.2 4.79-.27 3.15-.14 6.38-.3 9.64-.49 1.63-.11 3.26-.28 4.84-.39"/><path fill="#fcee0a" d="m32.89 35.14 1.29-.09h-1.29zm11.62-.47c-.01-.01-.04 0-.05 0 .09.08.18.14.3.18l.16-.13c-.01 0-.01-.05-.02-.05-.01-.01-.04 0-.06 0a.4.4 0 0 0-.16 0v.05c-.01.01-.05 0-.06 0h-.05c-.01 0-.05.01-.06 0 0 0 .01-.04 0-.05m-11.73.44v-.06h-.82c-.01-.01.01-.04 0-.05s-.05 0-.06 0h-.16c0-.01-.01-.05 0-.06 0 0 .04.01.05 0 .04 0 .08.01.11 0h1.16c.04.01.07.01.11 0 .01 0 0-.05 0-.05.01-.01.05 0 .05 0h.06c-.01-.05.01-.11 0-.17v-.05c-.01-.01-.05.01-.06 0s.01-.04 0-.05-.04.01-.05 0v-.06c.01-.01.04.01.05 0h.12c.01.01.04-.01.05 0s-.01.05 0 .06c.01 0 .04-.01.05 0 .04 0 .08-.01.12 0-.01.01 0 .04 0 .05-.01.01-.05 0-.06 0h-.05c-.02.02 0 .09 0 .11v.06c.02.01.09-.02.11 0 0 0-.01.05 0 .05h.16c.1.01.19-.01.28 0h.33c.09 0 .18-.01.27 0h.12s.04-.01.05 0-.01.04 0 .05h1.18c1.59-.09 3.17-.19 4.66-.27v-.05h-.11a.06.06 0 0 0-.06 0c-.01 0 .01.04 0 .05s-.04-.01-.05 0h-.61c-.01-.01.01-.04 0-.05s-.05 0-.05 0c-.06-.01-.12 0-.17 0h-.22c0-.02-.01-.05 0-.06s.04.01.05 0c.01 0 .05.01.06 0 0 0-.01-.05 0-.05.05-.02.11.01.16 0h1.27c0-.01-.01-.05 0-.06h4.36c.69-.64 1.24-1.42 1.94-2.06-.14-.47-.05-1.11-.33-1.53-.18.02-.37.02-.55 0h-.08v.03c-.01.01-.04-.01-.05 0s.01.05 0 .06h-.06q.015-.03 0-.06c0-.01-.04 0-.05 0-.03-.01-.08.01-.11 0-.08.02-.17 0-.25-.03-.46-.31-.88-.66-1.27-1.05-.28-.25-1-.89-1.37-.93s-.8.21-1.22.33q-.615.195-1.26.33c-.79.11-1.72.08-2.59.11-3.09.1-6.37.28-9.6.42v.05c.05.01.11.01.17 0 .03.01.07 0 .11 0 .02.01.03.01.05 0 .01 0 .05.01.06 0 0 0-.01-.04 0-.05h.44c.01 0 .05-.01.05 0 .01.01 0 .04 0 .05h.44c.03.02.1-.01.12 0 .01.02-.01.05 0 .06.03 0 .07-.01.11 0 0 0 .04-.01.05 0s-.01.04 0 .05h.49c.01-.01 0-.04 0-.05.01-.01.05 0 .06 0h.22c.01-.01-.01-.05 0-.06.03-.01.08.01.11 0 0 .02-.01.05 0 .06h.05c.01 0 .05-.01.06 0 .01 0-.01.05 0 .05.01.01.04 0 .05 0 .01.01.05-.01.06 0 0 .01-.01.05 0 .06.03.01.07-.02.11 0h.16c.01-.02-.01-.05 0-.06h.11c.02 0 .1.01.11 0s-.01-.04 0-.05h.33c.01.01-.01.04 0 .05s.05 0 .05 0h.06c.01.01.05-.01.05 0 .01.01-.01.05 0 .06.02.01.05-.01.06 0h.27c.01-.02-.01-.05 0-.06s.05.01.06 0 .04.01.05 0-.01-.05 0-.05c.01-.01.05.01.06 0 0-.01-.01-.05 0-.06.03-.01.07.01.1 0 .06 0 .12.01.17 0 .01.02-.01.05 0 .06s.05-.01.05 0c.02 0 .05-.01.06 0s-.01.04 0 .05c.04.01.07-.01.11 0 .01.01.05 0 .06 0 0 .01-.01.05 0 .06h.32c.01-.01 0-.05 0-.06.01-.01.05.01.06 0s.04.01.05 0-.01-.04 0-.05h.39c.01.01-.01.04 0 .05s.04-.01.05 0c.02.01.05-.01.06 0s-.01.05 0 .06h.44c.01-.02-.01-.05 0-.06s.04.01.05 0c.02-.01.05.01.06 0 0 0-.01-.05 0-.05.05-.02.11.01.16 0h.17c.01.01-.01.04 0 .05s.05-.01.05 0c.01.01 0 .05 0 .06.01.01.05-.01.06 0 .01 0-.01.04 0 .05 0 .01.05 0 .05 0h.17c.01-.01-.01-.04 0-.05s.05 0 .05 0h.06c.02-.01.1.01.11 0 .01-.02-.01-.05 0-.06s.04.01.05 0c.01 0 0-.05 0-.05v-.06h.06c.01.01-.01.05 0 .06h.33c0 .01-.01.04 0 .05s.04-.01.05 0c.02.02.1-.02.11 0 .01.01-.01.04 0 .06h.33c.01-.01.04.01.05 0s-.01-.05 0-.06.05.01.06 0-.01-.04 0-.05c.02.01.09-.02.11 0 .01.01-.01.04 0 .05.05.01.11-.01.16 0 .01.01.05 0 .06 0 .01.01-.01.05 0 .06s.04-.01.05 0c.01 0 0 .04 0 .05.01.01.05 0 .06 0s.04-.01.05 0-.01.05 0 .06.05-.01.05 0h.17c.01-.01-.01-.05 0-.06s.05.01.06 0c0-.01-.01-.05 0-.05.02-.02.09.01.11 0 .01-.02-.01-.05 0-.06.02-.01.09.02.11 0 0-.01-.01-.04 0-.05.01 0 .04-.01.05 0s-.01.05 0 .05c.01.01.04 0 .05 0 .06.01.12-.01.17 0 .02.02.1-.02.11 0 .01.01-.01.05 0 .06s.05-.01.06 0-.01.04 0 .05h.38c.01-.01-.01-.04 0-.05s.05 0 .06 0h.05c.01-.01 0-.05 0-.06.01-.01.05.01.06 0h.22c0-.01-.01-.04 0-.05.01-.02.09.01.11 0 .01.03-.01.08 0 .11 0 .01.05-.01.05 0 .01.01 0 .04 0 .05h.44q.03.015.06 0s-.01-.04 0-.05.04.01.05 0 0-.05 0-.05c.01-.01.05 0 .06 0 .01-.01.04 0 .05 0 .01-.01-.01-.05 0-.06.01.01.05-.01.06 0 0 .01-.01.05 0 .06.01 0 .04-.01.05 0 .01 0-.01.04 0 .05s.05 0 .05 0c.01 0 .05-.01.06 0s-.01.04 0 .05.05-.01.05 0c.01.02-.01.05 0 .06s.05-.01.06 0-.01.04 0 .06c.02.01.09-.02.11 0 0 0-.01.05 0 .05.02.01.1-.02.11 0 0 .01-.01.05 0 .05.01.01.04-.01.05 0s-.01.05 0 .06.04-.01.06 0c.01 0 .04-.01.05 0s-.01.04 0 .05c.02.01.1-.02.11 0 .01.01-.01.04 0 .06h.17v.05h.11c.01 0 .05.01.05 0v-.05c.04-.01.08-.01.11 0 .01 0 0 .04 0 .05.01.01.05-.01.06 0h.11c-.01.01.01.04 0 .05s-.05-.01-.06 0c0 .01.01.06 0 .06h-.66a.2.2 0 0 0-.11 0s.01.05 0 .05c-.01.01-.04-.01-.05 0s.01.05 0 .06q-.03.015-.06 0-.03-.03 0-.06c.02-.01.05.01.06 0-.01-.01.01-.05 0-.05-.02-.01-.09 0-.11 0h-.11c-.01.01.01.04 0 .05s-.05-.01-.06 0 .01.05 0 .06-.04-.01-.05 0h-.55c-.01 0 0 .05 0 .05h-.06c0-.01.01-.04 0-.05 0-.02.01-.05 0-.06 0 0-.04.01-.05 0h-.22c-.01.01.01.05 0 .06h-.05a.06.06 0 0 0-.06 0c-.09.01-.18 0-.27 0h-.22c-.04.01-.08-.02-.12 0 0 0 .01.04 0 .05s-.04-.01-.05 0-.05-.01-.05 0c-.01.01 0 .05 0 .05-.02.01-.05 0-.06 0-.02-.01-.1.02-.11 0-.01-.01.01-.04 0-.05h-.16c-.01-.01.01-.04 0-.05s-.05 0-.06 0c-.05-.01-.11 0-.16 0-.02-.01-.1.01-.11 0-.01-.02 0-.05 0-.06h-.22c-.01.01.01.05 0 .06s-.05-.01-.06 0 .01.04 0 .05-.04-.01-.05 0 0 .05 0 .05c-.01.01-.05 0-.06 0h-.22c-.03 0-.07.01-.11 0-.01 0-.05.01-.05 0-.01 0 0-.05 0-.05-.02-.01-.1.02-.11 0-.01-.01 0-.04 0-.05h-.39c0 .01.01.04 0 .05 0 .01-.04 0-.05 0-.04.01-.08.01-.11 0h-.17c0 .01.01.05 0 .05 0 .01-.05 0-.05 0h-.39c0-.01.01-.04 0-.05 0-.01-.04 0-.05 0-.11-.01-.22 0-.33 0h-.27c-.09 0-.19-.01-.28 0-.01 0-.1-.01-.11 0 0 .01.01.05 0 .05-.02.01-.04.01-.05 0h-.06v-.05c0-.01-.05 0-.05 0h-.44c-.09 0-.19-.01-.28 0h-.11c-.01 0-.05-.01-.05 0v.05c-.04.01-.08.01-.11 0-.01 0 0-.05 0-.05h-.39c-.01 0-.05-.01-.05 0-.01.01 0 .05 0 .05-.04.01-.07.01-.11 0v-.05c-.01-.01-.05 0-.05 0h-.55c-.01 0 0 .05 0 .05-.01.01-.05 0-.06 0a.8.8 0 0 1-.22 0h-.33c-.02.01-.03.01-.05 0-.01 0 0-.04 0-.05-.01-.01-.05.01-.06 0h-.11c0 .01.01.05 0 .05 0 .01-.04 0-.05 0-.04.01-.07.01-.11 0-.05.01-.11 0-.16 0h-.11c-.01.02.01.05 0 .06h-1.88c-.05.01-.11-.02-.16 0-.01 0 0 .05 0 .05-.01.01-.05 0-.06 0h-.16c-.01 0-.04.01-.05 0-.01 0 0-.05 0-.05-.01-.01-.05.01-.06 0s.01-.04 0-.06h-.33s.01.06 0 .06h-.11c-.07-.01-.14.01-.22 0-.01 0-.1.01-.1 0-.01-.01 0-.04 0-.06h-.17c-.01.02.01.05 0 .06h-.11c-.02.02.01.08 0 .11h-.17c-.01-.02.02-.1 0-.11 0-.01-.04 0-.05 0a.2.2 0 0 0-.11 0h-.39c0-.01.01-.05 0-.06h-.55c0 .02.01.05 0 .06h-.05c-.04-.01-.08.01-.11 0h-.06s.01-.06 0-.06h-.55s.01.06 0 .06h-.27c-.01-.01.01-.04 0-.06h-.33c-.01.01-.04 0-.05 0-.01.01 0 .06 0 .06-.03.01-.08 0-.11 0-.07.01-.15-.01-.22 0v-.22c-.01-.01 0-.05 0-.05-.01-.01-.05 0-.06 0-.01-.01.01-.05 0-.06s-.04.01-.05 0h-.11c-.01.01.01.05 0 .06-.01 0-.05-.01-.05 0-.01 0 0 .04 0 .05-.01.04 0 .07 0 .11-.01.03.01.08 0 .11-.01 0-.05-.01-.06 0s.01.04 0 .05h-.11c0 .01.01.05 0 .06-.01.02-.09-.01-.11 0-.01-.02.02-.1 0-.11-.01-.01-.04 0-.05 0-.05-.02-.12.01-.17 0h-.49v-.28c-.01-.01 0-.05 0-.05-.01-.01-.05.01-.06 0s.01-.05 0-.06-.04.01-.05 0h-.11c-.01.02 0 .05 0 .06-.01 0-.06-.01-.06 0-.01.03.01.08 0 .11-.01.01-.04-.01-.05 0s0 .04 0 .05c-.01.04 0 .08 0 .11-.02.01-.1-.02-.12 0 0 .01.01.04 0 .06-.07-.01-.14.01-.22 0-.01-.01-.1.01-.1 0-.01-.02 0-.05 0-.06h-.11c-.04.01-.08-.01-.11 0h-.06c-.01.01.01.05 0 .06h-.11c0-.02.01-.05 0-.06h-.16c-.01.01 0 .05 0 .06-.01 0-.05-.01-.06 0v.1c0 .01-.05 0-.05 0-.02-.01.02-.09 0-.11-.01-.01-.05.01-.06 0s.01-.04 0-.05c0-.01-.04 0-.05 0a.2.2 0 0 0-.11 0h-.28c0 .01.01.04 0 .05s-.03.01-.05 0v-.05c-.05-.01-.11 0-.17 0h-.16c0 .01-.01.04 0 .05-.01-.01-.05.01-.06 0 0 0 .01-.04 0-.05 0-.04.01-.08 0-.11 0-.01.01-.05 0-.05 0-.01-.04.01-.05 0-.01-.02.01-.05 0-.06h-.28c0 .01.01.05 0 .06 0 .01-.04-.01-.05 0-.01 0-.04-.01-.05 0s.01.04 0 .05-.05-.01-.06 0v.11h-.11v.05c-.01 0-.05.01-.05 0-.01-.01 0-.05 0-.05-.02-.01-.05 0-.06 0-.03-.01-.07 0-.11 0s-.08-.01-.11 0c-.01 0-.05-.01-.05 0-.01.01 0 .04 0 .05h-.22c-.02-.05.01-.11 0-.16 0-.01-.06 0-.06 0v-.11h-.49c-.02.02.01.1 0 .11s-.06 0-.06 0c0 .02.02.1 0 .11-.01.01-.09 0-.11 0h-.05c-.01 0 .01.05 0 .06-.01 0-.05-.01-.06 0v.05c0 .01.01.05 0 .05-.01.01-.03.01-.05 0-.01 0 0-.04 0-.05-.01-.04.01-.08 0-.11h-.77c-.01.01.01.04 0 .05s-.05 0-.05 0h-.06c.01-.01-.01-.04 0-.05s.05.01.06 0c0-.01-.01-.04 0-.06v-.1c-.01-.01 0-.05 0-.06-.01-.01-.05.01-.06 0s.01-.04 0-.05-.04 0-.05 0h-.17c-.01.05.01.11 0 .16 0 .01.01.05 0 .06s-.05-.01-.05 0c-.01.01 0 .04 0 .05-.02.01-.05-.01-.06 0v.06c-.01-.01-.05 0-.05 0-.01-.01.01-.05 0-.06s-.05.01-.06 0 .01-.04 0-.05c0-.01-.04 0-.05 0-.07-.02-.15.01-.22 0h-.17c0 .01.01.04 0 .05 0 .01-.04 0-.05 0h-.11c-.08.01-.15 0-.22 0v-.22c-.01-.01 0-.05 0-.05-.01-.01-.05.01-.06 0s.01-.05 0-.06-.04.01-.05 0h-.11c-.01.02.01.05 0 .06s-.05-.01-.06 0 .01.04 0 .05c0 .01-.05 0-.05 0-.01.04-.01.08 0 .11v.11h-.11c-.02-.01-.05.01-.06 0 0-.01.01-.05 0-.05-.01-.01-.04 0-.05 0-.04-.01-.08 0-.11 0h-.5c-.02-.01-.04-.01-.05 0-.01 0 0 .05 0 .05-.01.01-.05 0-.06 0v.06h-.05c-.01 0 0-.06 0-.06-.01 0-.05.01-.06 0v-.05c.01-.01.05 0 .06 0v-.22c-.02-.02.02-.1 0-.11-.01-.01-.06.01-.06 0v-.22c.01-.02.01-.04 0-.05 0-.01-.05 0-.05 0-.01-.01 0-.05 0-.06h-.83s.01.05 0 .06h-.1c0 .01-.01.04 0 .05 0 .01.04-.01.05 0v.05c-.01.01-.05 0-.05 0h-.44c-.06 0-.11.01-.17 0-.01 0-.1.02-.11 0-.01-.01.01-.04 0-.05h-.11v.11c-.01.04-.01.08 0 .11 0 .01.05 0 .06 0 0 .01-.01.05 0 .06 0 .01.04-.01.05 0s-.01.04 0 .05.05-.01.05 0c.01.01-.01.05 0 .06.01 0 .05-.01.06 0 .01 0-.01.04 0 .05 0 .01.05-.01.05 0 .01.01 0 .05 0 .05v.06h-.21c-.06 0-.12-.01-.17 0v.05h-.06c0-.01.01-.04 0-.05h-.32c-.04 0-.08-.01-.11 0-.01 0-.05-.01-.06 0s.01.04 0 .05c-.02.01-.09-.02-.11 0 0 0 .01.06 0 .06h-.05v-.06c.01-.01.04.01.05 0 .01-.03-.01-.07 0-.11.01-.01 0-.04 0-.05.01-.01.05 0 .06 0 .05-.02.12.01.16 0h.5c.01-.02-.02-.1 0-.11.01-.01.05 0 .05 0q.015-.03 0-.06v-.05h-.05c-.01-.01 0-.05 0-.05-.01-.04.01-.08 0-.12-.01 0-.05.01-.05 0-.01 0 0-.05 0-.05a.2.2 0 0 0-.11 0h-.06c-.01 0-.05-.01-.05 0-.01.01.01.05 0 .05-.01.01-.04 0-.06 0h-.11v-.16h-1.6c0 .01.01.05 0 .06h-.05c-.01-.01 0-.05 0-.06v-.06c-.02.02-.1-.01-.11 0-.01.02.01.05 0 .06h-.61c0-.01.01-.04 0-.06h-.22c0 .02.01.05 0 .06 0 .01-.04 0-.05 0h-.06c-.01 0-.04-.01-.05 0s.01.05 0 .06-.04-.01-.05 0 .01.04 0 .05-.05-.01-.06 0 .01.05 0 .05h-.11c-.01.02.01.05 0 .06h-.05c-.06.01-.12-.01-.17 0v.16c-.02.02-.1-.01-.11 0s0 .06 0 .06h-.06v-.06c.02-.01.05.01.06 0-.02-.02.02-.09 0-.11h-.06v.06c-.01-.01-.04 0-.05 0-.01-.01.01-.05 0-.06-.01 0-.05.01-.06 0v-.11h.17c-.01-.01.01-.04 0-.05s-.05.01-.05 0c-.02-.03 0-.07 0-.1l-2.58.92h.05v.06h-.06c0-.02 0-.04.01-.06l-.45.16-.53.19c-1.13.62-3.01 1.31-4.57.82-.47.2-.91.45-1.32.77 1.55.82 3.47 1.63 5.12 2.36.59.29 1.19.52 1.82.71.72.16 1.6-.01 2.42-.06.68-.04 1.37-.05 2.04-.11 1.34-.1 2.7-.26 4.07-.38 2.08-.17 4.33.04 6.23-.05q2.73-.135 5.37-.27v-.58h2.76c.01.01.04 0 .05 0v.06c-.02.02-.09-.01-.11 0h-.55a.2.2 0 0 0-.11 0c-.01 0-.05-.01-.06 0v.22c-.03-.01-.08.01-.11 0 0-.01.01-.05 0-.06s-.04.01-.05 0h-.99c-.02.01-.05-.01-.06 0s.01.05 0 .06-.04-.01-.05 0c-.04 0-.08-.01-.11 0h-.28v.22c.02.01.1-.02.11 0 0 0-.01.05 0 .05h.18c1.5-.08 2.98-.15 4.47-.25.21-.01.42-.03.64-.04-.01-.01-.02-.02-.02-.03m12.5-4.22c.03.01.1-.02.11 0 .01 0 0 .05 0 .05.03.01.09-.02.11 0 .01.01 0 .04 0 .05-.02-.01-.09.02-.11 0-.01-.01.01-.04 0-.05h-.05c-.01 0-.05.01-.06 0s.01-.04 0-.05m-.55-.11h.06a.17.17 0 0 1 .1 0c.01 0 0 .04 0 .05.01.01.06-.01.06 0 .01.02-.01.04 0 .06h-.17c0-.02.01-.05 0-.06s-.05.01-.05 0c-.01-.01.01-.04 0-.05m-.71.16c.01-.01.04.01.05 0s-.01-.04 0-.05.05 0 .05 0c.04-.01.08 0 .11 0V31h-.22c.02-.02 0-.05.01-.06m-.61-.22h.11c.01.01-.01.05 0 .06.02.01.1-.02.11 0 .01.01 0 .04 0 .05v.11c-.01-.01-.04.01-.05 0-.01 0 0-.05 0-.05a.2.2 0 0 0-.11 0h-.05zm-.83.17q.03-.03.06 0c.02.01.02.03 0 .05h-.06zm-.54-.11c0-.01.04 0 .05 0 .04-.01.07 0 .11 0h.11v.11h-.22c-.01-.01.01-.05 0-.06s-.05.01-.05 0-.01-.04 0-.05m-.06 2.19c.01-.01.09 0 .11 0 .05-.01.11 0 .16 0h1.65c.09 0 .19-.01.33 0 .06 0 .12-.01.17 0 .01 0 .1-.01.11 0s0 .04 0 .05h-2.48c-.01-.01-.04.01-.05 0zm-.5-.16c-.02.01-.03.01-.05 0q-.03-.03 0-.06c.02-.02.03-.02.05 0q.03.03 0 .06m-.16-1.92c.01-.01.05 0 .05 0 .06-.01.12 0 .17 0 .01 0 .05-.01.05 0 .01 0 0 .04 0 .05-.01.01-.04-.01-.05 0s.01.05 0 .05c-.01.01-.04 0-.05 0-.04.01-.08 0-.11 0-.01-.01.01-.04 0-.05s-.05.01-.06 0c.01-.01-.01-.05 0-.05m-.61 2.3h.28c0-.01-.01-.05 0-.06h.11c-.01.02.01.05 0 .06s-.05-.01-.06 0c0 0 .01.05 0 .05-.02.01-.03.01-.05 0h-.06c0 .01.01.05 0 .06h-.05c-.06 0-.11-.01-.17 0zm-.6-.44c.02-.02.03-.02.05 0s.02.04 0 .05c-.02.02-.03.02-.05 0-.02-.01-.02-.03 0-.05m-.66.49c.01-.01.04.01.05 0v-.11h.33c.04.01.08-.01.11 0H40c.01.01-.01.05 0 .06.01 0 .04-.01.05 0 .01 0 0 .04 0 .05-.01.01-.04-.01-.05 0s.01.05 0 .05c-.02.01-.05 0-.06 0a.4.4 0 0 1-.16 0c-.09.01-.19 0-.28 0-.02.01-.03.01-.05 0zm-1.38-.05c.01.01.05-.01.05 0 .01.01 0 .05 0 .05.01.01.05 0 .06 0 .04.01.07 0 .11 0v-.11c.01 0 .05.01.05 0 .01-.01 0-.04 0-.05.04.01.08-.01.11 0 .01 0 .05-.01.06 0s-.01.04 0 .05c.07-.01.15.01.22 0v-.05h.05c.01.01 0 .04 0 .05.02.01.05-.01.06 0v.06c-.01 0-.05-.01-.06 0 0 .01.01.04 0 .05 0 .01-.04 0-.05 0-.03.01-.08-.01-.11 0-.01.01.01.05 0 .05-.02.02-.08 0-.11 0h-.44zm-.77-.49c0-.01.05 0 .05 0h.06c.02.01.09-.02.1 0 .01.01 0 .04 0 .05h-.1c-.01.01 0 .04 0 .05h-.06v-.05c-.01-.01-.04.01-.05 0 .01-.01-.01-.05 0-.05m0 .43c.03.01.07 0 .11 0 .01.01.05 0 .05 0 .01.01 0 .05 0 .06-.03-.01-.07.01-.11 0 0 0-.04.01-.05 0s.01-.04 0-.06m-.55.11v-.11h.05v-.05c.01.01.05-.01.06 0 0 0-.01.05 0 .05.03.01.07-.01.11 0v.11s.05.01.05 0c-.01.01.01.05 0 .06h-.28c0-.01.01-.05.01-.06m-.66-.54c.02.01.09-.02.11 0v.05h-.11c-.01-.01.01-.04 0-.05m-.61.43h.22c.01 0-.01-.05 0-.05h.39v.11h-.17c-.01.02.02.09 0 .11h-.27c-.03-.01-.09.02-.11 0s.01-.08 0-.11c-.01 0-.06.01-.06 0zm-.49 1.43c.02.02.02.04 0 .05q-.03.03-.06 0c-.02-.01-.02-.03 0-.05zm-.28-1.86c.04 0 .07-.01.11 0 .01 0 .05-.01.05 0 .01 0 0 .04 0 .05-.03-.01-.07.01-.11 0-.01 0-.05.01-.05 0-.01-.01.01-.04 0-.05m-.66.54c.01 0 .05.01.06 0 0-.01-.02-.1 0-.11.01-.01.08 0 .11 0h.11c0-.01-.01-.04 0-.05 0-.01.04.01.05 0s.05.01.05 0c.01-.01 0-.05 0-.06h.23c0 .01-.01.05 0 .06h.05c.07 0 .15-.01.22 0-.01.01.01.04 0 .05s-.05-.01-.05 0c-.01.01 0 .05 0 .06h-.11c-.01 0 0-.06 0-.06h-.06c-.05-.01-.11.01-.16 0v.17h-.5c.01-.01-.01-.05 0-.06m-.33 1.32c.01-.01.04.01.05 0s-.01-.05 0-.05h.06s-.01.05 0 .05c.01.01.1-.01.11 0v.05c-.01.01-.05 0-.06 0-.01.02.01.05 0 .06h-.05c-.01-.01 0-.06 0-.06-.02 0-.11.02-.11 0zm-.55-1.86c.01-.01.05 0 .05 0h.11c.01-.01-.01-.05 0-.06s.05 0 .06 0h.16c-.01.01.01.05 0 .06-.01 0-.05-.01-.05 0v.05h-.33c.01-.01-.01-.05 0-.05m-.39.38h.33c.04.01.08-.01.11 0 .01 0-.01.05 0 .05.01.01.05 0 .06 0h.16c-.01.02.01.05 0 .06s-.04 0-.05 0c-.04.01-.08-.01-.11 0-.01.01-.05-.01-.06 0s.01.04 0 .05c0 .01.01.05 0 .06s-.04-.01-.05 0h-.38zM6.19 31.71h.11c.01-.01.04.01.05 0s0-.04 0-.06c.02.02.1-.01.11 0 .01.02 0 .05 0 .06-.01.01-.04-.01-.05 0-.02.01.01.09 0 .11h-.22zm0 .55c0-.01.05 0 .05 0 .01 0 .05-.01.06 0v.05c-.01.01-.05 0-.06 0h-.05c0-.01-.01-.04 0-.05m-.83.44v-.06h.06v.06zm.17.38c-.01.01-.05 0-.06 0s-.05.01-.05 0c-.01-.01 0-.04 0-.05 0-.02-.01-.05 0-.06h.05c.01 0 0 .05 0 .06.01 0 .05-.01.06 0-.01 0 .01.04 0 .05m0-.44h-.06v-.05q.03-.015.06 0zm.44-.44c-.01.01-.05-.01-.06 0s.01.04 0 .06c-.01-.01-.04.01-.05 0s.01-.05 0-.06c-.01 0-.05.01-.06 0v-.11h.11c.01.02-.01.05 0 .06.01 0 .06-.01.06 0zm.16.44h.06v.06h-.06zm.39.66c-.01.01-.05 0-.06 0-.03.01-.07-.01-.11 0h-.22v-.11c.01-.01.05.01.06 0 0-.01-.01-.05 0-.06 0-.03-.01-.07 0-.1h.05v-.06h.05c.01.01 0 .05 0 .06.02 0 .05-.01.06 0 .01 0-.01.04 0 .05s.05-.01.05 0c.01.01-.01.05 0 .05.01.01.05 0 .06 0 .01.03-.01.08 0 .12 0 0 .05-.01.05 0 .01 0 .01.05.01.05m.11-.6h-.06v-.06h.06zm.16-.94v-.05h.06v.05q-.03.015-.06 0m.11.94h-.05v-.06h.05zm2.1-.94c.03.01.07-.01.11 0 0 .01.04 0 .05 0 .01.01-.01.05 0 .06-.04-.01-.08.01-.11 0-.01-.01-.05 0-.06 0 0-.01.01-.04.01-.06m0 .55c.01-.01-.01-.04 0-.05s.04 0 .05 0c0 .01.01.04 0 .05s-.04-.01-.05 0 .01.05 0 .05q-.03.015-.06 0v-.05c.01-.01.05.01.06 0m-.22-.99c.01.01.04 0 .05 0 .01.01-.01.06 0 .06.02.01.09-.02.11 0 .01.02.01.03 0 .05-.01.01-.04 0-.05 0-.01.01 0 .05 0 .06h-.06c-.01-.01.01-.05 0-.06 0-.01.01-.04 0-.05s-.05 0-.05 0c-.01-.02 0-.04 0-.06m-.89.94q.03-.015.06 0v.05h-.06zm-.22-.55c0 .01.01.04 0 .05 0 .01-.04 0-.05 0-.04.01-.07.01-.11 0-.01 0 .01-.04 0-.05.01-.01.05.01.06 0 0 0-.01-.06 0-.06h.05c.01.01-.01.05 0 .06s.04-.01.05 0m-.16.99c-.01 0-.05-.01-.06 0-.01 0 .01.04 0 .05H7.4v-.05c.01-.01.04 0 .05 0 .01-.01-.01-.05 0-.06s.05.01.06 0c-.01.01.01.05 0 .06m-.06-1.38c.01 0 .05.01.06 0 .03 0 .07.01.11 0-.02.03.01.1 0 .12-.02 0-.05-.01-.06 0 0 0 .01.05 0 .05h-.05c-.01-.01 0-.05 0-.05-.01-.02.01-.05 0-.06s-.05.01-.06 0c.01-.01-.01-.05 0-.06m-.11.44c.02.02.1-.01.11 0q.015.03 0 .06h-.11c0-.01.01-.04 0-.06m-.22.44h-.16v-.11c.03.01.08-.01.11 0 0 0-.01.05 0 .05 0 .01.05 0 .05 0 .01.02 0 .05 0 .06m.06-.49h-.06c0-.01.01-.04 0-.06 0-.01.01-.04 0-.05 0-.01-.04.01-.05 0v-.11c.01.01.05-.01.05 0 .01.01 0 .05 0 .06.01.01 0 .04 0 .05.01.01.06-.01.06 0v.11M8 33.08c0 .01-.05 0-.05 0h-.06c-.01.01-.04-.01-.05 0s.01.05 0 .05c-.01.01-.05 0-.05 0q-.015.06 0 .12v.05c-.07-.01-.16.01-.22 0-.01 0-.05.01-.06 0s.01-.05 0-.05c-.01-.01-.04 0-.05 0-.01-.01.01-.05 0-.06-.01 0-.05.01-.06 0s.01-.04 0-.05c0-.01-.05.01-.05 0-.01-.01 0-.05 0-.06v-.05h.16c.01.01-.01.04 0 .05s.05 0 .06 0c.04.01.07.01.11 0h.16c.01-.01 0-.04.01-.05 0-.01.04 0 .05 0 .04-.01.08-.01.11 0 0 0 0 .05-.01.05m.06-1.48h-.05a.06.06 0 0 1 0-.06h.05zm.28.6q-.03.015-.06 0v-.11c.01-.01.04.01.06 0-.02.02.01.1 0 .11m.38-.38h-.05c-.01-.01 0-.04 0-.06.02-.01.09.02.11 0 .01-.01-.01-.04 0-.05s.04.01.05 0 0-.04 0-.06h.12v.11c-.04.01-.08 0-.12 0-.01.01-.04 0-.05 0-.01.01.01.05 0 .06zm.55 1.31c0 .01-.05 0-.05 0h-.11v.17H9q-.06.015-.12 0c-.01-.01.02-.1 0-.11-.01-.02-.08.01-.1 0v-.11h.1q.03-.015.06 0c.01 0-.01.05 0 .05.01.01.04 0 .05 0h.12c0-.01-.02-.04-.01-.05h.06c.03-.01.07-.01.11 0zm0-1.75h-.05c-.01-.02-.01-.03 0-.05.02-.01.03-.01.05 0zm.11 1.7h-.05c-.01-.02-.01-.04 0-.05s.03-.01.05 0zM9.55 31h-.06v-.11c.01 0 .05-.01.06 0V31m.33 1.2c-.01.01-.05-.01-.06 0 0 .01.01.05 0 .06h-.16c-.01-.01 0-.05 0-.06-.01-.01-.05.01-.06 0v-.11h.12c0 .02-.01.05 0 .06 0 0 .04-.01.05 0 .03.01.08-.01.11 0-.01.01.01.04 0 .05m.6 1.1h-.33c0-.01.01-.05 0-.05-.01-.01-.05 0-.05 0-.01-.02 0-.05 0-.06v-.11c-.01-.01.01-.04 0-.05s-.05.01-.06 0c0-.01.01-.05 0-.06 0 0-.05.01-.05 0v-.05c.01-.01.05.01.05 0v-.11h.06v-.05c.01 0 .04-.01.05 0 .01 0 0 .04 0 .05.01.03-.01.08 0 .11.01.01-.01.05 0 .05.01.01.05 0 .06 0h.05c.01.01 0 .05 0 .06.01.01.05-.01.06 0v.05q-.015.03 0 .06c0 .01-.01.05 0 .05.01.01.04-.01.05 0 0 .01-.01.06 0 .06.02.01.09-.02.11 0 .01 0 0 .04 0 .05m-.33-1.54c.01-.01 0-.04 0-.05.02.01.1-.02.11 0 .01.01-.01.05 0 .05.01.01.04 0 .06 0h.05c-.01.02.01.05 0 .06s-.04-.01-.05 0c-.02.01-.05-.01-.06 0 0 0 .01.05 0 .05h-.05c-.01-.01.01-.05 0-.05-.01-.01-.04 0-.06 0a.2.2 0 0 0-.11 0h-.05c-.01-.01 0-.05 0-.06.03 0 .07.01.11 0 .01 0 .04.01.05 0m0-.38h.11q.015.03 0 .06h-.11c.01-.02-.01-.05 0-.06m.28.99c-.01 0-.04-.01-.06 0-.03 0-.07-.01-.11 0 0-.01.01-.05 0-.06s-.04.01-.05 0c0-.01-.01-.04 0-.05 0-.01.05 0 .05 0h.17c.01 0 .04-.01.05 0 .01 0 0 .05 0 .05-.01.01-.04-.01-.05 0s.01.05 0 .06m.16.38c0-.01.01-.05 0-.05.01-.02 0-.05 0-.06.01-.01.05 0 .06 0 0 0 .05-.01.05 0 .01.01 0 .05 0 .06-.01 0-.04-.01-.05 0v.05c-.01 0-.05.01-.06 0m.17.44c-.02.02-.09-.01-.11 0v-.06c0-.01-.02-.1 0-.1.01-.01.03-.01.05 0 .01 0-.01.04 0 .05s.04-.01.05 0c0 .02.03.09.01.11m.44-.93h-.22c-.01-.02.01-.05 0-.06s-.05.01-.06 0c.01-.01-.01-.04 0-.05s.05 0 .06 0c.03-.01.07 0 .11 0h.11zm-.11-1.04c.02-.01.04-.01.05 0s.01.03 0 .05h-.05zm.66 2.08h-.22c-.01 0-.05.01-.05 0-.01 0 0-.05 0-.05v-.12c-.01 0-.06.01-.06 0v-.05c.01-.01.05 0 .06 0 .03-.01.07.01.1 0 .02-.01.05.01.06 0s-.01-.04 0-.05h.11zm-.28-.55c.01.02.01.04 0 .05-.02.01-.03.01-.05 0v-.05zm0-.49q.03-.015.06 0v.05h-.06zm.28-.44h-.05a.5.5 0 0 0-.17 0c-.01 0-.05-.01-.05 0-.01.01 0 .04 0 .05h-.12c.01-.01 0-.04 0-.05.01-.01.05.01.06 0 0-.01-.01-.05 0-.06.02-.01.1.02.11 0 .01-.01-.01-.04 0-.05h.11c.01.01-.01.04 0 .05s.05 0 .05 0h.06c-.01.02.01.05 0 .06m-.17-.28c-.01-.01-.04.01-.05 0s.01-.04 0-.05.01-.05 0-.05c0-.01-.05 0-.05 0 0-.01-.01-.06 0-.06 0-.01.04.01.05 0h.11v.06c-.01 0-.05-.01-.06 0-.01.03.01.07 0 .1m.33 1.21c-.01-.01.01-.04 0-.05.02.01.1-.02.11 0 .01.01.01.03 0 .05-.03.01-.07.01-.11 0m.22.33c0 .01-.04-.01-.05 0s.01.05 0 .05c-.01.01-.05 0-.05 0 0-.01-.01-.04 0-.05 0-.01.04.01.05 0s-.01-.05 0-.05c.02-.01.04-.01.05 0s.01.03 0 .05m.12-2.08c-.01 0-.05-.01-.06 0 0 0 .01.05 0 .05-.04.01-.07.01-.11 0h-.88c-.01-.04.01-.07 0-.11v-.05c-.01-.01-.05.01-.06 0s.01-.04 0-.06v-.05h-.22c0 .04.01.08 0 .11 0 .01.01.05 0 .06 0 0-.05-.01-.05 0-.01.01.01.09 0 .1s-.04 0-.06 0h-.22c0-.01.01-.04 0-.05 0-.01-.04 0-.05 0-.03-.01-.08.01-.11 0-.01 0 0-.05 0-.05-.01-.01-.05 0-.06 0-.01-.01-.04 0-.05 0-.01-.02.01-.05 0-.06s-.05.01-.05 0c-.01-.01 0-.04 0-.05-.01-.01-.05.01-.06 0-.01-.02.02-.1 0-.11-.01-.01-.04.01-.05 0s.01-.05 0-.06h-.06c-.01 0-.04.01-.05 0-.01 0-.05.01-.06 0v-.1h.61c.02.01.1-.02.11 0 .01.01-.01.04 0 .05s.04-.01.05 0-.01.05 0 .05c.02.01.05 0 .06 0 .01.01.04 0 .05 0 .01.01 0 .06 0 .06h.28c0 .01-.02.04-.01.05s.06-.01.06 0c.01.01 0 .04 0 .06h.66c.05-.02.12.01.17 0 .01-.01.05 0 .05 0 .01-.01 0-.05 0-.06.02.01.1-.02.11 0 .01.01 0 .05 0 .06h.11c.01.02.01.03 0 .05-.01.01-.04-.01-.05 0-.02.03.01.07 0 .11m.27 1.2v.11c-.01-.01-.04.01-.05 0-.01 0 0-.05 0-.05a.2.2 0 0 0-.11 0h-.06v-.17h.11c.01.01-.01.05 0 .06.02.01.1-.02.11 0 .01.01-.01.04 0 .05m.5-.38c.01-.01.03-.01.05 0v.05h-.05c-.01-.02-.01-.03 0-.05m-.22-.44h.16c.01.01-.01.05 0 .06-.01 0-.05-.01-.06 0 0 0 .01.05 0 .05h-.05c-.01-.01.01-.05 0-.05-.01-.01-.04 0-.05 0 0-.02-.01-.05 0-.06m-.12.44c.01-.01.05.01.06 0s-.01-.05 0-.06.04.01.05 0c.01 0 .05.01.06 0s-.01-.04 0-.05.04.01.05 0c.01.01-.01.04 0 .05s.05 0 .06 0c-.01.02 0 .05 0 .06h-.06c-.02-.01-.04-.01-.05 0-.02 0-.05-.01-.06 0 0 0 .01.05 0 .05-.03.01-.08-.01-.11 0 .01-.01-.01-.04 0-.05m.44 1.42v.06h-.38v-.17c0-.01.01-.04 0-.05 0-.01-.05.01-.05 0-.01-.01 0-.05 0-.06a.2.2 0 0 1 0-.11c0-.01.05.01.05 0 .01-.01 0-.04 0-.05v-.11h.06v-.06c.01.01.04-.01.05 0s0 .05 0 .06v.22c.02.01.1-.02.11 0 0 0-.01.05 0 .05.02.01.1-.02.11 0 .01.01 0 .05 0 .05 0 .02-.01.11 0 .12.01 0 .05-.01.05 0 .01.01.01.03 0 .05m0-.87h-.22c.01-.01 0-.05 0-.06.01-.01.05.01.06 0 0-.01-.01-.04 0-.05 0-.01.04 0 .05 0 .04-.01.08.01.11 0zm.23-.66h.05v.05c-.02.01-.04.01-.05 0zm.05 1.37h-.05c-.01-.02-.01-.04 0-.05s.03-.01.05 0zm0-.33c-.01 0-.05-.01-.05 0-.01.02-.01.04 0 .05v.06c-.02-.01-.05.01-.06 0s0-.05 0-.06c-.01-.05.01-.11 0-.16h.11c-.01.02.02.09 0 .11m.44-.49h-.16c-.01-.02.01-.05 0-.06s-.05.01-.06 0 .01-.04 0-.05h.06c.03-.01.07-.01.11 0 .01 0-.01.05 0 .05.01.01.05-.01.05 0 .01.02-.01.04 0 .06m.22-.44c0-.01.05 0 .06 0 0-.01-.01-.04 0-.06h.05c.02 0 .1-.01.11 0s0 .05 0 .06c-.02.01-.1-.02-.11 0-.01.01.01.04 0 .05s-.05-.01-.05 0q-.015.03 0 .06h-.06c-.01-.01 0-.05 0-.06zm.06-.44c.02-.02.03-.02.05 0q.03.03 0 .06c-.02.01-.03.01-.05 0q-.03-.03 0-.06m-.06 1.43c.01-.01.05 0 .06 0 0-.01-.01-.11 0-.11.01-.01.03 0 .05 0v.05c.01.04.01.07 0 .11h-.11zm.28.49c-.01.01-.05 0-.06 0h-.05c-.04.01-.08.01-.11 0-.01 0 0-.05 0-.05-.01-.01-.05 0-.06 0 .01-.02-.01-.05 0-.06s.05.01.06 0-.01-.04 0-.05c0-.01.05 0 .05 0 .01 0 .05-.01.06 0s-.01.05 0 .05c.01.01.05-.01.05 0 .01.01 0 .04 0 .06h.06c-.01 0 .01.04 0 .05m.05-.93c-.02-.02-.09.02-.11 0 0-.01.01-.04 0-.06h-.05c-.01 0-.05.01-.05 0-.01-.01 0-.04 0-.05.02.01.09-.02.11 0 0 .01-.01.05-.01.05.03.01.1-.01.12 0 0 .01-.02.05-.01.06m.11.44c-.01-.01.01-.05 0-.06.01-.01-.01-.04 0-.05s.05 0 .06 0 .05-.01.05 0c.01.01-.01.04 0 .05-.01.01-.04-.01-.05 0s0 .06 0 .06zm.06-1.05c.01-.01.03-.01.05 0q.03.03 0 .06h-.05zm.11 1.37c-.04.01-.08.01-.11 0-.01-.01 0-.04 0-.05.02.02.09-.02.11 0zm.11-2.08h-.11c-.01.01.01.05 0 .05q-.03.015-.06 0s.01-.05 0-.05c0-.01-.04 0-.05 0-.07-.01-.15.01-.22 0h-.17c-.02.02-.09-.02-.11 0 0 .01.01.05 0 .05-.02.01-.09-.01-.1 0-.01.02 0 .05 0 .06h-.11V31c.01-.01.04.01.05 0s-.01-.05 0-.06c.03-.01.08.01.11 0 .05 0 .11.01.17 0v-.16h.11c0 .01-.01.04 0 .05s.04-.01.05 0-.01.05 0 .06c.01 0 .05-.01.06 0h.11c0-.02-.01-.05 0-.06 0-.01.05 0 .05 0h.22zm.05.27h.06v.12c-.01 0-.04-.01-.06 0 .02-.03-.01-.1 0-.12m.28.94c-.01.01-.05-.01-.06 0 0 .01.01.04 0 .05 0 .01-.04 0-.05 0v-.05c-.01-.01-.05 0-.05 0-.04-.01-.08 0-.12 0v-.12h.22c.01.02 0 .05 0 .06h.06zm.27-.82c.01-.01.05 0 .06 0s.05-.01.05 0c.01 0 0 .04 0 .05s.01.04 0 .05c-.02.01-.03.01-.05 0-.01-.01 0-.04 0-.05-.01-.01-.05.01-.06 0zm-.11.38h.11c.01-.01-.01-.05 0-.06s.05.01.06 0c0-.01-.01-.05 0-.05h.05c.01.01-.01.05 0 .05.01.01.05 0 .06 0 .01.02-.01.04 0 .06.01 0 .05-.01.05 0v.05c-.01.01-.04 0-.05 0-.04.01-.08 0-.11 0-.01.01-.05-.01-.06 0 0 .01.01.05 0 .06-.03.01-.08-.01-.11 0zm.06.88c.02-.01.04-.01.05 0 .01.03.01.07 0 .11-.01.01-.04-.01-.05 0 .01-.02-.02-.1 0-.11m.05-.39c-.01-.02-.01-.04 0-.05q.03-.03.06 0c.02.01.02.03 0 .05q-.03.03-.06 0m.17.99h-.28v-.22h.28zm.16-.93h-.16c.01-.01-.01-.05 0-.06h.11c.01.01.05 0 .05 0 .01.01 0 .05 0 .06m.11.44c0-.01.01-.05 0-.06.01-.01 0-.04 0-.05.01-.01.05 0 .06 0s.05-.01.05 0c.01.01 0 .04 0 .05-.01.01-.04-.01-.05 0v.06zm.11.32c-.02.02-.03.02-.05 0-.02-.01-.02-.03 0-.05s.03-.02.05 0 .02.04 0 .05m.5-.87v.05c-.04-.01-.08.01-.11 0-.01 0 .01-.05 0-.05-.01-.01-.05 0-.05 0-.01-.02 0-.04 0-.06-.01.01-.06 0-.06 0 0-.01-.01-.05 0-.05.01-.01.05 0 .06 0a.17.17 0 0 1 .1 0c.01.01-.01.04 0 .05s.05-.01.06 0zm.83-.94c.01-.01.03-.01.05 0q.03.03 0 .06c-.02.02-.04.02-.05 0q-.03-.03 0-.06m0 .44c.01-.01.03-.01.05 0q.03.03 0 .06c-.02.02-.04.02-.05 0q-.03-.03 0-.06m-.67.06c.01-.01.05.01.06 0s.04.01.05 0-.01-.05 0-.06c.01 0 .05.01.06 0s0-.08 0-.11v-.16c-.01-.01-.05.01-.06 0v-.05c.01-.01.05 0 .06 0h.11c-.01.01.01.04 0 .05s-.05-.01-.06 0v.27c.01.01.05-.01.06 0s-.01.05 0 .06.04-.01.05 0 .05-.01.05 0c.01 0 0 .05 0 .05v.06h-.11c0-.02.01-.05 0-.06h-.22c0 .02.01.04 0 .06h-.05c-.01-.01 0-.05 0-.06zm.39 1.31v.17h-.39v-.44s.06.01.06 0v-.1h.05v-.06c.01.01.05-.01.06 0v.16c-.01.01-.05-.01-.06 0-.01.02.01.05 0 .06v.16h.17c.02.02.1-.02.11 0 .01.01-.01.04 0 .05m.06-.76h-.23c-.01-.01-.04.01-.05 0s.01-.05 0-.06c.05.01.11 0 .17 0 .01.01.1-.01.11 0 0 .01-.01.05 0 .06m.27.82h-.05c-.01-.01 0-.04 0-.06-.02 0-.05.01-.06 0v-.05h.06s.04-.01.05 0-.01.05 0 .05c-.01.02.01.05 0 .06m.11-.44c-.01.01-.04-.01-.05 0s-.05-.01-.06 0 .01.04 0 .05-.04-.01-.05 0v.06h-.06c0-.01.01-.05 0-.06s-.04.01-.05 0v-.11h.27zm.11-1.26v-.05c.01 0 .05-.01.05 0 .01 0 0 .04 0 .05s.01.05 0 .05c-.01.01-.03.01-.05 0-.01 0 0-.04 0-.05m.22.77v.05c-.01-.01-.04.01-.05 0s.01-.05 0-.05c-.01-.01-.05 0-.06 0-.03-.01-.07 0-.11 0v-.12c.01.01.05 0 .05 0 .01.01 0 .06 0 .06.03.01.09-.02.12 0 .01.01.04-.01.05 0zm.28-.82c0-.01.04 0 .05 0 .04-.01.07-.01.11 0 .01 0 0 .04 0 .05v.05c-.01.01-.04-.01-.05 0s0 .06 0 .06h-.06c-.01-.01.01-.05 0-.06s-.04.01-.05 0v-.05c0-.01-.01-.05 0-.05m-.11.38c.02-.01.09.02.11 0 0-.01-.01-.04 0-.06h.16c.01.02-.01.05 0 .06s.05-.01.06 0c-.01.01.01.04 0 .05s-.05 0-.06 0c-.03.01-.07-.01-.11 0h-.05c-.01.01 0 .05 0 .06h-.11zm.11 1.04h-.06v-.11c.01-.01.05.01.06 0 0-.01-.01-.04 0-.05 0-.01.04.01.05 0-.01.03.01.08 0 .11 0 .01-.05-.01-.05 0-.01 0 0 .05 0 .05m.27.44c-.01.01-.04 0-.05 0-.04.01-.08-.01-.11 0h-.17v-.11c0-.01.01-.05 0-.06-.01 0-.05.01-.05 0-.01-.01 0-.04 0-.05-.01-.04 0-.07 0-.11.01.01.04-.01.05 0s0 .05 0 .06c.01.01-.01.04 0 .05s.05-.01.06 0c0 .01-.01.05 0 .05.03.01.07.01.11 0 .01 0 .05.01.05 0v-.05c.01.01.05-.01.06 0v.16c.01.01.05-.01.05 0zm.06-.93c-.01 0-.05-.01-.06 0 0 0 .01.05 0 .05-.03.01-.07.01-.11 0 0 0 .01-.05 0-.05 0-.01-.04 0-.05 0h-.05c0-.01-.01-.05 0-.06h.27s-.01.05 0 .06m.22.76c-.01.01-.05 0-.06 0-.01.01.01.05 0 .06-.01.02-.03.02-.05 0q-.03-.03 0-.06c.01 0 .04.01.05 0 .01 0-.01-.04 0-.05s.05.01.06 0c-.01.01.01.05 0 .05m0-.38c-.01.01-.05-.01-.06 0s.01.04 0 .05c-.01.02-.03.02-.05 0-.02-.01-.02-.03 0-.05.01-.01.04.01.05 0s-.01-.05 0-.05c.01-.01.05 0 .06 0-.01.01.01.04 0 .05m.71-1.37h.06v.06c.05 0 .11-.01.16 0v.16c-.01-.01-.04.01-.05 0s.01-.05 0-.05c-.01-.01-.05.01-.05 0-.01-.01 0-.05 0-.06-.01-.01-.05.01-.06 0s0-.04 0-.05h-.05c0-.02-.02-.05-.01-.06m-.16.93h-.22c-.01 0 0-.05 0-.05-.01-.01-.05 0-.05 0h-.06c-.01-.01.01-.05 0-.06h.06c0-.01-.01-.04 0-.05s.03-.01.05 0v.05c.07.01.15 0 .22 0zm.44.99c-.01.01-.05 0-.06 0-.03.01-.07-.01-.11 0h-.16c.01-.01-.01-.05 0-.05 0-.01.04 0 .05 0h.06c0-.01-.01-.05 0-.06 0 0 .05.01.05 0 .01-.01 0-.04 0-.05v-.06h.05c.01-.01-.01-.04 0-.05s.05 0 .06 0c.01.05-.02.11 0 .16 0 .01-.01.05 0 .06.01 0 .04-.01.05 0 0 0 .02.04.01.05m-.22-.55c.01.01.04-.01.05 0s0 .04 0 .05v.06h-.11c-.01-.01.01-.04 0-.06.02-.01.05.01.06 0 .01 0-.01-.04 0-.05m.33-.33h-.28v-.11h.28zm0-.49h-.44v-.11h.11c.01-.01.04.01.05 0s0-.04 0-.06h.11c.01.02 0 .05 0 .06.02.02.09-.01.11 0 .01.01-.01.04 0 .05s.05-.01.06 0c.01.02-.01.04 0 .06m.05-.55c-.01-.02-.01-.03 0-.05q.03-.03.06 0v.05zm.17 1.81h-.11c-.01-.01.01-.04 0-.06.02.02.1-.01.11 0zm.05-.38h-.11v-.11h.11zm.72-1.37c.01-.01.04 0 .05 0h.11v.11h-.11c0-.02.01-.05 0-.06 0 0-.05.01-.05 0zm-.11.43c.01-.01.09.02.11 0 0-.01-.01-.04 0-.05.01-.02.09.02.11 0 .03.01.07-.01.11 0 .01 0 .05-.01.05 0 .01.01 0 .05 0 .05.01.01.04 0 .06 0v.06c-.01.01-.05-.01-.06 0h-.22c-.02.01-.09-.02-.11 0v.05c-.01 0-.05.01-.05 0-.01-.01 0-.04 0-.05.01-.01-.01-.05 0-.06m.17.99h-.06c-.01-.01 0-.05 0-.05v-.06c.01.01.05-.01.06 0v.11m-.5-1.42c.02-.02.04-.02.05 0 .02.01.02.03 0 .05-.01.02-.03.02-.05 0s-.02-.04 0-.05m.16.87h-.11c-.01 0-.04.01-.05 0s.01-.05 0-.05v-.06h-.05c0-.01-.01-.04 0-.05s.03-.01.05 0v.05c.04.01.08-.01.11 0 .01.01.05 0 .05 0 .01.01 0 .05 0 .06.01-.01.06 0 .06 0-.01.01 0 .04 0 .05-.01.01-.05 0-.06 0m.39.99h-.33v-.11h.33zm.11-.93c0-.01-.06 0-.06 0v-.06c.01-.01.05.01.06 0H21v.11h-.11c-.01-.01.01-.04 0-.05m.22.93h-.17v-.11h.17zm.16-.49s-.04-.01-.05 0 .01.04 0 .05c-.01-.01-.04.01-.05 0s0-.04 0-.05c-.01-.04 0-.08 0-.11h.1c0 .03.02.07 0 .11m0-.44c-.01.02-.03.02-.05 0q-.03-.03 0-.06c.02-.01.04-.01.05 0q.03.03 0 .06m.06-.55c-.01.01-.05-.01-.06 0v-.17c.02.01.05 0 .06 0 .01.01 0 .05 0 .06v.05c0 .01.01.05 0 .06m.44.49c-.01.01-.05 0-.05 0h-.06c-.01 0-.05.01-.05 0-.01-.01.01-.05 0-.05-.02-.01-.05 0-.06 0 0 0-.05-.01-.05 0 0-.02-.01-.05 0-.06h.22c0 .01-.01.05 0 .06 0 .01.04-.01.05 0-.01.01.01.04 0 .05m.55.99c0 .01-.05 0-.05 0h-.17c-.03-.01-.07.01-.11 0-.01 0-.04.01-.05 0s.01-.05 0-.05v-.12c.01.01.04 0 .05 0 .01.01 0 .06 0 .06.03.01.08-.01.11 0 .01.01-.01.05 0 .05.02.01.09 0 .11 0h.11c-.01.01.01.05 0 .06m.11-.49c-.01-.01.01-.05 0-.06.01-.01-.01-.04 0-.05s.05 0 .06 0c0 0 .05-.01.05 0 .01.01-.01.04 0 .05-.01.01-.05-.01-.05 0-.01.01 0 .06 0 .06zm.11.38h-.05v-.11c.01-.01.04.01.05 0-.01.02.02.09 0 .11m.33-.38c-.02.01-.03.01-.05 0q-.03-.03 0-.06h.05zm.83.32c-.01.01-.05 0-.05 0-.01.01 0 .05 0 .06-.01 0-.06-.01-.06 0-.01.03.01.08 0 .11h-.22c-.04-.01-.08.01-.11 0-.01 0-.05.01-.06 0 0-.01.01-.05 0-.05v-.12h.11c.02 0 .05.01.06 0 .01 0-.01-.04 0-.05s.04.01.05 0 .05.01.06 0-.01-.04 0-.05c.03 0 .07-.01.1 0 .01 0 .05-.01.06 0 .01 0-.01.04 0 .05h.05c0 .01.02.05.01.05m.22.11q-.03.03-.06 0c-.02-.02-.02-.03 0-.05q.03-.03.06 0c.02.02.02.03 0 .05m.11-.43h-.11c.01-.02-.01-.05 0-.06h.11zm1.16-.17c.03.01.07-.01.11 0 .01 0 .05-.01.05 0 .01.01 0 .05 0 .06-.03-.01-.07 0-.11 0-.01-.01-.05 0-.05 0-.01-.01 0-.05 0-.06m-.61.17c-.01.01.01.04 0 .05q-.03.03-.06 0c-.01-.02-.01-.04 0-.05s.05.01.06 0-.01-.05 0-.06.04.01.05 0c0 .01.01.05 0 .06s-.04-.01-.05 0m.88.27c-.01.01-.05-.01-.05 0-.01.01 0 .05 0 .05-.01.01-.05 0-.06 0h-.05c-.02.01-.05 0-.06 0 0 .01.01.05 0 .06-.01.03.01.07 0 .11h-.49c-.02-.01-.1.02-.11 0-.01-.01 0-.04 0-.05v-.12h.11c0-.01-.01-.04 0-.05 0-.01.05 0 .05 0h.06c0-.01-.01-.05 0-.05a.17.17 0 0 1 .1 0h.45s.04-.01.05 0zm1.43 0c-.01.01-.04-.01-.05 0v.17h-.17c-.01 0-.04-.01-.05 0-.01 0 0 .05 0 .05h-.5v-.22c-.01-.01-.05.01-.06 0v-.05c.01-.01.05 0 .06 0 .03-.01.07 0 .11 0h.27c.01-.01 0-.06 0-.06h.17c.02 0 .1-.01.11 0s-.01.04 0 .06c.02.01.09-.02.11 0zm.17-.38q-.03.015-.06 0-.03-.03 0-.06h.06zm.99.54c-.01.01-.05-.01-.06 0 0 .01.01.05 0 .06-.03.01-.07-.01-.11 0-.07-.01-.15 0-.22 0h-.11c-.01-.01-.05 0-.05 0-.01-.01 0-.05 0-.06v-.11h.11c.01 0 .05.01.05 0 .01-.01 0-.04 0-.05.02-.01.05.01.06 0s-.01-.05 0-.06h.33zm1.21-.54c.01-.01.05 0 .05 0 .01-.02 0-.05 0-.06h.17c-.01.01.01.05 0 .06-.01 0-.05-.01-.06 0 0 0 .01.04 0 .05 0 .01-.04 0-.05 0-.04.01-.07-.01-.11 0 .01-.01-.01-.05 0-.05m.39.38c-.01.01-.05 0-.06 0h-.05c-.01.01.01.05 0 .05-.01.01-.05 0-.06 0v.17h-.66v-.05c.01-.01.05 0 .06 0 0-.02-.01-.05 0-.06 0 0 .05.01.05 0 .01-.01-.01-.04 0-.05s.05.01.06 0c0-.01-.01-.05 0-.06h.38c.01 0 .05.01.05 0 .01 0 0-.05 0-.05.02-.01.05 0 .06 0h.11c.01 0 .05-.01.06 0zm-.06 2.14h-.22v-.06h.11c.02.02.1-.01.11 0s-.01.05 0 .06m1.21-2.09c-.01.01-.04 0-.05 0-.01.01-.05 0-.06 0-.01.01.01.05 0 .06 0 .01-.04-.01-.05 0-.01 0 0 .05 0 .05v.06h-.61c.01-.02 0-.05 0-.06.01-.01.05.01.06 0s-.01-.04 0-.05.04 0 .05 0h.22c.01-.01-.01-.05 0-.06h.06c.01 0 .04.01.05 0 .01 0 0-.04 0-.05.01-.01.05.01.06 0s.04.01.05 0 0-.05 0-.05c.04-.01.07-.01.11 0 .01 0-.01.04 0 .05s.05-.01.05 0h.06c-.01.01.01.05 0 .05m0-.43h-.11c-.01-.02.01-.05 0-.06.02.01.1-.02.11 0zm1.21 0c.02.01.1-.02.11 0 .01.01.01.03 0 .05h-.11c-.01-.01.01-.04 0-.05m-.55.49c.02-.01.05.01.06 0s-.01-.04 0-.06c0-.01-.01-.04 0-.05s.04.01.05 0v-.05h.11c.01.01-.01.04 0 .05s.05 0 .06 0h.38v.05c-.01.01-.04 0-.05 0h-.17c-.01.02.01.05 0 .06 0 0-.05-.01-.05 0-.01.02.01.1 0 .11-.02.01-.09 0-.11 0h-.28zm-17.4-2.8c-.02-.02-.04-.02-.05 0q-.03.03 0 .06c.01.01.04-.01.05 0-.01 0 .01-.05 0-.06m13.71-.27h.28v-.04c-.09 0-.19.04-.28.04m-2.81.08-.82.03h.17c.01.01.04-.01.05 0s-.01.05 0 .05c.01.01.04 0 .06 0 .03.01.07.01.11 0 .01 0 .05.01.05 0 .01-.01 0-.04 0-.05zm-1.54.08c.07-.01.15.02.22 0 .01 0 .05.01.06 0v-.04c-.09 0-.19 0-.28.01zm3.97-.16c.05-.01.11.01.16 0-.09 0-.18-.01-.27-.01zM9.44 29.9c-.01.01-.02.01-.04.02.02.01.03.01.04.02zm2.25-.27c.02 0 .05-.01.06 0 0 0-.01.05 0 .05.03.01.07.01.11 0 .01 0 .05.01.05 0 .01-.01-.01-.05 0-.05.03-.02.08 0 .11 0v.1c.01.01.04-.01.05 0s0 .05 0 .06c.01.01-.01.04 0 .05s.05-.01.06 0-.01.05 0 .06c.01 0 .05-.01.05 0 .01.01 0 .04 0 .05h.11c.01.01-.01.05 0 .05.02.02.09 0 .11 0h.33c.03-.01.08.02.11 0 .01 0-.01-.04 0-.05s.05.01.06 0 .04.01.05 0-.01-.05 0-.05c.01-.01.04 0 .05 0 .01-.01-.01-.05 0-.06s.05.01.06 0c.01.02-.02.09 0 .11.01.01.04 0 .05 0 .04.01.08-.01.11 0h.22c.01-.01.05.01.06 0 0-.01-.01-.05 0-.05.03-.02.07 0 .1 0h.12c0 .01-.01.04 0 .05 0 .01.04 0 .05 0h.28s-.01.05 0 .05c.02.02.09-.01.1 0s0 .06 0 .06c.06.01.12-.01.17 0 .02.01.09-.02.11 0s-.02.09 0 .11c.01.01.05-.01.06 0 0 .01-.01.05 0 .05.03.02.08-.01.11 0h.22c0-.01-.01-.04 0-.05 0-.01.04.01.05 0s0-.04 0-.05v-.06c0-.01-.01-.05 0-.05.02-.01.04-.01.05 0s0 .04 0 .05h.33c.04.01.08-.01.12 0 0 0-.01.05 0 .06 0 0 .04-.01.05 0 .01 0-.01.04 0 .05s.05-.01.05 0c.01.01 0 .04 0 .05h.33c.01-.01-.01-.04 0-.05s.05 0 .06 0h.05v-.11h.11c.01.02-.01.05 0 .06h.17c.01-.01-.01-.05 0-.06.01 0 .04.01.05 0h.11c.01.04-.01.08 0 .12 0 0 .05-.01.05 0 .01 0 0 .04 0 .05h.44c.01-.01 0-.05 0-.05.01-.01.05 0 .06 0 .01-.02-.01-.05 0-.06s-.01-.04 0-.05.04 0 .05 0h.28c.02.01.1-.02.11 0 .01.01-.01.04 0 .05s.05-.01.05 0c.01.01 0 .05 0 .06.01 0 0 .04 0 .05.01.01.05-.01.06 0s-.01.04 0 .05.04-.01.05 0h.11c.01-.01 0-.04 0-.05.01-.01.05 0 .06 0h.17c0-.01-.01-.05 0-.05 0-.01.04 0 .05 0 .01-.02-.01-.05 0-.06s-.01-.04 0-.05.05 0 .05 0h.28c.02.01.09-.02.11 0s-.02.09 0 .11c.01.01.05-.01.05 0 .01.01 0 .05 0 .05.02.01.05 0 .06 0 .01.01.04-.01.05 0s0 .05 0 .06h.17c.01-.01.05 0 .05 0 .01-.01 0-.06 0-.06h.06c.01.01-.01.05 0 .06v.38h1.26v-.28h.55v.33h1.27v-.33h1.48v-.14c-1.45.04-2.86.06-4.21.05 1.01-.52 2-1.07 3.01-1.6v-.28c.01-.01.04.01.05 0s0-.05 0-.05v-.11c0-.01-.01-.05 0-.06h.06c0 .01-.01.05 0 .06s.04-.01.05 0-.01.04 0 .05.05 0 .05 0h.06c-.01.01.01.05 0 .06-.01 0-.05-.01-.06 0-.01 0-.1-.02-.1 0-.02.01 0 .09 0 .11v.1q-.015.03 0 .06c.14-.08.29-.15.44-.23v-.04c0-.01.04.01.05 0s-.01-.05 0-.06c.01 0 .05.01.05 0 0 .01.01.04.01.05 6.52-3.48 12.93-7.07 19.45-10.55.88.19 1.81.32 2.7.49.04-.08.09-.15.16-.21l.03.01c.71-.39 1.46-.74 2.2-1.09.1-.05.21-.09.31-.14.8-.37 1.55-.78 2.32-1.09-.4-.53-1.14-.84-1.84-1.24-.06-.07-.18-.13-.11-.23-.73-.44-1.42-.92-2.2-1.31-.77.26-1.17.51-1.94.76-.12.06-.33-.14-.49-.16-1.15.68-2.34 1.27-3.58 1.75-.92.39-1.8.84-2.64 1.37-.28.18-.59.33-.89.5l-.76.56c-7.73 3.87-14.3 6.8-21.45 10.03.01 0 .05.01.06.01h.54v.11h-.22c0 .03.02.07 0 .1 0 .01-.04 0-.05 0-.01.01.01.05 0 .06-.02.01-.09-.02-.11 0 0 0 .01.05 0 .05h-.11c0 .01.01.05 0 .06h-.05a.06.06 0 0 0-.06 0c-.01 0-.04-.01-.05 0-.01 0 .01.05 0 .05-.02.01-.1-.01-.11 0s.01.05 0 .06c-.01 0-.04-.01-.05 0-.01 0 0 .04 0 .05h-.12c0 .01.01.04 0 .05 0 .01-.04 0-.05 0h-.05c-.01.01 0 .05 0 .06-.01.01-.05-.01-.06 0-.01 0 .01.05 0 .05 0 .01-.05 0-.05 0h-.06c-.01 0 .01.05 0 .06 0 0-.05-.01-.05 0v.05c.01.01.05-.01.05 0 .01.01 0 .05 0 .06h.11c0 .01.01.04 0 .05 0 .01-.04 0-.05 0-.04.01-.08 0-.11 0-.01-.01 0-.04 0-.05-.01-.01-.05.01-.06 0 0-.01.01-.05 0-.06h-.11c0 .02.01.05 0 .06s-.05-.01-.05 0v.05q-.03.015-.06 0h-.05c-.01.01.01.05 0 .06s-.05-.01-.06 0-.04-.01-.05 0 .01.04 0 .05c-.02.02-.1-.02-.11 0 0 .01.01.06 0 .06h-.12c0 .01.01.04 0 .05s-.04-.01-.05 0c-.02.01-.05-.01-.06 0s.01.05 0 .05c-.03.01-.08-.01-.11 0 0 .01.01.05 0 .06s-.04-.01-.05 0-.05-.01-.05 0c-.01.01 0 .04 0 .05-.01.01-.05-.01-.06 0s.01.05 0 .06c-.02.01-.1-.02-.11 0-.01.01 0 .04 0 .05h-.11c-.01.01.01.05 0 .06h-.05a.06.06 0 0 0-.06 0c-.02 0-.1-.02-.11 0-.01.01.01.04 0 .05-.03.01-.08-.01-.11 0 0 0 .01.05 0 .05-.01.01-.04 0-.05 0-.01.04.01.08 0 .12-.01 0-.05-.01-.06 0 0 0 .01.04 0 .05-.01.03 0 .05-.01.07m7.66-.33q-.03.03-.06 0a.06.06 0 0 1 0-.06h.06zm2.59-1.21c.01-.02.03-.02.05 0s.02.03 0 .05-.04.02-.05 0c-.02-.02-.02-.03 0-.05m-.06.22q.03-.03.06 0c.01.02.01.03 0 .05q-.03.03-.06 0c-.02-.02-.02-.03 0-.05m-.11.05h.05q.03.03 0 .06c-.01.01-.03.01-.05 0zm-.22.39c.02.02.02.03 0 .05s-.04.02-.05 0-.01-.03 0-.05zm-.16-.39c.01-.01-.01-.04 0-.05s.04 0 .05 0v-.06h.06v.11c-.01.01-.05-.01-.06 0s-.04-.01-.05 0 0 .06 0 .06c-.02 0-.04-.01-.06 0 .01-.02-.01-.05 0-.06s.05.01.06 0m-.12-.38q.03-.03.06 0c.02.02.02.04 0 .05q-.03.03-.06 0c-.01-.01-.01-.03 0-.05m-.38.88c.03 0 .07-.01.11 0 .01 0 .05-.01.05 0 .01.01 0 .04 0 .05-.03 0-.07.01-.11 0-.01 0-.05.01-.05 0-.01-.01.01-.04 0-.05m-.44-.44c.01-.01.05.01.05 0 .01-.01 0-.04 0-.05h.23c-.01.01 0 .04 0 .05-.01.01-.05-.01-.06 0s.01.04 0 .05-.04 0-.05 0c-.02.01-.05-.01-.06 0s.01.05 0 .06h-.05c-.01-.01 0-.05 0-.06-.01 0-.06.01-.06 0 0 0-.01-.05 0-.05m-.5.38h.11c.01-.01-.01-.04 0-.05s.05 0 .06 0h.05c-.01.01.01.04 0 .05s-.05-.01-.05 0c-.01.01 0 .05 0 .06-.01 0-.05-.01-.06 0-.04 0-.07-.01-.11 0 .01-.01-.01-.05 0-.06m0 .33c.01 0 .05.01.06 0h.11c0 .01-.01.05 0 .06-.02 0-.05-.01-.06 0 0 0 .01.05 0 .05h-.05c-.01-.01.01-.05 0-.05-.02-.01-.05 0-.06 0 .01-.02-.01-.05 0-.06m-.11-.71q.03-.03.06 0c.02.02.02.04 0 .05q-.03.03-.06 0c-.01-.01-.01-.03 0-.05m-.33.05h.06v.11c-.01.01-.04 0-.06 0 .02-.02-.01-.09 0-.11m-.33-.05c.01-.01.05.01.06 0s-.01-.04 0-.05v-.11h.11c-.01.01.01.04 0 .05s-.05-.01-.06 0c0 .01.01.04 0 .06-.01.06.02.15 0 .21.01.04-.01.08 0 .12.01.01.05-.01.06 0s-.01.04 0 .05.04-.01.05 0-.01.05 0 .06c.01 0 .05-.01.06 0v.05c-.01.01-.05-.01-.06 0-.01-.01-.04.01-.05 0s.01-.05 0-.05c-.01-.01-.04.01-.06 0-.01-.01.01-.05 0-.06h-.1c-.02-.02 0-.08 0-.11a.2.2 0 0 1 0-.11c0-.03-.02-.08-.01-.11m-.38-.11c.01-.01.04.01.05 0s0-.04 0-.06c.02.01.05 0 .06 0v.11c-.04.01-.08.01-.11 0-.01-.01 0-.04 0-.05m.11.27h-.06v-.05q.03-.03.06 0c.02.02.02.03 0 .05m-.11.22h.16c.01.01 0 .05 0 .06-.01 0-.04-.01-.05 0 0 0 .01.05 0 .05h-.05c-.01-.01.01-.05 0-.05-.02-.01-.05 0-.06 0 0-.01-.01-.05 0-.06m-.22-.05c.01.01-.01.04 0 .05h-.11c-.04.01-.08.01-.11 0-.01-.02-.01-.03 0-.05 0-.01.05 0 .05 0h.06c.02.01.09-.02.11 0m-.44-.06s.05.01.05 0c.01-.02 0-.08 0-.11.01-.05 0-.11 0-.16v-.17h.22c0 .02.01.05 0 .06h-.05c-.01 0-.05-.01-.06 0-.01 0-.04-.01-.05 0-.01 0 0 .05 0 .05v.22c.01.02-.02.1 0 .11h.05v.06c-.01.01-.04-.01-.05 0h-.11c0-.01-.01-.05 0-.06m-.22.11h.11c-.01.01 0 .05 0 .06h-.11a.06.06 0 0 1 0-.06m-.17-.49q.03-.03.06 0c.01.02.01.03 0 .05q-.03.03-.06 0c-.02-.02-.02-.03 0-.05m-.49 0c.02.01.09-.02.11 0v.05c-.04.01-.08.01-.11 0-.01-.01 0-.04 0-.05m-.11.16c.01.01.04-.01.05 0s0 .05 0 .06c.01.02-.01.09 0 .11.01.01.05-.01.06 0 0 .01-.01.04 0 .05 0 .01.04 0 .05 0 .01.01.05-.01.05 0 .01.01 0 .05 0 .06h.17c.02.01.1-.02.11 0 .01.01 0 .04 0 .05h-.27q-.03.015-.06 0s.01-.04 0-.05h-.16zm-.88-.16c.01-.02.03-.02.05 0s.02.03 0 .05-.04.02-.05 0c-.02-.02-.02-.03 0-.05m-.12.16c.02.01.05-.01.06 0s-.01.05 0 .06c0 .02-.02.09 0 .11.01.01.04-.01.05 0s-.01.04 0 .05.05 0 .06 0c.01.01.04-.01.05 0s-.01.05 0 .06h.17c.02.01.09-.02.11 0 0 .01-.01.04 0 .05h-.28c-.02.01-.04.01-.05 0-.01 0 0-.04 0-.05h-.17zm-.27.06c.02-.02.03-.02.05 0s.02.03 0 .05-.03.02-.05 0-.02-.03 0-.05m-.11-.22c.02-.02.04-.02.05 0 .02.02.02.03 0 .05-.01.02-.03.02-.05 0s-.02-.03 0-.05m-.33.44c0-.01.04 0 .05 0h.06c.02.01.09-.02.11 0 0 .01-.01.04 0 .05h-.11c-.04.01-.07.01-.11 0zm-.33-.33c0-.01.05 0 .05 0 .01 0 .05.01.06 0 .02-.02-.01-.08 0-.11h.16c0 .01.01.04 0 .05 0 .01-.04 0-.05 0h-.06v.22c.01.01.06 0 .06 0 .01.01-.01.05 0 .06s-.01.04 0 .05.05-.01.05 0q.015.03 0 .06c-.01.01-.04-.01-.05 0-.03-.01-.08.01-.11 0-.01 0 .01-.05 0-.06-.01 0-.05.01-.05 0-.02-.02 0-.08 0-.11v-.11c-.01.01-.06 0-.06 0 0-.01-.01-.04 0-.05m-.22.11c.02-.02.03-.02.05 0s.02.03 0 .05-.03.02-.05 0-.02-.03 0-.05m-.17.22q.03-.03.06 0c.01.02.01.03 0 .05q-.03.03-.06 0c-.02-.02-.02-.03 0-.05m-.44-.17c.01.01-.01.05 0 .06s.05-.01.06 0c0 .01-.01.05 0 .05.02.02.09-.01.11 0 .01.02-.01.05 0 .06s.05-.01.05 0c.02.02.02.04 0 .05-.02.02-.03.02-.05 0-.01-.01 0-.04 0-.05h-.17s.01-.05 0-.06c-.01 0-.05.01-.05 0-.01-.01 0-.04 0-.05v-.06c.01.01.04-.01.05 0m-.11-.16q.03-.03.06 0c.02.02.02.04 0 .05q-.03.015-.06 0zm-.22.33c.02.01.1-.02.11 0v.05h-.11c-.01-.01.01-.04 0-.05m-.38.77c.01-.02.03-.02.05 0s.02.03 0 .05h-.05zm-.11.11c.01-.01.03-.01.05 0v.05c-.02.02-.04.02-.05 0-.02-.02-.02-.04 0-.05m-1.38-.06h.05q.015.03 0 .06h-.05z"/></svg>