<svg xmlns="http://www.w3.org/2000/svg" width="50" height="50" fill="none" viewBox="0 0 50 50"><path fill="#f08b21" d="M0 19h9.9c1.35 0 2.7.43 3.78 1.21 1.13.81 1.96 2 2.3 3.31.31 1.19.24 2.47-.22 3.61-.46 1.18-1.33 2.21-2.44 2.9-1.03.64-2.26.99-3.5.96H0zm3.13 3v6h6.7c.45 0 .89-.08 1.3-.25 1.1-.45 1.88-1.53 1.89-2.67.04-.96-.45-1.91-1.25-2.48-.52-.37-1.15-.59-1.8-.6zm14.8-2.91c.58-.21 1.25-.03 1.68.38l10.32 7.11V19h3.14v10.3c0 .36-.05.73-.27 1.02-.35.53-1.06.79-1.69.63-.35-.07-.61-.3-.88-.5-3.4-2.35-6.81-4.69-10.2-7.03v7.57h-3.14V20.5c-.01-.61.42-1.21 1.04-1.41m19.02-.01c.49-.09 1-.08 1.5-.08 3.02 0 6.05-.01 9.07 0 .43-.01.85.12 1.16.4.4.35.57.9.46 1.4-.13.65-.76 1.18-1.46 1.19-3.25 0-6.5 0-9.75-.01-.33-.02-.69.09-.86.38-.19.28-.14.67.11.91.18.2.48.25.75.25 2.8-.01 5.6 0 8.41-.01 1.16.07 2.27.67 2.94 1.58.57.77.82 1.74.68 2.67-.14 1.02-.76 1.98-1.65 2.56-.64.43-1.41.66-2.18.67H35.35c-.58 0-1.15-.35-1.38-.86-.25-.5-.17-1.12.18-1.55.3-.37.79-.58 1.28-.58h10.62c.48.03.9-.44.8-.89a.805.805 0 0 0-.79-.62h-8.42a3.98 3.98 0 0 1-2.72-1.14 3.64 3.64 0 0 1-1.03-3.3c.27-1.46 1.53-2.69 3.06-2.97"/><path d="M9.9 19c1.35 0 2.7.43 3.78 1.21 1.13.81 1.96 2 2.3 3.31.31 1.19.24 2.47-.22 3.61-.46 1.18-1.33 2.21-2.44 2.9-1.03.64-2.26.99-3.5.96H0V19zm-6.77 9h6.7c.45 0 .89-.08 1.3-.25 1.1-.45 1.88-1.53 1.89-2.67.04-.96-.45-1.91-1.25-2.48-.52-.37-1.15-.59-1.8-.6H3.13zm16.48-8.53 10.32 7.11V19h3.14v10.3c0 .36-.05.73-.27 1.02-.35.53-1.06.79-1.69.63-.35-.07-.61-.3-.88-.5-3.4-2.35-6.81-4.69-10.2-7.03v7.57h-3.14V20.5c-.01-.61.42-1.21 1.04-1.41.58-.21 1.25-.03 1.68.38M38.45 19c3.02 0 6.05-.01 9.07 0 .43-.01.85.12 1.16.4.4.35.57.9.46 1.4-.13.65-.76 1.18-1.46 1.19-3.25 0-6.5 0-9.75-.01-.33-.02-.69.09-.86.38-.19.28-.14.67.11.91.18.2.48.25.75.25 2.8-.01 5.6 0 8.41-.01 1.16.07 2.27.67 2.94 1.58.57.77.82 1.74.68 2.67-.14 1.02-.76 1.98-1.65 2.56-.64.43-1.41.66-2.18.67H35.35c-.58 0-1.15-.35-1.38-.86-.25-.5-.17-1.12.18-1.55.3-.37.79-.58 1.28-.58h10.62c.48.03.9-.44.8-.89a.805.805 0 0 0-.79-.62h-8.42a3.98 3.98 0 0 1-2.72-1.14 3.64 3.64 0 0 1-1.03-3.3c.27-1.46 1.53-2.69 3.06-2.97.49-.09 1-.08 1.5-.08"/></svg>