<svg xmlns="http://www.w3.org/2000/svg" width="50" height="50" fill="none" viewBox="0 0 50 50"><path fill="red" d="M0 0h50v50H0z"/><path fill="#fff" d="M45.361 22.02q.136.006.26.057a.63.63 0 0 1 .336.329q.044.118.043.242a.62.62 0 0 1-.419.554.7.7 0 0 1-.266.04.7.7 0 0 1-.257-.053.613.613 0 0 1-.386-.581q0-.125.062-.236a.6.6 0 0 1 .147-.189.7.7 0 0 1 .217-.123.7.7 0 0 1 .263-.04m0 .107a.53.53 0 0 0-.375.136.5.5 0 0 0-.115.156.5.5 0 0 0-.044.196.5.5 0 0 0 .033.199q.037.09.105.163a.5.5 0 0 0 .371.156.51.51 0 0 0 .484-.29.5.5 0 0 0 .043-.195.503.503 0 0 0-.134-.365.6.6 0 0 0-.162-.11.5.5 0 0 0-.217-.046z"/><path fill="#fff" d="M45.365 22.701h-.148v.256h-.14v-.664h.234c.234 0 .321.06.321.199a.17.17 0 0 1-.034.104.2.2 0 0 1-.092.069l.158.282h-.158zm-.148-.299v.2h.116c.108 0 .155-.037.155-.1s-.069-.1-.162-.1zM8.683 27.79H6.767c.47-2.301.752-4.631.845-6.97h1.082c.015 2.429-.058 4.607-.01 6.97m5.773.252c-.498 0-.898-.368-.898-2.386s.325-2.477.848-2.477.898.369.898 2.387-.314 2.476-.837 2.476zm6.019-4.863c.696 0 1.147.369 1.147 2.387s-.36 2.476-.873 2.476c-.512 0-.945-.345-.945-2.957 0-.69-.026-1.262 0-1.743.204-.107.435-.164.67-.163m5.856 5.116a1 1 0 0 1-.25-.024V24.1c0-.551.224-.92.7-.92.477 0 .971.332.971 2.64-.01 2.04-.473 2.476-1.421 2.476m6.43-.14c-.423 0-.57-.332-.57-.916v-2.065c.97-.136 1.392.392 1.392 1.584 0 1.055-.346 1.397-.823 1.397m.573-4.126a2.45 2.45 0 0 0-1.144.252v-2.247h-2.02c.05.332.075 1.145.075 2.2v2.4c0 1.72.747 2.657 2.443 2.657 1.519 0 2.865-.874 2.865-2.799 0-1.547-.956-2.463-2.219-2.463m-6.495-2.131c-1.623 0-2.706 1.122-2.706 2.841V31h2.02a18 18 0 0 1-.075-1.948c.28.15.6.222.924.205 1.27 0 2.717-.687 2.717-3.439.003-3.28-1.256-3.92-2.865-3.92zm-6.133-.62c.97-.333 2.143-.276 2.767-.552V19a8.2 8.2 0 0 1-1.844.458c-2.096.415-3.814 1.354-3.814 5.48 0 3.579 1.418 4.36 2.887 4.36 1.396 0 2.865-.804 2.865-3.739 0-3.027-1.144-3.555-2.266-3.555a2.5 2.5 0 0 0-1.472.528c.122-.657.335-1.072.895-1.255zm22.034-1.309c0-.504-.252-.823-.721-.823a.64.64 0 0 0-.393.102.55.55 0 0 0-.231.31.9.9 0 0 0-.33-.296 1 1 0 0 0-.443-.116.8.8 0 0 0-.28.061.7.7 0 0 0-.232.158.7.7 0 0 0-.147.229.6.6 0 0 0-.037.262c0 .757 1.082 1.421 1.346 1.81.364-.253 1.486-1.053 1.486-1.697zm1.444 9.152a20 20 0 0 1-.076-2.204v-4.883h-2.042q.116 1.098.1 2.2V27.3c-.216.186-.5.293-.797.299-.7 0-.822-.332-.822-1.033v-4.531H38.5c.09.73.125 1.466.1 2.2v3.164c0 1.172.499 1.86 1.744 1.86.873 0 1.497-.688 1.822-1.126v.996zm-6.34-7.087h-2.02c.05.332.075 1.145.075 2.2v4.887h2.042a14.6 14.6 0 0 1-.097-2.204zm-23.431-.136c-1.396 0-2.814.8-2.814 3.758.003 3.027 1.421 3.635 2.868 3.635s2.81-.814 2.81-3.748c0-3.028-1.414-3.645-2.86-3.645zm-2.814 5.892h-.92c0-2.845-.026-6.144.075-8.325H7.713a18 18 0 0 1-2.392-.09v1.42h.772a47 47 0 0 1-1.047 6.995H4q.116 1.098.097 2.2v.997h1.595a16 16 0 0 1-.072-1.88h4.442v1.88h1.62c-.047-.332-.072-1.145-.072-2.201z"/></svg>