<svg xmlns="http://www.w3.org/2000/svg" width="50" height="51" fill="none" viewBox="0 0 50 51"><path fill="#8ab000" fill-rule="evenodd" d="m48.611 2.072-4.686 6.144Z" clip-rule="evenodd"/><path stroke="#769616" stroke-linecap="round" stroke-width="2.5" d="m48.611 2.072-4.686 6.144"/><path fill="#fff" fill-opacity=".298" fill-rule="evenodd" d="M48.586.673c.5.014.84.211 1.082.501-2.235 2.69-2.612 3.118-5.663 6.95-1.124 1.473-2.296.711-1.171-.762l4.686-6.143a1.36 1.36 0 0 1 1.066-.546" clip-rule="evenodd"/><path fill="#263238" fill-opacity=".2" fill-rule="evenodd" d="M49.677 1.188c.137.165.619.899.025 1.738L45.015 9.07c-1.124 1.473-1.268-.684-1.268-.684s4.118-5.038 5.93-7.198" clip-rule="evenodd"/><path fill="#8ab000" fill-rule="evenodd" d="M48.888.936c.483 0 1.058.158.909.892-.114.56-5.14 6.784-5.14 6.784-1.124 1.474-2.75.756-1.625-.717l4.67-6.113c.286-.324.67-.83 1.186-.846M1.39 2.072l4.687 6.144Z" clip-rule="evenodd"/><path stroke="#769616" stroke-linecap="round" stroke-width="2.5" d="m1.39 2.072 4.687 6.144"/><path fill="#fff" fill-opacity=".298" fill-rule="evenodd" d="M1.415.673c-.5.014-.84.211-1.081.501 2.235 2.69 2.611 3.118 5.663 6.95 1.124 1.473 2.295.711 1.17-.762L2.482 1.219A1.36 1.36 0 0 0 1.415.673" clip-rule="evenodd"/><path fill="#263238" fill-opacity=".2" fill-rule="evenodd" d="M.324 1.188A1.41 1.41 0 0 0 .3 2.926L4.986 9.07c1.124 1.473 1.268-.684 1.268-.684S2.136 3.348.324 1.188" clip-rule="evenodd"/><path fill="#8ab000" fill-rule="evenodd" d="M1.114.936c-.484 0-1.059.158-.91.892.115.56 5.14 6.784 5.14 6.784 1.125 1.474 2.75.756 1.626-.717L2.3 1.782c-.287-.324-.67-.83-1.186-.846" clip-rule="evenodd"/><path fill="#aeea00" d="M42.644 5.982H7.357c-1.827 0-3.308 1.5-3.308 3.35v7.82c0 1.85 1.481 3.35 3.308 3.35h35.287c1.827 0 3.309-1.5 3.309-3.35v-7.82c0-1.85-1.482-3.35-3.309-3.35"/><path fill="#263238" fill-opacity=".2" d="M42.644 9.333H7.357c-1.827 0-3.308 1.5-3.308 3.35v4.469c0 1.85 1.481 3.35 3.308 3.35h35.287c1.827 0 3.309-1.5 3.309-3.35v-4.468c0-1.851-1.482-3.351-3.309-3.351"/><path fill="#fff" fill-opacity=".298" d="M42.644 5.982H7.357c-1.827 0-3.308 1.5-3.308 3.35v4.469c0 1.85 1.481 3.35 3.308 3.35h35.287c1.827 0 3.309-1.5 3.309-3.35V9.333c0-1.85-1.482-3.351-3.309-3.351"/><path fill="#aeea00" d="M42.644 7.099H7.357c-1.827 0-3.308 1.27-3.308 2.835v6.616c0 1.566 1.481 2.835 3.308 2.835h35.287c1.827 0 3.309-1.269 3.309-2.835V9.934c0-1.566-1.482-2.835-3.309-2.835"/><path fill="#1976d2" d="M42.644 21.62H7.357c-1.827 0-3.308 1.5-3.308 3.35v22.34c0 1.85 1.481 3.35 3.308 3.35h35.287c1.827 0 3.309-1.5 3.309-3.35V24.97c0-1.85-1.482-3.35-3.309-3.35"/><path fill="#263238" fill-opacity=".2" d="M42.644 36.14H7.357c-1.827 0-3.308 1.5-3.308 3.351v7.819c0 1.85 1.481 3.35 3.308 3.35h35.287c1.827 0 3.309-1.5 3.309-3.35V39.49c0-1.85-1.482-3.351-3.309-3.351"/><path fill="#fff" fill-opacity=".2" d="M42.644 21.62H7.357c-1.827 0-3.308 1.5-3.308 3.35v7.82c0 1.85 1.481 3.35 3.308 3.35h35.287c1.827 0 3.309-1.5 3.309-3.35v-7.82c0-1.85-1.482-3.35-3.309-3.35"/><path fill="#1976d2" d="M42.644 22.736H7.357c-1.827 0-3.308 1.385-3.308 3.094v20.62c0 1.709 1.481 3.094 3.308 3.094h35.287c1.827 0 3.309-1.385 3.309-3.093V25.83c0-1.709-1.482-3.094-3.309-3.094"/><path fill="#0d47a1" d="M25 29.159c-3.176 0-5.865 2.217-6.652 5.194h3.543A3.54 3.54 0 0 1 25 32.51c1.999 0 3.584 1.605 3.584 3.63S27 39.77 25 39.77a3.55 3.55 0 0 1-3.23-2.066h-3.48c.71 3.09 3.454 5.417 6.71 5.417 3.787 0 6.892-3.145 6.892-6.981S28.788 29.159 25 29.159"/><path stroke="#0d47a1" stroke-linecap="round" stroke-width="1.9" d="M25 46.807c5.817 0 10.532-4.776 10.532-10.667S30.817 25.473 25 25.473 14.47 30.249 14.47 36.14 19.185 46.807 25 46.807Z"/><path fill="#263238" fill-opacity=".2" d="M14.387 17.71c2.056 0 3.722-1.938 3.722-4.328s-1.666-4.328-3.722-4.328-3.722 1.937-3.722 4.328 1.667 4.328 3.722 4.328"/><path fill="#fff" d="M14.387 17.71c2.056 0 3.722-1.688 3.722-3.77s-1.666-3.77-3.722-3.77-3.722 1.688-3.722 3.77 1.667 3.77 3.722 3.77"/><path fill="#263238" fill-opacity=".2" d="M35.89 17.71c2.056 0 3.722-1.938 3.722-4.328s-1.666-4.328-3.722-4.328-3.721 1.937-3.721 4.328 1.666 4.328 3.721 4.328"/><path fill="#fff" d="M35.89 17.71c2.056 0 3.722-1.688 3.722-3.77s-1.666-3.77-3.722-3.77-3.721 1.688-3.721 3.77 1.666 3.77 3.721 3.77"/><path fill="url(#a)" fill-rule="evenodd" d="M1.417.661A1.37 1.37 0 0 0 .67.86a1.4 1.4 0 0 0-.524.574 1.41 1.41 0 0 0 .156 1.494l3.973 5.21a3.4 3.4 0 0 0-.224 1.195v7.818c0 1.857 1.476 3.352 3.309 3.352h35.287c1.833 0 3.308-1.495 3.308-3.351V9.333a3.4 3.4 0 0 0-.226-1.2L49.7 2.928a1.4 1.4 0 0 0 .147-1.512 1.4 1.4 0 0 0-.542-.572 1.365 1.365 0 0 0-1.786.376l-3.785 4.96a3.3 3.3 0 0 0-1.087-.198H7.36c-.385 0-.748.077-1.09.199L2.484 1.22A1.38 1.38 0 0 0 1.417.66M7.36 21.62q-.345 0-.668.068a3.31 3.31 0 0 0-2.64 3.25V47.31c0 1.856 1.475 3.35 3.308 3.35h35.287c1.833 0 3.308-1.494 3.308-3.35V24.938a3.31 3.31 0 0 0-3.308-3.319z" clip-rule="evenodd"/><defs><radialGradient id="a" cx="0" cy="0" r="1" gradientTransform="matrix(0 50.0069 -52.9307 0 .004 .662)" gradientUnits="userSpaceOnUse"><stop stop-color="#fff" stop-opacity=".098"/><stop offset="1" stop-color="#fff" stop-opacity="0"/></radialGradient></defs></svg>