<svg xmlns="http://www.w3.org/2000/svg" width="50.006" height="50" fill="none" viewBox="0 0 50.007 50"><defs><radialGradient id="b" cx="0" cy="0" r="1" gradientTransform="matrix(53.1384 0 0 54.8781 43.602 5.284)" gradientUnits="userSpaceOnUse"><stop offset=".129" stop-color="#ffbd4f"/><stop offset=".186" stop-color="#ffac31"/><stop offset=".247" stop-color="#ff9d17"/><stop offset=".283" stop-color="#ff980e"/><stop offset=".403" stop-color="#ff563b"/><stop offset=".467" stop-color="#ff3750"/><stop offset=".71" stop-color="#f5156c"/><stop offset=".782" stop-color="#eb0878"/><stop offset=".86" stop-color="#e50080"/></radialGradient><radialGradient id="c" cx="0" cy="0" r="1" gradientTransform="matrix(53.1384 0 0 54.8781 23.872 26.299)" gradientUnits="userSpaceOnUse"><stop offset=".3" stop-color="#960e18"/><stop offset=".351" stop-color="#b11927" stop-opacity=".737"/><stop offset=".435" stop-color="#db293d" stop-opacity=".341"/><stop offset=".497" stop-color="#f5334b" stop-opacity=".09"/><stop offset=".53" stop-color="#ff3750" stop-opacity="0"/></radialGradient><radialGradient id="d" cx="0" cy="0" r="1" gradientTransform="matrix(38.4924 0 0 39.753 30.448 -6.178)" gradientUnits="userSpaceOnUse"><stop offset=".132" stop-color="#fff44f"/><stop offset=".252" stop-color="#ffdc3e"/><stop offset=".506" stop-color="#ff9d12"/><stop offset=".526" stop-color="#ff980e"/></radialGradient><radialGradient id="e" cx="0" cy="0" r="1" gradientTransform="matrix(25.3001 0 0 26.1281 17.953 39.672)" gradientUnits="userSpaceOnUse"><stop offset=".353" stop-color="#3a8ee6"/><stop offset=".472" stop-color="#5c79f0"/><stop offset=".669" stop-color="#9059ff"/><stop offset="1" stop-color="#c139e6"/></radialGradient><radialGradient id="f" cx="0" cy="0" r="1" gradientTransform="rotate(-13.176 107.953 -103.537)scale(13.393 16.1937)" gradientUnits="userSpaceOnUse"><stop offset=".206" stop-color="#9059ff" stop-opacity="0"/><stop offset=".278" stop-color="#8c4ff3" stop-opacity=".063"/><stop offset=".747" stop-color="#7716a8" stop-opacity=".447"/><stop offset=".975" stop-color="#6e008b" stop-opacity=".6"/></radialGradient><radialGradient id="g" cx="0" cy="0" r="1" gradientTransform="matrix(18.204 0 0 18.7997 23.214 3.373)" gradientUnits="userSpaceOnUse"><stop stop-color="#ffe226"/><stop offset=".121" stop-color="#ffdb27"/><stop offset=".295" stop-color="#ffc82a"/><stop offset=".502" stop-color="#ffa930"/><stop offset=".732" stop-color="#ff7e37"/><stop offset=".792" stop-color="#ff7139"/></radialGradient><radialGradient id="h" cx="0" cy="0" r="1" gradientTransform="matrix(77.6691 0 0 80.2117 37.683 -8.089)" gradientUnits="userSpaceOnUse"><stop offset=".113" stop-color="#fff44f"/><stop offset=".456" stop-color="#ff980e"/><stop offset=".622" stop-color="#ff5634"/><stop offset=".716" stop-color="#ff3647"/><stop offset=".904" stop-color="#e31587"/></radialGradient><radialGradient id="i" cx="0" cy="0" r="1" gradientTransform="rotate(83.78 17.798 15.448)scale(55.1331 37.3677)" gradientUnits="userSpaceOnUse"><stop stop-color="#fff44f"/><stop offset=".06" stop-color="#ffe847"/><stop offset=".168" stop-color="#ffc830"/><stop offset=".304" stop-color="#ff980e"/><stop offset=".356" stop-color="#ff8b16"/><stop offset=".455" stop-color="#ff672a"/><stop offset=".57" stop-color="#ff3647"/><stop offset=".737" stop-color="#e31587"/></radialGradient><radialGradient id="j" cx="0" cy="0" r="1" gradientTransform="matrix(48.4825 0 0 50.0694 23.214 9.742)" gradientUnits="userSpaceOnUse"><stop offset=".137" stop-color="#fff44f"/><stop offset=".48" stop-color="#ff980e"/><stop offset=".592" stop-color="#ff5634"/><stop offset=".655" stop-color="#ff3647"/><stop offset=".904" stop-color="#e31587"/></radialGradient><radialGradient id="k" cx="0" cy="0" r="1" gradientTransform="matrix(53.0661 0 0 54.8039 35.71 12.289)" gradientUnits="userSpaceOnUse"><stop offset=".094" stop-color="#fff44f"/><stop offset=".231" stop-color="#ffe141"/><stop offset=".509" stop-color="#ffaf1e"/><stop offset=".626" stop-color="#ff980e"/></radialGradient><linearGradient id="a" x1="45.239" x2="2.924" y1="7.44" y2="46.973" gradientUnits="userSpaceOnUse"><stop offset=".048" stop-color="#fff44f"/><stop offset=".111" stop-color="#ffe847"/><stop offset=".225" stop-color="#ffc830"/><stop offset=".368" stop-color="#ff980e"/><stop offset=".401" stop-color="#ff8b16"/><stop offset=".462" stop-color="#ff672a"/><stop offset=".534" stop-color="#ff3647"/><stop offset=".705" stop-color="#e31587"/></linearGradient><linearGradient id="l" x1="44.726" x2="8.726" y1="7.23" y2="42.095" gradientUnits="userSpaceOnUse"><stop offset=".167" stop-color="#fff44f" stop-opacity=".8"/><stop offset=".266" stop-color="#fff44f" stop-opacity=".631"/><stop offset=".489" stop-color="#fff44f" stop-opacity=".216"/><stop offset=".6" stop-color="#fff44f" stop-opacity="0"/></linearGradient></defs><path fill="url(#a)" d="M48.18 16.78c-1.08-2.53-3.29-5.27-5.02-6.13 1.24 2.32 2.09 4.77 2.54 7.35-2.83-6.83-7.63-9.54-11.55-15.54-.19-.3-.39-.61-.59-.93-.11-.18-.19-.35-.27-.5-.16-.3-.29-.62-.38-.96.01-.03-.01-.06-.05-.06-.01 0-.07.01-.08.02-6.29 3.56-8.41 10.14-8.6 13.44-2.57.17-4.87 1.03-6.9 2.57-.2-.17-.42-.32-.64-.47-.58-1.97-.61-3.94-.07-5.92a18.2 18.2 0 0 0-6.03 4.5c-.99-1.21-.93-5.23-.87-6.07-.3.12-.58.26-.84.43-.88.61-1.69 1.29-2.45 2.03-.85.85-1.63 1.75-2.34 2.72A20 20 0 0 0 .69 20.6l-.04.16c-.04.22-.21 1.28-.24 1.52-.22 1.1-.36 2.27-.41 3.39v.12c0 1.51.14 3 .43 4.47.29 1.48.72 2.92 1.28 4.32.57 1.4 1.26 2.74 2.09 4.01.82 1.28 1.75 2.47 2.81 3.57 1.05 1.11 2.19 2.11 3.44 3.01 1.24.9 2.56 1.68 3.95 2.34 1.4.67 2.84 1.2 4.34 1.6 1.49.4 3.02.67 4.56.79a25.7 25.7 0 0 0 9.19-.89c1.49-.43 2.92-.98 4.31-1.67 1.38-.68 2.69-1.48 3.92-2.4 1.22-.91 2.36-1.93 3.39-3.06 1.03-1.12 1.95-2.32 2.75-3.61s1.48-2.63 2.02-4.04.94-2.86 1.21-4.34c.04-.31.08-.62.11-.93.53-4.2-.01-8.25-1.62-12.18M19.33 35.76c.12.05.23.11.35.16-.12-.05-.22-.1-.35-.16"/><path fill="url(#b)" d="M48.18 16.78c-1.08-2.53-3.29-5.27-5.02-6.13 1.24 2.32 2.09 4.77 2.54 7.35a21.6 21.6 0 0 1 1.25 8.3c-.14 2.83-.81 5.54-2.03 8.11-2.87 5.96-9.81 12.07-20.68 11.77C12.5 45.86 2.16 37.42.23 26.37c-.36-1.74 0-2.63.17-4.04-.24 1.1-.37 2.21-.4 3.34v.13c0 1.5.15 2.99.44 4.47.29 1.47.71 2.91 1.28 4.31.56 1.4 1.26 2.74 2.08 4.01.82 1.28 1.76 2.47 2.81 3.57a24.7 24.7 0 0 0 3.44 3.01q1.875 1.35 3.96 2.34c1.39.67 2.84 1.2 4.33 1.6 1.5.4 3.02.67 4.57.79a25.734 25.734 0 0 0 9.18-.89c1.49-.43 2.93-.98 4.31-1.66 1.39-.69 2.69-1.49 3.92-2.41q1.845-1.365 3.39-3.06a23.766 23.766 0 0 0 4.77-7.65c.55-1.41.95-2.86 1.22-4.34.04-.31.07-.62.11-.93.52-4.2-.02-8.25-1.63-12.18"/><path fill="url(#c)" d="M48.18 16.78c-1.08-2.53-3.29-5.27-5.02-6.13 1.24 2.32 2.09 4.77 2.54 7.35a21.6 21.6 0 0 1 1.25 8.3c-.14 2.83-.81 5.54-2.03 8.11-2.87 5.96-9.81 12.07-20.68 11.77C12.5 45.86 2.16 37.42.23 26.37c-.36-1.74 0-2.63.17-4.04-.24 1.1-.37 2.21-.4 3.34v.13c0 1.5.15 2.99.44 4.47.29 1.47.71 2.91 1.28 4.31.56 1.4 1.26 2.74 2.08 4.01.82 1.28 1.76 2.47 2.81 3.57a24.7 24.7 0 0 0 3.44 3.01q1.875 1.35 3.96 2.34c1.39.67 2.84 1.2 4.33 1.6 1.5.4 3.02.67 4.57.79a25.734 25.734 0 0 0 9.18-.89c1.49-.43 2.93-.98 4.31-1.66 1.39-.69 2.69-1.49 3.92-2.41q1.845-1.365 3.39-3.06a23.766 23.766 0 0 0 4.77-7.65c.55-1.41.95-2.86 1.22-4.34.04-.31.07-.62.11-.93.52-4.2-.02-8.25-1.63-12.18"/><path fill="url(#d)" d="M36.02 19.63c.05.04.1.07.15.11-.63-1.08-1.41-2.06-2.32-2.94C26.06 9.27 31.81.47 32.78.02c-6.29 3.56-8.42 10.15-8.61 13.45.29-.02.58-.04.88-.04 2.27 0 4.39.56 6.35 1.67 1.96 1.1 3.5 2.62 4.62 4.53"/><path fill="url(#e)" d="M25.06 21.14c-.04.6-2.24 2.68-3.01 2.68-7.11 0-8.27 4.17-8.27 4.17.32 3.51 2.84 6.4 5.9 7.93.13.07.28.13.42.19.24.11.49.2.73.29 1.06.36 2.14.57 3.26.61 12.48.57 14.89-14.44 5.89-18.8 2.2-.28 4.21.19 6.03 1.42-1.12-1.92-2.66-3.43-4.62-4.54-1.96-1.1-4.07-1.66-6.34-1.66-.3 0-.59.02-.88.04-2.57.17-4.87 1.03-6.89 2.57.38.31.81.73 1.72 1.6 1.7 1.62 6.05 3.3 6.06 3.5"/><path fill="url(#f)" d="M25.06 21.14c-.04.6-2.24 2.68-3.01 2.68-7.11 0-8.27 4.17-8.27 4.17.32 3.51 2.84 6.4 5.9 7.93.13.07.28.13.42.19.24.11.49.2.73.29 1.06.36 2.14.57 3.26.61 12.48.57 14.89-14.44 5.89-18.8 2.2-.28 4.21.19 6.03 1.42-1.12-1.92-2.66-3.43-4.62-4.54-1.96-1.1-4.07-1.66-6.34-1.66-.3 0-.59.02-.88.04-2.57.17-4.87 1.03-6.89 2.57.38.31.81.73 1.72 1.6 1.7 1.62 6.05 3.3 6.06 3.5"/><path fill="url(#g)" d="M16.11 15.24c.2.12.37.23.52.33-.58-1.97-.61-3.94-.07-5.92-2.34 1.09-4.34 2.6-6.03 4.51.13-.01 3.76-.07 5.58 1.08"/><path fill="url(#h)" d="M.22 26.37C2.15 37.42 12.5 45.86 24.24 46.18c10.87.3 17.81-5.81 20.68-11.77 1.21-2.57 1.89-5.28 2.02-8.1.14-2.83-.28-5.58-1.24-8.26.88 5.62-2.06 11.05-6.67 14.73-8.98 7.09-17.59 4.31-19.33 3.16l-.36-.18c-5.24-2.42-7.41-7.04-6.94-11-1.27.02-2.44-.3-3.52-.96a6.17 6.17 0 0 1-2.41-2.65c1.4-.83 2.92-1.28 4.55-1.34 1.64-.07 3.19.26 4.65.98 3.08 1.35 6.22 1.47 9.4.36-.01-.2-4.37-1.88-6.06-3.5-.91-.87-1.34-1.28-1.72-1.6-.21-.17-.43-.32-.65-.47-.15-.1-.32-.2-.52-.33-1.82-1.15-5.45-1.09-5.57-1.09-1-1.21-.94-5.23-.88-6.07-.3.12-.57.26-.84.43-.87.61-1.69 1.29-2.44 2.03-.86.84-1.65 1.75-2.35 2.71a19.8 19.8 0 0 0-3.36 7.35c-.01.04-.9 3.81-.46 5.76"/><path fill="url(#i)" d="M33.85 16.8c.91.88 1.69 1.86 2.32 2.94.14.1.27.2.38.3 5.67 5.06 2.7 12.22 2.48 12.73 4.61-3.68 7.55-9.12 6.67-14.73-2.83-6.84-7.64-9.59-11.55-15.59-.2-.3-.4-.61-.59-.93-.11-.18-.2-.35-.28-.5a5 5 0 0 1-.37-.96q0-.06-.06-.06l-.07.01c-.97.45-6.72 9.26 1.07 16.79"/><path fill="url(#j)" d="M36.55 20.04c-.11-.09-.24-.2-.38-.3-.05-.03-.1-.07-.16-.11-1.82-1.22-3.83-1.69-6.03-1.42 9 4.36 6.59 19.37-5.89 18.81-1.12-.05-2.2-.25-3.26-.61-.24-.09-.49-.19-.73-.29-.14-.06-.28-.13-.42-.2 1.74 1.15 10.35 3.97 19.33-3.11.22-.51 3.21-7.7-2.46-12.77"/><path fill="url(#k)" d="M13.78 27.98s1.16-4.17 8.27-4.17c.77 0 2.97-2.07 3.01-2.68q-4.77 1.68-9.39-.36a9.7 9.7 0 0 0-4.65-.98c-1.64.07-3.16.51-4.56 1.34.54 1.12 1.34 2 2.42 2.66 1.07.65 2.24.97 3.51.95-.46 3.97 1.7 8.58 6.94 11.01.12.05.23.11.35.16-3.06-1.52-5.58-4.42-5.9-7.93"/><path fill="url(#l)" d="M48.18 16.78c-1.09-2.53-3.29-5.27-5.02-6.13 1.24 2.32 2.09 4.77 2.54 7.35-2.83-6.83-7.63-9.54-11.55-15.54-.19-.3-.39-.61-.59-.93-.11-.18-.19-.35-.27-.5-.16-.3-.29-.62-.38-.96.01-.03-.01-.06-.05-.06-.01 0-.07.01-.08.02-6.29 3.56-8.41 10.14-8.6 13.44.29-.02.58-.04.87-.04 2.28 0 4.39.56 6.35 1.67q2.94 1.665 4.62 4.53c-1.82-1.22-3.83-1.69-6.03-1.42 9 4.36 6.58 19.37-5.89 18.81-1.12-.05-2.21-.25-3.26-.61-.25-.09-.49-.19-.74-.29-.14-.07-.28-.13-.42-.2-.12-.05-.22-.1-.34-.16.11.05.22.11.34.16-3.05-1.53-5.58-4.42-5.89-7.93 0 0 1.15-4.17 8.27-4.17.77 0 2.97-2.08 3.01-2.68-.01-.2-4.37-1.87-6.06-3.49-.91-.87-1.34-1.29-1.72-1.6-.21-.17-.43-.33-.65-.47-.58-1.97-.6-3.95-.07-5.93-2.33 1.1-4.34 2.6-6.03 4.51-.99-1.22-.93-5.23-.87-6.07-.3.11-.58.26-.84.43-.88.61-1.69 1.28-2.44 2.03-.86.84-1.64 1.75-2.34 2.72a19.8 19.8 0 0 0-3.36 7.34l-.04.16c-.04.21-.25 1.29-.28 1.53-.2 1.12-.32 2.24-.37 3.37v.13c0 1.5.14 2.99.43 4.47s.72 2.91 1.29 4.31c.56 1.4 1.25 2.74 2.08 4.02.82 1.27 1.76 2.46 2.81 3.57 1.05 1.1 2.2 2.11 3.44 3.01q1.86 1.35 3.96 2.34c1.39.66 2.83 1.19 4.33 1.59 1.5.41 3.02.67 4.56.8a26.08 26.08 0 0 0 9.19-.9c1.49-.42 2.93-.98 4.31-1.66s2.69-1.48 3.92-2.4q1.845-1.38 3.39-3.06c1.03-1.12 1.95-2.33 2.75-3.61.8-1.29 1.48-2.64 2.02-4.05s.95-2.85 1.21-4.33c.04-.31.08-.62.11-.94q.795-6.285-1.62-12.18"/></svg>