<svg xmlns="http://www.w3.org/2000/svg" width="50" height="50" fill="none" viewBox="0 0 50 50"><defs><linearGradient id="a" x1="-8.715" x2="41.725" y1="9.787" y2="36.703" gradientUnits="userSpaceOnUse"><stop offset="0" stop-color="#fac017"/><stop offset=".909" stop-color="#e1ab2d"/></linearGradient><linearGradient id="b" x1="5.273" x2="19.132" y1="9.727" y2="29.878" gradientUnits="userSpaceOnUse"><stop offset="0" stop-color="#fbfef3"/><stop offset=".909" stop-color="#e2e4e3"/></linearGradient><linearGradient id="c" x1="1.087" x2="22.826" y1="20.556" y2="20.556" gradientUnits="userSpaceOnUse"><stop offset="0" stop-color="#fbfef3"/><stop offset=".909" stop-color="#e2e4e3"/></linearGradient><linearGradient id="d" x1="17.245" x2="47.788" y1="43.097" y2="43.658" gradientUnits="userSpaceOnUse"><stop offset="0" stop-color="#e3a917"/><stop offset=".464" stop-color="#d79c1e"/></linearGradient><linearGradient id="e" x1="-6.39" x2="38.009" y1="13.627" y2="33.642" gradientUnits="userSpaceOnUse"><stop offset=".34" stop-color="#ffefb2"/><stop offset=".485" stop-color="#ffedad"/><stop offset=".652" stop-color="#ffe99f"/><stop offset=".828" stop-color="#fee289"/><stop offset="1" stop-color="#fed86b"/></linearGradient><radialGradient id="f" cx="0" cy="0" r="1" gradientTransform="matrix(-58.5598 0 0 -59.8611 40.04 54.241)" gradientUnits="userSpaceOnUse"><stop offset=".199" stop-color="#fec832"/><stop offset=".601" stop-color="#fcd667"/><stop offset=".68" stop-color="#fdda75"/><stop offset=".886" stop-color="#fee496"/><stop offset="1" stop-color="#ffe8a2"/></radialGradient></defs><path fill="url(#a)" d="M47.283 45H2.717C1.217 45 0 43.757 0 42.222V7.778C0 6.243 1.216 5 2.717 5h12.606c1.65 0 3.212.767 4.243 2.086l2.717 3.47h25c1.5 0 2.717 1.243 2.717 2.777v28.89C50 43.756 48.784 45 47.283 45"/><path fill="url(#b)" d="M1.087 27.222h21.74V11.667H3.26c-1.201 0-2.174.994-2.174 2.222z"/><path fill="url(#c)" d="M1.087 28.333h21.74V12.778H3.26c-1.201 0-2.174.994-2.174 2.222z"/><path fill="url(#d)" d="M0 41.528v.694C0 43.757 1.216 45 2.717 45h44.566c1.5 0 2.717-1.243 2.717-2.778v-.694z"/><path fill="url(#e)" d="M47.283 11.667h-25l-1.345.915a7.5 7.5 0 0 1-4.22 1.307h-14C1.215 13.889 0 15.132 0 16.667V41.11c0 1.535 1.216 2.778 2.717 2.778h44.566c1.5 0 2.717-1.244 2.717-2.778V14.444c0-1.534-1.216-2.777-2.717-2.777"/><path fill="url(#f)" d="M47.283 43.889H2.717C1.217 43.889 0 42.646 0 41.11V17.778C0 16.243 1.216 15 2.717 15h14.41c1.501 0 2.97-.454 4.22-1.307l1.343-.915h24.593c1.5 0 2.717 1.243 2.717 2.778V41.11c0 1.535-1.216 2.778-2.717 2.778"/></svg>