<svg xmlns="http://www.w3.org/2000/svg" width="50" height="50" fill="none" viewBox="0 0 50 50"><path fill="#e58b0a" d="M0 14.655V2.586A2.586 2.586 0 0 1 2.586 0H14.82a4.3 4.3 0 0 1 2.759 1l2.774 2.311a4.3 4.3 0 0 0 2.76 1h24.302A2.586 2.586 0 0 1 50 6.896v7.758z"/><path fill="#fff" d="M4.31 12.931v-2.586a2.586 2.586 0 0 1 2.587-2.586h36.207a2.586 2.586 0 0 1 2.586 2.586v2.586z"/><path fill="#ffb90b" d="M47.414 12.069H2.586A2.586 2.586 0 0 0 0 14.655v27.586a2.586 2.586 0 0 0 2.586 2.587h44.828A2.586 2.586 0 0 0 50 42.24V14.655a2.586 2.586 0 0 0-2.586-2.586"/><path fill="#394263" d="M16.608 40.517a1.72 1.72 0 0 0-1.558.986l-2.882 6.074A4.11 4.11 0 0 1 8.427 50a4.133 4.133 0 0 1-4.112-4.316c.474-10.9 2.723-18.13 4.569-21.872a7.12 7.12 0 0 1 6.388-3.984h19.456a7.12 7.12 0 0 1 6.386 3.984c1.848 3.741 4.097 10.972 4.569 21.872A4.133 4.133 0 0 1 41.573 50a4.11 4.11 0 0 1-3.741-2.423l-2.882-6.074a1.72 1.72 0 0 0-1.558-.986z"/><path fill="#232944" d="M18.104 27.586h-2.587V25a.863.863 0 0 0-1.724 0v2.586h-2.586a.862.862 0 0 0 0 1.724h2.586v2.587a.862.862 0 1 0 1.724 0V29.31h2.587a.862.862 0 1 0 0-1.724"/><path fill="#e23d4a" d="M35.345 32.759a.86.86 0 0 1-.862-.863v-.861a.862.862 0 1 1 1.724 0v.861a.86.86 0 0 1-.862.863"/><path fill="#ffb90b" d="M35.345 26.724a.86.86 0 0 1-.862-.862V25a.862.862 0 0 1 1.724 0v.862a.86.86 0 0 1-.862.862"/><path fill="#5488e2" d="M38.793 29.31h-.862a.862.862 0 1 1 0-1.724h.862a.862.862 0 0 1 0 1.724"/><path fill="#1ead6f" d="M32.759 29.31h-.862a.862.862 0 1 1 0-1.724h.862a.862.862 0 1 1 0 1.724"/><path fill="#232944" d="M22.414 37.931H20.69a.862.862 0 1 1 0-1.724h1.724a.862.862 0 0 1 0 1.724m6.896 0h-1.724a.862.862 0 0 1 0-1.724h1.724a.862.862 0 1 1 0 1.724"/></svg>