<svg xmlns="http://www.w3.org/2000/svg" width="51" height="50" fill="none" viewBox="0 0 51 50"><path fill="#fff" d="m2.048 19.365.37.527c-.74-.022-1.516-.09-1.667-.393l.01-.045c.415-.104.771-.11 1.287-.09m3.942 1.603.179.52-.418.017.1-.531zm1.428 3.802c-.37.326-.658.544-.878 1.036-.307-.238-.465-.714-.563-1.246-.107-.578-.144-1.222-.226-1.704l.026-.246.43-.03 1.095 1.98zm-.556-4.878a118 118 0 0 1 .17-1.067l.14-.008q-.157.538-.31 1.075m-.298-4.838 1.965.51-.008.084c-.915.642-1.76.928-2.214 2.094l.171-2.598zm1.835-2.688c-.129 1.207.051 1.743.272 2.492.35.24.488.381.374.733-.59-.278-1.213-.57-2.115-.525l-.068-.071c.255-.954.747-1.539 1.13-2.294zm2.822-1.608.085-.005c-.27.89-.379 2.947-.853 3.763-1.12-.506-1.098-2.699.156-3.565zm-1.043 6.603.943.978c-.37 1.088-1.072 1.908-1.367 3.166l-.559-.04c-.475-1.269.716-3.336.918-4.26l.873.096.32.782zm2.58-6.608c-.095 1.055.148 1.602.215 2.421l-1.667.805c.14-1.347.425-2.234.814-3.181zm.647-1.606.124-.007q-.092.258-.188.515l-.368.022.285-.32zm.124 4.927-1.667.98c.034-.594.825-1.391 1.486-1.613l.151.079zm1.11-3.705-.3 1.635-.311.187-.165.175c-.302-.406-.377-1.398-.313-2.151zm1.112-1.228-.007.053-.426.39c-.282.103-.318.1-.678.088q.074-.267.151-.532zm1.111-2.152-.496 1.075-1.726-.119.008-.087c.71-.313 1.332-.684 2.214-.869m-.897 2.79.183-.102.159.538-.556-.104zm1.453 1.592c-.662.245-1.577.178-2.106.457q-.057-.323-.117-.646.175-.214.346-.43l1.68.63zm-1.421.967-.755.028q-.023-.114-.047-.228c.531-.206 1.423-.226 2.223-.31l-.844.444zm1.976 0c-.636.15-1.246.686-1.662 1.103-.081-.486.899-1.345 1.368-1.613.209.177.23.158.294.51m1.111-6.424-.008.085-.668.384-.99.069.01-.085zm-.898 1.613-.213-.301c.5-.404 1.608-.181 2.222-.122zm4.971-1.584c.93.073 1.778.283 2.422.667l.172-.01q-.052.07-.103.139l-.888.25-1.603-.22-3.517-.48q.004-.034.009-.067c1.137-.252 2.381-.367 3.508-.279m3.696-.283-.197.254a2.76 2.76 0 0 1-1.46-.538l1.666.203q-.004.04-.009.08m2.959 1.987.461-.167q.239.196.478.394c-.065.447-.518.814-.864 1.25l-.267.016c-.725-1.144-1.64-2.399-3.243-2.84l-.07-.136.648-.25c1.089.363 1.997.913 3.009 1.231.13.3.09.2-.152.502m1.341 2.549-.126-.12-.276.02q.229-.21.46-.419-.03.26-.058.519m.49 5.933c.752.621.944 1.52.63 2.688q-.482-1.038-.967-2.078.16-.23.317-.462.01-.075.02-.148m.219-4.833q-.004.05-.009.1l-.395.432q-.075-.143-.152-.286c.237-.406.067-.188.377-.231zm.462-.006 1.76.623q-.006.084-.016.168l-.444.285-1.762-.622.016-.169zm3.427 2.15-.975-.618-.136-.25c.423-.248.362-.236.81-.153zm.556-.204-.196.205c-.238-.116-.28-.265-.36-.538l.51.211zm-.415-1.537-.141.01q.228-.21.462-.419-.163.204-.321.409m2.637 2.704-.271.113-1.488-.797q-.232-.3-.463-.603c.77-.544.797.086 1.524.429q.348.43.698.858m.555.473-.555-.192.335-.168zm-.676.867c.201.387.2.277.676.22l-.854.704-.812-1.483q.004-.045.01-.092c.599-.123.793.084 1.378.166l.227.347zm.12.965 1.112-.579c-.223.478-.512.725-.856 1.075zm2.223 2.052c-.3.248-.496.328-1.067.373l.459.048-.01.078-1.565.633-.04-1.917 1.08-1.22.197-.088zm-.556-2.94c3.068-.818 2.475.736 1.106 1.922zm2.778.309c-1.13 5.071-1.348 5.348-5.345 7.527l-.21-.302.14-.566c2.608-.71 4.09-2.013 3.936-4.965L42.8 16.22zm.136 0-.136-.526.416-.012zm-6.802 4.931.039-.56.033-.48.386-.122q.029-.002.054-.006c.109.634.001 1.105-.22 1.613-.187-.113-.223-.162-.292-.445m-2.223 4.705.01-.093.728-1.665q.075-.176.154-.351l1.282.082q.03.139.04.269c.056.632-.173 1.139-.41 1.8zm.556 2.158.016-.832.02-.21.938.068.137-.01q-.323.508-.642 1.018zm-.55-3.48.056-.027.445-.218.049-.005-.067.223-.257.853-.232-.76zm-.867 2.678-.25-.24c.245.163.085.005.25.24m-1.361-.64c.312-.188.65-.13 1.111-.123l-.136.429c-.38.145-.434.091-.866.05zm.68 2.013.431.97-.998.644c-.297-.388.027-1.48.567-1.614m-1.096-3.374-.14.01.183-.399q-.02.195-.043.39m1.6.149-.073-.045.244-.49.081-.003.23.516zm3.846-6.99-.03-.181c.146-.17.24-.276.491-.356l.065.318-.323.206zm-.03 1.314c-.1.126-.278.197-.405.3q-.076-1.344-.15-2.689zm-1.02 3.603c.369-.195.42-.015.465.46q-.556 0-1.111-.003l.018-.166zm-.544-1.487.25-.204.203.347-.094.19-.461-.05zm-.102 1.426-.58.52-.377-.059-.154.014.27-.492zm-2.097-.305c-.231-.154-.063-.133-.108-.25zm1.752-2.4-1.878-.93c.087-1.228.246-2.64.118-3.909 1.448.502 2.745 2.749 1.76 4.839m-1.322 0c.462.232.435.446 1.076.633.112.398-.058.555-.325.98l-.68-.027c-.14-.707.011-1.114-.071-1.586m.127 3.475c-.233-.154-.066-.133-.11-.25q.054.127.11.25m3.762-5.174.005-.099.5-.353c.09.55.056 1.467-.076 2.151-.295-.222-.35-1.156-.43-1.7m0 1.698q.169-.267.335-.537-.1.264-.195.528zm3.24-1.607.093-.005c.026 2.06-1.305 2.434-3.055 3.21l-.278.016 1.09-2.157zM37.363 14.8q.028.08.054.16l-.14.095-.416-.538zm-.502.894c.008-.031.01-.063.015-.094l.123-.008.418.538c-.322-.147-.375-.183-.556-.436m.556 1.374-.75.675q-.806-1.114-1.61-2.23l-2.085-1.728q.232-.171.46-.343c1.01.417 2.776 1.211 3.131 2.203.116.322-.282.589-.011.859.322.319.644.091.865.564m-4.69 3.363.17.064.075 1.549-.26-.058c-.244-.171-.415-.972-.191-1.32zm-1.23 2.695.18-.007q.091.21.184.42l-.286.107-.27.01q.098-.264.192-.53m-.508 8.596q-.12-.393-.24-.785l1.028-.285.084-.006-.009.074zm-.795-2.151c.102-.315.176-.363.36-.538l.154.056.042.14-.342.321zm.262.538-.262-.275.556-.263-.145.529zm-.586 2.44-.231-.183.171-.01.857-.634.083.646-.657.429zm.043 6.155c-1.338.055-2.136-.27-3.23-.362l-1.249-2.36-.24-.237c2.1-.238 3.42-1.205 4.974-1.873.551.498 1.798 3.045.7 4.173-.261.386-.557.424-.956.66m-5.744-2.65.504-.032c.756.484 1.272 1.353 1.633 2.15l-2.223-.612c.165-.538.235-1.084.086-1.507m-1.596-2.03 2.502-.69 3.937.368.071.19c-1.172.503-2.506.927-3.85 1.577-1.457.111-1.807-.408-2.816-.75q.08-.347.156-.695m-.156 2.533.05-.466.958-.069c.078.406.162.632.044 1.076zm-1.111.842q.185-.098.372-.197c.456-.288.8.097 1.294.248l-.197.185zm1.078-.84q-.18-.076-.361-.156l-.162-.38.556.033zm-1.634 0 .555.456c0 .281-.026.25-.092.62zm-1.441-2.015c.521-.15 1.217-.117 1.997-.134l-.726.537-1.497-.14zM17.973 7.6c1.031-.94 3.62-.66 4.269-.062l.176-.015c-.864.768-2.2.857-3.02 1.617-.644-.41-1.176-.672-1.425-1.54m5.675 1.54.436.473c-.389.022-.798.044-1.205.077-.92.074-1.828.205-2.463.52l-.081.005-.14-.206a8.2 8.2 0 0 1 3.37-.864zm2.164-2.688c.718.688 1.791 1.095 2.161 2.15-1.508-.669-3.825-.66-5-1.723 1.037.21 1.917.133 2.839-.427m.495 3.763 2.06.27.162-.013-1.653 1.356c-.259-.498-.322-1.173-.57-1.613m2.647 2.3-.425-.062.555-.087zm-.425-1.285.509-.477.046.537q-.183-.037-.368-.077-.094.008-.187.017m1.008 17.793-.244.01-.209-.189.161-.203.395-.147zm-.443.98.205-.225.017-.208.324.491-.556.047zm-.22 1.718-.345-.395 1.11-.143-.529.522zm.21 1.612-1.11-.127.782-.41q.165.268.328.537m-.779-1.517.224.204-.805.198-.862.04 1.202-.538q.12.049.241.096m-3.11-23.214c.65.017 1.335.174 1.667.538-.448-.043-1.252.026-1.455-.303q-.104-.117-.212-.235m.565 2.15c.317.265.428.577.37 1.076-.49-.161-.361-.673-.37-1.075m.547 3.39q.008-.045.017-.092c1.107-.23 1.346.137.842.466-.436-.057-.635-.214-.86-.374m1.423 13.815.243.058-.009.074-.546.405.227-.531zm-.306-13.113.413-.328.136.538-.555-.117zm1.66 14.376-1.342.334-.324.016.008-.054c.504-.094.826-.253 1.124-.484l.47.084zm-.958-1.263q-.076-.15-.153-.298l.383-.24.173.089-.22.433zm-3.486 3.718.661-.492 2.048.168.069.145-1.383.762c-.512-.08-.956-.298-1.222-.595q-.086.007-.173.012m-1.029.046 1.029.537-1.667-.28zm-.082 1.097-.007.13-.317.169q-.116.013-.232.028l.009-.13c.242-.307.2-.204.547-.197m-2.62-21.88-.158-.161c.551-.288 1.422-.424 2.278-.49.706-.055 1.4-.063 1.897-.072l.27 1.613c-.725-.076-1.42-.166-2.167-.2a12 12 0 0 0-1.937.069q-.09-.38-.183-.76m.817 21.573.136.227-.13.483-1.537.112c.165-.48.41-.71.674-1.075zm-1.894-1.866c-.698-.037-1.656-.525-1.859-1.075l2.222.54q-.18.268-.363.535m.78-.028-.417.028q.008-.063.015-.127.23-.207.462-.41zm-1.528-19.661.676-.203.435.52-.456.017zm-.008 23.084-.105.352q-.081.006-.162.017l-.28-.538.555.054zm.309-2.32q.648.126 1.295.25l.071.169q-.503.597-1.007 1.194l-1.215-.17zm9.7-16.848.25-.352.09-.004.698.168.072.095-.78.275zm1.502-1.738-.392-.23c.4.139.17-.018.392.23m-.126 2.457-.266-.215.556-.322zm-.266 3.764.864.204c.232.087.227.11.247.333-.37-.136-.992-.23-1.11-.537m.085-1.465.12-.148.35.537-.555-.103zM19.027 35.58l.057.14-.748.274-.363.027.008-.073.255-.382c.355-.156.363-.054.79.013m-1.61-26.978c.486.343.61.769.536 2.15-.32-.39-.512-1.216-.535-2.15m.32-1.075-.042.39-.277.018q.158-.203.32-.408m-.32.537q-.02.195-.042.39l-.513-.092.423-.288zm0 31.183.275-2.737 1.948-.489-2.047 3.128zm.138-7.357.299-.17c.272.31.028.754-.228 1.076-.215-.193-.239-.312-.182-.747zm-1.804-.262.64-.983 1.027.575q-.529.788-1.06 1.576c-.32-.27-.515-.67-.607-1.168m0 4.21q.512-.445 1.023-.892l.485.042q.079.125.159.25l-.123.783q-.772-.09-1.544-.183m-1.667-.73 1.222-.7.93.14q.036.06.07.122l-.978.814c-.49-.049-.815-.173-1.07-.385zm-.162-1.039.446-.198.192.04.08.088-1.295.41-.372-.125zm-1.504-.505.326-.756c.609-.075.752.211 1.207.392q.066.096.133.192l-.68.444-.552.035zm-1.111 2.207q.403-.682.808-1.362c.537-.001.601.041.823.312.097.157.013.073-.201.108q-.026.235-.05.47.422.061.842.125c-.165.392-.191.34-.442.59-.827.043-1.202-.108-1.78-.243m-.936-1.9 1.412.406q.038.08.08.16l-.908 1.047-1.315-.412zm-5.442-1.453q.008-.08.018-.16l.788.58.068.153c-1.64 1.207.867 5.146 3.721 2.595l1.227.47c-.472.803-1.283 1.12-2.136 1.572-2.04.163-4.896-3.017-3.686-5.21m1.903.55.03.365-.453-.326q-.052-.105-.102-.211zm2.808 2.284-1.016.75c-1.998.2-2.808-1.12-2.873-2.744l.389-.45.171-.012c1.007.757 1.896 1.91 3.262 2.293zm-1.936-7.833c-.182-.127-.194-.187-.286-.4l.38-1.379.445-.371.286.4zm-.286.465.877-1.977.18-.1c.403.679.987.987 1.165 1.909l-1.32 1.316c-.41-.286-.694-.66-.902-1.148m1.666 1.644 1.115-1.034q.275.538.552 1.076-.832-.022-1.667-.042m2.778-10.863c-.527 1.073-1.227 1.803-1.646 2.84-.183-.943.92-2.3 1.277-3.133q.084-.045.169-.093zm0-2.957c.825-.245 1.38-.692 1.972-1.192l.25.719q-.35.446-.7.894zm2.778.054-.301.367-.255-.04.007-.06q.253-.218.504-.438zm-.438-2.316.088-.005.35.704q-.068.186-.133.371c-.508-.254-.487-.555-.305-1.07m-.103 15.586.513.35-.528-.22q.007-.066.015-.13m-.008.538.549.227-.01.065c-.39.261-.785.522-1.177.783-.339-.144-.38-.433-.48-.75l.009-.066zm-1.646-1.076.528.203q-.14.08-.282.158l-.273.029zm-.027-10.752c.667.18.456.06.485.537-.307-.17-.328-.252-.485-.537m0 9.604.046-.464c.259.171.347.274.51.537q-.28-.038-.556-.073m1.11-6.715c-.208.257-.199.186-.555.337l.244-.538zm0-2.161-.348.347c-.35-.189-.184-.114-.027-.461l.208-.077zm-.044-.915-.51-.35c.393.143.302.055.51.35m-1.066 9.864.555.423c-.284-.007-.435-.065-.555-.423m1.666-.02-.226.02-.194-.343-.135-.167.3-.027zm-.306-9.955-.25-.24c.245.163.083.004.25.24m.034 8.854-.283-.563.12-.462.07-.004.365 1.075zm-1.455 6.255.06.072-.198.708c-.41-.156-.828-.56-.912-1.075zm-1.606.78.556.47c-.356-.148-.378-.142-.556-.47m.959-4.765q.033.233.067.464l-.47-.538zm-.55 2.513-.409-.973c.485.178.865.71 1.111 1.075zm.437-9.571.139-.005q-.203.27-.407.538c-.067-.133.014-.26.24-.416zm-.29 4.62-.112.214-.32-.236q-.061-.129-.124-.256l.435-.046zm-3.89 4.515c1.114.692 3.005 1.333 3.334 2.688-1.29-.586-2.549-1.64-3.333-2.688m2.888-.52.446.52q-.555-.27-1.111-.537.333.008.665.018m4.068 1.596-.844-.811 1.476-1.34.19 1.474zm.822.898.148-.35q.097-.007.196-.01l.212.537q-.277-.09-.556-.177m.75-1.974-.194-.537.403.07zm-.75-18.104.006-.047.55-.128-.384.537zm-5.6 11.115-.51-1.075c.652.136.548.58.51 1.075m-1.362.538c-.474-.316-.778-.94-.815-1.613.974.22.921.586 1.11 1.435zm-.574-2.806c-.708-.639.324-3.2.778-3.788.239-.289.541-.284.94-.396l.263.066c-.668 1.128-1.119 2.664-1.278 4.235zm-1.037 8.72.34.545q-.15.337-.304.676l-.174.177c.247.033.303-.171.676-.46.72 1.116 1.821 2.18 3.035 2.787l-.663 1.113-2.006-1.234c-.23-.406.087-.872-.282-1.12-.334-.226-.766.1-1.105.002l-.944-.826c.277-.59.544-1.17 1.093-1.472zm-1.92-5.929c.07-.528.19-1.075.325-1.592l.076-.006.29 1.598.15.836 1.32 3.48c-1.055-.552-1.71-1.824-1.615-3.537-.254.553-.043 1.422.04 1.908-.65-.524-.732-1.567-.587-2.687m-.964.552a1.9 1.9 0 0 1-.188-.648 4 4 0 0 1 .01-.904l.095-.192.43-.406-.243 1.503zm38.68 5.377-1.111-.41 1.078-.128zm-29.4 8.75.29-.148q-.167.268-.335.536zM4.64 20.43l-.474-.044c-.588-.183-1.143-.84-1.193-1.569.902.078 1.207.485 1.653.983zm-.066-.045c.065-1.16-.863-1.884-2.068-1.853.207-1.63 1.69-2.464 3.014-3.011l.255-.018c-.222 2.046-.054 3.808-.855 5.578-.592 1.304-2.689 1.28-2.574 3.29q.004.081.014.169c.299 2.675 3.347 3.22 3.768 5.572-4.517 2.192.99 11.41 4.563 5.996.64.087 1.21.365 2.006.098.37-.196.443-.354.587-.762l1.276.63.068.155c-1.171.867-1.996 2.055-3.252 2.87l.12-.33-.33-.056q-.09.046-.179.093-.081.364-.164.73c.717.699 2.893-1.831 3.53-2.328-.36 1.203-1.25 1.821-1.744 2.922l.152.15c.938-.642 2.09-2.458 2.264-3.84l1.405.222c-1.762 2.274-6.286 7.274-8.664 8.608.36-1.085.938-1.914 1.229-2.805l-.17.011-.152-.149c-.578 1.088-1.533 1.851-1.703 3.318.12.18.25.276.38.374 2.828-.45 7.55-7.237 9.808-9.09-.611 5.853-3.897 6.767-6.747 10.313 2.59-1.233 4.16-4.379 6.377-6.127-.245 2.447-.854 7.914-2.39 8.885l.255-.018c1.72-1.02 1.82-5.219 2.394-7.366q.12-1.128.244-2.255l2.457-3.293q.089-.047.178-.093c.275.823 1.519 1.716 2.866 1.477l.966-.387q1.216.432 2.427.867c.319 3.332.197 5.2-2.013 7.739 2.258-1.102 3.088-5.349 2.336-7.601 5.25.58 5.04-1.112 4.044-4.764l.924.015c-.17-.244-.63-.062-.982-.25-.16-.098-.128-.08-.228-.225 1.25-1.344 4.255-.008 3.626 2.224.862-1.852-1.047-3.497-2.887-2.835.786-.89 1.737-1.62 2.235-2.797q.09-.046.179-.093 2.16 2.168 4.322 4.333l.254-.017.195-.254-4.118-4.667q.22-.097.442-.192a.92.92 0 0 1 .761-.253l-.219-.105c2.209.212 5.026 1.968 7.33 1.402.212-.352.222-.544.094-.886 2.453.059 6.867-.725 8.271-1.863-3.773.757-8.026 1.014-11.493.57q-1.535-.17-3.071-.342l-.171.012.826-1.418c2.533-.044 9.17-.106 10.513-1.621l-.295-.38-1.159-.158c-.1.141-.113.275-.13.41l.916.095c-1.99.479-7.532 1.488-9.343.899-.19-.22-.05-.986-.041-1.538q.005-.166-.012-.297c2.6-.743 4.532-2.412 5.324-4.934.452-1.442.152-3.339 1.13-4.238.626.052.752.303 1.21.474-.243-.322-.589-.5-1.023-.647l-.814.537c-.745.275-1.524-.445-2.787.116-1.025-.837-1.604-2.161-2.989-2.667l-.143-.23q.84-.78 1.682-1.559c-.552.44-1.112.959-1.673 1.478l-1.126-.48q-.032-.079-.066-.155c1.282-.868 2.42-1.19 3.881-.914l.21.385c-.068.112-.128.142-.186.173l-.492-.126c.212.12.433.157.653.195q.092-.087.185-.173l.028-.242c-.32-.272-.416-.467-1.042-.486l.3-.421c-.718.47-2.17.595-2.883 1.003l1.646-1.236.196-.254-3.045 1.735c-.65-.044-1.341-.334-1.692-.681l-.17.012 3.615-2.334-.058-.236-4.114 2.29-1.312-.308.122-1.128 9.421-7.062.17-.012-.135-.31c-.35-.16-1.783.95-2.325 1.283-2.085 1.278-3.93 2.867-5.982 4.021.847-1.027 2.399-2.05 2.654-3.546l-.416-.05-.644.525.703-.29C34.85 4.899 32.792 7.254 31.634 8l-.136-.31c.755-1.214 1.499-2.843 1.15-4.4l-.635-.355q-.338.026-.678.048c.434.165.73.205 1.048.406.205 1.51-.574 2.529-.993 3.749q-.09.045-.178.093c-.28-.493-.262-.731-.836-.821l-.05-.317q.195-.254.392-.507l.271-.18c.092.165.096.107.125.392.1-.14.114-.275.128-.41l-.32-.136-.85.86c-.71-.454-1.49-.93-2.486-1.105.563-1.12 2.282-2.919 1.394-4.337-1.081-1.724-4.776.264-6.128 1.632a2.6 2.6 0 0 0-.407.509c.086-.067.226-.172.407-.3 1.334-.951 4.89-3.225 5.66-1.407.808 1.015-.74 2.967-1.162 3.76-1.44-.14-2.947-.271-4.496-.242-1.565.03-3.174.224-4.803.738-.788.248-4.138 2.164-4.266 2.14l-1.529-1.412L9.06 4.555l-.017.161-.187.173 4.095 3.31-.626.364c-1.684-1.219-2.845-1.96-5.353-2.581l-.422.03c1.464.962 2.938 1.845 4.411 2.727l.296.38c-1.052.423-1.497 1.301-2.386 1.847-1.389-.634-2.673-1.206-4.356-1.693l-.119.33 3.153 1.936.169-.012-.542.358c-.252.807-.744 1.742-1.153 2.88-1.571 1.221-3.608 1.148-3.923 3.636-.501.131-.858.173-1.314.492l-.035.323c.286.385 2.839 1.415 3.45 1.515q.188-.172.373-.346m18.64-17.2.231.04-.312-.036-.16.008c.246-.439.97-.547 1.667-.498l-.049.315-1.361.066zm.972.578.656-.205c.283-.45.444-.926.3-1.362-.674-.128-1.063.03-1.694.282q-.172.27-.342.537-.067.104-.133.207.064.07.133.125c.213.168.47.227.945.19.129.21-.02.117-.255.177zm16.158 4.84-.704.125.433-.029.495.203-.75 1.313c.385-.435.77-.744.933-1.404zM36.307 29.57c-.176-.296-.367-.492-.556-.538.17.152.364.33.556.538m-2.223 6.451q-.277.156-.555.308l.427-.038zm2.223-6.451c.564.61.988 1.775.866 2.688.64-1.323-.09-2.148-.866-2.688"/></svg>