<svg xmlns="http://www.w3.org/2000/svg" width="50" height="50" fill="none" viewBox="0 0 50 50"><path fill="#ffd21e" d="M24.85 45.21a18.45 18.45 0 0 0 7.56-1.63c1.2-.54 2.33-1.19 3.41-1.97a20 20 0 0 0 2.99-2.66q1.38-1.485 2.46-3.24c.72-1.17 1.33-2.4 1.82-3.7a22.7 22.7 0 0 0 1.51-8.18c0-1.4-.13-2.79-.38-4.17a23 23 0 0 0-1.13-4.01c-.49-1.29-1.1-2.53-1.82-3.69q-1.08-1.755-2.46-3.24a19.3 19.3 0 0 0-2.99-2.66c-1.08-.78-2.21-1.44-3.41-1.98-1.2-.53-2.43-.94-3.71-1.21-1.27-.28-2.55-.41-3.85-.41-1.29 0-2.58.13-3.85.41-1.27.27-2.5.68-3.7 1.21q-1.8.81-3.42 1.98c-1.07.78-2.07 1.66-2.99 2.66-.91.99-1.73 2.07-2.45 3.24-.72 1.16-1.33 2.4-1.83 3.69-.49 1.3-.87 2.64-1.12 4.01-.25 1.38-.38 2.77-.38 4.17 0 1.41.13 2.8.38 4.17.25 1.38.63 2.72 1.12 4.01.5 1.3 1.11 2.53 1.83 3.7s1.54 2.25 2.45 3.24c.92.99 1.92 1.88 2.99 2.66 1.08.78 2.22 1.43 3.42 1.97s2.43.94 3.7 1.22c1.27.27 2.56.41 3.85.41"/><path fill="#ff9d0b" d="M44.6 23.83c0-1.4-.13-2.79-.38-4.17a23 23 0 0 0-1.13-4.01c-.49-1.29-1.1-2.53-1.82-3.69q-1.08-1.755-2.46-3.24a19.3 19.3 0 0 0-2.99-2.66c-1.08-.78-2.21-1.44-3.41-1.98-1.2-.53-2.43-.94-3.71-1.21-1.27-.28-2.55-.41-3.85-.41-1.29 0-2.58.13-3.85.41-1.27.27-2.5.68-3.7 1.21q-1.8.81-3.42 1.98c-1.07.78-2.07 1.66-2.99 2.66-.91.99-1.73 2.07-2.45 3.24-.72 1.16-1.33 2.4-1.83 3.69-.49 1.3-.87 2.64-1.12 4.01-.25 1.38-.38 2.77-.38 4.17 0 1.41.13 2.8.38 4.17.25 1.38.63 2.72 1.12 4.01.5 1.3 1.11 2.53 1.83 3.7s1.54 2.25 2.45 3.24c.92.99 1.92 1.88 2.99 2.66 1.08.78 2.22 1.43 3.42 1.97s2.43.94 3.7 1.22c1.27.27 2.56.41 3.85.41a18.45 18.45 0 0 0 7.56-1.63c1.2-.54 2.33-1.19 3.41-1.97a20 20 0 0 0 2.99-2.66q1.38-1.485 2.46-3.24c.72-1.17 1.33-2.4 1.82-3.7a22.7 22.7 0 0 0 1.51-8.18m-41.76 0q0-2.34.42-4.65c.28-1.53.7-3.02 1.25-4.47.56-1.45 1.23-2.82 2.04-4.12.8-1.3 1.71-2.51 2.73-3.61 1.03-1.11 2.14-2.1 3.34-2.97s2.47-1.6 3.81-2.2c1.33-.6 2.71-1.05 4.13-1.36a20.7 20.7 0 0 1 8.59 0c1.42.31 2.79.76 4.13 1.36 1.33.6 2.6 1.33 3.8 2.2 1.21.87 2.32 1.86 3.34 2.97 1.02 1.1 1.94 2.31 2.74 3.61s1.48 2.67 2.03 4.12c.56 1.45.97 2.94 1.26 4.47a26 26 0 0 1 0 9.3c-.29 1.54-.7 3.03-1.26 4.47-.55 1.45-1.23 2.82-2.03 4.13-.8 1.3-1.72 2.5-2.74 3.61-1.02 1.1-2.13 2.09-3.34 2.96-1.2.87-2.47 1.61-3.8 2.21-1.34.59-2.71 1.05-4.13 1.35-1.42.31-2.85.46-4.3.46-1.44 0-2.87-.15-4.29-.46-1.42-.3-2.8-.76-4.13-1.35-1.34-.6-2.61-1.34-3.81-2.21s-2.31-1.86-3.34-2.96a23.6 23.6 0 0 1-2.73-3.61 25 25 0 0 1-2.04-4.13c-.55-1.44-.97-2.93-1.25-4.47q-.42-2.295-.42-4.65"/><path fill="#3a3b45" d="M31.27 18.02c.72.27 1.01 1.88 1.74 1.46.33-.19.62-.44.86-.76.24-.31.42-.66.53-1.05s.14-.79.11-1.2c-.04-.4-.14-.79-.32-1.15s-.41-.67-.7-.93-.62-.44-.98-.56-.73-.16-1.1-.12c-.38.03-.73.15-1.06.34-.34.19-.62.44-.86.76-.24.31-.42.67-.53 1.06s-.14.78-.11 1.19c.04.41.14.79.32 1.15.35.71 1.44-.44 2.1-.19m-13.38 0c-.73.27-1.02 1.88-1.75 1.46-.33-.19-.62-.44-.86-.76-.24-.31-.41-.66-.52-1.05s-.15-.79-.11-1.2c.03-.4.14-.79.32-1.15.17-.36.41-.67.7-.93a2.7 2.7 0 0 1 2.08-.68c.37.03.73.15 1.06.34s.62.44.86.76c.24.31.41.67.52 1.06s.15.78.11 1.19c-.03.41-.14.79-.32 1.15-.34.71-1.45-.44-2.09-.19"/><path fill="#ff323d" d="M24.71 32.78c5.59 0 7.39-5.39 7.39-8.16 0-1.44-.89-.98-2.33-.22-1.32.71-3.1 1.68-5.05 1.68-4.09 0-7.39-4.23-7.39-1.46s1.79 8.16 7.38 8.16"/><path fill="#3a3b45" fill-rule="evenodd" d="M20.43 31.37c.64-1.4 1.64-2.32 3.01-2.76.23-.08.46.35.71.78.23.42.46.85.7.85.26 0 .51-.42.76-.83.25-.43.5-.85.75-.77 1.27.43 2.22 1.29 2.84 2.56 2.12-1.81 2.9-4.76 2.9-6.58 0-1.44-.89-.98-2.33-.22l-.08.04c-1.31.71-3.06 1.64-4.98 1.64s-3.66-.93-4.98-1.64c-1.48-.79-2.41-1.29-2.41.18 0 1.88.83 4.96 3.11 6.75"/><path fill="#ff9d0b" d="M38.21 20.91c.51 0 .94-.19 1.3-.59q.54-.585.54-1.41t-.54-1.41c-.36-.39-.79-.59-1.3-.59s-.95.2-1.31.59q-.54.585-.54 1.41t.54 1.41c.36.4.8.59 1.31.59m-26.42 0c.5 0 .94-.19 1.3-.59q.54-.585.54-1.41t-.54-1.41c-.36-.39-.8-.59-1.3-.59-.51 0-.95.2-1.31.59q-.54.585-.54 1.41t.54 1.41c.36.4.8.59 1.31.59m-3.81 6.77c-.92 0-1.73.4-2.31 1.15q-.75 1.005-.75 2.31-.54-.18-1.11-.18c-.88 0-1.67.36-2.24 1.02a3.68 3.68 0 0 0-.9 2.07c-.08.8.07 1.54.45 2.23-.52.46-.85 1.04-1.02 1.74-.13.55-.27 1.72.46 2.91q-.9 1.485-.21 3.09c.58 1.43 2.03 2.55 4.84 3.75 1.74.75 3.35 1.23 3.36 1.24q3.045.915 6.21.99c3.33 0 5.71-1.11 7.08-3.29 2.2-3.5 1.89-6.71-.97-9.79-1.57-1.71-2.62-4.23-2.84-4.78-.44-1.64-1.61-3.46-3.55-3.46-1.11.02-1.98.52-2.62 1.51-.56-.77-1.12-1.38-1.62-1.73-.68-.5-1.43-.76-2.26-.78m0 2.46c.29 0 .65.13 1.04.4 1.21.83 3.55 5.18 4.41 6.87.28.57.78.81 1.21.81.88 0 1.57-.94.09-2.14-2.23-1.8-1.45-4.75-.39-4.93.05-.01.1-.01.14-.01.96 0 1.39 1.8 1.39 1.8s1.25 3.4 3.4 5.72c2.14 2.32 2.25 4.19.69 6.67-1.07 1.69-3.11 2.2-5.2 2.2-2.17 0-4.4-.56-5.64-.9-.06-.02-7.64-2.34-6.68-4.31.16-.33.42-.46.76-.46 1.35 0 3.81 2.17 4.87 2.17.23 0 .4-.1.47-.37.45-1.75-6.85-2.49-6.24-5.02.12-.45.41-.63.82-.63 1.78 0 5.8 3.4 6.64 3.4.06 0 .11-.02.13-.06.42-.74.19-1.25-2.78-3.2-2.96-1.94-5.05-3.11-3.86-4.51.13-.16.32-.23.56-.23 1.8 0 6.06 4.2 6.06 4.2s1.15 1.29 1.85 1.29c.16 0 .29-.06.38-.24.49-.89-4.58-5.05-4.86-6.77-.19-1.17.14-1.75.74-1.75"/><path fill="#ffd21e" d="M19.96 45.33c1.56-2.49 1.45-4.35-.69-6.67-2.15-2.32-3.4-5.72-3.4-5.72s-.47-1.97-1.53-1.79c-1.06.19-1.84 3.13.39 4.93 2.22 1.8-.45 3.03-1.3 1.34-.86-1.7-3.2-6.05-4.41-6.88s-2.06-.37-1.78 1.35 5.36 5.88 4.86 6.77c-.49.9-2.23-1.05-2.23-1.05s-5.44-5.36-6.62-3.97c-1.19 1.4.9 2.57 3.86 4.51 2.97 1.95 3.2 2.46 2.78 3.2s-6.97-5.25-7.59-2.7c-.61 2.52 6.69 3.26 6.24 5.01s-5.15-3.31-6.1-1.34c-.97 1.97 6.62 4.29 6.68 4.31 2.44.69 8.66 2.15 10.84-1.3"/><path fill="#ff9d0b" d="M42.01 27.68c.92 0 1.74.4 2.31 1.15q.75 1.005.75 2.31c.37-.12.73-.18 1.11-.18.88 0 1.68.36 2.24 1.02q.78.87.9 2.07c.09.8-.06 1.54-.44 2.23.51.46.85 1.04 1.01 1.74.13.55.27 1.72-.46 2.91q.9 1.485.21 3.09c-.58 1.43-2.03 2.55-4.83 3.75-1.75.75-3.35 1.23-3.37 1.24q-3.045.915-6.21.99c-3.33 0-5.71-1.11-7.08-3.29-2.2-3.5-1.89-6.71.97-9.79 1.58-1.71 2.63-4.23 2.85-4.78.44-1.64 1.6-3.46 3.54-3.46 1.11.02 1.98.52 2.62 1.51.56-.77 1.12-1.38 1.63-1.73q1.02-.75 2.25-.78m0 2.46c-.29 0-.65.13-1.04.4-1.21.83-3.55 5.18-4.41 6.88-.25.53-.66.8-1.21.8-.88 0-1.57-.94-.08-2.14 2.22-1.8 1.44-4.75.38-4.93-.05-.01-.09-.01-.14-.01-.96 0-1.39 1.8-1.39 1.8s-1.25 3.4-3.39 5.72c-2.15 2.32-2.26 4.19-.7 6.67 1.07 1.69 3.11 2.2 5.2 2.2 2.17 0 4.4-.56 5.65-.9.05-.02 7.64-2.34 6.68-4.31-.17-.33-.43-.46-.76-.46-1.36 0-3.82 2.17-4.87 2.17-.24 0-.41-.1-.47-.36-.46-1.76 6.84-2.5 6.23-5.03-.11-.45-.4-.63-.82-.63-1.78 0-5.8 3.4-6.64 3.4-.05 0-.1-.01-.13-.06-.42-.74-.19-1.25 2.78-3.2 2.97-1.94 5.05-3.11 3.86-4.51-.13-.16-.32-.23-.56-.23-1.8 0-6.06 4.2-6.06 4.2s-1.15 1.29-1.84 1.29q-.255.015-.39-.24c-.49-.89 4.58-5.05 4.86-6.77.19-1.17-.14-1.75-.74-1.75"/><path fill="#ffd21e" d="M30.03 45.33c-1.56-2.49-1.45-4.35.7-6.67 2.14-2.32 3.39-5.72 3.39-5.72s.47-1.97 1.53-1.79c1.06.19 1.84 3.13-.38 4.93-2.23 1.8.44 3.03 1.29 1.34.86-1.7 3.2-6.05 4.41-6.88s2.07-.37 1.78 1.35c-.28 1.72-5.35 5.88-4.86 6.77.49.9 2.23-1.05 2.23-1.05s5.44-5.36 6.62-3.97c1.19 1.4-.89 2.57-3.86 4.51-2.97 1.95-3.2 2.46-2.78 3.2s6.97-5.25 7.59-2.7c.61 2.52-6.68 3.26-6.24 5.01.46 1.75 5.15-3.31 6.11-1.34s-6.62 4.29-6.68 4.31c-2.45.69-8.67 2.15-10.85-1.3"/></svg>