<svg xmlns="http://www.w3.org/2000/svg" width="50" height="50" fill="none" viewBox="0 0 50 50"><defs><linearGradient id="a" x1="12.799" x2="40.398" y1="10.001" y2="45.055" gradientUnits="userSpaceOnUse"><stop stop-color="#ffa936"/><stop offset=".411" stop-color="#ff8548"/><stop offset=".778" stop-color="#ff6c54"/><stop offset="1" stop-color="#ff6359"/></linearGradient><linearGradient id="b" x1="48.087" x2="45.732" y1="15.758" y2="16.287" gradientUnits="userSpaceOnUse"><stop stop-color="#f82814" stop-opacity="0"/><stop offset="1" stop-color="#c0272d"/></linearGradient><linearGradient id="c" x1="8.845" x2="45.663" y1="14.158" y2="39.77" gradientUnits="userSpaceOnUse"><stop stop-color="#cdec7a"/><stop offset=".216" stop-color="#b0e995"/><stop offset=".561" stop-color="#87e4bb"/><stop offset=".835" stop-color="#6ee1d2"/><stop offset="1" stop-color="#65e0db"/></linearGradient><linearGradient id="d" x1="48.204" x2="44.18" y1="25.149" y2="25.149" gradientUnits="userSpaceOnUse"><stop stop-color="#cdec7a" stop-opacity="0"/><stop offset=".235" stop-color="#9ad57d" stop-opacity=".231"/><stop offset=".604" stop-color="#51b482" stop-opacity=".604"/><stop offset=".868" stop-color="#239f85" stop-opacity=".867"/><stop offset="1" stop-color="#119786"/></linearGradient><linearGradient id="e" x1="17.327" x2="17.327" y1="45.404" y2="43.063" gradientUnits="userSpaceOnUse"><stop stop-color="#cdec7a" stop-opacity="0"/><stop offset=".235" stop-color="#9ad57d" stop-opacity=".231"/><stop offset=".604" stop-color="#51b482" stop-opacity=".604"/><stop offset=".868" stop-color="#239f85" stop-opacity=".867"/><stop offset="1" stop-color="#119786"/></linearGradient><linearGradient id="f" x1="8.653" x2="39.975" y1="11.208" y2="43.101" gradientUnits="userSpaceOnUse"><stop stop-color="#f8f6fb"/><stop offset="1" stop-color="#efdcfb"/></linearGradient><linearGradient id="g" x1="11.056" x2="41.464" y1="10.187" y2="50.471" gradientUnits="userSpaceOnUse"><stop stop-color="#18cefb"/><stop offset=".297" stop-color="#2bb9f9"/><stop offset=".735" stop-color="#42a0f7"/><stop offset="1" stop-color="#4a97f6"/></linearGradient><linearGradient id="h" x1="7.411" x2="20.732" y1="30.924" y2="48.572" gradientUnits="userSpaceOnUse"><stop stop-color="#cdec7a"/><stop offset=".215" stop-color="#b0e995" stop-opacity=".78"/><stop offset=".56" stop-color="#87e4bb" stop-opacity=".435"/><stop offset=".833" stop-color="#6ee1d2" stop-opacity=".165"/><stop offset=".999" stop-color="#65e0db" stop-opacity="0"/></linearGradient><linearGradient id="i" x1="19.492" x2="35.559" y1="28.223" y2="49.507" gradientUnits="userSpaceOnUse"><stop stop-color="#cdec7a"/><stop offset=".216" stop-color="#b0e995"/><stop offset=".561" stop-color="#87e4bb"/><stop offset=".835" stop-color="#6ee1d2"/><stop offset="1" stop-color="#65e0db"/></linearGradient><linearGradient id="j" x1="11.494" x2="16.705" y1="13.15" y2="20.052" gradientUnits="userSpaceOnUse"><stop stop-color="#ffd945"/><stop offset=".304" stop-color="#ffcd3e"/><stop offset=".856" stop-color="#ffad2b"/><stop offset="1" stop-color="#ffa325"/></linearGradient></defs><path fill="url(#a)" d="M41.85 45.75 3.92 41.62c-1.82-.2-3.14-1.81-2.93-3.6L4.47 7.13c.2-1.8 1.85-3.09 3.67-2.89l37.93 4.13c1.82.2 3.14 1.81 2.93 3.6l-3.48 30.89c-.2 1.8-1.85 3.09-3.67 2.89"/><path fill="url(#b)" d="m49 11.97-1.37 12.19-3.06-15.95 1.5.16c1.82.2 3.14 1.81 2.93 3.6"/><path fill="url(#c)" d="M47.29 40.01 9.78 46.94c-1.8.33-3.54-.83-3.88-2.6L.05 13.79c-.34-1.77.85-3.48 2.65-3.81l37.51-6.93c1.8-.33 3.54.83 3.88 2.61l5.85 30.54c.34 1.77-.85 3.48-2.65 3.81"/><path fill="url(#d)" d="M44.89 9.84v30.61l2.4-.44c1.8-.33 2.99-2.04 2.65-3.81z"/><path fill="url(#e)" d="m5.73 43.4.17.94c.34 1.77 2.08 2.93 3.88 2.6l19.14-3.54z"/><path fill="url(#f)" d="M41.56 43.59H3.4c-1.83 0-3.32-1.46-3.32-3.26V9.25c0-1.8 1.49-3.26 3.32-3.26h38.16c1.84 0 3.33 1.46 3.33 3.26v31.08c0 1.8-1.49 3.26-3.33 3.26"/><path fill="url(#g)" d="M38.45 40.53H6.51c-1.53 0-2.78-1.22-2.78-2.73V11.78c0-1.5 1.25-2.73 2.78-2.73h31.94c1.54 0 2.78 1.23 2.78 2.73V37.8c0 1.51-1.24 2.73-2.78 2.73"/><path fill="url(#h)" d="M24.71 40.53H6.51c-1.53 0-2.78-1.22-2.78-2.73v-4.27l4.62-5.51c1.52-1.82 4.36-1.82 5.88 0l2.88 3.43z"/><path fill="url(#i)" d="M41.23 30.94v6.86c0 1.51-1.24 2.73-2.78 2.73H9.51l7.6-9.08 9.33-11.14c1.53-1.82 4.36-1.82 5.89 0z"/><path fill="url(#j)" d="M13.45 19.52c2.18 0 3.94-1.73 3.94-3.87s-1.76-3.87-3.94-3.87-3.94 1.73-3.94 3.87 1.76 3.87 3.94 3.87"/></svg>