<svg xmlns="http://www.w3.org/2000/svg" width="50" height="50" fill="none" viewBox="0 0 50 50"><path fill="#4caf50" d="M38.889 50H11.11C4.975 50 0 45.025 0 38.889V11.11C0 4.975 4.975 0 11.111 0H38.89C45.025 0 50 4.975 50 11.111V38.89C50 45.025 45.025 50 38.889 50"/><path fill="#1a237e" d="M38.75 36.792 25.542 50h-14.43C4.971 50 0 45.028 0 38.889v-14.43L13.208 11.25l5.903 7.861L7.32 30.89 19.111 42.68 30.89 30.889z"/><path fill="#fff" d="M18.956 43.517a3.05 3.05 0 0 1-1.892-.655c-1.378-1.081-3.414-2.765-5.288-4.638-1.882-1.882-3.56-3.916-4.64-5.29a3.07 3.07 0 0 1 .25-4.07l9.757-9.757-4.085-4.085a2.72 2.72 0 0 1-.672-2.755 2.75 2.75 0 0 1 2.167-1.88c6.675-1.13 14.368-1.623 23.507-1.533a3.136 3.136 0 0 1 3.084 3.085c.1 9.15-.404 16.839-1.533 23.507a2.75 2.75 0 0 1-1.876 2.166 2.71 2.71 0 0 1-2.759-.67l-4.084-4.085-9.759 9.758a3.07 3.07 0 0 1-2.177.902M13.74 36.26c1.777 1.775 3.721 3.383 5.04 4.42.116.09.282.077.39-.03l11.722-11.722 6.048 6.048c1.035-6.498 1.524-14.026 1.427-23.007a.345.345 0 0 0-.336-.336c-8.984-.093-16.505.39-23.014 1.495l6.054 5.98L9.349 30.83a.294.294 0 0 0-.03.39c.846 1.077 2.544 3.163 4.421 5.04"/><path fill="#3f51b5" d="M5.556 28.472a.88.88 0 0 1-.878-.682c-.25-1.123-.863-1.746-1.87-1.9a.88.88 0 0 1-.725-.843.89.89 0 0 1 .654-.912c1.003-.296 1.666-.96 1.95-1.968.157-.413.49-.64.869-.64s.71.227.847.576c.305 1.07.968 1.734 1.99 2.036.38.099.65.475.635.907a.87.87 0 0 1-.702.839c-1.03.158-1.641.78-1.891 1.907-.09.4-.45.68-.88.68"/><path fill="#fff" d="M8.197 24.804C7 24.453 6.12 23.644 5.756 22.353c-.069-.175-.331-.175-.4 0-.363 1.29-1.243 2.098-2.44 2.451-.177.047-.188.364 0 .399 1.22.187 2.112.96 2.44 2.439.04.18.36.18.4 0 .329-1.478 1.22-2.252 2.441-2.44.188-.034.177-.35 0-.398"/><path fill="#3f51b5" d="M10.417 22.917a.83.83 0 0 1-.828-.648c-.172-.776-.572-1.186-1.258-1.293a.83.83 0 0 1-.69-.793.844.844 0 0 1 .616-.862c.689-.203 1.146-.661 1.342-1.356.15-.393.462-.605.818-.605s.668.21.796.54c.218.76.675 1.218 1.38 1.425.363.096.617.45.6.857a.82.82 0 0 1-.67.79c-.706.109-1.106.52-1.279 1.297a.83.83 0 0 1-.827.648"/><path fill="#fff" d="M12.397 19.992c-.898-.264-1.558-.871-1.832-1.838-.051-.13-.248-.13-.3 0-.273.968-.933 1.574-1.832 1.838-.132.034-.14.272 0 .298.916.14 1.585.721 1.832 1.83.03.136.27.136.3 0 .248-1.109.916-1.69 1.832-1.83.142-.025.132-.262 0-.298"/><path fill="#3f51b5" d="M27.083 45.139a.83.83 0 0 1-.827-.647c-.173-.777-.573-1.186-1.259-1.293a.83.83 0 0 1-.69-.793.84.84 0 0 1 .617-.863c.689-.203 1.145-.661 1.341-1.355.15-.394.463-.606.818-.606.356 0 .668.211.796.54.218.76.675 1.218 1.38 1.425.363.096.617.45.6.857a.82.82 0 0 1-.67.79c-.706.109-1.106.52-1.278 1.298a.83.83 0 0 1-.828.647"/><path fill="#fff" d="M29.064 42.214c-.899-.264-1.558-.87-1.832-1.838-.051-.13-.249-.13-.3 0-.274.968-.933 1.574-1.832 1.838-.132.035-.14.272 0 .299.915.14 1.585.72 1.832 1.829.03.136.27.136.3 0 .247-1.109.915-1.69 1.832-1.83.142-.025.132-.262 0-.298"/><path fill="#3f51b5" d="M10.417 47.917a.83.83 0 0 1-.828-.648c-.172-.776-.572-1.186-1.258-1.293a.83.83 0 0 1-.69-.793.844.844 0 0 1 .616-.862c.689-.203 1.146-.661 1.342-1.356.15-.393.462-.605.818-.605s.668.21.796.54c.218.76.675 1.218 1.38 1.425.363.096.617.45.6.857a.82.82 0 0 1-.67.79c-.706.109-1.106.52-1.279 1.297a.83.83 0 0 1-.827.648"/><path fill="#fff" d="M12.397 44.992c-.898-.264-1.558-.871-1.832-1.838-.051-.13-.248-.13-.3 0-.273.968-.933 1.574-1.832 1.838-.132.034-.14.272 0 .298.916.14 1.585.721 1.832 1.83.03.136.27.136.3 0 .248-1.109.916-1.69 1.832-1.83.142-.025.132-.262 0-.298"/><path fill="#3f51b5" d="M4.167 38.194c-.327 0-.71-.295-.78-.615-.116-.529-.393-.64-.647-.679-.329-.05-.646-.42-.657-.753a.79.79 0 0 1 .586-.804q.564-.164.728-.743c.086-.3.459-.572.77-.572.333 0 .626.2.747.507.13.451.375.696.77.812.305.09.579.484.566.799a.78.78 0 0 1-.635.748c-.276.044-.551.155-.67.688-.071.318-.453.612-.778.612"/><path fill="#fff" d="M5.488 36.014c-.6-.177-1.04-.58-1.221-1.225-.034-.088-.166-.088-.2 0-.182.644-.623 1.05-1.221 1.225-.088.023-.095.182 0 .2.61.094 1.057.48 1.22 1.22.02.09.181.09.2 0 .165-.74.612-1.127 1.221-1.22.094-.02.088-.178 0-.2"/><path fill="#3f51b5" d="M4.861 44.097c-.328 0-.686-.279-.754-.6-.068-.307-.207-.354-.343-.375-.33-.05-.628-.397-.639-.729a.77.77 0 0 1 .565-.778.58.58 0 0 0 .428-.436c.085-.298.432-.554.743-.554.324 0 .607.194.722.493.088.296.224.433.464.503.304.087.561.454.55.772a.76.76 0 0 1-.612.725c-.163.025-.302.072-.371.383-.07.32-.427.596-.753.596"/><path fill="#fff" d="M5.851 42.288a1.28 1.28 0 0 1-.915-.92c-.025-.065-.123-.065-.15 0a1.28 1.28 0 0 1-.915.92c-.067.018-.071.136 0 .15.458.07.793.36.915.915.015.068.135.068.15 0 .124-.554.458-.845.915-.916.071-.013.067-.131 0-.15"/><path fill="#3f51b5" d="M31.25 39.93c-.328 0-.686-.279-.754-.6-.068-.306-.207-.354-.343-.374-.33-.05-.628-.398-.64-.73a.77.77 0 0 1 .566-.777.58.58 0 0 0 .428-.436c.085-.3.432-.555.743-.555.324 0 .607.195.722.493.088.296.224.434.464.503.304.088.561.454.55.772a.76.76 0 0 1-.612.725c-.163.025-.302.073-.371.384-.071.32-.427.596-.753.596"/><path fill="#fff" d="M32.24 38.12a1.28 1.28 0 0 1-.915-.919c-.025-.065-.124-.065-.15 0a1.28 1.28 0 0 1-.915.92c-.067.018-.071.136 0 .15.458.07.793.36.915.915.015.068.135.068.15 0 .124-.554.458-.844.915-.915.071-.014.067-.132 0-.15"/><path fill="#3f51b5" d="m18.885 49.306-.218-.616c-.117-.529-.393-.64-.648-.679l-.568-.086-.09-.668a.79.79 0 0 1 .586-.804q.564-.164.728-.743l.143-.506.626-.065c.334 0 .627.2.748.507.13.451.375.696.77.812l.517.152.049.647a.78.78 0 0 1-.635.749c-.276.043-.551.154-.67.687l-.12.544-.659.069z"/><path fill="#fff" d="M20.765 47.125c-.598-.176-1.039-.58-1.22-1.225-.034-.087-.166-.087-.2 0-.182.644-.623 1.05-1.221 1.225-.088.024-.095.182 0 .2.61.094 1.057.48 1.22 1.22.02.09.181.09.2 0 .164-.74.612-1.127 1.221-1.22.093-.02.088-.178 0-.2"/></svg>