<svg xmlns="http://www.w3.org/2000/svg" width="50" height="50" fill="none" viewBox="0 0 50 50"><defs><radialGradient id="b" cx="0" cy="0" r="1" gradientTransform="rotate(164.25 22.572 15.064)scale(31.9471 23.0164)" gradientUnits="userSpaceOnUse"><stop stop-color="#ff005f"/><stop offset="1" stop-color="#fc01d8"/></radialGradient><radialGradient id="c" cx="0" cy="0" r="1" gradientTransform="matrix(0 -39.911 42.3447 0 13.28 53.851)" gradientUnits="userSpaceOnUse"><stop stop-color="#fc0"/><stop offset=".124" stop-color="#fc0"/><stop offset=".567" stop-color="#fe4a05"/><stop offset=".694" stop-color="#ff0f3f"/><stop offset="1" stop-color="#fe0657" stop-opacity="0"/></radialGradient><radialGradient id="d" cx="0" cy="0" r="1" gradientTransform="rotate(-59.87 55.934 1.843)scale(16.5035 21.4858)" gradientUnits="userSpaceOnUse"><stop stop-color="#fc0"/><stop offset="1" stop-color="#fc0" stop-opacity="0"/></radialGradient><radialGradient id="e" cx="0" cy="0" r="1" gradientTransform="rotate(164.274 3.251 1.486)scale(31.5928 10.7637)" gradientUnits="userSpaceOnUse"><stop stop-color="#780cff"/><stop offset="1" stop-color="#820bff" stop-opacity="0"/></radialGradient></defs><mask id="a" width="50" height="50" x="0" y="0" mask-type="alpha" maskUnits="userSpaceOnUse"><path fill="#000" d="M0 0h50v50H0z"/></mask><g mask="url(#a)"><path fill="url(#b)" d="M25 0C14.57 0 11.51.01 10.92.06 8.78.23 7.45.57 5.99 1.29c-1.12.56-2 1.2-2.87 2.11C1.53 5.04.57 7.07.23 9.48.06 10.65.01 10.89 0 16.86c-.01 1.99 0 4.61 0 8.13 0 10.43.01 13.48.06 14.07.17 2.08.5 3.4 1.19 4.83 1.32 2.75 3.85 4.81 6.83 5.58 1.03.26 2.16.41 3.63.48.62.03 6.93.05 13.24.05s12.63-.01 13.23-.04c1.69-.08 2.68-.21 3.76-.5 3-.77 5.48-2.8 6.83-5.58.68-1.4 1.02-2.77 1.18-4.74.03-.43.05-7.3.05-14.16s-.02-13.72-.05-14.15c-.16-2.01-.51-3.36-1.21-4.78-.57-1.17-1.21-2.04-2.14-2.94C44.95 1.53 42.93.57 40.52.22 39.35.06 39.12.01 33.14 0z"/><path fill="url(#c)" d="M25 0C14.57 0 11.51.01 10.92.06 8.78.23 7.45.57 5.99 1.29c-1.12.56-2 1.2-2.87 2.11C1.53 5.04.57 7.07.23 9.48.06 10.65.01 10.89 0 16.86c-.01 1.99 0 4.61 0 8.13 0 10.43.01 13.48.06 14.07.17 2.08.5 3.4 1.19 4.83 1.32 2.75 3.85 4.81 6.83 5.58 1.03.26 2.16.41 3.63.48.62.03 6.93.05 13.24.05s12.63-.01 13.23-.04c1.69-.08 2.68-.21 3.76-.5 3-.77 5.48-2.8 6.83-5.58.68-1.4 1.02-2.77 1.18-4.74.03-.43.05-7.3.05-14.16s-.02-13.72-.05-14.15c-.16-2.01-.51-3.36-1.21-4.78-.57-1.17-1.21-2.04-2.14-2.94C44.95 1.53 42.93.57 40.52.22 39.35.06 39.12.01 33.14 0z"/><path fill="url(#d)" d="M25 0C14.57 0 11.51.01 10.92.06 8.78.23 7.45.57 5.99 1.29c-1.12.56-2 1.2-2.87 2.11C1.53 5.04.57 7.07.23 9.48.06 10.65.01 10.89 0 16.86c-.01 1.99 0 4.61 0 8.13 0 10.43.01 13.48.06 14.07.17 2.08.5 3.4 1.19 4.83 1.32 2.75 3.85 4.81 6.83 5.58 1.03.26 2.16.41 3.63.48.62.03 6.93.05 13.24.05s12.63-.01 13.23-.04c1.69-.08 2.68-.21 3.76-.5 3-.77 5.48-2.8 6.83-5.58.68-1.4 1.02-2.77 1.18-4.74.03-.43.05-7.3.05-14.16s-.02-13.72-.05-14.15c-.16-2.01-.51-3.36-1.21-4.78-.57-1.17-1.21-2.04-2.14-2.94C44.95 1.53 42.93.57 40.52.22 39.35.06 39.12.01 33.14 0z"/><path fill="url(#e)" d="M25 0C14.57 0 11.51.01 10.92.06 8.78.23 7.45.57 5.99 1.29c-1.12.56-2 1.2-2.87 2.11C1.53 5.04.57 7.07.23 9.48.06 10.65.01 10.89 0 16.86c-.01 1.99 0 4.61 0 8.13 0 10.43.01 13.48.06 14.07.17 2.08.5 3.4 1.19 4.83 1.32 2.75 3.85 4.81 6.83 5.58 1.03.26 2.16.41 3.63.48.62.03 6.93.05 13.24.05s12.63-.01 13.23-.04c1.69-.08 2.68-.21 3.76-.5 3-.77 5.48-2.8 6.83-5.58.68-1.4 1.02-2.77 1.18-4.74.03-.43.05-7.3.05-14.16s-.02-13.72-.05-14.15c-.16-2.01-.51-3.36-1.21-4.78-.57-1.17-1.21-2.04-2.14-2.94C44.95 1.53 42.93.57 40.52.22 39.35.06 39.12.01 33.14 0z"/><path fill="#fff" d="M25.01 6.42c-5.05 0-5.69.02-7.67.11s-3.33.4-4.51.86a9.2 9.2 0 0 0-3.3 2.14 9.3 9.3 0 0 0-2.14 3.29c-.46 1.18-.78 2.53-.86 4.51-.09 1.98-.12 2.62-.12 7.66 0 5.05.03 5.68.12 7.66s.4 3.33.86 4.51a9.1 9.1 0 0 0 2.14 3.29c1.04 1.03 2.07 1.67 3.3 2.14 1.18.46 2.53.78 4.51.87s2.61.11 7.66.11 5.68-.02 7.67-.11c1.98-.09 3.33-.41 4.51-.87a9.1 9.1 0 0 0 3.29-2.14c1.04-1.03 1.67-2.07 2.15-3.29.45-1.18.77-2.53.86-4.51s.11-2.61.11-7.66c0-5.04-.02-5.68-.11-7.66s-.41-3.33-.86-4.51a9.2 9.2 0 0 0-2.15-3.29 9.1 9.1 0 0 0-3.29-2.14c-1.19-.46-2.54-.77-4.52-.86s-2.61-.11-7.66-.11zm-1.67 3.34h1.67c4.96 0 5.55.02 7.51.11 1.81.08 2.79.39 3.45.64.87.34 1.48.74 2.14 1.39.65.65 1.05 1.27 1.39 2.14.25.65.55 1.63.64 3.44.09 1.96.1 2.55.1 7.51s-.01 5.54-.1 7.5c-.09 1.81-.39 2.8-.64 3.45-.34.87-.74 1.48-1.39 2.13-.66.65-1.27 1.06-2.14 1.39-.66.26-1.64.56-3.45.64-1.96.09-2.55.11-7.51.11-4.97 0-5.56-.02-7.52-.11-1.81-.08-2.79-.38-3.45-.64-.87-.33-1.49-.74-2.14-1.39a5.75 5.75 0 0 1-1.39-2.13c-.25-.66-.56-1.64-.64-3.45-.09-1.96-.11-2.55-.11-7.51s.02-5.54.11-7.5c.08-1.81.39-2.8.64-3.45.34-.87.74-1.49 1.39-2.14s1.27-1.05 2.14-1.39c.66-.25 1.64-.55 3.45-.64 1.72-.07 2.38-.09 5.85-.1m11.59 3.09a2.226 2.226 0 1 0 0 4.45c1.23 0 2.23-.99 2.23-2.22s-1-2.23-2.23-2.23m-9.92 2.6c-5.28 0-9.55 4.27-9.55 9.54s4.27 9.54 9.55 9.54c5.27 0 9.54-4.27 9.54-9.54s-4.27-9.54-9.54-9.54m0 3.35c3.42 0 6.19 2.77 6.19 6.19s-2.77 6.19-6.19 6.19a6.19 6.19 0 1 1 0-12.38"/></g></svg>