<svg xmlns="http://www.w3.org/2000/svg" width="50" height="50" fill="none" viewBox="0 0 50 50"><path fill="#478cf7" d="m36.15 40.2-11.19 8.88c-.37.29-.78.52-1.23.67-.45.16-.91.24-1.38.25a4.34 4.34 0 0 1-2.62-.89L8.21 40.23C2.97 36.19 0 30.52 0 24.58v-11.5C0 11.47.92 10 2.37 9.29L20.53.42q.9-.435 1.89-.42c.66 0 1.29.15 1.88.45l17.47 8.83c.71.36 1.28.88 1.69 1.55.42.68.63 1.42.63 2.21v11.72c0 5.84-2.87 11.42-7.94 15.44"/><path fill="#377de2" d="m41.77 9.28-.26-.13c.24.53.35 1.09.35 1.67v11.72c0 5.83-2.87 11.41-7.94 15.44l-11.19 8.87c-.37.3-.78.52-1.23.68q-.66.24-1.38.24c-.47.01-.93-.07-1.38-.22s-.86-.37-1.24-.66L5.98 38.01c-.38-.29-.74-.59-1.1-.9.97 1.12 2.09 2.16 3.33 3.12l11.52 8.88c.38.29.79.51 1.24.66s.91.23 1.38.22q.705 0 1.38-.24c.45-.15.86-.38 1.23-.67l11.19-8.88c5.07-4.02 7.94-9.6 7.94-15.44V13.04c0-.79-.21-1.53-.63-2.21-.41-.67-.98-1.19-1.69-1.55"/><path fill="#2266d3" d="M42.24 9.55c.49.72.74 1.51.74 2.38v11.72c0 5.83-2.88 11.41-7.95 15.44l-11.19 8.88c-.37.29-.78.52-1.22.67q-.675.24-1.38.24c-.48.01-.94-.07-1.39-.22a4 4 0 0 1-1.23-.66L7.09 39.12c-.58-.45-1.15-.93-1.69-1.44.87.93 1.8 1.78 2.81 2.55l11.52 8.88c.38.29.79.51 1.24.66s.91.23 1.38.22q.705 0 1.38-.24c.45-.15.86-.38 1.23-.67l11.19-8.88c5.07-4.02 7.94-9.6 7.94-15.44V13.04c0-.7-.16-1.35-.49-1.97s-.78-1.12-1.36-1.52"/><path fill="#5e9cf7" d="M1.33 25.02c-.12 0-.23-.04-.31-.13a.4.4 0 0 1-.13-.31c0-.25.2-.45.44-.45.13 0 .23.05.32.14.09.08.13.19.13.31s-.04.23-.13.31c-.09.09-.19.13-.32.13m0-1.77c-.12 0-.23-.05-.31-.13a.44.44 0 0 1-.13-.32v-9.72c0-1.26.73-2.43 1.87-2.99l18.16-8.87c.22-.1.49-.01.6.21s.01.48-.21.59L3.15 10.89c-.83.4-1.37 1.27-1.37 2.19v9.72c0 .25-.2.45-.45.45"/><path fill="#ffa91a" d="M22.34 41.7c.19-.07.36-.2.49-.36l1.9-2.49c.13-.17.2-.36.2-.58v-13.1c0-.56.33-1.08.83-1.33 7.54-3.79 5.17-15.44-3.72-15.59-8.89.15-11.25 11.8-3.72 15.59.51.25.83.77.83 1.33v13.1c0 .21.07.41.2.58l1.93 2.52c.12.16.28.27.47.33.2.06.39.06.59 0m-2.21-26.77c-2.03-.07-2.03-2.97 0-3.05h3.82c2.03.08 2.03 2.98 0 3.05z"/><path fill="#f79219" d="M27.26 10.07c3.07 3.74 2.56 10.05-2.61 12.66-.51.25-.83.76-.83 1.33v13.1c0 .21-.07.41-.2.58l-1.91 2.49c-.12.16-.29.29-.49.36-.17.05-.35.05-.53.01l.59.77q.18.24.48.33c.19.06.38.06.58 0 .19-.07.36-.2.49-.36l1.9-2.49c.13-.17.2-.36.2-.58v-13.1c0-.56.33-1.08.83-1.33 5.74-2.89 5.73-10.31 1.5-13.77m-6.3 19.53h-1.81v-2.61l2.12 1.71c.19.15.24.34.16.56-.08.23-.24.34-.47.34"/><path fill="#f79219" d="M20.71 37.33h-1.56v-6.46h1.56c.21 0 .39.07.53.22.15.14.22.32.22.53v4.96c0 .21-.07.39-.22.53-.14.15-.32.22-.53.22"/><ellipse cx="39.357" cy="37.606" fill="#58595b" rx="10.643" ry="10.612"/><path fill="#414042" d="M45.68 29.07c.68.91 1.2 1.91 1.55 2.99.36 1.08.54 2.18.54 3.32 0 5.86-4.77 10.61-10.65 10.61-1.14 0-2.25-.17-3.33-.53s-2.08-.87-2.99-1.55c1.93 2.61 5.04 4.3 8.55 4.3C45.23 48.21 50 43.46 50 37.6c0-3.5-1.7-6.6-4.32-8.53"/><path fill="#478cf7" d="M43.53 44.61h-8.4c-.15 0-.28-.05-.39-.16a.57.57 0 0 1-.16-.39v-7.02c0-.16.06-.29.16-.39.11-.11.24-.16.39-.16h8.4c.16 0 .29.05.39.16.11.1.16.23.16.39v7.02c0 .15-.05.28-.16.39-.1.11-.23.16-.39.16"/><path fill="#377de2" d="M43.53 36.49h-1.67v5.35c0 .15-.06.28-.17.39-.1.11-.23.16-.38.16h-6.73v1.67c0 .15.06.28.16.39.11.11.24.16.39.16h8.4c.16 0 .29-.05.39-.16.11-.11.16-.24.16-.39v-7.02c0-.16-.05-.29-.16-.39a.5.5 0 0 0-.39-.16"/><path fill="#ffa91a" d="M43.36 36.49h-1.38v-2.35c0-1.37-1.02-2.58-2.39-2.71a2.66 2.66 0 0 0-2.91 2.64v2.42H35.3v-2.33c0-2.17 1.7-4.03 3.88-4.11a4.03 4.03 0 0 1 4.18 4.02z"/><path fill="#f79219" d="M41.96 31.03c.64.75.96 1.61.96 2.59v2.42h-.94v.45h1.38v-2.42c0-1.22-.54-2.3-1.4-3.04"/></svg>