<svg xmlns="http://www.w3.org/2000/svg" width="51" height="50" fill="none" viewBox="0 0 51 50"><path fill="#e6e6e6" fill-rule="evenodd" d="M4.702 41.992c0-.097-.1-.097-.1-.195-.101-.293 0-.684.3-.781l7.833-3.125c.302-.196.603 0 .804.293v.195c1.406.586 2.41 1.758 3.013 3.125.702 1.465.702 3.125 0 4.687-.603 1.465-1.808 2.637-3.415 3.32a6.6 6.6 0 0 1-2.41.489c-2.41 0-4.82-1.465-5.825-3.809-.602-1.367-.602-2.832-.2-4.199" clip-rule="evenodd"/><path fill="#585858" fill-rule="evenodd" d="M36.435 11.816h-.1a.74.74 0 0 1-.502-.683c.1-.488 1.104-4.395 3.213-5.274.603-.293 1.306-.195 2.009.196 1.305.78 3.916 2.246 4.92 1.953.201 0 .302-.098.402-.293a.8.8 0 0 1 .803-.195c.302.195.402.585.201.78-.2.49-.602.782-1.104.88-1.406.39-3.616-.782-5.825-2.149-.502-.195-.803-.195-1.004-.097-1.105.488-2.109 3.027-2.41 4.492-.1.195-.302.39-.603.39" clip-rule="evenodd"/><path fill="#454545" fill-rule="evenodd" d="M36.435 15.527c-.1 0-.301-.097-.402-.097l-3.715-3.125c-.201-.196-.301-.586-.1-.782l1.004-1.074c.401-.488.903-.683 1.506-.683.502 0 1.004.097 1.305.39l1.607 1.27c.804.683.904 1.953.201 2.832l-.904 1.074c-.1.098-.301.195-.401.195z" clip-rule="evenodd"/><path fill="#333" fill-rule="evenodd" d="M37.841 42.188a3.57 3.57 0 0 1-2.21-.782L6.108 17.09c-1.506-1.172-1.707-3.32-.502-4.785L15.246 1.27C15.949.488 16.953 0 17.957 0a3.57 3.57 0 0 1 2.21.781L49.79 25.098c1.406 1.172 1.607 3.32.402 4.785l-9.64 11.133c-.703.683-1.607 1.172-2.712 1.172" clip-rule="evenodd"/><path fill="#e6e6e6" fill-rule="evenodd" d="M18.36 8.984c-.202 0-.403 0-.604-.195l-2.209-1.855c-.402-.293-.502-.88-.2-1.27l1.807-2.05c.2-.196.502-.391.703-.391q.452 0 .602.293l2.31 1.855q.302.292.302.586c.1.293 0 .488-.201.684l-1.808 2.05c-.1.196-.402.293-.703.293m4.418 3.711q-.302 0-.603-.293l-2.31-1.855c-.1-.195-.3-.39-.3-.586 0-.293.1-.488.2-.684l1.808-2.05c.2-.196.502-.391.703-.391s.502.098.602.293l2.31 1.855q.3.294.301.586c.1.293 0 .489-.2.684l-1.808 2.05c-.1.196-.402.391-.703.391m4.418 3.614q-.3 0-.602-.293l-2.31-1.856q-.3-.292-.301-.586c0-.293.1-.488.2-.683l1.808-2.051a.92.92 0 0 1 .703-.293c.201 0 .402 0 .603.195l2.31 1.856c.401.293.401.879.1 1.27l-1.808 2.05c-.2.195-.402.39-.703.39m4.419 3.613q-.301 0-.603-.293l-2.31-1.856c-.2-.097-.3-.39-.3-.585 0-.293.1-.489.2-.684l1.808-2.05a.92.92 0 0 1 .703-.294c.2 0 .402 0 .602.195l2.31 1.856c.402.293.402.879.1 1.27l-1.807 2.05c-.201.196-.402.39-.703.39m4.418 3.613c-.2 0-.401-.098-.602-.195l-2.31-1.953c-.402-.293-.402-.88-.1-1.27l1.807-2.05a.92.92 0 0 1 .703-.294c.201 0 .402 0 .603.196l2.31 1.855c.401.293.401.88.1 1.27l-1.808 2.05c-.2.294-.401.391-.703.391m-21.189-10.45c-.2 0-.401-.097-.602-.194l-2.31-1.856c-.301-.39-.402-.976-.1-1.27l1.807-2.148a1.1 1.1 0 0 1 .703-.293c.201 0 .502.098.603.196l2.31 1.953c.401.293.502.879.1 1.172l-1.808 2.148c-.1.195-.402.293-.703.293m4.419 3.614c-.201 0-.402-.097-.603-.195l-2.31-1.856c-.2-.195-.3-.39-.3-.683 0-.195.1-.488.2-.586l1.808-2.149a.92.92 0 0 1 .703-.293c.2 0 .401.098.602.196l2.31 1.953q.3.147.301.586c0 .195 0 .488-.2.683l-1.808 2.051a.92.92 0 0 1-.703.293m4.418 3.613c-.2 0-.401-.097-.602-.195l-2.31-1.855c-.2-.196-.301-.39-.301-.684 0-.195.1-.39.2-.586l1.808-2.148a.92.92 0 0 1 .703-.293c.201 0 .402.097.603.195l2.31 1.953q.3.147.3.586c0 .195 0 .488-.2.684l-1.808 2.05a.92.92 0 0 1-.703.294m4.42 3.614c-.202 0-.403-.098-.604-.195l-2.31-1.856c-.4-.39-.4-.879-.1-1.27l1.808-2.148a.92.92 0 0 1 .703-.293c.2 0 .402.098.603.195l2.31 1.953c.2.098.3.391.3.586 0 .196-.1.489-.2.684l-1.808 2.05a.92.92 0 0 1-.703.294" clip-rule="evenodd"/><path fill="#e63a45" fill-rule="evenodd" d="M24.786 27.93a.92.92 0 0 1-.703-.293l-11.147-9.082c-.402-.39-.502-1.075-.1-1.465l1.506-1.758c.201-.293.603-.39.904-.39.2 0 .502.097.602.195.1 0 .1 0 .1.097l11.047 8.985c.201.195.402.488.402.781s-.1.586-.301.781L25.59 27.54c-.201.195-.503.39-.804.39" clip-rule="evenodd"/><path fill="#e6e6e6" fill-rule="evenodd" d="M32.519 27.54c-.201 0-.402 0-.603-.196l-2.31-1.856c-.401-.39-.401-.879-.1-1.27l1.808-2.05c.2-.293.401-.39.703-.39.2 0 .401.097.602.195l2.31 1.953c.401.293.401.879.1 1.27l-1.807 2.05a.92.92 0 0 1-.703.293m-3.415 4.003c-.301 0-.502-.098-.602-.195l-2.31-1.953c-.402-.293-.502-.88-.1-1.27l1.807-2.05c.1-.196.402-.294.703-.294.201 0 .402.098.603.196l2.209 1.855c.402.39.502.977.2 1.27l-1.807 2.148c-.2.195-.502.293-.703.293m7.733-.39a.78.78 0 0 1-.502-.196l-2.31-1.855c-.402-.391-.502-.88-.1-1.27l1.707-2.148c.2-.196.502-.293.803-.293.201 0 .402.097.502.195l2.31 1.953c.402.293.502.879.1 1.27l-1.807 2.05c-.1.196-.402.293-.703.293m-3.415 4.003c-.2 0-.401-.097-.602-.195l-2.31-1.953c-.2-.098-.301-.39-.301-.586s.1-.488.2-.684l1.808-2.05a.92.92 0 0 1 .703-.293c.201 0 .402.097.603.195l2.31 1.855c.401.39.401.88.1 1.27l-1.808 2.05c-.2.294-.401.391-.703.391" clip-rule="evenodd"/><path fill="#fee500" fill-rule="evenodd" d="M44.971 30.664c-.301 0-.502 0-.703-.195L37.54 25c-.201-.195-.301-.488-.301-.781-.1-.293 0-.586.2-.782l1.507-1.66c.2-.293.502-.39.803-.39s.502.097.703.195l6.728 5.566c.201.196.402.391.402.684s-.1.586-.301.781l-1.506 1.758c-.201.195-.503.293-.804.293" clip-rule="evenodd"/><path fill="#e6e6e6" fill-rule="evenodd" d="M11.43 17.09q-.3 0-.603-.293l-2.31-1.856c-.401-.293-.401-.879-.1-1.27l1.808-2.05a.92.92 0 0 1 .703-.293c.2 0 .401 0 .602.195l2.31 1.856q.3.292.301.586c0 .293 0 .488-.2.683L12.133 16.7c-.201.195-.402.39-.703.39" clip-rule="evenodd"/><path fill="#e63a45" fill-rule="evenodd" d="M37.942 38.867a.92.92 0 0 1-.703-.293l-2.21-1.758c-.502-.39-.602-1.074-.2-1.562l5.221-5.86c.201-.292.503-.39.804-.39s.502.098.703.293l2.209 1.758c.402.39.502 1.074.1 1.465l-5.121 5.957c-.201.195-.502.39-.803.39" clip-rule="evenodd"/><path fill="#b3b3b3" fill-rule="evenodd" d="M8.016 46.973c-.302 0-.603-.196-.603-.489 0 0-.603-2.636-5.523-7.91-.1 0-.1 0-.1-.097-1.105-1.954-1.105-4.004.2-5.762 1.406-1.953 4.218-3.125 6.728-2.735 2.11.391 3.616 1.758 4.319 3.907v.097c.502 7.13 2.008 9.375 2.008 9.375.201.293.1.586-.2.782-.202.195-6.528 2.734-6.73 2.832z" clip-rule="evenodd"/><path fill="#e6e6e6" fill-rule="evenodd" d="M9.02 40.527a.56.56 0 0 1-.502-.293l-1.406-3.222c-.1-.293 0-.586.301-.782.301-.097.703 0 .803.293l1.406 3.223c.1.293 0 .684-.301.781zm-4.318-9.18c-.703-.488-3.415-2.929-3.214-4.98 0-.683.402-1.27 1.004-1.66 1.306-.781 3.816-2.246 4.017-3.32.1-.196 0-.293-.1-.489-.1-.195-.1-.585.2-.78.302-.196.704-.098.804.195.301.39.402.878.301 1.367-.301 1.367-2.31 2.734-4.519 4.004-.502.293-.502.585-.602.78 0 1.173 1.807 3.126 3.012 4.102v.098h.1v.098L6.71 32.91c.1.293-.1.684-.402.781 0 0-.1.098-.2.098-.201 0-.503-.195-.603-.39z" clip-rule="evenodd"/><path fill="#e63a45" fill-rule="evenodd" d="M7.513 37.402c-.903 0-1.606-.976-2.008-1.855-.2-.586-.402-1.172-.301-1.66 0-.88.401-1.172.703-1.27.1 0 .2-.097.401-.097.804 0 1.607 1.074 2.009 1.855.602 1.465.401 2.637-.402 2.93-.1.097-.301.097-.402.097" clip-rule="evenodd"/></svg>