<svg xmlns="http://www.w3.org/2000/svg" width="50" height="50" fill="none" viewBox="0 0 50 50"><path fill="#ffb02e" d="M50 28.072C50 40.983 38.91 50 24.999 50 11.093 50 0 40.812 0 27.902c0-3.84.934-5.486 5.877-6.088 8.86-1.08 13.534-.652 19.124-.652 5.588 0 13.535-.217 19.122.652 4.572.712 5.597 1.479 5.877 6.258"/><path fill="#972021" d="M24.953 40.019c-5.27 0-6.67.595-6.67.595s.655 4.609 6.67 4.609c6.018 0 6.67-4.609 6.67-4.609s-1.399-.595-6.67-.595"/><path fill="#ff6723" d="M45.898 23.979c0 1.083-9.317 1.96-20.804 1.96-11.489 0-20.803-.88-20.803-1.963s9.314-1.962 20.804-1.962c11.487 0 20.8.879 20.8 1.962z"/><path fill="#fee064" d="M20.43 25.939c.118-2.554-.091-3.89-1.025-6.219 0 0 1.77-2.056 5.034-2.056 3.266 0 5.598.52 5.598.52-.564 2.867-.592 4.596-.467 7.755h-9.14"/><path fill="#fff" d="M17.387 38.614c2.749-1.208 4.628-3.67 4.628-6.702 0-4.335-3.843-8.192-8.583-8.192-4.738 0-8.77 3.344-8.77 7.68 0 2.387 1.224 4.575 3.11 6.062a11.3 11.3 0 0 1 3.701-.602c2.37 0 4.492.681 5.914 1.754m15.227 0c-2.75-1.208-4.629-3.67-4.629-6.702 0-4.335 3.843-8.192 8.583-8.192 4.738 0 8.77 3.344 8.77 7.68 0 2.387-1.224 4.575-3.11 6.062a11.3 11.3 0 0 0-3.701-.602c-2.37 0-4.492.681-5.913 1.754"/><path fill="#270c36" d="M13.993 36.348c1.385 0 2.713-.504 3.693-1.4s1.53-2.11 1.53-3.378c0-1.267-.55-2.482-1.53-3.378s-2.308-1.399-3.693-1.399-2.714.503-3.694 1.4c-.98.895-1.53 2.11-1.53 3.377s.55 2.482 1.53 3.378 2.308 1.4 3.694 1.4m22.015 0c-1.386 0-2.714-.504-3.694-1.4s-1.53-2.11-1.53-3.378c0-1.267.55-2.482 1.53-3.378s2.308-1.399 3.694-1.399c1.385 0 2.713.503 3.693 1.4.98.895 1.53 2.11 1.53 3.377s-.55 2.482-1.53 3.378-2.308 1.4-3.693 1.4"/><path fill="#a68ae2" d="M27.425 1.878c-2.617 0-3.638-1.963-7.65-1.875-4.363 0-6.343 2.217-8.488 3.923-.365.292-2.146 1.196-2.984 1.535-3.672 1.494-6.437 3.67-6.437 6.913 0 3.533 3.257 6.398 7.275 6.398.66 0 1.298-.077 1.909-.22 1.621 1.797 4.136 2.841 6.954 2.951 4.384.171 5.785-2.604 8.302-1.452 1.727.792 2.581 1.452 5.317 1.452 3.193 0 4.676-.895 5.596-1.877 1.681-1.791 4.269-.683 5.877-.683 3.503 0 6.344-2.484 6.344-5.546S46.602 7.85 43.098 7.85c-.961 0-2.772.217-3.173-1.194-.653-2.304-3.758-4.95-8.209-4.95-1.738 0-3.3.17-4.291.17"/><path fill="#7b61ff" d="M10.635 2.134c0 .43-.187.843-.52 1.147a1.86 1.86 0 0 1-1.253.475c-.47 0-.922-.17-1.254-.475a1.56 1.56 0 0 1-.52-1.147c0-.43.187-.843.52-1.147A1.86 1.86 0 0 1 8.862.512c.47 0 .921.171 1.254.475s.519.717.519 1.147"/><path fill="#f24630" d="M8.396 17.066c0 .724-.315 1.418-.874 1.93-.56.512-1.32.8-2.111.8s-1.551-.288-2.11-.8a2.62 2.62 0 0 1-.875-1.93c0-.724.314-1.418.874-1.93s1.318-.8 2.11-.8 1.55.288 2.11.8.876 1.206.876 1.93"/><path fill="#7cee1d" d="M47.76 7.082c.012.354-.055.706-.195 1.035-.14.33-.352.63-.622.884s-.592.455-.948.593a3.13 3.13 0 0 1-2.251 0A2.9 2.9 0 0 1 42.795 9a2.6 2.6 0 0 1-.621-.884 2.44 2.44 0 0 1-.196-1.035c0-.702.304-1.375.847-1.87a3.04 3.04 0 0 1 2.045-.776c.768 0 1.503.28 2.046.775.542.496.845 1.17.845 1.871"/><path fill="#fff" d="M19.82 40.291c1.024-.141 2.648-.272 5.133-.272 2.278 0 3.834.11 4.866.237-.29 1-2.42 1.383-5.005 1.383-2.555 0-4.67-.375-4.995-1.348"/><path fill="#f24630" d="M25.001 48.123c3.75 0 4.348-3.496 4.465-4.371.088-.708-.312-1.065-.752-1.306-.435-.242-1.75-.467-3.713-.467s-3.268.225-3.713.467c-.446.241-.85.6-.751 1.306.116.875.715 4.37 4.464 4.37"/><path fill="#f4b8ca" d="M27.183 20.774c-1.07-.664-2.603-.725-3.692-.09a9.95 9.95 0 0 1-5.02 1.33c-5.05 0-9.143-3.63-9.143-8.104 0-4.478 4.093-8.105 9.143-8.105 2.542 0 4.842.917 6.498 2.404.925.827 2.442 1.063 3.638.615a8.6 8.6 0 0 1 3.016-.54c4.277 0 7.744 3.073 7.744 6.865s-3.469 6.865-7.744 6.865a8.4 8.4 0 0 1-4.442-1.24z"/><path fill="#0c74ff" d="M36.008 16.812a2.1 2.1 0 0 1-.17.902c-.122.288-.306.55-.54.772a2.5 2.5 0 0 1-.827.517 2.72 2.72 0 0 1-1.963 0 2.5 2.5 0 0 1-.827-.517 2.3 2.3 0 0 1-.54-.771 2.1 2.1 0 0 1-.17-.903c.02-.6.294-1.168.764-1.585s1.1-.65 1.754-.65c.655 0 1.285.233 1.755.65s.744.986.764 1.585"/></svg>