<svg xmlns="http://www.w3.org/2000/svg" width="50" height="50" fill="none" viewBox="0 0 50 50"><path d="M0 0h50v50H0z"/><path fill="#95b0ed" d="M33.4 0v8.048L0 6.036V3.018A3.02 3.02 0 0 1 3.018 0z"/><path fill="#5c2bc8" d="M46.982 0h-4.527l-1.51 12.072L50 9.054V3.018A3.02 3.02 0 0 0 46.982 0"/><path fill="#4e4cd3" d="M42.455 0H33.4a4.527 4.527 0 0 0-4.527 4.527v1.51H0v3.017l3.018 3.018h43.964V4.527c0-2.5-2.027-4.527-4.527-4.527"/><path fill="#95b0ed" d="M46.982 9.054 34.91 24.246l12.072 15.19h2.264a.75.75 0 0 0 .533-.22.75.75 0 0 0 .221-.534V9.054z"/><path fill="#acd2f6" d="M46.982 9.054H0v29.628a.75.75 0 0 0 .221.534.75.75 0 0 0 .534.22h46.227V36.42l-6.036-12.173 6.036-12.174z"/><path fill="#c4f3ff" d="m43.964 12.072-6.036 12.174 6.036 12.173h3.018V12.072z"/><path fill="#fff" d="M3.018 12.072h40.946V36.42H3.018z"/><circle cx="45.473" cy="4.527" r="1.509" fill="#05ff77"/><circle cx="39.437" cy="4.527" r="1.509" fill="#ffd06a"/><circle cx="33.4" cy="4.527" r="1.509" fill="#ff545a"/><path fill="#ff545a" d="M33.3 26.51h-1.51v-6.892a3.777 3.777 0 0 0-3.772-3.773 3.777 3.777 0 0 0-3.773 3.773v6.891h-1.509v-6.891a5.29 5.29 0 0 1 5.282-5.282 5.29 5.29 0 0 1 5.282 5.282z"/><path fill="#ff9733" d="M38.582 24.246h-3.019l-2.012 24.722.022.004 4.788.807a.73.73 0 0 0 .22-.534z"/><path fill="#ffb820" d="M35.563 24.246h-3.018L26.51 37.123 32.545 50l3.018-1.032z"/><path fill="#ff7647" d="M32.545 50h5.282a.72.72 0 0 0 .534-.221l-2.798-2.797z"/><path fill="#ffd06a" d="M11.419 24.246v25a.75.75 0 0 0 .465.697.8.8 0 0 0 .289.057h20.372V24.246z"/><path fill="#ff7647" d="M26.509 26.51a.75.75 0 0 1-.534-.222.75.75 0 0 1-.22-.534v-6.136a3.777 3.777 0 0 0-3.773-3.773 3.777 3.777 0 0 0-3.773 3.773v6.137a.754.754 0 1 1-1.509 0v-6.137a5.29 5.29 0 0 1 5.282-5.282 5.29 5.29 0 0 1 5.282 5.282v6.137a.755.755 0 0 1-.755.754"/></svg>