<svg xmlns="http://www.w3.org/2000/svg" width="50" height="50" fill="none" viewBox="0 0 50 50"><path fill="#c72127" fill-rule="evenodd" d="M0 10.519c.416 0 .833.01 1.249-.002a.91.91 0 0 1 .78.372c.098.123.18.26.256.397q.511.919 1.021 1.838c.03.052.083.092.125.138.042-.047.095-.088.124-.142q.671-1.256 1.332-2.518c.053-.1.106-.142.229-.14.451.01.903.004 1.355.004h.127v4.363H4.872v-2.43l-.026-.008q-.032.047-.06.097c-.423.754-.848 1.508-1.266 2.265-.045.081-.095.108-.187.105a10 10 0 0 0-.625 0 .45.45 0 0 1-.368-.147 2 2 0 0 1-.254-.359c-.382-.714-.755-1.432-1.135-2.147-.024-.045-.076-.077-.115-.116-.018.051-.052.102-.053.153q-.01 1.247-.016 2.493v.12H0zM34.895 10.275q.21.017.42.041.66.081 1.32.168c.027.004.071.04.072.062.005.25.003.5.003.769-.165-.012-.321-.026-.477-.032q-1.152-.05-2.304-.09c-.115-.005-.232.016-.346.037-.108.02-.207.07-.232.182-.024.106.056.176.135.236a.5.5 0 0 0 .128.069l1.94.778c.347.14.672.316.962.546q.09.073.17.152c.34.33.379.685.154 1.117-.097.185-.25.327-.426.444-.348.23-.736.351-1.155.382l-.918.068c-.027.002-.054.011-.081.017h-.7q-.225-.02-.45-.043-.676-.08-1.353-.167c-.025-.003-.066-.037-.066-.057-.005-.274-.003-.548-.003-.832l.633.05c.742.06 1.484.115 2.23.093.101-.003.205-.016.301-.046.16-.048.187-.164.056-.263a1.8 1.8 0 0 0-.387-.225c-.475-.197-.959-.376-1.433-.575-.451-.19-.87-.429-1.238-.75-.61-.537-.366-1.203.044-1.547a2.1 2.1 0 0 1 1.146-.479c.357-.038.717-.059 1.075-.088.027-.003.054-.012.081-.017zM44.974 15.22q-.215-.017-.43-.041-.681-.08-1.363-.167c-.027-.004-.07-.041-.071-.064-.005-.27-.003-.54-.003-.825l.366.028c.819.068 1.638.136 2.46.115.105-.003.214-.013.313-.043.06-.017.133-.07.148-.122.012-.043-.038-.128-.085-.157a3.6 3.6 0 0 0-.497-.265c-.433-.18-.874-.342-1.307-.522a4.5 4.5 0 0 1-1.143-.67c-.192-.158-.37-.334-.433-.576-.086-.328.003-.63.221-.886.333-.391.786-.578 1.293-.642.36-.046.723-.061 1.085-.091.027-.002.054-.011.081-.017h.699q.04.01.082.017c.371.036.743.069 1.114.11.206.022.41.059.615.09v.818q-.058.002-.108 0c-.443-.03-.885-.07-1.329-.089q-.692-.03-1.385-.025c-.143.001-.295.036-.426.091-.137.058-.149.178-.048.285a.6.6 0 0 0 .192.136c.381.159.767.306 1.149.465.43.179.861.353 1.28.552.301.144.57.34.776.602.119.15.188.318.174.51-.024.353-.19.633-.474.852a1.7 1.7 0 0 1-.69.34c-.333.069-.674.105-1.011.147-.181.023-.365.03-.547.045zM18.35 13.453l.784 1.355H17.91c-.13 0-.261-.006-.392 0-.076.005-.111-.025-.143-.088a69 69 0 0 0-.557-1.084c-.018-.034-.068-.076-.104-.076-.448-.005-.896-.003-1.344-.002-.01 0-.02.005-.042.01v1.22c-.05.003-.087.006-.124.006q-.831-.002-1.662.003c-.092 0-.128-.018-.128-.116q.003-2.046.003-4.09c0-.034.004-.066.007-.11h4.376c.27 0 .535.036.785.141.348.148.542.39.533.774-.01.45-.014.902 0 1.353.016.465-.262.665-.67.696zm-3-.507h.751c.3 0 .6.003.9-.001.233-.004.344-.116.344-.334v-1.109c0-.265-.108-.369-.385-.37l-1.503-.002h-.106zM12.715 13.07H9.174c-.004.035-.009.058-.009.08v.937c0 .1.042.142.144.149q.053.002.106.001h3.26c.14 0 .14 0 .14.133q-.002.183 0 .366c.002.06-.018.09-.084.085-.035-.003-.07 0-.106 0q-2.027 0-4.054-.002c-.155 0-.312-.003-.463-.03-.45-.079-.729-.38-.732-.82-.008-1.142-.003-2.285-.003-3.428q0-.009.006-.028h5.465q.002.161 0 .327c-.002.094.03.228-.02.272-.059.051-.192.027-.293.027q-1.62.002-3.239.001c-.145 0-.145 0-.145.135 0 .332.004.665-.003.997-.002.101.033.123.132.123 1.098-.004 2.195-.002 3.292-.002h.147zM25.606 10.53h.855v.122c0 .844.01 1.69-.003 2.534-.012.743.505 1.011 1 1.054.363.031.733.024 1.098.005.427-.022.67-.292.67-.703v-2.974h1.794v3.055c0 .729-.316 1.13-1.052 1.303-.22.052-.452.077-.68.083-.483.012-.966.007-1.45.003-.457-.004-.909-.048-1.334-.226-.47-.197-.798-.516-.891-1.02a1 1 0 0 1-.012-.172v-2.96q.001-.05.005-.104M25.054 14.162c.004.144.01.277.009.41-.001.068-.027.135-.028.202 0 .115-.071.153-.173.159-.489.029-.977.071-1.467.081q-.756.016-1.512-.024a3 3 0 0 1-1.174-.31c-.63-.315-.962-.826-1.007-1.497-.028-.408-.043-.822.044-1.227.161-.747.659-1.198 1.392-1.434.367-.118.748-.18 1.133-.18.712.003 1.424.022 2.137.041.143.004.286.033.428.058.032.005.079.035.084.06q.048.254.075.51c.008.078-.039.107-.128.092a8.4 8.4 0 0 0-1.715-.121c-.65.026-1.08.347-1.349.893a.9.9 0 0 0-.074.343c-.01.288.01.578-.006.865-.028.506.284 1.032.992 1.147.674.11 1.341.092 2.01-.014zM39.547 12.784c.031-.041.055-.071.077-.103q.742-1.013 1.48-2.029c.045-.06.09-.086.166-.086q.884.003 1.767.002h.11c-.019.033-.03.058-.045.078l-2.038 2.583c-.149.189-.223.41-.24.644-.023.342-.018.687-.025 1.03v.167h-1.803q-.005-.057-.006-.114c0-.237-.006-.473.002-.71a1.83 1.83 0 0 0-.342-1.146c-.39-.557-.747-1.138-1.117-1.71q-.243-.37-.484-.744l-.06-.103c.335 0 .655-.002.974.004.03 0 .066.046.088.078q.707 1.02 1.411 2.04zM48.618 9.635c0-.367.31-.664.691-.664.382 0 .691.298.691.664s-.31.665-.692.664a.68.68 0 0 1-.69-.664m.14 0a.54.54 0 0 0 .551.53.54.54 0 0 0 .55-.53.54.54 0 0 0-.55-.53.54.54 0 0 0-.55.53" clip-rule="evenodd"/><path fill="#c72127" fill-rule="evenodd" d="M49.006 9.967v-.694h.299a.5.5 0 0 1 .14.02.2.2 0 0 1 .088.057.16.16 0 0 1 .03.073.23.23 0 0 1-.006.106.16.16 0 0 1-.097.102l-.015.006-.017.005.012.004q.045.016.073.054a.4.4 0 0 1 .044.07l.099.191.003.007h-.192q-.006 0-.01-.006l-.09-.176-.026-.04a.1.1 0 0 0-.072-.04q-.037-.002-.076-.002v.263zm.187-.386h.087a.2.2 0 0 0 .042-.006q.043-.009.055-.051a.14.14 0 0 0 0-.061.07.07 0 0 0-.048-.053q-.012-.004-.024-.005l-.11-.002h-.002zM0 10.519c.416 0 .833.01 1.249-.002a.91.91 0 0 1 .78.372c.098.123.18.26.256.397q.511.919 1.021 1.838c.03.052.083.092.125.138.042-.047.095-.088.124-.142q.671-1.256 1.332-2.518c.053-.1.106-.142.229-.14.451.01.903.004 1.355.004h.127v4.363H4.872v-2.43l-.026-.008q-.032.047-.06.097c-.423.754-.848 1.508-1.266 2.265-.045.081-.095.108-.187.105a10 10 0 0 0-.625 0 .45.45 0 0 1-.368-.147 2 2 0 0 1-.254-.359c-.382-.714-.755-1.432-1.135-2.147-.024-.045-.076-.077-.115-.116-.018.051-.052.102-.053.153q-.01 1.247-.016 2.493v.12H0zM34.895 10.275q.21.017.42.041.66.081 1.32.168c.027.004.071.04.072.062.005.25.003.5.003.769-.165-.012-.321-.026-.477-.032q-1.152-.05-2.304-.09c-.115-.005-.232.016-.346.037-.108.02-.207.07-.232.182-.024.106.056.176.135.236a.5.5 0 0 0 .128.069l1.94.778c.347.14.672.316.962.546q.09.073.17.152c.34.33.379.685.154 1.117-.097.185-.25.327-.426.444-.348.23-.736.351-1.155.382l-.918.068c-.027.002-.054.011-.081.017h-.7q-.225-.02-.45-.043-.676-.08-1.353-.167c-.025-.003-.066-.037-.066-.057-.005-.274-.003-.548-.003-.832l.633.05c.742.06 1.484.115 2.23.093.101-.003.205-.016.301-.046.16-.048.187-.164.056-.263a1.8 1.8 0 0 0-.387-.225c-.475-.197-.959-.376-1.433-.575-.451-.19-.87-.429-1.238-.75-.61-.537-.366-1.203.044-1.547a2.1 2.1 0 0 1 1.146-.479c.357-.038.717-.059 1.075-.088.027-.003.054-.012.081-.017zM44.974 15.22q-.215-.017-.43-.041-.681-.08-1.363-.167c-.027-.004-.07-.041-.071-.064-.005-.27-.003-.54-.003-.825l.366.028c.819.068 1.638.136 2.46.115.105-.003.214-.013.313-.043.06-.017.133-.07.148-.122.012-.043-.038-.128-.085-.157a3.6 3.6 0 0 0-.497-.265c-.433-.18-.874-.342-1.307-.522a4.5 4.5 0 0 1-1.143-.67c-.192-.158-.37-.334-.433-.576-.086-.328.003-.63.221-.886.333-.391.786-.578 1.293-.642.36-.046.723-.061 1.085-.091.027-.002.054-.011.081-.017h.699q.04.01.082.017c.371.036.743.069 1.114.11.206.022.41.059.615.09v.818q-.058.002-.108 0c-.443-.03-.885-.07-1.329-.089q-.692-.03-1.385-.025c-.143.001-.295.036-.426.091-.137.058-.149.178-.048.285a.6.6 0 0 0 .192.136c.381.159.767.306 1.149.465.43.179.861.353 1.28.552.301.144.57.34.776.602.119.15.188.318.174.51-.024.353-.19.633-.474.852a1.7 1.7 0 0 1-.69.34c-.333.069-.674.105-1.011.147-.181.023-.365.03-.547.045zM18.35 13.453l.784 1.355H17.91c-.13 0-.261-.006-.392 0-.076.005-.111-.025-.143-.088a69 69 0 0 0-.557-1.084c-.018-.034-.068-.076-.104-.076-.448-.005-.896-.003-1.344-.002-.01 0-.02.005-.042.01v1.22c-.05.003-.087.006-.124.006q-.831-.002-1.662.003c-.092 0-.128-.018-.128-.116q.003-2.046.003-4.09c0-.034.004-.066.007-.11h4.376c.27 0 .535.036.785.141.348.148.542.39.533.774-.01.45-.014.902 0 1.353.016.465-.262.665-.67.696zm-3-.507h.751c.3 0 .6.003.9-.001.233-.004.344-.116.344-.334v-1.109c0-.265-.108-.369-.385-.37l-1.503-.002h-.106zM12.715 13.07H9.174c-.004.035-.009.058-.009.08v.937c0 .1.042.142.144.149q.053.002.106.001h3.26c.14 0 .14 0 .14.133q-.002.183 0 .366c.002.06-.018.09-.084.085-.035-.003-.07 0-.106 0q-2.027 0-4.054-.002c-.155 0-.312-.003-.463-.03-.45-.079-.729-.38-.732-.82-.008-1.142-.003-2.285-.003-3.428q0-.009.006-.028h5.465q.002.161 0 .327c-.002.094.03.228-.02.272-.059.051-.192.027-.293.027q-1.62.002-3.239.001c-.145 0-.145 0-.145.135 0 .332.004.665-.003.997-.002.101.033.123.132.123 1.098-.004 2.195-.002 3.292-.002h.147zM25.606 10.53h.855v.122c0 .844.01 1.69-.003 2.534-.012.743.505 1.011 1 1.054.363.031.733.024 1.098.005.427-.022.67-.292.67-.703v-2.974h1.794v3.055c0 .729-.316 1.13-1.052 1.303-.22.052-.452.077-.68.083-.483.012-.966.007-1.45.003-.457-.004-.909-.048-1.334-.226-.47-.197-.798-.516-.891-1.02a1 1 0 0 1-.012-.172v-2.96q.001-.05.005-.104M25.054 14.162c.004.144.01.277.009.41-.001.068-.027.135-.028.202 0 .115-.071.153-.173.159-.489.029-.977.071-1.467.081q-.756.016-1.512-.024a3 3 0 0 1-1.174-.31c-.63-.315-.962-.826-1.007-1.497-.028-.408-.043-.822.044-1.227.161-.747.659-1.198 1.392-1.434.367-.118.748-.18 1.133-.18.712.003 1.424.022 2.137.041.143.004.286.033.428.058.032.005.079.035.084.06q.048.254.075.51c.008.078-.039.107-.128.092a8.4 8.4 0 0 0-1.715-.121c-.65.026-1.08.347-1.349.893a.9.9 0 0 0-.074.343c-.01.288.01.578-.006.865-.028.506.284 1.032.992 1.147.674.11 1.341.092 2.01-.014zM39.547 12.784c.031-.041.055-.071.077-.103q.742-1.013 1.48-2.029c.045-.06.09-.086.166-.086q.884.003 1.767.002h.11c-.019.033-.03.058-.045.078l-2.038 2.583c-.149.189-.223.41-.24.644-.023.342-.018.687-.025 1.03v.167h-1.803q-.005-.057-.006-.114c0-.237-.006-.473.002-.71a1.83 1.83 0 0 0-.342-1.146c-.39-.557-.747-1.138-1.117-1.71q-.243-.37-.484-.744l-.06-.103c.335 0 .655-.002.974.004.03 0 .066.046.088.078q.707 1.02 1.411 2.04z" clip-rule="evenodd"/><path fill="#c72127" fill-rule="evenodd" d="M48.618 9.635c0-.367.31-.664.691-.664.382 0 .691.298.691.664s-.31.665-.692.664a.68.68 0 0 1-.69-.664m.14 0a.54.54 0 0 0 .551.53.54.54 0 0 0 .55-.53.54.54 0 0 0-.55-.53.54.54 0 0 0-.55.53" clip-rule="evenodd"/><path fill="#c72127" fill-rule="evenodd" d="M49.006 9.967v-.694h.299a.5.5 0 0 1 .14.02.2.2 0 0 1 .088.057.16.16 0 0 1 .03.073.23.23 0 0 1-.006.106.16.16 0 0 1-.097.102l-.015.006-.017.005.012.004q.045.016.073.054a.4.4 0 0 1 .044.07l.099.191.003.007h-.192q-.006 0-.01-.006l-.09-.176-.026-.04a.1.1 0 0 0-.072-.04q-.037-.002-.076-.002v.263zm.187-.386h.087a.2.2 0 0 0 .042-.006q.043-.009.055-.051a.14.14 0 0 0 0-.061.07.07 0 0 0-.048-.053q-.012-.004-.024-.005l-.11-.002h-.002zM0 15.09c.416 0 .833.01 1.249-.002a.91.91 0 0 1 .78.372c.098.123.18.26.256.397q.511.919 1.021 1.838c.03.052.083.092.125.138.042-.047.095-.088.124-.142q.671-1.256 1.332-2.518c.053-.1.106-.142.229-.14.451.01.903.004 1.355.004h.127V19.4H4.872v-2.428l-.026-.01q-.032.049-.06.097c-.423.755-.848 1.509-1.266 2.266-.045.081-.095.108-.187.105a10 10 0 0 0-.625 0 .45.45 0 0 1-.368-.147 2 2 0 0 1-.254-.359c-.382-.714-.755-1.432-1.135-2.147-.024-.046-.076-.077-.115-.116-.018.051-.052.102-.053.153q-.01 1.246-.016 2.493v.12H0zM34.895 14.846c.14.013.28.024.42.041q.66.08 1.32.168c.027.003.071.04.072.061.005.25.003.501.003.77-.165-.012-.321-.026-.477-.032q-1.152-.05-2.304-.091a1.7 1.7 0 0 0-.346.038c-.108.019-.207.07-.232.182-.024.106.056.176.135.236.037.03.083.05.128.069l1.94.778c.347.14.672.315.962.546q.09.072.17.152c.34.329.379.685.154 1.116-.097.186-.25.328-.426.445-.348.23-.736.351-1.155.382l-.918.068q-.04.005-.081.017h-.7c-.15-.015-.3-.026-.45-.043a133 133 0 0 1-1.353-.167c-.025-.003-.066-.037-.066-.058-.005-.274-.003-.547-.003-.831l.633.05c.742.06 1.484.115 2.23.093.101-.003.205-.017.301-.046.16-.048.187-.164.056-.263a1.8 1.8 0 0 0-.387-.225c-.475-.197-.959-.376-1.433-.575a4.5 4.5 0 0 1-1.238-.75c-.61-.537-.366-1.203.044-1.547a2.1 2.1 0 0 1 1.146-.479c.357-.038.717-.059 1.075-.088.027-.003.054-.012.081-.018zM44.974 19.792c-.143-.014-.287-.025-.43-.042q-.681-.08-1.363-.168c-.027-.003-.07-.04-.071-.063-.005-.27-.003-.54-.003-.825l.366.028c.819.068 1.638.135 2.46.115.105-.003.214-.013.313-.043.06-.017.133-.07.148-.122.012-.043-.038-.128-.085-.157a3.6 3.6 0 0 0-.497-.265c-.433-.18-.874-.342-1.307-.522a4.5 4.5 0 0 1-1.143-.67c-.192-.158-.37-.334-.433-.577-.086-.327.003-.629.221-.886.333-.39.786-.577 1.293-.641.36-.046.723-.061 1.085-.091.027-.002.054-.011.081-.017h.699c.027.005.054.014.082.017.371.036.743.068 1.114.11.206.022.41.059.615.09v.817q-.058.002-.108 0c-.443-.03-.885-.069-1.329-.088q-.692-.03-1.385-.025c-.143 0-.295.035-.426.09-.137.059-.149.179-.048.286.052.056.12.106.192.136.381.159.767.306 1.149.465.43.178.861.353 1.28.552.301.143.57.34.776.602.119.15.188.318.174.51-.024.353-.19.633-.474.852a1.7 1.7 0 0 1-.69.34c-.333.069-.674.104-1.011.147-.181.023-.365.03-.547.045zM18.35 18.024l.784 1.355H17.91c-.13 0-.261-.006-.392 0-.076.004-.111-.025-.143-.088a68 68 0 0 0-.557-1.084c-.018-.034-.068-.076-.104-.076q-.672-.005-1.344-.002c-.01 0-.02.005-.042.01v1.22c-.05.003-.087.006-.124.006q-.831-.001-1.662.002c-.092 0-.128-.018-.128-.116q.003-2.044.003-4.09c0-.033.004-.066.007-.109h4.376c.27 0 .535.036.785.141.348.148.542.39.533.774-.01.45-.014.902 0 1.353.016.465-.262.665-.67.696zm-3-.508h.751c.3 0 .6.004.9 0 .233-.004.344-.116.344-.334v-1.11c0-.264-.108-.368-.385-.369l-1.503-.002h-.106zM12.715 17.642H9.174c-.004.034-.009.057-.009.08v.936c0 .1.042.142.144.149q.053.002.106 0l3.26.001c.14 0 .14 0 .14.133q-.002.183 0 .366c.002.06-.018.09-.084.085-.035-.003-.07 0-.106 0q-2.027 0-4.054-.002c-.155 0-.312-.003-.463-.03-.45-.079-.729-.38-.732-.82-.008-1.142-.003-2.285-.003-3.428 0-.007.003-.014.006-.029h5.465q.002.162 0 .328c-.002.094.03.228-.02.272-.059.05-.192.027-.293.027q-1.62.002-3.239.001c-.145 0-.145 0-.145.135 0 .332.004.665-.003.997-.002.101.033.123.132.122q1.647-.003 3.292-.002h.147zM25.606 15.1h.855v.123c0 .844.01 1.689-.003 2.533-.012.744.505 1.012 1 1.055.363.031.733.023 1.098.005.427-.023.67-.292.67-.703V15.14h1.794v3.055c0 .728-.316 1.13-1.052 1.303-.22.052-.452.077-.68.083-.483.012-.966.007-1.45.003-.457-.004-.909-.048-1.334-.226-.47-.198-.798-.516-.891-1.02a1 1 0 0 1-.012-.172v-2.96q.001-.05.005-.104M25.054 18.732c.004.145.01.278.009.411-.001.067-.027.134-.028.201 0 .116-.071.153-.173.16-.489.029-.977.07-1.467.08q-.756.016-1.512-.023a3 3 0 0 1-1.174-.31c-.63-.315-.962-.826-1.007-1.497-.028-.408-.043-.822.044-1.227.161-.747.659-1.198 1.392-1.434.367-.118.748-.18 1.133-.18.712.002 1.424.022 2.137.04.143.005.286.034.428.058.032.006.079.036.084.061q.048.254.075.51c.008.078-.039.107-.128.092a8.4 8.4 0 0 0-1.715-.122c-.65.026-1.08.348-1.349.893a.9.9 0 0 0-.074.344c-.01.288.01.577-.006.865-.028.506.284 1.032.992 1.147a6.3 6.3 0 0 0 2.01-.014zM39.547 17.355l.077-.103q.742-1.013 1.48-2.03c.045-.06.09-.086.166-.085q.884.003 1.767.002h.11c-.019.033-.03.058-.045.078L41.064 17.8c-.149.188-.223.41-.24.643-.023.343-.018.687-.025 1.031v.167h-1.803q-.005-.057-.006-.114c0-.237-.006-.473.002-.71a1.83 1.83 0 0 0-.342-1.146c-.39-.558-.747-1.138-1.117-1.71l-.484-.744-.06-.103c.335 0 .655-.002.974.004.03 0 .066.046.088.078q.707 1.02 1.411 2.04zM48.618 14.206c0-.367.31-.665.691-.664.382 0 .691.298.691.664s-.31.665-.692.664a.68.68 0 0 1-.69-.664m.14 0a.54.54 0 0 0 .551.53.54.54 0 0 0 .55-.53.54.54 0 0 0-.55-.53.54.54 0 0 0-.55.53" clip-rule="evenodd"/><path fill="#c72127" fill-rule="evenodd" d="M49.006 14.538v-.695h.299q.072-.001.14.02a.18.18 0 0 1 .088.058.16.16 0 0 1 .03.073.23.23 0 0 1-.006.105.16.16 0 0 1-.097.103l-.015.006-.017.005.012.004q.045.016.073.054a.4.4 0 0 1 .044.07l.099.191.003.006h-.192q-.006.001-.01-.005l-.09-.176-.026-.04a.1.1 0 0 0-.072-.04q-.037-.002-.076-.002v.263zm.187-.386h.087a.2.2 0 0 0 .042-.006q.043-.01.055-.052a.14.14 0 0 0 0-.06.07.07 0 0 0-.048-.053q-.012-.005-.024-.005l-.11-.003h-.002zM0 23.423c.416 0 .833.01 1.249-.001a.91.91 0 0 1 .78.372c.098.123.18.26.256.397q.511.918 1.021 1.837c.03.053.083.093.125.139.042-.048.095-.089.124-.143q.671-1.256 1.332-2.517c.053-.1.106-.143.229-.14.451.009.903.003 1.355.003h.127v4.363H4.872v-2.43l-.026-.008q-.032.048-.06.097c-.423.754-.848 1.508-1.266 2.265-.045.081-.095.108-.187.105a10 10 0 0 0-.625 0 .45.45 0 0 1-.368-.147 2 2 0 0 1-.254-.359c-.382-.714-.755-1.432-1.135-2.147-.024-.045-.076-.077-.115-.115-.018.05-.052.101-.053.152q-.01 1.246-.016 2.493v.12H0zM34.895 23.179c.14.014.28.024.42.041q.66.081 1.32.168c.027.004.071.04.072.062.005.25.003.5.003.769-.165-.011-.321-.025-.477-.032q-1.152-.05-2.304-.09c-.115-.005-.232.016-.346.037-.108.02-.207.07-.232.182-.024.107.056.177.135.236a.5.5 0 0 0 .128.069l1.94.779c.347.139.672.315.962.545q.09.073.17.152c.34.33.379.685.154 1.117-.097.185-.25.327-.426.444-.348.23-.736.351-1.155.383l-.918.067c-.027.002-.054.011-.081.017h-.7c-.15-.014-.3-.025-.45-.043q-.676-.08-1.353-.167c-.025-.003-.066-.037-.066-.057-.005-.274-.003-.548-.003-.832l.633.05c.742.06 1.484.116 2.23.093.101-.003.205-.016.301-.046.16-.048.187-.164.056-.263a1.8 1.8 0 0 0-.387-.225c-.475-.197-.959-.376-1.433-.575-.451-.189-.87-.429-1.238-.75-.61-.536-.366-1.203.044-1.547a2.1 2.1 0 0 1 1.146-.478c.357-.038.717-.06 1.075-.09.027-.002.054-.01.081-.016zM44.974 28.125c-.143-.014-.287-.025-.43-.042q-.681-.08-1.363-.167c-.027-.004-.07-.041-.071-.063-.005-.27-.003-.541-.003-.826l.366.028c.819.069 1.638.136 2.46.115.105-.003.214-.013.313-.042.06-.018.133-.072.148-.123.012-.043-.038-.127-.085-.156a3.6 3.6 0 0 0-.497-.266c-.433-.18-.874-.341-1.307-.522a4.5 4.5 0 0 1-1.143-.669c-.192-.159-.37-.335-.433-.577-.086-.328.003-.63.221-.886.333-.39.786-.578 1.293-.642.36-.046.723-.061 1.085-.09.027-.003.054-.012.081-.018h.699q.04.01.082.017c.371.037.743.069 1.114.11.206.022.41.06.615.09v.818q-.058.002-.108 0c-.443-.03-.885-.07-1.329-.088q-.692-.03-1.385-.026c-.143.001-.295.036-.426.091-.137.058-.149.178-.048.285a.6.6 0 0 0 .192.136c.381.159.767.306 1.149.465.43.179.861.353 1.28.553.301.143.57.34.776.602.119.15.188.317.174.51-.024.352-.19.632-.474.851a1.7 1.7 0 0 1-.69.34c-.333.07-.674.105-1.011.147-.181.023-.365.03-.547.045zM18.35 26.358l.784 1.354H17.91c-.13 0-.261-.006-.392 0-.076.005-.111-.025-.143-.087a68 68 0 0 0-.557-1.084c-.018-.035-.068-.076-.104-.077-.448-.005-.896-.002-1.344-.002-.01 0-.02.005-.042.01v1.221c-.05.002-.087.006-.124.006q-.831-.002-1.662.002c-.092 0-.128-.018-.128-.116q.003-2.046.003-4.09c0-.033.004-.066.007-.11h4.376c.27 0 .535.036.785.141.348.148.542.39.533.774-.01.451-.014.903 0 1.353.016.465-.262.665-.67.696zm-3-.508h.751c.3 0 .6.003.9-.001.233-.004.344-.116.344-.334v-1.109c0-.265-.108-.369-.385-.37l-1.503-.002h-.106zM12.715 25.975H9.174c-.004.034-.009.057-.009.08v.936c0 .1.042.142.144.15q.053.002.106 0h3.26c.14 0 .14 0 .14.133q-.002.183 0 .366c.002.06-.018.09-.084.085-.035-.003-.07 0-.106 0q-2.027 0-4.054-.002c-.155 0-.312-.003-.463-.03-.45-.079-.729-.38-.732-.819-.008-1.143-.003-2.286-.003-3.43 0-.006.003-.012.006-.027h5.465q.002.161 0 .327c-.002.094.03.228-.02.273-.059.05-.192.027-.293.027H9.292c-.145 0-.145 0-.145.135 0 .333.004.665-.003.998-.002.1.033.122.132.122q1.647-.003 3.292-.002h.147zM25.606 23.434h.855v.122c0 .845.01 1.69-.003 2.534-.012.743.505 1.011 1 1.054a8 8 0 0 0 1.098.005c.427-.022.67-.292.67-.703v-2.974h1.794v3.055c0 .729-.316 1.13-1.052 1.303-.22.052-.452.078-.68.083-.483.013-.966.007-1.45.003-.457-.004-.909-.048-1.334-.226-.47-.197-.798-.516-.891-1.02a1 1 0 0 1-.012-.171v-2.961q.001-.05.005-.104M25.054 27.066c.004.144.01.277.009.41-.001.068-.027.135-.028.202 0 .115-.071.153-.173.159-.489.03-.977.071-1.467.081q-.756.016-1.512-.024a2.95 2.95 0 0 1-1.174-.31c-.63-.315-.962-.826-1.007-1.497-.028-.408-.043-.822.044-1.227.161-.747.659-1.198 1.392-1.434a3.7 3.7 0 0 1 1.133-.18c.712.003 1.424.023 2.137.041.143.004.286.033.428.058.032.005.079.036.084.06q.048.255.075.51c.008.078-.039.107-.128.093a8.4 8.4 0 0 0-1.715-.122c-.65.026-1.08.347-1.349.893a.9.9 0 0 0-.074.343c-.01.288.01.578-.006.865-.028.506.284 1.032.992 1.147.674.11 1.341.092 2.01-.014zM39.547 25.689l.077-.103q.742-1.013 1.48-2.03c.045-.06.09-.086.166-.086.589.004 1.178.002 1.767.002h.11c-.019.033-.03.058-.045.078q-1.018 1.292-2.038 2.583c-.149.189-.223.41-.24.644-.023.342-.018.687-.025 1.03v.167h-1.803q-.005-.057-.006-.114c0-.236-.006-.473.002-.71a1.83 1.83 0 0 0-.342-1.146c-.39-.557-.747-1.138-1.117-1.71l-.484-.744c-.018-.028-.034-.059-.06-.103.335 0 .655-.002.974.004.03 0 .066.046.088.078q.707 1.02 1.411 2.04zM48.618 22.54c0-.368.31-.665.691-.665.382 0 .691.298.691.665s-.31.664-.692.663a.68.68 0 0 1-.69-.664m.14 0a.54.54 0 0 0 .551.529.54.54 0 0 0 .55-.53.54.54 0 0 0-.55-.53.54.54 0 0 0-.55.53" clip-rule="evenodd"/><path fill="#c72127" fill-rule="evenodd" d="M49.006 22.871v-.694h.299a.5.5 0 0 1 .14.02.2.2 0 0 1 .088.057.16.16 0 0 1 .03.074.23.23 0 0 1-.006.105.16.16 0 0 1-.097.102l-.015.006-.017.006.012.003q.045.016.073.054a.4.4 0 0 1 .044.07l.099.192.003.006h-.192q-.006 0-.01-.006l-.09-.175-.026-.041a.1.1 0 0 0-.072-.04q-.037-.002-.076-.002v.264zm.187-.386h.087a.2.2 0 0 0 .042-.006q.043-.009.055-.051a.14.14 0 0 0 0-.061.07.07 0 0 0-.048-.053q-.012-.004-.024-.005l-.11-.002h-.002zM0 1.548c.416 0 .833.01 1.249-.001a.91.91 0 0 1 .78.372c.098.123.18.26.256.397q.511.918 1.021 1.837c.03.052.083.093.125.139.042-.048.095-.089.124-.142q.671-1.257 1.332-2.518c.053-.1.106-.143.229-.14.451.009.903.003 1.355.003h.127v4.363H4.872v-2.43l-.026-.008q-.032.048-.06.097c-.423.754-.848 1.508-1.266 2.265-.045.081-.095.108-.187.105a10 10 0 0 0-.625 0 .45.45 0 0 1-.368-.147 2 2 0 0 1-.254-.359C1.704 4.667 1.331 3.95.951 3.234.927 3.19.875 3.157.836 3.12c-.018.05-.052.101-.053.152Q.773 4.517.767 5.764v.12H0zM34.895 1.304q.21.018.42.041.66.081 1.32.168c.027.004.071.04.072.062.005.25.003.5.003.769-.165-.011-.321-.025-.477-.032q-1.152-.05-2.304-.09a1.7 1.7 0 0 0-.346.037c-.108.02-.207.07-.232.182-.024.107.056.177.135.237.037.029.083.05.128.068l1.94.779c.347.139.672.315.962.545q.09.073.17.152c.34.33.379.685.154 1.117-.097.185-.25.327-.426.444-.348.23-.736.351-1.155.382l-.918.068c-.027.002-.054.011-.081.017h-.7c-.15-.014-.3-.025-.45-.043q-.676-.08-1.353-.167c-.025-.003-.066-.037-.066-.057-.005-.274-.003-.548-.003-.832l.633.05c.742.06 1.484.116 2.23.093.101-.003.205-.016.301-.045.16-.049.187-.165.056-.264a1.8 1.8 0 0 0-.387-.225c-.475-.197-.959-.375-1.433-.575-.451-.189-.87-.429-1.238-.75-.61-.536-.366-1.203.044-1.547a2.1 2.1 0 0 1 1.146-.478c.357-.038.717-.06 1.075-.09.027-.002.054-.01.081-.016zM44.974 6.25c-.143-.014-.287-.025-.43-.042q-.681-.08-1.363-.167c-.027-.004-.07-.041-.071-.063-.005-.27-.003-.541-.003-.825.13.01.248.017.366.027.819.069 1.638.136 2.46.115.105-.003.214-.013.313-.042.06-.018.133-.072.148-.123.012-.043-.038-.127-.085-.156a3.6 3.6 0 0 0-.497-.266c-.433-.18-.874-.342-1.307-.522a4.5 4.5 0 0 1-1.143-.669c-.192-.158-.37-.335-.433-.577-.086-.328.003-.63.221-.886.333-.39.786-.578 1.293-.642.36-.046.723-.061 1.085-.09.027-.003.054-.012.081-.018h.699q.04.01.082.017c.371.036.743.069 1.114.11.206.022.41.06.615.09v.818q-.058.001-.108 0c-.443-.03-.885-.07-1.329-.088q-.692-.03-1.385-.026c-.143.001-.295.036-.426.091-.137.058-.149.178-.048.285a.6.6 0 0 0 .192.136c.381.159.767.306 1.149.465.43.179.861.353 1.28.553.301.143.57.34.776.601.119.15.188.318.174.51-.024.353-.19.633-.474.852a1.7 1.7 0 0 1-.69.34c-.333.07-.674.105-1.011.147-.181.023-.365.03-.547.045zM18.35 4.482l.784 1.355H17.91c-.13 0-.261-.006-.392 0-.076.005-.111-.025-.143-.088a68 68 0 0 0-.557-1.083c-.018-.035-.068-.076-.104-.077-.448-.005-.896-.002-1.344-.002-.01 0-.02.005-.042.01v1.22c-.05.003-.087.007-.124.007-.554 0-1.108-.002-1.662.002-.092 0-.128-.018-.128-.116q.003-2.046.003-4.09c0-.033.004-.066.007-.11h4.376c.27 0 .535.036.785.141.348.148.542.39.533.774-.01.451-.014.903 0 1.353.016.465-.262.665-.67.696zm-3-.507h.751c.3 0 .6.003.9-.001.233-.004.344-.116.344-.334V2.531c0-.265-.108-.369-.385-.37l-1.503-.002h-.106zM12.715 4.1H9.174c-.004.034-.009.057-.009.08v.936c0 .1.042.142.144.15q.053.002.106 0h3.26c.14 0 .14 0 .14.133q-.002.183 0 .366c.002.06-.018.09-.084.085-.035-.003-.07 0-.106 0q-2.027 0-4.054-.002c-.155 0-.312-.003-.463-.03-.45-.079-.729-.38-.732-.819-.008-1.143-.003-2.286-.003-3.43 0-.006.003-.012.006-.027h5.465q.002.161 0 .327c-.002.094.03.228-.02.273-.059.05-.192.027-.293.027H9.292c-.145 0-.145 0-.145.135 0 .333.004.665-.003.998-.002.1.033.122.132.122q1.647-.003 3.292-.002h.147zM25.606 1.56h.855v.121c0 .845.01 1.69-.003 2.534-.012.743.505 1.011 1 1.054.363.031.733.024 1.098.005.427-.022.67-.292.67-.703V1.597h1.794v3.055c0 .729-.316 1.13-1.052 1.303-.22.052-.452.078-.68.083-.483.013-.966.007-1.45.003-.457-.004-.909-.048-1.334-.226-.47-.197-.798-.516-.891-1.02a1 1 0 0 1-.012-.171V1.663c0-.034.003-.066.005-.104M25.054 5.19c.004.145.01.278.009.412-.001.067-.027.134-.028.2 0 .116-.071.154-.173.16-.489.03-.977.071-1.467.081a21 21 0 0 1-1.512-.024 3 3 0 0 1-1.174-.31c-.63-.315-.962-.826-1.007-1.497-.028-.408-.043-.822.044-1.227.161-.747.659-1.198 1.392-1.434.367-.118.748-.18 1.133-.18.712.003 1.424.023 2.137.041.143.004.286.033.428.058.032.005.079.036.084.06q.048.255.075.51c.008.078-.039.107-.128.092a8.4 8.4 0 0 0-1.715-.121c-.65.026-1.08.347-1.349.893a.9.9 0 0 0-.074.343c-.01.288.01.578-.006.865-.028.506.284 1.032.992 1.147a6.3 6.3 0 0 0 2.01-.014zM39.547 3.814l.077-.103q.742-1.014 1.48-2.03c.045-.06.09-.086.166-.086q.884.004 1.767.002h.11c-.019.033-.03.058-.045.078q-1.018 1.292-2.038 2.583c-.149.189-.223.41-.24.644-.023.342-.018.687-.025 1.03V6.1h-1.803q-.005-.057-.006-.114c0-.236-.006-.473.002-.71a1.83 1.83 0 0 0-.342-1.146c-.39-.557-.747-1.138-1.117-1.71q-.243-.37-.484-.744c-.018-.028-.034-.059-.06-.103.335 0 .655-.002.974.004.03 0 .066.046.088.078q.707 1.02 1.411 2.04zM48.618.664c0-.367.31-.664.691-.664.382 0 .691.298.691.665s-.31.664-.692.663a.68.68 0 0 1-.69-.664m.14 0a.54.54 0 0 0 .551.53.54.54 0 0 0 .55-.53.54.54 0 0 0-.55-.53.54.54 0 0 0-.55.53" clip-rule="evenodd"/><path fill="#c72127" fill-rule="evenodd" d="M49.006.996V.302h.299a.5.5 0 0 1 .14.02.2.2 0 0 1 .088.057.16.16 0 0 1 .03.074.23.23 0 0 1-.006.105.16.16 0 0 1-.097.102l-.015.006-.017.006.012.003q.045.016.073.054a.4.4 0 0 1 .044.07l.099.192.003.006h-.192q-.006 0-.01-.006l-.09-.176-.026-.04a.1.1 0 0 0-.072-.04q-.037-.002-.076-.002v.263zm.187-.386h.087a.2.2 0 0 0 .042-.006q.043-.009.055-.051a.14.14 0 0 0 0-.061.07.07 0 0 0-.048-.053q-.012-.004-.024-.005l-.11-.002h-.002zM0 19.257c.416 0 .833.01 1.249-.002a.91.91 0 0 1 .78.372c.098.123.18.26.256.397q.511.919 1.021 1.837c.03.053.083.093.125.139.042-.047.095-.089.124-.142q.671-1.257 1.332-2.518c.053-.1.106-.142.229-.14.451.009.903.004 1.355.004h.127v4.362H4.872v-2.429l-.026-.009q-.032.048-.06.097c-.423.755-.848 1.508-1.266 2.265-.045.082-.095.108-.187.105a10 10 0 0 0-.625 0 .45.45 0 0 1-.368-.146 2 2 0 0 1-.254-.36c-.382-.713-.755-1.431-1.135-2.146-.024-.046-.076-.078-.115-.116-.018.05-.052.101-.053.152q-.01 1.248-.016 2.494v.119H0zM34.895 19.012c.14.014.28.025.42.042q.66.08 1.32.167c.027.004.071.04.072.062.005.25.003.5.003.77-.165-.012-.321-.026-.477-.033q-1.152-.05-2.304-.09c-.115-.004-.232.017-.346.037-.108.02-.207.07-.232.183-.024.106.056.176.135.236a.5.5 0 0 0 .128.068l1.94.779c.347.14.672.315.962.546q.09.072.17.152c.34.329.379.684.154 1.116-.097.186-.25.328-.426.444-.348.23-.736.352-1.155.383l-.918.068c-.027.002-.054.01-.081.016h-.7c-.15-.014-.3-.025-.45-.043q-.676-.08-1.353-.166c-.025-.004-.066-.038-.066-.058-.005-.274-.003-.548-.003-.831l.633.05c.742.06 1.484.115 2.23.092.101-.003.205-.016.301-.045.16-.049.187-.165.056-.263a1.8 1.8 0 0 0-.387-.225c-.475-.198-.959-.376-1.433-.575-.451-.19-.87-.43-1.238-.751-.61-.536-.366-1.202.044-1.546a2.1 2.1 0 0 1 1.146-.479c.357-.038.717-.06 1.075-.089.027-.002.054-.011.081-.017zM44.974 23.958q-.215-.018-.43-.041-.681-.081-1.363-.168c-.027-.003-.07-.04-.071-.063-.005-.27-.003-.541-.003-.825l.366.027c.819.069 1.638.136 2.46.115.105-.002.214-.013.313-.042.06-.017.133-.071.148-.122.012-.044-.038-.128-.085-.157a3.6 3.6 0 0 0-.497-.266c-.433-.18-.874-.341-1.307-.521a4.5 4.5 0 0 1-1.143-.67c-.192-.158-.37-.335-.433-.577-.086-.328.003-.629.221-.886.333-.39.786-.578 1.293-.642.36-.045.723-.06 1.085-.09.027-.003.054-.012.081-.018h.699c.027.006.054.015.082.017.371.037.743.069 1.114.11.206.023.41.06.615.09v.818q-.058.001-.108 0c-.443-.03-.885-.069-1.329-.088q-.692-.03-1.385-.025c-.143 0-.295.035-.426.09-.137.058-.149.178-.048.285a.6.6 0 0 0 .192.136c.381.16.767.307 1.149.465.43.18.861.354 1.28.553.301.143.57.34.776.602.119.15.188.317.174.51-.024.352-.19.632-.474.851a1.7 1.7 0 0 1-.69.34c-.333.07-.674.105-1.011.148-.181.022-.365.03-.547.044zM18.35 22.19l.784 1.355H17.91c-.13 0-.261-.005-.392.001-.076.004-.111-.026-.143-.088a68 68 0 0 0-.557-1.084c-.018-.035-.068-.076-.104-.076q-.672-.006-1.344-.002c-.01 0-.02.005-.042.01v1.22c-.05.003-.087.006-.124.006-.554 0-1.108-.002-1.662.002-.092 0-.128-.018-.128-.116q.003-2.045.003-4.09c0-.033.004-.066.007-.109h4.376c.27 0 .535.035.785.14.348.148.542.39.533.774-.01.451-.014.903 0 1.354.016.464-.262.664-.67.696zm-3-.507h.751c.3 0 .6.004.9 0 .233-.004.344-.116.344-.334v-1.11c0-.264-.108-.368-.385-.369l-1.503-.003h-.106zM12.715 21.808H9.174c-.004.035-.009.057-.009.08v.936c0 .1.042.143.144.15q.053.001.106 0h3.26c.14 0 .14.001.14.133q-.002.184 0 .367c.002.06-.018.09-.084.084q-.052-.002-.106 0l-4.054-.001c-.155 0-.312-.003-.463-.03-.45-.08-.729-.38-.732-.82-.008-1.143-.003-2.286-.003-3.429q0-.007.006-.028h5.465q.002.161 0 .327c-.002.095.03.229-.02.273-.059.05-.192.027-.293.027H9.292c-.145 0-.145 0-.145.136 0 .332.004.664-.003.997-.002.1.033.122.132.122q1.647-.003 3.292-.002h.147zM25.606 19.267h.855v.122c0 .845.01 1.69-.003 2.534-.012.744.505 1.012 1 1.054.363.032.733.024 1.098.005.427-.022.67-.291.67-.702v-2.974h1.794v3.054c0 .729-.316 1.13-1.052 1.304-.22.052-.452.077-.68.083-.483.012-.966.006-1.45.003-.457-.004-.909-.049-1.334-.227-.47-.197-.798-.515-.891-1.019a1 1 0 0 1-.012-.172V19.37q.001-.048.005-.104M25.054 22.9c.004.143.01.277.009.41-.001.067-.027.134-.028.201 0 .115-.071.153-.173.16-.489.029-.977.07-1.467.08q-.756.016-1.512-.023a3 3 0 0 1-1.174-.31c-.63-.316-.962-.827-1.007-1.498-.028-.408-.043-.821.044-1.227.161-.746.659-1.198 1.392-1.433.367-.119.748-.181 1.133-.18.712.002 1.424.022 2.137.04.143.004.286.034.428.058.032.005.079.036.084.06q.048.255.075.51c.008.079-.039.107-.128.093a8.4 8.4 0 0 0-1.715-.122c-.65.026-1.08.347-1.349.893a.9.9 0 0 0-.074.344c-.01.288.01.577-.006.864-.028.506.284 1.033.992 1.148.674.109 1.341.092 2.01-.015zM39.547 21.522l.077-.103q.742-1.014 1.48-2.03c.045-.06.09-.086.166-.085q.884.003 1.767.001h.11c-.019.034-.03.058-.045.078q-1.018 1.293-2.038 2.583c-.149.19-.223.411-.24.644-.023.343-.018.687-.025 1.03v.167h-1.803q-.005-.056-.006-.113c0-.237-.006-.474.002-.71a1.83 1.83 0 0 0-.342-1.147c-.39-.557-.747-1.138-1.117-1.709l-.484-.744-.06-.103c.335 0 .655-.002.974.003.03 0 .066.046.088.079q.707 1.02 1.411 2.04zM48.618 18.372c0-.366.31-.664.691-.664.382 0 .691.298.691.665s-.31.665-.692.664a.68.68 0 0 1-.69-.665m.14 0a.54.54 0 0 0 .551.53.54.54 0 0 0 .55-.53.54.54 0 0 0-.55-.529.54.54 0 0 0-.55.53" clip-rule="evenodd"/><path fill="#c72127" fill-rule="evenodd" d="M49.006 18.705v-.695h.299a.5.5 0 0 1 .14.02.2.2 0 0 1 .088.057.16.16 0 0 1 .03.074.23.23 0 0 1-.006.105.16.16 0 0 1-.097.102l-.015.007-.017.005.012.004q.045.017.073.053a.4.4 0 0 1 .044.07l.099.192.003.006h-.192q-.006 0-.01-.005l-.09-.176-.026-.04a.1.1 0 0 0-.072-.04q-.037-.003-.076-.002v.263zm.187-.387h.087a.2.2 0 0 0 .042-.005q.043-.01.055-.052a.14.14 0 0 0 0-.06.07.07 0 0 0-.048-.054l-.024-.005-.11-.002h-.002zM0 5.715c.416 0 .833.01 1.249-.002a.91.91 0 0 1 .78.372c.098.123.18.26.256.397q.511.919 1.021 1.838c.03.052.083.092.125.138.042-.047.095-.088.124-.142q.671-1.256 1.332-2.518c.053-.1.106-.142.229-.14.451.01.903.004 1.355.004h.127v4.362H4.872V7.595l-.026-.009q-.032.048-.06.097c-.423.755-.848 1.509-1.266 2.266-.045.081-.095.108-.187.105a10 10 0 0 0-.625 0 .45.45 0 0 1-.368-.147 2 2 0 0 1-.254-.359c-.382-.714-.755-1.432-1.135-2.147-.024-.046-.076-.077-.115-.116-.018.051-.052.102-.053.153Q.773 8.684.767 9.93v.12H0zM34.895 5.47c.14.014.28.025.42.042q.66.08 1.32.168c.027.003.071.04.072.061.005.25.003.501.003.77-.165-.012-.321-.026-.477-.032q-1.152-.05-2.304-.091a1.7 1.7 0 0 0-.346.038c-.108.019-.207.07-.232.182-.024.106.056.176.135.236.037.03.083.05.128.069l1.94.778c.347.14.672.315.962.546q.09.072.17.152c.34.329.379.685.154 1.116-.097.186-.25.328-.426.445-.348.23-.736.351-1.155.382l-.918.068q-.04.005-.081.016h-.7c-.15-.014-.3-.025-.45-.042a133 133 0 0 1-1.353-.167c-.025-.003-.066-.037-.066-.058-.005-.273-.003-.548-.003-.831l.633.05c.742.06 1.484.115 2.23.093.101-.003.205-.017.301-.046.16-.048.187-.164.056-.263a1.8 1.8 0 0 0-.387-.225c-.475-.197-.959-.376-1.433-.575-.451-.19-.87-.429-1.238-.75-.61-.537-.366-1.203.044-1.547a2.1 2.1 0 0 1 1.146-.479c.357-.038.717-.059 1.075-.089q.04-.005.081-.017zM44.974 10.417c-.143-.014-.287-.025-.43-.042q-.681-.08-1.363-.168c-.027-.003-.07-.04-.071-.063-.005-.27-.003-.54-.003-.825l.366.028c.819.068 1.638.135 2.46.115.105-.003.214-.013.313-.043.06-.017.133-.07.148-.122.012-.043-.038-.128-.085-.157a3.6 3.6 0 0 0-.497-.265c-.433-.18-.874-.342-1.307-.522a4.5 4.5 0 0 1-1.143-.67c-.192-.158-.37-.334-.433-.577-.086-.327.003-.629.221-.886.333-.39.786-.577 1.293-.641.36-.046.723-.061 1.085-.091.027-.002.054-.011.081-.017h.699c.027.005.054.014.082.017.371.036.743.068 1.114.11.206.022.41.059.615.09v.818q-.058.001-.108 0c-.443-.03-.885-.07-1.329-.089q-.692-.03-1.385-.025c-.143 0-.295.035-.426.09-.137.059-.149.179-.048.286.052.056.12.106.192.136.381.159.767.306 1.149.465.43.178.861.353 1.28.552.301.143.57.34.776.602.119.15.188.318.174.51-.024.353-.19.633-.474.852a1.7 1.7 0 0 1-.69.34c-.333.069-.674.104-1.011.147-.181.023-.365.03-.547.045zM18.35 8.65l.784 1.354H17.91c-.13 0-.261-.006-.392 0-.076.004-.111-.025-.143-.088a68 68 0 0 0-.557-1.084c-.018-.034-.068-.076-.104-.076-.448-.005-.896-.003-1.344-.002-.01 0-.02.005-.042.01v1.22c-.05.003-.087.006-.124.006q-.831-.001-1.662.002c-.092 0-.128-.018-.128-.116q.003-2.044.003-4.09c0-.033.004-.066.007-.109h4.376c.27 0 .535.035.785.141.348.148.542.39.533.774-.01.45-.014.902 0 1.353.016.464-.262.665-.67.696zm-3-.508h.751c.3 0 .6.003.9-.001.233-.004.344-.116.344-.334v-1.11c0-.264-.108-.368-.385-.369l-1.503-.002h-.106zM12.715 8.267H9.174c-.004.034-.009.057-.009.08v.936c0 .1.042.142.144.149q.053.002.106 0l3.26.001c.14 0 .14 0 .14.133q-.002.183 0 .366c.002.06-.018.09-.084.085-.035-.003-.07 0-.106 0q-2.027 0-4.054-.002a3 3 0 0 1-.463-.03c-.45-.079-.729-.38-.732-.82-.008-1.142-.003-2.285-.003-3.429q0-.007.006-.028h5.465q.002.162 0 .328c-.002.094.03.228-.02.272-.059.05-.192.027-.293.027q-1.62.002-3.239.001c-.145 0-.145 0-.145.135 0 .332.004.665-.003.997-.002.101.033.123.132.122q1.647-.003 3.292-.002h.147zM25.606 5.726h.855v.122c0 .844.01 1.689-.003 2.533-.012.744.505 1.012 1 1.055.363.031.733.023 1.098.005.427-.023.67-.292.67-.703V5.764h1.794V8.82c0 .728-.316 1.13-1.052 1.303-.22.052-.452.077-.68.083-.483.012-.966.007-1.45.003-.457-.004-.909-.048-1.334-.226-.47-.198-.798-.516-.891-1.02a1 1 0 0 1-.012-.172V5.83q.001-.05.005-.104M25.054 9.357c.004.145.01.278.009.411-.001.067-.027.134-.028.201 0 .116-.071.153-.173.16-.489.029-.977.07-1.467.08q-.756.016-1.512-.023a2.95 2.95 0 0 1-1.174-.31c-.63-.315-.962-.826-1.007-1.497-.028-.408-.043-.822.044-1.227.161-.747.659-1.198 1.392-1.434.367-.118.748-.18 1.133-.18.712.003 1.424.022 2.137.04.143.005.286.034.428.058.032.006.079.036.084.061q.048.254.075.51c.008.078-.039.107-.128.092a8.4 8.4 0 0 0-1.715-.122c-.65.026-1.08.348-1.349.893a.9.9 0 0 0-.074.344c-.01.288.01.577-.006.865-.028.506.284 1.032.992 1.147a6.3 6.3 0 0 0 2.01-.014zM39.547 7.98l.077-.103q.742-1.013 1.48-2.03c.045-.06.09-.086.166-.085q.884.003 1.767.002h.11c-.019.033-.03.058-.045.078l-2.038 2.583c-.149.188-.223.41-.24.643-.023.343-.018.687-.025 1.031v.167h-1.803q-.005-.057-.006-.114c0-.237-.006-.473.002-.71a1.83 1.83 0 0 0-.342-1.146c-.39-.558-.747-1.138-1.117-1.71l-.484-.744-.06-.103c.335 0 .655-.002.974.004.03 0 .066.046.088.078q.707 1.02 1.411 2.04zM48.618 4.83c0-.366.31-.664.691-.663.382 0 .691.298.691.664s-.31.665-.692.664a.68.68 0 0 1-.69-.664m.14.001a.54.54 0 0 0 .551.53.54.54 0 0 0 .55-.53.54.54 0 0 0-.55-.53.54.54 0 0 0-.55.53" clip-rule="evenodd"/><path fill="#c72127" fill-rule="evenodd" d="M49.006 5.163v-.695h.299a.5.5 0 0 1 .14.02.18.18 0 0 1 .088.058.16.16 0 0 1 .03.073.23.23 0 0 1-.006.105.16.16 0 0 1-.097.103l-.015.006-.017.005.012.004q.045.016.073.054a.4.4 0 0 1 .044.07l.099.191.003.006h-.192q-.006.001-.01-.005l-.09-.176-.026-.04a.1.1 0 0 0-.072-.04q-.037-.002-.076-.002v.263zm.187-.386h.087a.2.2 0 0 0 .042-.006q.043-.01.055-.052a.14.14 0 0 0 0-.06.07.07 0 0 0-.048-.053q-.012-.005-.024-.005l-.11-.003h-.002zM0 36.56c.416.001.833.011 1.249 0a.91.91 0 0 1 .78.371c.098.123.18.26.256.397q.511.919 1.021 1.838c.03.052.083.092.125.138.042-.047.095-.089.124-.142q.671-1.257 1.332-2.518c.053-.1.106-.142.229-.14.451.01.903.004 1.355.004h.127v4.362H4.872v-2.429l-.026-.009q-.032.048-.06.097c-.423.755-.848 1.509-1.266 2.265-.045.082-.095.109-.187.106a10 10 0 0 0-.625 0 .45.45 0 0 1-.368-.147 2 2 0 0 1-.254-.36c-.382-.713-.755-1.431-1.135-2.146-.024-.046-.076-.078-.115-.116-.018.05-.052.102-.053.153q-.01 1.246-.016 2.493v.12H0zM34.895 36.316c.14.014.28.025.42.042q.66.08 1.32.167c.027.004.071.04.072.062.005.25.003.501.003.77-.165-.012-.321-.026-.477-.032q-1.152-.05-2.304-.091c-.115-.004-.232.017-.346.037-.108.02-.207.071-.232.183-.024.106.056.176.135.236a.5.5 0 0 0 .128.069l1.94.778c.347.14.672.315.962.546q.09.072.17.152c.34.329.379.685.154 1.116-.097.186-.25.328-.426.445-.348.23-.736.35-1.155.382l-.918.068c-.027.002-.054.01-.081.016h-.7c-.15-.014-.3-.025-.45-.043q-.676-.08-1.353-.166c-.025-.003-.066-.037-.066-.058-.005-.274-.003-.548-.003-.831l.633.05c.742.06 1.484.115 2.23.092.101-.003.205-.016.301-.045.16-.048.187-.164.056-.263a1.8 1.8 0 0 0-.387-.225c-.475-.197-.959-.376-1.433-.575-.451-.19-.87-.43-1.238-.751-.61-.536-.366-1.202.044-1.546a2.1 2.1 0 0 1 1.146-.479c.357-.038.717-.06 1.075-.089.027-.002.054-.011.081-.017zM44.974 41.263q-.215-.02-.43-.042-.681-.081-1.363-.168c-.027-.003-.07-.04-.071-.063-.005-.27-.003-.54-.003-.825l.366.028c.819.068 1.638.135 2.46.115.105-.003.214-.014.313-.043.06-.017.133-.071.148-.122.012-.044-.038-.128-.085-.157a3.6 3.6 0 0 0-.497-.266c-.433-.18-.874-.341-1.307-.521a4.5 4.5 0 0 1-1.143-.67c-.192-.158-.37-.334-.433-.577-.086-.328.003-.629.221-.886.333-.39.786-.578 1.293-.642.36-.045.723-.06 1.085-.09.027-.003.054-.012.081-.018h.699c.027.006.054.015.082.017.371.037.743.07 1.114.11.206.023.41.06.615.09v.818q-.058.002-.108 0c-.443-.03-.885-.069-1.329-.088q-.692-.03-1.385-.025c-.143 0-.295.035-.426.09-.137.058-.149.178-.048.286a.6.6 0 0 0 .192.136c.381.158.767.306 1.149.465.43.178.861.353 1.28.552.301.143.57.34.776.602.119.15.188.318.174.51-.024.353-.19.632-.474.852a1.7 1.7 0 0 1-.69.34c-.333.069-.674.104-1.011.147-.181.023-.365.03-.547.044zM18.35 39.495l.784 1.355H17.91c-.13 0-.261-.006-.392 0-.076.004-.111-.026-.143-.088a68 68 0 0 0-.557-1.084c-.018-.034-.068-.076-.104-.076q-.672-.006-1.344-.002c-.01 0-.02.005-.042.01v1.22c-.05.003-.087.006-.124.006q-.831-.001-1.662.002c-.092 0-.128-.018-.128-.116q.003-2.045.003-4.09c0-.033.004-.066.007-.109h4.376c.27 0 .535.035.785.14.348.149.542.391.533.775-.01.45-.014.902 0 1.353.016.464-.262.664-.67.696zm-3-.508h.751c.3 0 .6.004.9 0 .233-.004.344-.116.344-.334v-1.11c0-.264-.108-.368-.385-.369l-1.503-.002h-.106zM12.715 39.113H9.174c-.004.034-.009.057-.009.08v.936c0 .1.042.142.144.149q.053.002.106 0h3.26c.14 0 .14.001.14.134q-.002.183 0 .366c.002.06-.018.09-.084.084q-.052-.002-.106 0-2.027.001-4.054-.001c-.155 0-.312-.003-.463-.03-.45-.08-.729-.38-.732-.82-.008-1.142-.003-2.286-.003-3.429q0-.007.006-.028h5.465q.002.162 0 .328c-.002.094.03.228-.02.272-.059.05-.192.027-.293.027q-1.62.002-3.239.001c-.145 0-.145 0-.145.135 0 .332.004.665-.003.997-.002.1.033.122.132.122q1.647-.003 3.292-.002h.147zM25.606 36.572h.855v.122c0 .844.01 1.689-.003 2.533-.012.744.505 1.012 1 1.055a8 8 0 0 0 1.098.004c.427-.022.67-.291.67-.702V36.61h1.794v3.055c0 .728-.316 1.129-1.052 1.303-.22.052-.452.077-.68.083-.483.012-.966.007-1.45.003-.457-.004-.909-.048-1.334-.226-.47-.198-.798-.516-.891-1.02a1 1 0 0 1-.012-.172v-2.96q.001-.05.005-.104M25.054 40.203c.004.145.01.278.009.411-.001.067-.027.134-.028.201 0 .116-.071.153-.173.16-.489.029-.977.07-1.467.08q-.756.016-1.512-.023a2.95 2.95 0 0 1-1.174-.31c-.63-.315-.962-.827-1.007-1.497-.028-.408-.043-.822.044-1.227.161-.747.659-1.198 1.392-1.434a3.7 3.7 0 0 1 1.133-.18c.712.002 1.424.022 2.137.04.143.005.286.034.428.058.032.006.079.036.084.061q.048.253.075.51c.008.078-.039.107-.128.092a8.4 8.4 0 0 0-1.715-.122c-.65.026-1.08.347-1.349.893a.9.9 0 0 0-.074.344c-.01.288.01.577-.006.865-.028.506.284 1.032.992 1.147a6.3 6.3 0 0 0 2.01-.014zM39.547 38.826l.077-.103q.742-1.014 1.48-2.03c.045-.06.09-.086.166-.085q.884.003 1.767.001h.11c-.019.034-.03.058-.045.078l-2.038 2.584c-.149.188-.223.41-.24.643-.023.343-.018.687-.025 1.03v.167h-1.803q-.005-.056-.006-.113c0-.237-.006-.474.002-.71a1.83 1.83 0 0 0-.342-1.146c-.39-.558-.747-1.139-1.117-1.71l-.484-.744-.06-.103c.335 0 .655-.002.974.003.03 0 .066.046.088.079q.707 1.02 1.411 2.04zM48.618 35.677c0-.367.31-.665.691-.664.382 0 .691.297.691.664s-.31.665-.692.664a.68.68 0 0 1-.69-.664m.14 0a.54.54 0 0 0 .551.529.54.54 0 0 0 .55-.53.54.54 0 0 0-.55-.529.54.54 0 0 0-.55.53" clip-rule="evenodd"/><path fill="#c72127" fill-rule="evenodd" d="M49.006 36.009v-.695h.299a.5.5 0 0 1 .14.02.18.18 0 0 1 .088.058.16.16 0 0 1 .03.073.23.23 0 0 1-.006.105.16.16 0 0 1-.097.102l-.015.007-.017.005.012.004q.045.017.073.053a.4.4 0 0 1 .044.07l.099.192.003.006h-.192q-.006 0-.01-.005l-.09-.176-.026-.04a.1.1 0 0 0-.072-.04q-.037-.003-.076-.002v.263zm.187-.386h.087a.2.2 0 0 0 .042-.006q.043-.01.055-.052a.14.14 0 0 0 0-.06.07.07 0 0 0-.048-.053q-.012-.005-.024-.005l-.11-.003h-.002zM0 36.56c.416.001.833.011 1.249 0a.91.91 0 0 1 .78.371c.098.123.18.26.256.397q.511.919 1.021 1.838c.03.052.083.092.125.138.042-.047.095-.089.124-.142q.671-1.257 1.332-2.518c.053-.1.106-.142.229-.14.451.01.903.004 1.355.004h.127v4.362H4.872v-2.429l-.026-.009q-.032.048-.06.097c-.423.755-.848 1.509-1.266 2.265-.045.082-.095.109-.187.106a10 10 0 0 0-.625 0 .45.45 0 0 1-.368-.147 2 2 0 0 1-.254-.36c-.382-.713-.755-1.431-1.135-2.146-.024-.046-.076-.078-.115-.116-.018.05-.052.102-.053.153q-.01 1.246-.016 2.493v.12H0zM34.895 36.316c.14.014.28.025.42.042q.66.08 1.32.167c.027.004.071.04.072.062.005.25.003.501.003.77-.165-.012-.321-.026-.477-.032q-1.152-.05-2.304-.091c-.115-.004-.232.017-.346.037-.108.02-.207.071-.232.183-.024.106.056.176.135.236a.5.5 0 0 0 .128.069l1.94.778c.347.14.672.315.962.546q.09.072.17.152c.34.329.379.685.154 1.116-.097.186-.25.328-.426.445-.348.23-.736.35-1.155.382l-.918.068c-.027.002-.054.01-.081.016h-.7c-.15-.014-.3-.025-.45-.043q-.676-.08-1.353-.166c-.025-.003-.066-.037-.066-.058-.005-.274-.003-.548-.003-.831l.633.05c.742.06 1.484.115 2.23.092.101-.003.205-.016.301-.045.16-.048.187-.164.056-.263a1.8 1.8 0 0 0-.387-.225c-.475-.197-.959-.376-1.433-.575-.451-.19-.87-.43-1.238-.751-.61-.536-.366-1.202.044-1.546a2.1 2.1 0 0 1 1.146-.479c.357-.038.717-.06 1.075-.089.027-.002.054-.011.081-.017zM44.974 41.263q-.215-.02-.43-.042-.681-.081-1.363-.168c-.027-.003-.07-.04-.071-.063-.005-.27-.003-.54-.003-.825l.366.028c.819.068 1.638.135 2.46.115.105-.003.214-.014.313-.043.06-.017.133-.071.148-.122.012-.044-.038-.128-.085-.157a3.6 3.6 0 0 0-.497-.266c-.433-.18-.874-.341-1.307-.521a4.5 4.5 0 0 1-1.143-.67c-.192-.158-.37-.334-.433-.577-.086-.328.003-.629.221-.886.333-.39.786-.578 1.293-.642.36-.045.723-.06 1.085-.09.027-.003.054-.012.081-.018h.699c.027.006.054.015.082.017.371.037.743.07 1.114.11.206.023.41.06.615.09v.818q-.058.002-.108 0c-.443-.03-.885-.069-1.329-.088q-.692-.03-1.385-.025c-.143 0-.295.035-.426.09-.137.058-.149.178-.048.286a.6.6 0 0 0 .192.136c.381.158.767.306 1.149.465.43.178.861.353 1.28.552.301.143.57.34.776.602.119.15.188.318.174.51-.024.353-.19.632-.474.852a1.7 1.7 0 0 1-.69.34c-.333.069-.674.104-1.011.147-.181.023-.365.03-.547.044zM18.35 39.495l.784 1.355H17.91c-.13 0-.261-.006-.392 0-.076.004-.111-.026-.143-.088a68 68 0 0 0-.557-1.084c-.018-.034-.068-.076-.104-.076q-.672-.006-1.344-.002c-.01 0-.02.005-.042.01v1.22c-.05.003-.087.006-.124.006q-.831-.001-1.662.002c-.092 0-.128-.018-.128-.116q.003-2.045.003-4.09c0-.033.004-.066.007-.109h4.376c.27 0 .535.035.785.14.348.149.542.391.533.775-.01.45-.014.902 0 1.353.016.464-.262.664-.67.696zm-3-.508h.751c.3 0 .6.004.9 0 .233-.004.344-.116.344-.334v-1.11c0-.264-.108-.368-.385-.369l-1.503-.002h-.106zM12.715 39.113H9.174c-.004.034-.009.057-.009.08v.936c0 .1.042.142.144.149q.053.002.106 0h3.26c.14 0 .14.001.14.134q-.002.183 0 .366c.002.06-.018.09-.084.084q-.052-.002-.106 0-2.027.001-4.054-.001c-.155 0-.312-.003-.463-.03-.45-.08-.729-.38-.732-.82-.008-1.142-.003-2.286-.003-3.429q0-.007.006-.028h5.465q.002.162 0 .328c-.002.094.03.228-.02.272-.059.05-.192.027-.293.027q-1.62.002-3.239.001c-.145 0-.145 0-.145.135 0 .332.004.665-.003.997-.002.1.033.122.132.122q1.647-.003 3.292-.002h.147zM25.606 36.572h.855v.122c0 .844.01 1.689-.003 2.533-.012.744.505 1.012 1 1.055a8 8 0 0 0 1.098.004c.427-.022.67-.291.67-.702V36.61h1.794v3.055c0 .728-.316 1.129-1.052 1.303-.22.052-.452.077-.68.083-.483.012-.966.007-1.45.003-.457-.004-.909-.048-1.334-.226-.47-.198-.798-.516-.891-1.02a1 1 0 0 1-.012-.172v-2.96q.001-.05.005-.104M25.054 40.203c.004.145.01.278.009.411-.001.067-.027.134-.028.201 0 .116-.071.153-.173.16-.489.029-.977.07-1.467.08q-.756.016-1.512-.023a2.95 2.95 0 0 1-1.174-.31c-.63-.315-.962-.827-1.007-1.497-.028-.408-.043-.822.044-1.227.161-.747.659-1.198 1.392-1.434a3.7 3.7 0 0 1 1.133-.18c.712.002 1.424.022 2.137.04.143.005.286.034.428.058.032.006.079.036.084.061q.048.253.075.51c.008.078-.039.107-.128.092a8.4 8.4 0 0 0-1.715-.122c-.65.026-1.08.347-1.349.893a.9.9 0 0 0-.074.344c-.01.288.01.577-.006.865-.028.506.284 1.032.992 1.147a6.3 6.3 0 0 0 2.01-.014zM39.547 38.826l.077-.103q.742-1.014 1.48-2.03c.045-.06.09-.086.166-.085q.884.003 1.767.001h.11c-.019.034-.03.058-.045.078l-2.038 2.584c-.149.188-.223.41-.24.643-.023.343-.018.687-.025 1.03v.167h-1.803q-.005-.056-.006-.113c0-.237-.006-.474.002-.71a1.83 1.83 0 0 0-.342-1.146c-.39-.558-.747-1.139-1.117-1.71l-.484-.744-.06-.103c.335 0 .655-.002.974.003.03 0 .066.046.088.079q.707 1.02 1.411 2.04z" clip-rule="evenodd"/><path fill="#c72127" fill-rule="evenodd" d="M48.618 35.677c0-.367.31-.665.691-.664.382 0 .691.297.691.664s-.31.665-.692.664a.68.68 0 0 1-.69-.664m.14 0a.54.54 0 0 0 .551.529.54.54 0 0 0 .55-.53.54.54 0 0 0-.55-.529.54.54 0 0 0-.55.53" clip-rule="evenodd"/><path fill="#c72127" fill-rule="evenodd" d="M49.006 36.009v-.695h.299a.5.5 0 0 1 .14.02.18.18 0 0 1 .088.058.16.16 0 0 1 .03.073.23.23 0 0 1-.006.105.16.16 0 0 1-.097.102l-.015.007-.017.005.012.004q.045.017.073.053a.4.4 0 0 1 .044.07l.099.192.003.006h-.192q-.006 0-.01-.005l-.09-.176-.026-.04a.1.1 0 0 0-.072-.04q-.037-.003-.076-.002v.263zm.187-.386h.087a.2.2 0 0 0 .042-.006q.043-.01.055-.052a.14.14 0 0 0 0-.06.07.07 0 0 0-.048-.053q-.012-.005-.024-.005l-.11-.003h-.002zM0 41.132c.416 0 .833.01 1.249-.002a.91.91 0 0 1 .78.372c.098.123.18.26.256.397q.511.918 1.021 1.837c.03.053.083.093.125.139.042-.047.095-.089.124-.142q.671-1.257 1.332-2.518c.053-.1.106-.142.229-.14.451.009.903.004 1.355.004h.127v4.362H4.872v-2.429l-.026-.009q-.032.048-.06.097c-.423.755-.848 1.508-1.266 2.265-.045.082-.095.108-.187.105a10 10 0 0 0-.625 0 .45.45 0 0 1-.368-.146 2 2 0 0 1-.254-.36c-.382-.713-.755-1.431-1.135-2.146-.024-.046-.076-.078-.115-.116-.018.05-.052.102-.053.153Q.773 44.1.767 45.347v.12H0zM34.895 40.887c.14.014.28.025.42.042q.66.08 1.32.167c.027.004.071.04.072.062.005.25.003.5.003.77-.165-.012-.321-.026-.477-.033q-1.152-.05-2.304-.09c-.115-.004-.232.017-.346.037-.108.02-.207.07-.232.183-.024.106.056.176.135.236a.5.5 0 0 0 .128.068l1.94.779c.347.14.672.315.962.546q.09.072.17.152c.34.329.379.684.154 1.116-.097.186-.25.328-.426.445-.348.23-.736.35-1.155.382q-.459.033-.918.068-.04.005-.081.016h-.7c-.15-.014-.3-.025-.45-.043q-.676-.08-1.353-.166c-.025-.004-.066-.038-.066-.058-.005-.274-.003-.548-.003-.831l.633.05c.742.06 1.484.115 2.23.092.101-.003.205-.016.301-.045.16-.049.187-.165.056-.263a1.8 1.8 0 0 0-.387-.225c-.475-.197-.959-.376-1.433-.575-.451-.19-.87-.43-1.238-.751-.61-.536-.366-1.202.044-1.546a2.1 2.1 0 0 1 1.146-.479c.357-.038.717-.06 1.075-.089.027-.002.054-.011.081-.017zM44.974 45.833q-.215-.018-.43-.041-.681-.081-1.363-.168c-.027-.003-.07-.04-.071-.063-.005-.27-.003-.541-.003-.825l.366.028c.819.068 1.638.135 2.46.114.105-.002.214-.013.313-.042.06-.017.133-.071.148-.122.012-.044-.038-.128-.085-.157a3.6 3.6 0 0 0-.497-.266c-.433-.18-.874-.341-1.307-.521a4.5 4.5 0 0 1-1.143-.67c-.192-.158-.37-.334-.433-.577-.086-.328.003-.629.221-.886.333-.39.786-.578 1.293-.642.36-.045.723-.06 1.085-.09.027-.003.054-.012.081-.018h.699c.027.006.054.015.082.017.371.037.743.069 1.114.11.206.022.41.06.615.09v.818q-.058.002-.108 0c-.443-.03-.885-.069-1.329-.088q-.692-.03-1.385-.025c-.143 0-.295.035-.426.09-.137.058-.149.178-.048.285a.6.6 0 0 0 .192.137c.381.158.767.306 1.149.464.43.18.861.354 1.28.553.301.143.57.34.776.602.119.15.188.317.174.51-.024.352-.19.632-.474.851a1.7 1.7 0 0 1-.69.34c-.333.07-.674.105-1.011.148-.181.023-.365.03-.547.044zM18.35 44.066l.784 1.354H17.91c-.13 0-.261-.005-.392.001-.076.004-.111-.026-.143-.088a68 68 0 0 0-.557-1.084c-.018-.035-.068-.076-.104-.077q-.672-.004-1.344-.001c-.01 0-.02.005-.042.01v1.22c-.05.003-.087.006-.124.006-.554 0-1.108-.002-1.662.002-.092 0-.128-.018-.128-.116q.003-2.045.003-4.09c0-.033.004-.066.007-.109h4.376c.27 0 .535.035.785.14.348.148.542.39.533.774-.01.451-.014.903 0 1.354.016.464-.262.664-.67.695zm-3-.508h.751c.3 0 .6.004.9 0 .233-.004.344-.116.344-.334v-1.11c0-.264-.108-.368-.385-.369l-1.503-.003h-.106zM12.715 43.683H9.174c-.004.035-.009.057-.009.08v.937c0 .1.042.142.144.149q.053.002.106 0h3.26c.14 0 .14.001.14.133q-.002.184 0 .367c.002.06-.018.09-.084.084q-.052-.002-.106 0l-4.054-.001c-.155 0-.312-.003-.463-.03-.45-.08-.729-.38-.732-.82-.008-1.143-.003-2.286-.003-3.429q0-.007.006-.028h5.465q.002.161 0 .327c-.002.095.03.229-.02.273-.059.05-.192.027-.293.027H9.292c-.145 0-.145 0-.145.136 0 .332.004.665-.003.997-.002.1.033.122.132.122q1.647-.003 3.292-.002h.147zM25.606 41.142h.855v.122c0 .845.01 1.69-.003 2.534-.012.743.505 1.011 1 1.054.363.032.733.024 1.098.005.427-.022.67-.291.67-.702V41.18h1.794v3.054c0 .729-.316 1.13-1.052 1.304-.22.052-.452.077-.68.083-.483.012-.966.007-1.45.002-.457-.003-.909-.047-1.334-.226-.47-.197-.798-.515-.891-1.019a1 1 0 0 1-.012-.172v-2.961q.001-.048.005-.104M25.054 44.774c.004.144.01.278.009.411-.001.067-.027.134-.028.201 0 .115-.071.153-.173.16-.489.029-.977.07-1.467.08q-.756.015-1.512-.023a3 3 0 0 1-1.174-.31c-.63-.316-.962-.827-1.007-1.498-.028-.408-.043-.821.044-1.227.161-.746.659-1.197 1.392-1.433.367-.119.748-.181 1.133-.18.712.002 1.424.022 2.137.04.143.004.286.034.428.058.032.005.079.036.084.06q.048.255.075.51c.008.079-.039.108-.128.093a8.4 8.4 0 0 0-1.715-.122c-.65.026-1.08.347-1.349.893a.9.9 0 0 0-.074.344c-.01.288.01.577-.006.864-.028.507.284 1.033.992 1.148.674.109 1.341.092 2.01-.015zM39.547 43.397l.077-.103q.742-1.014 1.48-2.03c.045-.06.09-.086.166-.086q.884.004 1.767.002h.11c-.019.034-.03.058-.045.078q-1.018 1.293-2.038 2.583c-.149.19-.223.411-.24.644-.023.343-.018.687-.025 1.03v.167h-1.803q-.005-.056-.006-.114c0-.236-.006-.473.002-.71a1.83 1.83 0 0 0-.342-1.145c-.39-.558-.747-1.139-1.117-1.71l-.484-.744-.06-.103c.335 0 .655-.002.974.003.03 0 .066.046.088.078q.707 1.02 1.411 2.04zM48.618 40.247c0-.367.31-.664.691-.664.382 0 .691.298.691.665s-.31.665-.692.664a.68.68 0 0 1-.69-.665m.14 0a.54.54 0 0 0 .551.53.54.54 0 0 0 .55-.53.54.54 0 0 0-.55-.529.54.54 0 0 0-.55.53" clip-rule="evenodd"/><path fill="#c72127" fill-rule="evenodd" d="M49.006 40.58v-.695h.299a.5.5 0 0 1 .14.02.2.2 0 0 1 .088.057.16.16 0 0 1 .03.074.23.23 0 0 1-.006.105.16.16 0 0 1-.097.102l-.015.006-.017.006.012.004q.045.017.073.053a.4.4 0 0 1 .044.07l.099.192.003.006h-.192q-.006 0-.01-.005l-.09-.176-.026-.04a.1.1 0 0 0-.072-.04q-.037-.002-.076-.003v.264zm.187-.387h.087a.2.2 0 0 0 .042-.005q.043-.01.055-.052a.14.14 0 0 0 0-.06.07.07 0 0 0-.048-.054l-.024-.005-.11-.002h-.002zM48.618 48.58c0-.366.31-.664.691-.663.382 0 .691.298.691.664s-.31.665-.692.664a.68.68 0 0 1-.69-.664m.14.001c0 .292.247.53.551.53a.54.54 0 0 0 .55-.53.54.54 0 0 0-.55-.53.54.54 0 0 0-.55.53" clip-rule="evenodd"/><path fill="#c72127" fill-rule="evenodd" d="M49.006 48.913v-.695h.299a.5.5 0 0 1 .14.02.18.18 0 0 1 .088.058.16.16 0 0 1 .03.073.23.23 0 0 1-.006.105.16.16 0 0 1-.097.103l-.015.006-.017.005.012.004q.045.016.073.054a.4.4 0 0 1 .044.07l.099.191.003.006h-.192q-.006.001-.01-.005l-.09-.176-.026-.04a.1.1 0 0 0-.072-.04q-.037-.002-.076-.002v.263zm.187-.386h.087a.2.2 0 0 0 .042-.006q.043-.01.055-.052a.14.14 0 0 0 0-.06.07.07 0 0 0-.048-.053q-.012-.005-.024-.005l-.11-.003h-.002zM0 27.59c.416 0 .833.01 1.249-.002a.91.91 0 0 1 .78.372c.098.123.18.26.256.397q.511.919 1.021 1.838c.03.052.083.092.125.138.042-.047.095-.088.124-.142q.671-1.256 1.332-2.518c.053-.1.106-.142.229-.14.451.01.903.004 1.355.004h.127V31.9H4.872v-2.428l-.026-.01q-.032.048-.06.097c-.423.755-.848 1.509-1.266 2.266-.045.081-.095.108-.187.105a10 10 0 0 0-.625 0 .45.45 0 0 1-.368-.147 2 2 0 0 1-.254-.359c-.382-.714-.755-1.432-1.135-2.147-.024-.046-.076-.077-.115-.116-.018.051-.052.102-.053.153q-.01 1.246-.016 2.493v.12H0zM34.895 27.346q.21.018.42.041.66.08 1.32.168c.027.003.071.04.072.061.005.25.003.501.003.77-.165-.012-.321-.026-.477-.032-.768-.032-1.536-.065-2.304-.091a1.7 1.7 0 0 0-.346.038c-.108.019-.207.07-.232.182-.024.106.056.176.135.236.037.03.083.05.128.069l1.94.778c.347.14.672.315.962.546q.09.072.17.152c.34.329.379.685.154 1.116-.097.186-.25.328-.426.445-.348.23-.736.351-1.155.382l-.918.068q-.04.005-.081.017h-.7c-.15-.015-.3-.026-.45-.043a133 133 0 0 1-1.353-.167c-.025-.003-.066-.037-.066-.058-.005-.274-.003-.547-.003-.831l.633.05c.742.06 1.484.115 2.23.093.101-.003.205-.017.301-.046.16-.048.187-.164.056-.263a1.8 1.8 0 0 0-.387-.225c-.475-.197-.959-.376-1.433-.575a4.5 4.5 0 0 1-1.238-.75c-.61-.537-.366-1.203.044-1.547a2.1 2.1 0 0 1 1.146-.479c.357-.038.717-.059 1.075-.088.027-.003.054-.012.081-.018zM44.974 32.292c-.143-.014-.287-.025-.43-.042q-.681-.08-1.363-.167c-.027-.004-.07-.041-.071-.064-.005-.27-.003-.54-.003-.825l.366.028c.819.068 1.638.135 2.46.115.105-.003.214-.013.313-.043.06-.017.133-.07.148-.122.012-.043-.038-.128-.085-.157a3.6 3.6 0 0 0-.497-.265c-.433-.18-.874-.342-1.307-.522a4.5 4.5 0 0 1-1.143-.67c-.192-.158-.37-.334-.433-.577-.086-.327.003-.629.221-.886.333-.39.786-.577 1.293-.641.36-.046.723-.061 1.085-.091q.04-.006.081-.017h.699c.027.005.054.014.082.017.371.036.743.068 1.114.11.206.022.41.059.615.09v.818q-.058.002-.108 0c-.443-.03-.885-.07-1.329-.089q-.692-.03-1.385-.025c-.143 0-.295.035-.426.09-.137.059-.149.179-.048.286.052.056.12.106.192.136.381.159.767.306 1.149.465.43.178.861.353 1.28.552.301.143.57.34.776.602.119.15.188.318.174.51-.024.353-.19.633-.474.852a1.7 1.7 0 0 1-.69.34c-.333.069-.674.105-1.011.147-.181.023-.365.03-.547.045zM18.35 30.524l.784 1.355H17.91c-.13 0-.261-.006-.392 0-.076.004-.111-.025-.143-.088a68 68 0 0 0-.557-1.084c-.018-.034-.068-.076-.104-.076q-.672-.005-1.344-.002c-.01 0-.02.005-.042.01v1.22c-.05.003-.087.006-.124.006q-.831-.001-1.662.002c-.092 0-.128-.018-.128-.116q.003-2.044.003-4.09c0-.033.004-.066.007-.109h4.376c.27 0 .535.035.785.141.348.148.542.39.533.774-.01.45-.014.902 0 1.353.016.465-.262.665-.67.696zm-3-.508h.751c.3 0 .6.004.9 0 .233-.004.344-.116.344-.334v-1.11c0-.264-.108-.368-.385-.369l-1.503-.002h-.106zM12.715 30.142H9.174c-.004.034-.009.057-.009.08v.936c0 .1.042.142.144.149q.053.002.106 0l3.26.001c.14 0 .14 0 .14.133q-.002.183 0 .366c.002.06-.018.09-.084.085-.035-.003-.07 0-.106 0q-2.027 0-4.054-.002c-.155 0-.312-.003-.463-.03-.45-.079-.729-.38-.732-.82-.008-1.142-.003-2.285-.003-3.428 0-.007.003-.014.006-.029h5.465q.002.163 0 .328c-.002.094.03.228-.02.272-.059.05-.192.027-.293.027q-1.62.002-3.239.001c-.145 0-.145 0-.145.135 0 .332.004.665-.003.997-.002.101.033.123.132.122q1.647-.003 3.292-.002h.147zM25.606 27.6h.855v.123c0 .844.01 1.689-.003 2.533-.012.744.505 1.012 1 1.055.363.031.733.023 1.098.005.427-.023.67-.292.67-.703V27.64h1.794v3.055c0 .728-.316 1.13-1.052 1.303-.22.052-.452.077-.68.083-.483.012-.966.007-1.45.003-.457-.004-.909-.048-1.334-.226-.47-.198-.798-.516-.891-1.02a1 1 0 0 1-.012-.172v-2.96q.001-.05.005-.104M25.054 31.232c.004.145.01.278.009.411-.001.067-.027.134-.028.201 0 .116-.071.153-.173.16-.489.029-.977.07-1.467.08q-.756.016-1.512-.023a3 3 0 0 1-1.174-.31c-.63-.315-.962-.826-1.007-1.497-.028-.408-.043-.822.044-1.227.161-.747.659-1.198 1.392-1.434.367-.118.748-.18 1.133-.18.712.003 1.424.022 2.137.04.143.005.286.034.428.058.032.006.079.036.084.061q.048.254.075.51c.008.078-.039.107-.128.092a8.4 8.4 0 0 0-1.715-.122c-.65.026-1.08.348-1.349.893a.9.9 0 0 0-.074.344c-.01.288.01.577-.006.865-.028.506.284 1.032.992 1.147a6.3 6.3 0 0 0 2.01-.014zM39.547 29.855l.077-.103q.742-1.013 1.48-2.03c.045-.06.09-.086.166-.085q.884.003 1.767.002h.11c-.019.033-.03.058-.045.078L41.064 30.3c-.149.188-.223.41-.24.643-.023.343-.018.687-.025 1.031v.167h-1.803q-.005-.057-.006-.114c0-.237-.006-.473.002-.71a1.83 1.83 0 0 0-.342-1.146c-.39-.558-.747-1.138-1.117-1.71l-.484-.744-.06-.103c.335 0 .655-.002.974.004.03 0 .066.046.088.078q.707 1.02 1.411 2.04zM48.618 26.706c0-.367.31-.665.691-.664.382 0 .691.298.691.664s-.31.665-.692.664a.68.68 0 0 1-.69-.664m.14 0a.54.54 0 0 0 .551.53.54.54 0 0 0 .55-.53.54.54 0 0 0-.55-.53.54.54 0 0 0-.55.53" clip-rule="evenodd"/><path fill="#c72127" fill-rule="evenodd" d="M49.006 27.038v-.695h.299q.072-.001.14.02a.18.18 0 0 1 .088.058.16.16 0 0 1 .03.073.23.23 0 0 1-.006.105.16.16 0 0 1-.097.103l-.015.006-.017.005.012.004q.045.017.073.054a.4.4 0 0 1 .044.07l.099.191.003.006h-.192q-.006.001-.01-.005l-.09-.176-.026-.04a.1.1 0 0 0-.072-.04q-.037-.002-.076-.002v.263zm.187-.386h.087a.2.2 0 0 0 .042-.006q.043-.01.055-.052a.14.14 0 0 0 0-.06.07.07 0 0 0-.048-.053q-.012-.005-.024-.005l-.11-.003h-.002zM0 45.298c.416 0 .833.01 1.249-.001a.91.91 0 0 1 .78.372c.098.123.18.26.256.397q.511.918 1.021 1.837c.03.053.083.093.125.139.042-.048.095-.089.124-.142q.671-1.257 1.332-2.518c.053-.1.106-.143.229-.14.451.009.903.003 1.355.003h.127v4.363H4.872v-2.43l-.026-.008q-.032.048-.06.097c-.423.754-.848 1.508-1.266 2.265-.045.082-.095.108-.187.105a10 10 0 0 0-.625 0 .45.45 0 0 1-.368-.147 2 2 0 0 1-.254-.359c-.382-.714-.755-1.432-1.135-2.147-.024-.045-.076-.077-.115-.115-.018.05-.052.101-.053.152q-.01 1.247-.016 2.493v.12H0zM34.895 45.054c.14.014.28.024.42.041q.66.081 1.32.168c.027.004.071.04.072.062.005.25.003.5.003.769-.165-.011-.321-.026-.477-.032q-1.152-.05-2.304-.09c-.115-.005-.232.016-.346.037-.108.02-.207.07-.232.182-.024.107.056.177.135.236a.5.5 0 0 0 .128.069l1.94.779c.347.139.672.315.962.545q.09.073.17.152c.34.33.379.685.154 1.117a1.2 1.2 0 0 1-.426.444c-.348.23-.736.351-1.155.382l-.918.068c-.027.002-.054.011-.081.017h-.7c-.15-.014-.3-.025-.45-.043a133 133 0 0 1-1.353-.167c-.025-.003-.066-.037-.066-.057-.005-.274-.003-.548-.003-.832l.633.05c.742.06 1.484.116 2.23.093.101-.003.205-.016.301-.045.16-.049.187-.165.056-.264a1.8 1.8 0 0 0-.387-.225c-.475-.197-.959-.375-1.433-.575-.451-.189-.87-.429-1.238-.75-.61-.536-.366-1.203.044-1.547a2.1 2.1 0 0 1 1.146-.478c.357-.038.717-.06 1.075-.09q.04-.005.081-.016zM44.974 50c-.143-.014-.287-.025-.43-.042q-.681-.08-1.363-.167c-.027-.004-.07-.041-.071-.063-.005-.27-.003-.541-.003-.825.13.01.248.017.366.027.819.069 1.638.136 2.46.115.105-.003.214-.013.313-.042.06-.018.133-.072.148-.123.012-.043-.038-.127-.085-.157a3.6 3.6 0 0 0-.497-.265c-.433-.18-.874-.341-1.307-.522a4.5 4.5 0 0 1-1.143-.669c-.192-.159-.37-.335-.433-.577-.086-.328.003-.63.221-.886.333-.39.786-.578 1.293-.642.36-.046.723-.061 1.085-.09.027-.003.054-.012.081-.018h.699q.04.01.082.017c.371.037.743.069 1.114.11.206.022.41.06.615.09v.818q-.058.002-.108 0c-.443-.03-.885-.07-1.329-.088q-.692-.03-1.385-.026c-.143.001-.295.036-.426.091-.137.058-.149.178-.048.285a.6.6 0 0 0 .192.136c.381.159.767.306 1.149.465.43.179.861.353 1.28.553.301.143.57.34.776.601.119.15.188.318.174.51-.024.353-.19.633-.474.852a1.7 1.7 0 0 1-.69.34c-.333.07-.674.105-1.011.147-.181.023-.365.03-.547.045zM18.35 48.233l.784 1.354H17.91c-.13 0-.261-.006-.392.001-.076.004-.111-.026-.143-.089a68 68 0 0 0-.557-1.083c-.018-.035-.068-.076-.104-.077-.448-.005-.896-.002-1.344-.002-.01 0-.02.005-.042.01v1.221c-.05.002-.087.006-.124.006-.554 0-1.108-.002-1.662.002-.092 0-.128-.018-.128-.116q.003-2.046.003-4.09c0-.033.004-.066.007-.11h4.376c.27 0 .535.036.785.141.348.148.542.39.533.774-.01.451-.014.903 0 1.353.016.465-.262.665-.67.696zm-3-.508h.751c.3 0 .6.003.9-.001.233-.004.344-.115.344-.334v-1.109c0-.265-.108-.369-.385-.37l-1.503-.002h-.106zM12.715 47.85H9.174c-.004.034-.009.057-.009.08v.936c0 .1.042.142.144.15q.053.002.106 0h3.26c.14 0 .14 0 .14.133q-.002.183 0 .366c.002.06-.018.09-.084.085-.035-.003-.07 0-.106 0q-2.027 0-4.054-.002c-.155 0-.312-.003-.463-.03-.45-.079-.729-.38-.732-.819-.008-1.143-.003-2.286-.003-3.43q0-.008.006-.027h5.465q.002.161 0 .327c-.002.094.03.228-.02.273-.059.05-.192.027-.293.027H9.292c-.145 0-.145 0-.145.135 0 .333.004.665-.003.997-.002.101.033.123.132.123 1.098-.004 2.195-.002 3.292-.002h.147zM25.606 45.31h.855v.121c0 .845.01 1.69-.003 2.534-.012.743.505 1.011 1 1.054.363.031.733.024 1.098.005.427-.022.67-.292.67-.703v-2.974h1.794v3.055c0 .729-.316 1.13-1.052 1.303-.22.052-.452.078-.68.083-.483.013-.966.007-1.45.003-.457-.004-.909-.048-1.334-.226-.47-.197-.798-.516-.891-1.02a1 1 0 0 1-.012-.171v-2.961q.001-.048.005-.104M25.054 48.94c.004.145.01.278.009.412-.001.067-.027.134-.028.2 0 .116-.071.154-.173.16-.489.03-.977.071-1.467.081q-.756.016-1.512-.024a2.95 2.95 0 0 1-1.174-.31c-.63-.315-.962-.826-1.007-1.497-.028-.408-.043-.822.044-1.227.161-.747.659-1.198 1.392-1.434a3.7 3.7 0 0 1 1.133-.18c.712.003 1.424.023 2.137.041.143.004.286.033.428.058.032.005.079.035.084.06q.048.255.075.51c.008.078-.039.107-.128.093a8.4 8.4 0 0 0-1.715-.122c-.65.026-1.08.347-1.349.893a.9.9 0 0 0-.074.343c-.01.288.01.578-.006.865-.028.506.284 1.032.992 1.147.674.11 1.341.092 2.01-.014zM39.547 47.564l.077-.103q.742-1.014 1.48-2.03c.045-.06.09-.086.166-.086.589.004 1.178.002 1.767.002h.11c-.019.033-.03.058-.045.078q-1.018 1.292-2.038 2.583c-.149.189-.223.41-.24.644-.023.342-.018.687-.025 1.03v.167h-1.803q-.005-.056-.006-.114c0-.236-.006-.473.002-.71a1.83 1.83 0 0 0-.342-1.146c-.39-.557-.747-1.138-1.117-1.71q-.243-.37-.484-.744c-.018-.028-.034-.059-.06-.103.335 0 .655-.002.974.004.03 0 .066.046.088.078q.707 1.02 1.411 2.04zM48.618 44.414c0-.367.31-.664.691-.664.382 0 .691.298.691.665s-.31.664-.692.663a.68.68 0 0 1-.69-.664m.14 0a.54.54 0 0 0 .551.53.54.54 0 0 0 .55-.53.54.54 0 0 0-.55-.53.54.54 0 0 0-.55.53" clip-rule="evenodd"/><path fill="#c72127" fill-rule="evenodd" d="M49.006 44.746v-.694h.299a.5.5 0 0 1 .14.02.2.2 0 0 1 .088.057.16.16 0 0 1 .03.074.23.23 0 0 1-.006.105.16.16 0 0 1-.097.102l-.015.006-.017.006.012.003q.045.017.073.054a.4.4 0 0 1 .044.07l.099.191.003.007h-.192q-.006 0-.01-.005l-.09-.176-.026-.041a.1.1 0 0 0-.072-.04q-.037-.002-.076-.002v.264zm.187-.386h.087a.2.2 0 0 0 .042-.006q.043-.009.055-.051a.14.14 0 0 0 0-.061.07.07 0 0 0-.048-.053q-.012-.004-.024-.005l-.11-.002h-.002zM0 31.757c.416 0 .833.01 1.249-.002a.91.91 0 0 1 .78.372c.098.123.18.26.256.397q.511.918 1.021 1.837c.03.053.083.093.125.139.042-.047.095-.089.124-.142q.671-1.257 1.332-2.518c.053-.1.106-.142.229-.14.451.009.903.004 1.355.004h.127v4.362H4.872v-2.429l-.026-.009q-.032.048-.06.097c-.423.755-.848 1.508-1.266 2.265-.045.082-.095.108-.187.105a10 10 0 0 0-.625 0 .45.45 0 0 1-.368-.146 2 2 0 0 1-.254-.36c-.382-.713-.755-1.431-1.135-2.146-.024-.046-.076-.078-.115-.116-.018.05-.052.102-.053.153q-.01 1.246-.016 2.492v.12H0zM34.895 31.512c.14.014.28.025.42.042q.66.08 1.32.167c.027.004.071.04.072.062.005.25.003.5.003.77-.165-.012-.321-.026-.477-.033q-1.152-.05-2.304-.09c-.115-.004-.232.017-.346.037-.108.02-.207.07-.232.183-.024.106.056.176.135.236a.5.5 0 0 0 .128.068l1.94.779c.347.14.672.315.962.546q.09.071.17.152c.34.329.379.684.154 1.116-.097.186-.25.328-.426.445-.348.23-.736.35-1.155.382q-.459.033-.918.068-.04.005-.081.016h-.7c-.15-.014-.3-.025-.45-.043q-.676-.08-1.353-.166c-.025-.004-.066-.038-.066-.058-.005-.274-.003-.548-.003-.831l.633.05c.742.06 1.484.115 2.23.092.101-.003.205-.016.301-.045.16-.049.187-.165.056-.263a1.8 1.8 0 0 0-.387-.225c-.475-.197-.959-.376-1.433-.575-.451-.19-.87-.43-1.238-.751-.61-.536-.366-1.202.044-1.546a2.1 2.1 0 0 1 1.146-.479c.357-.038.717-.06 1.075-.089.027-.002.054-.011.081-.017zM44.974 36.458q-.215-.018-.43-.041-.681-.081-1.363-.168c-.027-.003-.07-.04-.071-.063-.005-.27-.003-.541-.003-.825l.366.028c.819.068 1.638.135 2.46.114.105-.002.214-.013.313-.042.06-.017.133-.071.148-.122.012-.044-.038-.128-.085-.157a3.6 3.6 0 0 0-.497-.266c-.433-.18-.874-.341-1.307-.521a4.5 4.5 0 0 1-1.143-.67c-.192-.158-.37-.334-.433-.577-.086-.328.003-.629.221-.886.333-.39.786-.578 1.293-.642.36-.045.723-.06 1.085-.09.027-.003.054-.012.081-.018h.699c.027.006.054.015.082.017.371.037.743.069 1.114.11.206.023.41.06.615.09v.818q-.058.002-.108 0c-.443-.03-.885-.069-1.329-.088q-.692-.03-1.385-.025c-.143 0-.295.035-.426.09-.137.058-.149.178-.048.285a.6.6 0 0 0 .192.137c.381.158.767.306 1.149.464.43.18.861.354 1.28.553.301.143.57.34.776.602.119.15.188.317.174.51-.024.352-.19.632-.474.851a1.7 1.7 0 0 1-.69.34c-.333.07-.674.105-1.011.148-.181.023-.365.03-.547.044zM18.35 34.69l.784 1.355H17.91c-.13 0-.261-.005-.392.001-.076.004-.111-.026-.143-.088a68 68 0 0 0-.557-1.084c-.018-.035-.068-.076-.104-.077q-.672-.004-1.344-.001c-.01 0-.02.005-.042.01v1.22c-.05.003-.087.006-.124.006-.554 0-1.108-.002-1.662.002-.092 0-.128-.018-.128-.116q.003-2.045.003-4.09c0-.033.004-.066.007-.109h4.376c.27 0 .535.035.785.14.348.148.542.39.533.774-.01.451-.014.903 0 1.354.016.464-.262.664-.67.695zm-3-.507h.751c.3 0 .6.004.9 0 .233-.004.344-.116.344-.334v-1.11c0-.264-.108-.368-.385-.369l-1.503-.003h-.106zM12.715 34.308H9.174c-.004.035-.009.057-.009.08v.937c0 .1.042.142.144.149q.053.002.106 0h3.26c.14 0 .14.001.14.133q-.002.184 0 .367c.002.06-.018.09-.084.084q-.052-.002-.106 0l-4.054-.001c-.155 0-.312-.003-.463-.03-.45-.08-.729-.38-.732-.82-.008-1.143-.003-2.286-.003-3.429q0-.007.006-.028h5.465q.002.161 0 .327c-.002.095.03.229-.02.273-.059.05-.192.027-.293.027H9.292c-.145 0-.145 0-.145.136 0 .332.004.665-.003.997-.002.1.033.122.132.122q1.647-.003 3.292-.002h.147zM25.606 31.767h.855v.122c0 .845.01 1.69-.003 2.534-.012.743.505 1.011 1 1.054.363.032.733.024 1.098.005.427-.022.67-.291.67-.702v-2.974h1.794v3.054c0 .729-.316 1.13-1.052 1.304-.22.052-.452.077-.68.083-.483.012-.966.007-1.45.002-.457-.003-.909-.047-1.334-.226-.47-.197-.798-.515-.891-1.019a1 1 0 0 1-.012-.172V31.87q.001-.048.005-.104M25.054 35.4c.004.143.01.277.009.41-.001.067-.027.134-.028.201 0 .115-.071.153-.173.16-.489.029-.977.07-1.467.08q-.756.015-1.512-.023a3 3 0 0 1-1.174-.31c-.63-.316-.962-.827-1.007-1.498-.028-.408-.043-.821.044-1.227.161-.746.659-1.197 1.392-1.433.367-.119.748-.181 1.133-.18.712.002 1.424.022 2.137.04.143.004.286.034.428.058.032.005.079.036.084.06q.048.255.075.51c.008.079-.039.108-.128.093a8.4 8.4 0 0 0-1.715-.122c-.65.026-1.08.347-1.349.893a.9.9 0 0 0-.074.344c-.01.288.01.577-.006.864-.028.507.284 1.033.992 1.148.674.109 1.341.092 2.01-.015zM39.547 34.022l.077-.103q.742-1.014 1.48-2.03c.045-.06.09-.086.166-.085q.884.003 1.767.001h.11c-.019.034-.03.058-.045.078q-1.018 1.293-2.038 2.583c-.149.19-.223.411-.24.644-.023.343-.018.687-.025 1.03v.167h-1.803q-.005-.056-.006-.114c0-.236-.006-.473.002-.71a1.83 1.83 0 0 0-.342-1.145c-.39-.558-.747-1.139-1.117-1.71l-.484-.744-.06-.103c.335 0 .655-.002.974.003.03 0 .066.046.088.079q.707 1.02 1.411 2.04zM48.618 30.872c0-.366.31-.664.691-.664.382 0 .691.298.691.665s-.31.665-.692.664a.68.68 0 0 1-.69-.665m.14 0a.54.54 0 0 0 .551.53.54.54 0 0 0 .55-.53.54.54 0 0 0-.55-.529.54.54 0 0 0-.55.53" clip-rule="evenodd"/><path fill="#c72127" fill-rule="evenodd" d="M49.006 31.205v-.695h.299a.5.5 0 0 1 .14.02.2.2 0 0 1 .088.057.16.16 0 0 1 .03.074.23.23 0 0 1-.006.105.16.16 0 0 1-.097.102l-.015.007-.017.005.012.004q.045.017.073.053a.4.4 0 0 1 .044.07l.099.192.003.006h-.192q-.006 0-.01-.005l-.09-.176-.026-.04a.1.1 0 0 0-.072-.04q-.037-.003-.076-.002v.263zm.187-.387h.087a.2.2 0 0 0 .042-.005q.043-.01.055-.052a.14.14 0 0 0 0-.06.07.07 0 0 0-.048-.054l-.024-.005-.11-.002h-.002z" clip-rule="evenodd"/></svg>