<svg xmlns="http://www.w3.org/2000/svg" width="50" height="50" fill="none" viewBox="0 0 50 50"><path fill="#d9d9d9" d="M0 0h50v50H0z"/><path fill="#1a222d" d="M47.043 36.081c.13.339.023.622-.264.855-2.686 2.18-5.506 4.158-8.575 5.759l-2.562 1.334c.528.426 1.125.546 1.758.522.694-.026 1.274-.347 1.81-.76.642-.493 1.248-1.039 1.922-1.48 1.63-1.071 3.388-.975 4.931.233.655.512 1.258 1.098 1.938 1.573.328.23.75.354 1.153.444l.089.02c.49.104.787.352.755.779-.033.423-.365.67-.867.637-1.064-.07-1.897-.622-2.679-1.291-.487-.418-.959-.863-1.485-1.225-.976-.671-2.012-.69-3.007-.046-.586.38-1.12.844-1.668 1.282-.884.704-1.838 1.223-3.003 1.24-1.277.02-2.304-.557-3.246-1.352-.336-.283-.67-.572-1.013-.847-1.286-1.035-2.604-1.035-3.895 0q-.226.18-.448.366l-.297.247q-.37.309-.751.603c-1.58 1.204-3.39 1.262-5.027.134-.596-.41-1.14-.898-1.707-1.35-1.291-1.025-2.363-1.022-3.677-.004l-.107.083-.322.252c-.43.334-.863.666-1.317.964-1.711 1.122-3.452 1.075-5.153-.01-.704-.448-1.346-.995-2.013-1.502l-.1-.076c-.266-.2-.529-.406-.802-.596-.381-.265-.791-.34-1.203-.087-.73.447-1.45.907-2.172 1.365-.682.432-1.341.908-2.05 1.288-.385.206-.846.302-1.285.359-.407.052-.688-.253-.703-.638-.016-.38.23-.618.612-.727l.022-.007c.406-.11.824-.248 1.176-.471.994-.63 1.957-1.31 2.93-1.971.028-.02.044-.055.077-.097l-.604-1.153q-.303-.577-.604-1.156c-.352-.678-.123-1.132.632-1.186 2.036-.147 4.073-.273 6.11-.405l11.722-.759 8.313-.541 11.722-.762q1.56-.1 3.117-.202l1.04-.07c.357-.024.644.085.777.432m-2.973 1.197-.035-.086-38.79 2.519.096.18c.251.475.474.904.717 1.321.023.038.1.046.183.049l.084.002.025.001.024.001c.337.026.706-.034 1.005.085.478.19.934.462 1.356.763.754.538 1.451 1.158 2.215 1.681 1.356.93 2.634.902 3.968-.04.563-.398 1.098-.837 1.655-1.242 1.745-1.268 3.398-1.241 5.1.082.498.387.973.804 1.47 1.192 1.245.972 2.509.976 3.748.01.413-.322.806-.67 1.21-1.001 1.838-1.505 3.7-1.65 5.507-.308l.054.041c.579.44 1.009.417 1.585.128l.28-.142c2.57-1.299 5.091-2.68 7.419-4.395q.564-.418 1.124-.84M8.05 4.133c4.199 1.91 7.97 4.48 11.396 7.568 4.264 3.842 7.624 8.38 10.106 13.57 1.306 2.732 2.323 5.569 2.79 8.581l.022.148.033.236c.001.583-.462.925-.945.729a32.5 32.5 0 0 0-7.43-2.041c-3.38-.511-6.717-.384-10.003.613-2.179.662-4.252 1.565-6.178 2.796-.356.227-.733.188-.965-.09-.241-.29-.24-.638.038-.944 2.012-2.203 3.183-4.849 3.96-7.694.758-2.78 1.035-5.62.865-8.494-.128-2.16-.641-4.25-1.314-6.302a43 43 0 0 0-3.358-7.625c-.223-.398-.218-.707.006-.962.233-.263.532-.291.977-.089m12.944 4.961c.39.115.913.228 1.407.421 1.97.773 3.666 2 5.282 3.34a51.5 51.5 0 0 1 7.184 7.242c1.497 1.848 2.725 3.882 3.845 5.981a58 58 0 0 1 3.29 7.377l.065.177q.038.1.072.202c.098.293.086.577-.142.8-.232.23-.511.245-.805.129l-.02-.009c-.423-.175-.85-.336-1.271-.513l-.18-.076a5.74 5.74 0 0 0-3.657-.328 5 5 0 0 1-.35.064c-.465.073-.755-.11-.883-.565a58.8 58.8 0 0 0-5.123-12.5l-.109-.197c-1.405-2.532-3.014-4.914-5.105-6.937-1.235-1.195-2.534-2.308-3.969-3.254-.332-.22-.457-.524-.347-.856.107-.326.359-.455.816-.498M9.306 6.322a.7.7 0 0 0 .073.278 44 44 0 0 1 2.35 5.729c.612 1.865 1.08 3.767 1.305 5.723.251 2.189.148 4.372-.15 6.55-.392 2.866-1.18 5.609-2.54 8.17l-.159.298-.24.454c.05.014.076.03.092.023q.216-.085.427-.178c2.887-1.278 5.895-2.05 9.054-2.129 3.608-.09 7.102.565 10.514 1.707l.233.079.582.19c-1.382-6.102-4.248-11.346-8.11-16.063-3.723-4.548-8.251-8.101-13.431-10.831m17.141 7.397.046.052.09.102q.054.06.097.117.32.414.646.823l.355.445c.534.67 1.06 1.346 1.524 2.062 2.93 4.533 5.086 9.434 6.657 14.599l.047.156c.082.27.194.347.455.307l.018-.003a6.4 6.4 0 0 1 3.438.338l.058.022c.106.043.22.067.426.127-1.509-3.796-3.292-7.33-5.549-10.623-1.95-2.849-7.176-7.906-8.308-8.524"/></svg>