<svg xmlns="http://www.w3.org/2000/svg" width="50" height="50" fill="none" viewBox="0 0 50 50"><path fill="#333" d="M49.98 15.04c.01 1.42.01 2.84.01 4.26.01 7.25.01 14.49 0 21.73 0 2.11-1.92 3.96-4.12 3.96q-20.865.015-41.73 0c-2.18 0-4.13-1.84-4.13-3.9 0-8.65 0-17.3.06-25.99 4.47-.05 8.88-.05 13.35-.05 1.66-.01 3.27-.01 4.93-.01h5.03c1.66 0 3.27 0 4.94.01 1.69 0 3.34-.01 5.03-.01 1.68-.01 3.31-.01 5-.01 1.7.01 3.35.01 5.04.01zM20.92 25.5c.97.09 1.93.18 2.84.26.17-.6.26-1.14.47-1.63.43-1.03 1.54-1.54 2.85-1.38 1.18.15 1.92.82 2.13 1.92.23 1.22-.19 2.28-.97 3.21-.5.59-1.06 1.12-1.62 1.65-1.33 1.26-2.69 2.48-3.99 3.76-1.34 1.31-2.41 2.8-2.89 4.62-.1.41-.16.83-.25 1.27h13.66v-3.47H25.4c.45-.52.76-.95 1.14-1.3 1.14-1.08 2.33-2.11 3.47-3.18 1.25-1.17 2.29-2.48 2.85-4.1 1.04-3.06-.31-6.03-3.29-7.04-2.14-.73-4.31-.66-6.38.27-1.95.88-3.36 3.16-3.14 5.04.25.03.51.06.87.1M6.95 38.09c1.63 1.3 3.54 1.59 5.58 1.38 3.21-.32 5.74-2.99 5.78-6.07.03-2.16-1.24-3.86-3.38-4.54l-.39-.14c.34-.23.62-.4.89-.59 2.32-1.67 2.6-4.42.72-6.54-2.35-2.66-7.17-2.43-9.35-.39-1.02.96-1.47 2.17-1.75 3.53.65.1 1.22.19 1.79.28.59.1 1.17.19 1.71.28.22-.54.35-1.04.61-1.47.53-.85 1.37-1.19 2.4-1.09.82.09 1.42.49 1.72 1.22.61 1.44-.24 2.97-1.83 3.31-.4.08-.81.11-1.25.17-.14.98-.27 1.95-.41 2.97.36-.08.64-.14.91-.18 1.85-.32 3.26.57 3.52 2.25.08.49.08 1.01 0 1.5-.21 1.37-1.23 2.34-2.53 2.47-1.24.12-2.36-.55-2.85-1.71-.16-.35-.19-.9-.45-1.03-.33-.16-.84.01-1.27.06-.78.09-1.55.19-2.36.29.2 1.63.89 2.95 2.19 4.04m29.28-11.53v1.38c1.94-.58 3.52-1.51 5.06-2.78v14.06h3.16c.77 0 .77 0 .77-.74V20.34c0-.11.04-.25-.01-.32-.1-.15-.25-.38-.38-.38-.83-.04-1.66-.03-2.49-.01-.14.01-.35.15-.41.28-.83 1.86-2.4 3-4.15 3.99-.5.29-1.23.44-1.48.86-.26.44-.06 1.12-.07 1.8"/><path d="M49.99 19.3c.01 7.25.01 14.49 0 21.73 0 2.11-1.92 3.96-4.12 3.96q-20.865.015-41.73 0c-2.18 0-4.13-1.84-4.13-3.9 0-8.65 0-17.3.06-25.99 4.47-.05 8.88-.05 13.35-.05 1.66-.01 3.27-.01 4.93-.01h5.03c1.66 0 3.27 0 4.94.01 1.69 0 3.34-.01 5.03-.01 1.68-.01 3.31-.01 5-.01 1.7.01 3.35.01 5.04.01h6.59c.01 1.42.01 2.84.01 4.26m-26.23 6.46c.17-.6.26-1.14.47-1.63.43-1.03 1.54-1.54 2.85-1.38 1.18.15 1.92.82 2.13 1.92.23 1.22-.19 2.28-.97 3.21-.5.59-1.06 1.12-1.62 1.65-1.33 1.26-2.69 2.48-3.99 3.76-1.34 1.31-2.41 2.8-2.89 4.62-.1.41-.16.83-.25 1.27h13.66v-3.47H25.4c.45-.52.76-.95 1.14-1.3 1.14-1.08 2.33-2.11 3.47-3.18 1.25-1.17 2.29-2.48 2.85-4.1 1.04-3.06-.31-6.03-3.29-7.04-2.14-.73-4.31-.66-6.38.27-1.95.88-3.36 3.16-3.14 5.04.25.03.51.06.87.1.97.09 1.93.18 2.84.26M12.53 39.47c3.21-.32 5.74-2.99 5.78-6.07.03-2.16-1.24-3.86-3.38-4.54l-.39-.14c.34-.23.62-.4.89-.59 2.32-1.67 2.6-4.42.72-6.54-2.35-2.66-7.17-2.43-9.35-.39-1.02.96-1.47 2.17-1.75 3.53.65.1 1.22.19 1.79.28.59.1 1.17.19 1.71.28.22-.54.35-1.04.61-1.47.53-.85 1.37-1.19 2.4-1.09.82.09 1.42.49 1.72 1.22.61 1.44-.24 2.97-1.83 3.31-.4.08-.81.11-1.25.17-.14.98-.27 1.95-.41 2.97.36-.08.64-.14.91-.18 1.85-.32 3.26.57 3.52 2.25.08.49.08 1.01 0 1.5-.21 1.37-1.23 2.34-2.53 2.47-1.24.12-2.36-.55-2.85-1.71-.16-.35-.19-.9-.45-1.03-.33-.16-.84.01-1.27.06-.78.09-1.55.19-2.36.29.2 1.63.89 2.95 2.19 4.04 1.63 1.3 3.54 1.59 5.58 1.38m23.7-11.53c1.94-.58 3.52-1.51 5.06-2.78v14.06h3.16c.77 0 .77 0 .77-.74V20.34c0-.11.04-.25-.01-.32-.1-.15-.25-.38-.38-.38-.83-.04-1.66-.03-2.49-.01-.14.01-.35.15-.41.28-.83 1.86-2.4 3-4.15 3.99-.5.29-1.23.44-1.48.86-.26.44-.06 1.12-.07 1.8z"/><path fill="#4e4e4e" d="M13.37 15.05H.08c-.06-2.16-.13-4.32-.05-6.48.05-1.25.84-2.22 1.92-2.92.74-.48 1.55-.66 2.44-.65 2.84.01 5.68 0 8.57.04 1.82 1.74 3.59 3.44 5.36 5.15-1.56 1.5-3.08 2.95-4.58 4.4-.15.14-.25.3-.37.46M3.03 10.49c.29 1.4 1.49 2.22 2.92 1.99 1.29-.21 2.21-1.41 2.02-2.64a2.47 2.47 0 0 0-2.69-2.1c-1.45.17-2.39 1.27-2.25 2.75"/><path d="M.08 15.05c-.06-2.16-.13-4.32-.05-6.48.05-1.25.84-2.22 1.92-2.92.74-.48 1.55-.66 2.44-.65 2.84.01 5.68 0 8.57.04 1.82 1.74 3.59 3.44 5.36 5.15-1.56 1.5-3.08 2.95-4.58 4.4-.15.14-.25.3-.37.46zm5.87-2.57c1.29-.21 2.21-1.41 2.02-2.64a2.47 2.47 0 0 0-2.69-2.1c-1.45.17-2.39 1.27-2.25 2.75.29 1.4 1.49 2.22 2.92 1.99"/><path fill="#505050" d="M43.34 15.05c-1.64-.01-3.29-.01-4.97-.05 1.62-1.63 3.27-3.21 4.95-4.82-.68-.64-1.29-1.22-1.9-1.81-1.15-1.11-2.3-2.22-3.45-3.34 1.64-.01 3.28-.02 4.97.01 1.82 1.74 3.59 3.44 5.37 5.16-1.55 1.48-3.05 2.91-4.55 4.35-.16.15-.28.33-.42.5"/><path d="M38.37 15c1.62-1.63 3.27-3.21 4.95-4.82-.68-.64-1.29-1.22-1.9-1.81-1.15-1.11-2.3-2.22-3.45-3.34 1.64-.01 3.28-.02 4.97.01 1.82 1.74 3.59 3.44 5.37 5.16-1.55 1.48-3.05 2.91-4.55 4.35-.16.15-.28.33-.42.5-1.64-.01-3.29-.01-4.97-.05"/><path fill="#e5e5e5" d="M37.92 5.02c1.2 1.13 2.35 2.24 3.5 3.35.61.59 1.22 1.17 1.9 1.81-1.68 1.61-3.33 3.19-5.01 4.81-1.64.04-3.28.04-4.94.02 1.62-1.62 3.27-3.22 5-4.89-.22-.17-.42-.29-.58-.44-1.62-1.55-3.23-3.11-4.85-4.66 1.64 0 3.29-.01 4.98 0"/><path d="M41.42 8.37c.61.59 1.22 1.17 1.9 1.81-1.68 1.61-3.33 3.19-5.01 4.81-1.64.04-3.28.04-4.94.02 1.62-1.62 3.27-3.22 5-4.89-.22-.17-.42-.29-.58-.44-1.62-1.55-3.23-3.11-4.85-4.66 1.64 0 3.29-.01 4.98 0 1.2 1.13 2.35 2.24 3.5 3.35"/><path fill="#e5e5e5" d="M13.42 15.05c.07-.16.17-.32.32-.46 1.5-1.45 3.02-2.9 4.58-4.4-1.77-1.71-3.54-3.41-5.31-5.15 1.62-.03 3.24-.03 4.92.01 1.84 1.72 3.62 3.4 5.51 5.2-1.75 1.63-3.45 3.21-5.15 4.79-1.6 0-3.21 0-4.87.01"/><path d="M13.74 14.59c1.5-1.45 3.02-2.9 4.58-4.4-1.77-1.71-3.54-3.41-5.31-5.15 1.62-.03 3.24-.03 4.92.01 1.84 1.72 3.62 3.4 5.51 5.2-1.75 1.63-3.45 3.21-5.15 4.79-1.6 0-3.21 0-4.87.01.07-.16.17-.32.32-.46"/><path fill="#4e4e4e" d="M18.35 15.04c1.64-1.58 3.34-3.16 5.09-4.79-1.89-1.8-3.67-3.48-5.46-5.2 1.62-.04 3.26-.04 4.95-.01 1.84 1.74 3.61 3.44 5.4 5.16-1.24 1.18-2.43 2.31-3.61 3.44-.47.46-.93.93-1.39 1.4z"/><path d="M23.44 10.25c-1.89-1.8-3.67-3.48-5.46-5.2 1.62-.04 3.26-.04 4.95-.01 1.84 1.74 3.61 3.44 5.4 5.16-1.24 1.18-2.43 2.31-3.61 3.44-.47.46-.93.93-1.39 1.4h-4.98c1.64-1.58 3.34-3.16 5.09-4.79"/><path fill="#e5e5e5" d="M23.38 15.04c.41-.47.87-.94 1.34-1.4 1.18-1.14 2.37-2.26 3.61-3.44-1.79-1.72-3.56-3.42-5.34-5.15 1.6-.04 3.22-.04 4.91-.01 1.85 1.73 3.62 3.43 5.47 5.19-1.74 1.64-3.42 3.23-5.11 4.81z"/><path d="M24.72 13.64c1.18-1.14 2.37-2.26 3.61-3.44-1.79-1.72-3.56-3.42-5.34-5.15 1.6-.04 3.22-.04 4.91-.01 1.85 1.73 3.62 3.43 5.47 5.19-1.74 1.64-3.42 3.23-5.11 4.81h-4.88c.41-.47.87-.94 1.34-1.4"/><path fill="#4e4e4e" d="M28.32 15.05c1.63-1.59 3.31-3.18 5.05-4.82-1.85-1.76-3.62-3.46-5.42-5.19 1.61-.03 3.25-.03 4.94-.03 1.67 1.56 3.28 3.12 4.9 4.67.16.15.36.27.58.44-1.73 1.67-3.38 3.27-5.05 4.89-1.66.03-3.31.04-5 .04"/><path d="M33.37 10.23c-1.85-1.76-3.62-3.46-5.42-5.19 1.61-.03 3.25-.03 4.94-.03 1.67 1.56 3.28 3.12 4.9 4.67.16.15.36.27.58.44-1.73 1.67-3.38 3.27-5.05 4.89-1.66.03-3.31.04-5 .04 1.63-1.59 3.31-3.18 5.05-4.82"/><path fill="#e5e5e5" d="M43.39 15.04c.09-.16.21-.34.37-.49 1.5-1.44 3-2.87 4.55-4.35-1.78-1.72-3.55-3.42-5.32-5.16 2.31-.03 4.63-.03 7-.03v9.98c-2.19.05-4.37.05-6.6.05"/><path d="M43.76 14.55c1.5-1.44 3-2.87 4.55-4.35-1.78-1.72-3.55-3.42-5.32-5.16 2.31-.03 4.63-.03 7-.03v9.98c-2.19.05-4.37.05-6.6.05.09-.16.21-.34.37-.49"/><path fill="#5a94f1" d="M20.87 25.5c-.31-.04-.57-.07-.82-.1-.22-1.88 1.19-4.16 3.14-5.04 2.07-.93 4.24-1 6.38-.27 2.98 1.01 4.33 3.98 3.29 7.04-.56 1.62-1.6 2.93-2.85 4.1-1.14 1.07-2.33 2.1-3.47 3.18-.38.35-.69.78-1.14 1.3h7.75v3.47H19.49c.09-.44.15-.86.25-1.27.48-1.82 1.55-3.31 2.89-4.62 1.3-1.28 2.66-2.5 3.99-3.76.56-.53 1.12-1.06 1.62-1.65.78-.93 1.2-1.99.97-3.21-.21-1.1-.95-1.77-2.13-1.92-1.31-.16-2.42.35-2.85 1.38-.21.49-.3 1.03-.47 1.63-.91-.08-1.87-.17-2.89-.26"/><path d="M20.05 25.4c-.22-1.88 1.19-4.16 3.14-5.04 2.07-.93 4.24-1 6.38-.27 2.98 1.01 4.33 3.98 3.29 7.04-.56 1.62-1.6 2.93-2.85 4.1-1.14 1.07-2.33 2.1-3.47 3.18-.38.35-.69.78-1.14 1.3h7.75v3.47H19.49c.09-.44.15-.86.25-1.27.48-1.82 1.55-3.31 2.89-4.62 1.3-1.28 2.66-2.5 3.99-3.76.56-.53 1.12-1.06 1.62-1.65.78-.93 1.2-1.99.97-3.21-.21-1.1-.95-1.77-2.13-1.92-1.31-.16-2.42.35-2.85 1.38-.21.49-.3 1.03-.47 1.63-.91-.08-1.87-.17-2.89-.26-.31-.04-.57-.07-.82-.1"/><path fill="#ea5b4f" d="M6.92 38.06C5.65 37 4.96 35.68 4.76 34.05c.81-.1 1.58-.2 2.36-.29.43-.05.94-.22 1.27-.06.26.13.29.68.45 1.03.49 1.16 1.61 1.83 2.85 1.71 1.3-.13 2.32-1.1 2.53-2.47.08-.49.08-1.01 0-1.5-.26-1.68-1.67-2.57-3.52-2.25-.27.04-.55.1-.91.18.14-1.02.27-1.99.41-2.97.44-.06.85-.09 1.25-.17 1.59-.34 2.44-1.87 1.83-3.31-.3-.73-.9-1.13-1.72-1.22-1.03-.1-1.87.24-2.4 1.09-.26.43-.39.93-.61 1.47-.54-.09-1.12-.18-1.71-.28-.57-.09-1.14-.18-1.79-.28.28-1.36.73-2.57 1.75-3.53 2.18-2.04 7-2.27 9.35.39 1.88 2.12 1.6 4.87-.72 6.54-.27.19-.55.36-.89.59l.39.14c2.14.68 3.41 2.38 3.38 4.54-.04 3.08-2.57 5.75-5.78 6.07-2.04.21-3.95-.08-5.61-1.41"/><path d="M4.76 34.05c.81-.1 1.58-.2 2.36-.29.43-.05.94-.22 1.27-.06.26.13.29.68.45 1.03.49 1.16 1.61 1.83 2.85 1.71 1.3-.13 2.32-1.1 2.53-2.47.08-.49.08-1.01 0-1.5-.26-1.68-1.67-2.57-3.52-2.25-.27.04-.55.1-.91.18.14-1.02.27-1.99.41-2.97.44-.06.85-.09 1.25-.17 1.59-.34 2.44-1.87 1.83-3.31-.3-.73-.9-1.13-1.72-1.22-1.03-.1-1.87.24-2.4 1.09-.26.43-.39.93-.61 1.47-.54-.09-1.12-.18-1.71-.28-.57-.09-1.14-.18-1.79-.28.28-1.36.73-2.57 1.75-3.53 2.18-2.04 7-2.27 9.35.39 1.88 2.12 1.6 4.87-.72 6.54-.27.19-.55.36-.89.59l.39.14c2.14.68 3.41 2.38 3.38 4.54-.04 3.08-2.57 5.75-5.78 6.07-2.04.21-3.95-.08-5.61-1.41-1.27-1.06-1.96-2.38-2.16-4.01"/><path fill="#72cc4d" d="M36.23 26.51c.01-.63-.19-1.31.07-1.75.25-.42.98-.57 1.48-.86 1.75-.99 3.32-2.13 4.15-3.99.06-.13.27-.27.41-.28.83-.02 1.66-.03 2.49.01.13 0 .28.23.38.38.05.07.01.21.01.32v18.14c0 .74 0 .74-.77.74h-3.16V25.16c-1.54 1.27-3.12 2.2-5.06 2.78z"/><path d="M36.3 24.76c.25-.42.98-.57 1.48-.86 1.75-.99 3.32-2.13 4.15-3.99.06-.13.27-.27.41-.28.83-.02 1.66-.03 2.49.01.13 0 .28.23.38.38.05.07.01.21.01.32v18.14c0 .74 0 .74-.77.74h-3.16V25.16c-1.54 1.27-3.12 2.2-5.06 2.78v-1.43c.01-.63-.19-1.31.07-1.75"/><path fill="#e4e4e4" d="M3.02 10.45c-.13-1.44.81-2.54 2.26-2.71 1.3-.14 2.5.79 2.69 2.1.19 1.23-.73 2.43-2.02 2.64-1.43.23-2.63-.59-2.93-2.03"/><path d="M5.28 7.74c1.3-.14 2.5.79 2.69 2.1.19 1.23-.73 2.43-2.02 2.64-1.43.23-2.63-.59-2.93-2.03-.13-1.44.81-2.54 2.26-2.71"/></svg>