<svg xmlns="http://www.w3.org/2000/svg" width="50" height="50" fill="none" viewBox="0 0 50 50"><defs><linearGradient id="b" x1="7.631" x2="22.278" y1="32.048" y2="43.91" gradientUnits="userSpaceOnUse"><stop stop-color="#fcaf17"/><stop offset=".297" stop-color="#fdebb4"/><stop offset=".301" stop-color="#fdeaaf"/><stop offset=".336" stop-color="#ffe28d"/><stop offset=".372" stop-color="#ffdb6e"/><stop offset=".409" stop-color="#ffd650"/><stop offset=".449" stop-color="#ffd235"/><stop offset=".491" stop-color="#ffcf1e"/><stop offset=".538" stop-color="#ffcd0a"/><stop offset=".6" stop-color="#ffcd02"/><stop offset=".665" stop-color="#edb81c"/><stop offset=".794" stop-color="#d89c2b"/><stop offset=".91" stop-color="#cc8c2f"/><stop offset="1" stop-color="#c88731"/></linearGradient><linearGradient id="d" x1="25.979" x2="21.471" y1="29.209" y2="30.943" gradientUnits="userSpaceOnUse"><stop stop-color="#eca317"/><stop offset=".297" stop-color="#fdebb4"/><stop offset=".301" stop-color="#fdeaaf"/><stop offset=".336" stop-color="#ffe28d"/><stop offset=".372" stop-color="#ffdb6e"/><stop offset=".409" stop-color="#ffd650"/><stop offset=".449" stop-color="#ffd235"/><stop offset=".491" stop-color="#ffcf1e"/><stop offset=".538" stop-color="#ffcd0a"/><stop offset=".6" stop-color="#ffcd02"/><stop offset=".627" stop-color="#f7c413"/><stop offset=".771" stop-color="#dca531"/><stop offset=".9" stop-color="#cd9438"/><stop offset="1" stop-color="#c88e3a"/></linearGradient><linearGradient id="f" x1="34.498" x2="30.291" y1="28.225" y2="31.417" gradientUnits="userSpaceOnUse"><stop stop-color="#0db14b"/><stop offset=".005" stop-color="#0db14b"/><stop offset=".378" stop-color="#b4d670"/><stop offset=".446" stop-color="#aed16b"/><stop offset=".518" stop-color="#a1c85e"/><stop offset=".592" stop-color="#8dba4b"/><stop offset=".649" stop-color="#79ad3b"/><stop offset=".728" stop-color="#76a93c"/><stop offset=".818" stop-color="#6ba03f"/><stop offset=".912" stop-color="#599344"/><stop offset="1" stop-color="#3f8348"/></linearGradient><linearGradient id="h" x1="31.994" x2="44.909" y1="43.921" y2="30.123" gradientUnits="userSpaceOnUse"><stop stop-color="#63923f"/><stop offset=".163" stop-color="#89b33c"/><stop offset=".342" stop-color="#3a8040"/><stop offset=".554" stop-color="#d3df9e"/><stop offset=".574" stop-color="#cdda97"/><stop offset=".608" stop-color="#bbcc82"/><stop offset=".653" stop-color="#9eb861"/><stop offset=".698" stop-color="#7ea441"/><stop offset="1" stop-color="#417f43"/></linearGradient><linearGradient id="j" x1="30.431" x2="34.334" y1="24.41" y2="19.282" gradientUnits="userSpaceOnUse"><stop stop-color="#0068ad"/><stop offset=".277" stop-color="#61b6e6"/><stop offset=".554" stop-color="#0068ad"/><stop offset=".852" stop-color="#84b8e3"/><stop offset=".887" stop-color="#81b5e2"/><stop offset=".918" stop-color="#77adde"/><stop offset=".948" stop-color="#67a1d7"/><stop offset=".977" stop-color="#4e91cd"/><stop offset="1" stop-color="#2f81c4"/></linearGradient><linearGradient id="l" x1="34.799" x2="40.658" y1="22.498" y2="10.984" gradientUnits="userSpaceOnUse"><stop stop-color="#0068ad"/><stop offset=".277" stop-color="#8bbbe0"/><stop offset=".554" stop-color="#0068ad"/><stop offset=".852" stop-color="#3c97cf"/><stop offset=".899" stop-color="#3a95ce"/><stop offset=".942" stop-color="#368ec9"/><stop offset=".981" stop-color="#3184c2"/><stop offset="1" stop-color="#2e7dbd"/></linearGradient><linearGradient id="n" x1="20.644" x2="25.603" y1="24.266" y2="21.075" gradientUnits="userSpaceOnUse"><stop stop-color="#8c2220"/><stop offset=".307" stop-color="#f4793b"/><stop offset=".574" stop-color="#fec267"/><stop offset=".733" stop-color="#f7931e"/><stop offset=".791" stop-color="#f4901f"/><stop offset=".86" stop-color="#ee8523"/><stop offset=".934" stop-color="#e57427"/><stop offset="1" stop-color="#dc5e2a"/></linearGradient><linearGradient id="p" x1="35.57" x2="6.935" y1="13.932" y2="34.073" gradientUnits="userSpaceOnUse"><stop stop-color="#8c2220"/><stop offset=".4" stop-color="#f4793b"/><stop offset=".725" stop-color="#f7931e"/><stop offset=".799" stop-color="#f79120"/><stop offset=".887" stop-color="#f68629"/><stop offset=".981" stop-color="#f47634"/><stop offset="1" stop-color="#f37237"/></linearGradient><linearGradient id="r" x1="-2.193" x2="24.504" y1="3.37" y2="22.913" gradientUnits="userSpaceOnUse"><stop stop-color="#8c2220"/><stop offset=".4" stop-color="#f4793b"/><stop offset=".673" stop-color="#f7931e"/><stop offset=".686" stop-color="#f7921e"/><stop offset=".895" stop-color="#f37231"/><stop offset="1" stop-color="#f26336"/></linearGradient><linearGradient id="t" x1="29.299" x2="45.53" y1="22.283" y2="22.283" gradientUnits="userSpaceOnUse"><stop stop-color="#2e499e"/><stop offset=".155" stop-color="#0071bb"/><stop offset=".4" stop-color="#00aeef"/><stop offset=".425" stop-color="#00b1f0"/><stop offset=".525" stop-color="#00bef2"/><stop offset=".612" stop-color="#4ac8f5"/><stop offset=".682" stop-color="#6fd0f6"/><stop offset=".725" stop-color="#7bd3f7"/><stop offset=".762" stop-color="#72c8f1"/><stop offset=".825" stop-color="#55b2e4"/><stop offset=".906" stop-color="#1394d2"/><stop offset="1" stop-color="#0071bc"/></linearGradient><linearGradient id="v" x1="28.135" x2="44.338" y1="24.482" y2="15.38" gradientUnits="userSpaceOnUse"><stop stop-color="#2e499e"/><stop offset=".155" stop-color="#0071bb"/><stop offset=".4" stop-color="#00aeef"/><stop offset=".425" stop-color="#00b1f0"/><stop offset=".525" stop-color="#00bef2"/><stop offset=".612" stop-color="#4ac8f5"/><stop offset=".682" stop-color="#6fd0f6"/><stop offset=".725" stop-color="#7bd3f7"/><stop offset=".762" stop-color="#72c8f1"/><stop offset=".825" stop-color="#55b2e4"/><stop offset=".906" stop-color="#1394d2"/><stop offset="1" stop-color="#0071bc"/></linearGradient><linearGradient id="x" x1="29.305" x2="45.534" y1="17.335" y2="17.335" gradientUnits="userSpaceOnUse"><stop stop-color="#2e499e"/><stop offset=".155" stop-color="#0071bb"/><stop offset=".4" stop-color="#00aeef"/><stop offset=".425" stop-color="#00b1f0"/><stop offset=".525" stop-color="#00bef2"/><stop offset=".612" stop-color="#4ac8f5"/><stop offset=".682" stop-color="#6fd0f6"/><stop offset=".725" stop-color="#7bd3f7"/><stop offset=".762" stop-color="#72c8f1"/><stop offset=".825" stop-color="#55b2e4"/><stop offset=".906" stop-color="#1394d2"/><stop offset="1" stop-color="#0071bc"/></linearGradient><linearGradient id="z" x1="27.193" x2="43.426" y1="23.065" y2="13.947" gradientUnits="userSpaceOnUse"><stop stop-color="#2e499e"/><stop offset=".155" stop-color="#0071bb"/><stop offset=".4" stop-color="#00aeef"/><stop offset=".425" stop-color="#00b1f0"/><stop offset=".525" stop-color="#00bef2"/><stop offset=".612" stop-color="#4ac8f5"/><stop offset=".682" stop-color="#6fd0f6"/><stop offset=".725" stop-color="#7bd3f7"/><stop offset=".762" stop-color="#72c8f1"/><stop offset=".825" stop-color="#55b2e4"/><stop offset=".906" stop-color="#1394d2"/><stop offset="1" stop-color="#0071bc"/></linearGradient><linearGradient id="B" x1="29.3" x2="48.412" y1="30.086" y2="30.086" gradientUnits="userSpaceOnUse"><stop stop-color="#0db14b"/><stop offset=".005" stop-color="#0db14b"/><stop offset=".378" stop-color="#b4d670"/><stop offset=".446" stop-color="#aed16b"/><stop offset=".518" stop-color="#a1c85e"/><stop offset=".592" stop-color="#8dba4b"/><stop offset=".649" stop-color="#79ad3b"/><stop offset=".713" stop-color="#75a93b"/><stop offset=".785" stop-color="#699f3e"/><stop offset=".861" stop-color="#559241"/><stop offset=".94" stop-color="#348144"/><stop offset="1" stop-color="#007345"/></linearGradient><linearGradient id="D" x1="29.278" x2="48.982" y1="27.879" y2="43.18" gradientUnits="userSpaceOnUse"><stop stop-color="#0db14b"/><stop offset=".005" stop-color="#0db14b"/><stop offset=".378" stop-color="#b4d670"/><stop offset=".446" stop-color="#aed16b"/><stop offset=".518" stop-color="#a1c85e"/><stop offset=".592" stop-color="#8dba4b"/><stop offset=".649" stop-color="#79ad3b"/><stop offset=".713" stop-color="#75a93b"/><stop offset=".785" stop-color="#699f3e"/><stop offset=".861" stop-color="#559241"/><stop offset=".94" stop-color="#348144"/><stop offset="1" stop-color="#007345"/></linearGradient><linearGradient id="F" x1="29.301" x2="48.46" y1="36.514" y2="36.514" gradientUnits="userSpaceOnUse"><stop stop-color="#84b93a"/><stop offset=".378" stop-color="#b4d670"/><stop offset=".446" stop-color="#aed16b"/><stop offset=".518" stop-color="#a1c85e"/><stop offset=".592" stop-color="#8dba4b"/><stop offset=".649" stop-color="#79ad3b"/><stop offset=".73" stop-color="#76a93c"/><stop offset=".822" stop-color="#6ba140"/><stop offset=".918" stop-color="#579445"/><stop offset="1" stop-color="#3e8749"/></linearGradient><linearGradient id="H" x1="4.673" x2="26.361" y1="46.662" y2="28.707" gradientUnits="userSpaceOnUse"><stop stop-color="#fdb913"/><stop offset=".297" stop-color="#fdebb4"/><stop offset=".301" stop-color="#fdeaaf"/><stop offset=".336" stop-color="#ffe28d"/><stop offset=".372" stop-color="#ffdb6e"/><stop offset=".409" stop-color="#ffd650"/><stop offset=".449" stop-color="#ffd235"/><stop offset=".491" stop-color="#ffcf1e"/><stop offset=".538" stop-color="#ffcd0a"/><stop offset=".6" stop-color="#ffcd02"/><stop offset=".627" stop-color="#fdc813"/><stop offset=".771" stop-color="#ecb034"/><stop offset=".9" stop-color="#e5a43f"/><stop offset="1" stop-color="#e29e42"/></linearGradient><linearGradient id="J" x1="27.225" x2="2.555" y1="35.119" y2="41.056" gradientUnits="userSpaceOnUse"><stop stop-color="#ffc20e"/><stop offset=".297" stop-color="#fdebb4"/><stop offset=".301" stop-color="#fdeaaf"/><stop offset=".336" stop-color="#ffe28d"/><stop offset=".372" stop-color="#ffdb6e"/><stop offset=".409" stop-color="#ffd650"/><stop offset=".449" stop-color="#ffd235"/><stop offset=".491" stop-color="#ffcf1e"/><stop offset=".538" stop-color="#ffcd0a"/><stop offset=".6" stop-color="#ffcd02"/><stop offset=".74" stop-color="#efb92b"/><stop offset=".886" stop-color="#e4ab39"/><stop offset="1" stop-color="#e0a63d"/></linearGradient><linearGradient id="L" x1="4.241" x2="25.924" y1="46.238" y2="28.286" gradientUnits="userSpaceOnUse"><stop stop-color="#fdb913"/><stop offset=".297" stop-color="#fdebb4"/><stop offset=".301" stop-color="#fdeaaf"/><stop offset=".336" stop-color="#ffe28d"/><stop offset=".372" stop-color="#ffdb6e"/><stop offset=".409" stop-color="#ffd650"/><stop offset=".449" stop-color="#ffd235"/><stop offset=".491" stop-color="#ffcf1e"/><stop offset=".538" stop-color="#ffcd0a"/><stop offset=".6" stop-color="#ffcd02"/><stop offset=".627" stop-color="#fdc813"/><stop offset=".771" stop-color="#ecb034"/><stop offset=".9" stop-color="#e5a43f"/><stop offset="1" stop-color="#e29e42"/></linearGradient><linearGradient id="N" x1="25.663" x2=".997" y1="29.609" y2="35.545" gradientUnits="userSpaceOnUse"><stop stop-color="#ffc20e"/><stop offset=".297" stop-color="#fdebb4"/><stop offset=".301" stop-color="#fdeaaf"/><stop offset=".336" stop-color="#ffe28d"/><stop offset=".372" stop-color="#ffdb6e"/><stop offset=".409" stop-color="#ffd650"/><stop offset=".449" stop-color="#ffd235"/><stop offset=".491" stop-color="#ffcf1e"/><stop offset=".538" stop-color="#ffcd0a"/><stop offset=".6" stop-color="#ffcd02"/><stop offset=".74" stop-color="#efb92b"/><stop offset=".886" stop-color="#e4ab39"/><stop offset="1" stop-color="#e0a63d"/></linearGradient><linearGradient id="P" x1="4.215" x2="25.906" y1="46.217" y2="28.259" gradientUnits="userSpaceOnUse"><stop stop-color="#fdb913"/><stop offset=".297" stop-color="#fdebb4"/><stop offset=".301" stop-color="#fdeaaf"/><stop offset=".336" stop-color="#ffe28d"/><stop offset=".372" stop-color="#ffdb6e"/><stop offset=".409" stop-color="#ffd650"/><stop offset=".449" stop-color="#ffd235"/><stop offset=".491" stop-color="#ffcf1e"/><stop offset=".538" stop-color="#ffcd0a"/><stop offset=".6" stop-color="#ffcd02"/><stop offset=".627" stop-color="#fdc813"/><stop offset=".771" stop-color="#ecb034"/><stop offset=".9" stop-color="#e5a43f"/><stop offset="1" stop-color="#e29e42"/></linearGradient><linearGradient id="R" x1="25.666" x2=".992" y1="29.612" y2="35.55" gradientUnits="userSpaceOnUse"><stop stop-color="#ffc20e"/><stop offset=".297" stop-color="#fdebb4"/><stop offset=".301" stop-color="#fdeaaf"/><stop offset=".336" stop-color="#ffe28d"/><stop offset=".372" stop-color="#ffdb6e"/><stop offset=".409" stop-color="#ffd650"/><stop offset=".449" stop-color="#ffd235"/><stop offset=".491" stop-color="#ffcf1e"/><stop offset=".538" stop-color="#ffcd0a"/><stop offset=".6" stop-color="#ffcd02"/><stop offset=".74" stop-color="#efb92b"/><stop offset=".886" stop-color="#e4ab39"/><stop offset="1" stop-color="#e0a63d"/></linearGradient><linearGradient id="T" x1="4.675" x2="26.362" y1="46.66" y2="28.704" gradientUnits="userSpaceOnUse"><stop stop-color="#fdb913"/><stop offset=".297" stop-color="#fdebb4"/><stop offset=".301" stop-color="#fdeaaf"/><stop offset=".336" stop-color="#ffe28d"/><stop offset=".372" stop-color="#ffdb6e"/><stop offset=".409" stop-color="#ffd650"/><stop offset=".449" stop-color="#ffd235"/><stop offset=".491" stop-color="#ffcf1e"/><stop offset=".538" stop-color="#ffcd0a"/><stop offset=".6" stop-color="#ffcd02"/><stop offset=".627" stop-color="#fdc813"/><stop offset=".771" stop-color="#ecb034"/><stop offset=".9" stop-color="#e5a43f"/><stop offset="1" stop-color="#e29e42"/></linearGradient><linearGradient id="V" x1="23.765" x2="5.893" y1="30.55" y2="45.944" gradientUnits="userSpaceOnUse"><stop stop-color="#f7c704"/><stop offset=".297" stop-color="#f7e3b0"/><stop offset=".304" stop-color="#f7e1a8"/><stop offset=".338" stop-color="#f8da88"/><stop offset=".374" stop-color="#f8d46b"/><stop offset=".411" stop-color="#f8cf4d"/><stop offset=".45" stop-color="#f8cb34"/><stop offset=".492" stop-color="#f7c91e"/><stop offset=".539" stop-color="#f7c80a"/><stop offset=".6" stop-color="#f7c704"/><stop offset=".748" stop-color="#f1b411"/><stop offset=".89" stop-color="#eea815"/><stop offset="1" stop-color="#eca317"/></linearGradient><linearGradient id="X" x1="1.564" x2="25.443" y1="21.442" y2="4.938" gradientUnits="userSpaceOnUse"><stop stop-color="#8c2220"/><stop offset=".307" stop-color="#f4793b"/><stop offset=".574" stop-color="#fec267"/><stop offset=".733" stop-color="#f7931e"/><stop offset=".791" stop-color="#f4901f"/><stop offset=".86" stop-color="#ee8523"/><stop offset=".934" stop-color="#e57427"/><stop offset="1" stop-color="#dc5e2a"/></linearGradient><linearGradient id="Z" x1="27.103" x2="-1.615" y1="3.602" y2="23.803" gradientUnits="userSpaceOnUse"><stop stop-color="#8c2220"/><stop offset=".4" stop-color="#f4793b"/><stop offset=".725" stop-color="#f7931e"/><stop offset=".799" stop-color="#f79120"/><stop offset=".887" stop-color="#f68629"/><stop offset=".981" stop-color="#f47634"/><stop offset="1" stop-color="#f37237"/></linearGradient><linearGradient id="ab" x1="-1.214" x2="25.472" y1="2.232" y2="21.767" gradientUnits="userSpaceOnUse"><stop stop-color="#8c2220"/><stop offset=".4" stop-color="#e3743a"/><stop offset=".673" stop-color="#e68c20"/><stop offset=".686" stop-color="#e68b20"/><stop offset=".895" stop-color="#e36d30"/><stop offset="1" stop-color="#e15f35"/></linearGradient><linearGradient id="ad" x1="27.096" x2="-1.624" y1="3.606" y2="23.808" gradientUnits="userSpaceOnUse"><stop stop-color="#8c2220"/><stop offset=".4" stop-color="#f4793b"/><stop offset=".725" stop-color="#f7931e"/><stop offset=".799" stop-color="#f79120"/><stop offset=".887" stop-color="#f68629"/><stop offset=".981" stop-color="#f47634"/><stop offset="1" stop-color="#f37237"/></linearGradient><linearGradient id="af" x1="-1.21" x2="25.489" y1="2.198" y2="21.743" gradientUnits="userSpaceOnUse"><stop stop-color="#bc282e"/><stop offset=".4" stop-color="#ec783c"/><stop offset=".673" stop-color="#f3ad1d"/><stop offset=".804" stop-color="#ee8922"/><stop offset=".934" stop-color="#eb6924"/><stop offset="1" stop-color="#e95a25"/></linearGradient><linearGradient id="ah" x1="35.622" x2="6.886" y1="13.91" y2="34.123" gradientUnits="userSpaceOnUse"><stop stop-color="#8c2220"/><stop offset=".4" stop-color="#f4793b"/><stop offset=".725" stop-color="#f7931e"/><stop offset=".799" stop-color="#f79120"/><stop offset=".887" stop-color="#f68629"/><stop offset=".981" stop-color="#f47634"/><stop offset="1" stop-color="#f37237"/></linearGradient><linearGradient id="aj" x1="-2.205" x2="24.51" y1="3.33" y2="22.886" gradientUnits="userSpaceOnUse"><stop stop-color="#bc3333"/><stop offset=".4" stop-color="#f4793b"/><stop offset=".673" stop-color="#f7931e"/><stop offset=".686" stop-color="#f7921e"/><stop offset=".895" stop-color="#f37231"/><stop offset="1" stop-color="#f26336"/></linearGradient><linearGradient id="al" x1="29.306" x2="45.54" y1="17.327" y2="17.327" gradientUnits="userSpaceOnUse"><stop stop-color="#2e499e"/><stop offset=".155" stop-color="#0071bb"/><stop offset=".4" stop-color="#00aeef"/><stop offset=".425" stop-color="#00b1f0"/><stop offset=".525" stop-color="#00bef2"/><stop offset=".612" stop-color="#4ac8f5"/><stop offset=".682" stop-color="#6fd0f6"/><stop offset=".725" stop-color="#7bd3f7"/><stop offset=".762" stop-color="#72c8f1"/><stop offset=".825" stop-color="#55b2e4"/><stop offset=".906" stop-color="#1394d2"/><stop offset="1" stop-color="#0071bc"/></linearGradient><linearGradient id="an" x1="27.186" x2="43.418" y1="23.065" y2="13.947" gradientUnits="userSpaceOnUse"><stop stop-color="#2e499e"/><stop offset=".155" stop-color="#0071bb"/><stop offset=".4" stop-color="#00aeef"/><stop offset=".425" stop-color="#00b1f0"/><stop offset=".525" stop-color="#00bef2"/><stop offset=".612" stop-color="#4ac8f5"/><stop offset=".682" stop-color="#6fd0f6"/><stop offset=".725" stop-color="#7bd3f7"/><stop offset=".762" stop-color="#72c8f1"/><stop offset=".825" stop-color="#55b2e4"/><stop offset=".906" stop-color="#1394d2"/><stop offset="1" stop-color="#0071bc"/></linearGradient><linearGradient id="ap" x1="29.295" x2="45.557" y1="22.287" y2="22.287" gradientUnits="userSpaceOnUse"><stop stop-color="#2e499e"/><stop offset=".155" stop-color="#0071bb"/><stop offset=".4" stop-color="#00aeef"/><stop offset=".425" stop-color="#00b1f0"/><stop offset=".525" stop-color="#00bef2"/><stop offset=".612" stop-color="#4ac8f5"/><stop offset=".682" stop-color="#6fd0f6"/><stop offset=".725" stop-color="#7bd3f7"/><stop offset=".762" stop-color="#72c8f1"/><stop offset=".825" stop-color="#55b2e4"/><stop offset=".906" stop-color="#1394d2"/><stop offset="1" stop-color="#0071bc"/></linearGradient><linearGradient id="ar" x1="28.127" x2="44.356" y1="24.478" y2="15.362" gradientUnits="userSpaceOnUse"><stop stop-color="#2e499e"/><stop offset=".155" stop-color="#0071bb"/><stop offset=".4" stop-color="#00aeef"/><stop offset=".425" stop-color="#00b1f0"/><stop offset=".525" stop-color="#00bef2"/><stop offset=".612" stop-color="#4ac8f5"/><stop offset=".682" stop-color="#6fd0f6"/><stop offset=".725" stop-color="#7bd3f7"/><stop offset=".762" stop-color="#72c8f1"/><stop offset=".825" stop-color="#55b2e4"/><stop offset=".906" stop-color="#1394d2"/><stop offset="1" stop-color="#0071bc"/></linearGradient><linearGradient id="at" x1="29.295" x2="48.448" y1="36.512" y2="36.512" gradientUnits="userSpaceOnUse"><stop stop-color="#0db14b"/><stop offset=".005" stop-color="#0db14b"/><stop offset=".378" stop-color="#b4d670"/><stop offset=".446" stop-color="#aed16b"/><stop offset=".518" stop-color="#a1c85e"/><stop offset=".592" stop-color="#8dba4b"/><stop offset=".649" stop-color="#79ad3b"/><stop offset=".713" stop-color="#75a93b"/><stop offset=".785" stop-color="#699f3e"/><stop offset=".861" stop-color="#559241"/><stop offset=".94" stop-color="#348144"/><stop offset="1" stop-color="#007345"/></linearGradient><linearGradient id="av" x1="28.66" x2="48.404" y1="28.56" y2="43.892" gradientUnits="userSpaceOnUse"><stop stop-color="#0db14b"/><stop offset=".005" stop-color="#0db14b"/><stop offset=".378" stop-color="#b4d670"/><stop offset=".446" stop-color="#aed16b"/><stop offset=".518" stop-color="#a1c85e"/><stop offset=".592" stop-color="#8dba4b"/><stop offset=".649" stop-color="#79ad3b"/><stop offset=".713" stop-color="#75a93b"/><stop offset=".785" stop-color="#699f3e"/><stop offset=".861" stop-color="#559241"/><stop offset=".94" stop-color="#348144"/><stop offset="1" stop-color="#007345"/></linearGradient><linearGradient id="ax" x1="29.298" x2="48.444" y1="30.085" y2="30.085" gradientUnits="userSpaceOnUse"><stop stop-color="#0db14b"/><stop offset=".005" stop-color="#0db14b"/><stop offset=".378" stop-color="#b4d670"/><stop offset=".446" stop-color="#aed16b"/><stop offset=".518" stop-color="#a1c85e"/><stop offset=".592" stop-color="#8dba4b"/><stop offset=".649" stop-color="#79ad3b"/><stop offset=".713" stop-color="#75a93b"/><stop offset=".785" stop-color="#699f3e"/><stop offset=".861" stop-color="#559241"/><stop offset=".94" stop-color="#348144"/><stop offset="1" stop-color="#007345"/></linearGradient><linearGradient id="az" x1="29.243" x2="48.976" y1="27.897" y2="43.221" gradientUnits="userSpaceOnUse"><stop stop-color="#0db14b"/><stop offset=".005" stop-color="#0db14b"/><stop offset=".378" stop-color="#b4d670"/><stop offset=".446" stop-color="#aed16b"/><stop offset=".518" stop-color="#a1c85e"/><stop offset=".592" stop-color="#8dba4b"/><stop offset=".649" stop-color="#79ad3b"/><stop offset=".713" stop-color="#75a93b"/><stop offset=".785" stop-color="#699f3e"/><stop offset=".861" stop-color="#559241"/><stop offset=".94" stop-color="#348144"/><stop offset="1" stop-color="#007345"/></linearGradient></defs><path fill="#d1d3d4" d="M26.87 36.71H23.6c-.6 0-1.09.46-1.09 1.01l.01 6.49c0 .43-.37.77-.83.77H11.5c-.46 0-.83-.34-.83-.77v-9.47c.01-.41.37-.75.83-.75l7.21.01c.6 0 1.08-.45 1.08-1.01v-3.02c0-.55-.48-1-1.08-1H8.23c-1.65 0-2.99 1.24-2.99 2.77v15.49c0 1.52 1.34 2.77 2.99 2.77H25.1c1.61 0 2.86-1.22 2.86-2.77v-9.51c0-.55-.49-1.01-1.09-1.01m5.05-10.47h3.33c.59 0 1.08-.45 1.08-1v-3.07c0-.55-.49-1-1.08-1h-3.33c-.59 0-1.08.45-1.08 1v3.07c0 .55.49 1 1.08 1m-5.04 2.73h-3.27c-.59 0-1.08.45-1.08 1v3.06c0 .55.49 1.01 1.08 1.01h3.27c.61 0 1.09-.46 1.09-1.01v-3.06c0-.55-.48-1-1.09-1m5.07-10.36h2.99c.59 0 1.08-.45 1.08-1v-1.33c.01-.34.32-.63.7-.63h5.08c.38 0 .69.29.69.64v4.58c0 .34-.32.64-.69.64h-1.62c-.6 0-1.08.45-1.08 1v2.79c0 .56.48 1.01 1.08 1.01h3.95c1.65 0 2.94-1.21 2.94-2.72v-9.65c0-1.52-1.34-2.76-2.99-2.76H33.86c-1.65 0-2.99 1.24-2.99 2.76v3.67c0 .55.49 1 1.08 1m-.03 15.43h3.33c.59 0 1.08-.46 1.08-1.01v-3.06c0-.55-.49-1-1.08-1h-3.33c-.59 0-1.08.45-1.08 1v3.06c0 .55.49 1.01 1.08 1.01M47 28.94h-6.82c-.59 0-1.08.46-1.08 1.01v3.17c0 .41.28.84 1.08.84h4.23c.38 0 .7.31.7.68v7.09c0 .39-.33.7-.74.7h-7.24c-.4 0-.73-.31-.74-.69v-4.05c0-.55-.49-1-1.09-1H32c-.6 0-1.09.45-1.09 1v6.49c0 1.52 1.34 2.76 3 2.76H47c1.65 0 3-1.24 3-2.76V31.72c0-1.53-1.35-2.78-3-2.78M25.38 2.68h-20c-1.65 0-2.99 1.24-2.99 2.76v18.1c0 1.52 1.34 2.77 2.99 2.77h13.28c.63-.04 1.08-.48 1.08-1.01v-3.06c0-.53-.45-.97-1.03-1H9.05c-.45 0-.82-.34-.82-.76V8.84c0-.42.37-.76.82-.76h12.61c.46 0 .82.34.82.76v8.81c0 .57.49 1.03 1.09 1.03h3.31c.61 0 1.09-.46 1.09-1V5.44c0-1.65-1.04-2.76-2.59-2.76m1.5 18.49h-3.27c-.59 0-1.08.45-1.08 1v3.07c0 .55.49 1 1.08 1h3.27c.61 0 1.09-.45 1.09-1v-3.07c0-.55-.48-1-1.09-1"/><mask id="a" width="22.717" height="21.025" x="3.702" y="27.553" mask-type="alpha" maskUnits="userSpaceOnUse"><path fill="#000" d="M25.33 35.3h-3.27c-.61 0-1.09.44-1.09 1l.01 6.5c0 .41-.37.75-.82.75H9.96c-.46 0-.83-.34-.83-.75v-9.48c.01-.41.37-.75.83-.75l7.21.01c.6 0 1.08-.45 1.08-1.01v-3.02c0-.56-.48-1-1.08-1H6.69c-1.65 0-2.99 1.24-2.99 2.76v15.5c0 1.52 1.34 2.76 2.99 2.76h16.87c1.6 0 2.85-1.21 2.85-2.76V36.3c0-.56-.48-1-1.08-1m.64 10.51c0 1.29-1.02 2.35-2.41 2.35H6.69c-1.4 0-2.54-1.06-2.54-2.35l-.01-15.5c0-1.29 1.15-2.35 2.55-2.35h10.48c.34 0 .63.27.63.59v3.02c0 .33-.29.6-.63.6l-7.21-.02c-.7 0-1.27.53-1.28 1.17v9.48c0 .64.58 1.17 1.28 1.17h10.2c.7 0 1.26-.53 1.26-1.17v-6.5c0-.33.28-.59.64-.59h3.27c.36 0 .64.26.64.59z"/></mask><g mask="url(#a)"><path fill="url(#b)" d="M13.57 17.15 37.7 36.69 16.54 58.97-7.59 39.43z"/></g><mask id="c" width="5.434" height="5.069" x="20.997" y="27.549" mask-type="alpha" maskUnits="userSpaceOnUse"><path fill="#000" d="M25.34 27.54h-3.26c-.6 0-1.09.45-1.09 1.01v3.06c0 .55.49 1 1.09 1h3.26c.6 0 1.09-.45 1.09-1v-3.06c0-.56-.49-1.01-1.09-1.01m.64 4.07c0 .32-.29.59-.64.59h-3.26c-.35 0-.64-.27-.64-.59v-3.06c0-.33.29-.59.64-.59h3.26c.35 0 .64.26.64.59z"/></mask><g mask="url(#c)"><path fill="url(#d)" d="M28.38 31.86 21.8 34.4l-2.76-6.11 6.58-2.53z"/></g><mask id="e" width="5.49" height="5.069" x="29.303" y="27.549" mask-type="alpha" maskUnits="userSpaceOnUse"><path fill="#000" d="M30.39 32.61h3.31c.6 0 1.09-.45 1.09-1v-3.06c0-.56-.49-1.01-1.09-1.01h-3.31c-.6 0-1.09.45-1.09 1.01v3.06c0 .55.49 1 1.09 1m-.64-4.06c0-.33.29-.59.64-.59h3.31c.35 0 .63.26.63.59v3.06c0 .32-.28.59-.63.59h-3.31c-.35 0-.64-.27-.64-.59z"/></mask><g mask="url(#e)"><path fill="url(#f)" d="m37.48 30.57-5.97 4.53-4.9-5.51 5.97-4.53z"/></g><mask id="g" width="19.076" height="17.99" x="29.376" y="27.529" mask-type="alpha" maskUnits="userSpaceOnUse"><path fill="#000" d="M45.46 27.52h-6.82c-.59 0-1.08.45-1.08 1.01v3.16c0 .41.28.84 1.08.84h4.23c.38.01.7.32.7.69v7.09c0 .38-.34.69-.75.69h-7.23c-.41 0-.74-.3-.75-.68v-4.06c0-.54-.48-.99-1.08-.99h-3.3c-.6 0-1.09.45-1.09.99v6.49c0 1.53 1.35 2.76 3 2.76h13.09c1.65 0 2.99-1.23 2.99-2.76V30.29c0-1.52-1.34-2.77-2.99-2.77M48 42.75c0 1.29-1.14 2.35-2.54 2.35h-13.1c-1.39 0-2.54-1.06-2.54-2.35v-6.49c0-.31.28-.58.64-.58h3.3c.35 0 .64.27.64.58v4.07c.01.6.54 1.09 1.19 1.09h7.23c.66 0 1.2-.5 1.2-1.11v-7.09c0-.6-.52-1.09-1.15-1.1h-4.23c-.34 0-.63-.1-.63-.43v-3.16c0-.33.29-.59.63-.59h6.82c1.4 0 2.54 1.05 2.54 2.35z"/></mask><g mask="url(#g)"><path fill="url(#h)" d="m19.73 37.82 17.8-19.01 20.55 16.41-17.79 19.01z"/></g><mask id="i" width="5.49" height="5.065" x="29.303" y="19.757" mask-type="alpha" maskUnits="userSpaceOnUse"><path fill="#000" d="M30.39 24.82h3.31c.6 0 1.09-.45 1.09-1.01v-3.06c0-.55-.49-1-1.09-1h-3.31c-.6 0-1.09.45-1.09 1v3.06c0 .56.49 1.01 1.09 1.01m-.64-4.07c0-.32.29-.59.64-.59h3.31c.35 0 .63.27.63.59v3.07c0 .32-.28.58-.63.58h-3.31c-.35 0-.64-.26-.64-.58z"/></mask><g mask="url(#i)"><path fill="url(#j)" d="m26.72 23.14 4.39-5.77 6.26 4.06-4.4 5.77z"/></g><mask id="k" width="16.205" height="15.133" x="29.333" y="9.756" mask-type="alpha" maskUnits="userSpaceOnUse"><path fill="#000" d="M30.41 17.19h2.99c.6 0 1.08-.45 1.08-1v-1.33c.01-.35.32-.63.7-.63h5.08c.38 0 .7.29.7.64v4.57c0 .35-.32.65-.7.65h-1.62c-.59 0-1.08.45-1.08.99v2.8c0 .55.49 1 1.08 1h3.95c1.65 0 2.94-1.19 2.94-2.72v-9.64c0-1.52-1.34-2.77-3-2.77H32.32c-1.66 0-2.99 1.25-2.99 2.77v3.67c0 .55.48 1 1.08 1m-.63-4.52v-.15c0-1.29 1.14-2.35 2.54-2.35h10.21c1.41 0 2.55 1.06 2.55 2.35v9.64c0 1.29-1.09 2.31-2.49 2.31h-3.95c-.34 0-.63-.26-.63-.59v-2.8c0-.31.29-.58.63-.58h1.62c.63 0 1.15-.48 1.15-1.06v-4.57c0-.58-.52-1.06-1.15-1.06h-5.08c-.63 0-1.13.47-1.15 1.04v1.34c0 .32-.28.58-.63.58h-2.99c-.35 0-.63-.26-.63-.58z"/></mask><g mask="url(#k)"><path fill="url(#l)" d="m23.02 22.15 9.24-18.16 19.58 8.5-9.24 18.15z"/></g><mask id="m" width="5.434" height="5.065" x="20.997" y="19.757" mask-type="alpha" maskUnits="userSpaceOnUse"><path fill="#000" d="M25.34 19.75h-3.26c-.6 0-1.09.45-1.09 1v3.06c0 .56.49 1.01 1.09 1.01h3.26c.6 0 1.09-.45 1.09-1.01v-3.06c0-.55-.49-1-1.09-1m.64 4.06c0 .33-.29.59-.64.59h-3.26c-.35 0-.64-.26-.64-.59v-3.06c0-.32.29-.59.64-.59h3.26c.35 0 .64.27.64.59z"/></mask><g mask="url(#m)"><path fill="url(#n)" d="m18.42 21.41 6.23-4.01L29 23.16l-6.23 4.01z"/></g><mask id="o" width="4.535" height="4.238" x="21.446" y="20.169" mask-type="alpha" maskUnits="userSpaceOnUse"><path fill="#000" d="M25.34 20.16h-3.26c-.35 0-.64.27-.64.59v3.07c0 .32.29.58.64.58h3.26c.35 0 .64-.26.64-.58v-3.07c0-.32-.29-.59-.64-.59m.19 3.65c0 .1-.08.18-.19.18h-3.26c-.1 0-.19-.08-.19-.18v-3.06c0-.09.09-.18.19-.18h3.26c.11 0 .19.09.19.18z"/></mask><g mask="url(#o)"><path fill="url(#p)" d="m28.19 22.85-5.08 3.57-3.88-4.7 5.08-3.58z"/></g><mask id="q" width="4.535" height="4.238" x="21.446" y="20.169" mask-type="alpha" maskUnits="userSpaceOnUse"><path fill="#000" d="M25.34 20.16h-3.26c-.35 0-.64.27-.64.59v3.07c0 .32.29.58.64.58h3.26c.35 0 .64-.26.64-.58v-3.07c0-.32-.29-.59-.64-.59m.19 3.65c0 .1-.08.18-.19.18h-3.26c-.1 0-.19-.08-.19-.18v-3.06c0-.09.09-.18.19-.18h3.26c.11 0 .19.09.19.18z"/></mask><g mask="url(#q)"><path fill="url(#r)" d="m23.19 18.13 5.02 3.67-3.98 4.64-5.02-3.67z"/></g><mask id="s" width="4.586" height="4.238" x="29.752" y="20.169" mask-type="alpha" maskUnits="userSpaceOnUse"><path fill="#000" d="M30.39 24.4h3.31c.35 0 .63-.26.63-.58v-3.07c0-.32-.28-.59-.63-.59h-3.31c-.35 0-.64.27-.64.59v3.07c0 .32.29.58.64.58m-.19-3.65c0-.09.09-.17.19-.17h3.31c.1 0 .19.08.19.17v3.07c0 .09-.09.17-.19.17h-3.31c-.1 0-.19-.08-.19-.17z"/></mask><g mask="url(#s)"><path fill="url(#t)" d="M29.757 20.17h4.577v4.236h-4.577z"/></g><mask id="u" width="4.586" height="4.238" x="29.752" y="20.169" mask-type="alpha" maskUnits="userSpaceOnUse"><path fill="#000" d="M30.39 24.4h3.31c.35 0 .63-.26.63-.58v-3.07c0-.32-.28-.59-.63-.59h-3.31c-.35 0-.64.27-.64.59v3.07c0 .32.29.58.64.58m-.19-3.65c0-.09.09-.17.19-.17h3.31c.1 0 .19.08.19.17v3.07c0 .09-.09.17-.19.17h-3.31c-.1 0-.19-.08-.19-.17z"/></mask><g mask="url(#u)"><path fill="url(#v)" d="m27.71 21.31 5.38-3.03 3.28 4.98-5.38 3.02z"/></g><mask id="w" width="15.305" height="14.299" x="29.782" y="10.175" mask-type="alpha" maskUnits="userSpaceOnUse"><path fill="#000" d="M30.41 16.77h2.99c.35 0 .63-.26.63-.58v-1.33c.02-.58.52-1.05 1.15-1.05h5.08c.63 0 1.15.48 1.15 1.06v4.57c0 .58-.52 1.06-1.15 1.06h-1.62c-.34 0-.63.27-.63.58v2.8c0 .33.29.59.63.59h3.95c1.4 0 2.49-1.02 2.49-2.31v-9.64c0-1.29-1.14-2.35-2.55-2.35H32.32c-1.4 0-2.54 1.06-2.54 2.35v3.67c0 .32.28.58.63.58m-.19-4.25c0-1.06.94-1.93 2.1-1.93h10.21c1.16 0 2.1.87 2.1 1.93v9.64c0 1.06-.9 1.89-2.04 1.89h-3.95c-.1 0-.19-.07-.19-.17v-2.8c0-.08.09-.16.19-.16h1.62c.87 0 1.59-.67 1.59-1.48v-4.57c0-.81-.72-1.47-1.59-1.47h-5.08c-.87 0-1.58.65-1.6 1.45v1.34c0 .09-.08.17-.18.17h-2.99c-.1 0-.19-.08-.19-.17z"/></mask><g mask="url(#w)"><path fill="url(#x)" d="M29.782 10.175h15.3v14.298h-15.3z"/></g><mask id="y" width="15.305" height="14.299" x="29.782" y="10.175" mask-type="alpha" maskUnits="userSpaceOnUse"><path fill="#000" d="M30.41 16.77h2.99c.35 0 .63-.26.63-.58v-1.33c.02-.58.52-1.05 1.15-1.05h5.08c.63 0 1.15.48 1.15 1.06v4.57c0 .58-.52 1.06-1.15 1.06h-1.62c-.34 0-.63.27-.63.58v2.8c0 .33.29.59.63.59h3.95c1.4 0 2.49-1.02 2.49-2.31v-9.64c0-1.29-1.14-2.35-2.55-2.35H32.32c-1.4 0-2.54 1.06-2.54 2.35v3.67c0 .32.28.58.63.58m-.19-4.25c0-1.06.94-1.93 2.1-1.93h10.21c1.16 0 2.1.87 2.1 1.93v9.64c0 1.06-.9 1.89-2.04 1.89h-3.95c-.1 0-.19-.07-.19-.17v-2.8c0-.08.09-.16.19-.16h1.62c.87 0 1.59-.67 1.59-1.48v-4.57c0-.81-.72-1.47-1.59-1.47h-5.08c-.87 0-1.58.65-1.6 1.45v1.34c0 .09-.08.17-.18.17h-2.99c-.1 0-.19-.08-.19-.17z"/></mask><g mask="url(#y)"><path fill="url(#z)" d="M22.9 14.03 40.95 3.89l11.01 16.72-18.05 10.13z"/></g><mask id="A" width="4.586" height="4.243" x="29.752" y="27.96" mask-type="alpha" maskUnits="userSpaceOnUse"><path fill="#000" d="M30.39 32.2h3.31c.35 0 .63-.27.63-.59v-3.06c0-.33-.28-.59-.63-.59h-3.31c-.35 0-.64.26-.64.59v3.06c0 .32.29.59.64.59m-.19-3.65c0-.1.09-.18.19-.18h3.31c.1 0 .19.08.19.18v3.06c0 .09-.09.18-.19.18h-3.31c-.1 0-.19-.09-.19-.18z"/></mask><g mask="url(#A)"><path fill="url(#B)" d="M29.762 27.96h4.576v4.242h-4.576z"/></g><mask id="C" width="4.586" height="4.243" x="29.752" y="27.96" mask-type="alpha" maskUnits="userSpaceOnUse"><path fill="#000" d="M30.39 32.2h3.31c.35 0 .63-.27.63-.59v-3.06c0-.33-.28-.59-.63-.59h-3.31c-.35 0-.64.26-.64.59v3.06c0 .32.29.59.64.59m-.19-3.65c0-.1.09-.18.19-.18h3.31c.1 0 .19.08.19.18v3.06c0 .09-.09.18-.19.18h-3.31c-.1 0-.19-.09-.19-.18z"/></mask><g mask="url(#C)"><path fill="url(#D)" d="m31.65 25.87 4.95 3.84-4.17 4.57-4.95-3.84z"/></g><mask id="E" width="18.177" height="17.155" x="29.829" y="27.949" mask-type="alpha" maskUnits="userSpaceOnUse"><path fill="#000" d="M45.46 27.94h-6.82c-.34 0-.63.26-.63.59v3.16c0 .33.29.43.63.43h4.23c.63.01 1.15.5 1.15 1.1v7.09c0 .61-.54 1.11-1.2 1.11h-7.23c-.65 0-1.18-.49-1.19-1.09v-4.07c0-.31-.29-.58-.64-.58h-3.3c-.36 0-.64.27-.64.58v6.49c0 1.29 1.15 2.35 2.55 2.35h13.09c1.4 0 2.54-1.06 2.54-2.35V30.29c0-1.3-1.14-2.35-2.54-2.35m2.09 14.81c0 1.08-.94 1.94-2.09 1.94h-13.1c-1.15 0-2.09-.86-2.09-1.94v-6.49c0-.09.08-.16.19-.16h3.3c.1 0 .19.07.19.16v4.07c.01.83.75 1.5 1.64 1.5h7.23c.91 0 1.65-.68 1.65-1.52v-7.09c0-.83-.7-1.49-1.59-1.52h-4.24l-.22-.03.03-3.14c0-.1.09-.18.19-.18h6.82c1.15 0 2.09.87 2.09 1.94z"/></mask><g mask="url(#E)"><path fill="url(#F)" d="M29.829 27.949h18.169v17.152H29.829z"/></g><mask id="G" width="21.826" height="20.198" x="4.147" y="27.969" mask-type="alpha" maskUnits="userSpaceOnUse"><path fill="#000" d="M25.33 35.71h-3.27c-.36 0-.64.26-.64.59v6.5c0 .64-.56 1.17-1.26 1.17H9.96c-.7 0-1.28-.53-1.28-1.17v-9.48c.01-.64.58-1.17 1.28-1.17l7.21.02c.34 0 .63-.27.63-.6v-3.02c0-.32-.29-.59-.63-.59H6.69c-1.4 0-2.55 1.06-2.55 2.35l.01 15.5c0 1.29 1.14 2.35 2.54 2.35h16.87c1.39 0 2.41-1.06 2.41-2.35V36.3c0-.33-.28-.59-.64-.59m.19 10.1c0 1.1-.84 1.94-1.96 1.94H6.69c-1.15 0-2.1-.87-2.1-1.94v-15.5c0-1.06.94-1.93 2.1-1.93h10.48c.1 0 .19.08.19.17v3.02c0 .1-.09.18-.19.18l-7.21-.01c-.95 0-1.72.71-1.72 1.58v9.47c0 .88.77 1.59 1.72 1.59h10.2c.95 0 1.71-.71 1.71-1.59V36.3c0-.1.08-.17.19-.17h3.27c.1 0 .19.07.19.17z"/></mask><g mask="url(#G)"><path fill="url(#H)" d="m-6.73 36.96 22.97-19.01 20.6 21.21-22.97 19.02z"/></g><mask id="I" width="21.826" height="20.198" x="4.147" y="27.969" mask-type="alpha" maskUnits="userSpaceOnUse"><path fill="#000" d="M25.33 35.71h-3.27c-.36 0-.64.26-.64.59v6.5c0 .64-.56 1.17-1.26 1.17H9.96c-.7 0-1.28-.53-1.28-1.17v-9.48c.01-.64.58-1.17 1.28-1.17l7.21.02c.34 0 .63-.27.63-.6v-3.02c0-.32-.29-.59-.63-.59H6.69c-1.4 0-2.55 1.06-2.55 2.35l.01 15.5c0 1.29 1.14 2.35 2.54 2.35h16.87c1.39 0 2.41-1.06 2.41-2.35V36.3c0-.33-.28-.59-.64-.59m.19 10.1c0 1.1-.84 1.94-1.96 1.94H6.69c-1.15 0-2.1-.87-2.1-1.94v-15.5c0-1.06.94-1.93 2.1-1.93h10.48c.1 0 .19.08.19.17v3.02c0 .1-.09.18-.19.18l-7.21-.01c-.95 0-1.72.71-1.72 1.58v9.47c0 .88.77 1.59 1.72 1.59h10.2c.95 0 1.71-.71 1.71-1.59V36.3c0-.1.08-.17.19-.17h3.27c.1 0 .19.07.19.17z"/></mask><g mask="url(#I)"><path fill="url(#J)" d="m31.31 46.88-25.78 6.2-6.73-23.83 25.78-6.21z"/></g><mask id="K" width="4.535" height="4.243" x="21.446" y="27.96" mask-type="alpha" maskUnits="userSpaceOnUse"><path fill="#000" d="M25.34 27.96h-3.26c-.35 0-.64.26-.64.59v3.06c0 .32.29.59.64.59h3.26c.35 0 .64-.27.64-.59v-3.06c0-.33-.29-.59-.64-.59m.19 3.65c0 .09-.08.18-.19.18h-3.26c-.1 0-.19-.09-.19-.18v-3.06c0-.1.09-.18.19-.18h3.26c.11 0 .19.08.19.18z"/></mask><g mask="url(#K)"><path fill="url(#L)" d="m19.16 29.85 4.8-3.98 4.3 4.44-4.8 3.97z"/></g><mask id="M" width="4.535" height="4.243" x="21.446" y="27.96" mask-type="alpha" maskUnits="userSpaceOnUse"><path fill="#000" d="M25.34 27.96h-3.26c-.35 0-.64.26-.64.59v3.06c0 .32.29.59.64.59h3.26c.35 0 .64-.27.64-.59v-3.06c0-.33-.29-.59-.64-.59m.19 3.65c0 .09-.08.18-.19.18h-3.26c-.1 0-.19-.09-.19-.18v-3.06c0-.1.09-.18.19-.18h3.26c.11 0 .19.08.19.18z"/></mask><g mask="url(#M)"><path fill="url(#N)" d="m27.1 31.93-5.37 1.29-1.41-4.99 5.37-1.3z"/></g><mask id="O" width="3.644" height="3.416" x="21.892" y="28.375" mask-type="alpha" maskUnits="userSpaceOnUse"><path fill="#000" d="M25.34 28.37h-3.26c-.1 0-.19.08-.19.18v3.06c0 .09.09.18.19.18h3.26c.11 0 .19-.09.19-.18v-3.06c0-.1-.08-.18-.19-.18"/></mask><g mask="url(#O)"><path fill="url(#P)" d="m20.05 29.89 3.86-3.19 3.46 3.56-3.86 3.2z"/></g><mask id="Q" width="3.644" height="3.416" x="21.892" y="28.375" mask-type="alpha" maskUnits="userSpaceOnUse"><path fill="#000" d="M25.34 28.37h-3.26c-.1 0-.19.08-.19.18v3.06c0 .09.09.18.19.18h3.26c.11 0 .19-.09.19-.18v-3.06c0-.1-.08-.18-.19-.18"/></mask><g mask="url(#Q)"><path fill="url(#R)" d="m26.43 31.57-4.31 1.04-1.14-4.02 4.32-1.04z"/></g><mask id="S" width="20.926" height="19.368" x="4.597" y="28.384" mask-type="alpha" maskUnits="userSpaceOnUse"><path fill="#000" d="M25.33 36.13h-3.27c-.11 0-.19.07-.19.17v6.49c0 .88-.76 1.59-1.71 1.59H9.96c-.95 0-1.72-.71-1.72-1.59v-9.47c0-.87.77-1.58 1.72-1.58l7.21.01c.1 0 .19-.08.19-.18v-3.02c0-.09-.09-.17-.19-.17H6.69c-1.16 0-2.1.87-2.1 1.93v15.5c0 1.07.95 1.94 2.1 1.94h16.87c1.12 0 1.96-.84 1.96-1.94V36.3c0-.1-.09-.17-.19-.17"/></mask><g mask="url(#S)"><path fill="url(#T)" d="m-5.83 37.01 22.02-18.24 19.75 20.35-22.02 18.23z"/></g><mask id="U" width="20.926" height="19.368" x="4.597" y="28.384" mask-type="alpha" maskUnits="userSpaceOnUse"><path fill="#000" d="M25.33 36.13h-3.27c-.11 0-.19.07-.19.17v6.49c0 .88-.76 1.59-1.71 1.59H9.96c-.95 0-1.72-.71-1.72-1.59v-9.47c0-.87.77-1.58 1.72-1.58l7.21.01c.1 0 .19-.08.19-.18v-3.02c0-.09-.09-.17-.19-.17H6.69c-1.16 0-2.1.87-2.1 1.93v15.5c0 1.07.95 1.94 2.1 1.94h16.87c1.12 0 1.96-.84 1.96-1.94V36.3c0-.1-.09-.17-.19-.17"/></mask><g mask="url(#U)"><path fill="url(#V)" d="M35.98 38.74 14.33 57.39l-20.2-20 21.65-18.65z"/></g><mask id="W" width="25.579" height="23.626" x=".852" y="1.263" mask-type="alpha" maskUnits="userSpaceOnUse"><path fill="#000" d="M23.84 1.26h-20C2.19 1.26.85 2.5.85 4.02v18.09c0 1.53 1.34 2.77 2.99 2.77h13.28c.63-.04 1.08-.47 1.08-1v-3.06c0-.53-.45-.97-1.03-1H7.51c-.45 0-.82-.35-.82-.76V7.41c0-.41.37-.75.82-.75h12.61c.45 0 .82.34.82.75v8.82c0 .57.48 1.02 1.09 1.02h3.31c.6 0 1.09-.45 1.09-1V4.02c0-1.65-1.04-2.76-2.59-2.76m2.14 11.48v3.51c0 .31-.29.58-.64.58h-3.31c-.35 0-.64-.27-.64-.58V7.41c0-.64-.57-1.17-1.27-1.17H7.51c-.69 0-1.26.53-1.26 1.17v11.64c0 .65.57 1.18 1.26 1.18h9.64c.34.01.6.28.6.59v3.06c0 .31-.26.56-.6.58l-13.31.01c-1.4 0-2.54-1.06-2.54-2.36V4.02c0-1.29 1.14-2.35 2.54-2.35h20c1.39 0 2.14 1.06 2.14 2.35z"/></mask><g mask="url(#W)"><path fill="url(#X)" d="m-11.43 9.74 28.67-19.81L38.7 16.4 10.03 36.22z"/></g><mask id="Y" width="24.68" height="22.795" x="1.301" y="1.678" mask-type="alpha" maskUnits="userSpaceOnUse"><path fill="#000" d="M23.84 1.67h-20c-1.4 0-2.54 1.06-2.54 2.35v18.09c0 1.3 1.14 2.36 2.54 2.36h13.31c.34-.02.6-.28.6-.59v-3.06c0-.31-.26-.57-.6-.59H7.51c-.69 0-1.26-.52-1.26-1.17V7.41c0-.64.57-1.17 1.26-1.17h12.61c.7 0 1.27.53 1.27 1.17v8.84c0 .31.28.58.64.58h3.31c.35 0 .64-.27.64-.58V4.02c0-1.29-.75-2.35-2.14-2.35m1.69 14.58c0 .09-.08.17-.19.17h-3.31c-.11 0-.19-.08-.19-.17V7.41c0-.87-.77-1.58-1.72-1.58H7.51c-.95 0-1.72.71-1.72 1.58v11.65c0 .87.77 1.59 1.72 1.59h9.64c.07.01.15.08.15.17v3.06c0 .09-.08.17-.17.17H3.84c-1.16 0-2.09-.87-2.09-1.94V4.02c0-1.07.93-1.93 2.09-1.93h20c1.25 0 1.69.99 1.69 1.93z"/></mask><g mask="url(#Y)"><path fill="url(#Z)" d="M37.87 16.1 10.36 35.46-10.6 10.04 16.91-9.31z"/></g><mask id="aa" width="24.68" height="22.795" x="1.301" y="1.678" mask-type="alpha" maskUnits="userSpaceOnUse"><path fill="#000" d="M23.84 1.67h-20c-1.4 0-2.54 1.06-2.54 2.35v18.09c0 1.3 1.14 2.36 2.54 2.36h13.31c.34-.02.6-.28.6-.59v-3.06c0-.31-.26-.57-.6-.59H7.51c-.69 0-1.26-.52-1.26-1.17V7.41c0-.64.57-1.17 1.26-1.17h12.61c.7 0 1.27.53 1.27 1.17v8.84c0 .31.28.58.64.58h3.31c.35 0 .64-.27.64-.58V4.02c0-1.29-.75-2.35-2.14-2.35m1.69 14.58c0 .09-.08.17-.19.17h-3.31c-.11 0-.19-.08-.19-.17V7.41c0-.87-.77-1.58-1.72-1.58H7.51c-.95 0-1.72.71-1.72 1.58v11.65c0 .87.77 1.59 1.72 1.59h9.64c.07.01.15.08.15.17v3.06c0 .09-.08.17-.17.17H3.84c-1.16 0-2.09-.87-2.09-1.94V4.02c0-1.07.93-1.93 2.09-1.93h20c1.25 0 1.69.99 1.69 1.93z"/></mask><g mask="url(#aa)"><path fill="url(#ab)" d="m10.82-9.42 27.17 19.89-21.54 25.09-27.17-19.89z"/></g><mask id="ac" width="23.785" height="21.965" x="1.751" y="2.094" mask-type="alpha" maskUnits="userSpaceOnUse"><path fill="#000" d="M23.84 2.09h-20c-1.16 0-2.09.86-2.09 1.93v18.09c0 1.07.93 1.94 2.09 1.94h13.29c.1 0 .17-.08.17-.17v-3.06c0-.09-.07-.16-.15-.17H7.51c-.95 0-1.72-.72-1.72-1.59V7.41c0-.87.77-1.58 1.72-1.58h12.61c.95 0 1.72.71 1.72 1.58v8.84c0 .09.08.17.19.17h3.31c.11 0 .19-.08.19-.17V4.02c0-.94-.44-1.93-1.69-1.93"/></mask><g mask="url(#ac)"><path fill="url(#ad)" d="M37 15.99 10.48 34.64l-20.2-24.49L16.8-8.5z"/></g><mask id="ae" width="23.785" height="21.965" x="1.751" y="2.094" mask-type="alpha" maskUnits="userSpaceOnUse"><path fill="#000" d="M23.84 2.09h-20c-1.16 0-2.09.86-2.09 1.93v18.09c0 1.07.93 1.94 2.09 1.94h13.29c.1 0 .17-.08.17-.17v-3.06c0-.09-.07-.16-.15-.17H7.51c-.95 0-1.72-.72-1.72-1.59V7.41c0-.87.77-1.58 1.72-1.58h12.61c.95 0 1.72.71 1.72 1.58v8.84c0 .09.08.17.19.17h3.31c.11 0 .19-.08.19-.17V4.02c0-.94-.44-1.93-1.69-1.93"/></mask><g mask="url(#ae)"><path fill="url(#af)" d="m10.92-8.6 26.19 19.17-20.76 24.18-26.18-19.17z"/></g><mask id="ag" width="3.644" height="3.416" x="21.892" y="20.58" mask-type="alpha" maskUnits="userSpaceOnUse"><path fill="#000" d="M25.34 20.58h-3.26c-.1 0-.19.08-.19.17v3.07c0 .09.09.17.19.17h3.26c.11 0 .19-.08.19-.17v-3.07c0-.09-.08-.17-.19-.17"/></mask><g mask="url(#ag)"><path fill="url(#ah)" d="m27.31 22.74-4.08 2.87-3.13-3.78 4.09-2.88z"/></g><mask id="ai" width="3.644" height="3.416" x="21.892" y="20.58" mask-type="alpha" maskUnits="userSpaceOnUse"><path fill="#000" d="M25.34 20.58h-3.26c-.1 0-.19.08-.19.17v3.07c0 .09.09.17.19.17h3.26c.11 0 .19-.08.19-.17v-3.07c0-.09-.08-.17-.19-.17"/></mask><g mask="url(#ai)"><path fill="url(#aj)" d="m23.29 18.94 4.04 2.95-3.21 3.74-4.03-2.96z"/></g><mask id="ak" width="14.411" height="13.469" x="30.228" y="10.59" mask-type="alpha" maskUnits="userSpaceOnUse"><path fill="#000" d="M30.41 16.36h2.99c.1 0 .18-.08.18-.17v-1.34c.02-.8.73-1.45 1.6-1.45h5.08c.87 0 1.59.66 1.59 1.47v4.57c0 .81-.72 1.48-1.59 1.48h-1.62c-.1 0-.19.08-.19.16v2.8c0 .1.09.17.19.17h3.95c1.14 0 2.04-.83 2.04-1.89v-9.64c0-1.06-.94-1.93-2.1-1.93H32.32c-1.16 0-2.1.87-2.1 1.93v3.67c0 .09.09.17.19.17"/></mask><g mask="url(#ak)"><path fill="url(#al)" d="M30.228 10.594h14.41v13.463h-14.41z"/></g><mask id="am" width="14.411" height="13.469" x="30.228" y="10.59" mask-type="alpha" maskUnits="userSpaceOnUse"><path fill="#000" d="M30.41 16.36h2.99c.1 0 .18-.08.18-.17v-1.34c.02-.8.73-1.45 1.6-1.45h5.08c.87 0 1.59.66 1.59 1.47v4.57c0 .81-.72 1.48-1.59 1.48h-1.62c-.1 0-.19.08-.19.16v2.8c0 .1.09.17.19.17h3.95c1.14 0 2.04-.83 2.04-1.89v-9.64c0-1.06-.94-1.93-2.1-1.93H32.32c-1.16 0-2.1.87-2.1 1.93v3.67c0 .09.09.17.19.17"/></mask><g mask="url(#am)"><path fill="url(#an)" d="m23.75 14.22 16.99-9.54 10.37 15.74-17 9.54z"/></g><mask id="ao" width="3.691" height="3.416" x="30.202" y="20.58" mask-type="alpha" maskUnits="userSpaceOnUse"><path fill="#000" d="M30.39 23.99h3.31c.1 0 .19-.08.19-.18v-3.06c0-.09-.09-.18-.19-.18h-3.31c-.1 0-.19.09-.19.18v3.06c0 .1.09.18.19.18"/></mask><g mask="url(#ao)"><path fill="url(#ap)" d="M30.202 20.58h3.677v3.416h-3.677z"/></g><mask id="aq" width="3.691" height="3.416" x="30.202" y="20.58" mask-type="alpha" maskUnits="userSpaceOnUse"><path fill="#000" d="M30.39 23.99h3.31c.1 0 .19-.08.19-.18v-3.06c0-.09-.09-.18-.19-.18h-3.31c-.1 0-.19.09-.19.18v3.06c0 .1.09.18.19.18"/></mask><g mask="url(#aq)"><path fill="url(#ar)" d="m28.55 21.5 4.34-2.44 2.64 4.01-4.34 2.43z"/></g><mask id="as" width="17.282" height="16.332" x="30.275" y="28.36" mask-type="alpha" maskUnits="userSpaceOnUse"><path fill="#000" d="M45.46 28.35h-6.82c-.1 0-.19.08-.19.18l-.03 3.14.22.03h4.24c.89.03 1.59.69 1.59 1.52v7.09c0 .84-.74 1.52-1.65 1.52h-7.23c-.89 0-1.62-.67-1.64-1.5v-4.07c0-.09-.09-.16-.19-.16h-3.3c-.11 0-.19.07-.19.16v6.49c0 1.08.94 1.94 2.1 1.94h13.09c1.15 0 2.09-.86 2.09-1.94V30.29c0-1.07-.94-1.94-2.09-1.94"/></mask><g mask="url(#as)"><path fill="url(#at)" d="M30.28 28.36h17.275v16.332H30.28z"/></g><mask id="au" width="17.282" height="16.332" x="30.275" y="28.36" mask-type="alpha" maskUnits="userSpaceOnUse"><path fill="#000" d="M45.46 28.35h-6.82c-.1 0-.19.08-.19.18l-.03 3.14.22.03h4.24c.89.03 1.59.69 1.59 1.52v7.09c0 .84-.74 1.52-1.65 1.52h-7.23c-.89 0-1.62-.67-1.64-1.5v-4.07c0-.09-.09-.16-.19-.16h-3.3c-.11 0-.19.07-.19.16v6.49c0 1.08.94 1.94 2.1 1.94h13.09c1.15 0 2.09-.86 2.09-1.94V30.29c0-1.07-.94-1.94-2.09-1.94"/></mask><g mask="url(#au)"><path fill="url(#av)" d="m37.43 20.49 18.83 14.63-15.87 17.43-18.83-14.63z"/></g><mask id="aw" width="3.691" height="3.416" x="30.202" y="28.375" mask-type="alpha" maskUnits="userSpaceOnUse"><path fill="#000" d="M30.39 31.79h3.31c.1 0 .19-.09.19-.18v-3.06c0-.1-.09-.18-.19-.18h-3.31c-.1 0-.19.08-.19.18v3.06c0 .09.09.18.19.18"/></mask><g mask="url(#aw)"><path fill="url(#ax)" d="M30.203 28.375h3.676v3.416h-3.676z"/></g><mask id="ay" width="3.691" height="3.416" x="30.202" y="28.375" mask-type="alpha" maskUnits="userSpaceOnUse"><path fill="#000" d="M30.39 31.79h3.31c.1 0 .19-.09.19-.18v-3.06c0-.1-.09-.18-.19-.18h-3.31c-.1 0-.19.08-.19.18v3.06c0 .09.09.18.19.18"/></mask><g mask="url(#ay)"><path fill="url(#az)" d="m31.73 26.69 3.98 3.1-3.35 3.68-3.98-3.1z"/></g></svg>