<svg xmlns="http://www.w3.org/2000/svg" width="50" height="50" fill="none" viewBox="0 0 50 50"><g clip-path="url(#a)"><path fill="url(#b)" d="M25 50c13.807 0 25-11.193 25-25S38.807 0 25 0 0 11.193 0 25s11.193 25 25 25"/><path fill="#d9d5e5" fill-rule="evenodd" d="M36.01 11.108a7 7 0 0 1 2.003 1.368q.545.668.976 1.416.25.531.44 1.074.145.675.195 1.367.151.761-.39 1.294-.841.396-1.27-.415a33 33 0 0 0-.122-1.22 1.5 1.5 0 0 0-.122-.44 2.9 2.9 0 0 0-.44-1.026 3.8 3.8 0 0 0-1.22-1.367 4.25 4.25 0 0 0-2.833-.659q-2.363.447-3.173 2.71a4.9 4.9 0 0 0-.342 1.953q-.387.788-1.22.488a.9.9 0 0 1-.465-.634q-.047-.466.025-.928a4.5 4.5 0 0 1 .244-1.22 8 8 0 0 1 .44-1.124q2.61-4.098 7.275-2.637" clip-rule="evenodd"/><path fill="#d7d4e4" fill-rule="evenodd" d="M34.692 16.626q.015.104.074.195.197.824-.513 1.245-1.095.333-1.416-.756a1.17 1.17 0 0 1 .342-.904q.844-.515 1.513.22" clip-rule="evenodd"/><path fill="#d9d5e5" d="M25.415 19.995q1.229.225 2.246.928a6.1 6.1 0 0 1 1.563 1.855q.277.615.44 1.27.125.431.194.879.057.585.05 1.172.036.756.048 1.513 0 .904.049 1.807.03.9.293 1.758a.8.8 0 0 1 .098.244q.389 1.023 1.269 1.66 1.647 1.22 3.613.562 1.92-.736 2.49-2.71a7.7 7.7 0 0 0 .196-2.198v-6.64q-.012-.392.024-.781l.082-.163.04-.082q.37-.473.977-.341.52.153.635.683v8.106a6 6 0 0 0-.05.732l-.243 1.27q-.226.645-.537 1.27-.243.434-.562.83a15 15 0 0 0-.708.732 5.95 5.95 0 0 1-3.613 1.27 5.2 5.2 0 0 1-2.002-.294 5 5 0 0 1-1.318-.683 6 6 0 0 1-.928-.88l-.44-.585a21 21 0 0 1-.586-1.221 1 1 0 0 0-.049-.244 7.6 7.6 0 0 1-.39-1.66q-.041-.915-.098-1.807.024-1.087-.049-2.148.024-.478-.048-.928a1.8 1.8 0 0 0-.098-.586 2.4 2.4 0 0 0-.488-1.172q-.8-1.256-2.295-1.49-2.961-.307-4.029 2.467-.179.474-.22.976a17 17 0 0 0-.048 1.807v7.617q-.174.992-1.172.806a1.1 1.1 0 0 1-.39-.269l-.172-.342a28 28 0 0 1-.024-1.66v-6.933a4.2 4.2 0 0 0-.39-2.247 3.46 3.46 0 0 0-1.075-1.464 2.97 2.97 0 0 0-1.562-.757q-3.106-.377-3.955 2.612a5.6 5.6 0 0 0-.245 2.002v7.52a4.3 4.3 0 0 1-.073 1.025q-.447.808-1.294.415a1.02 1.02 0 0 1-.39-.806v-7.47q-.003-.93.049-1.856.073-.614.195-1.22a8 8 0 0 1 .976-2.149q1.95-2.253 4.932-1.855a7.3 7.3 0 0 1 2.49.976q.68.534 1.22 1.22 2.032-2.649 5.372-2.343"/></g><defs><linearGradient id="b" x1="13.55" x2="36.67" y1="2.783" y2="47.168" gradientUnits="userSpaceOnUse"><stop stop-color="#5328e1"/><stop offset="1" stop-color="#0f023a"/></linearGradient><clipPath id="a"><path fill="#fff" d="M0 0h50v50H0z"/></clipPath></defs></svg>