<svg xmlns="http://www.w3.org/2000/svg" width="50" height="50" fill="none" viewBox="0 0 50 50"><path fill="#3792cf" d="M34.4.28H2.1C1.09.28.28 1.09.28 2.1v45.79c0 1.01.81 1.82 1.82 1.82h32.3c1.01 0 1.83-.81 1.83-1.82V2.1c0-1.01-.82-1.82-1.83-1.82"/><circle cx="18.258" cy="18.352" r="11.517" fill="#fee36f"/><ellipse cx="18.258" cy="18.352" fill="#fee36f" rx="5.683" ry="11.517"/><path fill="#fee36f" d="M10.43 9.9c2.05 1.9 4.8 3.07 7.82 3.07s5.77-1.17 7.83-3.07a11.47 11.47 0 0 0-7.83-3.07c-3.02 0-5.77 1.16-7.82 3.07M10.43 26.8a11.43 11.43 0 0 1 7.82-3.07c3.02 0 5.77 1.16 7.83 3.07a11.5 11.5 0 0 1-7.83 3.06c-3.02 0-5.77-1.16-7.82-3.06"/><path fill="#f68c43" d="M47.79 12.64H36.23v24.71h11.56c1.06 0 1.92-.85 1.92-1.91V14.55c0-1.06-.86-1.91-1.92-1.91"/><path fill="#6ac9cc" d="M36.23 37.35v4.31h7.49c1.06 0 1.92-.86 1.92-1.92v-2.39z"/><path fill="#136296" d="M34.4 50H2.1C.94 50 0 49.05 0 47.89V2.1C0 .94.94 0 2.1 0h32.3c1.17 0 2.11.94 2.11 2.1v45.79c0 1.16-.94 2.11-2.11 2.11M2.1.56C1.25.56.56 1.25.56 2.1v45.79c0 .85.69 1.54 1.54 1.54h32.3c.86 0 1.55-.69 1.55-1.54V2.1c0-.85-.69-1.54-1.55-1.54z"/><path fill="#136296" d="M18.25 30.14c-6.5 0-11.79-5.29-11.79-11.79 0-6.51 5.29-11.8 11.79-11.8 6.51 0 11.8 5.29 11.8 11.8 0 6.5-5.29 11.79-11.8 11.79m0-23.03c-6.19 0-11.23 5.04-11.23 11.24 0 6.19 5.04 11.23 11.23 11.23 6.2 0 11.24-5.04 11.24-11.23 0-6.2-5.04-11.24-11.24-11.24"/><path fill="#136296" d="M29.77 18.63H6.74a.28.28 0 0 1-.28-.28c0-.16.12-.28.28-.28h23.03c.16 0 .28.12.28.28 0 .15-.12.28-.28.28"/><path fill="#136296" d="M18.25 30.14a.28.28 0 0 1-.28-.28V6.83c0-.16.13-.28.28-.28.16 0 .28.12.28.28v23.03c0 .16-.12.28-.28.28"/><path fill="#136296" d="M18.25 30.14c-3.29 0-5.96-5.29-5.96-11.79 0-6.51 2.67-11.8 5.96-11.8s5.97 5.29 5.97 11.8c0 6.5-2.68 11.79-5.97 11.79m0-23.03c-2.98 0-5.4 5.04-5.4 11.24 0 6.19 2.42 11.23 5.4 11.23s5.41-5.04 5.41-11.23c0-6.2-2.43-11.24-5.41-11.24"/><path fill="#136296" d="M18.25 13.25c-2.98 0-5.82-1.12-8.01-3.15a.25.25 0 0 1-.09-.2q0-.12.09-.21c2.19-2.02 5.03-3.14 8.01-3.14s5.83 1.12 8.02 3.14a.29.29 0 0 1 0 .42 11.8 11.8 0 0 1-8.02 3.14m-7.4-3.35c2.05 1.8 4.67 2.79 7.4 2.79 2.74 0 5.36-.99 7.41-2.79-2.05-1.8-4.67-2.79-7.41-2.79-2.73 0-5.35.99-7.4 2.79M18.25 30.14c-2.98 0-5.82-1.11-8.01-3.14a.27.27 0 0 1-.09-.21c0-.07.03-.15.09-.2 2.19-2.03 5.03-3.15 8.01-3.15s5.83 1.12 8.02 3.15c.06.05.09.13.09.2 0 .08-.03.16-.09.21a11.76 11.76 0 0 1-8.02 3.14m-7.4-3.34c2.05 1.79 4.67 2.78 7.4 2.78 2.74 0 5.36-.99 7.41-2.78-2.05-1.8-4.67-2.79-7.41-2.79-2.73 0-5.35.99-7.4 2.79M29.77 35.76H6.74c-.16 0-.28-.12-.28-.28 0-.15.12-.28.28-.28h23.03c.16 0 .28.13.28.28 0 .16-.12.28-.28.28"/><path fill="#fff" d="M7.72 41.38h-.98c-.16 0-.29-.13-.29-.28 0-.16.13-.28.29-.28h.98c.15 0 .28.12.28.28 0 .15-.13.28-.28.28M26.87 41.38h-1.91a.28.28 0 0 1-.28-.28c0-.16.12-.28.28-.28h1.91c.16 0 .28.12.28.28 0 .15-.12.28-.28.28m-3.83 0h-1.91a.28.28 0 0 1-.28-.28c0-.16.12-.28.28-.28h1.91c.16 0 .28.12.28.28 0 .15-.12.28-.28.28m-3.83 0H17.3c-.16 0-.29-.13-.29-.28 0-.16.13-.28.29-.28h1.91c.16 0 .28.12.28.28 0 .15-.12.28-.28.28m-3.83 0h-1.91c-.16 0-.29-.13-.29-.28 0-.16.13-.28.29-.28h1.91c.16 0 .28.12.28.28 0 .15-.12.28-.28.28m-3.83 0H9.63c-.15 0-.28-.13-.28-.28 0-.16.13-.28.28-.28h1.92a.28.28 0 1 1 0 .56M29.77 41.38h-.98a.28.28 0 0 1-.28-.28c0-.16.12-.28.28-.28h.98c.16 0 .28.12.28.28 0 .15-.12.28-.28.28M43.72 20.13h-7.49c-.15 0-.28-.13-.28-.28 0-.16.13-.29.28-.29h7.49c.16 0 .28.13.28.29 0 .15-.12.28-.28.28M46.72 17.22H36.23a.28.28 0 0 1-.28-.28c0-.15.13-.28.28-.28h10.49c.15 0 .28.13.28.28 0 .16-.13.28-.28.28M46.72 29.58H36.23a.28.28 0 0 1-.28-.28c0-.15.13-.28.28-.28h10.49c.15 0 .28.13.28.28 0 .16-.13.28-.28.28M46.72 32.2H36.23a.28.28 0 0 1-.28-.28c0-.15.13-.28.28-.28h10.49c.15 0 .28.13.28.28 0 .16-.13.28-.28.28"/><path fill="#136296" d="M43.72 41.94h-7.49a.28.28 0 0 1-.28-.28v-4.31c0-.15.13-.28.28-.28h9.41c.16 0 .28.13.28.28v2.39a2.2 2.2 0 0 1-2.2 2.2m-7.21-.56h7.21c.9 0 1.64-.73 1.64-1.64v-2.1h-8.85z"/><path fill="#136296" d="M47.79 37.64H36.23c-.15 0-.28-.13-.28-.29V12.64c0-.16.13-.29.28-.29h11.56c1.22 0 2.21.99 2.21 2.2v20.88a2.217 2.217 0 0 1-2.21 2.21m-11.28-.57h11.28c.91 0 1.64-.73 1.64-1.63V14.55c0-.9-.73-1.63-1.64-1.63H36.51z"/></svg>