<svg xmlns="http://www.w3.org/2000/svg" width="50" height="50" fill="none" viewBox="0 0 50 50"><path fill="#90e59a" d="M13.83 13.83c1.34-1.31 3.26-1.66 5.01-2.21 1.99-.11 3.99.5 5.81 1.32.78.31.74 1.23.91 1.93-.57.13-1.14.24-1.7.38.25-.39.49-.77.72-1.16-.01-.37-.45-.51-.67-.77l-.9.6-.62-.51c-.55.08-1.15.16-1.67-.14-.88-.39-1.82-.68-2.8-.59-.44.19-.79.53-1.15.82 0-.15.02-.46.02-.62q-.315.345-.6.72c-1.35.14-1.98 1.52-1.68 2.72-.29.22-.59.45-.87.67.31-.61.58-1.28.22-1.93-1.01.29-1.09 1.38-1.54 2.16-.48.86-1.28 1.51-1.66 2.41-.03.5.05.98.1 1.48-.38-.11-.76-.2-1.12-.31.94-2.54 2.09-5.15 4.19-6.97"/><path fill="#5cce74" d="M16.77 13.52c.38-.3.71-.65 1.15-.83.98-.09 1.92.21 2.8.6-.12.54-.31 1.07-.56 1.57-.76-.39-1.51-.81-2.22-1.26l.42.84c-.15.21-.33.42-.49.64-.31-.41-.62-.81-.92-1.23-.11.6-.57 1.05-1.2.71.14-.32.28-.64.42-.95.19-.25.4-.48.6-.71.02.14 0 .45 0 .62"/><path fill="#75d66f" d="M20.72 13.27c.52.3 1.11.22 1.67.14l.62.51.9-.6c.2.26.66.4.67.77-.22.39-.47.78-.72 1.16-.14.03-.43.09-.55.14.28.34.56.68.85 1.01-1.2.06-2.07-.75-2.98-1.34-.83.12-1.43 1.01-2.3 1.1-.42-.18-.82-.43-1.21-.68-.14.45-.24.92-.5 1.31-.4.26-.9.26-1.36.39.02.2.05.42.07.62-.49-.47-1.09-.9-1.78-.59.5.51-.26.71-.6.95-.68.37-1.44.85-1.51 1.69-.19.48.01 1.23-.54 1.49-.64.18-1.31.07-1.95.05.05-.15.12-.45.17-.61.38.11.76.21 1.12.32-.06-.5-.14-.98-.1-1.48.38-.9 1.19-1.56 1.66-2.41.45-.78.53-1.87 1.54-2.17.36.66.1 1.33-.22 1.93.28-.23.57-.45.87-.67-.3-1.19.33-2.58 1.68-2.72-.14.31-.28.64-.42.95.61.34 1.08-.11 1.19-.72.3.43.62.83.93 1.23.16-.21.32-.42.49-.63l-.43-.84c.73.45 1.47.85 2.22 1.26.21-.47.4-1 .52-1.56m-6.28 9.89c.35.07.68.13 1.03.21-.4 1.04-.95 2.1-.89 3.25.21.75.84 1.31 1.31 1.91-.69.2-1.65.05-2.12.69-.29 1.24.86 1.96 1.6 2.72-1.07-.39-2.27-.95-2.64-2.12.52-.63 1.16-1.15 1.84-1.65-.98-1.46-1.4-3.6-.13-5.01m10.91 2.63c.26.22.52.44.78.64.03.42.06.86.07 1.28-.44-.56-.83-1.17-.85-1.92m6.71.33c.27-.37.73-.34 1.01-.01.53.68.83 1.49 1.2 2.27l1.35.09c-.9.33-1.75.82-1.87 1.85-.38-.53.17-1.01.39-1.49-.5-1.04-1.73-1.57-2.08-2.71m-12.85.67.27-.14c.05.7.38 1.51-.14 2.1-.52-.05-1.02-.08-1.53-.17.68-.44 1.18-.98 1.4-1.79m6.99.93c.38.5.81.94 1.28 1.34.5-.57 1.62-1.49 2.08-.4-.76.35-1.7.62-1.95 1.52 0 .03-.02.08-.02.11.11.79.41 1.56.65 2.32-1.74-1.11-.7-3.49-2.04-4.89m9.42.22c.74.08 1.53.25 2.09.79-.7-.04-1.43-.01-2.09-.26zm-1.86 4.02c.9.38 1.78.8 2.73 1.12.53-.22 1.29-1.39 1.73-.53-.7.62-1.66 1.26-2.63 1.04-.76-.36-1.25-1.07-1.83-1.63m-24.99.13c.18.04.51.08.7.1.75 1.73.78 3.73 1.82 5.35.6.96 1.09 1.98 1.66 2.96.59 1.01 1.59 1.69 2.52 2.39 1.98 1.45 5.25 1.23 6.66-.9.89-1.9-.22-3.91-1-5.65-1.32-2.05-4.77-.5-4.67 1.74-.4-2.22 2.49-4.1 4.41-2.97 1.37.87 1.74 2.52 2.28 3.94.63 1.69-.3 3.7-1.92 4.45-1.26.79-2.8.48-4.21.48-1.92-.09-3.16-1.63-4.4-2.86-1.22-1.46-2-3.21-2.95-4.86-.5-1.32-.79-2.73-.9-4.17m10.21 5.7c.22.25.39.53.61.79-.53.69-1.4.66-2.17.55-.32-.35-.65-.69-.96-1.03.75.45 1.6 1.37 2.55.79-.03-.37-.03-.73-.03-1.1"/><path fill="#8fe772" d="M18.85 16.16c.87-.09 1.47-.98 2.3-1.1.93.61 1.79 1.4 2.98 1.34-.29-.34-.57-.69-.85-1.01.14-.04.42-.11.55-.14.56-.14 1.13-.25 1.7-.38.14.53.28 1.08.45 1.61-.26.26-.53.54-.82.8.59.8 1.12 1.64 1.71 2.43 1.21-.33 1.98.83 2.51 1.73-1.08-.06-2.31-.08-3.16-.86-.52-.46-1.02-.95-1.57-1.4l-1 .28c-.26-.64-.42-1.48-1.24-1.63.06.33.14.64.2.96-.48.28-1.02.41-1.57.25.22-.45.46-.88.69-1.34-.67-.06-1.07.52-1.45.97-.08-.23-.15-.47-.22-.7-.25-.03-.48-.09-.74-.11-.36.08-.5.59-.89.61-.65-.07-1.26-.33-1.93-.36-.78.11-1.52.45-2.29.67-.26-.2-.52-.41-.78-.61.35-.25 1.12-.43.6-.95.71-.31 1.29.13 1.78.59-.01-.2-.05-.42-.06-.62.46-.11.94-.12 1.35-.39.27-.39.37-.87.51-1.3.42.23.82.48 1.24.66"/><path fill="#a9f37e" d="M25.18 17.28c.27-.26.54-.54.82-.8.27.79.61 1.6 1.29 2.13 1.13.85 2.32 1.79 3.73 2.11 1.26.24 2.65.1 3.73-.62.95-.84 1.39-2.07 2.37-2.88.91.45 1.93.66 2.81 1.17.92.57 1.36 1.6 1.91 2.49-.6.11-1.18.23-1.78.36.22.37.46.76.69 1.13-.15.23-.31.47-.45.72-.3-.47-.59-.94-.87-1.4-.65.15-1.26.4-1.81.74l.19.89c-1.39-.7-2.87 0-4.11.69-.38.2-.77.43-1.15.63-.79-.42-1.56-.85-2.39-1.18-.33.53-.73 1.04-1.12 1.54-.14-.4-.3-.81-.43-1.23l-.56.08c-.07.58-.05 1.15.03 1.73-.38-.05-.77-.1-1.15-.14.17-.78.38-1.54.53-2.34-.19.02-.58.05-.77.06-.64.99-.67 2.17-.55 3.3-.27-.21-.52-.43-.77-.63.03-.81.14-1.61.2-2.42-.85-.35-1.19.61-1.35 1.23-.47-.15-.94-.29-1.4-.46-1.06-.33-1.75-1.25-2.77-1.65-.54-.22-.93-.66-1.34-1.05-.05.16-.14.47-.17.63.41.68.41 1.57-.4 1.99-.25-.03-.75-.09-1.02-.14.85.85 2.09 1.01 3.21 1.31l-.63.43c-1.07-.34-2.23-.37-3.24-.92-.03-.4-.08-.82-.11-1.23-.3-.06-.59-.1-.88-.17-.35-.06-.68-.12-1.03-.2-.25-.3-.53-.81-.99-.54-.36.32-.66.71-1.01 1.07-.2-.28-.42-.56-.63-.84-1.54.19-1.41 2.02-2.41 2.85-.63.45-.59 1.3-1.18 1.8-.08-.7-.12-1.38-.04-2.08.31-1.23.86-2.38 1.18-3.63.03-.09.08-.29.11-.4.64.03 1.32.12 1.95-.05.55-.26.33-1.01.53-1.49.1-.84.84-1.33 1.52-1.7.25.2.52.41.77.61.77-.24 1.51-.56 2.3-.67.66.03 1.27.29 1.92.36.39-.02.52-.53.89-.61.26.02.49.08.74.11.08.23.16.47.23.7.39-.45.77-1.03 1.44-.97-.23.46-.45.89-.69 1.34.55.16 1.09.02 1.58-.25-.08-.32-.15-.63-.21-.96.82.14.98.98 1.24 1.63l1-.28c.53.45 1.05.94 1.57 1.4.85.78 2.08.8 3.17.86-.52-.89-1.31-2.06-2.52-1.73-.59-.79-1.14-1.63-1.72-2.43"/><path fill="#87de71" d="M40.08 21.24c.59-.13 1.18-.24 1.77-.36.19.4.35.81.51 1.21-1.64 1.62-4.05 2.04-6.2 2.54-.9.26-1.74-.2-2.48-.62 1.25-.67 2.73-1.39 4.11-.69l-.19-.89c.57-.34 1.18-.59 1.81-.74.29.46.59.93.87 1.4.14-.24.3-.49.46-.72-.21-.37-.44-.76-.66-1.13"/><path fill="none" d="M19.59 38.58c-.22-.25-.39-.54-.61-.79 0 .37.01.73.03 1.1-.95.58-1.8-.34-2.55-.79.31.34.64.67.96 1.03.77.11 1.64.14 2.17-.55M11.86 29.75c-.58-.67-1.57-.36-2.36-.47-.85.05-2.21-.14-2.54.89 1.55.04 3.09.06 4.63.14.08-.14.21-.42.27-.56M29.24 27.63c.85 1.37 2.52 1.2 3.92 1.17-.58-.55-1.29-.97-1.78-1.61-.28-.26-.39-.79-.83-.84-.85.11-1.7.24-2.57.21h-.94c-.05.51-.05 1.02-.05 1.54.21.11.63.32.84.45.28-.55.85-.76 1.41-.92M6.41 29.26l-.06-.17c-.03.06-.08.19-.1.25l-.17.2c-.03.03-.09.11-.11.14-.41.35-.33.87-.38 1.34.07.11.21.34.27.47.71.42.57-1.12.08-1.15.3-.36.63-.7.72-1.17z"/><path fill="none" d="M8.77 32.09c.11 1.42.4 2.85.89 4.19.94 1.63 1.73 3.38 2.94 4.85 1.26 1.23 2.5 2.77 4.41 2.87 1.4 0 2.96.31 4.2-.49 1.62-.74 2.55-2.75 1.92-4.45-.53-1.4-.93-3.06-2.28-3.93-1.92-1.14-4.8.75-4.41 2.97-.09-2.24 3.36-3.8 4.68-1.74.77 1.72 1.87 3.75.99 5.65-1.42 2.13-4.68 2.34-6.66.9-.93-.7-1.92-1.39-2.52-2.4-.57-.96-1.07-1.99-1.65-2.95-1.03-1.64-1.07-3.63-1.83-5.36-.17-.03-.5-.07-.68-.11M7.34 30.99c.05.11.16.33.22.44 1.69.17 3.37.04 5.06.04-.07-.08-.19-.22-.27-.29-1.67-.07-3.34-.45-5.01-.19M33.07 26.11c-.28-.33-.74-.36-1.01.01.35 1.12 1.58 1.67 2.08 2.71-.22.46-.77.96-.39 1.49.14-1.01.99-1.52 1.87-1.85l-1.35-.09c-.37-.78-.68-1.59-1.2-2.27M4.44 28.97c-.17.39-.37.79-.58 1.16.17.5.44.97.76 1.39.09-.05.28-.13.36-.16-.68-.77-.14-1.71.3-2.45-.28.04-.57.06-.84.06M37.71 28.73c-.55-.52-1.32-.7-2.07-.77h-.02v.51c.66.25 1.39.22 2.09.26M13.54 27.91c-.64-1.01-.86-2.19-.47-3.34-.28.07-.56.14-.85.2-.63 1.1-1.48 2.24-1.29 3.58.88 0 1.8-.02 2.61-.44M3.88 28.61c-.54.09-1.07.11-1.61.03-.31.55-.72 1.04-1.29 1.35-.57.35-.31 1.14-.22 1.67 1.01.19 2.05.12 3.07.17-.25-.58-.6-1.12-.74-1.73-.08-.63.76-.88.79-1.49M17.56 27.51c.06-.36.16-.74.24-1.09-.59-.55-1.47-.53-2.19-.73-.21.98.01 1.96.6 2.76.42-.32.86-.68 1.35-.94M38.36 30.91c-1.54.27-3.12.08-4.66.28-1.65-.32-3.34-.37-5.02-.25l.04.63c1.66-.11 3.34.06 4.98-.28 1.43.31 2.9.18 4.34.09.74-.08 1.42.37 2.15.29.14-.99-1.2-.71-1.83-.76M34.8 29.65c-.06.11-.19.34-.25.47.93.28 1.92.11 2.86.23 1.23.17 2.56.31 3.7-.26-.39-.25-.75-.62-1.22-.72-1.7-.09-3.4.13-5.09.28M36.49 33.08c-.93-.32-1.83-.72-2.73-1.13.58.56 1.07 1.28 1.81 1.64.98.22 1.94-.42 2.63-1.04-.42-.86-1.18.31-1.71.53M30.05 29.57c-.38.1-1.2-.03-1.11.61 1.07.06 2.16.06 3.23.03.44.02.63-.2.58-.65-.89 0-1.81-.05-2.7.01M42.59 29.33c-.04.37-.07.74-.11 1.12-.15.09-.45.28-.59.38 0 .35-.04.7-.05 1.05 1.31-.03 2.5-.58 3.78-.83.2-.4.08-.85.08-1.29-1.06-.09-2.05-.48-3.11-.43M19.48 26.67l-.27.14c-.22.8-.72 1.35-1.4 1.78.51.1 1.01.13 1.53.18.52-.61.19-1.42.14-2.1M25.95 28.94c-.3-.73-.58-1.54-1.23-2.04-1.37.06-2.74.01-4.11.06-.17.64-.39 1.25-.52 1.9 1.94.17 3.91.09 5.86.08"/><path fill="none" d="M27.61 30.18c.25-.9 1.19-1.17 1.95-1.52-.47-1.11-1.58-.17-2.08.4-.38-.33-.72-.68-1.04-1.06.98 1.42.19 3.58 1.8 4.62-.24-.76-.52-1.52-.65-2.31zM17.87 30.2c.95-.28 1.85.34 2.79.34 1.81.05 3.62.05 5.43-.03-.01-.2-.04-.62-.06-.83-2.41 0-4.9-.35-7.24.31-.66-.01-1.28-.31-1.92-.42-.44-.59-1.59-.17-2.32-.34.11.33.21.67.3 1 .58.01 1.18.03 1.77.03.37.4.85-.03 1.25-.06M15.73 31.15c.15.18.29.38.43.57.57.02 1.15.03 1.71.06 2.73.02 5.44.07 8.16-.03.05-.09.14-.26.21-.34-2.79-.19-5.58-.22-8.37-.26-.7.01-1.41.01-2.14 0"/><path fill="#fbfdfc" d="m28.17 17.6-.03.18c1.35 1.34 3.37 2.16 5.26 1.62.72-.39 1.45-.87 1.79-1.63 1.19-2.41 1.39-5.26.59-7.81-.73-.52-1.42-1.11-1.85-1.89-.86-1.18-2.29-2.42-3.87-1.86-1.6.22-2.74 1.62-3.18 3.08-.6 1.86-.8 3.98.02 5.82.15.91.33 2.05 1.27 2.49m3.03-4.59c.34 1.01-.23 2.41-1.48 2.42-.57-.39-1.36-.74-1.23-1.55-.22-1.5 1.82-1.45 2.71-.87M41.79 18.89c.73-.77 1.61-1.36 2.38-2.06 1.32-1.91 2.44-4.45 1.43-6.75-.34-1.52-2.14-2.05-3.54-1.88-1.84.31-3.87.96-4.85 2.69.03 1.68.3 3.36-.05 5.03 1.8.46 3.75 1.24 4.63 2.97m1.32-7.08c.37-.08.74-.17 1.11-.28.41.62.39 1.51.17 2.19-.72.7-1.76-.01-2.06-.78.26-.39.53-.76.78-1.13"/><path fill="none" d="M41.79 18.89c.73-.77 1.61-1.36 2.38-2.06 1.32-1.91 2.44-4.45 1.43-6.75-.34-1.52-2.14-2.05-3.54-1.88-1.84.31-3.87.96-4.85 2.69.03 1.68.3 3.36-.05 5.03 1.8.46 3.75 1.24 4.63 2.97m1.32-7.08c.37-.08.74-.17 1.11-.28.41.62.39 1.51.17 2.19-.72.7-1.76-.01-2.06-.78.26-.39.53-.76.78-1.13M11.61 30.31l.25-.56c-.58-.67-1.57-.36-2.36-.47-.66.05-1.61-.06-2.16.36v.54c1.42.03 2.85.06 4.27.13M13.07 24.57c-.28.07-.56.14-.85.2-.63 1.1-1.48 2.24-1.29 3.58.9 0 1.81-.02 2.61-.44-.64-1.01-.86-2.19-.47-3.34"/><path fill="none" d="M13.77 29.2c.47-.64 1.41-.48 2.12-.68-.47-.61-1.12-1.15-1.31-1.92-.06-1.13.49-2.19.89-3.25.29.06.58.11.88.17.04.41.08.81.11 1.23 1.01.55 2.17.58 3.24.92 1.48.48 3.07.31 4.57-.03-.03-.34-.05-.69-.05-1.03.16-.62.5-1.59 1.35-1.23-.07.81-.17 1.61-.2 2.41.02.74.39 1.36.85 1.92-.02-.42-.05-.86-.08-1.28-.12-1.12-.09-2.32.55-3.3.19-.01.58-.04.77-.06-.15.78-.36 1.56-.53 2.34.38.04.77.09 1.15.14 1.54.17 3.1-.22 4.47-.94.39-.2.77-.42 1.15-.64.74.44 1.57.89 2.47.63 2.16-.5 4.57-.92 6.2-2.54-.12-.33-.26-.65-.4-.98l-.1-.23c-.53-.89-.98-1.92-1.9-2.49-.89-.52-1.91-.73-2.82-1.17-.98.81-1.44 2.04-2.36 2.88-1.09.71-2.48.85-3.74.62-1.43-.33-2.59-1.26-3.73-2.11-.69-.53-1.04-1.34-1.29-2.14-.16-.52-.31-1.05-.46-1.6-.17-.68-.12-1.6-.91-1.93l-.09-.04c-1.78-.81-3.74-1.4-5.72-1.3-1.73.53-3.65.91-5.01 2.21-2.09 1.82-3.26 4.42-4.18 6.97-.05.16-.13.45-.18.61-.03.11-.08.3-.11.4-.31 1.23-.86 2.4-1.18 3.63-.08.7-.03 1.4.05 2.08 0 .13.01.39.03.53.43 0 .85.02 1.28.03.88-1.5 1.44-3.26 2.91-4.37.34-.34.64-.73 1.01-1.07.45-.25.75.26.99.54-1.28 1.4-.85 3.55.14 5-.66.48-1.32.99-1.84 1.65.36 1.16 1.56 1.72 2.64 2.11-.77-.73-1.92-1.44-1.63-2.69"/><path fill="none" d="M24.71 26.9c-1.37.06-2.74.01-4.11.06-.17.64-.39 1.25-.52 1.9 1.95.17 3.92.11 5.87.08-.3-.73-.58-1.54-1.24-2.04M19.59 38.58c-.22-.25-.39-.54-.61-.79 0 .37.01.73.03 1.1-.95.58-1.8-.34-2.55-.79.31.34.64.67.96 1.03.77.11 1.64.14 2.17-.55M12.62 31.47c-.07-.08-.19-.22-.27-.29-1.67-.07-3.34-.45-5.01-.19.05.11.16.33.22.44 1.67.17 3.37.04 5.06.04"/><path fill="none" d="M8.77 32.09c.11 1.42.4 2.85.89 4.19.94 1.63 1.73 3.38 2.94 4.85 1.26 1.23 2.5 2.77 4.41 2.87 1.4 0 2.96.31 4.2-.49 1.62-.74 2.55-2.75 1.92-4.45-.53-1.4-.93-3.06-2.28-3.93-1.92-1.14-4.8.75-4.41 2.97-.09-2.24 3.36-3.8 4.68-1.74.77 1.72 1.87 3.75.99 5.65-1.42 2.13-4.68 2.34-6.66.9-.93-.7-1.92-1.39-2.52-2.4-.57-.96-1.07-1.99-1.65-2.95-1.03-1.64-1.07-3.63-1.83-5.36-.17-.03-.5-.07-.68-.11M30.05 29.57c-.38.1-1.2-.03-1.11.61 1.07.06 2.16.06 3.23.03.44.02.63-.2.58-.65-.89 0-1.81-.05-2.7.01M31.38 27.19c-.28-.26-.39-.79-.83-.84-.85.11-1.7.24-2.57.21h-.94c-.05.51-.05 1.02-.05 1.54.21.11.63.32.84.45.29-.55.86-.76 1.43-.92.85 1.37 2.52 1.2 3.92 1.17-.6-.55-1.31-.98-1.8-1.61M28.17 17.6l-.03.18c1.35 1.34 3.37 2.16 5.26 1.62.72-.39 1.45-.87 1.79-1.63 1.19-2.41 1.39-5.26.59-7.81-.73-.52-1.42-1.11-1.85-1.89-.86-1.18-2.29-2.42-3.87-1.86-1.6.22-2.74 1.62-3.18 3.08-.6 1.86-.8 3.98.02 5.82.15.91.33 2.05 1.27 2.49m3.03-4.59c.34 1.01-.23 2.41-1.48 2.42-.57-.39-1.36-.74-1.23-1.55-.22-1.5 1.82-1.45 2.71-.87M34.8 29.65c-.06.11-.19.34-.25.47.93.28 1.92.11 2.86.23 1.23.17 2.56.31 3.7-.26-.39-.25-.75-.62-1.22-.72-1.7-.09-3.4.13-5.09.28M38.36 30.91c-1.54.27-3.12.08-4.66.28-1.65-.32-3.34-.37-5.02-.25l.04.63c1.66-.11 3.34.06 4.98-.28 1.43.31 2.9.18 4.34.09.74-.08 1.42.37 2.15.29.14-.99-1.2-.71-1.83-.76M36.49 33.08c-.93-.32-1.83-.72-2.73-1.13.58.56 1.07 1.28 1.81 1.64.98.22 1.94-.42 2.63-1.04-.42-.86-1.18.31-1.71.53M42.59 29.33c-.04.37-.07.74-.11 1.12-.15.09-.45.28-.59.38 0 .35-.04.7-.05 1.05 1.31-.03 2.5-.58 3.78-.83.2-.4.08-.85.08-1.29-1.06-.09-2.05-.48-3.11-.43"/><path fill="none" d="M33.07 26.11c-.28-.33-.74-.36-1.01.01.35 1.12 1.58 1.67 2.08 2.71-.22.46-.77.96-.39 1.49.14-1.01.99-1.52 1.87-1.85l-1.35-.09c-.37-.78-.68-1.59-1.2-2.27M17.87 30.2c.95-.28 1.85.34 2.79.34 1.81.05 3.62.05 5.43-.03-.01-.2-.04-.62-.06-.83-2.41 0-4.9-.35-7.24.31-.66-.01-1.28-.31-1.92-.42-.44-.59-1.59-.17-2.32-.34.11.33.21.67.3 1 .58.01 1.18.03 1.77.03.37.4.85-.03 1.25-.06M15.73 31.15c.15.18.29.38.43.57.57.02 1.15.03 1.71.06 2.73.02 5.44.07 8.16-.03.05-.09.14-.26.21-.34-2.79-.19-5.58-.22-8.37-.26-.7.01-1.41.01-2.14 0M16.19 28.47c.44-.34.88-.68 1.35-.95.07-.36.16-.73.24-1.09-.58-.54-1.46-.53-2.19-.73-.19.97.03 1.95.6 2.77M17.81 28.58c.51.09 1.01.12 1.53.17.52-.59.19-1.4.14-2.1l-.27.14c-.22.81-.72 1.35-1.4 1.79M27.61 30.18c.25-.9 1.19-1.17 1.95-1.52-.47-1.11-1.58-.17-2.08.4-.38-.33-.72-.68-1.04-1.06.98 1.42.19 3.58 1.8 4.62-.24-.76-.52-1.52-.65-2.31z"/><path fill="#fff" d="M4.44 28.97c-.17.39-.37.79-.58 1.16.17.5.44.97.76 1.39.09-.05.28-.13.36-.16-.68-.77-.14-1.71.3-2.45-.28.04-.57.06-.84.06M6.41 29.26l-.06-.17c-.03.06-.08.19-.1.25l-.17.2c-.03.03-.09.11-.11.14-.41.35-.33.87-.38 1.34.07.11.21.34.27.47.71.42.57-1.12.08-1.15.3-.36.63-.7.72-1.17z"/><path fill="#231f20" d="M29.72 15.43c1.25 0 1.81-1.41 1.48-2.42-.89-.58-2.92-.63-2.71.85-.13.81.66 1.18 1.23 1.57M44.39 13.71c.22-.69.24-1.58-.17-2.2-.37.11-.73.2-1.11.28-.26.38-.52.75-.78 1.12.3.78 1.32 1.5 2.06.8"/><path fill="#231f20" d="M43.7 28.75c-1.62-.28-3.26-.02-4.88-.05-.73-.48-1.44-1.04-2.33-1.1-.29.12-.57.23-.85.34.74.08 1.51.25 2.07.78-.7-.05-1.43-.02-2.09-.27-.9.33-1.75.83-1.87 1.86-.38-.53.17-1.02.39-1.5-.5-1.04-1.72-1.58-2.08-2.7.27-.38.73-.35 1.01-.02.53.68.83 1.49 1.2 2.27l1.35.09.02-.51c-.23.09-.48.19-.7.3-.39-.86-.72-1.73-1.01-2.62.54.13 1.06.31 1.6.42 2.45-.37 5.08-.85 7-2.53.41-.41 1.14-.77 1.01-1.43-.05-.35-.16-.67-.32-.97-.26-.56-.64-1.07-.88-1.66.55-.21 1.12-.41 1.66-.66 1.92-1.85 2.88-4.49 3.08-7.11-.19-1.38-.58-2.91-1.67-3.89-1.98-.98-4.31-.66-6.33.05-.91.36-1.57 1.09-2.34 1.68-.62-.14-.99-.84-1.4-1.31-.79-1.32-1.86-2.53-3.33-3.11-1.22-.04-2.63-.37-3.68.41-.54.34-1.13.65-1.51 1.2-.85 1.57-1.34 3.31-1.48 5.07-.27-.11-.54-.21-.81-.31-1.87-.69-3.82-1.16-5.82-1.09-1.39.26-2.74.67-4.03 1.24-2.63 1.35-4.3 4-5.28 6.69-.59 1.18-1.02 2.43-1.26 3.72-.22 1.17-.67 2.3-.74 3.5 0 .81.07 1.62.05 2.43-.03.01-.08.04-.11.06-.85.47-1.86.45-2.8.61-.71-.02-1.39-.36-2.1-.16-.75.36-1.57.56-2.33.9-.17 1.06-.34 2.52.95 2.93h1.38c1.64 0 3.26.01 4.9.03h.38c.39 2.02.79 4.11 1.87 5.89 1.28 2.04 2.54 4.17 4.47 5.67 1.86 1.23 4.21 1.27 6.33.9.81-.09 1.37-.72 2.1-1.01.44-.27 1.1-.33 1.26-.89 1.45-2.33.34-5.21-.98-7.34-.83-1.46-2.66-1.76-4.2-1.7-.92.14-1.48.91-2.22 1.37-.81.48-1.59 1.51-.98 2.44.52.98 1.17 2.29 2.49 2.21.83-.09 1.94-.28 2.3-1.13.16-1.04-1.09-1.54-1.92-1.73.04.51.09 1.01.14 1.53-.43-.3-.87-.58-1.31-.88.27-1.36 1.81-1.33 2.88-1.75 1.09 1.66 2.22 3.81 1.34 5.8-1.02 1.26-2.86 1.1-4.28.78-1.86-.28-3.1-1.93-3.92-3.47-1.25-2.13-2.76-4.42-2.49-6.99.87-.01 1.75-.08 2.6.02.83.18 1.57.9 2.47.56 1.92-.52 3.92-.2 5.89-.24 1.54-.07 3.1-.15 4.64-.06.56.16.87.83 1.52.78.74.25 1.16-.51 1.71-.82 1.25-.05 2.51-.08 3.73 0 .59 1.01 1.47 2.1 2.73 2.25 1.52.06 2.83-1.01 3.65-2.19 1.09.25 2.25.57 3.31.04 2.28-.94 4.8-.94 7.15-1.61v-.67c-1.85-1.15-4.18-.81-6.3-1.34m-10.54.05c-1.4.03-3.07.2-3.92-1.17-.56.16-1.13.37-1.43.92-.2-.11-.63-.34-.83-.45 0-.52 0-1.03.04-1.54h.95c.86.04 1.71-.1 2.56-.21.44.05.56.58.84.84.5.63 1.21 1.06 1.79 1.61m-.99 1.41c-1.08.03-2.16.03-3.23-.03-.11-.64.71-.51 1.11-.61.91-.06 1.81-.01 2.72-.01.03.45-.16.67-.6.65m5.04-19.3c.98-1.73 3.01-2.38 4.85-2.7 1.4-.17 3.18.36 3.54 1.89 1.01 2.28-.11 4.82-1.43 6.75-.77.71-1.65 1.29-2.38 2.05-.88-1.74-2.83-2.52-4.63-2.95.33-1.68.08-3.38.05-5.04M26.88 9.29c.44-1.46 1.58-2.87 3.18-3.08 1.58-.56 3.02.68 3.87 1.86.45.8 1.12 1.37 1.85 1.89.8 2.55.6 5.4-.59 7.81-.34.77-1.08 1.24-1.79 1.63-1.91.54-3.91-.28-5.26-1.62l.03-.18c-.96-.44-1.12-1.59-1.29-2.49-.8-1.84-.6-3.96 0-5.82M2.44 31.8c-.56-.02-1.11-.05-1.68-.14-.09-.53-.33-1.31.22-1.67.57-.31.96-.8 1.29-1.35.06.02.11.02.17.02.48.06.96.04 1.44-.05-.05.61-.88.87-.77 1.49.14.61.48 1.15.74 1.73-.48-.02-.93-.03-1.41-.03m2.54-.42c-.1.05-.28.12-.36.15-.32-.43-.57-.88-.76-1.38.22-.37.41-.78.58-1.17.27-.01.56-.03.82-.06-.42.75-.96 1.67-.28 2.46m.85.09c-.06-.11-.2-.34-.27-.46.05-.47-.03-1 .38-1.34.03-.03.08-.1.11-.14l.17-.2c.03-.07.08-.19.1-.25l.06.17.22-.1c-.08.47-.42.81-.72 1.17.53.03.66 1.57-.05 1.15m1.15-1.3c.08-.24.2-.41.36-.53.55-.42 1.5-.31 2.16-.36.79.11 1.76-.2 2.36.47l-.25.56c-1.42-.07-2.85-.1-4.27-.13-.12 0-.24 0-.36-.01m6.56-2.26c-.81.42-1.73.44-2.61.44-.19-1.34.66-2.48 1.29-3.58.29-.06.57-.13.85-.2-.39 1.15-.17 2.33.47 3.34m-2.26 9.65c.6.96 1.08 1.97 1.65 2.95.6 1.01 1.59 1.7 2.52 2.4 1.98 1.44 5.26 1.23 6.66-.9.9-1.9-.22-3.91-.99-5.65-1.32-2.06-4.77-.5-4.68 1.74.76.45 1.61 1.37 2.55.79-.01-.35-.03-.73-.03-1.1.22.25.39.53.62.79-.54.69-1.41.66-2.18.55-.31-.35-.64-.69-.96-1.03-.39-2.22 2.49-4.11 4.41-2.97 1.37.87 1.75 2.52 2.28 3.93.63 1.7-.3 3.71-1.92 4.45-1.26.8-2.8.49-4.2.49-1.92-.1-3.17-1.64-4.41-2.87-1.21-1.46-2-3.2-2.94-4.85-.49-1.34-.78-2.77-.89-4.19.18.04.51.08.7.1.74 1.74.78 3.73 1.81 5.37m-3.72-6.13c-.06-.11-.16-.33-.22-.44 1.67-.26 3.34.12 5.01.19.06.07.19.21.27.29-1.69 0-3.39.13-5.06-.04m5.18-1.62c.52-.64 1.17-1.15 1.84-1.65-.97-1.45-1.41-3.59-.14-5-.25-.29-.53-.8-.99-.54-.36.33-.66.72-1.01 1.07-1.46 1.11-2.03 2.87-2.91 4.38-.43-.02-.85-.04-1.28-.04 0-.12-.01-.38-.03-.52-.08-.7-.12-1.39-.04-2.09.31-1.23.86-2.38 1.18-3.62.03-.1.08-.3.11-.41.04-.15.12-.45.17-.61.94-2.53 2.11-5.13 4.19-6.97 1.34-1.3 3.26-1.66 5.01-2.2 1.96-.11 3.93.48 5.71 1.29l.1.04c.78.31.74 1.23.91 1.93.14.53.28 1.08.46 1.61.26.79.61 1.6 1.29 2.13 1.13.85 2.31 1.79 3.73 2.11 1.26.24 2.64.1 3.73-.62.94-.84 1.38-2.07 2.36-2.88.91.45 1.94.66 2.82 1.17.91.57 1.35 1.6 1.9 2.49l.1.23c.14.33.27.65.41.98-1.64 1.62-4.05 2.04-6.21 2.54-.89.26-1.73-.2-2.47-.62-.37.2-.77.43-1.15.63-1.35.72-2.92 1.11-4.47.94-.38-.05-.77-.1-1.15-.14.18-.78.38-1.54.54-2.34-.19.02-.58.05-.77.06-.65.99-.68 2.17-.55 3.3.03.42.06.86.07 1.28-.45-.56-.83-1.18-.85-1.91.04-.81.15-1.61.21-2.42-.85-.35-1.2.61-1.36 1.23 0 .35.04.69.05 1.03-1.49.34-3.08.51-4.56.03-1.08-.34-2.24-.37-3.25-.92-.03-.4-.08-.82-.11-1.23-.3-.06-.58-.1-.88-.17-.39 1.05-.94 2.1-.88 3.25.2.75.83 1.31 1.31 1.92-.7.2-1.66.04-2.13.68-.28 1.25.87 1.96 1.61 2.72-1.06-.42-2.26-.98-2.62-2.14m13.21-.87c-1.95.03-3.92.09-5.87-.08.13-.64.35-1.26.52-1.9 1.37-.05 2.74 0 4.11-.06.66.5.94 1.31 1.24 2.04m-6.61-.19c-.52-.05-1.02-.08-1.53-.17.68-.45 1.18-1 1.4-1.79l.27-.14c.05.7.38 1.51-.14 2.1m-1.54-2.33c-.1.35-.18.71-.24 1.09-.49.26-.93.62-1.35.94-.57-.82-.79-1.78-.6-2.76.72.21 1.6.18 2.19.73m-2.93 3.82c-.1-.32-.19-.67-.3-.99.72.17 1.87-.25 2.31.34.65.11 1.26.4 1.92.42 2.35-.68 4.84-.31 7.25-.31.01.2.04.62.06.82q-2.715.105-5.43.03c-.95 0-1.84-.62-2.79-.34-.41.03-.88.47-1.24.1-.62-.04-1.2-.05-1.78-.07m11.16 1.51c-2.72.1-5.43.05-8.16.03-.56-.01-1.14-.04-1.71-.06-.14-.19-.28-.39-.43-.57.71 0 1.42.01 2.14 0 2.79.03 5.58.07 8.37.26-.07.09-.16.26-.21.34m.41-3.76c.32.39.66.73 1.04 1.06.5-.58 1.62-1.5 2.08-.41-.76.36-1.7.62-1.95 1.53l-.02.1c.11.8.41 1.56.65 2.32-1.63-1.02-.82-3.17-1.8-4.6m9.15 5.6c-.76-.36-1.23-1.08-1.81-1.64.89.39 1.78.81 2.72 1.13.54-.22 1.29-1.39 1.73-.53-.71.62-1.67 1.26-2.64 1.04m4.6-1.92c-.73.1-1.41-.35-2.15-.29-1.44.09-2.91.22-4.34-.09-1.64.34-3.32.18-4.98.28l-.04-.63c1.68-.14 3.37-.07 5.02.25 1.54-.2 3.12-.01 4.66-.28.63.05 1.97-.23 1.83.76m-2.78-1.32c-.94-.12-1.93.05-2.86-.23.06-.11.19-.34.25-.47 1.69-.14 3.37-.37 5.09-.28.47.1.83.47 1.22.72-1.14.56-2.47.42-3.7.26m8.21.7c-1.28.24-2.47.8-3.78.83.03-.35.05-.7.05-1.05.14-.09.44-.29.59-.38.04-.38.08-.75.11-1.12 1.06-.05 2.05.34 3.09.45.02.4.14.87-.06 1.27"/><path fill="#97eb74" d="M18.71 21.47c.41.39.8.82 1.34 1.04 1.01.39 1.71 1.32 2.77 1.65-.1.16-.19.33-.28.48-1.44-.45-2.96-.11-4.4-.56.81-.42.81-1.3.4-1.99.03-.15.12-.47.17-.62"/><path fill="#84cb71" d="M9.39 25.7c.99-.82.86-2.66 2.41-2.85.22.28.42.56.63.84-1.47 1.11-2.03 2.87-2.92 4.38-.42-.02-.85-.04-1.27-.04 0-.12-.02-.38-.03-.52.58-.5.55-1.36 1.18-1.81"/><path fill="#6cb960" d="M30.14 23.46c.83.33 1.61.76 2.39 1.18-1.35.72-2.92 1.11-4.47.94-.08-.58-.09-1.15-.03-1.73.14-.02.43-.05.57-.08.14.41.28.81.42 1.23.4-.5.77-1.01 1.12-1.54"/><path fill="#77c66c" d="M17.12 23.94c.25.03.75.1 1.02.14 1.44.45 2.96.11 4.4.56.09-.15.18-.32.28-.48.47.17.93.31 1.4.47 0 .34.03.68.05 1.02-1.5.35-3.09.52-4.57.04l.63-.44c-1.12-.3-2.36-.45-3.21-1.31"/><path fill="#d07b84" d="M2.29 28.64c.53.08 1.07.08 1.6-.03-.04.61-.88.87-.77 1.49.14.61.49 1.15.74 1.73-1.02-.05-2.06.02-3.07-.17-.09-.53-.33-1.31.22-1.67.55-.32.95-.8 1.28-1.35"/><path fill="#fefefe" d="M42.59 29.33c1.06-.05 2.05.34 3.09.45 0 .42.13.88-.08 1.29-1.27.23-2.47.79-3.78.82.03-.34.05-.7.05-1.04.14-.09.44-.3.6-.39.05-.39.09-.76.12-1.13"/><path fill="#e1cb86" d="M14.57 29.25c.72.17 1.87-.25 2.31.34l-.5-.06c.08.25.16.51.25.76-.58 0-1.18-.03-1.76-.03-.1-.34-.21-.69-.3-1.01m-7.23 1.74c1.67-.26 3.34.12 5.01.19.06.07.19.21.27.29-1.69 0-3.39.13-5.06-.04a9 9 0 0 1-.22-.44"/><path fill="#ddc377" d="M6.98 30.17c.31-1.03 1.67-.84 2.53-.89.79.11 1.77-.2 2.37.47l-.26.56c-1.55-.08-3.1-.1-4.64-.14m10.89.99c2.79.03 5.58.08 8.37.27-.05.09-.16.26-.21.34-2.72.09-5.43.04-8.16.03z"/><path fill="#dcc576" d="m16.38 29.53.5.06c.65.11 1.26.4 1.92.42 2.35-.68 4.84-.31 7.25-.31.01.2.04.62.06.82q-2.715.105-5.43.03c-.95 0-1.84-.62-2.79-.34-.41.03-.88.47-1.24.1-.11-.28-.19-.53-.27-.78m-.65 1.62c.71 0 1.42.01 2.14 0v.63c-.56-.01-1.14-.04-1.71-.06-.14-.19-.28-.37-.43-.57"/><path fill="#f5d776" d="M28.94 30.18c-.11-.64.71-.51 1.11-.61.91-.06 1.81-.01 2.72-.01.05.45-.14.67-.58.65-1.09.03-2.18.03-3.25-.03m5.86-.53c1.69-.14 3.37-.37 5.09-.28.47.1.83.47 1.22.72-1.14.56-2.45.43-3.7.26-.94-.12-1.93.05-2.86-.23.06-.13.19-.36.25-.47m-6.12 1.31c1.68-.14 3.37-.08 5.02.25 1.54-.2 3.12-.02 4.66-.28.64.04 1.98-.24 1.83.76-.73.09-1.41-.36-2.15-.3-1.44.1-2.91.22-4.34-.09-1.64.34-3.32.19-4.98.28z"/><path fill="#959d64" d="M27.59 30.29c0-.03.02-.08.02-.11z"/></svg>