<svg xmlns="http://www.w3.org/2000/svg" width="50" height="50" fill="none" viewBox="0 0 50 50"><defs><radialGradient id="a" cx="0" cy="0" r="1" gradientTransform="matrix(25 0 0 25 25.925 26.028)" gradientUnits="userSpaceOnUse"><stop offset=".99" stop-color="#fff"/><stop offset=".995" stop-color="#fdfdfd"/><stop offset=".997" stop-color="#f6f6f6"/><stop offset=".998" stop-color="#ebebeb"/><stop offset=".999" stop-color="#dadada"/><stop offset="1" stop-color="#c7c7c7"/></radialGradient><radialGradient id="b" cx="0" cy="0" r="1" gradientTransform="translate(25.925 26.028)scale(22.833)" gradientUnits="userSpaceOnUse"><stop offset=".99" stop-opacity=".498"/><stop offset="1" stop-opacity="0"/></radialGradient><radialGradient id="d" cx="0" cy="0" r="1" gradientTransform="translate(25.925 26.028)scale(22.833)" gradientUnits="userSpaceOnUse"><stop offset=".99" stop-opacity=".498"/><stop offset="1" stop-opacity="0"/></radialGradient><radialGradient id="f" cx="0" cy="0" r="1" gradientTransform="translate(25 25.078)scale(22.6445)" gradientUnits="userSpaceOnUse"><stop/><stop offset="1" stop-color="#322f32"/></radialGradient><radialGradient id="g" cx="0" cy="0" r="1" gradientTransform="matrix(18.1967 0 0 19.9636 29.361 24.034)" gradientUnits="userSpaceOnUse"><stop stop-color="#c2c0c2"/><stop offset="1" stop-color="#ebebeb"/></radialGradient></defs><path fill="url(#a)" d="M25 0c13.8 0 25 11.19 25 25 0 13.8-11.2 25-25 25C11.19 50 0 38.8 0 25 0 11.19 11.19 0 25 0"/><path fill="url(#b)" d="M2.16 25c0 12.61 10.22 22.83 22.83 22.83 12.62 0 22.84-10.22 22.84-22.83 0-12.62-10.22-22.84-22.84-22.84C12.38 2.16 2.16 12.38 2.16 25"/><mask id="c" width="45.667" height="45.666" x="2.167" y="2.167" mask-type="alpha" maskUnits="userSpaceOnUse"><path fill="#000" d="M2.16 25c0 12.61 10.22 22.83 22.83 22.83 12.62 0 22.84-10.22 22.84-22.83 0-12.62-10.22-22.84-22.84-22.84C12.38 2.16 2.16 12.38 2.16 25"/></mask><g mask="url(#c)"><path fill="url(#d)" d="M2.167 2.167h45.666v45.666H2.167z"/></g><mask id="e" width="45.29" height="45.29" x="2.355" y="2.355" mask-type="alpha" maskUnits="userSpaceOnUse"><path fill="#000" d="M2.35 25c0 12.5 10.14 22.64 22.65 22.64 12.5 0 22.64-10.14 22.64-22.64C47.64 12.49 37.5 2.35 25 2.35 12.49 2.35 2.35 12.49 2.35 25"/></mask><g mask="url(#e)"><path fill="url(#f)" d="M2.355 2.355h45.29v45.289H2.355z"/></g><path fill="url(#g)" d="M33.88 17.71c-.17.3-.35.59-.55.87-.2.27-.41.54-.64.8s-.46.5-.71.73c-.25.24-.52.46-.79.66-.27.21-.55.4-.85.58-.29.18-.59.34-.89.49-.31.15-.63.28-.95.4s-.65.22-.98.3c-.33.09-.66.15-1 .2s-.68.09-1.02.1c-.34.02-.69.02-1.03 0-.34-.01-.68-.05-1.02-.1s-.67-.12-1-.21a9.823 9.823 0 0 1-1.92-.7c-.31-.15-.61-.31-.9-.49q-1.305-.81-2.31-1.95a10.1 10.1 0 0 1-1.99-3.37c-.22-.62-.38-1.26-.48-1.91-.09-.66-.13-1.31-.1-1.97.02-.3.04-.6.08-.89s.09-.58.16-.87c.06-.29.14-.58.23-.87.09-.28.19-.56.3-.83a10.021 10.021 0 0 1 .88-1.66q.24-.375.51-.72c.2-.26.41-.5.63-.73.23-.24.46-.47.71-.68.24-.22.51-.43.77-.62.14-.1.28-.2.43-.29-.36.19-.71.39-1.06.61-.34.21-.67.45-.99.7-.31.25-.62.51-.91.79-.3.28-.57.58-.84.88q-.39.465-.75.96c-.23.33-.45.67-.65 1.02-.2.36-.38.72-.55 1.09-.16.37-.31.74-.44 1.13-.13.38-.24.77-.33 1.16-.1.4-.17.8-.22 1.2s-.09.8-.1 1.21c-.02.4-.01.81.01 1.21.03.41.07.81.14 1.21.06.4.14.79.25 1.19.1.39.22.77.36 1.15.14.39.29.76.47 1.12l.09.18c.01.02.02.05.04.08 0 .01.01.03.02.04.02.02.02.02.05.02h.39c.25 0 .49.02.74.04.28.03.55.07.83.12.28.04.55.1.82.18.28.07.54.15.81.25.26.09.52.19.78.31.26.11.51.24.75.38.25.13.49.28.72.43.24.16.47.32.69.5.22.17.43.36.63.55q.315.285.6.6c.18.2.36.42.54.64q.255.345.48.69c.15.24.3.48.43.73s.25.5.37.76a10.5 10.5 0 0 1 .54 1.59c.06.27.12.55.17.82.16 1.03.17 2.07.03 3.1q-.21 1.455-.81 2.79c-.4.89-.93 1.7-1.56 2.44-.74.86-1.59 1.58-2.56 2.15-.48.29-.98.53-1.49.73-.52.2-1.05.36-1.59.47a10.2 10.2 0 0 1-3.31.17c-.4-.05-.79-.12-1.19-.21-.25-.06-.51-.13-.75-.21 1.12.5 2.3.82 3.52.97a12.56 12.56 0 0 0 6.35-.85 12.494 12.494 0 0 0 5.72-4.74c.04-.05.07-.11.11-.16.01-.02.04-.06.04-.08-.02-.03-.03-.07-.06-.1a7 7 0 0 1-.19-.39c-.13-.26-.25-.53-.35-.81q-.315-.84-.48-1.71a10.2 10.2 0 0 1 0-3.81c.2-1.07.57-2.09 1.1-3.04a9.571 9.571 0 0 1 1.61-2.18c.31-.33.65-.63 1-.91a10.6 10.6 0 0 1 2.33-1.39 9.79 9.79 0 0 1 2.61-.72c.44-.07.9-.1 1.35-.1.25 0 .5 0 .75.02.24.02.49.04.73.07.23.04.47.08.71.13a7.5 7.5 0 0 1 1.34.38c.23.08.44.16.66.26.22.09.43.2.64.31s.42.23.63.35c.19.12.37.24.56.38.18.13.37.27.55.42s.36.31.54.47c.18.17.36.36.53.54a10.974 10.974 0 0 1 .99 1.27q.24.36.45.75c.19.35.37.72.52 1.09.16.41.3.83.41 1.26-.15-1.14-.45-2.24-.9-3.29-.46-1.06-1.04-2.04-1.76-2.93-1.07-1.33-2.35-2.4-3.86-3.21-1.54-.83-3.18-1.32-4.93-1.46z"/></svg>