<svg xmlns="http://www.w3.org/2000/svg" width="50" height="50" fill="none" viewBox="0 0 50 50"><path fill="#ffcf70" d="M15.101.597a.416.416 0 0 0-.393.322l-.273 1.184c-.076.33-.276.615-.563.804-.51.337-.96.822-.83 1.099 1.477 3.165 2.269 6.202 2.694 8.567a20 20 0 0 1 3.155-1.315q.553-.174 1.11-.314c-1.55-2.465-3.377-5.953-4.55-10.12-.074-.218-.27-.231-.35-.227"/><path fill="#d2935d" d="M15.737 12.573c-.426-2.365-1.218-5.402-2.696-8.567-.129-.277.32-.762.83-1.099.288-.189.488-.475.564-.804l.273-1.184a.416.416 0 0 1 .393-.322c.08-.004.276.009.35.227 1.173 4.167 3 7.655 4.55 10.12q.299-.078.597-.147c-1.547-2.43-3.406-5.93-4.59-10.138l-.01-.031a.905.905 0 0 0-.927-.626 1 1 0 0 0-.926.78l-.274 1.183a.72.72 0 0 1-.311.44c-.914.602-1.303 1.297-1.04 1.858 1.492 3.199 2.273 6.262 2.682 8.607.178-.1.354-.203.535-.297"/><path fill="#ffcf70" d="M30.705 48.951c.017-.008.047-.047.06-.126l.34-2.027q-.38.153-.77.29-.288.107-.58.2c-.374.12-.75.223-1.128.32l2.01 1.321q.05.03.068.022M26.738 49.37c.044.032.076.036.08.034.002-.001.015-.01.03-.04l.854-1.542q-.585.119-1.17.202l.016.923c.004.211.105.36.19.423M33.337 47.304c.018-.008.048-.049.06-.13l.254-1.605q-.792.454-1.629.837l1.242.871c.035.025.064.031.073.026"/><path fill="#d2935d" d="m33.65 45.57-.252 1.604c-.013.081-.043.122-.06.13-.01.004-.039-.002-.075-.027l-1.24-.87-.03.012c-.046.119-.09.24-.14.357l-.327-.146c-.139.06-.28.112-.42.168l-.341 2.027c-.014.079-.043.118-.06.126q-.018.01-.068-.022l-2.01-1.321q-.46.118-.926.214l-.852 1.543c-.016.028-.029.038-.031.039-.004.002-.037-.002-.08-.034a.54.54 0 0 1-.19-.423l-.017-.923q-.288.042-.578.076l.015.858c.01.482.305.92.689 1.021a.6.6 0 0 0 .158.021c.22 0 .417-.122.537-.34l.885-1.602 2.088 1.373c.196.13.42.153.614.065.207-.094.352-.301.397-.57l.343-2.04 1.258.883c.2.14.43.17.629.082.213-.094.36-.306.404-.582l.329-2.086q-.32.198-.648.386"/><path fill="#ffcf70" d="M37.557 40.84q-.122.207-.25.411c-.56.896-1.19 1.71-1.881 2.44a19.2 19.2 0 0 0 5.48-6.54c1.018-2.002 1.687-4.087 2.001-6.13a6.47 6.47 0 0 1-2.965.853c-.35 2.935-1.33 5.847-2.242 8.558zM13.258 14.831a19 19 0 0 0-1.826 1.567l-.205.198c-3.8 2.808-6.046 8.035-5.59 13.007q.023.24.053.478l.002.031c.05 2.059.46 4.168 1.174 6.17.54-.834 1.522-1.572 2.757-1.992-.031-.1-.066-.198-.096-.299-2.194-7.275-.524-14.689 3.73-19.16"/><path fill="#ffcf70" d="M12.892 29.674c-.603-2.034.518-4.188 2.504-4.812q.252-.076.505-.116a45.6 45.6 0 0 1-.21-11.247c-5.566 3.891-8.06 12.19-5.611 20.316q.05.157.101.314c2.3-.568 4.448.179 4.847 1.714.336 1.293-.675 2.74-2.358 3.575 1.43 2.19 3.234 4.039 5.322 5.416 2.9 1.912 6.072 2.728 9.146 2.397a17.6 17.6 0 0 1-2.638-2.226 4 4 0 0 1-.231-.253c-2.901-3.601-5.147-7.892-6.648-12.54l-.04.014c-1.985.624-4.085-.519-4.689-2.552"/><path fill="#ffcf70" d="M8.608 39.967c2.41 3.991 6.165 6.95 10.711 7.132l.056.007q.23.056.463.106c1.053.228 2.125.36 3.203.401-1.832-.383-3.644-1.145-5.362-2.278-2.185-1.44-4.067-3.383-5.55-5.681q-.308.121-.64.214c-1.03.283-2.037.3-2.88.1M38.678 25.09a25 25 0 0 0-.144-.487c-1.532-5.18-5.506-8.968-7.74-10.764a18 18 0 0 1-.556-.393 22 22 0 0 0-.38-.226c-1.698-.986-3.48-1.612-5.294-1.86a12.7 12.7 0 0 0-2.379-.1l.076.087q.102.119.233.274 3.656 4.892 6.1 9.475c.395-.364.87-.65 1.41-.82 1.987-.624 4.087.52 4.69 2.553s-.517 4.188-2.503 4.811a3.7 3.7 0 0 1-.62.134c2.194 6.2 2.53 11.9.984 17.049l-.1.322c-.032.1-.07.199-.103.298 1.759-1.084 3.276-2.609 4.468-4.514q.115-.184.225-.37l.108-.322c.929-2.76 1.874-5.573 2.22-8.368-1.508-.09-2.707-.787-2.995-1.894-.357-1.374.805-2.921 2.679-3.724q-.155-.571-.37-1.136z"/><path fill="#ffcf70" d="M42.592 24.488a5 5 0 0 1-.014-.347c-1.126-5.78-6.162-9.52-10.192-11.641a18.48 18.48 0 0 0-6.799-1.563 15.2 15.2 0 0 1 4.556 1.764q.209.12.414.248a19 19 0 0 0 .577.408c2.304 1.853 6.377 5.735 7.953 11.07q.073.234.143.481.216.567.371 1.14.155-.053.316-.098c1.073-.295 2.12-.299 2.985-.07q-.117-.683-.3-1.336zM27.501 25.087a3.93 3.93 0 0 1 .673-3.541c-1.628-3.074-3.668-6.258-6.128-9.548a47 47 0 0 0-.528-.609l.089-.085q-1.056.102-2.082.386-.232.065-.462.137c-.975.31-1.89.735-2.741 1.258a24 24 0 0 0-.088.807 45 45 0 0 0 .245 10.802c1.616-.01 3.113 1.057 3.607 2.721.542 1.827-.31 3.747-1.928 4.572 1.478 4.591 3.692 8.829 6.554 12.381q.092.11.197.215a17 17 0 0 0 3.11 2.523 12.5 12.5 0 0 0 1.564-.387q.28-.092.554-.191.744-.278 1.443-.645a19 19 0 0 0 .422-1.237c1.521-5.069 1.17-10.7-1.034-16.841-1.561-.052-2.987-1.102-3.467-2.718m3.115 4.557a.285.285 0 0 1 .398-.101.303.303 0 0 1 .098.409c-.015.026-.66 1.096-1.89 2.115a.3.3 0 0 1 .11.163l.49 2.053c.37 1.544-.802 3.172-2.61 3.63q-.486.12-.958.12c-1.44 0-2.69-.823-2.992-2.091l-.491-2.054a.3.3 0 0 1 .011-.163 10 10 0 0 1-2.365-.835.3.3 0 0 1-.136-.397.286.286 0 0 1 .387-.14c1.745.863 3.266 1.07 4.56.914l1.604-.406c2.418-.95 3.699-3.07 3.784-3.217"/><path fill="#df9c62" d="M42.907 31.02c-.314 2.044-.983 4.129-2 6.131q-.11.212-.223.422a19.2 19.2 0 0 1-5.258 6.117 15.5 15.5 0 0 0 2.13-2.85l.144-.408c.913-2.71 1.892-5.623 2.242-8.558a6 6 0 0 1-.57-.005c-.345 2.795-1.29 5.607-2.22 8.368l-.107.322a17 17 0 0 1-.225.37c-1.192 1.905-2.71 3.43-4.468 4.514q.052-.15.103-.297l.1-.323c1.545-5.148 1.21-10.849-.983-17.05a3.7 3.7 0 0 1-.604.032c2.203 6.14 2.555 11.772 1.034 16.841l-.098.314q-.15.464-.324.923-.699.367-1.443.645c-.184.065-.367.132-.554.191-.516.165-1.039.291-1.565.387a17 17 0 0 1-3.109-2.523 4 4 0 0 1-.197-.215c-2.862-3.552-5.076-7.79-6.555-12.381q-.255.132-.536.225c1.501 4.648 3.747 8.939 6.648 12.54q.109.13.23.253a17.6 17.6 0 0 0 2.639 2.226c-3.073.331-6.245-.485-9.146-2.397-2.088-1.377-3.892-3.226-5.322-5.416a7 7 0 0 1-.54.236c1.482 2.298 3.364 4.24 5.55 5.681 1.717 1.133 3.529 1.895 5.361 2.278a18.5 18.5 0 0 1-3.666-.507l-.056-.008c-4.546-.18-8.3-3.14-10.71-7.13a4 4 0 0 1-.844-.306c2.48 4.447 6.536 7.82 11.504 8.03q.224.054.45.103a19.1 19.1 0 0 0 6.812.23 19.7 19.7 0 0 0 4.574-1.227c.14-.056.282-.109.421-.168l.327.146q.073-.177.14-.357l.03-.013a20 20 0 0 0 2.276-1.223 19.74 19.74 0 0 0 7.12-7.755c1.134-2.23 1.85-4.565 2.134-6.84q-.298.233-.646.432"/><path fill="#df9c62" d="M6.866 36.282c-.714-2.002-1.124-4.111-1.174-6.17l-.002-.03q-.03-.24-.053-.48c-.456-4.97 1.79-10.198 5.59-13.006l.205-.198q.871-.846 1.826-1.567c-4.255 4.471-5.925 11.885-3.731 19.16.03.1.065.2.096.299q.19-.065.386-.12.087-.022.172-.041c-.033-.105-.07-.209-.101-.314-2.45-8.126.045-16.425 5.612-20.316l-.034.333a45.6 45.6 0 0 0 .243 10.914q.29-.05.578-.052a45 45 0 0 1-.157-11.609c.85-.523 1.766-.947 2.74-1.258q.232-.072.463-.137 1.026-.284 2.082-.386l-.09.085a46.448 46.448 0 0 1 .528.609q3.689 4.936 6.129 9.548.192-.242.42-.45-2.444-4.582-6.1-9.474l-.233-.275-.076-.087q.32-.018.643-.019a13 13 0 0 1 1.736.12c1.815.247 3.596.873 5.294 1.86.134.077.268.157.38.225a15 15 0 0 0 .556.393c2.234 1.796 6.209 5.583 7.74 10.764q.074.24.144.486l.009.026q.216.566.37 1.136.263-.112.544-.203a12 12 0 0 0-.37-1.14 23 23 0 0 0-.144-.482c-1.576-5.334-5.649-9.217-7.953-11.07a33 33 0 0 1-.577-.406 16 16 0 0 0-.414-.249 15.2 15.2 0 0 0-4.556-1.764 18.5 18.5 0 0 1 6.799 1.563c4.03 2.12 9.066 5.86 10.192 11.64.002.115.004.229.014.348l.01.056q.183.653.3 1.335.331.087.62.217a14 14 0 0 0-.355-1.69 5 5 0 0 1-.01-.3l-.005-.055c-.92-4.772-4.55-8.95-10.519-12.09q-.225-.099-.45-.193c-3.64-1.509-7.693-1.839-11.585-.97q-.3.068-.597.146c-.372.095-.742.197-1.11.314a20 20 0 0 0-3.154 1.315c-.181.094-.357.197-.535.297a20 20 0 0 0-4.168 3.095l-.162.159c-3.95 2.93-6.286 8.367-5.811 13.535q.022.242.052.484c.058 2.294.548 4.65 1.403 6.86a3 3 0 0 1 .35-.72"/><path fill="#212121" d="M20.086 27.415c-.494-1.664-1.991-2.73-3.607-2.721q-.288.003-.578.052a4 4 0 0 0-.505.116c-1.986.624-3.107 2.778-2.504 4.812.604 2.033 2.704 3.176 4.69 2.553l.039-.015q.28-.093.537-.225c1.618-.824 2.47-2.745 1.928-4.572m-3.344 3.156a.62.62 0 0 1-.779-.426.644.644 0 0 1 .415-.8.62.62 0 0 1 .778.426.645.645 0 0 1-.414.8m1.5-1.5c-.807.253-1.66-.214-1.907-1.044-.246-.83.209-1.707 1.015-1.96.807-.254 1.66.213 1.907 1.043.246.83-.208 1.708-1.015 1.96"/><path fill="#fff" d="M19.257 27.11c-.246-.83-1.1-1.297-1.907-1.043-.806.253-1.26 1.13-1.015 1.96.247.83 1.1 1.297 1.907 1.044s1.261-1.131 1.015-1.96"/><path fill="#212121" d="M34.695 22.829c-.604-2.034-2.704-3.177-4.69-2.553a3.7 3.7 0 0 0-1.41.82 4 4 0 0 0-.421.45 3.93 3.93 0 0 0-.673 3.541c.48 1.616 1.906 2.666 3.467 2.718q.3.01.604-.032c.206-.027.413-.068.619-.133 1.986-.623 3.107-2.778 2.503-4.811m-2.8-1.567c.806-.254 1.66.214 1.906 1.043.246.83-.208 1.708-1.015 1.96-.806.254-1.66-.213-1.906-1.043-.247-.83.208-1.707 1.014-1.96m-.225 4.623a.62.62 0 0 1-.778-.426.644.644 0 0 1 .414-.8.62.62 0 0 1 .778.425.644.644 0 0 1-.414.8"/><path fill="#fff" d="M32.786 24.266c.807-.253 1.261-1.131 1.015-1.96-.246-.83-1.1-1.298-1.907-1.044-.806.253-1.26 1.13-1.014 1.96s1.1 1.297 1.906 1.044M17.156 29.771a.62.62 0 0 0-.778-.426.644.644 0 0 0-.415.8c.1.339.45.53.779.426a.645.645 0 0 0 .414-.8M31.306 24.658a.644.644 0 0 0-.414.8c.1.34.448.53.778.427a.644.644 0 0 0 .414-.8.62.62 0 0 0-.778-.427"/><path fill="#ff5d54" d="M25.227 33.267a6.5 6.5 0 0 0 1.605-.406z"/><path fill="#ff5d54" d="m26.6 33.545.363 1.516a.3.3 0 0 1-.213.36.291.291 0 0 1-.35-.218l-.358-1.5a7.1 7.1 0 0 1-2.69.122l.472 1.975c.293 1.224 1.75 1.913 3.25 1.534 1.498-.38 2.479-1.684 2.186-2.908l-.48-2.014a7.9 7.9 0 0 1-2.18 1.133"/><path fill="#212121" d="M25.227 33.267c-1.293.156-2.814-.05-4.56-.914a.286.286 0 0 0-.386.14.3.3 0 0 0 .136.397 10 10 0 0 0 2.365.835.3.3 0 0 0-.011.163l.49 2.054c.304 1.268 1.553 2.09 2.993 2.09q.471.002.957-.12c1.81-.457 2.98-2.085 2.612-3.629l-.491-2.053a.3.3 0 0 0-.109-.163c1.229-1.02 1.874-2.089 1.89-2.115a.303.303 0 0 0-.099-.41.285.285 0 0 0-.398.102c-.085.147-1.366 2.267-3.783 3.217a6.5 6.5 0 0 1-1.606.406m4.033 1.159c.293 1.224-.688 2.529-2.187 2.908s-2.956-.31-3.249-1.534l-.472-1.975a7.058 7.058 0 0 0 2.69-.123l.358 1.501a.29.29 0 0 0 .35.218c.156-.039.25-.2.213-.36l-.363-1.516a7.9 7.9 0 0 0 2.18-1.133z"/><path fill="#ff5d54" d="M8.608 39.967c.844.201 1.852.184 2.882-.099.221-.06.433-.135.64-.214q.28-.108.54-.236c1.683-.835 2.695-2.282 2.358-3.575-.398-1.535-2.547-2.282-4.846-1.714q-.087.02-.173.04-.197.056-.386.121c-1.235.42-2.217 1.158-2.757 1.992a3 3 0 0 0-.35.722 2.14 2.14 0 0 0-.045 1.191c.166.639.638 1.138 1.294 1.467.256.128.537.233.843.305M44.936 27.623c-.176-.677-.694-1.2-1.413-1.526a4 4 0 0 0-.621-.218c-.865-.228-1.912-.224-2.985.07q-.161.047-.316.099a7 7 0 0 0-.544.203c-1.874.803-3.036 2.35-2.679 3.724.288 1.107 1.487 1.803 2.994 1.894q.279.017.57.005a6.464 6.464 0 0 0 2.965-.854q.348-.2.646-.433c1.075-.835 1.647-1.946 1.383-2.964"/></svg>