<svg xmlns="http://www.w3.org/2000/svg" width="50" height="50" fill="none" viewBox="0 0 50 50"><defs><linearGradient id="a" x1="128.863" x2="225.857" y1="351.291" y2="351.291" gradientUnits="userSpaceOnUse"><stop stop-color="#9d9fa2"/><stop offset="1" stop-color="#d1d2d3"/></linearGradient><linearGradient id="b" x1="135.712" x2="217.944" y1="341.82" y2="341.82" gradientUnits="userSpaceOnUse"><stop stop-color="#169b48"/><stop offset="1" stop-color="#51b848"/></linearGradient></defs><path fill="url(#a)" d="M0 0h50v50H0z"/><path fill="#51b848" d="M4.444 4.444h41.111v41.111H4.444z"/><path fill="url(#b)" d="M4.44 4.44h41.11v10.43c-3.38 6.12-12.69 5-12.69 5-25.25.58-28.42 16.27-28.42 16.27z"/><path fill="#000" d="M29.92 41.9s4.19-1.38 5.78-1.4c0 0 5.11-1.84 7.41-.24.86.38 1.69.83 2.44 1.45v3.84H4.44v-2.16s8.08-3.4 12.08-.52c0 0 .38-.09.79-.36 0 0 2.05-1.82 4.09-1.44 2.03.37 4.91 1.26 4.91 1.26s1.95-.92 3.58-.7z"/><path d="M35.7 40.5s5.11-1.84 7.41-.24c.86.38 1.69.83 2.44 1.45v3.84H4.44v-2.16s8.08-3.4 12.08-.52c0 0 .38-.09.79-.36 0 0 2.05-1.82 4.09-1.44 2.03.37 4.91 1.26 4.91 1.26s1.95-.92 3.58-.7l.03.27s4.19-1.38 5.78-1.4"/><path fill="#000" d="M20.58 5.58c-.11-.31-.34-.14-.34-.14-.05-.15-.37-.04-.37-.04-.14-.2-.36.04-.36.04-.1-.14-.3 0-.3 0-.3.16-.15.58-.15.58-.3.04-.17.71-.17.71-.06.23-.04.32-.04.32.01.3.21.43-.07 1.26-.27.83-.34 2.08-.33 2.46 0 .37.02.98.02.98l1.42 2.33-.07.52c.12.11 1.47 2.44 1.47 2.44l.05 2.9.02 1.05s-.03 1.07-.04 1.31c-.02.24-.13.98-.13.98-.32 1.16-.06 1.13-.06 1.13.39-.01-.07.55-.07.55l-3.14 4.47c-.04.06-.85 1.26-1.05 1.62-.2.35-.92 1.66-.92 1.66l-.63 1.33s-.64 1.57-.62 1.64c.02.08-.18.62-.18.62l-.98 2.25c-.15.26-.11.87-.11.87-.07.16-.75.74-.75.74 0 .28-.17.51-.17.51l-.41.39c-.29.44-1.33.47-1.68.5s-.55.52-.55.52c.07.66.31.52.31.52l4.93.21s.07-.27.02-.39c-.06-.12.02-.53.02-.53s.48-1.08.54-1.26c.06-.17.34-1.19.34-1.19l.43-.85.46-.97.21-.53.14-.27c.09-.33 1.2-1.94 1.25-2.11.04-.17 1.01-1.71 1.01-1.71.15-.38 1.45-1.93 1.45-1.93.1-.26 1.53-1.62 1.53-1.62s1.42-1.42 1.54-1.52c.13-.09.47-.06.47-.06.47-.15 2.09 2.55 2.09 2.55s1.22 2.38 1.34 2.61.19.76.19.76l.18.56c-.06.12.1.42.1.42l-.04.43s.28 2.09.2 2.3c-.09.21.31 2.41.31 2.41-.22.72-.15 1.95-.15 1.95l-.28.1.11.12c-.09.43.06.33.06.33s5.82-.72 6.01-.74c.18-.03.27-.3.27-.3s0-.46-.06-.62c-.07-.16-.4-.37-.78-.36-.39.01-1.16-.19-1.16-.19-.27-.02-.38-.12-.7-.27-.32-.16-.78-1.04-.87-1.21-.09-.18-.17-1.92-.17-1.92-.01-.14-.11-1.87-.11-1.87s-.06-.62-.07-.88c0-.27.09-.72.09-.72l-.1-1.3c-.09-.07-.83-2.61-.83-2.61-.11-.62-1.04-2.44-1.04-2.44-.03-.15-.35-.66-.35-.66 0-.07-.31-.77-.31-.77.02-.08-.27-.67-.27-.67s.19-.54.12-.54c-.06 0-.14-.36-.14-.36l.38-3.18.21-1.55s.13-.41.27-.41.77-.28.77-.28.44-.17.5-.21c.06-.03.59-.12.79-.15.19-.04.17-.59.17-.59 1.96-.47 3.09-1 3.09-1s.4-.93.48-.95c.07-.03.45-.91.54-1.18.08-.26.54-1.65.54-1.65l.13-.26s.15-.35.24-.42c.09-.08.24-.53.24-.53.07-.12.01-.33.01-.33.05-.48-.29-.48-.29-.48 0-.26-.25-.16-.28-.26s-.11-.13-.16-.05c-.04.07-.23.01-.23.01-.23-.15-.35.01-.35.01s-.5.71-.35.82c.14.11.11.7.11.7-.06.59-.72 1.86-.72 1.86l-.44.63c-.21.4-1.17 1.23-1.17 1.23-.12-.07-.85-.01-.85-.01s-.58.08-.71.08-.67.07-.67.07-.28.08-.37.03-.38-.08-.56-.15c-.18-.06-.68-.13-.68-.13l-.39.03c-.43-.23-.63.03-.63.03l-.23.04s-.11 0-.23-.01c-.13 0-.11-.22-.11-.22l-.38-.17-.12-.17c-.03-.37.46-1.5.46-1.5.21 0 .29-.12.27-.21s.05-.24.05-.24c.19-.43.03-.46.03-.46l-.04-.16c.08-.14.05-.83.05-.83-.1-.93-1.28-1.32-2.12-1.06-.83.26-.86 1.55-.86 1.55-.07-.04-.18.24-.18.24-.09.08-.01.7-.01.7.15.23.28.11.28.11l.12.75s-.13.7-.26.89c-.13.2-.38.2-.38.2-.17-.53-1.09-.8-1.09-.8l-.48-.22c-.03-.1-.2-.18-.2-.18-.25-.02-.31-.05-.51-.45s-.41-.42-.41-.42l-.28-.37-.12-.04c.02-.08-.55-.7-.55-.7-.23-.08-.29-.41-.29-.41.05-.35-.27-1.82-.27-1.82l-.03-.57s-.02-.7.04-.92c.07-.21.1-1.06.1-1.06l.11-.25s.09-.19.26-.3c.16-.11.28-.26.31-.38s-.04-.43-.04-.43z"/><path stroke="#000" stroke-width=".218" d="M20.24 5.44c-.05-.15-.37-.04-.37-.04-.14-.2-.36.04-.36.04-.1-.14-.3 0-.3 0-.3.16-.15.58-.15.58-.3.04-.17.71-.17.71-.06.23-.04.32-.04.32.01.3.21.43-.07 1.26-.27.83-.34 2.08-.33 2.46 0 .37.02.98.02.98l1.42 2.33-.07.52c.12.11 1.47 2.44 1.47 2.44l.05 2.9.02 1.05s-.03 1.07-.04 1.31c-.02.24-.13.98-.13.98-.32 1.16-.06 1.13-.06 1.13.39-.01-.07.55-.07.55l-3.14 4.47c-.04.06-.85 1.26-1.05 1.62-.2.35-.92 1.66-.92 1.66l-.63 1.33s-.64 1.57-.62 1.64c.02.08-.18.62-.18.62l-.98 2.25c-.15.26-.11.87-.11.87-.07.16-.75.74-.75.74 0 .28-.17.51-.17.51l-.41.39c-.29.44-1.33.47-1.68.5s-.55.52-.55.52c.07.66.31.52.31.52l4.93.21s.07-.27.02-.39c-.06-.12.02-.53.02-.53s.48-1.08.54-1.26c.06-.17.34-1.19.34-1.19l.43-.85.46-.97.21-.53.14-.27c.09-.33 1.2-1.94 1.25-2.11.04-.17 1.01-1.71 1.01-1.71.15-.38 1.45-1.93 1.45-1.93.1-.26 1.53-1.62 1.53-1.62s1.42-1.42 1.54-1.52c.13-.09.47-.06.47-.06.47-.15 2.09 2.55 2.09 2.55s1.22 2.38 1.34 2.61.19.76.19.76l.18.56c-.06.12.1.42.1.42l-.04.43s.28 2.09.2 2.3c-.09.21.31 2.41.31 2.41-.22.72-.15 1.95-.15 1.95l-.28.1.11.12c-.09.43.06.33.06.33s5.82-.72 6.01-.74c.18-.03.27-.3.27-.3s0-.46-.06-.62c-.07-.16-.4-.37-.78-.36-.39.01-1.16-.19-1.16-.19-.27-.02-.38-.12-.7-.27-.32-.16-.78-1.04-.87-1.21-.09-.18-.17-1.92-.17-1.92-.01-.14-.11-1.87-.11-1.87s-.06-.62-.07-.88c0-.27.09-.72.09-.72l-.1-1.3c-.09-.07-.83-2.61-.83-2.61-.11-.62-1.04-2.44-1.04-2.44-.03-.15-.35-.66-.35-.66 0-.07-.31-.77-.31-.77.02-.08-.27-.67-.27-.67s.19-.54.12-.54c-.06 0-.14-.36-.14-.36l.38-3.18.21-1.55s.13-.41.27-.41.77-.28.77-.28.44-.17.5-.21c.06-.03.59-.12.79-.15.19-.04.17-.59.17-.59 1.96-.47 3.09-1 3.09-1s.4-.93.48-.95c.07-.03.45-.91.54-1.18.08-.26.54-1.65.54-1.65l.13-.26s.15-.35.24-.42c.09-.08.24-.53.24-.53.07-.12.01-.33.01-.33.05-.48-.29-.48-.29-.48 0-.26-.25-.16-.28-.26s-.11-.13-.16-.05c-.04.07-.23.01-.23.01-.23-.15-.35.01-.35.01s-.5.71-.35.82c.14.11.11.7.11.7-.06.59-.72 1.86-.72 1.86l-.44.63c-.21.4-1.17 1.23-1.17 1.23-.12-.07-.85-.01-.85-.01s-.58.08-.71.08-.67.07-.67.07-.28.08-.37.03-.38-.08-.56-.15c-.18-.06-.68-.13-.68-.13l-.39.03c-.43-.23-.63.03-.63.03l-.23.04s-.11 0-.23-.01c-.13 0-.11-.22-.11-.22l-.38-.17-.12-.17c-.03-.37.46-1.5.46-1.5.21 0 .29-.12.27-.21s.05-.24.05-.24c.19-.43.03-.46.03-.46l-.04-.16c.08-.14.05-.83.05-.83-.1-.93-1.28-1.32-2.12-1.06-.83.26-.86 1.55-.86 1.55-.07-.04-.18.24-.18.24-.09.08-.01.7-.01.7.15.23.28.11.28.11l.12.75s-.13.7-.26.89c-.13.2-.38.2-.38.2-.17-.53-1.09-.8-1.09-.8l-.48-.22c-.03-.1-.2-.18-.2-.18-.25-.02-.31-.05-.51-.45s-.41-.42-.41-.42l-.28-.37-.12-.04c.02-.08-.55-.7-.55-.7-.23-.08-.29-.41-.29-.41.05-.35-.27-1.82-.27-1.82l-.03-.57s-.02-.7.04-.92c.07-.21.1-1.06.1-1.06l.11-.25s.09-.19.26-.3c.16-.11.28-.26.31-.38s-.04-.43-.04-.43l-.09-.26c-.11-.31-.34-.14-.34-.14Z"/></svg>