<svg xmlns="http://www.w3.org/2000/svg" width="50" height="50" fill="none" viewBox="0 0 50 50"><path fill="#1d4976" d="M50 1.79v46.42A1.797 1.797 0 0 1 48.21 50H1.79A1.797 1.797 0 0 1 0 48.21V1.79A1.797 1.797 0 0 1 1.79 0h46.42A1.797 1.797 0 0 1 50 1.79"/><path fill="#4482c3" d="M0 5.339v42.87A1.797 1.797 0 0 0 1.79 50h46.42A1.797 1.797 0 0 0 50 48.21V5.339zm45.403 38.338a1.844 1.844 0 0 1-1.855 1.855H6.452a1.846 1.846 0 0 1-1.855-1.855v-32a1.845 1.845 0 0 1 1.855-1.854h37.096a1.845 1.845 0 0 1 1.855 1.854z"/><path fill="#b0d3f0" d="M45.403 11.677v32a1.844 1.844 0 0 1-1.855 1.855H6.452a1.846 1.846 0 0 1-1.855-1.855v-32a1.845 1.845 0 0 1 1.855-1.854h37.096a1.845 1.845 0 0 1 1.855 1.854"/><path fill="#000" d="M8.842 2.68a.806.806 0 0 1-.807.806h-3.57a.806.806 0 1 1 0-1.613h3.57a.806.806 0 0 1 .807.806m7.143 0a.807.807 0 0 0-.807-.807h-3.571a.807.807 0 0 0 0 1.613h3.571a.807.807 0 0 0 .807-.807m6.337-.807H18.75a.806.806 0 1 0 0 1.613h3.572a.806.806 0 1 0 0-1.613M11.285 13.716a.805.805 0 0 0-1.385.568.8.8 0 0 0 .245.572l3 3.001-3 3.002a.806.806 0 1 0 1.14 1.14l3.57-3.572a.806.806 0 0 0 0-1.14zm10.143 6.907h-5.356a.806.806 0 1 0 0 1.613h5.356a.807.807 0 0 0 0-1.613"/></svg>