<svg xmlns="http://www.w3.org/2000/svg" width="50" height="50" fill="none" viewBox="0 0 50 50"><g clip-path="url(#a)"><path fill="url(#b)" fill-rule="evenodd" d="M0 0h50v50H0z" clip-rule="evenodd"/><g filter="url(#c)"><path fill="url(#d)" d="M11.343 19.392c5.882 8.982 15.345 13.599 26.497 15.046-.43.352-.936.85-1.527 1.417-3.249 3.12-9.058 8.382-18.725 3.612-11.428-5.64-5.811-17.356-6.245-20.075"/><mask id="e" width="28" height="23" x="10" y="19" maskUnits="userSpaceOnUse" style="mask-type:luminance"><path fill="#fff" d="M11.363 19.392c5.868 8.983 15.325 13.595 26.476 15.034-.43.353-.937.85-1.53 1.42-3.253 3.123-9.07 8.393-18.73 3.627-11.42-5.634-5.786-17.361-6.216-20.08"/></mask><g mask="url(#e)"><path fill="url(#f)" fill-rule="evenodd" d="m11.693 18.029 4.242 6.675q-1.906 2.442-3.215 5.519t-.519 5.701l-4.582-3.08z" clip-rule="evenodd"/></g><mask id="g" width="28" height="23" x="10" y="19" maskUnits="userSpaceOnUse" style="mask-type:luminance"><path fill="#fff" d="M11.363 19.392c5.868 8.983 15.325 13.595 26.476 15.034-.43.353-.937.85-1.53 1.42-3.253 3.123-9.07 8.393-18.73 3.627-11.42-5.634-5.786-17.361-6.216-20.08"/></mask><g mask="url(#g)"><g filter="url(#h)"><path fill="#000" d="m31.993 31.925 4.868 2.602q-2.428 3.404-5.685 5.424t-8.187 1.893l-1.834-.667q4.086-.637 6.628-3.666t4.21-5.586"/></g><path fill="url(#i)" d="m31.993 31.925 4.868 2.602q-2.428 3.404-5.685 5.424t-8.187 1.893l-1.834-.667q4.086-.637 6.628-3.666t4.21-5.586"/></g><mask id="j" width="28" height="23" x="10" y="19" maskUnits="userSpaceOnUse" style="mask-type:luminance"><path fill="#fff" d="M11.363 19.392c5.868 8.983 15.325 13.595 26.476 15.034-.43.353-.937.85-1.53 1.42-3.253 3.123-9.07 8.393-18.73 3.627-11.42-5.634-5.786-17.361-6.216-20.08"/></mask><g mask="url(#j)"><g filter="url(#k)"><path fill="#000" d="m26.5 30.653 7.013 3.104q-2.074 2.7-5.23 5.044-3.159 2.344-8.028 1.678l-3.307-1.447q5.529-.814 7.095-2.8 1.565-1.984 2.458-5.58"/></g><path fill="url(#l)" d="m26.5 30.653 7.013 3.104q-2.074 2.7-5.23 5.044-3.159 2.344-8.028 1.678l-3.307-1.447q5.529-.814 7.095-2.8 1.565-1.984 2.458-5.58"/></g><mask id="m" width="28" height="23" x="10" y="19" maskUnits="userSpaceOnUse" style="mask-type:luminance"><path fill="#fff" d="M11.363 19.392c5.868 8.983 15.325 13.595 26.476 15.034-.43.353-.937.85-1.53 1.42-3.253 3.123-9.07 8.393-18.73 3.627-11.42-5.634-5.786-17.361-6.216-20.08"/></mask><g mask="url(#m)"><g filter="url(#n)"><path fill="#000" d="m26.981 28.8-5.248-1.88-6.4 12.272 2.548 1.685q3.84-1.392 5.99-4.321 2.15-2.93 3.11-7.756"/></g><path fill="url(#o)" d="m26.981 28.8-5.248-1.88-6.4 12.272 2.548 1.685q3.84-1.392 5.99-4.321 2.15-2.93 3.11-7.756"/></g><mask id="p" width="28" height="23" x="10" y="19" maskUnits="userSpaceOnUse" style="mask-type:luminance"><path fill="#fff" d="M11.363 19.392c5.868 8.983 15.325 13.595 26.476 15.034-.43.353-.937.85-1.53 1.42-3.253 3.123-9.07 8.393-18.73 3.627-11.42-5.634-5.786-17.361-6.216-20.08"/></mask><g mask="url(#p)"><g filter="url(#q)"><path fill="#000" d="m17.278 23.433 4.48 3.353-6.402 12.27-2.803-1.194q-1.152-4.856.182-8.073t4.543-6.356"/></g><path fill="url(#r)" d="m17.278 23.433 4.48 3.353-6.402 12.27-2.803-1.194q-1.152-4.856.182-8.073t4.543-6.356"/></g><g filter="url(#s)" opacity=".491" style="mix-blend-mode:overlay"><path fill="#000" fill-rule="evenodd" d="m22.754 30.154.5.262c5.546 2.87 10.971 4.451 14.619 3.853q-.27.238-.58.535c-.101.013-.628.057-.73.066-3.698.344-8.634-1.36-14.064-4.227-5.31-2.802-9.573-6.636-11.343-10.25-.008-.017 0-.755.1-.733.013.002.09.103.103.134 1.73 3.654 6.02 7.523 11.395 10.36" clip-rule="evenodd"/></g><path fill="url(#t)" d="M22.538 30.29c8.324 4.473 15.493 6.176 18.808 1.85s-.642-14.75-9.809-19.42c-9.166-4.668-18.033-3.27-20.52 1.435-2.488 4.705 3.196 11.663 11.52 16.135"/><path fill="url(#u)" d="M22.538 30.29c8.324 4.473 15.493 6.176 18.808 1.85s-.642-14.75-9.809-19.42c-9.166-4.668-18.033-3.27-20.52 1.435-2.488 4.705 3.196 11.663 11.52 16.135" style="mix-blend-mode:overlay"/><path fill="url(#v)" d="M22.538 30.29c8.324 4.473 15.493 6.176 18.808 1.85s-.642-14.75-9.809-19.42c-9.166-4.668-18.033-3.27-20.52 1.435-2.488 4.705 3.196 11.663 11.52 16.135"/><g filter="url(#w)"><path fill="#000" d="M37.293 20.012c1.139-2.155-1.255-6.252-5.058-8.233s-7.169-1.87-8.458.569c-2.45 4.632 11.195 12.052 13.516 7.664"/></g><path fill="url(#x)" fill-rule="evenodd" stroke="url(#y)" stroke-width=".5" d="M32.17 11.9c1.855.967 3.37 2.442 4.295 3.945.925 1.506 1.265 3.044.705 4.102-.248.469-.634.794-1.119.997-.538.224-1.196.3-1.924.256-1.644-.1-3.64-.808-5.449-1.834-1.767-1.001-3.357-2.305-4.267-3.65-.401-.592-.67-1.19-.757-1.775a2.42 2.42 0 0 1 .245-1.528c.614-1.162 1.72-1.772 3.118-1.865 1.468-.1 3.255.364 5.153 1.353Z" clip-rule="evenodd"/></g></g><defs><radialGradient id="i" cx="0" cy="0" r="1" gradientTransform="rotate(117.917 -385.752 121.07)scale(691.257 494.217)" gradientUnits="userSpaceOnUse"><stop stop-color="#f17733"/><stop offset="1" stop-color="#e35834"/></radialGradient><radialGradient id="l" cx="0" cy="0" r="1" gradientTransform="rotate(118.008 -497.681 195.45)scale(779.752 385.12)" gradientUnits="userSpaceOnUse"><stop stop-color="#f17733"/><stop offset="1" stop-color="#e35834"/></radialGradient><radialGradient id="o" cx="0" cy="0" r="1" gradientTransform="rotate(117.537 -37.84 197.894)scale(418.36 1035.44)" gradientUnits="userSpaceOnUse"><stop stop-color="#f17733"/><stop offset="1" stop-color="#e9471e"/></radialGradient><radialGradient id="r" cx="0" cy="0" r="1" gradientTransform="rotate(80.765 -74.079 -23.77)scale(573.73 675.97)" gradientUnits="userSpaceOnUse"><stop stop-color="#ec7027"/><stop offset="1" stop-color="#e84d0f"/></radialGradient><radialGradient id="t" cx="0" cy="0" r="1" gradientTransform="rotate(54.959 -302.19 144.515)scale(3436.4 1129.96)" gradientUnits="userSpaceOnUse"><stop stop-color="#ffe397"/><stop offset="1" stop-color="#f8a04f"/></radialGradient><radialGradient id="u" cx="0" cy="0" r="1" gradientTransform="rotate(117.868 -423.694 -55.472)scale(3509.55 1117.08)" gradientUnits="userSpaceOnUse"><stop stop-color="#fff" stop-opacity=".24"/><stop offset="1" stop-opacity="0"/></radialGradient><radialGradient id="v" cx="0" cy="0" r="1" gradientTransform="rotate(126.617 -1376.242 387.42)scale(1724.15 1095.77)" gradientUnits="userSpaceOnUse"><stop stop-color="#fff" stop-opacity=".5"/><stop offset="1" stop-color="#fff" stop-opacity="0"/></radialGradient><radialGradient id="x" cx="0" cy="0" r="1" gradientTransform="rotate(66.275 -227.032 189.924)scale(1104.17 540.012)" gradientUnits="userSpaceOnUse"><stop stop-color="#fe774c"/><stop offset="1" stop-color="#c5501b"/></radialGradient><filter id="c" width="36.166" height="35.541" x="8.339" y="8.844" color-interpolation-filters="sRGB" filterUnits="userSpaceOnUse"><feFlood flood-opacity="0" result="BackgroundImageFix"/><feColorMatrix in="SourceAlpha" result="hardAlpha" values="0 0 0 0 0 0 0 0 0 0 0 0 0 0 0 0 0 0 127 0"/><feOffset dy="1"/><feGaussianBlur stdDeviation="1"/><feColorMatrix values="0 0 0 0 0 0 0 0 0 0 0 0 0 0 0 0 0 0 0.25 0"/><feBlend in2="BackgroundImageFix" result="effect1_dropShadow_666_137"/><feBlend in="SourceGraphic" in2="effect1_dropShadow_666_137" result="shape"/></filter><filter id="h" width="23.706" height="17.926" x="17.155" y="29.925" color-interpolation-filters="sRGB" filterUnits="userSpaceOnUse"><feFlood flood-opacity="0" result="BackgroundImageFix"/><feColorMatrix in="SourceAlpha" result="hardAlpha" values="0 0 0 0 0 0 0 0 0 0 0 0 0 0 0 0 0 0 127 0"/><feOffset dy="2"/><feGaussianBlur stdDeviation="2"/><feColorMatrix values="0 0 0 0 0.780392 0 0 0 0 0.270588 0 0 0 0 0.00784314 0 0 0 1 0"/><feBlend in2="BackgroundImageFix" result="effect1_dropShadow_666_137"/><feBlend in="SourceGraphic" in2="effect1_dropShadow_666_137" result="shape"/></filter><filter id="k" width="24.565" height="17.974" x="12.948" y="28.653" color-interpolation-filters="sRGB" filterUnits="userSpaceOnUse"><feFlood flood-opacity="0" result="BackgroundImageFix"/><feColorMatrix in="SourceAlpha" result="hardAlpha" values="0 0 0 0 0 0 0 0 0 0 0 0 0 0 0 0 0 0 127 0"/><feOffset dy="2"/><feGaussianBlur stdDeviation="2"/><feColorMatrix values="0 0 0 0 0.871207 0 0 0 0 0.296299 0 0 0 0 0 0 0 0 1 0"/><feBlend in2="BackgroundImageFix" result="effect1_dropShadow_666_137"/><feBlend in="SourceGraphic" in2="effect1_dropShadow_666_137" result="shape"/></filter><filter id="n" width="27.647" height="29.957" x="7.334" y="20.92" color-interpolation-filters="sRGB" filterUnits="userSpaceOnUse"><feFlood flood-opacity="0" result="BackgroundImageFix"/><feColorMatrix in="SourceAlpha" result="hardAlpha" values="0 0 0 0 0 0 0 0 0 0 0 0 0 0 0 0 0 0 127 0"/><feOffset dy="2"/><feGaussianBlur stdDeviation="4"/><feColorMatrix values="0 0 0 0 0.780392 0 0 0 0 0.270588 0 0 0 0 0.00784314 0 0 0 1 0"/><feBlend in2="BackgroundImageFix" result="effect1_dropShadow_666_137"/><feBlend in="SourceGraphic" in2="effect1_dropShadow_666_137" result="shape"/></filter><filter id="q" width="17.738" height="23.622" x="8.019" y="21.433" color-interpolation-filters="sRGB" filterUnits="userSpaceOnUse"><feFlood flood-opacity="0" result="BackgroundImageFix"/><feColorMatrix in="SourceAlpha" result="hardAlpha" values="0 0 0 0 0 0 0 0 0 0 0 0 0 0 0 0 0 0 127 0"/><feOffset dy="2"/><feGaussianBlur stdDeviation="2"/><feColorMatrix values="0 0 0 0 0.8 0 0 0 0 0.301961 0 0 0 0 0.0313725 0 0 0 1 0"/><feBlend in2="BackgroundImageFix" result="effect1_dropShadow_666_137"/><feBlend in="SourceGraphic" in2="effect1_dropShadow_666_137" result="shape"/></filter><filter id="s" width="28.719" height="17.255" x="10.153" y="18.659" color-interpolation-filters="sRGB" filterUnits="userSpaceOnUse"><feFlood flood-opacity="0" result="BackgroundImageFix"/><feBlend in="SourceGraphic" in2="BackgroundImageFix" result="shape"/><feGaussianBlur result="effect1_foregroundBlur_666_137" stdDeviation=".5"/></filter><filter id="w" width="18.094" height="14.954" x="21.484" y="9.396" color-interpolation-filters="sRGB" filterUnits="userSpaceOnUse"><feFlood flood-opacity="0" result="BackgroundImageFix"/><feColorMatrix in="SourceAlpha" result="hardAlpha" values="0 0 0 0 0 0 0 0 0 0 0 0 0 0 0 0 0 0 127 0"/><feOffset dy="1"/><feGaussianBlur stdDeviation="1"/><feComposite in2="hardAlpha" operator="out"/><feColorMatrix values="0 0 0 0 0 0 0 0 0 0 0 0 0 0 0 0 0 0 0.25 0"/><feBlend in2="BackgroundImageFix" result="effect1_dropShadow_666_137"/><feBlend in="SourceGraphic" in2="effect1_dropShadow_666_137" result="shape"/></filter><linearGradient id="b" x1="2500" x2="2500" y1="0" y2="5000" gradientUnits="userSpaceOnUse"><stop stop-color="#6dcd5b"/><stop offset="1" stop-color="#39b631"/></linearGradient><linearGradient id="d" x1="90.103" x2="1401.96" y1="784.56" y2="2308.4" gradientUnits="userSpaceOnUse"><stop stop-color="#ea8d25"/><stop offset=".417" stop-color="#e57929"/><stop offset="1" stop-color="#de5e30"/></linearGradient><linearGradient id="f" x1="199.937" x2="114.35" y1="458.054" y2="1496.79" gradientUnits="userSpaceOnUse"><stop stop-color="#ef641d"/><stop offset="1" stop-color="#d66020"/></linearGradient><linearGradient id="y" x1="475.887" x2="395.563" y1="604.82" y2="815.23" gradientUnits="userSpaceOnUse"><stop stop-color="#d55b28" stop-opacity="0"/><stop offset=".195" stop-color="#d0490f"/><stop offset="1" stop-color="#c03b01"/></linearGradient><clipPath id="a"><path fill="#fff" d="M0 0h50v50H0z"/></clipPath></defs></svg>