<svg xmlns="http://www.w3.org/2000/svg" width="50" height="50" fill="none" viewBox="0 0 50 50"><path fill="#f29422" d="M17.42 50c.31-3.84.78-7.67 1.33-11.5.22-1.55.55-3.08.88-4.62.46-2.18 1.03-2.49 3.56-1.98 2.65.53 5.31 1.06 8.33 1.67-2.35-4.76-4.56-9.25-6.95-14.11-.52.83-.83 1.3-1.11 1.79-3.26 5.72-6.57 11.43-9.72 17.2-.86 1.57-1.91 2.24-3.99 2.21-5.57-.09-5.84-.37-3.4-4.71 4.21-7.5 8.47-14.97 12.63-22.5.79-1.43 1.76-2.02 3.67-1.97 8.41.24 6.12-1.14 9.42 5.36 3.45 6.79 6.76 13.63 10.12 20.46 1.26 2.54.65 3.48-2.57 3.27-3.31-.21-6.58-.83-9.86-1.31-1.03-.16-2.03-.44-3.18-.69-.39 2.1-.91 4.01-1.05 5.94-.16 2.12-1.1 3.56-3.52 4.27-.69.2-1.26.67-1.73 1.12-.78.1-1.72.1-2.86.1"/><path d="M18.75 38.5c.22-1.55.55-3.08.88-4.62.46-2.18 1.03-2.49 3.56-1.98 2.65.53 5.31 1.06 8.33 1.67-2.35-4.76-4.56-9.25-6.95-14.11-.52.83-.83 1.3-1.11 1.79-3.26 5.72-6.57 11.43-9.72 17.2-.86 1.57-1.91 2.24-3.99 2.21-5.57-.09-5.84-.37-3.4-4.71 4.21-7.5 8.47-14.97 12.63-22.5.79-1.43 1.76-2.02 3.67-1.97 8.41.24 6.12-1.14 9.42 5.36 3.45 6.79 6.76 13.63 10.12 20.46 1.26 2.54.65 3.48-2.57 3.27-3.31-.21-6.58-.83-9.86-1.31-1.03-.16-2.03-.44-3.18-.69-.39 2.1-.91 4.01-1.05 5.94-.16 2.12-1.1 3.56-3.52 4.27-.69.2-1.26.67-1.73 1.12-.78.1-1.72.1-2.86.1.31-3.84.78-7.67 1.33-11.5"/><path fill="#ee9221" d="M26.19 0c.34 1.61.49 3.23.62 4.85.1 1.15-.71 1.37-1.85 1.41-1.21.03-1.92-.28-1.8-1.41.17-1.51.36-3.02.51-4.69C24.42 0 25.21 0 26.19 0"/><path d="M26.81 4.85c.1 1.15-.71 1.37-1.85 1.41-1.21.03-1.92-.28-1.8-1.41.17-1.51.36-3.02.51-4.69C24.42 0 25.21 0 26.19 0c.34 1.61.49 3.23.62 4.85"/><path fill="#e0891f" d="M6.96 24.01c-2.11.28-4.18.46-6.24.44-.27 0-.83-1.11-.71-1.6.13-.49.91-1.14 1.49-1.22 1.4-.18 2.87-.16 4.29-.04 1.73.15 1.19 1.36 1.17 2.42"/><path d="M.72 24.45c-.27 0-.83-1.11-.71-1.6.13-.49.91-1.14 1.49-1.22 1.4-.18 2.87-.16 4.29-.04 1.73.15 1.19 1.36 1.17 2.42-2.11.28-4.18.46-6.24.44"/><path fill="#df891f" d="M49.18 21.81c1.47 1.87.93 2.9-1.41 3.01-.91.04-1.82-.02-2.73.02-1.36.06-2.11-.3-2.13-1.62-.02-1.3.69-1.75 2.06-1.69 1.35.06 2.7.13 4.21.28"/><path d="M47.77 24.82c-.91.04-1.82-.02-2.73.02-1.36.06-2.11-.3-2.13-1.62-.02-1.3.69-1.75 2.06-1.69 1.35.06 2.7.13 4.21.28 1.47 1.87.93 2.9-1.41 3.01"/><path fill="#e68d20" d="M39.76 12.2c-1.21 1.16-2.12.47-2.64-.3-.33-.5-.34-1.43 0-1.92.55-.81 1.38-1.61 2.32-2.07.75-.37 2.09-.57 2.71-.24 1.18.64.81 1.67-.07 2.48-.72.66-1.47 1.3-2.32 2.05"/><path d="M37.12 11.9c-.33-.5-.34-1.43 0-1.92.55-.81 1.38-1.61 2.32-2.07.75-.37 2.09-.57 2.71-.24 1.18.64.81 1.67-.07 2.48-.72.66-1.47 1.3-2.32 2.05-1.21 1.16-2.12.47-2.64-.3"/><path fill="#ef9221" d="M12.13 9.8c1.58 1.2.49 2.03-.49 2.56-.46.24-1.58-.05-2.16-.4-.92-.55-1.85-1.25-2.35-2.08-.36-.59-.02-1.5.01-2.26.88.04 1.9-.14 2.6.19.9.41 1.53 1.24 2.39 1.99"/><path d="M11.64 12.36c-.46.24-1.58-.05-2.16-.4-.92-.55-1.85-1.25-2.35-2.08-.36-.59-.02-1.5.01-2.26.88.04 1.9-.14 2.6.19.9.41 1.53 1.24 2.39 1.99 1.58 1.2.49 2.03-.49 2.56"/></svg>