<svg xmlns="http://www.w3.org/2000/svg" width="50" height="50" fill="none" viewBox="0 0 50 50"><path fill="#1928dc" d="M0 0h50v50H0z"/><path fill="#fff" d="M10.99 12.18v11.34H9.1v-9.71H5.88v9.71H4V12.18zM14.67 23.07c-.56-.52-.98-1.18-1.19-1.92-.31-1.04-.46-2.12-.44-3.2-.02-1.11.13-2.22.44-3.29.21-.76.62-1.45 1.19-2 .5-.43 1.14-.66 1.79-.66.66 0 1.3.23 1.79.66.58.54.99 1.23 1.19 2 .31 1.07.46 2.18.44 3.29.02 1.08-.13 2.16-.44 3.2-.21.74-.62 1.41-1.18 1.93-.51.41-1.14.63-1.8.63-.65 0-1.28-.23-1.79-.64m.47-2.87c.07.5.25.97.53 1.39.09.13.2.23.34.31q.21.12.45.12.705 0 1.11-1.02c.31-.99.45-2.03.4-3.06.01-.79-.05-1.58-.18-2.36-.07-.51-.25-1-.53-1.43a.9.9 0 0 0-.34-.34.8.8 0 0 0-.46-.13c-.16 0-.32.04-.46.13-.14.08-.25.2-.33.34-.28.43-.46.92-.53 1.43-.14.78-.2 1.56-.19 2.35-.01.76.05 1.52.19 2.27M25.76 12.18v4.35h-1c-.36.02-.72-.05-1.06-.19-.26-.14-.46-.38-.56-.66-.13-.38-.19-.8-.18-1.21v-2.29h-1.89v2.28c-.05.99.24 1.96.83 2.75.31.35.7.62 1.13.79s.89.25 1.36.22h1.37v5.3h1.89V12.18zM35.99 13.81h-2.22v9.71h-1.89v-9.71h-2.22v-1.63h6.33zM39.83 12.18h1.52c.62-.03 1.24.12 1.78.44.46.31.83.76 1.04 1.28.26.65.42 1.33.49 2.02l.87 7.58h-1.89l-.61-5.29h-3.21v5.31h-1.89V12.18zm0 4.42h3.02l-.08-.65c-.03-.42-.12-.83-.26-1.23a1.2 1.2 0 0 0-.53-.64c-.31-.15-.66-.22-1.02-.2h-1.13zM6.08 25.78c.63-.02 1.25.14 1.79.46.53.34.95.83 1.19 1.42.3.74.45 1.53.43 2.34.02.76-.11 1.51-.39 2.21-.21.55-.55 1.03-.99 1.41-.29.28-.68.44-1.08.47-.21.02-.42-.02-.62-.09-.2-.08-.37-.2-.52-.35v3.46H4V25.78zm-.09 5.87c.05.2.15.39.28.54.05.06.1.1.17.13.06.04.13.05.2.06.17-.01.32-.09.44-.21.18-.18.3-.4.37-.65.1-.38.15-.77.14-1.16 0-1.06-.13-1.81-.39-2.24-.11-.21-.27-.37-.47-.49-.19-.11-.42-.17-.65-.17h-.19v3.31c-.01.3.03.59.1.88M11.58 36.66a4.14 4.14 0 0 1-1.19-1.93 10.4 10.4 0 0 1-.44-3.19c-.02-1.11.13-2.22.44-3.29.21-.76.62-1.45 1.19-2 .5-.43 1.13-.66 1.79-.66s1.29.23 1.79.66c.57.55.98 1.24 1.19 2 .31 1.07.45 2.18.43 3.29a10.5 10.5 0 0 1-.41 3.2c-.21.74-.62 1.41-1.18 1.93-.51.41-1.14.64-1.8.64-.65 0-1.3-.23-1.81-.65m.47-2.86c.07.48.25.94.53 1.34a.95.95 0 0 0 .78.44c.47 0 .83-.34 1.1-1.02.32-.99.46-2.03.41-3.06.01-.79-.05-1.58-.18-2.36-.08-.5-.26-.99-.53-1.42-.08-.14-.2-.26-.34-.35a.93.93 0 0 0-.46-.12.93.93 0 0 0-.46.12c-.14.09-.25.21-.33.35-.28.45-.45.95-.52 1.47-.14.77-.2 1.56-.19 2.35-.01.75.05 1.51.19 2.26M18.08 28.34c.46-.86 1.18-1.54 2.06-1.94 1.04-.45 2.16-.66 3.28-.62v1.7c-1.35 0-2.37.33-3.09 1.02-.71.68-1.07 1.69-1.07 3.06s.36 2.27 1.07 2.91 1.75.96 3.09.96v1.68c-1.93 0-3.42-.46-4.47-1.4-1.05-.93-1.58-2.32-1.58-4.17-.04-1.11.2-2.21.71-3.2M24.44 28.34c.46-.86 1.18-1.54 2.07-1.94a7.45 7.45 0 0 1 3.26-.64v1.7c-1.35 0-2.37.34-3.09 1.02s-1.07 1.71-1.07 3.06c0 1.34.35 2.27 1.06 2.91q1.08.96 3.09.96v1.7c-1.93 0-3.42-.46-4.47-1.4-1.05-.93-1.58-2.32-1.58-4.17-.03-1.11.22-2.21.73-3.2M32.54 25.78v4.04l3.21-2.71 1.89-1.59v11.59h-1.89V29.4l-3.21 2.7v5.01h-1.89V25.78zM40.42 25.78v4.04l3.21-2.71 1.88-1.58v11.58h-1.89V29.4l-3.21 2.7v5.01h-1.88V25.78z"/></svg>