<svg xmlns="http://www.w3.org/2000/svg" width="50" height="50" fill="none" viewBox="0 0 50 50"><path fill="#ffd63c" d="M39.47 3.657c-3.26-1.941-7.764-1.659-12.754 1.287C16.814 10.802 8.807 25 8.84 36.659c.022 5.79 2.016 9.865 5.232 11.784l-3.54-2.112c-3.216-1.919-5.21-5.993-5.23-11.784C5.267 22.889 13.274 8.69 23.176 2.832c4.99-2.946 9.494-3.217 12.755-1.275z"/><path fill="#000" d="M14.072 48.751a.3.3 0 0 1-.152-.042l-.002-.001-3.536-2.11C6.932 44.54 5.022 40.26 5 34.547 4.966 22.814 13.053 8.466 23.026 2.566 27.948-.34 32.584-.795 36.083 1.29L39.6 3.378l.02.012a.313.313 0 0 1 .11.422.3.3 0 0 1-.414.11l-.016-.009c-3.296-1.951-7.711-1.49-12.434 1.298C17.06 11.012 9.109 25.12 9.14 36.66c.021 5.484 1.826 9.575 5.082 11.517a.313.313 0 0 1 .11.422.3.3 0 0 1-.261.153M31.217.618c-2.412 0-5.098.833-7.89 2.482C13.52 8.9 5.57 23.008 5.602 34.547c.02 5.484 1.826 9.574 5.082 11.517l.726.433c-1.854-2.334-2.855-5.711-2.87-9.836-.034-11.737 8.053-26.085 18.026-31.984 3.57-2.108 6.987-2.93 9.93-2.429l-.716-.425C34.428 1.019 32.888.618 31.217.618"/><path fill="#fff" d="M26.715 4.944C36.624-.918 44.667 3.787 44.7 15.446c.032 11.65-7.959 25.858-17.867 31.72C16.93 53.024 8.874 48.31 8.842 36.66c-.033-11.659 7.972-25.858 17.873-31.716"/><path fill="#e9edf4" d="M36.137 2.511c5.276 7 6.386 17.368 2.055 26.655C32.727 40.89 20.51 46.773 9.937 43.233c2.52 6.624 9.152 8.513 16.893 3.938 9.907-5.872 17.903-20.076 17.87-31.73-.022-7.592-3.443-12.235-8.563-12.93"/><path fill="#000" d="M18.792 50c-1.764 0-3.395-.422-4.836-1.271-3.477-2.05-5.4-6.336-5.416-12.068-.032-11.737 8.053-26.085 18.025-31.984 4.903-2.901 9.528-3.363 13.025-1.303C43.063 5.422 44.984 9.71 45 15.445c.032 11.741-8.05 26.091-18.018 31.988C24.1 49.139 21.312 50 18.792 50m15.97-47.276c-2.415 0-5.103.835-7.896 2.487C17.06 11.012 9.11 25.12 9.143 36.66c.015 5.502 1.83 9.599 5.113 11.535 3.306 1.948 7.72 1.489 12.425-1.295 9.8-5.799 17.748-19.908 17.717-31.452-.016-5.507-1.83-9.604-5.108-11.538-1.344-.792-2.872-1.185-4.529-1.185"/><path fill="#ffd63c" d="M26.85 12.76c6.255-3.7 11.343-.73 11.363 6.636.02 7.373-5.034 16.337-11.29 20.038-6.255 3.7-11.349.741-11.37-6.632-.02-7.366 5.042-16.341 11.297-20.042"/><path fill="#f4c531" d="M38.211 19.396c.02 7.372-5.032 16.34-11.283 20.037-5.299 3.13-9.757 1.502-11.018-3.539l.339.19c5.565 2.971 12.964-.316 16.52-7.331 3.32-6.532 2.132-14-2.541-17.38 4.611-1.04 7.963 2.047 7.983 8.022"/><path fill="#000" d="M21.835 41.342c-1.133 0-2.183-.272-3.11-.819-2.229-1.314-3.462-4.056-3.472-7.72-.021-7.453 5.114-16.564 11.446-20.31 3.134-1.854 6.095-2.145 8.34-.82 2.231 1.315 3.465 4.057 3.475 7.722.021 7.452-5.11 16.562-11.44 20.306-1.842 1.09-3.626 1.64-5.24 1.64M27 13.027C20.835 16.675 15.835 25.546 15.855 32.8c.01 3.435 1.136 5.987 3.171 7.188 2.053 1.211 4.805.919 7.747-.822 6.162-3.646 11.16-12.515 11.14-19.77-.01-3.436-1.137-5.989-3.174-7.19-2.05-1.208-4.8-.918-7.738.82"/><path fill="#000" d="M31.442 25.058c.422-.25.755-.013.69.517-.366 3.227-2.562 6.839-5.223 8.413-1.46.864-2.783.942-3.74.384-.787-.467-1.327-1.357-1.5-2.607-.068-.45.263-1.08.685-1.33zM22.208 23.234c.959-.568 1.74-.112 1.743 1.018.003 1.122-.773 2.5-1.732 3.067-.96.568-1.735.108-1.738-1.014-.003-1.13.767-2.504 1.726-3.071M31.542 17.71c.954-.563 1.74-.11 1.744 1.02.003 1.122-.779 2.502-1.732 3.066-.966.572-1.74.112-1.744-1.01-.003-1.13.767-2.504 1.732-3.075"/></svg>