<svg xmlns="http://www.w3.org/2000/svg" width="50" height="50" fill="none" viewBox="0 0 50 50"><path fill="#f1c285" d="M15.37 50s-.02 0-.04-.02c-.12-.03-.21-.07-.31-.07H4.41c-.06 0-.13.01-.19-.01a.27.27 0 0 1-.13-.13c-.02-.06-.01-.14-.01-.22V.25c-.01-.12.04-.18.17-.17h41.48c.14-.01.2.06.18.19v49.39c.03.2-.05.25-.24.25-2.35 0-4.71 0-7.06-.01-.08 0-.16-.04-.23-.07.36-.34.72-.67 1.07-1.01q.585-.57 1.17-1.17c.1-.11.21-.16.36-.16.62.01 1.25.01 1.87.01h.66V22.84c-.26 1.36-.5 2.67-.75 3.96-.08.44-.14.89-.3 1.29-.35.86-.91 1.6-1.63 2.16-1.11.86-2.24 1.7-3.41 2.47-1.59 1.04-3.17 2.09-4.54 3.42-.05.05-.1.1-.15.16.01.02.01.04.02.06 1.57 0 3.15.01 4.72 0 .65 0 1.31-.05 1.96-.07.1 0 .2.05.3.1-.01.08-.02.14-.04.21-.26 1.1-.85 1.97-1.87 2.51-.03.02-.04.07-.07.12-.01.02 0 .03.01.03l-.01-.01c-.41.34-.81.67-1.19 1.03-1.47 1.35-2.89 2.75-4.4 4.05-1.55 1.33-3.17 2.57-4.76 3.86-.15.12-.27.27-.4.4h-.01c-.02.01-.03.03-.05.05-.65.43-1.28.85-1.92 1.27h-5.41c-.11 0-.21-.03-.32-.06.38-.26.74-.5 1.11-.74 1.14-.74 2.29-1.48 3.43-2.22 2.14-1.39 4.27-2.77 6.4-4.16 1.34-.88 2.67-1.79 3.86-2.88.56-.51 1.09-1.05 1.44-1.73.27-.53.16-.75-.42-.85-.03 0-.05 0-.08-.01-.99-.2-1.98-.38-2.96-.61-1.01-.24-2.01-.53-3.02-.8-.57-.16-1.13-.32-1.68-.49.09-.04.17-.07.25-.07.22-.02.46.01.67-.04.62-.15 1.17-.44 1.63-.88.52-.5 1.01-1.03 1.5-1.56.87-.93 1.85-1.68 3.06-2.11.4-.14.57-.42.72-.77.03-.06.05-.12.08-.18.73-1.59 1.21-3.24 1.14-5.02-.05-1.02-.29-1.98-.8-2.87-.13-.25-.3-.48-.45-.72-.02.01-.04.02-.06.02.04 1.51-.13 2.97-.77 4.35-.05-.08-.05-.16-.05-.23.01-1.05.01-2.1-.18-3.14-.15-.82-.42-1.58-1.07-2.14-.3-.26-.64-.48-.94-.74-.64-.54-1.26-1.1-1.9-1.64-.55-.46-1.15-.87-1.89-.98-.48-.07-1.04.24-1.19.68.04 0 .08.01.13.01.55.05.85.38.84.94-.02.64-.57 1.32-1.24 1.5-.67.19-1.29.05-1.88-.27-.46-.26-.7-.63-.67-1.18.02-.53.25-.98.52-1.41.71-1.13 1.58-2.13 2.44-3.13.13-.15.24-.3.35-.45l-.03-.06c-.06 0-.13-.01-.18 0-.67.18-1.35.31-1.99.55-2.14.81-4.16 1.9-6.05 3.2-.65.45-1.3.94-1.77 1.6-.12.16-.2.36-.32.6.16-.01.24-.01.32-.03.42-.12.84-.25 1.27-.37.28-.07.56-.15.84-.21.07-.02.15.03.22.05-.03.07-.04.16-.09.2-.13.13-.28.26-.43.36-.71.48-1.43.93-2.12 1.43-.96.69-1.88 1.44-2.59 2.41-.51.69-.87 1.44-.9 2.32-.03 1.01.3 1.9.82 2.74.48.78.88 1.58.79 2.54-.01.18-.03.36-.05.55-.03 0-.05 0-.07.01-.03-.07-.06-.13-.08-.19-.2-.52-.47-1-.82-1.43-.18-.21-.37-.41-.56-.62-.41-.44-.73-.95-.96-1.55-.03.08-.04.11-.05.14-.17 1.03-.26 2.05-.14 3.09.08.71.26 1.4.57 2.05.46.97 1.16 1.73 2.05 2.34-.1.08-.2.14-.3.21-.61.39-1.2.81-1.64 1.41-.56.78-.57 1.55 0 2.32.4.54.94.9 1.51 1.24.17.1.34.19.54.31-.06.04-.1.07-.13.08-1 .3-2 .61-3 .91a.47.47 0 0 1-.3-.06c-2.3-1.2-4.27-2.78-5.67-5v4.42c0 .4.01.8.01 1.22.06.14.11.27.17.42v4.98h12.83c-.16.15-.34.24-.52.35-.86.52-1.72 1.04-2.57 1.57-.29.18-.57.38-.85.57m7.11-46.06s-.01-.01 0-.04c.35-.47.71-.93 1.07-1.4H6.48v5.37c0 .11-.05.22-.07.33-.03.14-.1.28-.1.41-.01 6.16-.01 12.32-.01 18.48v.24c.13-.24.23-.45.36-.65 1-1.62 2.22-3.07 3.55-4.42 1.75-1.76 3.67-3.34 5.65-4.84l.17-.14a.2.2 0 0 0-.04-.05c-3.26 1.24-6.08 3.14-8.43 5.76-.02-.07-.03-.12-.02-.16.09-.71.18-1.42.29-2.12.29-1.87.63-3.72 1.08-5.55.42-1.69 1.34-3.01 2.74-4 1.07-.75 2.16-1.47 3.26-2.18 2.81-1.85 5.78-3.41 8.84-4.8 1.14-.51 2.28-1.02 3.44-1.53-.19.02-.38.02-.56.05-.97.15-1.91.42-2.83.75-.44.16-.87.34-1.32.49m2 8.37c-.06-.06-.13-.12-.19-.17l-.19-.16c.06-.06.11-.13.18-.17.3-.19.62-.35.92-.55 1.4-.97 2.61-2.15 3.74-3.42.75-.85 1.41-1.76 1.99-2.74.03-.06.06-.13.09-.19l-.06-.03c-.27.23-.53.46-.8.69-1.45 1.22-3.04 2.15-4.91 2.57-.46.11-.95.19-1.37.41-2.02 1.04-4.04 2.11-6.04 3.2-.79.43-1.54.93-2.3 1.41-.11.07-.19.18-.29.27.02.03.03.06.04.09.17-.02.35-.02.51-.06 1.41-.4 2.81-.81 4.22-1.2.43-.11.88-.19 1.32-.27.06-.01.13.04.19.06-.03.06-.04.14-.09.19-.06.07-.13.13-.2.19-.29.23-.59.44-.86.68-.28.25-.54.52-.79.8-.13.15-.06.27.14.26.14 0 .29-.02.42-.07 1.16-.41 2.33-.81 3.48-1.25.3-.11.57-.33.85-.54m14.65 7.26c.13.19.26.39.39.58.6.83.89 1.75.82 2.79-.03.56-.17 1.05-.57 1.46-.28.29-.53.61-.79.93-.05.07-.09.21-.06.27.04.07.18.11.26.1.38-.06.76-.15 1.13-.21.19-.03.3-.14.36-.31.08-.25.18-.49.23-.75.23-1.2.43-2.42.67-3.62.16-.81.03-1.57-.27-2.32-.52-1.3-1.31-2.43-2.23-3.47-.08-.1-.17-.19-.28-.3-.62 1.68-.79 3.3.34 4.85M7.56 33.78c.36 1.58 1.16 2.91 2.25 4.1.04-.65.08-1.29.05-1.93-.02-.84-.19-1.65-.58-2.42-.18-.35-.3-.74-.35-1.13-.09-.79-.01-1.58.14-2.35.2-1.1.44-2.18.67-3.27.02-.11.04-.22.07-.32.02-.11.05-.21.07-.32-.02 0-.04-.01-.06-.01-1.93 2.18-2.91 4.65-2.26 7.65m21.49-21.43c.18-.01.37 0 .54-.04 1.06-.29 1.95-.87 2.69-1.69.11-.13.2-.29.27-.44.12-.29.01-.49-.3-.5-.18-.01-.37.02-.55.07-.81.22-1.5.66-2.13 1.2-.31.26-.61.54-.75.94-.08.24-.04.33.23.46m-18.72 13.6c-.09.47-.08.94.01 1.36.4-.66.82-1.33 1.22-2.01.28-.47.57-.95.8-1.45.27-.57.36-1.2.43-1.86-.06.04-.08.05-.09.07-.48.64-.96 1.27-1.42 1.91-.43.59-.8 1.21-.95 1.98m22.68-8.9c-.54-.5-1.52-.44-1.86-.05.25.23.49.46.74.67.75.64 1.5 1.29 2.1 2.09.03.03.1.08.13.06.05-.02.11-.09.11-.14a.6.6 0 0 0-.05-.27c-.28-.64-.56-1.28-.86-1.91-.07-.15-.19-.29-.31-.45"/><path fill="none" d="M15.33 49.98c-.12-.03-.21-.07-.31-.07H4.41c-.06 0-.13.01-.19-.01a.27.27 0 0 1-.13-.13c-.02-.06-.01-.14-.01-.22V.25c-.01-.12.04-.18.17-.17h41.48c.14-.01.2.06.18.19v49.39c.03.2-.05.25-.24.25-2.35 0-4.71 0-7.06-.01-.08 0-.16-.04-.23-.07.36-.34.72-.67 1.07-1.01q.585-.57 1.17-1.17c.1-.11.21-.16.36-.16.62.01 1.25.01 1.87.01h.66V22.84c-.26 1.36-.5 2.67-.75 3.96-.08.44-.14.89-.3 1.29-.35.86-.91 1.6-1.63 2.16-1.11.86-2.24 1.7-3.41 2.47-1.59 1.04-3.17 2.09-4.54 3.42-.05.05-.1.1-.15.16.01.02.01.04.02.06 1.57 0 3.15.01 4.72 0 .65 0 1.31-.05 1.96-.07.1 0 .2.05.3.1-.01.08-.02.14-.04.21-.26 1.1-.85 1.97-1.87 2.51-.03.02-.04.07-.07.12-.01.02 0 .03.01.03l-.01-.01c-.41.34-.81.67-1.19 1.03-1.47 1.35-2.89 2.75-4.4 4.05-1.55 1.33-3.17 2.57-4.76 3.86-.15.12-.27.27-.4.4h-.01c-.02.01-.03.03-.05.05-.65.43-1.28.85-1.92 1.27h-5.41c-.11 0-.21-.03-.32-.06.38-.26.74-.5 1.11-.74 1.14-.74 2.29-1.48 3.43-2.22 2.14-1.39 4.27-2.77 6.4-4.16 1.34-.88 2.67-1.79 3.86-2.88.56-.51 1.09-1.05 1.44-1.73.27-.53.16-.75-.42-.85-.03 0-.05 0-.08-.01-.99-.2-1.98-.38-2.96-.61-1.01-.24-2.01-.53-3.02-.8-.57-.16-1.13-.32-1.68-.49.09-.04.17-.07.25-.07.22-.02.46.01.67-.04.62-.15 1.17-.44 1.63-.88.52-.5 1.01-1.03 1.5-1.56.87-.93 1.85-1.68 3.06-2.11.4-.14.57-.42.72-.77.03-.06.05-.12.08-.18.73-1.59 1.21-3.24 1.14-5.02-.05-1.02-.29-1.98-.8-2.87-.13-.25-.3-.48-.45-.72-.02.01-.04.02-.06.02.04 1.51-.13 2.97-.77 4.35-.05-.08-.05-.16-.05-.23.01-1.05.01-2.1-.18-3.14-.15-.82-.42-1.58-1.07-2.14-.3-.26-.64-.48-.94-.74-.64-.54-1.26-1.1-1.9-1.64-.55-.46-1.15-.87-1.89-.98-.48-.07-1.04.24-1.19.68.04 0 .08.01.13.01.55.05.85.38.84.94-.02.64-.57 1.32-1.24 1.5-.67.19-1.29.05-1.88-.27-.46-.26-.7-.63-.67-1.18.02-.53.25-.98.52-1.41.71-1.13 1.58-2.13 2.44-3.13.13-.15.24-.3.35-.45l-.03-.06c-.06 0-.13-.01-.18 0-.67.18-1.35.31-1.99.55-2.14.81-4.16 1.9-6.05 3.2-.65.45-1.3.94-1.77 1.6-.12.16-.2.36-.32.6.16-.01.24-.01.32-.03.42-.12.84-.25 1.27-.37.28-.07.56-.15.84-.21.07-.02.15.03.22.05-.03.07-.04.16-.09.2-.13.13-.28.26-.43.36-.71.48-1.43.93-2.12 1.43-.96.69-1.88 1.44-2.59 2.41-.51.69-.87 1.44-.9 2.32-.03 1.01.3 1.9.82 2.74.48.78.88 1.58.79 2.54-.01.18-.03.36-.05.55-.03 0-.05 0-.07.01-.03-.07-.06-.13-.08-.19-.2-.52-.47-1-.82-1.43-.18-.21-.37-.41-.56-.62-.41-.44-.73-.95-.96-1.55-.03.08-.04.11-.05.14-.17 1.03-.26 2.05-.14 3.09.08.71.26 1.4.57 2.05.46.97 1.16 1.73 2.05 2.34-.1.08-.2.14-.3.21-.61.39-1.2.81-1.64 1.41-.56.78-.57 1.55 0 2.32.4.54.94.9 1.51 1.24.17.1.34.19.54.31-.06.04-.1.07-.13.08-1 .3-2 .61-3 .91a.47.47 0 0 1-.3-.06c-2.3-1.2-4.27-2.78-5.67-5v4.42c0 .4.01.8.01 1.22.06.14.11.27.17.42v4.98h12.83c-.16.15-.34.24-.52.35-.86.52-1.72 1.04-2.57 1.57-.29.18-.57.38-.85.57 0 0-.02 0-.04-.02M22.48 3.9c.35-.47.71-.93 1.07-1.4H6.48v5.37c0 .11-.05.22-.07.33-.03.14-.1.28-.1.41-.01 6.16-.01 12.32-.01 18.48v.24c.13-.24.23-.45.36-.65 1-1.62 2.22-3.07 3.55-4.42 1.75-1.76 3.67-3.34 5.65-4.84l.17-.14a.2.2 0 0 0-.04-.05c-3.26 1.24-6.08 3.14-8.43 5.76-.02-.07-.03-.12-.02-.16.09-.71.18-1.42.29-2.12.29-1.87.63-3.72 1.08-5.55.42-1.69 1.34-3.01 2.74-4 1.07-.75 2.16-1.47 3.26-2.18 2.81-1.85 5.78-3.41 8.84-4.8 1.14-.51 2.28-1.02 3.44-1.53-.19.02-.38.02-.56.05-.97.15-1.91.42-2.83.75-.44.16-.87.34-1.32.49 0 0-.01-.01 0-.04m1.81 8.24-.19-.16c.06-.06.11-.13.18-.17.3-.19.62-.35.92-.55 1.4-.97 2.61-2.15 3.74-3.42.75-.85 1.41-1.76 1.99-2.74.03-.06.06-.13.09-.19l-.06-.03c-.27.23-.53.46-.8.69-1.45 1.22-3.04 2.15-4.91 2.57-.46.11-.95.19-1.37.41-2.02 1.04-4.04 2.11-6.04 3.2-.79.43-1.54.93-2.3 1.41-.11.07-.19.18-.29.27.02.03.03.06.04.09.17-.02.35-.02.51-.06 1.41-.4 2.81-.81 4.22-1.2.43-.11.88-.19 1.32-.27.06-.01.13.04.19.06-.03.06-.04.14-.09.19-.06.07-.13.13-.2.19-.29.23-.59.44-.86.68-.28.25-.54.52-.79.8-.13.15-.06.27.14.26.14 0 .29-.02.42-.07 1.16-.41 2.33-.81 3.48-1.25.3-.11.57-.33.85-.54-.06-.06-.13-.12-.19-.17m15.23 8.01c.6.83.89 1.75.82 2.79-.03.56-.17 1.05-.57 1.46-.28.29-.53.61-.79.93-.05.07-.09.21-.06.27.04.07.18.11.26.1.38-.06.76-.15 1.13-.21.19-.03.3-.14.36-.31.08-.25.18-.49.23-.75.23-1.2.43-2.42.67-3.62.16-.81.03-1.57-.27-2.32-.52-1.3-1.31-2.43-2.23-3.47-.08-.1-.17-.19-.28-.3-.62 1.68-.79 3.3.34 4.85.13.19.26.39.39.58M9.81 37.88c.04-.65.08-1.29.05-1.93-.02-.84-.19-1.65-.58-2.42-.18-.35-.3-.74-.35-1.13-.09-.79-.01-1.58.14-2.35.2-1.1.44-2.18.67-3.27.02-.11.04-.22.07-.32.02-.11.05-.21.07-.32-.02 0-.04-.01-.06-.01-1.93 2.18-2.91 4.65-2.26 7.65.36 1.58 1.16 2.91 2.25 4.1m19.78-25.57c1.06-.29 1.95-.87 2.69-1.69.11-.13.2-.29.27-.44.12-.29.01-.49-.3-.5-.18-.01-.37.02-.55.07-.81.22-1.5.66-2.13 1.2-.31.26-.61.54-.75.94-.08.24-.04.33.23.46.18-.01.37 0 .54-.04m-19.25 15c.4-.66.82-1.33 1.22-2.01.28-.47.57-.95.8-1.45.27-.57.36-1.2.43-1.86-.06.04-.08.05-.09.07-.48.64-.96 1.27-1.42 1.91-.43.59-.8 1.21-.95 1.98-.09.47-.08.94.01 1.36M31.15 17c.25.23.49.46.74.67.75.64 1.5 1.29 2.1 2.09.03.03.1.08.13.06.05-.02.11-.09.11-.14a.6.6 0 0 0-.05-.27c-.28-.64-.56-1.28-.86-1.91-.07-.15-.19-.29-.31-.45-.54-.5-1.52-.44-1.86-.05"/><path d="M15.02 49.91H4.41c-.06 0-.13.01-.19-.01a.27.27 0 0 1-.13-.13c-.02-.06-.01-.14-.01-.22V.25c-.01-.12.04-.18.17-.17h41.48c.14-.01.2.06.18.19v49.39c.03.2-.05.25-.24.25-2.35 0-4.71 0-7.06-.01-.08 0-.16-.04-.23-.07.36-.34.72-.67 1.07-1.01q.585-.57 1.17-1.17c.1-.11.21-.16.36-.16.62.01 1.25.01 1.87.01h.66V22.84c-.26 1.36-.5 2.67-.75 3.96-.08.44-.14.89-.3 1.29-.35.86-.91 1.6-1.63 2.16-1.11.86-2.24 1.7-3.41 2.47-1.59 1.04-3.17 2.09-4.54 3.42-.05.05-.1.1-.15.16.01.02.01.04.02.06 1.57 0 3.15.01 4.72 0 .65 0 1.31-.05 1.96-.07.1 0 .2.05.3.1-.01.08-.02.14-.04.21-.26 1.1-.85 1.97-1.87 2.51-.03.02-.04.07-.07.12-.01.02 0 .03.01.03l-.01-.01c-.41.34-.81.67-1.19 1.03-1.47 1.35-2.89 2.75-4.4 4.05-1.55 1.33-3.17 2.57-4.76 3.86-.15.12-.27.27-.4.4h-.01c-.02.01-.03.03-.05.05-.65.43-1.28.85-1.92 1.27h-5.41c-.11 0-.21-.03-.32-.06.38-.26.74-.5 1.11-.74 1.14-.74 2.29-1.48 3.43-2.22 2.14-1.39 4.27-2.77 6.4-4.16 1.34-.88 2.67-1.79 3.86-2.88.56-.51 1.09-1.05 1.44-1.73.27-.53.16-.75-.42-.85-.03 0-.05 0-.08-.01-.99-.2-1.98-.38-2.96-.61-1.01-.24-2.01-.53-3.02-.8-.57-.16-1.13-.32-1.68-.49.09-.04.17-.07.25-.07.22-.02.46.01.67-.04.62-.15 1.17-.44 1.63-.88.52-.5 1.01-1.03 1.5-1.56.87-.93 1.85-1.68 3.06-2.11.4-.14.57-.42.72-.77.03-.06.05-.12.08-.18.73-1.59 1.21-3.24 1.14-5.02-.05-1.02-.29-1.98-.8-2.87-.13-.25-.3-.48-.45-.72-.02.01-.04.02-.06.02.04 1.51-.13 2.97-.77 4.35-.05-.08-.05-.16-.05-.23.01-1.05.01-2.1-.18-3.14-.15-.82-.42-1.58-1.07-2.14-.3-.26-.64-.48-.94-.74-.64-.54-1.26-1.1-1.9-1.64-.55-.46-1.15-.87-1.89-.98-.48-.07-1.04.24-1.19.68.04 0 .08.01.13.01.55.05.85.38.84.94-.02.64-.57 1.32-1.24 1.5-.67.19-1.29.05-1.88-.27-.46-.26-.7-.63-.67-1.18.02-.53.25-.98.52-1.41.71-1.13 1.58-2.13 2.44-3.13.13-.15.24-.3.35-.45l-.03-.06c-.06 0-.13-.01-.18 0-.67.18-1.35.31-1.99.55-2.14.81-4.16 1.9-6.05 3.2-.65.45-1.3.94-1.77 1.6-.12.16-.2.36-.32.6.16-.01.24-.01.32-.03.42-.12.84-.25 1.27-.37.28-.07.56-.15.84-.21.07-.02.15.03.22.05-.03.07-.04.16-.09.2-.13.13-.28.26-.43.36-.71.48-1.43.93-2.12 1.43-.96.69-1.88 1.44-2.59 2.41-.51.69-.87 1.44-.9 2.32-.03 1.01.3 1.9.82 2.74.48.78.88 1.58.79 2.54-.01.18-.03.36-.05.55-.03 0-.05 0-.07.01-.03-.07-.06-.13-.08-.19-.2-.52-.47-1-.82-1.43-.18-.21-.37-.41-.56-.62-.41-.44-.73-.95-.96-1.55-.03.08-.04.11-.05.14-.17 1.03-.26 2.05-.14 3.09.08.71.26 1.4.57 2.05.46.97 1.16 1.73 2.05 2.34-.1.08-.2.14-.3.21-.61.39-1.2.81-1.64 1.41-.56.78-.57 1.55 0 2.32.4.54.94.9 1.51 1.24.17.1.34.19.54.31-.06.04-.1.07-.13.08-1 .3-2 .61-3 .91a.47.47 0 0 1-.3-.06c-2.3-1.2-4.27-2.78-5.67-5v4.42c0 .4.01.8.01 1.22.06.14.11.27.17.42v4.98h12.83c-.16.15-.34.24-.52.35-.86.52-1.72 1.04-2.57 1.57-.29.18-.57.38-.85.57 0 0-.02 0-.04-.02-.12-.03-.21-.07-.31-.07M23.55 2.5H6.48v5.37c0 .11-.05.22-.07.33-.03.14-.1.28-.1.41-.01 6.16-.01 12.32-.01 18.48v.24c.13-.24.23-.45.36-.65 1-1.62 2.22-3.07 3.55-4.42 1.75-1.76 3.67-3.34 5.65-4.84l.17-.14a.2.2 0 0 0-.04-.05c-3.26 1.24-6.08 3.14-8.43 5.76-.02-.07-.03-.12-.02-.16.09-.71.18-1.42.29-2.12.29-1.87.63-3.72 1.08-5.55.42-1.69 1.34-3.01 2.74-4 1.07-.75 2.16-1.47 3.26-2.18 2.81-1.85 5.78-3.41 8.84-4.8 1.14-.51 2.28-1.02 3.44-1.53-.19.02-.38.02-.56.05-.97.15-1.91.42-2.83.75-.44.16-.87.34-1.32.49 0 0-.01-.01 0-.04.35-.47.71-.93 1.07-1.4m8.17 12.88c.3-.2.6-.42.91-.6 1.39-.82 2.9-1.36 4.48-1.66 1.29-.25 2.57-.37 3.88-.26.09.01.21.06.27.13.57.61 1.07 1.27 1.44 2.02.31.65.56 1.32.8 1.88V2.5c-.03-.01-.06-.01-.08-.01-3.11-.01-6.23 0-9.34-.01-.14 0-.19.06-.22.17-.17.55-.23 1.1-.21 1.66.05 1.05.38 2.03.75 2.99.02.04.05.06.08.11-.18-1.61.2-3.49.77-3.79.01.03.02.05.02.08.06.63.24 1.23.5 1.8.64 1.44 1.64 2.58 2.84 3.58.25.21.48.47.63.76.38.72.04 1.44-.73 1.67-1.24.37-2.45.81-3.64 1.4m-10.77-.93c.06-.06.11-.13.18-.17.3-.19.62-.35.92-.55 1.4-.97 2.61-2.15 3.74-3.42.75-.85 1.41-1.76 1.99-2.74.03-.06.06-.13.09-.19l-.06-.03c-.27.23-.53.46-.8.69-1.45 1.22-3.04 2.15-4.91 2.57-.46.11-.95.19-1.37.41-2.02 1.04-4.04 2.11-6.04 3.2-.79.43-1.54.93-2.3 1.41-.11.07-.19.18-.29.27.02.03.03.06.04.09.17-.02.35-.02.51-.06 1.41-.4 2.81-.81 4.22-1.2.43-.11.88-.19 1.32-.27.06-.01.13.04.19.06-.03.06-.04.14-.09.19-.06.07-.13.13-.2.19-.29.23-.59.44-.86.68-.28.25-.54.52-.79.8-.13.15-.06.27.14.26.14 0 .29-.02.42-.07 1.16-.41 2.33-.81 3.48-1.25.3-.11.57-.33.85-.54-.06-.06-.13-.12-.19-.17zm16.24 10.96c-.03.56-.17 1.05-.57 1.46-.28.29-.53.61-.79.93-.05.07-.09.21-.06.27.04.07.18.11.26.1.38-.06.76-.15 1.13-.21.19-.03.3-.14.36-.31.08-.25.18-.49.23-.75.23-1.2.43-2.42.67-3.62.16-.81.03-1.57-.27-2.32-.52-1.3-1.31-2.43-2.23-3.47-.08-.1-.17-.19-.28-.3-.62 1.68-.79 3.3.34 4.85.13.19.26.39.39.58.6.83.89 1.75.82 2.79M9.86 35.95c-.02-.84-.19-1.65-.58-2.42-.18-.35-.3-.74-.35-1.13-.09-.79-.01-1.58.14-2.35.2-1.1.44-2.18.67-3.27.02-.11.04-.22.07-.32.02-.11.05-.21.07-.32-.02 0-.04-.01-.06-.01-1.93 2.18-2.91 4.65-2.26 7.65.36 1.58 1.16 2.91 2.25 4.1.04-.65.08-1.29.05-1.93m22.42-25.33c.11-.13.2-.29.27-.44.12-.29.01-.49-.3-.5-.18-.01-.37.02-.55.07-.81.22-1.5.66-2.13 1.2-.31.26-.61.54-.75.94-.08.24-.04.33.23.46.18-.01.37 0 .54-.04 1.06-.29 1.95-.87 2.69-1.69M11.56 25.3c.28-.47.57-.95.8-1.45.27-.57.36-1.2.43-1.86-.06.04-.08.05-.09.07-.48.64-.96 1.27-1.42 1.91-.43.59-.8 1.21-.95 1.98-.09.47-.08.94.01 1.36.4-.66.82-1.33 1.22-2.01m20.33-7.63c.75.64 1.5 1.29 2.1 2.09.03.03.1.08.13.06.05-.02.11-.09.11-.14a.6.6 0 0 0-.05-.27c-.28-.64-.56-1.28-.86-1.91-.07-.15-.19-.29-.31-.45-.54-.5-1.52-.44-1.86-.05.25.23.49.46.74.67"/><path fill="#1c1b1b" d="M6.31 42.09c0-.4-.01-.8-.01-1.2v-4.42c1.4 2.22 3.37 3.8 5.67 5 .09.05.21.08.3.06 1-.3 2-.61 3-.91.03-.01.07-.04.13-.08-.2-.11-.37-.21-.54-.31-.57-.34-1.11-.7-1.51-1.24-.57-.77-.57-1.54 0-2.32.44-.6 1.03-1.02 1.64-1.41.1-.06.2-.13.31-.21.06-.03.09-.05.12-.07 1.31-.7 2.66-1.26 4.1-1.63a.37.37 0 0 0 .19-.18c.17-.44.33-.89.5-1.33.16-.43.34-.51.78-.37.24.08.48.19.72.29.15.06.23.03.28-.13.29-.82.59-1.63.88-2.45.1-.27.09-.27-.17-.37-.59-.21-1.17-.41-1.75-.63-.31-.12-.36-.26-.26-.58.02-.06.04-.13.06-.19.44-1.26.88-2.53 1.33-3.79.21-.58.4-1.16.66-1.72.21-.48.6-.83 1.14-.92.56-.1 1.12-.05 1.66.13.58.2 1.16.42 1.74.62.54.18 1.08.36 1.52.73.36.3.69.62.76 1.11.06.42 0 .82-.14 1.21-.44 1.24-.89 2.48-1.33 3.73-.17.47-.32.95-.49 1.43-.13.38-.31.45-.68.33l-1.41-.48c-.41-.14-.41-.14-.56.28-.27.75-.53 1.51-.8 2.27-.1.28-.1.3.19.41.3.11.61.19.9.32.33.14.39.33.27.67-.1.29-.2.58-.32.86-.04.12-.03.2.1.23.69.18 1.38.36 2.07.55.56.15 1.12.31 1.69.47 1.01.27 2.01.56 3.02.8.98.23 1.97.41 2.96.61.03.01.05.01.08.01.58.1.69.32.42.85-.35.68-.88 1.22-1.44 1.73-1.19 1.1-2.52 2-3.86 2.88-2.13 1.39-4.26 2.77-6.4 4.16-1.14.74-2.29 1.48-3.43 2.22-.37.24-.73.48-1.12.75-.05.05-.09.09-.12.14h-3.77c.26-.19.54-.39.83-.57.85-.53 1.71-1.05 2.57-1.57.18-.1.36-.2.52-.35H6.48c0-1.67 0-3.31.02-4.98q.09.045.15.12a26 26 0 0 0 5.77 4.22c.16.09.37.09.55.13.01-.02.01-.04.02-.06a26.36 26.36 0 0 1-5.21-3.51c-.5-.44-.98-.89-1.47-1.34m9.31-6.83c-.75.39-1.44.86-1.97 1.53-.57.73-.55 1.42.05 2.14.06.08.13.15.21.22.51.49 1.12.85 1.75 1.16.1.04.25.04.35-.01.96-.48 1.91-.97 2.87-1.46a.17.17 0 0 1 .14.01c-.6.83-1.46 1.37-2.31 1.91.04.04.04.06.06.06 1.38.58 2.82.97 4.32.95.8-.01 1.6-.23 2.39-.41 1.22-.28 2.35-.82 3.48-1.35 1.34-.63 2.65-1.32 3.87-2.18.05-.04.1-.09.17-.15-.05-.03-.07-.04-.09-.05-1.14-.3-2.29-.6-3.43-.91-.87-.23-1.75-.46-2.62-.71-.15-.04-.23-.02-.27.14-.04.13-.1.27-.16.4-.17.38-.32.46-.72.35-.39-.11-.78-.23-1.16-.36s-.34-.09-.45.21c-.41 1.05-.8 2.1-1.2 3.14-.23.59-.51 1.13-1.04 1.5-.15.11-.86-.1-.93-.27-.01-.02-.01-.04-.02-.06-.13-.5-.14-.99 0-1.49.08-.25.13-.5.2-.78.03-.09.06-.17.09-.26.21-.69.41-1.38.64-2.09.06-.21.11-.41.18-.61.04-.13 0-.21-.13-.25-.18-.06-.36-.12-.53-.2-.24-.1-.32-.27-.26-.52.03-.1.06-.18.1-.27.1-.28.21-.57.33-.9-.12.03-.19.03-.26.06-.78.28-1.57.55-2.34.86-.44.18-.85.43-1.31.65m2.65 6.72h1.09v-.06c-.05-.01-.11-.03-.16-.04-.91-.17-1.78-.45-2.63-.81-.16-.07-.29-.08-.45.01-.17.11-.35.18-.53.26-.33.14-.67.28-1.01.41 1.22.16 2.43.24 3.69.23m5.39-20.28c-.28.26-.4.6-.42 1 .57-.59 1.27-.87 2.08-.99-.47-.31-1.28-.38-1.66-.01"/><path fill="none" d="M6.3 40.89v-4.42c1.4 2.22 3.37 3.8 5.67 5 .09.05.21.08.3.06 1-.3 2-.61 3-.91.03-.01.07-.04.13-.08-.2-.11-.37-.21-.54-.31-.57-.34-1.11-.7-1.51-1.24-.57-.77-.57-1.54 0-2.32.44-.6 1.03-1.02 1.64-1.41.1-.06.2-.13.31-.21.06-.03.09-.05.12-.07 1.31-.7 2.66-1.26 4.1-1.63a.37.37 0 0 0 .19-.18c.17-.44.33-.89.5-1.33.16-.43.34-.51.78-.37.24.08.48.19.72.29.15.06.23.03.28-.13.29-.82.59-1.63.88-2.45.1-.27.09-.27-.17-.37-.59-.21-1.17-.41-1.75-.63-.31-.12-.36-.26-.26-.58.02-.06.04-.13.06-.19.44-1.26.88-2.53 1.33-3.79.21-.58.4-1.16.66-1.72.21-.48.6-.83 1.14-.92.56-.1 1.12-.05 1.66.13.58.2 1.16.42 1.74.62.54.18 1.08.36 1.52.73.36.3.69.62.76 1.11.06.42 0 .82-.14 1.21-.44 1.24-.89 2.48-1.33 3.73-.17.47-.32.95-.49 1.43-.13.38-.31.45-.68.33l-1.41-.48c-.41-.14-.41-.14-.56.28-.27.75-.53 1.51-.8 2.27-.1.28-.1.3.19.41.3.11.61.19.9.32.33.14.39.33.27.67-.1.29-.2.58-.32.86-.04.12-.03.2.1.23.69.18 1.38.36 2.07.55.56.15 1.12.31 1.69.47 1.01.27 2.01.56 3.02.8.98.23 1.97.41 2.96.61.03.01.05.01.08.01.58.1.69.32.42.85-.35.68-.88 1.22-1.44 1.73-1.19 1.1-2.52 2-3.86 2.88-2.13 1.39-4.26 2.77-6.4 4.16-1.14.74-2.29 1.48-3.43 2.22-.37.24-.73.48-1.12.75-.05.05-.09.09-.12.14h-3.77c.26-.19.54-.39.83-.57.85-.53 1.71-1.05 2.57-1.57.18-.1.36-.2.52-.35H6.48c0-1.67 0-3.31.02-4.98q.09.045.15.12a26 26 0 0 0 5.77 4.22c.16.09.37.09.55.13.01-.02.01-.04.02-.06a26.36 26.36 0 0 1-5.21-3.51c-.5-.44-.98-.89-1.47-1.34 0-.4-.01-.8-.01-1.2m7.35-4.1c-.57.73-.55 1.42.05 2.14.06.08.13.15.21.22.51.49 1.12.85 1.75 1.16.1.04.25.04.35-.01.96-.48 1.91-.97 2.87-1.46a.17.17 0 0 1 .14.01c-.6.83-1.46 1.37-2.31 1.91.04.04.04.06.06.06 1.38.58 2.82.97 4.32.95.8-.01 1.6-.23 2.39-.41 1.22-.28 2.35-.82 3.48-1.35 1.34-.63 2.65-1.32 3.87-2.18.05-.04.1-.09.17-.15-.05-.03-.07-.04-.09-.05-1.14-.3-2.29-.6-3.43-.91-.87-.23-1.75-.46-2.62-.71-.15-.04-.23-.02-.27.14-.04.13-.1.27-.16.4-.17.38-.32.46-.72.35-.39-.11-.78-.23-1.16-.36s-.34-.09-.45.21c-.41 1.05-.8 2.1-1.2 3.14-.23.59-.51 1.13-1.04 1.5-.15.11-.86-.1-.93-.27-.01-.02-.01-.04-.02-.06-.13-.5-.14-.99 0-1.49.08-.25.13-.5.2-.78.03-.09.06-.17.09-.26.21-.69.41-1.38.64-2.09.06-.21.11-.41.18-.61.04-.13 0-.21-.13-.25-.18-.06-.36-.12-.53-.2-.24-.1-.32-.27-.26-.52.03-.1.06-.18.1-.27.1-.28.21-.57.33-.9-.12.03-.19.03-.26.06-.78.28-1.57.55-2.34.86-.44.18-.85.43-1.31.65-.75.39-1.44.86-1.97 1.53m5.71 5.19v-.06c-.05-.01-.11-.03-.16-.04-.91-.17-1.78-.45-2.63-.81-.16-.07-.29-.08-.45.01-.17.11-.35.18-.53.26-.33.14-.67.28-1.01.41 1.22.16 2.43.24 3.69.23zm3.88-19.28c.57-.59 1.27-.87 2.08-.99-.47-.31-1.28-.38-1.66-.01-.28.26-.4.6-.42 1"/><path d="M6.3 36.67v-.2c1.4 2.22 3.37 3.8 5.67 5 .09.05.21.08.3.06 1-.3 2-.61 3-.91.03-.01.07-.04.13-.08-.2-.11-.37-.21-.54-.31-.57-.34-1.11-.7-1.51-1.24-.57-.77-.57-1.54 0-2.32.44-.6 1.03-1.02 1.64-1.41.1-.06.2-.13.31-.21.06-.03.09-.05.12-.07 1.31-.7 2.66-1.26 4.1-1.63a.37.37 0 0 0 .19-.18c.17-.44.33-.89.5-1.33.16-.43.34-.51.78-.37.24.08.48.19.72.29.15.06.23.03.28-.13.29-.82.59-1.63.88-2.45.1-.27.09-.27-.17-.37-.59-.21-1.17-.41-1.75-.63-.31-.12-.36-.26-.26-.58.02-.06.04-.13.06-.19.44-1.26.88-2.53 1.33-3.79.21-.58.4-1.16.66-1.72.21-.48.6-.83 1.14-.92.56-.1 1.12-.05 1.66.13.58.2 1.16.42 1.74.62.54.18 1.08.36 1.52.73.36.3.69.62.76 1.11.06.42 0 .82-.14 1.21-.44 1.24-.89 2.48-1.33 3.73-.17.47-.32.95-.49 1.43-.13.38-.31.45-.68.33l-1.41-.48c-.41-.14-.41-.14-.56.28-.27.75-.53 1.51-.8 2.27-.1.28-.1.3.19.41.3.11.61.19.9.32.33.14.39.33.27.67-.1.29-.2.58-.32.86-.04.12-.03.2.1.23.69.18 1.38.36 2.07.55.56.15 1.12.31 1.69.47 1.01.27 2.01.56 3.02.8.98.23 1.97.41 2.96.61.03.01.05.01.08.01.58.1.69.32.42.85-.35.68-.88 1.22-1.44 1.73-1.19 1.1-2.52 2-3.86 2.88-2.13 1.39-4.26 2.77-6.4 4.16-1.14.74-2.29 1.48-3.43 2.22-.37.24-.73.48-1.12.75-.05.05-.09.09-.12.14h-3.77c.26-.19.54-.39.83-.57.85-.53 1.71-1.05 2.57-1.57.18-.1.36-.2.52-.35H6.48c0-1.67 0-3.31.02-4.98q.09.045.15.12a26 26 0 0 0 5.77 4.22c.16.09.37.09.55.13.01-.02.01-.04.02-.06a26.36 26.36 0 0 1-5.21-3.51c-.5-.44-.98-.89-1.47-1.34 0-.4-.01-.8-.01-1.2zm7.4 2.26c.06.08.13.15.21.22.51.49 1.12.85 1.75 1.16.1.04.25.04.35-.01.96-.48 1.91-.97 2.87-1.46a.17.17 0 0 1 .14.01c-.6.83-1.46 1.37-2.31 1.91.04.04.04.06.06.06 1.38.58 2.82.97 4.32.95.8-.01 1.6-.23 2.39-.41 1.22-.28 2.35-.82 3.48-1.35 1.34-.63 2.65-1.32 3.87-2.18.05-.04.1-.09.17-.15-.05-.03-.07-.04-.09-.05-1.14-.3-2.29-.6-3.43-.91-.87-.23-1.75-.46-2.62-.71-.15-.04-.23-.02-.27.14-.04.13-.1.27-.16.4-.17.38-.32.46-.72.35-.39-.11-.78-.23-1.16-.36s-.34-.09-.45.21c-.41 1.05-.8 2.1-1.2 3.14-.23.59-.51 1.13-1.04 1.5-.15.11-.86-.1-.93-.27-.01-.02-.01-.04-.02-.06-.13-.5-.14-.99 0-1.49.08-.25.13-.5.2-.78.03-.09.06-.17.09-.26.21-.69.41-1.38.64-2.09.06-.21.11-.41.18-.61.04-.13 0-.21-.13-.25-.18-.06-.36-.12-.53-.2-.24-.1-.32-.27-.26-.52.03-.1.06-.18.1-.27.1-.28.21-.57.33-.9-.12.03-.19.03-.26.06-.78.28-1.57.55-2.34.86-.44.18-.85.43-1.31.65-.75.39-1.44.86-1.97 1.53-.57.73-.55 1.42.05 2.14m5.66 2.99c-.05-.01-.11-.03-.16-.04-.91-.17-1.78-.45-2.63-.81-.16-.07-.29-.08-.45.01-.17.11-.35.18-.53.26-.33.14-.67.28-1.01.41 1.22.16 2.43.24 3.69.23h1.09zm5.96-20.21c-.47-.31-1.28-.38-1.66-.01-.28.26-.4.6-.42 1 .57-.59 1.27-.87 2.08-.99"/><path fill="#1b1b1b" d="M39.74 36.37c-.11-.03-.21-.08-.31-.08-.65.02-1.31.07-1.96.07-1.57.01-3.15 0-4.72 0-.01-.02-.01-.04-.02-.06.05-.06.1-.11.15-.16 1.37-1.33 2.95-2.38 4.54-3.42 1.17-.77 2.3-1.61 3.41-2.47.72-.56 1.28-1.3 1.63-2.16.16-.4.22-.85.3-1.29.25-1.29.49-2.6.75-3.96V47.5h-.66c-.62 0-1.25 0-1.87-.01a.45.45 0 0 0-.36.16q-.585.6-1.17 1.17c-.35.34-.71.67-1.08 1.02-.04.03-.06.05-.09.07-.02.04-.03.06-.04.09-1.23 0-2.47 0-3.73-.02.15-.18.33-.34.49-.52.49-.53.98-1.06 1.47-1.6.23-.25.45-.51.67-.77.37-.44.75-.88 1.09-1.35.54-.72 1.09-1.45 1.57-2.21.3-.45.5-.97.72-1.46.13-.29.26-.59.21-.92l-.12-.76c-.12-.69-.24-1.39-.37-2.09-.1-.56-.21-1.11-.33-1.67-.02-.09-.11-.17-.17-.26"/><path fill="none" d="M39.43 36.29c-.65.02-1.31.07-1.96.07-1.57.01-3.15 0-4.72 0-.01-.02-.01-.04-.02-.06.05-.06.1-.11.15-.16 1.37-1.33 2.95-2.38 4.54-3.42 1.17-.77 2.3-1.61 3.41-2.47.72-.56 1.28-1.3 1.63-2.16.16-.4.22-.85.3-1.29.25-1.29.49-2.6.75-3.96V47.5h-.66c-.62 0-1.25 0-1.87-.01a.45.45 0 0 0-.36.16q-.585.6-1.17 1.17c-.35.34-.71.67-1.08 1.02-.04.03-.06.05-.09.07-.02.04-.03.06-.04.09-1.23 0-2.47 0-3.73-.02.15-.18.33-.34.49-.52.49-.53.98-1.06 1.47-1.6.23-.25.45-.51.67-.77.37-.44.75-.88 1.09-1.35.54-.72 1.09-1.45 1.57-2.21.3-.45.5-.97.72-1.46.13-.29.26-.59.21-.92l-.12-.76c-.12-.69-.24-1.39-.37-2.09-.1-.56-.21-1.11-.33-1.67-.02-.09-.11-.17-.17-.26-.11-.03-.21-.08-.31-.08"/><path d="M37.47 36.36c-1.57.01-3.15 0-4.72 0-.01-.02-.01-.04-.02-.06.05-.06.1-.11.15-.16 1.37-1.33 2.95-2.38 4.54-3.42 1.17-.77 2.3-1.61 3.41-2.47.72-.56 1.28-1.3 1.63-2.16.16-.4.22-.85.3-1.29.25-1.29.49-2.6.75-3.96V47.5h-.66c-.62 0-1.25 0-1.87-.01a.45.45 0 0 0-.36.16q-.585.6-1.17 1.17c-.35.34-.71.67-1.08 1.02-.04.03-.06.05-.09.07-.02.04-.03.06-.04.09-1.23 0-2.47 0-3.73-.02.15-.18.33-.34.49-.52.49-.53.98-1.06 1.47-1.6.23-.25.45-.51.67-.77.37-.44.75-.88 1.09-1.35.54-.72 1.09-1.45 1.57-2.21.3-.45.5-.97.72-1.46.13-.29.26-.59.21-.92l-.12-.76c-.12-.69-.24-1.39-.37-2.09-.1-.56-.21-1.11-.33-1.67-.02-.09-.11-.17-.17-.26-.11-.03-.21-.08-.31-.08-.65.02-1.31.07-1.96.07"/><path fill="#917044" d="M39.73 36.39c.07.07.16.15.18.24.12.56.23 1.11.33 1.67.13.7.25 1.4.37 2.09l.12.76c.05.33-.08.63-.21.92-.22.49-.42 1.01-.72 1.46-.48.76-1.03 1.49-1.57 2.21-.34.47-.72.91-1.09 1.35-.22.26-.44.52-.67.77-.49.54-.98 1.07-1.47 1.6-.16.18-.34.34-.51.52-3.13.01-6.27.01-9.44 0-.03-.03-.02-.05-.01-.07.62-.42 1.25-.84 1.91-1.28.03-.02.04-.03.05-.04h.01c.08-.03.15-.05.21-.09 1.14-.71 2.29-1.41 3.42-2.15 1.01-.67 1.97-1.42 2.84-2.27.53-.52 1.03-1.07 1.52-1.62.76-.83 1.5-1.67 2.25-2.51.18-.22.34-.46.51-.69h.01c0-.01 0-.03-.01-.04.02-.04.03-.09.06-.11 1.02-.54 1.61-1.41 1.87-2.51.02-.07.03-.13.04-.21"/><path fill="none" d="M39.91 36.63c.12.56.23 1.11.33 1.67.13.7.25 1.4.37 2.09l.12.76c.05.33-.08.63-.21.92-.22.49-.42 1.01-.72 1.46-.48.76-1.03 1.49-1.57 2.21-.34.47-.72.91-1.09 1.35-.22.26-.44.52-.67.77-.49.54-.98 1.07-1.47 1.6-.16.18-.34.34-.51.52-3.13.01-6.27.01-9.44 0-.03-.03-.02-.05-.01-.07.62-.42 1.25-.84 1.91-1.28.03-.02.04-.03.05-.04h.01c.08-.03.15-.05.21-.09 1.14-.71 2.29-1.41 3.42-2.15 1.01-.67 1.97-1.42 2.84-2.27.53-.52 1.03-1.07 1.52-1.62.76-.83 1.5-1.67 2.25-2.51.18-.22.34-.46.51-.69h.01c0-.01 0-.03-.01-.04.02-.04.03-.09.06-.11 1.02-.54 1.61-1.41 1.87-2.51.02-.07.03-.13.04-.21.07.07.16.15.18.24"/><path d="M40.24 38.3c.13.7.25 1.4.37 2.09l.12.76c.05.33-.08.63-.21.92-.22.49-.42 1.01-.72 1.46-.48.76-1.03 1.49-1.57 2.21-.34.47-.72.91-1.09 1.35-.22.26-.44.52-.67.77-.49.54-.98 1.07-1.47 1.6-.16.18-.34.34-.51.52-3.13.01-6.27.01-9.44 0-.03-.03-.02-.05-.01-.07.62-.42 1.25-.84 1.91-1.28.03-.02.04-.03.05-.04h.01c.08-.03.15-.05.21-.09 1.14-.71 2.29-1.41 3.42-2.15 1.01-.67 1.97-1.42 2.84-2.27.53-.52 1.03-1.07 1.52-1.62.76-.83 1.5-1.67 2.25-2.51.18-.22.34-.46.51-.69h.01c0-.01 0-.03-.01-.04.02-.04.03-.09.06-.11 1.02-.54 1.61-1.41 1.87-2.51.02-.07.03-.13.04-.21.07.07.16.15.18.24.12.56.23 1.11.33 1.67"/><path fill="#ffd28e" d="M38.29 49.91c.02-.02.04-.04.07-.06.09.01.17.05.25.05 2.35.01 4.71.01 7.06.01.19 0 .27-.05.24-.25V.27c.02-.13-.04-.2-.18-.19H4.25c-.13-.01-.18.05-.17.17v49.3c0 .08-.01.16.01.22.02.05.08.11.13.13.06.02.13.01.19.01h10.61c.1 0 .19.04.3.07C11.55 50 7.77 50 4 50V0h42v50c-2.56 0-5.11 0-7.69-.02-.02-.03-.02-.05-.02-.07"/><path fill="none" d="M38.36 49.85c.09.01.17.05.25.05 2.35.01 4.71.01 7.06.01.19 0 .27-.05.24-.25V.27c.02-.13-.04-.2-.18-.19H4.25c-.13-.01-.18.05-.17.17v49.3c0 .08-.01.16.01.22.02.05.08.11.13.13.06.02.13.01.19.01h10.61c.1 0 .19.04.3.07C11.55 50 7.77 50 4 50V0h42v50c-2.56 0-5.11 0-7.69-.02-.02-.03-.02-.05-.02-.07.02-.02.04-.04.07-.06"/><path d="M38.61 49.9c2.35.01 4.71.01 7.06.01.19 0 .27-.05.24-.25V.27c.02-.13-.04-.2-.18-.19H4.25c-.13-.01-.18.05-.17.17v49.3c0 .08-.01.16.01.22.02.05.08.11.13.13.06.02.13.01.19.01h10.61c.1 0 .19.04.3.07C11.55 50 7.77 50 4 50V0h42v50c-2.56 0-5.11 0-7.69-.02-.02-.03-.02-.05-.02-.07.02-.02.04-.04.07-.06.09.01.17.05.25.05"/><path fill="#fed490" d="M25.02 49.91c.01.02 0 .04.01.07-1.94.02-3.88.02-5.85.02.01-.05.05-.09.09-.13.13.01.23.04.34.04z"/><path fill="none" d="M25.03 49.98c-1.94.02-3.88.02-5.85.02.01-.05.05-.09.09-.13.13.01.23.04.34.04h5.41c.01.02 0 .04.01.07"/><path d="M19.18 50c.01-.05.05-.09.09-.13.13.01.23.04.34.04h5.41c.01.02 0 .04.01.07-1.94.02-3.88.02-5.85.02"/><path fill="#ac8c62" d="M38.28 49.91c.01.02.01.04.01.07 0 .02-.02.02-.03.02-.01-.03 0-.05.02-.09"/><path fill="none" d="M38.29 49.98c0 .02-.02.02-.03.02-.01-.03 0-.05.02-.09.01.02.01.04.01.07"/><path d="M38.26 50c-.01-.03 0-.05.02-.09.01.02.01.04.01.07 0 .02-.02.02-.03.02"/><path fill="#ad3f27" d="M27.37 35.36c-.7-.17-1.39-.35-2.08-.53-.13-.03-.14-.11-.1-.23.12-.28.22-.57.32-.86.12-.34.06-.53-.27-.67-.29-.13-.6-.21-.9-.32-.29-.11-.29-.13-.19-.41.27-.76.53-1.52.8-2.27.15-.42.15-.42.56-.28l1.41.48c.37.12.55.05.68-.33.17-.48.32-.96.49-1.43.44-1.25.89-2.49 1.33-3.73.14-.39.2-.79.14-1.21-.07-.49-.4-.81-.76-1.11-.44-.37-.98-.55-1.52-.73-.58-.2-1.16-.42-1.74-.62-.54-.18-1.1-.23-1.66-.13-.54.09-.93.44-1.14.92-.26.56-.45 1.14-.66 1.72-.45 1.26-.89 2.53-1.33 3.79-.02.06-.04.13-.06.19-.1.32-.05.46.26.58.58.22 1.16.42 1.75.63.26.1.27.1.17.37-.29.82-.59 1.63-.88 2.45-.05.16-.13.19-.28.13-.24-.1-.48-.21-.72-.29-.44-.14-.62-.06-.78.37-.17.44-.33.89-.5 1.33a.37.37 0 0 1-.19.18c-1.44.37-2.79.93-4.1 1.63-.03.02-.06.04-.11.05a5.52 5.52 0 0 1-2.07-2.32c-.31-.65-.49-1.34-.57-2.05-.12-1.04-.03-2.06.14-3.09 0-.03.02-.06.05-.14.23.6.55 1.11.96 1.55.19.21.38.41.56.62.35.43.62.91.82 1.43.02.06.05.12.08.19.02-.01.04-.01.07-.01.02-.19.04-.37.05-.55.09-.96-.31-1.76-.79-2.54-.52-.84-.85-1.73-.82-2.74.03-.88.39-1.63.9-2.32.71-.97 1.63-1.72 2.59-2.41.69-.5 1.41-.95 2.12-1.43.15-.1.3-.23.43-.36.05-.04.06-.13.09-.2-.07-.02-.15-.07-.22-.05-.28.06-.56.14-.84.21-.43.12-.85.25-1.27.37-.08.02-.16.02-.32.03.12-.24.2-.44.32-.6.47-.66 1.12-1.15 1.77-1.6 1.89-1.3 3.91-2.39 6.05-3.2.64-.24 1.32-.37 1.99-.55.05-.01.12 0 .18 0l.03.06c-.11.15-.22.3-.35.45-.86 1-1.73 2-2.44 3.13-.27.43-.5.88-.52 1.41-.03.55.21.92.67 1.18.59.32 1.21.46 1.88.27.67-.18 1.22-.86 1.24-1.5.01-.56-.29-.89-.84-.94-.05 0-.09-.01-.13-.01.15-.44.71-.75 1.19-.67.74.1 1.34.51 1.89.97.64.54 1.26 1.1 1.9 1.64.3.26.64.48.94.74.65.56.92 1.32 1.07 2.14.19 1.04.19 2.09.18 3.14 0 .07 0 .15.05.23.64-1.38.81-2.84.77-4.35.02 0 .04-.01.06-.02.15.24.32.47.45.72.51.89.75 1.85.79 2.88.08 1.77-.4 3.42-1.13 5.02-.03.05-.05.11-.08.17-.15.35-.32.63-.72.77-1.21.43-2.19 1.18-3.06 2.11-.49.53-.98 1.06-1.5 1.56-.46.44-1.01.73-1.63.88-.21.05-.45.02-.67.04-.08 0-.16.03-.25.07"/><path fill="none" d="M25.29 34.83c-.13-.03-.14-.11-.1-.23.12-.28.22-.57.32-.86.12-.34.06-.53-.27-.67-.29-.13-.6-.21-.9-.32-.29-.11-.29-.13-.19-.41.27-.76.53-1.52.8-2.27.15-.42.15-.42.56-.28l1.41.48c.37.12.55.05.68-.33.17-.48.32-.96.49-1.43.44-1.25.89-2.49 1.33-3.73.14-.39.2-.79.14-1.21-.07-.49-.4-.81-.76-1.11-.44-.37-.98-.55-1.52-.73-.58-.2-1.16-.42-1.74-.62-.54-.18-1.1-.23-1.66-.13-.54.09-.93.44-1.14.92-.26.56-.45 1.14-.66 1.72-.45 1.26-.89 2.53-1.33 3.79-.02.06-.04.13-.06.19-.1.32-.05.46.26.58.58.22 1.16.42 1.75.63.26.1.27.1.17.37-.29.82-.59 1.63-.88 2.45-.05.16-.13.19-.28.13-.24-.1-.48-.21-.72-.29-.44-.14-.62-.06-.78.37-.17.44-.33.89-.5 1.33a.37.37 0 0 1-.19.18c-1.44.37-2.79.93-4.1 1.63-.03.02-.06.04-.11.05a5.52 5.52 0 0 1-2.07-2.32c-.31-.65-.49-1.34-.57-2.05-.12-1.04-.03-2.06.14-3.09 0-.03.02-.06.05-.14.23.6.55 1.11.96 1.55.19.21.38.41.56.62.35.43.62.91.82 1.43.02.06.05.12.08.19.02-.01.04-.01.07-.01.02-.19.04-.37.05-.55.09-.96-.31-1.76-.79-2.54-.52-.84-.85-1.73-.82-2.74.03-.88.39-1.63.9-2.32.71-.97 1.63-1.72 2.59-2.41.69-.5 1.41-.95 2.12-1.43.15-.1.3-.23.43-.36.05-.04.06-.13.09-.2-.07-.02-.15-.07-.22-.05-.28.06-.56.14-.84.21-.43.12-.85.25-1.27.37-.08.02-.16.02-.32.03.12-.24.2-.44.32-.6.47-.66 1.12-1.15 1.77-1.6 1.89-1.3 3.91-2.39 6.05-3.2.64-.24 1.32-.37 1.99-.55.05-.01.12 0 .18 0l.03.06c-.11.15-.22.3-.35.45-.86 1-1.73 2-2.44 3.13-.27.43-.5.88-.52 1.41-.03.55.21.92.67 1.18.59.32 1.21.46 1.88.27.67-.18 1.22-.86 1.24-1.5.01-.56-.29-.89-.84-.94-.05 0-.09-.01-.13-.01.15-.44.71-.75 1.19-.67.74.1 1.34.51 1.89.97.64.54 1.26 1.1 1.9 1.64.3.26.64.48.94.74.65.56.92 1.32 1.07 2.14.19 1.04.19 2.09.18 3.14 0 .07 0 .15.05.23.64-1.38.81-2.84.77-4.35.02 0 .04-.01.06-.02.15.24.32.47.45.72.51.89.75 1.85.79 2.88.08 1.77-.4 3.42-1.13 5.02-.03.05-.05.11-.08.17-.15.35-.32.63-.72.77-1.21.43-2.19 1.18-3.06 2.11-.49.53-.98 1.06-1.5 1.56-.46.44-1.01.73-1.63.88-.21.05-.45.02-.67.04-.08 0-.16.03-.25.07-.7-.17-1.39-.35-2.08-.53"/><path d="M25.19 34.6c.12-.28.22-.57.32-.86.12-.34.06-.53-.27-.67-.29-.13-.6-.21-.9-.32-.29-.11-.29-.13-.19-.41.27-.76.53-1.52.8-2.27.15-.42.15-.42.56-.28l1.41.48c.37.12.55.05.68-.33.17-.48.32-.96.49-1.43.44-1.25.89-2.49 1.33-3.73.14-.39.2-.79.14-1.21-.07-.49-.4-.81-.76-1.11-.44-.37-.98-.55-1.52-.73-.58-.2-1.16-.42-1.74-.62-.54-.18-1.1-.23-1.66-.13-.54.09-.93.44-1.14.92-.26.56-.45 1.14-.66 1.72-.45 1.26-.89 2.53-1.33 3.79-.02.06-.04.13-.06.19-.1.32-.05.46.26.58.58.22 1.16.42 1.75.63.26.1.27.1.17.37-.29.82-.59 1.63-.88 2.45-.05.16-.13.19-.28.13-.24-.1-.48-.21-.72-.29-.44-.14-.62-.06-.78.37-.17.44-.33.89-.5 1.33a.37.37 0 0 1-.19.18c-1.44.37-2.79.93-4.1 1.63-.03.02-.06.04-.11.05a5.52 5.52 0 0 1-2.07-2.32c-.31-.65-.49-1.34-.57-2.05-.12-1.04-.03-2.06.14-3.09 0-.03.02-.06.05-.14.23.6.55 1.11.96 1.55.19.21.38.41.56.62.35.43.62.91.82 1.43.02.06.05.12.08.19.02-.01.04-.01.07-.01.02-.19.04-.37.05-.55.09-.96-.31-1.76-.79-2.54-.52-.84-.85-1.73-.82-2.74.03-.88.39-1.63.9-2.32.71-.97 1.63-1.72 2.59-2.41.69-.5 1.41-.95 2.12-1.43.15-.1.3-.23.43-.36.05-.04.06-.13.09-.2-.07-.02-.15-.07-.22-.05-.28.06-.56.14-.84.21-.43.12-.85.25-1.27.37-.08.02-.16.02-.32.03.12-.24.2-.44.32-.6.47-.66 1.12-1.15 1.77-1.6 1.89-1.3 3.91-2.39 6.05-3.2.64-.24 1.32-.37 1.99-.55.05-.01.12 0 .18 0l.03.06c-.11.15-.22.3-.35.45-.86 1-1.73 2-2.44 3.13-.27.43-.5.88-.52 1.41-.03.55.21.92.67 1.18.59.32 1.21.46 1.88.27.67-.18 1.22-.86 1.24-1.5.01-.56-.29-.89-.84-.94-.05 0-.09-.01-.13-.01.15-.44.71-.75 1.19-.67.74.1 1.34.51 1.89.97.64.54 1.26 1.1 1.9 1.64.3.26.64.48.94.74.65.56.92 1.32 1.07 2.14.19 1.04.19 2.09.18 3.14 0 .07 0 .15.05.23.64-1.38.81-2.84.77-4.35.02 0 .04-.01.06-.02.15.24.32.47.45.72.51.89.75 1.85.79 2.88.08 1.77-.4 3.42-1.13 5.02-.03.05-.05.11-.08.17-.15.35-.32.63-.72.77-1.21.43-2.19 1.18-3.06 2.11-.49.53-.98 1.06-1.5 1.56-.46.44-1.01.73-1.63.88-.21.05-.45.02-.67.04-.08 0-.16.03-.25.07-.7-.17-1.39-.35-2.08-.53-.13-.03-.14-.11-.1-.23"/><path fill="#1b1b1b" d="M22.5 3.96c.43-.17.86-.35 1.3-.51.92-.33 1.86-.6 2.83-.75.18-.03.37-.03.56-.05-1.16.51-2.3 1.02-3.44 1.53-3.06 1.39-6.03 2.95-8.84 4.8-1.1.71-2.19 1.43-3.26 2.18-1.4.99-2.32 2.31-2.74 4-.45 1.83-.79 3.68-1.08 5.55-.11.7-.2 1.41-.29 2.12-.01.04 0 .09.02.16 2.35-2.62 5.17-4.52 8.43-5.76.01.01.03.03.04.05l-.17.14c-1.98 1.5-3.9 3.08-5.65 4.84-1.33 1.35-2.55 2.8-3.55 4.42-.13.2-.23.41-.36.65v-.24c0-6.16 0-12.32.01-18.48 0-.13.07-.27.1-.41.02-.11.07-.22.07-.33V2.5h17.07c-.36.47-.72.93-1.09 1.42-.02.03-.03.05-.03.07.02-.01.05-.02.07-.03M15.43 7.6c.22-.18.44-.35.65-.54.14-.12.26-.25.37-.39.05-.07.05-.17.08-.26-.08-.01-.17-.04-.25-.03-.12.02-.25.07-.37.11-1.2.5-2.26 1.22-3.21 2.1-.46.42-.88.89-1.3 1.34-.1.11-.15.25-.21.38.07.03.1.02.12.01 1.37-.9 2.73-1.8 4.12-2.72"/><path fill="none" d="M23.8 3.45c.92-.33 1.86-.6 2.83-.75.18-.03.37-.03.56-.05-1.16.51-2.3 1.02-3.44 1.53-3.06 1.39-6.03 2.95-8.84 4.8-1.1.71-2.19 1.43-3.26 2.18-1.4.99-2.32 2.31-2.74 4-.45 1.83-.79 3.68-1.08 5.55-.11.7-.2 1.41-.29 2.12-.01.04 0 .09.02.16 2.35-2.62 5.17-4.52 8.43-5.76.01.01.03.03.04.05l-.17.14c-1.98 1.5-3.9 3.08-5.65 4.84-1.33 1.35-2.55 2.8-3.55 4.42-.13.2-.23.41-.36.65v-.24c0-6.16 0-12.32.01-18.48 0-.13.07-.27.1-.41.02-.11.07-.22.07-.33V2.5h17.07c-.36.47-.72.93-1.09 1.42-.02.03-.03.05-.03.07.02-.01.05-.02.07-.03.43-.17.86-.35 1.3-.51m-7.72 3.61c.14-.12.26-.25.37-.39.05-.07.05-.17.08-.26-.08-.01-.17-.04-.25-.03-.12.02-.25.07-.37.11-1.2.5-2.26 1.22-3.21 2.1-.46.42-.88.89-1.3 1.34-.1.11-.15.25-.21.38.07.03.1.02.12.01 1.37-.9 2.73-1.8 4.12-2.72.22-.18.44-.35.65-.54"/><path d="M26.63 2.7c.18-.03.37-.03.56-.05-1.16.51-2.3 1.02-3.44 1.53-3.06 1.39-6.03 2.95-8.84 4.8-1.1.71-2.19 1.43-3.26 2.18-1.4.99-2.32 2.31-2.74 4-.45 1.83-.79 3.68-1.08 5.55-.11.7-.2 1.41-.29 2.12-.01.04 0 .09.02.16 2.35-2.62 5.17-4.52 8.43-5.76.01.01.03.03.04.05l-.17.14c-1.98 1.5-3.9 3.08-5.65 4.84-1.33 1.35-2.55 2.8-3.55 4.42-.13.2-.23.41-.36.65v-.24c0-6.16 0-12.32.01-18.48 0-.13.07-.27.1-.41.02-.11.07-.22.07-.33V2.5h17.07c-.36.47-.72.93-1.09 1.42-.02.03-.03.05-.03.07.02-.01.05-.02.07-.03.43-.17.86-.35 1.3-.51.92-.33 1.86-.6 2.83-.75M16.45 6.67c.05-.07.05-.17.08-.26-.08-.01-.17-.04-.25-.03-.12.02-.25.07-.37.11-1.2.5-2.26 1.22-3.21 2.1-.46.42-.88.89-1.3 1.34-.1.11-.15.25-.21.38.07.03.1.02.12.01 1.37-.9 2.73-1.8 4.12-2.72.22-.18.44-.35.65-.54.14-.12.26-.25.37-.39"/><path fill="#1c1b1b" d="M34.89 12.91c1.17-.59 2.38-1.03 3.62-1.4.77-.23 1.11-.95.73-1.67a2.6 2.6 0 0 0-.63-.76c-1.2-1-2.2-2.14-2.84-3.58-.26-.57-.44-1.17-.5-1.8 0-.03-.01-.05-.02-.08-.57.3-.95 2.18-.77 3.79-.03-.04-.06-.07-.08-.11-.37-.96-.7-1.94-.75-2.99-.02-.56.04-1.11.21-1.66.03-.11.08-.17.22-.17 3.11.01 6.23.01 9.34.01.02 0 .05 0 .08.01v14.39c-.24-.56-.49-1.23-.8-1.88-.37-.75-.87-1.41-1.44-2.02a.46.46 0 0 0-.27-.13c-1.31-.11-2.59.01-3.88.26-1.58.3-3.09.84-4.48 1.66-.31.18-.61.4-.91.6-.05.03-.1.06-.17.07.91-1.11 2.07-1.89 3.34-2.54m3.64-5.49q-.285-.9-.93-1.59a.8.8 0 0 0-.2-.16c-.2-.12-.35-.05-.36.18 0 .17.03.34.07.49.18.6.48 1.1 1.06 1.38.09.05.24.07.32.02.05-.03.04-.19.04-.32"/><path fill="none" d="M38.51 11.51c.77-.23 1.11-.95.73-1.67a2.6 2.6 0 0 0-.63-.76c-1.2-1-2.2-2.14-2.84-3.58-.26-.57-.44-1.17-.5-1.8 0-.03-.01-.05-.02-.08-.57.3-.95 2.18-.77 3.79-.03-.04-.06-.07-.08-.11-.37-.96-.7-1.94-.75-2.99-.02-.56.04-1.11.21-1.66.03-.11.08-.17.22-.17 3.11.01 6.23.01 9.34.01.02 0 .05 0 .08.01v14.39c-.24-.56-.49-1.23-.8-1.88-.37-.75-.87-1.41-1.44-2.02a.46.46 0 0 0-.27-.13c-1.31-.11-2.59.01-3.88.26-1.58.3-3.09.84-4.48 1.66-.31.18-.61.4-.91.6-.05.03-.1.06-.17.07.91-1.11 2.07-1.89 3.34-2.54 1.17-.59 2.38-1.03 3.62-1.4m-.91-5.68a.8.8 0 0 0-.2-.16c-.2-.12-.35-.05-.36.18 0 .17.03.34.07.49.18.6.48 1.1 1.06 1.38.09.05.24.07.32.02.05-.03.04-.19.04-.32q-.285-.9-.93-1.59"/><path d="M39.24 9.84a2.6 2.6 0 0 0-.63-.76c-1.2-1-2.2-2.14-2.84-3.58-.26-.57-.44-1.17-.5-1.8 0-.03-.01-.05-.02-.08-.57.3-.95 2.18-.77 3.79-.03-.04-.06-.07-.08-.11-.37-.96-.7-1.94-.75-2.99-.02-.56.04-1.11.21-1.66.03-.11.08-.17.22-.17 3.11.01 6.23.01 9.34.01.02 0 .05 0 .08.01v14.39c-.24-.56-.49-1.23-.8-1.88-.37-.75-.87-1.41-1.44-2.02a.46.46 0 0 0-.27-.13c-1.31-.11-2.59.01-3.88.26-1.58.3-3.09.84-4.48 1.66-.31.18-.61.4-.91.6-.05.03-.1.06-.17.07.91-1.11 2.07-1.89 3.34-2.54 1.17-.59 2.38-1.03 3.62-1.4.77-.23 1.11-.95.73-1.67M37.4 5.67c-.2-.12-.35-.05-.36.18 0 .17.03.34.07.49.18.6.48 1.1 1.06 1.38.09.05.24.07.32.02.05-.03.04-.19.04-.32q-.285-.9-.93-1.59a.8.8 0 0 0-.2-.16"/><path fill="#ae3f27" d="M24.48 12.33c-.28.19-.55.41-.85.52-1.15.44-2.32.84-3.48 1.25-.13.05-.28.07-.42.07-.2.01-.27-.11-.14-.26.25-.28.51-.55.79-.8.27-.24.57-.45.86-.68.07-.06.14-.12.2-.19.05-.05.06-.13.09-.19-.06-.02-.13-.07-.19-.06-.44.08-.89.16-1.32.27-1.41.39-2.81.8-4.22 1.2-.16.04-.34.04-.51.06a.4.4 0 0 0-.04-.09c.1-.09.18-.2.29-.27.76-.48 1.51-.98 2.3-1.41 2-1.09 4.02-2.16 6.04-3.2.42-.22.91-.3 1.37-.41 1.87-.42 3.46-1.35 4.91-2.57.27-.23.53-.46.8-.69l.06.03c-.03.06-.06.13-.09.19-.58.98-1.24 1.89-1.99 2.74-1.13 1.27-2.34 2.45-3.74 3.42-.3.2-.62.36-.92.55-.07.04-.12.11-.18.17l.19.16c.06.05.13.11.19.19"/><path fill="none" d="M23.63 12.85c-1.15.44-2.32.84-3.48 1.25-.13.05-.28.07-.42.07-.2.01-.27-.11-.14-.26.25-.28.51-.55.79-.8.27-.24.57-.45.86-.68.07-.06.14-.12.2-.19.05-.05.06-.13.09-.19-.06-.02-.13-.07-.19-.06-.44.08-.89.16-1.32.27-1.41.39-2.81.8-4.22 1.2-.16.04-.34.04-.51.06a.4.4 0 0 0-.04-.09c.1-.09.18-.2.29-.27.76-.48 1.51-.98 2.3-1.41 2-1.09 4.02-2.16 6.04-3.2.42-.22.91-.3 1.37-.41 1.87-.42 3.46-1.35 4.91-2.57.27-.23.53-.46.8-.69l.06.03c-.03.06-.06.13-.09.19-.58.98-1.24 1.89-1.99 2.74-1.13 1.27-2.34 2.45-3.74 3.42-.3.2-.62.36-.92.55-.07.04-.12.11-.18.17l.19.16c.06.05.13.11.19.19-.28.19-.55.41-.85.52"/><path d="M20.15 14.1c-.13.05-.28.07-.42.07-.2.01-.27-.11-.14-.26.25-.28.51-.55.79-.8.27-.24.57-.45.86-.68.07-.06.14-.12.2-.19.05-.05.06-.13.09-.19-.06-.02-.13-.07-.19-.06-.44.08-.89.16-1.32.27-1.41.39-2.81.8-4.22 1.2-.16.04-.34.04-.51.06a.4.4 0 0 0-.04-.09c.1-.09.18-.2.29-.27.76-.48 1.51-.98 2.3-1.41 2-1.09 4.02-2.16 6.04-3.2.42-.22.91-.3 1.37-.41 1.87-.42 3.46-1.35 4.91-2.57.27-.23.53-.46.8-.69l.06.03c-.03.06-.06.13-.09.19-.58.98-1.24 1.89-1.99 2.74-1.13 1.27-2.34 2.45-3.74 3.42-.3.2-.62.36-.92.55-.07.04-.12.11-.18.17l.19.16c.06.05.13.11.19.19-.28.19-.55.41-.85.52-1.15.44-2.32.84-3.48 1.25"/><path fill="#ae3f27" d="M39.12 19.56c-1.12-1.54-.95-3.16-.33-4.84.11.11.2.2.28.3.92 1.04 1.71 2.17 2.23 3.47.3.75.43 1.51.27 2.32-.24 1.2-.44 2.42-.67 3.62-.05.26-.15.5-.23.75-.06.17-.17.28-.36.31-.37.06-.75.15-1.13.21-.08.01-.22-.03-.26-.1-.03-.06.01-.2.06-.27.26-.32.51-.64.79-.93.4-.41.54-.9.57-1.46.07-1.04-.22-1.96-.82-2.79-.13-.19-.26-.39-.4-.59"/><path fill="none" d="M38.79 14.72c.11.11.2.2.28.3.92 1.04 1.71 2.17 2.23 3.47.3.75.43 1.51.27 2.32-.24 1.2-.44 2.42-.67 3.62-.05.26-.15.5-.23.75-.06.17-.17.28-.36.31-.37.06-.75.15-1.13.21-.08.01-.22-.03-.26-.1-.03-.06.01-.2.06-.27.26-.32.51-.64.79-.93.4-.41.54-.9.57-1.46.07-1.04-.22-1.96-.82-2.79-.13-.19-.26-.39-.4-.59-1.12-1.54-.95-3.16-.33-4.84"/><path d="M39.07 15.02c.92 1.04 1.71 2.17 2.23 3.47.3.75.43 1.51.27 2.32-.24 1.2-.44 2.42-.67 3.62-.05.26-.15.5-.23.75-.06.17-.17.28-.36.31-.37.06-.75.15-1.13.21-.08.01-.22-.03-.26-.1-.03-.06.01-.2.06-.27.26-.32.51-.64.79-.93.4-.41.54-.9.57-1.46.07-1.04-.22-1.96-.82-2.79-.13-.19-.26-.39-.4-.59-1.12-1.54-.95-3.16-.33-4.84.11.11.2.2.28.3"/><path fill="#1d1c1c" d="M7.55 33.77c-.64-2.99.34-5.46 2.27-7.64.02 0 .04.01.06.01-.02.11-.05.21-.07.32-.03.1-.05.21-.07.32-.23 1.09-.47 2.17-.67 3.27-.15.77-.23 1.56-.14 2.35.05.39.17.78.35 1.13.39.77.56 1.58.58 2.42.03.64-.01 1.28-.05 1.93-1.09-1.19-1.89-2.52-2.26-4.11"/><path fill="none" d="M9.82 26.13c.02 0 .04.01.06.01-.02.11-.05.21-.07.32-.03.1-.05.21-.07.32-.23 1.09-.47 2.17-.67 3.27-.15.77-.23 1.56-.14 2.35.05.39.17.78.35 1.13.39.77.56 1.58.58 2.42.03.64-.01 1.28-.05 1.93-1.09-1.19-1.89-2.52-2.26-4.11-.64-2.99.34-5.46 2.27-7.64"/><path d="M9.88 26.14c-.02.11-.05.21-.07.32-.03.1-.05.21-.07.32-.23 1.09-.47 2.17-.67 3.27-.15.77-.23 1.56-.14 2.35.05.39.17.78.35 1.13.39.77.56 1.58.58 2.42.03.64-.01 1.28-.05 1.93-1.09-1.19-1.89-2.52-2.26-4.11-.64-2.99.34-5.46 2.27-7.64.02 0 .04.01.06.01"/><path fill="#1c1c1b" d="M37.75 39.25c-.16.24-.32.48-.5.7-.75.84-1.49 1.68-2.25 2.51-.49.55-.99 1.1-1.52 1.62-.87.85-1.83 1.6-2.84 2.27-1.13.74-2.28 1.44-3.42 2.15q-.09.06-.21.09c.12-.13.24-.28.39-.4 1.59-1.29 3.21-2.53 4.76-3.86 1.51-1.3 2.93-2.7 4.4-4.05.38-.36.78-.69 1.19-1.03"/><path fill="none" d="M37.25 39.95c-.75.84-1.49 1.68-2.25 2.51-.49.55-.99 1.1-1.52 1.62-.87.85-1.83 1.6-2.84 2.27-1.13.74-2.28 1.44-3.42 2.15q-.09.06-.21.09c.12-.13.24-.28.39-.4 1.59-1.29 3.21-2.53 4.76-3.86 1.51-1.3 2.93-2.7 4.4-4.05.38-.36.78-.69 1.19-1.03-.16.24-.32.48-.5.7"/><path d="M35 42.46c-.49.55-.99 1.1-1.52 1.62-.87.85-1.83 1.6-2.84 2.27-1.13.74-2.28 1.44-3.42 2.15q-.09.06-.21.09c.12-.13.24-.28.39-.4 1.59-1.29 3.21-2.53 4.76-3.86 1.51-1.3 2.93-2.7 4.4-4.05.38-.36.78-.69 1.19-1.03-.16.24-.32.48-.5.7-.75.84-1.49 1.68-2.25 2.51"/><path fill="#ae3f27" d="M29.03 12.34c-.25-.12-.29-.21-.21-.45.14-.4.44-.68.75-.94.63-.54 1.32-.98 2.13-1.2.18-.05.37-.08.55-.07.31.01.42.21.3.5-.07.16-.16.31-.27.44-.74.82-1.63 1.4-2.69 1.69-.17.04-.36.03-.56.03"/><path fill="none" d="M28.82 11.89c.14-.4.44-.68.75-.94.63-.54 1.32-.98 2.13-1.2.18-.05.37-.08.55-.07.31.01.42.21.3.5-.07.16-.16.31-.27.44-.74.82-1.63 1.4-2.69 1.69-.17.04-.36.03-.56.03-.25-.12-.29-.21-.21-.45"/><path d="M29.57 10.95c.63-.54 1.32-.98 2.13-1.2.18-.05.37-.08.55-.07.31.01.42.21.3.5-.07.16-.16.31-.27.44-.74.82-1.63 1.4-2.69 1.69-.17.04-.36.03-.56.03-.25-.12-.29-.21-.21-.45.14-.4.44-.68.75-.94"/><path fill="#1e1d1c" d="M10.33 25.94c.15-.76.52-1.38.95-1.97.46-.64.94-1.27 1.41-1.91.02-.02.04-.03.1-.07-.07.66-.16 1.29-.43 1.86-.23.5-.52.98-.8 1.45-.4.68-.82 1.35-1.22 2.01-.09-.42-.1-.89-.01-1.37"/><path fill="none" d="M11.28 23.97c.46-.64.94-1.27 1.41-1.91.02-.02.04-.03.1-.07-.07.66-.16 1.29-.43 1.86-.23.5-.52.98-.8 1.45-.4.68-.82 1.35-1.22 2.01-.09-.42-.1-.89-.01-1.37.15-.76.52-1.38.95-1.97"/><path d="M12.69 22.06c.02-.02.04-.03.1-.07-.07.66-.16 1.29-.43 1.86-.23.5-.52.98-.8 1.45-.4.68-.82 1.35-1.22 2.01-.09-.42-.1-.89-.01-1.37.15-.76.52-1.38.95-1.97.46-.64.94-1.27 1.41-1.91"/><path fill="#ae4028" d="M33.02 17.06c.11.15.23.29.3.44.3.63.58 1.27.86 1.91.03.08.06.18.05.27 0 .05-.06.12-.11.14-.03.02-.1-.03-.13-.06-.6-.8-1.35-1.45-2.1-2.09-.25-.21-.49-.44-.74-.67.34-.39 1.32-.45 1.87.06"/><path fill="none" d="M33.32 17.5c.3.63.58 1.27.86 1.91.03.08.06.18.05.27 0 .05-.06.12-.11.14-.03.02-.1-.03-.13-.06-.6-.8-1.35-1.45-2.1-2.09-.25-.21-.49-.44-.74-.67.34-.39 1.32-.45 1.87.06.11.15.23.29.3.44"/><path d="M34.18 19.41c.03.08.06.18.05.27 0 .05-.06.12-.11.14-.03.02-.1-.03-.13-.06-.6-.8-1.35-1.45-2.1-2.09-.25-.21-.49-.44-.74-.67.34-.39 1.32-.45 1.87.06.11.15.23.29.3.44.3.63.58 1.27.86 1.91"/><path fill="#1c1c1b" d="M37.75 39.23c.02 0 .02.02.02.03-.02 0-.03-.01-.02-.03"/><path fill="none" d="M37.77 39.26c-.02 0-.03-.01-.02-.03.02 0 .02.02.02.03"/><path d="M37.75 39.23c.02 0 .02.02.02.03-.02 0-.03-.01-.02-.03"/><path fill="#1c1c1b" d="M26.99 48.59c0 .01-.01.02-.03.04 0-.01.01-.03.03-.04"/><path fill="none" d="M26.96 48.63c0-.01.01-.03.03-.04 0 .01-.01.02-.03.04"/><path d="M26.99 48.59c0 .01-.01.02-.03.04 0-.01.01-.03.03-.04"/><path fill="#f0c284" d="M19.1 38.82c-.06.25-.11.5-.19.75-.14.5-.13.99 0 1.49.01.02.01.04.02.06.07.17.78.38.93.27.53-.37.81-.91 1.04-1.5.4-1.04.79-2.09 1.2-3.14.11-.3.07-.34.45-.21s.77.25 1.16.36c.4.11.55.03.72-.35.06-.13.12-.27.16-.4.04-.16.12-.18.27-.14.87.25 1.75.48 2.62.72l3.43.9c.02.01.04.02.09.05-.07.06-.12.11-.17.15-1.22.86-2.53 1.55-3.87 2.18-1.13.53-2.26 1.07-3.48 1.35-.79.18-1.59.4-2.39.41-1.5.02-2.94-.37-4.32-.95-.02 0-.02-.02-.06-.06.85-.54 1.71-1.08 2.34-1.93.03-.01.04-.01.05-.01"/><path fill="none" d="M18.91 39.57c-.14.5-.13.99 0 1.49.01.02.01.04.02.06.07.17.78.38.93.27.53-.37.81-.91 1.04-1.5.4-1.04.79-2.09 1.2-3.14.11-.3.07-.34.45-.21s.77.25 1.16.36c.4.11.55.03.72-.35.06-.13.12-.27.16-.4.04-.16.12-.18.27-.14.87.25 1.75.48 2.62.72l3.43.9c.02.01.04.02.09.05-.07.06-.12.11-.17.15-1.22.86-2.53 1.55-3.87 2.18-1.13.53-2.26 1.07-3.48 1.35-.79.18-1.59.4-2.39.41-1.5.02-2.94-.37-4.32-.95-.02 0-.02-.02-.06-.06.85-.54 1.71-1.08 2.34-1.93.03-.01.04-.01.05-.01-.06.25-.11.5-.19.75"/><path d="M18.91 41.06c.01.02.01.04.02.06.07.17.78.38.93.27.53-.37.81-.91 1.04-1.5.4-1.04.79-2.09 1.2-3.14.11-.3.07-.34.45-.21s.77.25 1.16.36c.4.11.55.03.72-.35.06-.13.12-.27.16-.4.04-.16.12-.18.27-.14.87.25 1.75.48 2.62.72l3.43.9c.02.01.04.02.09.05-.07.06-.12.11-.17.15-1.22.86-2.53 1.55-3.87 2.18-1.13.53-2.26 1.07-3.48 1.35-.79.18-1.59.4-2.39.41-1.5.02-2.94-.37-4.32-.95-.02 0-.02-.02-.06-.06.85-.54 1.71-1.08 2.34-1.93.03-.01.04-.01.05-.01-.06.25-.11.5-.19.75-.14.5-.13.99 0 1.49"/><path fill="#e8c688" d="M19.1 38.8c-.01.02-.02.02-.04.03-.07 0-.14-.01-.18.01-.96.49-1.91.98-2.87 1.46-.1.05-.25.05-.35.01-.63-.31-1.24-.67-1.76-1.16-.07-.07-.14-.14-.2-.22-.6-.72-.62-1.41-.05-2.14.53-.67 1.22-1.14 2-1.52.77.44 1.57.72 2.4.89.58.13 1.18.2 1.77.3-.21.69-.41 1.38-.62 2.07-.03.09-.06.17-.1.27"/><path fill="none" d="M19.06 38.83c-.07 0-.14-.01-.18.01-.96.49-1.91.98-2.87 1.46-.1.05-.25.05-.35.01-.63-.31-1.24-.67-1.76-1.16-.07-.07-.14-.14-.2-.22-.6-.72-.62-1.41-.05-2.14.53-.67 1.22-1.14 2-1.52.77.44 1.57.72 2.4.89.58.13 1.18.2 1.77.3-.21.69-.41 1.38-.62 2.07-.03.09-.06.17-.1.27-.01.02-.02.02-.04.03"/><path d="M18.88 38.84c-.96.49-1.91.98-2.87 1.46-.1.05-.25.05-.35.01-.63-.31-1.24-.67-1.76-1.16-.07-.07-.14-.14-.2-.22-.6-.72-.62-1.41-.05-2.14.53-.67 1.22-1.14 2-1.52.77.44 1.57.72 2.4.89.58.13 1.18.2 1.77.3-.21.69-.41 1.38-.62 2.07-.03.09-.06.17-.1.27-.01.02-.02.02-.04.03-.07 0-.14-.01-.18.01"/><path fill="#ac3f28" d="M19.83 36.45c-.6-.09-1.2-.16-1.78-.29-.83-.17-1.63-.45-2.39-.89.42-.23.83-.48 1.27-.66.77-.31 1.56-.58 2.34-.86.07-.03.14-.03.26-.06-.12.33-.23.62-.33.9-.04.09-.07.17-.1.27-.06.25.02.42.26.52.17.08.35.14.53.2.13.04.17.12.13.25-.07.2-.12.41-.19.62"/><path fill="none" d="M18.05 36.16c-.83-.17-1.63-.45-2.39-.89.42-.23.83-.48 1.27-.66.77-.31 1.56-.58 2.34-.86.07-.03.14-.03.26-.06-.12.33-.23.62-.33.9-.04.09-.07.17-.1.27-.06.25.02.42.26.52.17.08.35.14.53.2.13.04.17.12.13.25-.07.2-.12.41-.19.62-.6-.09-1.2-.16-1.78-.29"/><path d="M15.66 35.27c.42-.23.83-.48 1.27-.66.77-.31 1.56-.58 2.34-.86.07-.03.14-.03.26-.06-.12.33-.23.62-.33.9-.04.09-.07.17-.1.27-.06.25.02.42.26.52.17.08.35.14.53.2.13.04.17.12.13.25-.07.2-.12.41-.19.62-.6-.09-1.2-.16-1.78-.29-.83-.17-1.63-.45-2.39-.89"/><path fill="#e1c184" d="M18.24 41.98c-1.23.01-2.44-.07-3.66-.23.34-.13.68-.27 1.01-.41.18-.08.36-.15.53-.26.16-.09.29-.08.45-.01.85.36 1.72.64 2.63.81.05.01.11.03.16.04v.06z"/><path fill="none" d="M14.58 41.75c.34-.13.68-.27 1.01-.41.18-.08.36-.15.53-.26.16-.09.29-.08.45-.01.85.36 1.72.64 2.63.81.05.01.11.03.16.04v.06h-1.12c-1.23.01-2.44-.07-3.66-.23"/><path d="M15.59 41.34c.18-.08.36-.15.53-.26.16-.09.29-.08.45-.01.85.36 1.72.64 2.63.81.05.01.11.03.16.04v.06h-1.12c-1.23.01-2.44-.07-3.66-.23.34-.13.68-.27 1.01-.41"/><path fill="#a73d27" d="M23.67 21.69c.37-.35 1.18-.29 1.65.02-.81.12-1.51.4-2.08.99.02-.4.14-.74.43-1.01"/><path fill="none" d="M25.32 21.71c-.81.12-1.51.4-2.08.99.02-.4.14-.74.43-1.01.37-.35 1.18-.29 1.65.02"/><path d="M23.24 22.7c.02-.4.14-.74.43-1.01.37-.35 1.18-.29 1.65.02-.81.12-1.51.4-2.08.99"/><path fill="#e4c385" d="M15.41 7.61c-1.37.91-2.73 1.81-4.1 2.71-.02.01-.05.02-.12-.01.06-.13.11-.27.21-.38.42-.45.84-.92 1.3-1.34.95-.88 2.01-1.6 3.21-2.1.12-.04.25-.09.37-.11.08-.01.17.02.25.03-.03.09-.03.19-.08.26-.11.14-.23.27-.37.39-.21.19-.43.36-.67.55"/><path fill="none" d="M11.31 10.32c-.02.01-.05.02-.12-.01.06-.13.11-.27.21-.38.42-.45.84-.92 1.3-1.34.95-.88 2.01-1.6 3.21-2.1.12-.04.25-.09.37-.11.08-.01.17.02.25.03-.03.09-.03.19-.08.26-.11.14-.23.27-.37.39-.21.19-.43.36-.67.55-1.37.91-2.73 1.81-4.1 2.71"/><path d="M11.19 10.31c.06-.13.11-.27.21-.38.42-.45.84-.92 1.3-1.34.95-.88 2.01-1.6 3.21-2.1.12-.04.25-.09.37-.11.08-.01.17.02.25.03-.03.09-.03.19-.08.26-.11.14-.23.27-.37.39-.21.19-.43.36-.67.55-1.37.91-2.73 1.81-4.1 2.71-.02.01-.05.02-.12-.01"/><path fill="#f1c285" d="M22.49 3.95c-.01.02-.04.03-.06.04 0-.02.01-.04.02-.06.02 0 .03.01.04.02"/><path fill="none" d="M22.43 3.99c0-.02.01-.04.02-.06.02 0 .03.01.04.02-.01.02-.04.03-.06.04"/><path d="M22.45 3.93c.02 0 .03.01.04.02-.01.02-.04.03-.06.04 0-.02.01-.04.02-.06"/><path fill="#e4c385" d="M38.54 7.43c-.01.12 0 .28-.05.31-.08.05-.23.03-.32-.02-.58-.28-.88-.78-1.06-1.38-.04-.15-.07-.32-.07-.49.01-.23.16-.3.36-.18.08.04.14.1.2.16.43.46.74.99.94 1.6"/><path fill="none" d="M38.49 7.74c-.08.05-.23.03-.32-.02-.58-.28-.88-.78-1.06-1.38-.04-.15-.07-.32-.07-.49.01-.23.16-.3.36-.18.08.04.14.1.2.16.43.46.74.99.94 1.6-.01.12 0 .28-.05.31"/><path d="M38.17 7.72c-.58-.28-.88-.78-1.06-1.38-.04-.15-.07-.32-.07-.49.01-.23.16-.3.36-.18.08.04.14.1.2.16.43.46.74.99.94 1.6-.01.12 0 .28-.05.31-.08.05-.23.03-.32-.02"/></svg>