<svg xmlns="http://www.w3.org/2000/svg" width="50" height="50" fill="none" viewBox="0 0 50 50"><path fill="#ccd3df" d="M31.766 0H18.234c-.302 0-.59.118-.804.328s-.334.496-.334.793v8.457h15.808V1.121c0-.297-.12-.582-.334-.793A1.15 1.15 0 0 0 31.766 0"/><path fill="#a0a6af" d="M21.407 0h-3.173c-.302 0-.59.118-.804.328s-.334.496-.334.793v8.457h3.173V1.121c0-.297.12-.582.334-.793.213-.21.502-.328.804-.328"/><path fill="#b0b5ca" d="M28.1 34.304h-6.335a1.48 1.48 0 0 0-.962.508 1.44 1.44 0 0 0 .116 1.994c.274.255.637.397 1.014.397h6c.377 0 .74-.143 1.014-.398s.439-.603.46-.974a1.44 1.44 0 0 0-.345-1.02 1.48 1.48 0 0 0-.962-.507M22.742 40.044V50h4.305l.104-9.956z"/><path fill="#f3ce7d" d="M29.575 0h-2.937v3.18h2.937z"/><path fill="#ddb973" d="M26.638 0h-3.276v3.18h3.276z"/><path fill="#f3ce7d" d="M23.362 0h-2.937v3.18h2.937z"/><path fill="#8aafc4" d="M34.58 9.578H15.42a.42.42 0 0 0-.297.121.4.4 0 0 0-.123.293v3.663h20V9.992a.4.4 0 0 0-.123-.293.42.42 0 0 0-.297-.12"/><path fill="#b3d1e7" d="M35 13.655H15v13.766h20z"/><path fill="#978cac" d="M23.093 9.578v6.334a1.85 1.85 0 0 0 .559 1.328 1.9 1.9 0 0 0 1.348.55 1.93 1.93 0 0 0 1.348-.55 1.88 1.88 0 0 0 .559-1.328V9.578z"/><path fill="#9a9faf" d="M27.933 37.203h-6c-.392 0-.767.153-1.044.425a1.443 1.443 0 0 0 0 2.057c.277.273.652.426 1.044.426h6c.391 0 .767-.153 1.044-.426a1.443 1.443 0 0 0 0-2.056 1.5 1.5 0 0 0-1.044-.426"/><path fill="#8aafc4" d="m15 27.42 4.791 6.732a.42.42 0 0 0 .343.176h9.732a.42.42 0 0 0 .343-.176L35 27.421z"/><path fill="#64818e" d="M18.593 9.578H15.42a.42.42 0 0 0-.297.121.4.4 0 0 0-.123.293v3.663h3.173V9.992a.4.4 0 0 1 .123-.293.42.42 0 0 1 .297-.12"/><path fill="#90aaba" d="M18.173 13.655H15v13.766h3.173z"/><path fill="#64818e" d="m22.964 34.152-4.791-6.731H15l4.791 6.731a.42.42 0 0 0 .343.176h3.173a.42.42 0 0 1-.343-.176"/><path fill="#f4f8fc" d="M17.331 25.296a.64.64 0 0 1-.448-.183.62.62 0 0 1-.186-.442v-5.867a.62.62 0 0 1 .186-.442.64.64 0 0 1 .897 0 .62.62 0 0 1 .186.442v5.867a.62.62 0 0 1-.186.442.64.64 0 0 1-.449.183M17.331 17.207a.64.64 0 0 1-.448-.184.62.62 0 0 1-.186-.442v-.652a.62.62 0 0 1 .186-.442.64.64 0 0 1 .897 0 .62.62 0 0 1 .186.442v.652a.62.62 0 0 1-.186.442.64.64 0 0 1-.449.183"/></svg>