<svg xmlns="http://www.w3.org/2000/svg" width="50" height="50" fill="none" viewBox="0 0 50 50"><path d="M0 0h50v50H0z"/><circle cx="25" cy="30" r="9.919" fill="#c8effe"/><path fill="#99e6fc" d="M26.885 39.74a10 10 0 0 1-1.885.179c-5.478 0-9.919-4.441-9.919-9.919s4.441-9.919 9.919-9.919q.969.002 1.885.18c-4.576.88-8.034 4.906-8.034 9.739s3.458 8.86 8.034 9.74"/><g fill="#82aee3"><path d="M31.947 37.412a.32.32 0 0 1-.233-.095A9.53 9.53 0 0 0 25 34.573c-2.526 0-4.91.974-6.714 2.744a.33.33 0 0 1-.236.095.33.33 0 0 1-.304-.208.33.33 0 0 1 .075-.36A10.2 10.2 0 0 1 25 33.908c2.701 0 5.251 1.042 7.18 2.934q.07.07.092.17a.33.33 0 0 1-.018.193.33.33 0 0 1-.122.15.33.33 0 0 1-.185.056M25 26.092a10.2 10.2 0 0 1-7.18-2.935.33.33 0 0 1-.074-.361.33.33 0 0 1 .178-.181.33.33 0 0 1 .362.068A9.53 9.53 0 0 0 25 25.427c2.526 0 4.91-.974 6.714-2.744a.33.33 0 0 1 .36-.065.33.33 0 0 1 .202.306.33.33 0 0 1-.097.233A10.2 10.2 0 0 1 25 26.09"/><path d="M25 40.241a10.18 10.18 0 0 1-7.242-3 10.17 10.17 0 0 1-3-7.241c0-2.736 1.066-5.307 3-7.242 1.935-1.934 4.507-3 7.242-3s5.307 1.066 7.242 3c1.934 1.935 3 4.506 3 7.242s-1.066 5.307-3 7.242a10.17 10.17 0 0 1-7.242 3m0-19.837a9.53 9.53 0 0 0-6.785 2.81A9.53 9.53 0 0 0 15.404 30c0 2.563.998 4.973 2.81 6.785A9.53 9.53 0 0 0 25 39.596a9.53 9.53 0 0 0 6.785-2.81A9.53 9.53 0 0 0 34.597 30a9.53 9.53 0 0 0-2.81-6.785A9.53 9.53 0 0 0 25 20.404"/><path d="M25 40.25c-1.462 0-2.817-1.096-3.816-3.087C20.22 35.243 19.69 32.7 19.69 30s.53-5.244 1.494-7.163c.999-1.991 2.354-3.088 3.816-3.088s2.817 1.097 3.816 3.089C29.78 24.755 30.31 27.3 30.31 30s-.53 5.244-1.494 7.163c-.999 1.991-2.354 3.088-3.816 3.088m0-19.837c-1.197 0-2.342.967-3.223 2.722-.917 1.828-1.422 4.266-1.422 6.865s.505 5.037 1.422 6.865c.881 1.755 2.026 2.722 3.223 2.722s2.342-.967 3.223-2.722c.917-1.828 1.422-4.266 1.422-6.865s-.505-5.037-1.422-6.865c-.881-1.755-2.025-2.722-3.223-2.722"/><path d="M34.919 30.332H15.08a.33.33 0 0 1-.234-.097.33.33 0 0 1-.072-.362.33.33 0 0 1 .18-.18.3.3 0 0 1 .126-.025H34.92a.33.33 0 0 1 .332.332.33.33 0 0 1-.205.307.3.3 0 0 1-.127.025"/></g><circle cx="18.053" cy="22.92" r="1.081" fill="#ffe177"/><path fill="#ffd15b" d="M18.487 21.93a1.081 1.081 0 1 0 0 1.98 1.08 1.08 0 0 1 0-1.98"/><circle cx="20.7" cy="25.082" r="1.081" fill="#ffe177"/><path fill="#ffd15b" d="M21.134 24.092a1.081 1.081 0 1 0 0 1.98 1.08 1.08 0 0 1 0-1.98"/><circle cx="20.023" cy="30" r="1.081" fill="#ffe177"/><path fill="#ffd15b" d="M20.456 29.01a1.081 1.081 0 1 0 0 1.98 1.08 1.08 0 0 1 0-1.98"/><circle cx="29.977" cy="30" r="1.081" fill="#ffe177"/><path fill="#ffd15b" d="M30.411 29.01a1.08 1.08 0 1 0 0 1.98 1.08 1.08 0 0 1 0-1.98"/><circle cx="34.919" cy="30" r="1.081" fill="#ffe177"/><path fill="#ffd15b" d="M35.352 29.01a1.08 1.08 0 1 0 0 1.98 1.08 1.08 0 0 1 0-1.98"/><circle cx="15.081" cy="30" r="1.081" fill="#ffe177"/><path fill="#ffd15b" d="M15.515 29.01a1.08 1.08 0 1 0 0 1.98 1.08 1.08 0 0 1 0-1.98"/><circle cx="18.053" cy="37.08" r="1.081" fill="#ffe177"/><path fill="#ffd15b" d="M18.487 36.09a1.08 1.08 0 1 0 0 1.98 1.08 1.08 0 0 1 0-1.98"/><circle cx="31.947" cy="22.92" r="1.081" fill="#ffe177"/><path fill="#ffd15b" d="M32.38 21.93a1.081 1.081 0 1 0 0 1.98 1.08 1.08 0 0 1 0-1.98"/><circle cx="31.947" cy="37.08" r="1.081" fill="#ffe177"/><path fill="#ffd15b" d="M32.38 36.09a1.081 1.081 0 1 0 0 1.98 1.08 1.08 0 0 1 0-1.98"/><circle cx="20.7" cy="35.322" r="1.081" fill="#ffe177"/><path fill="#ffd15b" d="M21.134 34.332a1.081 1.081 0 1 0 0 1.98 1.08 1.08 0 0 1 0-1.98"/><circle cx="29.289" cy="25.082" r="1.081" fill="#ffe177"/><path fill="#ffd15b" d="M29.723 24.092a1.081 1.081 0 1 0 0 1.98 1.08 1.08 0 0 1 0-1.98"/><circle cx="29.289" cy="35.322" r="1.081" fill="#ffe177"/><path fill="#ffd15b" d="M29.723 34.332a1.081 1.081 0 1 0 0 1.98 1.08 1.08 0 0 1 0-1.98"/><path fill="#82aee3" d="M25 40.25a.33.33 0 0 1-.235-.096.33.33 0 0 1-.097-.235V20.08a.33.33 0 0 1 .097-.234.33.33 0 0 1 .235-.098.33.33 0 0 1 .307.205.3.3 0 0 1 .025.127V39.92a.33.33 0 0 1-.097.235.33.33 0 0 1-.235.097"/><circle cx="25" cy="30" r="1.081" fill="#ffe177"/><path fill="#ffd15b" d="M25.434 29.01a1.081 1.081 0 1 0 0 1.98 1.08 1.08 0 0 1 0-1.98"/><circle cx="25" cy="25.759" r="1.081" fill="#ffe177"/><path fill="#ffd15b" d="M25.434 24.769a1.081 1.081 0 1 0 0 1.98 1.08 1.08 0 0 1 0-1.98"/><circle cx="25" cy="20.081" r="1.081" fill="#ffe177"/><path fill="#ffd15b" d="M25.434 19.091a1.081 1.081 0 1 0 0 1.98 1.08 1.08 0 0 1 0-1.98"/><circle cx="25" cy="39.919" r="1.081" fill="#ffe177"/><path fill="#ffd15b" d="M25.434 38.928a1.081 1.081 0 1 0 0 1.98 1.08 1.08 0 0 1 0-1.98"/><circle cx="25" cy="34.241" r="1.081" fill="#ffe177"/><path fill="#ffd15b" d="M25.434 33.25a1.081 1.081 0 1 0 0 1.98 1.08 1.08 0 0 1 0-1.98"/><path fill="#50758d" d="M50 9.02v5.025H0V9.02C0 6.8 1.802 5 4.024 5h41.952C48.198 5 50 6.8 50 9.02"/><path fill="#2b597f" d="M47.736 9.523a2.265 2.265 0 0 0-2.263-2.262H24.044c-.642 0-1.222.27-1.635.7l-.733.732c-.43.412-.7.992-.7 1.634a2.265 2.265 0 0 0 2.263 2.26h21.429c.642 0 1.223-.268 1.635-.699l.733-.732c.431-.412.7-.992.7-1.633m-40.87-.026a2.265 2.265 0 0 0-2.263-2.26c-.643 0-1.223.268-1.635.699-.48.478-.255.253-.733.732-.431.412-.7.992-.7 1.634a2.265 2.265 0 0 0 2.263 2.26c.642 0 1.222-.268 1.635-.699l.733-.732c.43-.412.7-.992.7-1.634m6.464 0a2.265 2.265 0 0 0-2.264-2.26c-.642 0-1.222.268-1.635.699l-.733.732c-.43.412-.7.992-.7 1.634a2.265 2.265 0 0 0 2.264 2.26c.642 0 1.222-.268 1.634-.699.48-.478.255-.253.733-.732.432-.412.701-.992.701-1.634m6.439 0a2.265 2.265 0 0 0-2.264-2.26c-.642 0-1.223.268-1.635.699l-.733.732c-.431.412-.7.992-.7 1.634a2.265 2.265 0 0 0 2.263 2.26c.643 0 1.223-.268 1.635-.699.48-.478.255-.253.733-.732.431-.412.7-.992.7-1.634"/><path fill="#fd646f" d="M4.603 11.759a2.265 2.265 0 0 1-2.264-2.262 2.265 2.265 0 0 1 2.264-2.26 2.265 2.265 0 0 1 2.263 2.26 2.265 2.265 0 0 1-2.263 2.262"/><path fill="#ffc682" d="M11.066 11.784a2.265 2.265 0 0 1-2.263-2.261 2.265 2.265 0 0 1 2.263-2.262 2.265 2.265 0 0 1 2.264 2.262 2.265 2.265 0 0 1-2.264 2.26"/><path fill="#93ddb7" d="M17.505 11.784a2.265 2.265 0 0 1-2.263-2.261 2.265 2.265 0 0 1 2.263-2.262 2.265 2.265 0 0 1 2.264 2.262 2.265 2.265 0 0 1-2.264 2.26"/><path fill="#f5f5f5" d="M45.473 11.784H24.044a2.265 2.265 0 0 1-2.263-2.261 2.265 2.265 0 0 1 2.263-2.262h21.429a2.265 2.265 0 0 1 2.263 2.262 2.265 2.265 0 0 1-2.263 2.26"/><path fill="#f0f0f0" d="M0 14v31h50V14z"/><path fill="#0052b4" d="M0 14h50v31H0z"/><path fill="#f0f0f0" d="M0 14h50v10.333H0z"/><path fill="#d80027" d="M0 34.666h50V45H0z"/></svg>