<svg xmlns="http://www.w3.org/2000/svg" width="50" height="50" fill="none" viewBox="0 0 50 50"><path fill="#6794c2" d="M23.394 21.275c-1.636.258-8.626 2.501-11.179 3.468-1.466.546-.555-1.19-.555-2.718 0-3-2.487-5.435-5.552-5.435S.556 19.025.556 22.025s2.487 5.436 5.552 5.436q.568-.002 1.105-.108c2.377-.194 4.932-.78 7.214-1.371 2.029-.452 3.796-.903 4.974-.903.393 0 1.44 0 1.768.838.589 1.354 1.44 1.612 2.094 1.612.393 0 .655-.13.72-.13 6.546-1.805 23.368-7.092 25.463-10.896zm-20.062.75c0-1.5 1.244-2.717 2.776-2.717s2.776 1.217 2.776 2.717-1.244 2.718-2.776 2.718-2.776-1.217-2.776-2.718"/><path fill="#1f212b" d="M23.263 28.073c-.803 0-1.907-.337-2.605-1.943-.177-.452-.764-.508-1.257-.508-.93 0-2.314.314-3.917.679l-.935.211c-3.056.791-5.632 1.234-7.858 1.346l-.028.001h-.556C2.74 27.86 0 25.162 0 21.846s2.74-6.012 6.107-6.012 6.108 2.697 6.108 6.012c0 .69-.12 1.37-.352 2.013 2.899-.84 10.1-2.91 11.442-3.12l26.038-4.77a.56.56 0 0 1 .55.215c.127.17.142.394.04.578-2.597 4.716-24.855 10.9-25.8 11.162l-.06.012a2.6 2.6 0 0 1-.81.137m-3.862-3.538c.451 0 1.823 0 2.286 1.188.492 1.13 1.136 1.262 1.576 1.262.195 0 .342-.045.45-.078q.077-.025.157-.04c8.159-2.254 20.353-6.404 24.119-9.544l-24.493 4.486c-1.596.252-12.4 3.408-12.51 3.44a.56.56 0 0 1-.6-.191.535.535 0 0 1-.03-.616c.49-.777.749-1.675.749-2.596 0-2.716-2.242-4.925-4.997-4.925S1.11 19.13 1.11 21.846s2.241 4.926 4.997 4.926h.54c2.146-.11 4.644-.54 7.637-1.315l.948-.215c1.67-.38 3.111-.707 4.168-.707"/><path fill="#c6e0f2" d="M22.282 30.753c1.636-1.548 3.076-2.837 3.73-3.74l14.074-23.47C34.522 4.899 20.907 22.63 20.71 22.887c-.066.065-1.44 1.355.196 3.096.917.967-.523 2.901-2.487 5.609-2.03 2.773-4.517 6.19-4.778 9.091 0 0 .24.158.24.369 0 3 2.487 5.435 5.551 5.435s5.553-2.435 5.553-5.435c0-3.001-2.488-5.436-5.553-5.436-1.12 0 .838-3 2.849-4.863m-2.849 7.58c1.532 0 2.776 1.217 2.776 2.718s-1.244 2.717-2.776 2.717-2.776-1.217-2.776-2.717 1.244-2.718 2.776-2.718"/><path fill="#fefdf0" d="M24.708 21.754c-.614 0-1.111.486-1.111 1.087 0 .6.497 1.087 1.11 1.087s1.11-.487 1.11-1.087-.496-1.087-1.11-1.087"/><path fill="#1f212b" d="M24.708 24.2c-.766 0-1.389-.61-1.389-1.36 0-.749.623-1.358 1.389-1.358.765 0 1.388.61 1.388 1.359 0 .75-.623 1.359-1.389 1.359m0-2.175a.825.825 0 0 0-.833.816c0 .45.373.815.832.815.46 0 .833-.366.833-.815a.825.825 0 0 0-.832-.816"/><path fill="#1f212b" d="M19.433 47c-3.367 0-6.107-2.697-6.107-6.013v-.547c.266-2.975 2.348-6.031 4.642-9.166l.13-.18c1.538-2.119 2.99-4.122 2.401-4.743-1.442-1.535-1.02-3.01-.21-3.82.65-.85 13.935-18.121 19.662-19.515a.56.56 0 0 1 .579.202.53.53 0 0 1 .034.6l-14.073 23.47c-.596.828-1.706 1.869-2.991 3.073l-.833.783-.004.004c-1.055.977-2.48 2.717-3.358 3.828l.127-.001c3.368 0 6.108 2.697 6.108 6.012 0 3.316-2.74 6.013-6.107 6.013M38.738 4.718c-5.097 2.97-14.41 14.324-17.582 18.494a1 1 0 0 1-.051.057c-.249.243-.95 1.11.21 2.344 1.202 1.268-.196 3.194-2.31 6.11l-.132.182c-2.203 3.01-4.199 5.929-4.439 8.582l.002.5c0 2.716 2.241 4.926 4.997 4.926s4.997-2.21 4.997-4.925c0-2.717-2.241-4.926-4.997-4.926-.42 0-.837.051-1.238.152a.56.56 0 0 1-.598-.223.53.53 0 0 1 .013-.626c.105-.14 2.589-3.43 4.29-5.006l.833-.783c1.243-1.167 2.318-2.174 2.827-2.878z"/><path fill="#1f212b" d="M19.433 44.265c-1.837 0-3.331-1.47-3.331-3.278 0-1.807 1.494-3.277 3.331-3.277s3.331 1.47 3.331 3.277-1.494 3.278-3.331 3.278m0-5.468c-1.225 0-2.22.983-2.22 2.19 0 1.208.995 2.191 2.22 2.191s2.22-.983 2.22-2.19c0-1.208-.995-2.191-2.22-2.191M6.108 25.24c-1.837 0-3.331-1.47-3.331-3.278 0-1.807 1.494-3.277 3.33-3.277 1.838 0 3.332 1.47 3.332 3.277S7.945 25.24 6.108 25.24m0-5.468c-1.225 0-2.221.983-2.221 2.19 0 1.208.996 2.191 2.22 2.191 1.226 0 2.222-.983 2.222-2.19 0-1.209-.996-2.191-2.221-2.191"/></svg>