<svg xmlns="http://www.w3.org/2000/svg" width="50" height="50" fill="none" viewBox="0 0 50 50"><path d="M0 0h50v50H0z"/><path fill="#52afff" d="M25 50c13.807 0 25-11.193 25-25S38.807 0 25 0 0 11.193 0 25s11.193 25 25 25"/><path fill="#a4e2f1" d="M42.678 7.322a24.9 24.9 0 0 0-7.622-5.21l-8 17.577 3.254 3.255 17.577-8a24.9 24.9 0 0 0-5.21-7.622M2.112 35.056a24.9 24.9 0 0 0 5.21 7.622 24.9 24.9 0 0 0 7.622 5.21l8-17.577-3.254-3.255z"/><path fill="#0037ff" d="M25 34.615a9.615 9.615 0 1 0 0-19.23 9.615 9.615 0 0 0 0 19.23"/><path fill="#52afff" d="M25 28.846a3.846 3.846 0 1 0 0-7.692 3.846 3.846 0 0 0 0 7.692"/><path fill="#ffc400" d="M50 23H0v27h50z"/><path fill="#3b96d2" d="M31.281 43.412C29.753 45.61 27.507 47 25 47s-4.753-1.39-6.281-3.588l-2.033-7.781C17.035 30.236 20.623 26 25 26s7.965 4.236 8.314 9.631z"/><path fill="#2980b9" d="M28.034 41.569v4.714A6.75 6.75 0 0 1 25 47a6.75 6.75 0 0 1-3.034-.717v-4.714c0-.768.32-1.505.888-2.048A3.1 3.1 0 0 1 25 38.672a3.1 3.1 0 0 1 2.146.849c.569.543.888 1.28.888 2.048"/><path fill="#65dcb8" d="M30.31 33.241c0 2.8-2.377 2.897-5.31 2.897s-5.31-.097-5.31-2.897 2.377-5.069 5.31-5.069 5.31 2.27 5.31 5.07"/><path fill="#ebeff0" d="M25 36.5c-2.667 0-5.69 0-5.69-3.259 0-2.999 2.548-5.43 5.69-5.43s5.69 2.431 5.69 5.43c0 3.259-3.023 3.259-5.69 3.259m0-7.966c-2.722.003-4.928 2.11-4.93 4.707 0 2.285 1.578 2.535 4.93 2.535s4.93-.25 4.93-2.535c-.002-2.598-2.208-4.704-4.93-4.707"/><path fill="#464f5d" d="M23.483 31.43c0-.399-.34-.723-.759-.723s-.758.324-.758.724v2.172c0 .4.34.725.758.725.42 0 .759-.325.759-.725zM28.034 31.43c0-.399-.34-.723-.758-.723-.42 0-.759.324-.759.724v2.172c0 .4.34.725.759.725s.758-.325.758-.725z"/><path fill="#285680" d="m19.557 40.827-.011.076a9 9 0 0 1-.827 2.509c-.736 1.412-1.779 2.277-2.773 2.121-1.403-.213-2.2-2.407-1.873-4.996zm16.37-.29c.327 2.589-.47 4.783-1.873 4.996-.994.156-2.037-.71-2.773-2.121a9 9 0 0 1-.827-2.51l-.011-.075z"/><path fill="#2980b9" d="M19.69 39.397a9.5 9.5 0 0 1-.133 1.43c-.862.53-1.877.789-2.901.742a3.4 3.4 0 0 1-1.412-.241 3.3 3.3 0 0 1-1.171-.79q.03-.235.072-.475c.379-2.136 1.41-3.849 2.54-4.432a1.7 1.7 0 0 1 1.06-.2c1.213.19 1.971 1.848 1.945 3.966m16.237 1.14a3.3 3.3 0 0 1-1.17.79 3.4 3.4 0 0 1-1.413.242 5.1 5.1 0 0 1-2.901-.742 9.5 9.5 0 0 1-.133-1.43c-.026-2.118.732-3.777 1.946-3.965a1.7 1.7 0 0 1 1.058.199c1.13.583 2.162 2.296 2.541 4.432q.042.24.072.474"/></svg>