<svg xmlns="http://www.w3.org/2000/svg" width="50" height="50" fill="none" viewBox="0 0 50 50"><path fill="#ddf5ff" d="M28.437 31.827c2.411 0 4.366-1.999 4.366-4.464s-1.955-4.464-4.366-4.464-4.365 1.999-4.365 4.464 1.954 4.464 4.365 4.464M29.907 38.544a4.51 4.51 0 0 0-3.528.11 4.6 4.6 0 0 0-1.464 1.069 4.7 4.7 0 0 0-.951 1.562.84.84 0 0 1-.412.484.8.8 0 0 1-.626.046 14.7 14.7 0 0 1-4.322-2.586.85.85 0 0 1 0-1.17 4.75 4.75 0 0 0 1.128-2.361c.15-.88.05-1.786-.284-2.611a4.7 4.7 0 0 0-1.61-2.049 4.54 4.54 0 0 0-2.432-.846 14.07 14.07 0 0 1-9.358.309 17.4 17.4 0 0 0 2.853 5.104c8.385 10.1 12.448 11.955 23.772 6.055a1 1 0 0 1-.108-.199 4.7 4.7 0 0 0-1.012-1.76 4.6 4.6 0 0 0-1.646-1.157"/><path fill="#ddf5ff" d="M49.054 12.646c-3.522-4.42-22.648-3.735-25.933-3.094a14.9 14.9 0 0 1 1.34 4.287 4.7 4.7 0 0 0 1.357 1.72c.58.454 1.258.76 1.977.891.719.132 1.458.086 2.157-.133a4.56 4.56 0 0 0 1.857-1.13 4.75 4.75 0 0 0 1.123-1.812.84.84 0 0 1 .412-.484c.194-.1.42-.116.626-.046a14.6 14.6 0 0 1 4.322 2.585.85.85 0 0 1 0 1.171 4.75 4.75 0 0 0-1.188 2.625c-.117.98.072 1.974.538 2.84a4.65 4.65 0 0 0 2.06 1.982 4.5 4.5 0 0 0 2.804.376.8.8 0 0 1 .617.09.84.84 0 0 1 .377.507 15.8 15.8 0 0 1 0 4.795.83.83 0 0 1-.337.538.8.8 0 0 1-.614.125 4.5 4.5 0 0 0-2.813.279 4.64 4.64 0 0 0-2.124 1.907 4.79 4.79 0 0 0 .464 5.482c8.06-6.762 14.393-21.391 10.978-25.501"/><path fill="#3cfffc" d="m19.75 19.297-1.686-1.038a1.56 1.56 0 0 1-.546-.585 1.6 1.6 0 0 1-.189-.785v-.84a1.6 1.6 0 0 1 .198-.79c.133-.24.326-.44.559-.58l1.685-1.039c.184-.103.344-.243.473-.411a1.58 1.58 0 0 0 .306-1.204 1.6 1.6 0 0 0-.217-.594l-.843-1.415a1.6 1.6 0 0 0-.398-.49 1.52 1.52 0 0 0-1.178-.324 1.5 1.5 0 0 0-.585.218l-1.707 1.038a1.51 1.51 0 0 1-1.534 0l-.778-.464a1.55 1.55 0 0 1-.559-.581 1.6 1.6 0 0 1-.198-.789V6.569c0-.409-.155-.801-.434-1.094A1.52 1.52 0 0 0 11.062 5h-1.6c-.406 0-.796.165-1.084.46-.288.294-.45.693-.45 1.109v2.21c.003.276-.065.548-.198.789-.133.24-.325.44-.558.58l-.778.465a1.51 1.51 0 0 1-1.534 0L3.152 9.42a1.51 1.51 0 0 0-1.202-.19c-.202.054-.391.15-.556.28a1.6 1.6 0 0 0-.403.484l-.735 1.459a1.6 1.6 0 0 0-.185 1.228c.053.207.146.401.275.57.128.168.289.309.472.411l1.686 1.039c.226.14.412.339.54.575.13.236.196.502.195.773v.884a1.6 1.6 0 0 1-.21.764 1.55 1.55 0 0 1-.547.562L.797 19.297a1.5 1.5 0 0 0-.473.412 1.58 1.58 0 0 0-.306 1.203c.032.212.106.414.217.595l.8 1.414a1.521 1.521 0 0 0 1.58.796c.205-.032.403-.108.58-.221l1.686-1.039a1.51 1.51 0 0 1 1.535 0l.778.464c.232.14.425.34.558.581s.201.513.198.79v1.79c0 .415.162.814.45 1.109.287.294.677.46 1.084.46h1.578c.407 0 .797-.166 1.085-.46s.45-.694.45-1.11v-1.834a1.6 1.6 0 0 1 .197-.789c.133-.24.326-.44.559-.58l.778-.465a1.51 1.51 0 0 1 1.534 0l1.664 1.06a1.51 1.51 0 0 0 1.202.19 1.5 1.5 0 0 0 .557-.28 1.6 1.6 0 0 0 .402-.484l.8-1.414a1.6 1.6 0 0 0 .204-1.219 1.6 1.6 0 0 0-.262-.571 1.55 1.55 0 0 0-.46-.42zm-9.488.442a3.2 3.2 0 0 1-1.819-.551 3.3 3.3 0 0 1-1.21-1.493 3.4 3.4 0 0 1-.195-1.93 3.36 3.36 0 0 1 .888-1.714 3.24 3.24 0 0 1 1.67-.92 3.2 3.2 0 0 1 1.889.187 3.3 3.3 0 0 1 1.468 1.228c.359.55.551 1.196.551 1.856a3.37 3.37 0 0 1-.963 2.346 3.23 3.23 0 0 1-2.3.97z"/></svg>