<svg xmlns="http://www.w3.org/2000/svg" width="50" height="50" fill="none" viewBox="0 0 50 50"><path fill="url(#a)" d="M11.974 9.917H4.868L3.684 29.96h9.473z"/><path fill="#ba2b00" d="m4.52 15.812-.14 2.359h8.08l-.139-2.359zM4.868 9.917l-.14 2.36h7.384l-.14-2.36zM12.808 24.065l-.139-2.359H4.172l-.14 2.359z"/><path fill="url(#b)" d="m47.5 19.528-15.04 9.534v-9.534l-14.984 9.534v-9.534L2.5 29.062V50h44.997z"/><path fill="url(#c)" d="M28.431 34.44H6.981v11.923h21.45z"/><g opacity=".28"><path fill="#000" d="M6.981 34.44v11.923h21.45V34.44z"/><path fill="#000101" d="M6.986 46.357V34.445h21.44v11.912z"/><path fill="#010101" d="M6.99 46.351v-11.9h21.431v11.9z"/><path fill="#010202" d="M6.996 46.346v-11.89h21.422v11.89z"/><path fill="#020203" d="M7 46.34V34.46h21.414v11.88z"/><path fill="#020303" d="M7.004 46.334V34.466h21.405v11.868z"/><path fill="#030404" d="M7.01 46.327V34.471h21.395v11.856z"/><path fill="#030405" d="M7.014 46.322V34.477H28.4v11.845z"/><path fill="#040505" d="M7.019 46.316V34.48h21.376v11.834z"/><path fill="#040506" d="M7.022 46.31V34.487h21.37V46.31z"/><path fill="#040607" d="M7.026 46.305V34.493h21.36v11.812z"/><path fill="#050708" d="M7.031 46.298v-11.8h21.35v11.8z"/><path fill="#050708" d="M7.035 46.293v-11.79h21.341v11.79z"/><path fill="#060809" d="M7.041 46.287V34.507h21.332v11.778z"/><path fill="#06080a" d="M7.045 46.281V34.514h21.324V46.28z"/><path fill="#07090a" d="M7.049 46.275V34.519h21.315v11.756z"/><path fill="#07090b" d="M7.054 46.27V34.523h21.305V46.27z"/><path fill="#080a0c" d="M7.057 46.263V34.528h21.296v11.735z"/><path fill="#080b0c" d="M7.063 46.258V34.535h21.286v11.723z"/><path fill="#090b0d" d="M7.068 46.252V34.54h21.28v11.712z"/><path fill="#090c0e" d="M7.073 46.246v-11.7h21.27v11.7z"/><path fill="#090c0e" d="M7.077 46.24V34.55h21.26v11.69z"/><path fill="#0a0d0f" d="M7.081 46.234V34.556h21.252v11.678z"/><path fill="#0a0e10" d="M7.086 46.229V34.56h21.242v11.667z"/><path fill="#0b0e10" d="M7.09 46.222V34.565h21.234v11.657z"/><path fill="#0b0f11" d="M7.096 46.217V34.572H28.32v11.645z"/><path fill="#0c0f12" d="M7.1 46.21V34.576h21.215V46.21z"/><path fill="#0c1013" d="M7.104 46.205V34.582H28.31v11.623z"/><path fill="#0d1113" d="M7.107 46.198V34.586h21.197v11.612z"/><path fill="#0d1114" d="M7.111 46.193v-11.6h21.19v11.6z"/><path fill="#0d1215" d="M7.117 46.188v-11.59h21.18v11.59z"/><path fill="#0e1215" d="M7.122 46.181V34.603h21.17v11.578z"/><path fill="#0e1316" d="M7.126 46.176V34.608h21.161v11.568z"/><path fill="#0f1417" d="M7.13 46.17V34.611h21.153V46.17z"/><path fill="#0f1417" d="M7.135 46.164V34.62h21.144v11.545z"/><path fill="#101518" d="M7.14 46.157V34.623h21.135v11.534z"/><path fill="#101519" d="M7.145 46.152V34.63H28.27v11.522z"/><path fill="#111619" d="M7.148 46.146V34.633h21.117v11.512z"/><path fill="#11161a" d="M7.153 46.14v-11.5H28.26v11.5z"/><path fill="#11171b" d="M7.156 46.134v-11.49h21.1v11.49z"/><path fill="#12181b" d="M7.162 46.128V34.65h21.09v11.478z"/><path fill="#12181c" d="M7.166 46.123V34.656h21.08v11.467z"/><path fill="#13191d" d="M7.17 46.117V34.66H28.24v11.457z"/><path fill="#13191e" d="M7.177 46.111V34.667h21.062V46.11z"/><path fill="#141a1e" d="M7.18 46.105V34.67h21.055v11.435z"/><path fill="#141b1f" d="M7.186 46.1V34.676H28.23v11.422z"/><path fill="#151b20" d="M7.19 46.093V34.681h21.035v11.412z"/><path fill="#151c20" d="M7.193 46.088v-11.4H28.22v11.4z"/><path fill="#151c21" d="M7.2 46.08V34.692h21.016v11.39z"/><path fill="#161d22" d="M7.203 46.076V34.698h21.009v11.378z"/><path fill="#161e22" d="M7.207 46.07V34.703h21V46.07z"/><path fill="#171e23" d="M7.21 46.064V34.707h20.991v11.356z"/><path fill="#171f24" d="M7.215 46.059V34.714h20.981v11.345z"/><path fill="#181f24" d="M7.22 46.052V34.718h20.973v11.334z"/><path fill="#182025" d="M7.225 46.047V34.725h20.964v11.322z"/><path fill="#192126" d="M7.23 46.04V34.728h20.955V46.04z"/><path fill="#192126" d="M7.234 46.035V34.733H28.18v11.3z"/><path fill="#1a2227" d="M7.238 46.028V34.74h20.936v11.29z"/><path fill="#1a2228" d="M7.244 46.023V34.744h20.927v11.279z"/><path fill="#1a2329" d="M7.248 46.016V34.75h20.919v11.266z"/><path fill="#1b2429" d="M7.252 46.011V34.755H28.16V46.01z"/><path fill="#1b242a" d="M7.256 46.006V34.76h20.9v11.244z"/><path fill="#1c252b" d="M7.26 46V34.764h20.89V46z"/><path fill="#1c252b" d="M7.266 45.994V34.772h20.882v11.222z"/><path fill="#1d262c" d="M7.27 45.987V34.776h20.873v11.211z"/><path fill="#1d262d" d="M7.274 45.982v-11.2H28.14v11.2z"/><path fill="#1e272d" d="M7.28 45.975V34.786h20.855v11.19z"/><path fill="#1e282e" d="M7.283 45.97V34.792H28.13V45.97z"/><path fill="#1e282f" d="M7.29 45.964V34.797h20.836v11.167z"/><path fill="#1f292f" d="M7.293 45.958V34.802h20.829v11.156z"/><path fill="#1f2930" d="M7.299 45.953V34.81h20.82v11.144z"/><path fill="#202a31" d="M7.303 45.947V34.813h20.81v11.133z"/><path fill="#202b31" d="M7.307 45.941V34.82h20.8v11.122z"/><path fill="#212b32" d="M7.31 45.935V34.823h20.792v11.112z"/><path fill="#212c33" d="M7.314 45.93v-11.1h20.783v11.1z"/><path fill="#222c33" d="M7.32 45.923V34.834h20.775v11.089z"/><path fill="#222d34" d="M7.324 45.918V34.838H28.09v11.078z"/><path fill="#222e35" d="M7.328 45.91V34.845h20.756v11.067z"/><path fill="#232e36" d="M7.333 45.906V34.85H28.08v11.056z"/><path fill="#232f36" d="M7.337 45.9V34.854h20.738v11.044z"/><path fill="#242f37" d="M7.344 45.894V34.86h20.73v11.034z"/><path fill="#243038" d="M7.348 45.889V34.865h20.72v11.022z"/><path fill="#253138" d="M7.352 45.882V34.87h20.71v11.01z"/><path fill="#253139" d="M7.355 45.877v-11h20.702v11z"/><path fill="#26323a" d="M7.36 45.87V34.881h20.692v10.99z"/><path fill="#26323a" d="M7.365 45.865V34.887H28.05v10.978z"/><path fill="#27333b" d="M7.37 45.858V34.892h20.675v10.966z"/><path fill="#27343c" d="M7.373 45.853V34.897H28.04v10.956z"/><path fill="#27343c" d="M7.378 45.846V34.902h20.657v10.944z"/><path fill="#28353d" d="M7.382 45.841V34.908h20.647V45.84z"/><path fill="#28353e" d="M7.387 45.836V34.914h20.64v10.922z"/><path fill="#29363e" d="M7.39 45.83V34.917h20.631V45.83z"/><path fill="#29363f" d="M7.396 45.824v-10.9h20.622v10.9z"/><path fill="#2a3740" d="M7.402 45.817V34.93h20.612v10.888z"/><path fill="#2a3841" d="M7.405 45.812V34.934h20.603v10.878z"/><path fill="#2b3841" d="M7.41 45.805V34.94h20.595v10.866z"/><path fill="#2b3942" d="M7.414 45.8V34.945H28V45.8z"/><path fill="#2b3943" d="M7.418 45.794V34.95h20.576v10.844z"/><path fill="#2c3a43" d="M7.424 45.788V34.955H27.99v10.833z"/><path fill="#2c3b44" d="M7.428 45.782V34.96h20.557v10.822z"/><path fill="#2d3b45" d="M7.433 45.776v-10.81h20.55v10.81z"/><path fill="#2d3c45" d="M7.437 45.771v-10.8h20.54v10.8z"/><path fill="#2e3c46" d="M7.44 45.765V34.976h20.532v10.789z"/><path fill="#2e3d47" d="M7.445 45.76V34.98h20.522V45.76z"/><path fill="#2f3e47" d="M7.45 45.753V34.987h20.512v10.766z"/><path fill="#2f3e48" d="M7.455 45.748V34.992H27.96v10.756z"/><path fill="#2f3f49" d="M7.459 45.741V34.997h20.495v10.744z"/><path fill="#303f49" d="M7.463 45.736V35.002h20.486v10.734z"/><path fill="#30404a" d="M7.469 45.73V35.007h20.477v10.721z"/><path fill="#31414b" d="M7.473 45.724v-10.71H27.94v10.71z"/><path fill="#31414c" d="M7.478 45.717v-10.7h20.458v10.7z"/><path fill="#32424c" d="M7.481 45.712V35.024h20.45v10.688z"/><path fill="#32424d" d="M7.485 45.707V35.029h20.441v10.678z"/><path fill="#33434e" d="M7.49 45.7V35.034h20.432V45.7z"/><path fill="#33434e" d="M7.494 45.695V35.04h20.423v10.655z"/><path fill="#33444f" d="M7.5 45.688V35.045h20.415v10.643z"/><path fill="#344550" d="M7.504 45.683V35.05h20.405v10.633z"/><path fill="#344550" d="M7.509 45.676V35.054h20.396v10.622z"/><path fill="#354651" d="M7.514 45.671v-10.61H27.9v10.61z"/><path fill="#354652" d="M7.518 45.665v-10.6h20.378v10.6z"/><path fill="#364752" d="M7.523 45.66V35.07h20.37v10.588z"/><path fill="#364853" d="M7.527 45.654V35.076h20.36v10.578z"/><path fill="#374854" d="M7.531 45.647V35.082h20.351v10.565z"/><path fill="#374954" d="M7.536 45.642V35.087h20.342v10.555z"/><path fill="#384955" d="M7.54 45.636V35.092h20.333v10.544z"/><path fill="#384a56" d="M7.545 45.63V35.097h20.324V45.63z"/><path fill="#384b57" d="M7.549 45.624V35.102h20.315v10.523z"/><path fill="#394b57" d="M7.553 45.618v-10.51h20.306v10.51z"/><path fill="#394c58" d="M7.558 45.612v-10.5h20.296v10.5z"/><path fill="#3a4c59" d="M7.563 45.606V35.118H27.85v10.488z"/><path fill="#3a4d59" d="M7.568 45.6V35.123h20.279V45.6z"/><path fill="#3b4e5a" d="M7.572 45.595V35.129h20.27v10.466z"/><path fill="#3b4e5b" d="M7.576 45.59V35.133h20.261V45.59z"/><path fill="#3c4f5b" d="M7.581 45.583V35.14h20.252v10.443z"/><path fill="#3c4f5c" d="M7.585 45.577V35.145h20.243v10.432z"/><path fill="#3c505d" d="M7.59 45.571V35.15h20.233V45.57z"/><path fill="#3d515d" d="M7.594 45.566v-10.41h20.225v10.41z"/><path fill="#3d515e" d="M7.598 45.559v-10.4h20.216v10.4z"/><path fill="#3e525f" d="M7.604 45.554V35.166H27.81v10.388z"/><path fill="#3e525f" d="M7.607 45.547V35.17h20.198v10.377z"/><path fill="#3f5360" d="M7.612 45.542V35.176h20.189v10.366z"/><path fill="#3f5361" d="M7.617 45.537V35.182h20.18v10.355z"/><path fill="#405461" d="M7.621 45.53V35.187h20.171V45.53z"/><path fill="#405562" d="M7.627 45.525V35.192h20.162v10.333z"/><path fill="#405563" d="M7.63 45.518V35.196h20.153v10.322z"/><path fill="#415664" d="M7.636 45.513v-10.31h20.143v10.31z"/><path fill="#415664" d="M7.639 45.506V35.208h20.135v10.3z"/><path fill="#425765" d="M7.645 45.501V35.213H27.77v10.288z"/><path fill="#425866" d="M7.648 45.495V35.217h20.117v10.278z"/><path fill="#435866" d="M7.652 45.49V35.223H27.76v10.265z"/><path fill="#435967" d="M7.657 45.482V35.228h20.099v10.254z"/><path fill="#445968" d="M7.661 45.477V35.234h20.09V45.48z"/><path fill="#445a68" d="M7.666 45.472V35.24h20.081v10.232z"/><path fill="#455b69" d="M7.672 45.466V35.244h20.072v10.221z"/><path fill="#455b6a" d="M7.676 45.46V35.25h20.062v10.21z"/><path fill="#455c6a" d="M7.68 45.454v-10.2h20.054v10.2z"/><path fill="#465c6b" d="M7.685 45.448V35.261H27.73v10.187z"/><path fill="#465d6c" d="M7.69 45.442V35.265h20.034v10.177z"/><path fill="#475e6c" d="M7.693 45.437V35.272H27.72v10.165z"/><path fill="#475e6d" d="M7.697 45.43V35.275h20.018V45.43z"/><path fill="#485f6e" d="M7.703 45.425V35.28h20.008v10.144z"/><path fill="#485f6f" d="M7.707 45.42V35.286h20V45.42z"/><path fill="#49606f" d="M7.71 45.413V35.29h19.992v10.122z"/><path fill="#496170" d="M7.715 45.407v-10.11h19.982v10.11z"/><path fill="#496171" d="M7.72 45.401v-10.1h19.972v10.1z"/><path fill="#4a6271" d="M7.725 45.396V35.308h19.963v10.088z"/><path fill="#4a6272" d="M7.73 45.39V35.312h19.956v10.076z"/><path fill="#4b6373" d="M7.735 45.384V35.319h19.946v10.065z"/><path fill="#4b6373" d="M7.738 45.377V35.323h19.937v10.054z"/><path fill="#4c6474" d="M7.742 45.372V35.328h19.929v10.044z"/><path fill="#4c6575" d="M7.748 45.365V35.333h19.918v10.032z"/><path fill="#4d6575" d="M7.752 45.36V35.338h19.91V45.36z"/><path fill="#4d6676" d="M7.757 45.355v-10.01h19.9v10.01z"/><path fill="#4d6677" d="M7.76 45.348V35.35h19.893v10z"/><path fill="#4e6777" d="M7.765 45.343v-9.987h19.882v9.987z"/><path fill="#4e6878" d="M7.77 45.336V35.36h19.873v9.976z"/><path fill="#4f6879" d="M7.773 45.331v-9.965H27.64v9.965z"/><path fill="#4f697a" d="M7.78 45.325V35.37h19.855v9.955z"/><path fill="#50697a" d="M7.784 45.32v-9.944h19.847v9.943z"/><path fill="#506a7b" d="M7.788 45.313V35.38h19.838v9.932z"/><path fill="#516b7c" d="M7.793 45.307v-9.921h19.828v9.921z"/><path fill="#516b7c" d="M7.797 45.3v-9.909h19.82v9.91z"/><path fill="#516c7d" d="M7.803 45.296v-9.9h19.81v9.9z"/><path fill="#526c7e" d="M7.806 45.29v-9.887h19.801v9.887z"/><path fill="#526d7e" d="M7.81 45.283v-9.876h19.792v9.876z"/><path fill="#536e7f" d="M7.814 45.278v-9.866h19.784v9.866z"/><path fill="#536e80" d="M7.818 45.272v-9.855h19.776v9.855z"/><path fill="#546f80" d="M7.824 45.267v-9.844H27.59v9.843z"/><path fill="#546f81" d="M7.828 45.26v-9.832h19.757v9.832z"/><path fill="#557082" d="M7.832 45.255v-9.822H27.58v9.822z"/><path fill="#557082" d="M7.838 45.248v-9.81h19.738v9.81z"/><path fill="#567183" d="M7.842 45.243v-9.8h19.73v9.8z"/><path fill="#567284" d="M7.848 45.238V35.45h19.72v9.787z"/><path fill="#567285" d="M7.852 45.231v-9.776h19.711v9.776z"/><path fill="#577385" d="M7.855 45.226V35.46h19.703v9.766z"/><path fill="#577386" d="M7.86 45.22v-9.755h19.694v9.754z"/><path fill="#587487" d="M7.864 45.214V35.47h19.684v9.744z"/><path fill="#587587" d="M7.87 45.207v-9.731h19.675v9.731z"/><path fill="#597588" d="M7.873 45.202v-9.721H27.54v9.721z"/><path fill="#597689" d="M7.877 45.195v-9.709h19.657v9.71z"/><path fill="#5a7689" d="M7.883 45.19v-9.698H27.53v9.698z"/><path fill="#5a778a" d="M27.526 35.497H7.886v9.687h19.64z"/></g><path fill="#162433" d="M14.837 46.367h-1.435v-11.93h1.435zm7.177-11.931h-1.435v11.93h1.435zM28.422 34.436h-1.435v11.93h1.435zM8.382 34.436H6.947v11.93h1.435z"/><path fill="#162433" d="M28.42 41.116v-1.429H6.976v1.428zM28.42 35.926v-1.428H6.976v1.428zM28.42 46.363v-1.429H6.976v1.428z"/><path fill="url(#d)" d="M42.03 34.902h-8.563V49.59h8.564z"/><path fill="#611600" d="M42.39 49.999h-9.285V34.493h9.286zm-8.563-.819h7.843V35.312h-7.843z"/><path fill="url(#e)" d="M40.223 43.05a.877.877 0 0 0 .879-.875.877.877 0 0 0-.88-.875.877.877 0 0 0-.878.875c0 .483.393.875.879.875"/><path fill="url(#f)" d="M35.66 2.649c-1.929-.36-3.699.257-4.972 1.407A4.45 4.45 0 0 0 26.258 0a4.45 4.45 0 0 0-4.265 3.184 3.45 3.45 0 0 0-2.622-1.22 3.45 3.45 0 0 0-3.313 2.497c-4.261.523-6.155 2.311-6.963 3.511-.176.263.106.497.404.388 3.324-1.228 5.442.605 5.442.823 0 2.304 1.875 4.17 4.188 4.17.87 0 1.68-.265 2.35-.718a5.28 5.28 0 0 0 4.858 3.204 5.26 5.26 0 0 0 4.728-2.963 5.75 5.75 0 0 0 3.499 1.199 5.777 5.777 0 0 0 5.666-6.968c-.454-2.247-2.308-4.037-4.57-4.458M16.03 6.277q.013.044.028.09l-.03.036z"/><defs><radialGradient id="a" cx="0" cy="0" r="1" gradientTransform="matrix(14.8804 0 0 14.8143 8.42 19.94)" gradientUnits="userSpaceOnUse"><stop stop-color="#f5f5f5"/><stop offset=".136" stop-color="#ececeb"/><stop offset=".364" stop-color="#d3d2d1"/><stop offset=".657" stop-color="#aaa9a6"/><stop offset="1" stop-color="#73706c"/></radialGradient><radialGradient id="b" cx="0" cy="0" r="1" gradientTransform="matrix(30.6781 0 0 24.3846 25 34.764)" gradientUnits="userSpaceOnUse"><stop stop-color="#eb4b1a"/><stop offset=".295" stop-color="#e14515"/><stop offset=".789" stop-color="#c73407"/><stop offset="1" stop-color="#ba2b00"/></radialGradient><radialGradient id="d" cx="0" cy="0" r="1" gradientTransform="matrix(7.93291 0 0 10.5287 37.753 42.247)" gradientUnits="userSpaceOnUse"><stop stop-color="#b36a34"/><stop offset=".436" stop-color="#834923"/><stop offset=".801" stop-color="#613217"/><stop offset="1" stop-color="#542913"/></radialGradient><radialGradient id="e" cx="0" cy="0" r="1" gradientTransform="matrix(.87758 0 0 .87368 40.223 42.175)" gradientUnits="userSpaceOnUse"><stop stop-color="#ff9e00"/><stop offset="1" stop-color="#9e4f00"/></radialGradient><radialGradient id="f" cx="0" cy="0" r="1" gradientTransform="matrix(17.9447 0 0 11.2835 26.03 7.804)" gradientUnits="userSpaceOnUse"><stop stop-color="#f7f7f7"/><stop offset=".144" stop-color="#f2f3f4"/><stop offset=".314" stop-color="#e4e8ea"/><stop offset=".497" stop-color="#ccd5d9"/><stop offset=".687" stop-color="#abbbc3"/><stop offset=".82" stop-color="#90a5b0"/></radialGradient><linearGradient id="c" x1="17.707" x2="17.707" y1="46.298" y2="35.067" gradientUnits="userSpaceOnUse"><stop offset=".005" stop-color="#2688c7"/><stop offset=".155" stop-color="#2585c3"/><stop offset=".303" stop-color="#237db7"/><stop offset=".452" stop-color="#1f6fa3"/><stop offset=".6" stop-color="#1a5b87"/><stop offset=".748" stop-color="#134263"/><stop offset=".862" stop-color="#0d2a42"/></linearGradient></defs></svg>