<svg xmlns="http://www.w3.org/2000/svg" width="50" height="50" fill="none" viewBox="0 0 50 50"><path fill="#c298c5" d="M43.94 36.38c-.79.87-1.57 1.74-2.35 2.62-.19.21-.36.43-.54.64-.76.85-1.51 1.69-2.29 2.56-.16.03-.3.05-.44.05l-3.39-.03c-2.08-.02-4.16-.04-6.24-.05-.89-.01-1.78-.03-2.67 0-.37.01-.76.09-1.1.23-.75.3-1.48.67-2.22 1.01-2.65 1.21-5.29 2.43-7.93 3.64-.09.04-.21 0-.31 0 .01-.11 0-.24.05-.33.48-1.06.5-2.11-.05-3.13-.54-.99-1.38-1.43-2.41-1.43-3-.01-6.01-.01-9.02-.01-.42 0-.43 0-.43-.46V13.11c0-.36 0-.36.33-.36h40.28c.34 0 .34 0 .34.36V26.5c0 .24-.01.49 0 .73.01.21-.07.26-.24.26-.4-.01-.81-.01-1.21-.01h-1.72c-.58.01-.82.43-.55.99.05.12.11.22.17.33l3.75 7.14c.08.14.13.29.19.44M14 32.31c0 .51-.05.45.42.45h2.88c.34 0 .34 0 .34-.36V20.08c0-.37 0-.38-.33-.38h-3c-.31 0-.31.01-.31.36zm17.67.45c.19 0 .38.06.38-.3-.02-4.16-.01-8.31-.01-12.47 0-.22-.05-.29-.26-.29q-1.56.015-3.12 0c-.21 0-.26.07-.26.29.01 4.16.01 8.31 0 12.47 0 .26.09.31.3.31.97-.01 1.95-.01 2.97-.01"/><path d="M41.59 39c-.19.21-.36.43-.54.64-.76.85-1.51 1.69-2.29 2.56-.16.03-.3.05-.44.05l-3.39-.03c-2.08-.02-4.16-.04-6.24-.05-.89-.01-1.78-.03-2.67 0-.37.01-.76.09-1.1.23-.75.3-1.48.67-2.22 1.01-2.65 1.21-5.29 2.43-7.93 3.64-.09.04-.21 0-.31 0 .01-.11 0-.24.05-.33.48-1.06.5-2.11-.05-3.13-.54-.99-1.38-1.43-2.41-1.43-3-.01-6.01-.01-9.02-.01-.42 0-.43 0-.43-.46V13.11c0-.36 0-.36.33-.36h40.28c.34 0 .34 0 .34.36V26.5c0 .24-.01.49 0 .73.01.21-.07.26-.24.26-.4-.01-.81-.01-1.21-.01h-1.72c-.58.01-.82.43-.55.99.05.12.11.22.17.33l3.75 7.14c.08.14.13.29.19.44-.79.87-1.57 1.74-2.35 2.62m-27.17-6.24h2.88c.34 0 .34 0 .34-.36V20.08c0-.37 0-.38-.33-.38h-3c-.31 0-.31.01-.31.36v12.25c0 .51-.05.45.42.45m17.63-.3c-.02-4.16-.01-8.31-.01-12.47 0-.22-.05-.29-.26-.29q-1.56.015-3.12 0c-.21 0-.26.07-.26.29.01 4.16.01 8.31 0 12.47 0 .26.09.31.3.31.97-.01 1.95-.01 2.97-.01.19 0 .38.06.38-.3"/><path fill="#804198" d="M43.95 36.39c-.07-.16-.12-.31-.2-.45L40 28.8c-.06-.11-.12-.21-.17-.33-.27-.56-.03-.98.55-.99h1.72c.4 0 .81 0 1.21.01.17 0 .25-.05.24-.26-.01-.24 0-.49 0-.73V13.11c0-.36 0-.36-.34-.36H2.93c-.33 0-.33 0-.33.36v28.58c0 .46.01.46.43.46 3.01 0 6.02 0 9.02.01 1.03 0 1.87.44 2.41 1.43.55 1.02.53 2.07.05 3.13-.05.09-.04.22-.05.33.1 0 .22.04.31 0 2.64-1.21 5.28-2.43 7.93-3.64.74-.34 1.47-.71 2.22-1.01.35-.14.73-.22 1.1-.23.89-.03 1.78-.01 2.67 0 2.08.01 4.16.03 6.24.05l3.39.03c.14 0 .28-.02.44-.03.48-.01.94 0 1.4-.01.58 0 1.03.5 1.03 1.13v.64c0 .63-.44 1.14-1 1.15h-5.92c-.77-.01-1.54-.04-2.31-.05-1.75-.03-3.5-.02-5.25-.07-.56-.01-1.06.13-1.57.37-1.3.62-2.62 1.21-3.94 1.82-1.35.62-2.7 1.25-4.05 1.87-.63.29-1.26.61-1.91.82-1.56.49-3.19-.77-3.41-2.54-.08-.71.04-1.35.36-1.96.14-.28.09-.37-.22-.37-3.07 0-6.13.01-9.19 0-1.32-.01-2.38-.95-2.72-2.36-.05-.19-.06-.4-.06-.61-.01-10.6 0-21.21 0-31.81V9.9h46.15v17.58h3.27c.44 0 .71.47.5.89-.41.82-.84 1.62-1.26 2.43-.46.87-.92 1.74-1.38 2.62-.45.86-.91 1.73-1.36 2.6-.2.37-.4.75-.61 1.12-.2.36-.62.41-.86.08-.19-.25-.32-.55-.5-.83"/><path d="M43.75 35.94 40 28.8c-.06-.11-.12-.21-.17-.33-.27-.56-.03-.98.55-.99h1.72c.4 0 .81 0 1.21.01.17 0 .25-.05.24-.26-.01-.24 0-.49 0-.73V13.11c0-.36 0-.36-.34-.36H2.93c-.33 0-.33 0-.33.36v28.58c0 .46.01.46.43.46 3.01 0 6.02 0 9.02.01 1.03 0 1.87.44 2.41 1.43.55 1.02.53 2.07.05 3.13-.05.09-.04.22-.05.33.1 0 .22.04.31 0 2.64-1.21 5.28-2.43 7.93-3.64.74-.34 1.47-.71 2.22-1.01.35-.14.73-.22 1.1-.23.89-.03 1.78-.01 2.67 0 2.08.01 4.16.03 6.24.05l3.39.03c.14 0 .28-.02.44-.03.48-.01.94 0 1.4-.01.58 0 1.03.5 1.03 1.13v.64c0 .63-.44 1.14-1 1.15h-5.92c-.77-.01-1.54-.04-2.31-.05-1.75-.03-3.5-.02-5.25-.07-.56-.01-1.06.13-1.57.37-1.3.62-2.62 1.21-3.94 1.82-1.35.62-2.7 1.25-4.05 1.87-.63.29-1.26.61-1.91.82-1.56.49-3.19-.77-3.41-2.54-.08-.71.04-1.35.36-1.96.14-.28.09-.37-.22-.37-3.07 0-6.13.01-9.19 0-1.32-.01-2.38-.95-2.72-2.36-.05-.19-.06-.4-.06-.61-.01-10.6 0-21.21 0-31.81V9.9h46.15v17.58h3.27c.44 0 .71.47.5.89-.41.82-.84 1.62-1.26 2.43-.46.87-.92 1.74-1.38 2.62-.45.86-.91 1.73-1.36 2.6-.2.37-.4.75-.61 1.12-.2.36-.62.41-.86.08-.19-.25-.32-.55-.5-.83-.07-.16-.12-.31-.2-.45"/><path fill="#804198" d="M36.96 8.91H.04v-2.6c0-1.67.02-3.33 0-5C.02.51.64-.01 1.25 0c4.69.01 9.38 0 14.08 0 .35 0 .63.14.89.4.85.88 1.72 1.75 2.58 2.62.35.36.7.7 1.05 1.05.18.18.36.38.56.55.06.06.18.08.27.08h5.8c6.12 0 12.24 0 18.35-.01.59 0 1.23.45 1.26 1.26.04.97.01 1.95.01 2.96z"/><path d="M.04 8.91v-2.6c0-1.67.02-3.33 0-5C.02.51.64-.01 1.25 0c4.69.01 9.38 0 14.08 0 .35 0 .63.14.89.4.85.88 1.72 1.75 2.58 2.62.35.36.7.7 1.05 1.05.18.18.36.38.56.55.06.06.18.08.27.08h5.8c6.12 0 12.24 0 18.35-.01.59 0 1.23.45 1.26 1.26.04.97.01 1.95.01 2.96H.04"/><path fill="#fff" d="M14 32.28V20.06c0-.35 0-.36.31-.36h3c.33 0 .33 0 .33.38V32.4c0 .36 0 .36-.34.36h-2.88c-.47 0-.42.06-.42-.48"/><path d="M14 20.06c0-.35 0-.36.31-.36h3c.33 0 .33 0 .33.38V32.4c0 .36 0 .36-.34.36h-2.88c-.47 0-.42.06-.42-.48z"/><path fill="#fff" d="M31.65 32.76c-1 0-1.98 0-2.95.01-.21 0-.3-.05-.3-.31.01-4.16.01-8.31 0-12.47 0-.22.05-.29.26-.29q1.56.015 3.12 0c.21 0 .26.07.26.29 0 4.16-.01 8.31.01 12.47 0 .36-.19.3-.4.3"/><path d="M28.7 32.77c-.21 0-.3-.05-.3-.31.01-4.16.01-8.31 0-12.47 0-.22.05-.29.26-.29q1.56.015 3.12 0c.21 0 .26.07.26.29 0 4.16-.01 8.31.01 12.47 0 .36-.19.3-.4.3-1 0-1.98 0-2.95.01"/></svg>