<svg xmlns="http://www.w3.org/2000/svg" width="50" height="50" fill="none" viewBox="0 0 50 50"><defs><linearGradient id="c" x1="52.813" x2="52.533" y1="28.805" y2="61.792" gradientUnits="userSpaceOnUse"><stop stop-color="#87bdff"/><stop offset=".971" stop-color="#4791ce"/></linearGradient></defs><path fill="#304059" d="M38.77 50H11.22c-2.97 0-5.83-1.19-7.93-3.29C1.18 44.61 0 41.75 0 38.77V11.22c0-2.97 1.18-5.83 3.29-7.93C5.39 1.18 8.25 0 11.22 0h27.55c2.98 0 5.84 1.18 7.94 3.29 2.1 2.1 3.29 4.96 3.29 7.93v27.55c0 2.98-1.19 5.84-3.29 7.94A11.24 11.24 0 0 1 38.77 50"/><mask id="a" width="50" height="50" x="0" y="0" mask-type="alpha" maskUnits="userSpaceOnUse"><path fill="#000" d="M38.77 50H11.22c-2.97 0-5.83-1.19-7.93-3.29C1.18 44.61 0 41.75 0 38.77V11.22c0-2.97 1.18-5.83 3.29-7.93C5.39 1.18 8.25 0 11.22 0h27.55c2.98 0 5.84 1.18 7.94 3.29 2.1 2.1 3.29 4.96 3.29 7.93v27.55c0 2.98-1.19 5.84-3.29 7.94A11.24 11.24 0 0 1 38.77 50"/></mask><g mask="url(#a)"><path fill="#304059" d="M38.77 47.58H11.22c-4.86 0-8.81-3.95-8.81-8.81V11.22c0-4.86 3.95-8.81 8.81-8.81h27.55c4.86 0 8.81 3.95 8.81 8.81v27.55c0 4.86-3.95 8.81-8.81 8.81"/><mask id="b" width="45.173" height="45.173" x="2.414" y="2.414" mask-type="alpha" maskUnits="userSpaceOnUse"><path fill="#000" d="M38.77 47.58H11.22c-4.86 0-8.81-3.95-8.81-8.81V11.22c0-4.86 3.95-8.81 8.81-8.81h27.55c4.86 0 8.81 3.95 8.81 8.81v27.55c0 4.86-3.95 8.81-8.81 8.81"/></mask><g mask="url(#b)"><path fill="#4791ce" d="M24.99 9.94h-7.52V2.41h7.52z"/><path fill="#87bdff" d="M24.99 17.47h-7.52V9.94h7.52z"/><path fill="#4791ce" d="M24.99 25h-7.52v-7.53h7.52z"/><path fill="#87bdff" d="M24.99 32.52h-7.52V25h7.52z"/><path fill="#4791ce" d="M24.99 40.05h-7.52v-7.53h7.52z"/><path fill="#87bdff" d="M24.99 47.58h-7.52v-7.53h7.52zM17.47 9.94H9.94V2.41h7.53z"/><path fill="#4791ce" d="M17.47 17.47H9.94V9.94h7.53z"/><path fill="#87bdff" d="M17.47 25H9.94v-7.53h7.53z"/><path fill="#4791ce" d="M17.47 32.52H9.94V25h7.53z"/><path fill="#87bdff" d="M17.47 40.05H9.94v-7.53h7.53z"/><path fill="#4791ce" d="M17.47 47.58H9.94v-7.53h7.53zM9.94 9.94H2.41V2.41h7.53z"/><path fill="#87bdff" d="M9.94 17.47H2.41V9.94h7.53z"/><path fill="#4791ce" d="M9.94 25H2.41v-7.53h7.53z"/><path fill="#87bdff" d="M9.94 32.52H2.41V25h7.53z"/><path fill="#4791ce" d="M9.94 40.05H2.41v-7.53h7.53z"/><path fill="#87bdff" d="M9.94 47.58H2.41v-7.53h7.53z"/><path fill="url(#c)" d="M47.58 47.58H25V2.41h22.58z"/><path fill="#304059" d="M30.6 25a5.606 5.606 0 1 1-11.211-.011A5.606 5.606 0 0 1 30.6 25"/><path fill="#87bdff" d="m28.98 25-1.22-.83-1.23-.83v3.31l1.23-.83zM21.01 25l1.22-.83 1.23-.83v3.31l-1.23-.83z"/></g><path fill="#304059" d="M26.2 48.28h-2.41V1.71h2.41z"/></g></svg>