<svg xmlns="http://www.w3.org/2000/svg" width="50" height="50" fill="none" viewBox="0 0 50 50"><path fill="#e95821" d="M29.5 50H0V0h50v50zm-6.22-21c2.25 1.05 5.08.57 6.51-.89l-.8.16c-2.67.57-4.91-.08-6.64-2.28-.25-.32-.37-.55.01-.88.27-.24.47-.58.64-.91.77-1.57-.24-3.51-1.97-3.67-1.09-.11-2.2-.02-3.36-.02 0 2.37 0 4.72.02 7.07 0 .11.18.3.28.31.58.03 1.16.01 1.76.01v-2.01c.04-.03.07-.06.11-.09.13.11.3.2.38.34.71 1.25 1.7 2.21 3.06 2.86m12.78-1.74c.12.18.22.37.34.54.28.44.69.3 1.05.2s.74-.25.74-.72c.01-2.13.01-4.26-.01-6.39 0-.14-.19-.38-.31-.38-.56-.04-1.13-.02-1.74-.02v3.62c-.65-.97-1.21-1.96-1.78-2.94-.4-.7-1.25-.94-1.94-.5-.18.12-.35.41-.35.62-.03 1.98-.01 3.97-.02 5.95-.01.41.18.63.56.65.51.03 1.03.01 1.6.01v-3.57l.1-.03c.58.96 1.15 1.93 1.76 2.96M27.5 20.4c-2.18.09-3.82 1.8-3.76 3.92.06 2.06 1.76 3.7 3.83 3.7 2.05-.01 3.76-1.66 3.79-3.68.03-2.2-1.57-3.87-3.86-3.94m14.01 6.37c.39 0 .79.03 1.17-.01.53-.06.81.1.89.65.03.19.25.5.4.51.64.06 1.28.03 1.96.03-.07-.21-.11-.35-.16-.49-.69-1.94-1.4-3.87-2.09-5.81-.4-1.12-.57-1.22-1.74-1.17-.49.03-.77.23-.93.7-.44 1.26-.92 2.5-1.38 3.75-.3.8-.59 1.61-.88 2.42-.1.28-.1.6.21.65.5.09 1.05.14 1.54.03.22-.05.34-.53.52-.81.12-.16.27-.3.49-.45M9.54 20.48c-.14.01-.28.02-.33.03-.48 1.62-.94 3.17-1.4 4.73-.17-.2-.23-.38-.29-.57-.39-1.22-.77-2.45-1.17-3.66-.18-.55-.51-.75-1.05-.59-.43.14-.83.39-1.22.58.17.41.31.7.42 1.01.65 1.82 1.3 3.64 1.93 5.46.12.33.27.48.63.44.37-.03.75-.03 1.12 0 .34.03.52-.11.69-.4 1.17-2.02 1.79-4.24 2.32-6.49.07-.34-.07-.54-.43-.54zm3.79 0H11.9c0 2-.04 3.95.02 5.89.03.92.78 1.51 1.71 1.53.72.01 1.43 0 2.15 0h1.12c0-.4-.02-.73.01-1.05.03-.39-.09-.55-.51-.53-.59.03-1.17.02-1.76 0-.44-.01-.71-.2-.67-.69.01-.17 0-.34 0-.56h2.29c0-.43-.01-.82 0-1.2.01-.35-.14-.46-.47-.45-.59.02-1.19.01-1.79.01v-1.19h1.64c1.23 0 1.22 0 1.21-1.24 0-.41-.15-.53-.55-.53-.96.02-1.92.01-2.97.01"/><path fill="#fff" fill-rule="evenodd" d="M42.68 26.76c-.38.04-.78.01-1.17.01-.22.15-.37.29-.49.45-.18.28-.3.76-.52.81-.49.11-1.04.06-1.54-.03-.31-.05-.31-.37-.21-.65.29-.81.58-1.62.88-2.42.46-1.25.94-2.49 1.38-3.75.16-.47.44-.67.93-.7 1.17-.05 1.34.05 1.74 1.17.69 1.94 1.4 3.87 2.09 5.81.05.14.09.28.16.49-.68 0-1.32.03-1.96-.03-.15-.01-.37-.32-.4-.51-.08-.55-.36-.71-.89-.65"/><path d="M0 50V0h50v50H0m29.79-21.89-.8.16c-2.67.57-4.91-.08-6.64-2.28-.25-.32-.37-.55.01-.88.27-.24.47-.58.64-.91.77-1.57-.24-3.51-1.97-3.67-1.09-.11-2.2-.02-3.36-.02 0 2.37 0 4.72.02 7.07 0 .11.18.3.28.31.58.03 1.16.01 1.76.01v-2.01c.04-.03.07-.06.11-.09.13.11.3.2.38.34.71 1.25 1.7 2.21 3.06 2.86 2.25 1.05 5.08.57 6.51-.89m6.61-.31c.28.44.69.3 1.05.2s.74-.25.74-.72c.01-2.13.01-4.26-.01-6.39 0-.14-.19-.38-.31-.38-.56-.04-1.13-.02-1.74-.02v3.62c-.65-.97-1.21-1.96-1.78-2.94-.4-.7-1.25-.94-1.94-.5-.18.12-.35.41-.35.62-.03 1.98-.01 3.97-.02 5.95-.01.41.18.63.56.65.51.03 1.03.01 1.6.01v-3.57l.1-.03c.58.96 1.15 1.93 1.76 2.96.12.18.22.37.34.54m-12.66-3.48c.06 2.06 1.76 3.7 3.83 3.7 2.05-.01 3.76-1.66 3.79-3.68.03-2.2-1.57-3.87-3.86-3.94-2.18.09-3.82 1.8-3.76 3.92m18.94 2.44c.53-.06.81.1.89.65.03.19.25.5.4.51.64.06 1.28.03 1.96.03-.07-.21-.11-.35-.16-.49-.69-1.94-1.4-3.87-2.09-5.81-.4-1.12-.57-1.22-1.74-1.17-.49.03-.77.23-.93.7-.44 1.26-.92 2.5-1.38 3.75-.3.8-.59 1.61-.88 2.42-.1.28-.1.6.21.65.5.09 1.05.14 1.54.03.22-.05.34-.53.52-.81.12-.16.27-.3.49-.45.39 0 .79.03 1.17-.01M9.21 20.51c-.48 1.62-.94 3.17-1.4 4.73-.17-.2-.23-.38-.29-.57-.39-1.22-.77-2.45-1.17-3.66-.18-.55-.51-.75-1.05-.59-.43.14-.83.39-1.22.58.17.41.31.7.42 1.01.65 1.82 1.3 3.64 1.93 5.46.12.33.27.48.63.44.37-.03.75-.03 1.12 0 .34.03.52-.11.69-.4 1.17-2.02 1.79-4.24 2.32-6.49.07-.34-.07-.54-.43-.54H9.54c-.14.01-.28.02-.33.03m2.69-.03c0 2-.04 3.95.02 5.89.03.92.78 1.51 1.71 1.53.72.01 1.43 0 2.15 0h1.12c0-.4-.02-.73.01-1.05.03-.39-.09-.55-.51-.53-.59.03-1.17.02-1.76 0-.44-.01-.71-.2-.67-.69.01-.17 0-.34 0-.56h2.29c0-.43-.01-.82 0-1.2.01-.35-.14-.46-.47-.45-.59.02-1.19.01-1.79.01v-1.19h1.64c1.23 0 1.22 0 1.21-1.24 0-.41-.15-.53-.55-.53-.96.02-1.92.01-2.97.01z"/><path fill="#fffdfc" d="M23.25 28.99c-1.33-.64-2.32-1.6-3.03-2.85-.08-.14-.25-.23-.38-.34-.04.03-.07.06-.11.09v2.01c-.6 0-1.18.02-1.76-.01-.1-.01-.28-.2-.28-.31-.02-2.35-.02-4.7-.02-7.07 1.16 0 2.27-.09 3.36.02 1.73.16 2.74 2.1 1.97 3.67-.17.33-.37.67-.64.91-.38.33-.26.56-.01.88 1.73 2.2 3.97 2.85 6.64 2.28l.8-.16c-1.43 1.46-4.26 1.94-6.54.88m-3.46-4.78c.24.01.51.08.72.01.22-.08.5-.27.57-.47.09-.31.09-.69 0-1-.07-.21-.34-.4-.57-.49-.22-.08-.5-.02-.77-.02 0 .67 0 1.28.05 1.97"/><path fill="#e95821" fill-rule="evenodd" d="M20.51 24.22c-.21.07-.48 0-.72-.01-.05-.69-.05-1.3-.05-1.97.27 0 .55-.06.77.02.23.09.5.28.57.49.09.31.09.69 0 1-.07.2-.35.39-.57.47"/><path d="M20.22 26.14c-.08-.14-.25-.23-.38-.34-.04.03-.07.06-.11.09v2.01c-.6 0-1.18.02-1.76-.01-.1-.01-.28-.2-.28-.31-.02-2.35-.02-4.7-.02-7.07 1.16 0 2.27-.09 3.36.02 1.73.16 2.74 2.1 1.97 3.67-.17.33-.37.67-.64.91-.38.33-.26.56-.01.88 1.73 2.2 3.97 2.85 6.64 2.28l.8-.16c-1.43 1.46-4.26 1.94-6.54.88-1.33-.64-2.32-1.6-3.03-2.85m.29-1.92c.22-.08.5-.27.57-.47.09-.31.09-.69 0-1-.07-.21-.34-.4-.57-.49-.22-.08-.5-.02-.77-.02 0 .67 0 1.28.05 1.97.24.01.51.08.72.01"/><path fill="#fffefd" d="M36.05 27.23c-.6-1-1.17-1.97-1.75-2.93l-.1.03v3.57c-.57 0-1.09.02-1.6-.01-.38-.02-.57-.24-.56-.65.01-1.98-.01-3.97.02-5.95 0-.21.17-.5.35-.62.69-.44 1.54-.2 1.94.5.57.98 1.13 1.97 1.78 2.94v-3.62c.61 0 1.18-.02 1.74.02.12 0 .31.24.31.38.02 2.13.02 4.26.01 6.39 0 .47-.38.62-.74.72s-.77.24-1.05-.2c-.12-.17-.22-.36-.35-.57"/><path d="m34.3 24.3-.1.03v3.57c-.57 0-1.09.02-1.6-.01-.38-.02-.57-.24-.56-.65.01-1.98-.01-3.97.02-5.95 0-.21.17-.5.35-.62.69-.44 1.54-.2 1.94.5.57.98 1.13 1.97 1.78 2.94v-3.62c.61 0 1.18-.02 1.74.02.12 0 .31.24.31.38.02 2.13.02 4.26.01 6.39 0 .47-.38.62-.74.72s-.77.24-1.05-.2c-.12-.17-.22-.36-.35-.57-.6-1-1.17-1.97-1.75-2.93"/><path fill="#fffdfc" d="M27.54 20.4c2.25.07 3.85 1.74 3.82 3.94-.03 2.02-1.74 3.67-3.79 3.68-2.07 0-3.77-1.64-3.83-3.7-.06-2.12 1.58-3.83 3.8-3.92m1.73 3.04c-.06-.13-.11-.27-.18-.4-.31-.57-.76-.97-1.44-1.01-.71-.04-1.22.31-1.56.89-.44.75-.47 1.54-.12 2.34.3.69.82 1.14 1.6 1.14.77-.01 1.25-.46 1.57-1.12.27-.57.3-1.16.13-1.84"/><path d="M31.36 24.34c-.03 2.02-1.74 3.67-3.79 3.68-2.07 0-3.77-1.64-3.83-3.7-.06-2.12 1.58-3.83 3.8-3.92 2.25.07 3.85 1.74 3.82 3.94m-2.27-1.3c-.31-.57-.76-.97-1.44-1.01-.71-.04-1.22.31-1.56.89-.44.75-.47 1.54-.12 2.34.3.69.82 1.14 1.6 1.14.77-.01 1.25-.46 1.57-1.12.27-.57.3-1.16.13-1.84-.06-.13-.11-.27-.18-.4"/><path fill="#fffdfc" d="M9.59 20.48h1.17c.36 0 .5.2.43.54-.53 2.25-1.15 4.47-2.32 6.49-.17.29-.35.43-.69.4a7 7 0 0 0-1.12 0c-.36.04-.51-.11-.63-.44-.63-1.82-1.28-3.64-1.93-5.46-.11-.31-.25-.6-.42-1.01.39-.19.79-.44 1.22-.58.54-.16.87.04 1.05.59.4 1.21.78 2.44 1.17 3.66.06.19.12.37.29.57.46-1.56.92-3.11 1.4-4.73.05-.01.19-.02.38-.03"/><path d="M10.76 20.48c.36 0 .5.2.43.54-.53 2.25-1.15 4.47-2.32 6.49-.17.29-.35.43-.69.4a7 7 0 0 0-1.12 0c-.36.04-.51-.11-.63-.44-.63-1.82-1.28-3.64-1.93-5.46-.11-.31-.25-.6-.42-1.01.39-.19.79-.44 1.22-.58.54-.16.87.04 1.05.59.4 1.21.78 2.44 1.17 3.66.06.19.12.37.29.57.46-1.56.92-3.11 1.4-4.73.05-.01.19-.02.38-.03z"/><path fill="#fffefd" d="M13.38 20.48c1 0 1.96.01 2.92-.01.4 0 .55.12.55.53.01 1.24.02 1.24-1.21 1.24H14v1.19c.6 0 1.2.01 1.79-.01.33-.01.48.1.47.45-.01.38 0 .77 0 1.2h-2.29c0 .22.01.39 0 .56-.04.49.23.68.67.69.59.02 1.17.03 1.76 0 .42-.02.54.14.51.53-.03.32-.01.65-.01 1.05h-1.12c-.72 0-1.43.01-2.15 0-.93-.02-1.68-.61-1.71-1.53-.06-1.94-.02-3.89-.02-5.89z"/><path d="M16.3 20.47c.4 0 .55.12.55.53.01 1.24.02 1.24-1.21 1.24H14v1.19c.6 0 1.2.01 1.79-.01.33-.01.48.1.47.45-.01.38 0 .77 0 1.2h-2.29c0 .22.01.39 0 .56-.04.49.23.68.67.69.59.02 1.17.03 1.76 0 .42-.02.54.14.51.53-.03.32-.01.65-.01 1.05h-1.12c-.72 0-1.43.01-2.15 0-.93-.02-1.68-.61-1.71-1.53-.06-1.94-.02-3.89-.02-5.89h1.48c1 0 1.96.01 2.92-.01"/><path fill="#e95a24" d="M29.28 23.48c.16.64.13 1.23-.14 1.8-.32.66-.8 1.11-1.57 1.12-.78 0-1.3-.45-1.6-1.14-.35-.8-.32-1.59.12-2.34.34-.58.85-.93 1.56-.89.68.04 1.13.44 1.44 1.01.07.13.12.27.19.44"/><path d="M29.14 25.28c-.32.66-.8 1.11-1.57 1.12-.78 0-1.3-.45-1.6-1.14-.35-.8-.32-1.59.12-2.34.34-.58.85-.93 1.56-.89.68.04 1.13.44 1.44 1.01.07.13.12.27.19.44.16.64.13 1.23-.14 1.8"/><path fill="#ea5f2a" d="M42.74 24.55c.07.22.12.41.18.62h-1.31c.2-.71.39-1.41.61-2.22.2.61.35 1.09.52 1.6"/><path d="M42.92 25.17h-1.31c.2-.71.39-1.41.61-2.22.2.61.35 1.09.52 1.6.07.22.12.41.18.62"/></svg>