<svg xmlns="http://www.w3.org/2000/svg" width="50" height="50" fill="none" viewBox="0 0 50 50"><defs><filter id="b" width="75.03" height="62.985" x="-12.53" y="-.486" color-interpolation-filters="sRGB" filterUnits="userSpaceOnUse"><feFlood flood-opacity="0" result="BackgroundImageFix"/><feColorMatrix in="SourceAlpha" result="hardAlpha" values="0 0 0 0 0 0 0 0 0 0 0 0 0 0 0 0 0 0 127 0"/><feOffset/><feGaussianBlur stdDeviation="4.167"/><feComposite in2="hardAlpha" k2="-1" k3="1" operator="out"/><feColorMatrix values="0 0 0 0 0 0 0 0 0 0 0 0 0 0 0 0 0 0 0.25 0"/><feBlend in2="BackgroundImageFix" result="effect_dropShadow_1"/><feBlend in="SourceGraphic" in2="effect_dropShadow_1" result="shape"/></filter><filter id="c" width="40.625" height="75" x="21.875" y="-12.5" color-interpolation-filters="sRGB" filterUnits="userSpaceOnUse"><feFlood flood-opacity="0" result="BackgroundImageFix"/><feColorMatrix in="SourceAlpha" result="hardAlpha" values="0 0 0 0 0 0 0 0 0 0 0 0 0 0 0 0 0 0 127 0"/><feOffset/><feGaussianBlur stdDeviation="4.167"/><feComposite in2="hardAlpha" k2="-1" k3="1" operator="out"/><feColorMatrix values="0 0 0 0 0 0 0 0 0 0 0 0 0 0 0 0 0 0 0.25 0"/><feBlend in2="BackgroundImageFix" result="effect_dropShadow_1"/><feBlend in="SourceGraphic" in2="effect_dropShadow_1" result="shape"/></filter><linearGradient id="d" x1="24.97" x2="24.97" y1="0" y2="50" gradientUnits="userSpaceOnUse"><stop stop-color="#fff"/><stop offset="1" stop-color="#fff" stop-opacity="0"/></linearGradient></defs><mask id="a" width="50" height="50" x="0" y="0" mask-type="alpha" maskUnits="userSpaceOnUse"><path fill="#fff" fill-rule="evenodd" d="M35.45 49.78c.79.31 1.69.29 2.48-.09l10.3-4.98A3.16 3.16 0 0 0 50 41.88V8.11c0-1.2-.69-2.3-1.77-2.83L37.93.3a3.11 3.11 0 0 0-3.18.29c-.13.1-.25.2-.37.32L14.67 18.98l-8.58-6.55c-.8-.6-1.92-.55-2.66.12L.68 15.07a2.11 2.11 0 0 0-.01 3.1L8.12 25 .67 31.82c-.9.83-.9 2.27.01 3.1l2.75 2.52c.74.67 1.86.72 2.66.11l8.58-6.54 19.71 18.07c.31.31.68.55 1.07.7m2.05-36.19L22.55 25 37.5 36.4z"/></mask><g mask="url(#a)"><path fill="#0065a9" d="M48.23 5.29 37.92.31a3.09 3.09 0 0 0-3.55.6L.64 31.82c-.9.83-.9 2.27.01 3.1l2.75 2.52c.74.67 1.86.72 2.66.12L46.68 6.59C48.04 5.55 50 6.52 50 8.24v-.12c0-1.2-.69-2.3-1.77-2.83"/><g filter="url(#b)"><path fill="#007acc" d="m48.23 44.7-10.31 4.98c-1.19.58-2.61.34-3.55-.6L.64 18.17c-.9-.83-.9-2.27.01-3.1l2.75-2.52c.74-.67 1.86-.72 2.66-.12L46.68 43.4c1.36 1.04 3.32.07 3.32-1.65v.12c0 1.2-.69 2.3-1.77 2.83"/></g><g filter="url(#c)"><path fill="#1f9cf0" d="M37.92 49.69c-1.19.57-2.61.33-3.55-.61 1.15 1.16 3.13.34 3.13-1.3V2.21c0-1.64-1.98-2.46-3.13-1.3.94-.94 2.36-1.18 3.55-.61l10.3 4.98C49.31 5.81 50 6.91 50 8.11v33.77c0 1.2-.69 2.3-1.78 2.83z"/></g><path fill="url(#d)" fill-rule="evenodd" d="M35.42 49.78c.79.31 1.69.29 2.48-.09l10.3-4.98a3.15 3.15 0 0 0 1.76-2.83V8.11c0-1.2-.68-2.3-1.76-2.83L37.9.3a3.11 3.11 0 0 0-3.18.29c-.13.1-.25.2-.37.32L14.64 18.98l-8.58-6.55c-.8-.6-1.92-.55-2.66.12L.65 15.07a2.11 2.11 0 0 0-.01 3.1L8.09 25 .64 31.82c-.9.83-.9 2.27.01 3.1l2.75 2.52c.74.67 1.86.72 2.66.11l8.58-6.54 19.71 18.07c.31.31.68.55 1.07.7m2.05-36.19L22.52 25l14.95 11.4z" opacity=".25" style="mix-blend-mode:overlay"/></g></svg>