<svg xmlns="http://www.w3.org/2000/svg" width="50" height="50" fill="none" viewBox="0 0 50 50"><path fill="#c6dff1" d="M31.23.625H10.983C8.23.625 6 2.863 6 5.625V45c0 2.761 2.231 5 4.984 5h27.41c2.751 0 4.983-2.239 4.983-5V12.812z"/><path fill="#78a1d1" d="M43.688 12.812h-7.164c-2.924 0-5.295-2.378-5.295-5.312V.312z"/><path fill="#1f212b" d="M43.688 13.125h-7.164c-3.091 0-5.606-2.523-5.606-5.625V.312a.312.312 0 0 1 .532-.221l12.459 12.5a.313.313 0 0 1-.22.534M31.541 1.067V7.5c0 2.757 2.235 5 4.983 5h6.412zM35.59 46.875H13.787c-2.577 0-4.672-2.102-4.672-4.687V8.438c0-1.529.748-2.966 2.002-3.845a.311.311 0 1 1 .356.513 4.07 4.07 0 0 0-1.735 3.331v33.75c0 2.24 1.816 4.063 4.049 4.063H35.59c2.233 0 4.05-1.822 4.05-4.062V31.562a.312.312 0 1 1 .622 0v10.625c0 2.586-2.096 4.688-4.672 4.688M39.95 30.625a.31.31 0 0 1-.31-.313v-4.375a.312.312 0 1 1 .622 0v4.375c0 .173-.14.313-.311.313M39.95 25.045a.31.31 0 0 1-.31-.313v-1.92a.312.312 0 1 1 .622 0v1.92c0 .174-.14.313-.311.313"/><path fill="#1f212b" d="M12.16 26.415q0-.21.27-.365.267-.155.558-.155.358 0 .428.26l1.574 5.42.848-3.48q.09-.36.638-.36.538 0 .627.36l.847 3.48 1.575-5.42q.07-.26.428-.26a1.1 1.1 0 0 1 .559.155q.27.155.27.365-.001.06-.02.12l-1.974 6.29q-.15.44-.847.44-.299 0-.538-.116-.24-.114-.29-.325l-.637-2.7-.648 2.7q-.05.21-.289.325-.24.116-.538.115-.31 0-.548-.115-.24-.114-.3-.325l-1.973-6.29a.4.4 0 0 1-.02-.12M21.469 32.794v-6.49a.34.34 0 0 1 .169-.3.7.7 0 0 1 .4-.11h3.547q.2 0 .304.17.105.172.105.39 0 .241-.11.41a.34.34 0 0 1-.3.17h-2.82v2h1.516q.19 0 .299.155.11.156.11.365a.6.6 0 0 1-.105.346.34.34 0 0 1-.304.155h-1.515v2.01h2.82a.34.34 0 0 1 .299.17q.11.17.11.409a.73.73 0 0 1-.105.39.33.33 0 0 1-.304.17h-3.548a.7.7 0 0 1-.4-.11.34.34 0 0 1-.168-.3M26.752 32.805v-6.5a.34.34 0 0 1 .169-.3.7.7 0 0 1 .4-.11h1.923q2.003 0 2.003 1.76 0 1.219-.847 1.59.51.201.768.564.259.364.259 1.066v.21q0 1.11-.538 1.615-.539.503-1.456.504H27.32a.66.66 0 0 1-.408-.12q-.16-.12-.16-.28m1.285-4.07h1.117q.388 0 .593-.23.204-.231.204-.63 0-.39-.215-.615-.214-.225-.592-.225h-1.107zm0 3.33h1.127q.966 0 .967-1.09v-.16q0-.56-.245-.81-.244-.251-.722-.25h-1.127zM32.354 32.794v-6.5q0-.16.134-.28.135-.12.354-.12h2.004q1.026.001 1.644.545.617.546.617 1.706v.06q0 1.17-.642 1.72t-1.7.55H33.65v2.32q0 .19-.195.3a.9.9 0 0 1-.455.11.9.9 0 0 1-.458-.11q-.189-.111-.188-.3m1.296-3.34h1.115q.498 0 .773-.29.273-.29.274-.86v-.12q0-.568-.274-.86-.274-.29-.773-.29H33.65z"/><path fill="url(#a)" d="M16.462 11.691h3.462a.386.386 0 0 0 .385-.386V9.76a.386.386 0 0 0-.385-.386h-3.462z"/><path fill="url(#b)" d="M18.074 19.026h-1.612V9.375l-1.858 1.864c-.289.29-.451.682-.451 1.092v6.695h-1.612a.312.312 0 0 0-.22.532l2.579 2.587a.575.575 0 0 0 .816 0l2.578-2.587a.312.312 0 0 0-.22-.532"/><path fill="url(#c)" d="M24.157 20.184h-3.463a.386.386 0 0 0-.385.386v1.544c0 .213.173.386.385.386h3.463z"/><path fill="url(#d)" d="M22.545 12.85h1.612v9.65l1.857-1.864c.289-.29.451-.682.451-1.092V12.85h1.613a.312.312 0 0 0 .22-.532L25.718 9.73a.575.575 0 0 0-.816 0l-2.578 2.587a.312.312 0 0 0 .22.532"/><defs><linearGradient id="a" x1="20.309" x2="16.462" y1="10.533" y2="10.533" gradientUnits="userSpaceOnUse"><stop offset=".266" stop-color="#199ae0"/><stop offset=".582" stop-color="#1898de"/><stop offset=".745" stop-color="#1590d6"/><stop offset=".873" stop-color="#1083c9"/><stop offset=".982" stop-color="#0870b7"/><stop offset="1" stop-color="#076cb3"/></linearGradient><linearGradient id="b" x1="12.585" x2="17.645" y1="9.838" y2="22.823" gradientUnits="userSpaceOnUse"><stop stop-color="#32bdef"/><stop offset="1" stop-color="#1ea2e4"/></linearGradient><linearGradient id="c" x1="20.309" x2="24.157" y1="21.342" y2="21.342" gradientUnits="userSpaceOnUse"><stop offset=".266" stop-color="#199ae0"/><stop offset=".582" stop-color="#1898de"/><stop offset=".745" stop-color="#1590d6"/><stop offset=".873" stop-color="#1083c9"/><stop offset=".982" stop-color="#0870b7"/><stop offset="1" stop-color="#076cb3"/></linearGradient><linearGradient id="d" x1="23.508" x2="28.031" y1="9.631" y2="22.404" gradientUnits="userSpaceOnUse"><stop stop-color="#32bdef"/><stop offset="1" stop-color="#1ea2e4"/></linearGradient></defs></svg>