<svg xmlns="http://www.w3.org/2000/svg" width="50" height="50" fill="none" viewBox="0 0 50 50"><g clip-path="url(#a)"><path fill="#f44336" d="M19.65 3.98.9 6.52c-.12.02-.24.06-.35.12a1.091 1.091 0 0 0-.49.58c-.04.13-.07.26-.06.39v15.22c0 .6.46 1.08 1.04 1.08h18.75c.57 0 1.04-.48 1.04-1.08V5.06c0-.33-.12-.6-.36-.82a.99.99 0 0 0-.82-.26"/><path fill="#4caf50" d="M49.64.28a.97.97 0 0 0-.82-.28l-25 3.41a.9.9 0 0 0-.36.11c-.11.07-.21.15-.29.25-.09.1-.15.21-.19.34-.05.12-.07.25-.07.38v18.34c0 .6.47 1.08 1.04 1.08h25c.58 0 1.05-.48 1.05-1.08V1.09c-.01-.33-.12-.6-.36-.81"/><path fill="#2196f3" d="M19.79 26.09H1.04c-.58 0-1.04.48-1.04 1.08v15.22c-.01.13.02.26.06.38a.994.994 0 0 0 .49.58c.11.07.23.11.35.12l18.75 2.56h.14c.57 0 1.04-.49 1.04-1.09V27.17c0-.6-.47-1.08-1.04-1.08"/><path fill="#ffc107" d="M48.95 26.09h-25c-.57 0-1.04.48-1.04 1.08v18.34c0 .13.02.26.07.38.04.13.1.24.19.34.08.1.18.18.29.24q.165.105.36.12l25 3.4c.04.01.09.01.13 0 .58 0 1.04-.48 1.04-1.08V27.17c0-.6-.46-1.08-1.04-1.08"/><path fill="url(#b)" d="M34 25c0-6.075-4.925-11-11-11s-11 4.925-11 11 4.925 11 11 11 11-4.925 11-11"/><path fill="#fff" d="m20.06 22.84-3.363.874a.687.687 0 0 1-.859-.615l-.254-3.466a.344.344 0 0 1 .543-.304l.997.714a7.735 7.735 0 0 1 13.14 2.313.69.69 0 0 1-.473.908l-1.172.301a.69.69 0 0 1-.813-.418 5.157 5.157 0 0 0-8.576-1.595l.944.675a.344.344 0 0 1-.114.613m9.243 3.446-3.362.875a.344.344 0 0 0-.114.612l.944.676a5.157 5.157 0 0 1-8.576-1.595.69.69 0 0 0-.813-.419l-1.172.302a.69.69 0 0 0-.472.908 7.734 7.734 0 0 0 13.139 2.313l.997.714a.344.344 0 0 0 .543-.305l-.254-3.466a.687.687 0 0 0-.859-.614"/><path fill="#78b9eb" d="M21.06 24.688h1.13v1.125h-1.13z"/><path fill="#006df0" d="M21.06 25.812h1.13v1.125h-1.13z"/><path fill="#ffda44" d="M22.19 24.688h1.128v1.125H22.19z"/><path fill="#ff5023" d="m23.976 23.063.958.594-.596.955-.958-.594z"/><path fill="#78b9eb" d="M22.19 25.812h1.128v1.125H22.19zm1.128 0h1.129v1.125h-1.129z"/><path fill="#006df0" d="M21.06 23.563h1.13v1.125h-1.13z"/><path fill="#000" d="m24.97 23.603-.958-.594a.063.063 0 0 0-.086.02l-.596.956a.06.06 0 0 0-.008.047.06.06 0 0 0 .028.039l.958.594a.063.063 0 0 0 .087-.02l.596-.956a.06.06 0 0 0-.02-.086m-.649.923-.852-.528.53-.85.852.529zm.128 1.224h-1.066v-1.062a.06.06 0 0 0-.063-.063h-1.066v-1.062a.06.06 0 0 0-.063-.063h-1.128a.063.063 0 0 0-.063.063v3.375a.06.06 0 0 0 .063.062h3.386a.063.063 0 0 0 .063-.062v-1.125a.06.06 0 0 0-.063-.063m-2.32 1.125h-1.004v-1h1.004zm0-1.125h-1.004v-1h1.004zm0-1.125h-1.004v-1h1.004zm1.128 2.25h-1.003v-1h1.003zm0-1.125h-1.003v-1h1.003zm1.13 1.125h-1.004v-1h1.003z"/></g><defs><linearGradient id="b" x1="15.222" x2="30.778" y1="17.222" y2="32.778" gradientUnits="userSpaceOnUse"><stop stop-color="#54bdff"/><stop offset="1" stop-color="#0042c7"/></linearGradient><clipPath id="a"><path fill="#fff" d="M0 0h50v50.001H0z"/></clipPath></defs></svg>