<svg xmlns="http://www.w3.org/2000/svg" width="50" height="50" fill="none" viewBox="0 0 50 50"><defs><linearGradient id="b" x1="214.967" x2="179.834" y1="-276.142" y2="-90.872" gradientUnits="userSpaceOnUse"><stop stop-color="#fb3f1c"/><stop offset="1" stop-color="#fd8973"/></linearGradient><linearGradient id="e" x1="167.675" x2="216.948" y1="10.075" y2="-270.325" gradientUnits="userSpaceOnUse"><stop stop-color="#ae2b13"/><stop offset=".602" stop-color="#b32d15"/><stop offset="1" stop-color="#fb3f1c"/></linearGradient></defs><path fill="#a9e6fd" fill-rule="evenodd" d="M24.99.35c13.8 0 24.99 11.11 24.99 24.82S38.79 50 24.99 50 0 38.88 0 25.17 11.19.35 24.99.35"/><path d="M49.98 25.17C49.98 38.88 38.79 50 24.99 50S0 38.88 0 25.17 11.19.35 24.99.35s24.99 11.11 24.99 24.82"/><mask id="a" width="49.566" height="29.642" x=".434" y="0" mask-type="alpha" maskUnits="userSpaceOnUse"><path fill="#000" d="M25 0c13.81 0 25 11.25 25 25.14 0 1.11-.08 2.21-.21 3.28h-.01c0 .02 0 .04-.01.05-.49 1.93-15.72 1.23-25.32-.38-10.54-1.76-24-5.08-24.01-7.68H.43C2.63 8.79 12.8 0 25 0"/></mask><g mask="url(#a)"><path fill="url(#b)" d="M25 0c13.81 0 25 11.25 25 25.14 0 1.11-.08 2.21-.21 3.28h-.01c0 .02 0 .04-.01.05-.49 1.93-15.72 1.23-25.32-.38-10.54-1.76-24-5.08-24.01-7.68H.43C2.63 8.79 12.8 0 25 0"/><path d="M50 25.14c0 1.11-.08 2.21-.21 3.28h-.01c0 .02 0 .04-.01.05-.49 1.93-15.72 1.23-25.32-.38-10.54-1.76-24-5.08-24.01-7.68H.43C2.63 8.79 12.8 0 25 0c13.81 0 25 11.25 25 25.14"/></g><path fill="#d12000" fill-rule="evenodd" d="M24.45 28.09c9.6 1.61 24.83 2.31 25.32.38.5-1.93-9.46-5.35-23.09-7.59C23.36 20.35 1 17.12.44 20.41c0 2.6 13.47 5.92 24.01 7.68"/><path d="M49.77 28.47c.5-1.93-9.46-5.35-23.09-7.59C23.36 20.35 1 17.12.44 20.41c0 2.6 13.47 5.92 24.01 7.68 9.6 1.61 24.83 2.31 25.32.38"/><path fill="#000" fill-rule="evenodd" d="M28.26 7.49a1.6 1.6 0 0 1 1.28 1.84l-5.19 29.99c-.37 2.06 1.01 4.02 3.07 4.39 2.07.35 4.02-1.04 4.37-3.09l.2-1.17c.14-.86.96-1.44 1.82-1.3.87.17 1.44.99 1.28 1.84l-.19 1.17c-.67 3.79-4.25 6.33-8.01 5.67-3.78-.66-6.29-4.27-5.64-8.05l5.18-29.99c.14-.87.97-1.44 1.83-1.3"/><path d="m29.54 9.33-5.19 29.99c-.37 2.06 1.01 4.02 3.07 4.39 2.07.35 4.02-1.04 4.37-3.09l.2-1.17c.14-.86.96-1.44 1.82-1.3.87.17 1.44.99 1.28 1.84l-.19 1.17c-.67 3.79-4.25 6.33-8.01 5.67-3.78-.66-6.29-4.27-5.64-8.05l5.18-29.99c.14-.87.97-1.44 1.83-1.3a1.6 1.6 0 0 1 1.28 1.84"/><mask id="c" width="49.566" height="28.422" x=".434" y="0" mask-type="alpha" maskUnits="userSpaceOnUse"><path fill="#000" d="M25 0c13.81 0 25 11.25 25 25.14 0 1.11-.08 2.21-.21 3.28h-.01c.31-1.93-9.59-5.33-23.1-7.54C23.36 20.35 1 17.12.44 20.41H.43C2.63 8.79 12.8 0 25 0"/></mask><g mask="url(#c)"><path fill="#fc3f1d" d="m54.11 2.51-4.34 26.01L.43 20.41 4.77-5.6z"/><path d="M49.77 28.52.43 20.41 4.77-5.6l49.34 8.11z"/><path fill="#fd4f30" d="M25.2 29.66a2.543 2.543 0 0 1-2.11-2.92 2.55 2.55 0 0 1 2.94-2.09c1.4.22 2.34 1.53 2.11 2.92a2.56 2.56 0 0 1-2.94 2.09m-.07.37c1.61.27 3.12-.81 3.39-2.4.26-1.59-.82-3.1-2.42-3.36-1.61-.26-3.12.81-3.39 2.4-.26 1.6.82 3.1 2.42 3.36"/><path d="M23.09 26.74a2.55 2.55 0 0 1 2.94-2.09c1.4.22 2.34 1.53 2.11 2.92a2.56 2.56 0 0 1-2.94 2.09 2.543 2.543 0 0 1-2.11-2.92m5.43.89c.26-1.59-.82-3.1-2.42-3.36-1.61-.26-3.12.81-3.39 2.4-.26 1.6.82 3.1 2.42 3.36 1.61.27 3.12-.81 3.39-2.4"/><path fill="#fd4f30" d="M25.16 29.91c-1.54-.25-2.58-1.69-2.32-3.21.25-1.53 1.7-2.56 3.23-2.31 1.54.26 2.57 1.7 2.32 3.22s-1.7 2.55-3.23 2.3m-.07.37a3.19 3.19 0 0 0 3.68-2.61c.29-1.73-.89-3.36-2.63-3.65a3.19 3.19 0 0 0-3.68 2.61c-.29 1.73.89 3.37 2.63 3.65"/><path d="M22.84 26.7c.25-1.53 1.7-2.56 3.23-2.31 1.54.26 2.57 1.7 2.32 3.22s-1.7 2.55-3.23 2.3c-1.54-.25-2.58-1.69-2.32-3.21m5.93.97c.29-1.73-.89-3.36-2.63-3.65a3.19 3.19 0 0 0-3.68 2.61c-.29 1.73.89 3.37 2.63 3.65a3.19 3.19 0 0 0 3.68-2.61"/><path fill="#fd4e30" d="M25.11 30.16c-1.67-.28-2.8-1.85-2.52-3.51.27-1.66 1.85-2.78 3.53-2.51 1.67.28 2.8 1.85 2.52 3.51-.27 1.66-1.85 2.78-3.53 2.51m-.06.38c1.88.3 3.66-.96 3.97-2.83s-.96-3.63-2.84-3.94-3.66.95-3.97 2.82.96 3.64 2.84 3.95"/><path d="M22.59 26.65c.27-1.66 1.85-2.78 3.53-2.51 1.67.28 2.8 1.85 2.52 3.51-.27 1.66-1.85 2.78-3.53 2.51-1.67-.28-2.8-1.85-2.52-3.51m6.43 1.06c.31-1.87-.96-3.63-2.84-3.94s-3.66.95-3.97 2.82.96 3.64 2.84 3.95c1.88.3 3.66-.96 3.97-2.83"/><path fill="#fd4e30" d="M25.07 30.41c-1.81-.3-3.04-2-2.74-3.8s2.02-3.01 3.83-2.72c1.81.3 3.04 2 2.74 3.8s-2.02 3.02-3.83 2.72m-.06.38c2.02.33 3.93-1.03 4.26-3.04.34-2-1.03-3.9-3.05-4.23a3.69 3.69 0 0 0-4.26 3.03c-.34 2.01 1.03 3.9 3.05 4.24"/><path d="M22.33 26.61c.3-1.8 2.02-3.01 3.83-2.72 1.81.3 3.04 2 2.74 3.8s-2.02 3.02-3.83 2.72-3.04-2-2.74-3.8m6.94 1.14c.34-2-1.03-3.9-3.05-4.23a3.69 3.69 0 0 0-4.26 3.03c-.34 2.01 1.03 3.9 3.05 4.24 2.02.33 3.93-1.03 4.26-3.04"/><path fill="#fd4e30" d="M25.03 30.66a3.563 3.563 0 0 1-2.95-4.09c.32-1.94 2.17-3.25 4.12-2.93s3.27 2.15 2.95 4.09-2.17 3.25-4.12 2.93m-.06.38c2.16.35 4.2-1.1 4.56-3.25a3.943 3.943 0 0 0-3.27-4.52 3.956 3.956 0 0 0-4.56 3.24c-.35 2.14 1.11 4.17 3.27 4.53"/><path d="M22.08 26.57c.32-1.94 2.17-3.25 4.12-2.93s3.27 2.15 2.95 4.09-2.17 3.25-4.12 2.93a3.563 3.563 0 0 1-2.95-4.09m7.45 1.22a3.943 3.943 0 0 0-3.27-4.52 3.956 3.956 0 0 0-4.56 3.24c-.35 2.14 1.11 4.17 3.27 4.53 2.16.35 4.2-1.1 4.56-3.25"/><path fill="#fd4e30" d="M24.99 30.91c-2.09-.34-3.51-2.3-3.16-4.38s2.32-3.48 4.41-3.14c2.09.35 3.51 2.31 3.16 4.38a3.83 3.83 0 0 1-4.41 3.14m-.06.38c2.3.38 4.47-1.17 4.85-3.45a4.19 4.19 0 0 0-3.48-4.82c-2.3-.38-4.47 1.16-4.85 3.45-.38 2.28 1.18 4.44 3.48 4.82"/><path d="M21.83 26.53c.35-2.08 2.32-3.48 4.41-3.14 2.09.35 3.51 2.31 3.16 4.38a3.83 3.83 0 0 1-4.41 3.14c-2.09-.34-3.51-2.3-3.16-4.38m7.95 1.31a4.19 4.19 0 0 0-3.48-4.82c-2.3-.38-4.47 1.16-4.85 3.45-.38 2.28 1.18 4.44 3.48 4.82s4.47-1.17 4.85-3.45"/><path fill="#fd4e2f" d="M24.95 31.16c-2.23-.36-3.74-2.46-3.37-4.67a4.08 4.08 0 0 1 4.7-3.35c2.23.37 3.74 2.46 3.37 4.68-.37 2.21-2.47 3.71-4.7 3.34m-.07.38c2.44.4 4.75-1.24 5.15-3.66.41-2.42-1.24-4.71-3.68-5.11-2.44-.41-4.75 1.23-5.15 3.66-.41 2.42 1.24 4.71 3.68 5.11"/><path d="M21.58 26.49a4.08 4.08 0 0 1 4.7-3.35c2.23.37 3.74 2.46 3.37 4.68-.37 2.21-2.47 3.71-4.7 3.34-2.23-.36-3.74-2.46-3.37-4.67m8.45 1.39c.41-2.42-1.24-4.71-3.68-5.11-2.44-.41-4.75 1.23-5.15 3.66-.41 2.42 1.24 4.71 3.68 5.11s4.75-1.24 5.15-3.66"/><path fill="#fd4e2f" d="M24.9 31.41c-2.37-.39-3.97-2.61-3.58-4.96.4-2.36 2.64-3.95 5.01-3.56 2.36.39 3.97 2.61 3.58 4.97-.4 2.35-2.64 3.94-5.01 3.55m-.06.38c2.58.42 5.02-1.31 5.44-3.87.43-2.56-1.31-4.98-3.89-5.41-2.58-.42-5.02 1.31-5.44 3.87-.43 2.56 1.31 4.98 3.89 5.41"/><path d="M21.32 26.45c.4-2.36 2.64-3.95 5.01-3.56 2.36.39 3.97 2.61 3.58 4.97-.4 2.35-2.64 3.94-5.01 3.55s-3.97-2.61-3.58-4.96m8.96 1.47c.43-2.56-1.31-4.98-3.89-5.41-2.58-.42-5.02 1.31-5.44 3.87-.43 2.56 1.31 4.98 3.89 5.41 2.58.42 5.02-1.31 5.44-3.87"/><path fill="#fd4e2f" d="M24.86 31.66a4.575 4.575 0 0 1-3.79-5.26c.42-2.49 2.79-4.17 5.3-3.76a4.58 4.58 0 0 1 3.79 5.26c-.42 2.49-2.79 4.18-5.3 3.76m-.06.38c2.72.45 5.29-1.38 5.74-4.08s-1.39-5.25-4.11-5.7c-2.72-.44-5.29 1.38-5.74 4.08s1.39 5.25 4.11 5.7"/><path d="M21.07 26.4c.42-2.49 2.79-4.17 5.3-3.76a4.58 4.58 0 0 1 3.79 5.26c-.42 2.49-2.79 4.18-5.3 3.76a4.575 4.575 0 0 1-3.79-5.26m9.47 1.56c.45-2.7-1.39-5.25-4.11-5.7-2.72-.44-5.29 1.38-5.74 4.08s1.39 5.25 4.11 5.7 5.29-1.38 5.74-4.08"/><path fill="#fd4d2f" d="M24.82 31.91c-2.65-.43-4.44-2.92-4-5.55s2.94-4.41 5.59-3.97c2.65.43 4.44 2.92 4 5.55s-2.94 4.41-5.59 3.97m-.06.38c2.86.47 5.56-1.45 6.03-4.29s-1.46-5.52-4.32-5.99-5.56 1.45-6.03 4.29 1.46 5.52 4.32 5.99"/><path d="M20.82 26.36c.44-2.63 2.94-4.41 5.59-3.97 2.65.43 4.44 2.92 4 5.55s-2.94 4.41-5.59 3.97c-2.65-.43-4.44-2.92-4-5.55M30.79 28c.47-2.84-1.46-5.52-4.32-5.99s-5.56 1.45-6.03 4.29 1.46 5.52 4.32 5.99 5.56-1.45 6.03-4.29"/><path fill="#fd4d2f" d="M24.78 32.16a5.075 5.075 0 0 1-4.21-5.84c.46-2.77 3.09-4.64 5.88-4.18s4.67 3.07 4.21 5.84-3.09 4.64-5.88 4.18m-.06.38c2.99.49 5.83-1.52 6.32-4.5.5-2.97-1.53-5.78-4.53-6.28-2.99-.49-5.83 1.52-6.32 4.5-.5 2.98 1.53 5.79 4.53 6.28"/><path d="M20.57 26.32c.46-2.77 3.09-4.64 5.88-4.18s4.67 3.07 4.21 5.84-3.09 4.64-5.88 4.18a5.075 5.075 0 0 1-4.21-5.84m10.47 1.72c.5-2.97-1.53-5.78-4.53-6.28-2.99-.49-5.83 1.52-6.32 4.5-.5 2.98 1.53 5.79 4.53 6.28 2.99.49 5.83-1.52 6.32-4.5"/><path fill="#fd4d2f" d="M24.74 32.42c-2.93-.49-4.91-3.23-4.43-6.14.49-2.91 3.26-4.87 6.18-4.39 2.93.48 4.91 3.23 4.43 6.13-.49 2.91-3.26 4.88-6.18 4.4m-.07.37c3.14.52 6.1-1.59 6.62-4.7.52-3.12-1.6-6.06-4.73-6.58-3.14-.51-6.1 1.59-6.62 4.71-.52 3.11 1.6 6.06 4.73 6.57"/><path d="M20.31 26.28c.49-2.91 3.26-4.87 6.18-4.39 2.93.48 4.91 3.23 4.43 6.13-.49 2.91-3.26 4.88-6.18 4.4-2.93-.49-4.91-3.23-4.43-6.14m10.98 1.81c.52-3.12-1.6-6.06-4.73-6.58-3.14-.51-6.1 1.59-6.62 4.71-.52 3.11 1.6 6.06 4.73 6.57 3.14.52 6.1-1.59 6.62-4.7"/><path fill="#fd4d2e" d="M24.7 32.67c-3.07-.51-5.15-3.39-4.64-6.43.51-3.05 3.41-5.11 6.47-4.6 3.07.5 5.15 3.38 4.64 6.42-.51 3.05-3.41 5.11-6.47 4.61m-.07.37c3.28.54 6.37-1.66 6.92-4.91.54-3.26-1.68-6.33-4.95-6.87-3.28-.54-6.37 1.66-6.92 4.92-.54 3.25 1.68 6.32 4.95 6.86"/><path d="M20.06 26.24c.51-3.05 3.41-5.11 6.47-4.6 3.07.5 5.15 3.38 4.64 6.42-.51 3.05-3.41 5.11-6.47 4.61-3.07-.51-5.15-3.39-4.64-6.43m11.49 1.89c.54-3.26-1.68-6.33-4.95-6.87-3.28-.54-6.37 1.66-6.92 4.92-.54 3.25 1.68 6.32 4.95 6.86 3.28.54 6.37-1.66 6.92-4.91"/><path fill="#fd4d2e" d="M24.65 32.92c-3.2-.53-5.37-3.54-4.84-6.72.53-3.19 3.56-5.34 6.77-4.81 3.2.52 5.37 3.53 4.84 6.72-.53 3.18-3.56 5.33-6.77 4.81m-.06.37c3.42.56 6.64-1.73 7.21-5.12.56-3.39-1.75-6.6-5.16-7.16-3.42-.56-6.64 1.73-7.21 5.12-.56 3.4 1.75 6.6 5.16 7.16"/><path d="M19.81 26.2c.53-3.19 3.56-5.34 6.77-4.81 3.2.52 5.37 3.53 4.84 6.72-.53 3.18-3.56 5.33-6.77 4.81-3.2-.53-5.37-3.54-4.84-6.72m11.99 1.97c.56-3.39-1.75-6.6-5.16-7.16-3.42-.56-6.64 1.73-7.21 5.12-.56 3.4 1.75 6.6 5.16 7.16 3.42.56 6.64-1.73 7.21-5.12"/><path fill="#fd4d2e" d="M24.61 33.17c-3.34-.55-5.61-3.69-5.05-7.01.55-3.33 3.71-5.57 7.06-5.02 3.34.55 5.61 3.69 5.05 7.01-.55 3.32-3.71 5.57-7.06 5.02m-.06.37c3.55.59 6.91-1.8 7.5-5.33s-1.82-6.87-5.37-7.45-6.91 1.8-7.5 5.33 1.82 6.87 5.37 7.45"/><path d="M19.56 26.16c.55-3.33 3.71-5.57 7.06-5.02 3.34.55 5.61 3.69 5.05 7.01-.55 3.32-3.71 5.57-7.06 5.02-3.34-.55-5.61-3.69-5.05-7.01m12.49 2.05c.59-3.53-1.82-6.87-5.37-7.45s-6.91 1.8-7.5 5.33 1.82 6.87 5.37 7.45c3.55.59 6.91-1.8 7.5-5.33"/><path fill="#fd4d2e" d="M24.57 33.42c-3.48-.58-5.84-3.85-5.26-7.31.57-3.46 3.86-5.8 7.35-5.22 3.48.57 5.84 3.84 5.26 7.3-.57 3.46-3.86 5.8-7.35 5.23m-.06.37c3.69.61 7.18-1.87 7.79-5.54s-1.88-7.13-5.58-7.74c-3.69-.61-7.18 1.87-7.79 5.54s1.88 7.14 5.58 7.74"/><path d="M19.31 26.11c.57-3.46 3.86-5.8 7.35-5.22 3.48.57 5.84 3.84 5.26 7.3-.57 3.46-3.86 5.8-7.35 5.23-3.48-.58-5.84-3.85-5.26-7.31m12.99 2.14c.61-3.67-1.88-7.13-5.58-7.74-3.69-.61-7.18 1.87-7.79 5.54s1.88 7.14 5.58 7.74c3.69.61 7.18-1.87 7.79-5.54"/><path fill="#fd4d2e" d="M24.53 33.67c-3.63-.6-6.08-4-5.48-7.6s4.03-6.03 7.65-5.44c3.63.6 6.08 4 5.48 7.6s-4.03 6.03-7.65 5.44m-.06.37c3.83.63 7.45-1.94 8.09-5.75.63-3.8-1.96-7.4-5.8-8.03-3.83-.63-7.45 1.94-8.09 5.75-.63 3.81 1.96 7.4 5.8 8.03"/><path d="M19.05 26.07c.6-3.6 4.03-6.03 7.65-5.44 3.63.6 6.08 4 5.48 7.6s-4.03 6.03-7.65 5.44c-3.63-.6-6.08-4-5.48-7.6m13.51 2.22c.63-3.8-1.96-7.4-5.8-8.03-3.83-.63-7.45 1.94-8.09 5.75-.63 3.81 1.96 7.4 5.8 8.03 3.83.63 7.45-1.94 8.09-5.75"/><path fill="#fd4c2e" d="M24.49 33.92c-3.77-.62-6.31-4.15-5.69-7.89s4.18-6.26 7.94-5.65c3.77.62 6.31 4.15 5.69 7.89s-4.18 6.27-7.94 5.65m-.07.37c3.98.66 7.73-2.01 8.39-5.96.66-3.94-2.03-7.67-6-8.32-3.98-.65-7.73 2.01-8.39 5.96-.66 3.94 2.03 7.67 6 8.32"/><path d="M18.8 26.03c.62-3.74 4.18-6.26 7.94-5.65 3.77.62 6.31 4.15 5.69 7.89s-4.18 6.27-7.94 5.65c-3.77-.62-6.31-4.15-5.69-7.89m14.01 2.3c.66-3.94-2.03-7.67-6-8.32-3.98-.65-7.73 2.01-8.39 5.96-.66 3.94 2.03 7.67 6 8.32 3.98.66 7.73-2.01 8.39-5.96"/><path fill="#fd4c2d" d="M24.44 34.17c-3.9-.64-6.54-4.3-5.89-8.18.64-3.88 4.33-6.5 8.24-5.86 3.9.65 6.54 4.31 5.89 8.18-.64 3.88-4.33 6.5-8.24 5.86m-.06.38c4.11.67 8-2.09 8.68-6.17.68-4.09-2.1-7.95-6.21-8.62-4.11-.68-8 2.08-8.68 6.17-.68 4.08 2.1 7.94 6.21 8.62"/><path d="M18.55 25.99c.64-3.88 4.33-6.5 8.24-5.86 3.9.65 6.54 4.31 5.89 8.18-.64 3.88-4.33 6.5-8.24 5.86-3.9-.64-6.54-4.3-5.89-8.18m14.51 2.39c.68-4.09-2.1-7.95-6.21-8.62-4.11-.68-8 2.08-8.68 6.17-.68 4.08 2.1 7.94 6.21 8.62 4.11.67 8-2.09 8.68-6.17"/><path fill="#fd4c2d" d="M24.4 34.42c-4.04-.66-6.77-4.46-6.1-8.47.66-4.02 4.48-6.73 8.53-6.07 4.04.67 6.77 4.46 6.1 8.48-.67 4.01-4.48 6.73-8.53 6.06m-.06.38c4.25.7 8.27-2.16 8.97-6.38.71-4.22-2.17-8.21-6.42-8.91s-8.27 2.15-8.97 6.38c-.71 4.22 2.17 8.21 6.42 8.91"/><path d="M18.3 25.95c.66-4.02 4.48-6.73 8.53-6.07 4.04.67 6.77 4.46 6.1 8.48-.67 4.01-4.48 6.73-8.53 6.06-4.04-.66-6.77-4.46-6.1-8.47m15.01 2.47c.71-4.22-2.17-8.21-6.42-8.91s-8.27 2.15-8.97 6.38c-.71 4.22 2.17 8.21 6.42 8.91s8.27-2.16 8.97-6.38"/><path fill="#fd4c2d" d="M24.36 34.67c-4.18-.69-7.01-4.61-6.32-8.76.7-4.16 4.65-6.97 8.83-6.28s7.01 4.61 6.32 8.77c-.7 4.15-4.65 6.96-8.83 6.27m-.06.38c4.39.72 8.54-2.23 9.26-6.59.73-4.36-2.24-8.48-6.63-9.2-4.39-.73-8.54 2.22-9.27 6.58-.72 4.37 2.25 8.49 6.64 9.21"/><path d="M18.04 25.91c.7-4.16 4.65-6.97 8.83-6.28s7.01 4.61 6.32 8.77c-.7 4.15-4.65 6.96-8.83 6.27s-7.01-4.61-6.32-8.76m15.52 2.55c.73-4.36-2.24-8.48-6.63-9.2-4.39-.73-8.54 2.22-9.27 6.58-.72 4.37 2.25 8.49 6.64 9.21s8.54-2.23 9.26-6.59"/><path fill="#fd4c2d" d="M24.32 34.92c-4.32-.71-7.24-4.76-6.53-9.05.72-4.3 4.8-7.2 9.12-6.49s7.24 4.77 6.53 9.06c-.72 4.29-4.8 7.19-9.12 6.48m-.06.38c4.53.74 8.81-2.3 9.56-6.8s-2.32-8.75-6.85-9.49c-4.53-.75-8.81 2.29-9.56 6.79s2.32 8.75 6.85 9.5"/><path d="M17.79 25.87c.72-4.3 4.8-7.2 9.12-6.49s7.24 4.77 6.53 9.06c-.72 4.29-4.8 7.19-9.12 6.48s-7.24-4.76-6.53-9.05m16.03 2.63c.75-4.5-2.32-8.75-6.85-9.49-4.53-.75-8.81 2.29-9.56 6.79s2.32 8.75 6.85 9.5c4.53.74 8.81-2.3 9.56-6.8"/><path fill="#fd4c2d" d="M24.28 35.17c-4.46-.73-7.48-4.92-6.74-9.35s4.95-7.42 9.41-6.69 7.48 4.92 6.74 9.35-4.95 7.43-9.41 6.69m-.06.38c4.66.77 9.08-2.37 9.85-7.01s-2.39-9.02-7.06-9.79c-4.66-.76-9.08 2.37-9.85 7.01s2.39 9.02 7.06 9.79"/><path d="M17.54 25.82c.74-4.43 4.95-7.42 9.41-6.69s7.48 4.92 6.74 9.35-4.95 7.43-9.41 6.69c-4.46-.73-7.48-4.92-6.74-9.35m16.53 2.72c.77-4.64-2.39-9.02-7.06-9.79-4.66-.76-9.08 2.37-9.85 7.01s2.39 9.02 7.06 9.79c4.66.77 9.08-2.37 9.85-7.01"/><path fill="#fd4c2d" d="M24.24 35.42c-4.6-.75-7.72-5.07-6.95-9.64.76-4.57 5.1-7.66 9.7-6.9s7.72 5.07 6.95 9.64c-.76 4.57-5.1 7.66-9.7 6.9m-.07.38c4.81.79 9.36-2.44 10.15-7.22.8-4.77-2.45-9.29-7.26-10.08s-9.36 2.44-10.15 7.22c-.8 4.78 2.45 9.29 7.26 10.08"/><path d="M17.29 25.78c.76-4.57 5.1-7.66 9.7-6.9s7.72 5.07 6.95 9.64c-.76 4.57-5.1 7.66-9.7 6.9-4.6-.75-7.72-5.07-6.95-9.64m17.03 2.8c.8-4.77-2.45-9.29-7.26-10.08s-9.36 2.44-10.15 7.22c-.8 4.78 2.45 9.29 7.26 10.08s9.36-2.44 10.15-7.22"/><path fill="#fd4b2c" d="M24.19 35.67c-4.74-.78-7.94-5.22-7.16-9.93.79-4.71 5.27-7.89 10.01-7.11 4.73.78 7.94 5.23 7.16 9.93-.79 4.71-5.27 7.89-10.01 7.11m-.06.38c4.95.81 9.63-2.51 10.44-7.43.82-4.91-2.52-9.55-7.47-10.37-4.95-.81-9.63 2.51-10.44 7.43-.82 4.91 2.52 9.56 7.47 10.37"/><path d="M17.03 25.74c.79-4.71 5.27-7.89 10.01-7.11 4.73.78 7.94 5.23 7.16 9.93-.79 4.71-5.27 7.89-10.01 7.11s-7.94-5.22-7.16-9.93m17.54 2.88c.82-4.91-2.52-9.55-7.47-10.37-4.95-.81-9.63 2.51-10.44 7.43-.82 4.91 2.52 9.56 7.47 10.37s9.63-2.51 10.44-7.43"/><path fill="#fd4b2c" d="M24.15 35.92c-4.88-.8-8.18-5.38-7.37-10.22.81-4.85 5.42-8.12 10.3-7.32s8.18 5.38 7.37 10.22c-.81 4.85-5.42 8.13-10.3 7.32m-.06.38c5.09.84 9.89-2.58 10.74-7.63.84-5.06-2.6-9.83-7.69-10.67-5.09-.83-9.89 2.58-10.74 7.64-.84 5.05 2.6 9.82 7.69 10.66"/><path d="M16.78 25.7c.81-4.85 5.42-8.12 10.3-7.32s8.18 5.38 7.37 10.22c-.81 4.85-5.42 8.13-10.3 7.32-4.88-.8-8.18-5.38-7.37-10.22m18.05 2.97c.84-5.06-2.6-9.83-7.69-10.67-5.09-.83-9.89 2.58-10.74 7.64-.84 5.05 2.6 9.82 7.69 10.66s9.89-2.58 10.74-7.63"/><path fill="#fd4b2c" d="M24.11 36.17c-5.02-.82-8.41-5.53-7.58-10.51.83-4.99 5.57-8.36 10.59-7.53 5.02.82 8.41 5.53 7.58 10.52-.83 4.98-5.57 8.35-10.59 7.52m-.06.38c5.23.86 10.16-2.65 11.03-7.84.86-5.19-2.67-10.1-7.9-10.96S17.02 20.4 16.15 25.6c-.86 5.19 2.67 10.09 7.9 10.95"/><path d="M16.53 25.66c.83-4.99 5.57-8.36 10.59-7.53 5.02.82 8.41 5.53 7.58 10.52-.83 4.98-5.57 8.35-10.59 7.52-5.02-.82-8.41-5.53-7.58-10.51m18.55 3.05c.86-5.19-2.67-10.1-7.9-10.96S17.02 20.4 16.15 25.6c-.86 5.19 2.67 10.09 7.9 10.95s10.16-2.65 11.03-7.84"/><path fill="#fd4b2c" d="M24.07 36.43c-5.16-.85-8.65-5.69-7.79-10.81.85-5.13 5.72-8.59 10.88-7.74s8.65 5.69 7.79 10.81c-.85 5.12-5.72 8.58-10.88 7.74m-.06.37c5.36.88 10.43-2.72 11.32-8.05s-2.74-10.37-8.11-11.25c-5.36-.88-10.43 2.72-11.32 8.05s2.74 10.37 8.11 11.25"/><path d="M16.28 25.62c.85-5.13 5.72-8.59 10.88-7.74s8.65 5.69 7.79 10.81c-.85 5.12-5.72 8.58-10.88 7.74-5.16-.85-8.65-5.69-7.79-10.81m19.05 3.13c.89-5.33-2.74-10.37-8.11-11.25-5.36-.88-10.43 2.72-11.32 8.05s2.74 10.37 8.11 11.25c5.36.88 10.43-2.72 11.32-8.05"/><path fill="#fd4b2c" d="M24.03 36.68c-5.3-.87-8.88-5.85-8.01-11.11.88-5.26 5.89-8.81 11.18-7.94 5.3.87 8.88 5.84 8.01 11.1-.88 5.26-5.89 8.82-11.18 7.95m-.07.37c5.51.91 10.71-2.79 11.62-8.26.92-5.47-2.81-10.63-8.31-11.54-5.51-.9-10.71 2.79-11.62 8.26-.92 5.47 2.81 10.64 8.31 11.54"/><path d="M16.02 25.57c.88-5.26 5.89-8.81 11.18-7.94 5.3.87 8.88 5.84 8.01 11.1-.88 5.26-5.89 8.82-11.18 7.95-5.3-.87-8.88-5.85-8.01-11.11m19.56 3.22c.92-5.47-2.81-10.63-8.31-11.54-5.51-.9-10.71 2.79-11.62 8.26-.92 5.47 2.81 10.64 8.31 11.54 5.51.91 10.71-2.79 11.62-8.26"/><path fill="#fd4b2c" d="M23.99 36.93c-5.44-.9-9.12-6-8.22-11.4s6.04-9.05 11.47-8.15c5.44.89 9.12 5.99 8.22 11.39s-6.04 9.05-11.47 8.16m-.07.37c5.65.93 10.98-2.86 11.92-8.47.93-5.6-2.89-10.9-8.53-11.83-5.65-.93-10.98 2.86-11.92 8.47-.93 5.61 2.89 10.9 8.53 11.83"/><path d="M15.77 25.53c.9-5.4 6.04-9.05 11.47-8.15 5.44.89 9.12 5.99 8.22 11.39s-6.04 9.05-11.47 8.16c-5.44-.9-9.12-6-8.22-11.4m20.07 3.3c.93-5.6-2.89-10.9-8.53-11.83-5.65-.93-10.98 2.86-11.92 8.47-.93 5.61 2.89 10.9 8.53 11.83 5.65.93 10.98-2.86 11.92-8.47"/><path fill="#fd4b2b" d="M23.94 37.18c-5.57-.92-9.34-6.15-8.42-11.69s6.19-9.28 11.77-8.36c5.57.91 9.34 6.14 8.42 11.68s-6.19 9.28-11.77 8.37m-.06.37c5.79.95 11.25-2.93 12.21-8.68.96-5.74-2.96-11.17-8.74-12.12-5.79-.95-11.25 2.93-12.21 8.68-.96 5.74 2.96 11.17 8.74 12.12"/><path d="M15.52 25.49c.92-5.54 6.19-9.28 11.77-8.36 5.57.91 9.34 6.14 8.42 11.68s-6.19 9.28-11.77 8.37c-5.57-.92-9.34-6.15-8.42-11.69m20.57 3.38c.96-5.74-2.96-11.17-8.74-12.12-5.79-.95-11.25 2.93-12.21 8.68-.96 5.74 2.96 11.17 8.74 12.12 5.79.95 11.25-2.93 12.21-8.68"/><path fill="#fd4b2b" d="M23.9 37.43c-5.71-.94-9.58-6.3-8.63-11.98.94-5.68 6.34-9.51 12.06-8.58 5.71.94 9.58 6.31 8.63 11.98-.94 5.68-6.34 9.52-12.06 8.58m-.06.37c5.92.98 11.52-3 12.5-8.88.98-5.89-3.03-11.45-8.95-12.42s-11.52 3-12.5 8.89c-.98 5.88 3.03 11.44 8.95 12.41"/><path d="M15.27 25.45c.94-5.68 6.34-9.51 12.06-8.58 5.71.94 9.58 6.31 8.63 11.98-.94 5.68-6.34 9.52-12.06 8.58-5.71-.94-9.58-6.3-8.63-11.98m21.07 3.47c.98-5.89-3.03-11.45-8.95-12.42s-11.52 3-12.5 8.89c-.98 5.88 3.03 11.44 8.95 12.41 5.92.98 11.52-3 12.5-8.88"/><path fill="#fd4a2b" d="M23.86 37.68c-5.85-.96-9.81-6.46-8.85-12.27.97-5.82 6.51-9.75 12.36-8.79 5.85.97 9.81 6.46 8.85 12.27-.97 5.82-6.51 9.75-12.36 8.79m-.06.37c6.06 1 11.79-3.07 12.79-9.09 1.01-6.03-3.09-11.71-9.16-12.71-6.06-1-11.79 3.07-12.79 9.1-1.01 6.02 3.09 11.71 9.16 12.7"/><path d="M15.01 25.41c.97-5.82 6.51-9.75 12.36-8.79 5.85.97 9.81 6.46 8.85 12.27-.97 5.82-6.51 9.75-12.36 8.79s-9.81-6.46-8.85-12.27m21.58 3.55c1.01-6.03-3.09-11.71-9.16-12.71-6.06-1-11.79 3.07-12.79 9.1-1.01 6.02 3.09 11.71 9.16 12.7 6.06 1 11.79-3.07 12.79-9.09"/><path fill="#fd4a2b" d="M23.82 37.93c-6-.99-10.05-6.61-9.06-12.56.99-5.96 6.66-9.98 12.65-9 6 .99 10.05 6.61 9.06 12.57-.99 5.95-6.66 9.97-12.65 8.99m-.06.38c6.2 1.02 12.06-3.15 13.09-9.31 1.02-6.16-3.17-11.98-9.38-13-6.2-1.02-12.06 3.14-13.09 9.3-1.02 6.16 3.17 11.99 9.38 13.01"/><path d="M14.76 25.37c.99-5.96 6.66-9.98 12.65-9 6 .99 10.05 6.61 9.06 12.57-.99 5.95-6.66 9.97-12.65 8.99-6-.99-10.05-6.61-9.06-12.56M36.85 29c1.02-6.16-3.17-11.98-9.38-13-6.2-1.02-12.06 3.14-13.09 9.3-1.02 6.16 3.17 11.99 9.38 13.01 6.2 1.02 12.06-3.15 13.09-9.31"/><path fill="#fd4a2b" d="M23.78 38.18c-6.14-1.01-10.29-6.76-9.27-12.85 1.02-6.1 6.81-10.22 12.94-9.21 6.14 1.01 10.29 6.77 9.27 12.86s-6.81 10.21-12.94 9.2m-.07.38c6.35 1.04 12.34-3.22 13.39-9.52s-3.24-12.25-9.58-13.29c-6.35-1.05-12.34 3.21-13.39 9.51s3.24 12.25 9.58 13.3"/><path d="M14.51 25.33c1.02-6.1 6.81-10.22 12.94-9.21 6.14 1.01 10.29 6.77 9.27 12.86s-6.81 10.21-12.94 9.2c-6.14-1.01-10.29-6.76-9.27-12.85m22.59 3.71c1.05-6.3-3.24-12.25-9.58-13.29-6.35-1.05-12.34 3.21-13.39 9.51s3.24 12.25 9.58 13.3c6.35 1.04 12.34-3.22 13.39-9.52"/><path fill="#fd4a2b" d="M23.73 38.43c-6.27-1.03-10.51-6.92-9.47-13.15s6.96-10.44 13.24-9.41c6.27 1.03 10.51 6.92 9.47 13.15s-6.96 10.44-13.24 9.41m-.06.38c6.48 1.06 12.61-3.29 13.68-9.73s-3.31-12.52-9.79-13.58c-6.48-1.07-12.61 3.29-13.68 9.72-1.07 6.44 3.31 12.52 9.79 13.59"/><path d="M14.26 25.28c1.04-6.23 6.96-10.44 13.24-9.41 6.27 1.03 10.51 6.92 9.47 13.15s-6.96 10.44-13.24 9.41c-6.27-1.03-10.51-6.92-9.47-13.15m23.09 3.8c1.07-6.44-3.31-12.52-9.79-13.58-6.48-1.07-12.61 3.29-13.68 9.72-1.07 6.44 3.31 12.52 9.79 13.59 6.48 1.06 12.61-3.29 13.68-9.73"/><path fill="#fd4a2a" d="M23.69 38.68c-6.41-1.05-10.75-7.07-9.68-13.44 1.06-6.37 7.12-10.67 13.53-9.62 6.41 1.06 10.75 7.07 9.68 13.44-1.06 6.37-7.12 10.68-13.53 9.62m-.06.38c6.62 1.09 12.88-3.36 13.97-9.94 1.1-6.57-3.38-12.79-10-13.87-6.62-1.09-12.88 3.36-13.97 9.93-1.1 6.58 3.38 12.79 10 13.88"/><path d="M14.01 25.24c1.06-6.37 7.12-10.67 13.53-9.62 6.41 1.06 10.75 7.07 9.68 13.44-1.06 6.37-7.12 10.68-13.53 9.62-6.41-1.05-10.75-7.07-9.68-13.44m23.59 3.88c1.1-6.57-3.38-12.79-10-13.87-6.62-1.09-12.88 3.36-13.97 9.93-1.1 6.58 3.38 12.79 10 13.88s12.88-3.36 13.97-9.94"/><path fill="#fd4a2a" d="M23.65 38.93c-6.55-1.08-10.98-7.22-9.9-13.73 1.09-6.51 7.28-10.91 13.83-9.83s10.98 7.23 9.9 13.73c-1.09 6.51-7.28 10.91-13.83 9.83m-.06.38c6.76 1.11 13.15-3.43 14.27-10.15C38.97 22.45 34.4 16.11 27.64 15c-6.76-1.12-13.15 3.43-14.27 10.14-1.11 6.71 3.46 13.06 10.22 14.17"/><path d="M13.75 25.2c1.09-6.51 7.28-10.91 13.83-9.83s10.98 7.23 9.9 13.73c-1.09 6.51-7.28 10.91-13.83 9.83s-10.98-7.22-9.9-13.73m24.11 3.96C38.97 22.45 34.4 16.11 27.64 15c-6.76-1.12-13.15 3.43-14.27 10.14-1.11 6.71 3.46 13.06 10.22 14.17s13.15-3.43 14.27-10.15"/><path fill="#fd4a2a" d="M23.61 39.18c-6.69-1.1-11.22-7.38-10.11-14.02s7.43-11.14 14.12-10.04 11.22 7.38 10.11 14.02c-1.11 6.65-7.43 11.14-14.12 10.04m-.06.38c6.9 1.13 13.42-3.5 14.56-10.35 1.14-6.86-3.53-13.33-10.43-14.47-6.9-1.13-13.42 3.5-14.56 10.36-1.14 6.85 3.53 13.32 10.43 14.46"/><path d="M13.5 25.16c1.11-6.64 7.43-11.14 14.12-10.04s11.22 7.38 10.11 14.02c-1.11 6.65-7.43 11.14-14.12 10.04S12.39 31.8 13.5 25.16m24.61 4.05c1.14-6.86-3.53-13.33-10.43-14.47-6.9-1.13-13.42 3.5-14.56 10.36-1.14 6.85 3.53 13.32 10.43 14.46 6.9 1.13 13.42-3.5 14.56-10.35"/><path fill="#fd492a" d="M23.57 39.43c-6.83-1.12-11.45-7.53-10.32-14.31s7.58-11.37 14.41-10.25 11.45 7.53 10.32 14.31c-1.13 6.79-7.58 11.38-14.41 10.25m-.07.38c7.04 1.16 13.7-3.57 14.86-10.56 1.17-6.99-3.6-13.6-10.63-14.76-7.04-1.15-13.69 3.58-14.86 10.57s3.6 13.59 10.63 14.75"/><path d="M13.25 25.12c1.13-6.78 7.58-11.37 14.41-10.25s11.45 7.53 10.32 14.31c-1.13 6.79-7.58 11.38-14.41 10.25-6.83-1.12-11.45-7.53-10.32-14.31m25.11 4.13c1.17-6.99-3.6-13.6-10.63-14.76-7.04-1.15-13.69 3.58-14.86 10.57s3.6 13.59 10.63 14.75c7.04 1.16 13.7-3.57 14.86-10.56"/><path fill="#fd492a" d="M23.53 39.68C16.56 38.54 11.84 32 13 25.08c1.15-6.92 7.73-11.61 14.7-10.46s11.69 7.69 10.53 14.61c-1.15 6.92-7.73 11.6-14.7 10.45m-.07.38c7.18 1.18 13.96-3.64 15.15-10.77s-3.66-13.87-10.84-15.05-13.96 3.65-15.15 10.77c-1.19 7.13 3.66 13.87 10.84 15.05"/><path d="M13 25.08c1.15-6.92 7.73-11.61 14.7-10.46s11.69 7.69 10.53 14.61c-1.15 6.92-7.73 11.6-14.7 10.45C16.56 38.54 11.84 32 13 25.08m25.61 4.21c1.19-7.13-3.66-13.87-10.84-15.05s-13.96 3.65-15.15 10.77c-1.19 7.13 3.66 13.87 10.84 15.05s13.96-3.64 15.15-10.77"/><path fill="#fd492a" d="M23.48 39.93c-7.1-1.16-11.91-7.84-10.74-14.89 1.18-7.06 7.9-11.84 15.01-10.67 7.1 1.17 11.91 7.84 10.74 14.9-1.18 7.06-7.9 11.83-15.01 10.66m-.06.38c7.32 1.2 14.23-3.71 15.45-10.98 1.21-7.27-3.74-14.13-11.06-15.34-7.32-1.2-14.23 3.72-15.45 10.98-1.21 7.27 3.74 14.14 11.06 15.34"/><path d="M12.74 25.04c1.18-7.06 7.9-11.84 15.01-10.67 7.1 1.17 11.91 7.84 10.74 14.9-1.18 7.06-7.9 11.83-15.01 10.66-7.1-1.16-11.91-7.84-10.74-14.89m26.13 4.29c1.21-7.27-3.74-14.13-11.06-15.34-7.32-1.2-14.23 3.72-15.45 10.98-1.21 7.27 3.74 14.14 11.06 15.34s14.23-3.71 15.45-10.98"/><path fill="#fd4929" d="M23.44 40.19c-7.25-1.2-12.15-8-10.95-15.2 1.2-7.19 8.05-12.06 15.3-10.87s12.15 7.99 10.95 15.19-8.05 12.07-15.3 10.88m-.06.37c7.46 1.23 14.5-3.78 15.74-11.19 1.23-7.4-3.81-14.4-11.27-15.63-7.46-1.22-14.5 3.79-15.74 11.19-1.23 7.41 3.81 14.41 11.27 15.63"/><path d="M12.49 24.99c1.2-7.19 8.05-12.06 15.3-10.87s12.15 7.99 10.95 15.19-8.05 12.07-15.3 10.88c-7.25-1.2-12.15-8-10.95-15.2m26.63 4.38c1.23-7.4-3.81-14.4-11.27-15.63-7.46-1.22-14.5 3.79-15.74 11.19-1.23 7.41 3.81 14.41 11.27 15.63 7.46 1.23 14.5-3.78 15.74-11.19"/><path fill="#fd4929" d="M23.4 40.44c-7.39-1.22-12.38-8.15-11.16-15.49 1.22-7.33 8.2-12.3 15.59-11.08 7.39 1.21 12.38 8.14 11.16 15.48s-8.2 12.3-15.59 11.09m-.06.37c7.59 1.25 14.77-3.85 16.03-11.4 1.26-7.54-3.88-14.67-11.48-15.92-7.59-1.25-14.77 3.86-16.03 11.4s3.88 14.67 11.48 15.92"/><path d="M12.24 24.95c1.22-7.33 8.2-12.3 15.59-11.08 7.39 1.21 12.38 8.14 11.16 15.48s-8.2 12.3-15.59 11.09c-7.39-1.22-12.38-8.15-11.16-15.49m27.13 4.46c1.26-7.54-3.88-14.67-11.48-15.92-7.59-1.25-14.77 3.86-16.03 11.4s3.88 14.67 11.48 15.92c7.59 1.25 14.77-3.85 16.03-11.4"/><path fill="#fd4929" d="M23.36 40.69c-7.53-1.24-12.62-8.3-11.37-15.78 1.24-7.47 8.35-12.53 15.88-11.29 7.53 1.23 12.62 8.3 11.37 15.77-1.24 7.48-8.35 12.53-15.88 11.3m-.06.37c7.73 1.27 15.04-3.92 16.32-11.61 1.28-7.68-3.95-14.94-11.69-16.21-7.73-1.27-15.04 3.93-16.32 11.61s3.95 14.94 11.69 16.21"/><path d="M11.99 24.91c1.24-7.47 8.35-12.53 15.88-11.29 7.53 1.23 12.62 8.3 11.37 15.77-1.24 7.48-8.35 12.53-15.88 11.3-7.53-1.24-12.62-8.3-11.37-15.78m27.63 4.54c1.28-7.68-3.95-14.94-11.69-16.21-7.73-1.27-15.04 3.93-16.32 11.61s3.95 14.94 11.69 16.21c7.73 1.27 15.04-3.92 16.32-11.61"/><path fill="#fd4929" d="M23.32 40.94c-7.67-1.26-12.86-8.46-11.59-16.07s8.52-12.76 16.18-11.5c7.67 1.26 12.86 8.45 11.59 16.06-1.27 7.62-8.52 12.77-16.18 11.51m-.07.37c7.88 1.3 15.32-3.99 16.62-11.81 1.31-7.83-4.02-15.22-11.89-16.51-7.88-1.29-15.32 4-16.62 11.82-1.31 7.82 4.02 15.21 11.89 16.5"/><path d="M11.73 24.87c1.27-7.61 8.52-12.76 16.18-11.5 7.67 1.26 12.86 8.45 11.59 16.06-1.27 7.62-8.52 12.77-16.18 11.51-7.67-1.26-12.86-8.46-11.59-16.07m28.14 4.63c1.31-7.83-4.02-15.22-11.89-16.51-7.88-1.29-15.32 4-16.62 11.82-1.31 7.82 4.02 15.21 11.89 16.5 7.88 1.3 15.32-3.99 16.62-11.81"/><path fill="#fd4929" d="M23.27 41.19c-7.8-1.29-13.08-8.61-11.79-16.36s8.67-13 16.47-11.71c7.81 1.28 13.09 8.6 11.8 16.36-1.29 7.75-8.67 12.99-16.48 11.71m-.06.37c8.02 1.32 15.59-4.06 16.92-12.02 1.32-7.96-4.1-15.48-12.11-16.8C20 11.42 12.43 16.81 11.1 24.77c-1.32 7.96 4.1 15.48 12.11 16.79"/><path d="M11.48 24.83c1.29-7.75 8.67-13 16.47-11.71 7.81 1.28 13.09 8.6 11.8 16.36-1.29 7.75-8.67 12.99-16.48 11.71-7.8-1.29-13.08-8.61-11.79-16.36m28.65 4.71c1.32-7.96-4.1-15.48-12.11-16.8C20 11.42 12.43 16.81 11.1 24.77c-1.32 7.96 4.1 15.48 12.11 16.79 8.02 1.32 15.59-4.06 16.92-12.02"/><path fill="#fd4829" d="M23.23 41.44c-7.94-1.31-13.32-8.76-12-16.65C12.54 16.9 20.05 11.56 28 12.86c7.94 1.31 13.32 8.77 12 16.66-1.31 7.89-8.82 13.22-16.77 11.92m-.06.37c8.15 1.35 15.86-4.13 17.21-12.23s-4.17-15.75-12.32-17.09-15.86 4.14-17.21 12.23c-1.35 8.1 4.17 15.75 12.32 17.09"/><path d="M11.23 24.79C12.54 16.9 20.05 11.56 28 12.86c7.94 1.31 13.32 8.77 12 16.66-1.31 7.89-8.82 13.22-16.77 11.92-7.94-1.31-13.32-8.76-12-16.65m29.15 4.79c1.35-8.1-4.17-15.75-12.32-17.09S12.2 16.63 10.85 24.72c-1.35 8.1 4.17 15.75 12.32 17.09 8.15 1.35 15.86-4.13 17.21-12.23"/><path fill="#fd4828" d="M23.19 41.69c-8.08-1.33-13.55-8.92-12.21-16.95 1.34-8.02 8.97-13.46 17.06-12.13 8.08 1.33 13.55 8.92 12.21 16.95s-8.97 13.46-17.06 12.13m-.06.38c8.29 1.36 16.13-4.21 17.5-12.45 1.38-8.24-4.24-16.02-12.53-17.38-8.29-1.37-16.13 4.21-17.5 12.44-1.37 8.24 4.24 16.02 12.53 17.39"/><path d="M10.98 24.74c1.34-8.02 8.97-13.46 17.06-12.13 8.08 1.33 13.55 8.92 12.21 16.95s-8.97 13.46-17.06 12.13c-8.08-1.33-13.55-8.92-12.21-16.95m29.65 4.88c1.38-8.24-4.24-16.02-12.53-17.38-8.29-1.37-16.13 4.21-17.5 12.44-1.37 8.24 4.24 16.02 12.53 17.39 8.29 1.36 16.13-4.21 17.5-12.45"/><path fill="#fd4828" d="M23.15 41.94c-8.22-1.35-13.79-9.07-12.43-17.24 1.37-8.16 9.14-13.69 17.36-12.34 8.22 1.36 13.79 9.07 12.43 17.24-1.37 8.17-9.14 13.69-17.36 12.34m-.06.38c8.43 1.38 16.4-4.28 17.79-12.66 1.4-8.37-4.3-16.29-12.74-17.67-8.43-1.39-16.4 4.28-17.79 12.65-1.4 8.38 4.3 16.29 12.74 17.68"/><path d="M10.72 24.7c1.37-8.16 9.14-13.69 17.36-12.34 8.22 1.36 13.79 9.07 12.43 17.24-1.37 8.17-9.14 13.69-17.36 12.34S9.36 32.87 10.72 24.7m30.16 4.96c1.4-8.37-4.3-16.29-12.74-17.67-8.43-1.39-16.4 4.28-17.79 12.65-1.4 8.38 4.3 16.29 12.74 17.68 8.43 1.38 16.4-4.28 17.79-12.66"/><path fill="#fd4828" d="M23.11 42.19c-8.37-1.37-14.02-9.22-12.64-17.53 1.39-8.3 9.29-13.92 17.65-12.55 8.37 1.38 14.02 9.23 12.64 17.53-1.39 8.31-9.29 13.93-17.65 12.55m-.06.38c8.57 1.41 16.67-4.35 18.09-12.87 1.42-8.51-4.38-16.55-12.96-17.96-8.57-1.41-16.67 4.35-18.09 12.86s4.38 16.56 12.96 17.97"/><path d="M10.47 24.66c1.39-8.3 9.29-13.92 17.65-12.55 8.37 1.38 14.02 9.23 12.64 17.53-1.39 8.31-9.29 13.93-17.65 12.55-8.37-1.37-14.02-9.22-12.64-17.53m30.67 5.04c1.42-8.51-4.38-16.55-12.96-17.96-8.57-1.41-16.67 4.35-18.09 12.86s4.38 16.56 12.96 17.97c8.57 1.41 16.67-4.35 18.09-12.87"/><path fill="#fd4828" d="M23.07 42.44c-8.51-1.4-14.26-9.38-12.85-17.82s9.44-14.16 17.94-12.76c8.51 1.4 14.26 9.38 12.85 17.82-1.41 8.45-9.44 14.16-17.94 12.76m-.07.38c8.72 1.43 16.95-4.42 18.39-13.07 1.44-8.66-4.45-16.83-13.16-18.26-8.72-1.44-16.95 4.42-18.39 13.07S14.29 41.38 23 42.82"/><path d="M10.22 24.62c1.41-8.44 9.44-14.16 17.94-12.76 8.51 1.4 14.26 9.38 12.85 17.82-1.41 8.45-9.44 14.16-17.94 12.76-8.51-1.4-14.26-9.38-12.85-17.82m31.17 5.13c1.44-8.66-4.45-16.83-13.16-18.26-8.72-1.44-16.95 4.42-18.39 13.07S14.29 41.38 23 42.82c8.72 1.43 16.95-4.42 18.39-13.07"/><path fill="#fd4828" d="M23.02 42.69c-8.64-1.42-14.48-9.53-13.05-18.11s9.59-14.39 18.24-12.97c8.64 1.42 14.48 9.53 13.05 18.11-1.43 8.59-9.59 14.39-18.24 12.97m-.06.38c8.85 1.45 17.22-4.49 18.68-13.28 1.47-8.79-4.52-17.1-13.37-18.55-8.85-1.46-17.22 4.49-18.68 13.28-1.47 8.79 4.52 17.09 13.37 18.55"/><path d="M9.97 24.58C11.4 16 19.56 10.19 28.21 11.61c8.64 1.42 14.48 9.53 13.05 18.11-1.43 8.59-9.59 14.39-18.24 12.97-8.64-1.42-14.48-9.53-13.05-18.11m31.67 5.21c1.47-8.79-4.52-17.1-13.37-18.55-8.85-1.46-17.22 4.49-18.68 13.28-1.47 8.79 4.52 17.09 13.37 18.55 8.85 1.45 17.22-4.49 18.68-13.28"/><path fill="#fd4828" d="M22.98 42.94C14.2 41.5 8.26 33.26 9.71 24.54c1.46-8.72 9.76-14.62 18.54-13.18s14.72 9.68 13.27 18.41c-1.46 8.72-9.76 14.62-18.54 13.17m-.06.38c8.99 1.48 17.49-4.56 18.97-13.49 1.49-8.93-4.59-17.37-13.58-18.85-8.99-1.47-17.49 4.57-18.97 13.5-1.49 8.92 4.59 17.36 13.58 18.84"/><path d="M9.71 24.54c1.46-8.72 9.76-14.62 18.54-13.18s14.72 9.68 13.27 18.41c-1.46 8.72-9.76 14.62-18.54 13.17-8.78-1.44-14.72-9.68-13.27-18.4m32.18 5.29c1.49-8.93-4.59-17.37-13.58-18.85-8.99-1.47-17.49 4.57-18.97 13.5-1.49 8.92 4.59 17.36 13.58 18.84s17.49-4.56 18.97-13.49"/><path fill="#fc4727" d="M22.94 43.19C14.02 41.73 7.99 33.36 9.46 24.5c1.48-8.86 9.91-14.86 18.83-13.39s14.95 9.84 13.48 18.7c-1.48 8.86-9.91 14.85-18.83 13.38m-.06.38c9.13 1.5 17.75-4.63 19.27-13.7 1.51-9.07-4.67-17.63-13.8-19.14-9.13-1.5-17.75 4.64-19.27 13.7-1.51 9.07 4.67 17.64 13.8 19.14"/><path d="M9.46 24.5c1.48-8.86 9.91-14.86 18.83-13.39s14.95 9.84 13.48 18.7c-1.48 8.86-9.91 14.85-18.83 13.38-8.92-1.46-14.95-9.83-13.48-18.69m32.69 5.37c1.51-9.07-4.67-17.63-13.8-19.14-9.13-1.5-17.75 4.64-19.27 13.7-1.51 9.07 4.67 17.64 13.8 19.14s17.75-4.63 19.27-13.7"/><path fill="#fc4727" d="M22.9 43.44c-9.06-1.49-15.19-9.99-13.69-18.99 1.5-8.99 10.06-15.08 19.12-13.59s15.19 9.99 13.69 18.99S31.96 44.93 22.9 43.44m-.06.38c9.27 1.52 18.02-4.7 19.56-13.91 1.53-9.2-4.74-17.9-14.01-19.43-9.27-1.52-18.02 4.71-19.56 13.91C7.3 33.6 13.57 42.3 22.84 43.82"/><path d="M9.21 24.45c1.5-8.99 10.06-15.08 19.12-13.59s15.19 9.99 13.69 18.99S31.96 44.93 22.9 43.44 7.71 33.45 9.21 24.45m33.19 5.46c1.53-9.2-4.74-17.9-14.01-19.43-9.27-1.52-18.02 4.71-19.56 13.91C7.3 33.6 13.57 42.3 22.84 43.82s18.02-4.7 19.56-13.91"/><path fill="#fc4727" d="M22.86 43.69c-9.2-1.51-15.43-10.14-13.9-19.28 1.52-9.13 10.21-15.31 19.41-13.8s15.43 10.14 13.9 19.28c-1.52 9.14-10.21 15.32-19.41 13.8m-.07.38c9.41 1.55 18.3-4.77 19.86-14.12 1.56-9.34-4.81-18.17-14.21-19.72-9.41-1.54-18.3 4.78-19.86 14.12s4.81 18.17 14.21 19.72"/><path d="M8.96 24.41c1.52-9.13 10.21-15.31 19.41-13.8s15.43 10.14 13.9 19.28c-1.52 9.14-10.21 15.32-19.41 13.8-9.2-1.51-15.43-10.14-13.9-19.28m33.69 5.54c1.56-9.34-4.81-18.17-14.21-19.72-9.41-1.54-18.3 4.78-19.86 14.12s4.81 18.17 14.21 19.72c9.41 1.55 18.3-4.77 19.86-14.12"/><path fill="#fc4727" d="M22.82 43.94C13.48 42.41 7.16 33.65 8.71 24.37c1.54-9.27 10.37-15.55 19.7-14.01 9.34 1.53 15.66 10.3 14.11 19.57-1.54 9.28-10.37 15.55-19.7 14.01m-.07.38c9.55 1.57 18.57-4.84 20.15-14.33 1.58-9.48-4.87-18.44-14.42-20.01S9.91 14.83 8.33 24.31s4.87 18.44 14.42 20.01"/><path d="M8.71 24.37c1.54-9.27 10.37-15.55 19.7-14.01 9.34 1.53 15.66 10.3 14.11 19.57-1.54 9.28-10.37 15.55-19.7 14.01-9.34-1.53-15.66-10.29-14.11-19.57m34.19 5.62c1.58-9.48-4.87-18.44-14.42-20.01S9.91 14.83 8.33 24.31s4.87 18.44 14.42 20.01 18.57-4.84 20.15-14.33"/><path fill="#fc4727" d="M22.77 44.2C13.3 42.64 6.88 33.74 8.45 24.33S18.98 8.55 28.46 10.11c9.47 1.56 15.89 10.45 14.32 19.86-1.57 9.42-10.53 15.78-20.01 14.23m-.06.37c9.69 1.59 18.84-4.91 20.45-14.53 1.6-9.63-4.95-18.72-14.64-20.31S9.68 14.65 8.07 24.27c-1.6 9.62 4.95 18.71 14.64 20.3"/><path d="M8.45 24.33c1.57-9.41 10.53-15.78 20.01-14.22 9.47 1.56 15.89 10.45 14.32 19.86-1.57 9.42-10.53 15.78-20.01 14.23C13.3 42.64 6.88 33.74 8.45 24.33m34.71 5.71c1.6-9.63-4.95-18.72-14.64-20.31S9.68 14.65 8.07 24.27c-1.6 9.62 4.95 18.71 14.64 20.3s18.84-4.91 20.45-14.53"/><path fill="#fc4727" d="M22.73 44.45C13.11 42.86 6.61 33.84 8.2 24.29S18.88 8.28 28.5 9.86s16.12 10.6 14.53 20.15c-1.59 9.56-10.68 16.02-20.3 14.44m-.06.37c9.83 1.62 19.11-4.98 20.74-14.74S38.39 11.1 28.56 9.48C18.73 7.87 9.45 14.47 7.82 24.23s5.02 18.98 14.85 20.59"/><path d="M8.2 24.29C9.79 14.74 18.88 8.28 28.5 9.86s16.12 10.6 14.53 20.15c-1.59 9.56-10.68 16.02-20.3 14.44C13.11 42.86 6.61 33.84 8.2 24.29m35.21 5.79c1.63-9.76-5.02-18.98-14.85-20.6-9.83-1.61-19.11 4.99-20.74 14.75s5.02 18.98 14.85 20.59c9.83 1.62 19.11-4.98 20.74-14.74"/><path fill="#fc4726" d="M22.69 44.7C12.93 43.09 6.33 33.94 7.95 24.25 9.56 14.56 18.78 8 28.54 9.61c9.76 1.6 16.36 10.76 14.74 20.45-1.61 9.69-10.83 16.24-20.59 14.64m-.06.37c9.96 1.64 19.38-5.05 21.03-14.95S38.57 10.87 28.6 9.23C18.64 7.59 9.22 14.29 7.57 24.18c-1.65 9.9 5.09 19.25 15.06 20.89"/><path d="M7.95 24.25C9.56 14.56 18.78 8 28.54 9.61c9.76 1.6 16.36 10.76 14.74 20.45-1.61 9.69-10.83 16.24-20.59 14.64-9.76-1.61-16.36-10.76-14.74-20.45m35.71 5.87c1.65-9.9-5.09-19.25-15.06-20.89-9.96-1.64-19.38 5.06-21.03 14.95-1.65 9.9 5.09 19.25 15.06 20.89 9.96 1.64 19.38-5.05 21.03-14.95"/><path fill="#fc4626" d="M22.65 44.95C12.75 43.32 6.06 34.03 7.7 24.21 9.33 14.38 18.69 7.73 28.58 9.36c9.9 1.62 16.59 10.91 14.95 20.74-1.63 9.83-10.99 16.47-20.88 14.85m-.06.37c10.1 1.67 19.65-5.12 21.32-15.16 1.68-10.04-5.16-19.52-15.27-21.18-10.1-1.66-19.65 5.13-21.32 15.16-1.68 10.04 5.16 19.52 15.27 21.18"/><path d="M7.7 24.21C9.33 14.38 18.69 7.73 28.58 9.36c9.9 1.62 16.59 10.91 14.95 20.74-1.63 9.83-10.99 16.47-20.88 14.85-9.9-1.63-16.59-10.92-14.95-20.74m36.21 5.95c1.68-10.04-5.16-19.52-15.27-21.18-10.1-1.66-19.65 5.13-21.32 15.16-1.68 10.04 5.16 19.52 15.27 21.18 10.1 1.67 19.65-5.12 21.32-15.16"/><path fill="#fc4626" d="M22.61 45.2C12.57 43.55 5.78 34.13 7.44 24.16 9.1 14.2 18.59 7.45 28.62 9.1c10.04 1.66 16.83 11.07 15.17 21.04S32.64 46.85 22.61 45.2m-.07.37c10.25 1.69 19.93-5.19 21.63-15.37 1.69-10.17-5.24-19.79-15.48-21.47C18.44 7.04 8.76 13.93 7.06 24.1 5.37 34.28 12.3 43.89 22.54 45.57"/><path d="M7.44 24.16C9.1 14.2 18.59 7.45 28.62 9.1c10.04 1.66 16.83 11.07 15.17 21.04S32.64 46.85 22.61 45.2C12.57 43.55 5.78 34.13 7.44 24.16m36.73 6.04c1.69-10.17-5.24-19.79-15.48-21.47C18.44 7.04 8.76 13.93 7.06 24.1 5.37 34.28 12.3 43.89 22.54 45.57c10.25 1.69 19.93-5.19 21.63-15.37"/><path fill="#fc4626" d="M22.56 45.45C12.39 43.78 5.51 34.23 7.19 24.12c1.69-10.1 11.3-16.94 21.48-15.27 10.17 1.68 17.05 11.23 15.37 21.33-1.69 10.11-11.3 16.94-21.48 15.27m-.06.37c10.39 1.71 20.2-5.26 21.92-15.58 1.72-10.31-5.31-20.05-15.69-21.76-10.39-1.71-20.2 5.27-21.92 15.58s5.31 20.06 15.69 21.76"/><path d="M7.19 24.12c1.69-10.1 11.3-16.94 21.48-15.27 10.17 1.68 17.05 11.23 15.37 21.33-1.69 10.11-11.3 16.94-21.48 15.27C12.39 43.78 5.51 34.23 7.19 24.12m37.23 6.12c1.72-10.31-5.31-20.05-15.69-21.76-10.39-1.71-20.2 5.27-21.92 15.58s5.31 20.06 15.69 21.76c10.39 1.71 20.2-5.26 21.92-15.58"/><path fill="#fc4626" d="M22.52 45.7C12.21 44 5.23 34.32 6.94 24.08S18.39 6.91 28.71 8.6C39.02 10.3 46 19.98 44.29 30.22 42.58 40.47 32.84 47.4 22.52 45.7m-.06.38c10.52 1.73 20.47-5.34 22.21-15.8 1.74-10.45-5.38-20.32-15.9-22.05S8.3 13.57 6.56 24.02s5.38 20.33 15.9 22.06"/><path d="M6.94 24.08C8.65 13.84 18.39 6.91 28.71 8.6 39.02 10.3 46 19.98 44.29 30.22 42.58 40.47 32.84 47.4 22.52 45.7 12.21 44 5.23 34.32 6.94 24.08m37.73 6.2c1.74-10.45-5.38-20.32-15.9-22.05S8.3 13.57 6.56 24.02s5.38 20.33 15.9 22.06 20.47-5.34 22.21-15.8"/><path fill="#fc4626" d="M22.48 45.95C12.03 44.23 4.96 34.42 6.69 24.04S18.29 6.63 28.75 8.35c10.45 1.72 17.52 11.53 15.79 21.91-1.73 10.39-11.6 17.41-22.06 15.69m-.06.38c10.66 1.75 20.74-5.41 22.5-16 1.77-10.59-5.45-20.6-16.11-22.35-10.66-1.76-20.74 5.41-22.5 16-1.77 10.59 5.45 20.59 16.11 22.35"/><path d="M6.69 24.04C8.42 13.66 18.29 6.63 28.75 8.35c10.45 1.72 17.52 11.53 15.79 21.91-1.73 10.39-11.6 17.41-22.06 15.69C12.03 44.23 4.96 34.42 6.69 24.04m38.23 6.29c1.77-10.59-5.45-20.6-16.11-22.35-10.66-1.76-20.74 5.41-22.5 16-1.77 10.59 5.45 20.59 16.11 22.35 10.66 1.75 20.74-5.41 22.5-16"/><path fill="#fc4625" d="M22.44 46.2C11.85 44.46 4.68 34.52 6.43 24 8.19 13.48 18.2 6.36 28.79 8.1S46.55 19.78 44.8 30.31C43.04 40.83 33.03 47.94 22.44 46.2m-.06.38c10.8 1.77 21.01-5.48 22.79-16.21C46.96 19.64 39.66 9.5 28.85 7.73 18.05 5.95 7.84 13.21 6.06 23.94 4.27 34.66 11.57 44.8 22.38 46.58"/><path d="M6.43 24C8.19 13.48 18.2 6.36 28.79 8.1S46.55 19.78 44.8 30.31C43.04 40.83 33.03 47.94 22.44 46.2S4.68 34.52 6.43 24m38.74 6.37C46.96 19.64 39.66 9.5 28.85 7.73 18.05 5.95 7.84 13.21 6.06 23.94 4.27 34.66 11.57 44.8 22.38 46.58c10.8 1.77 21.01-5.48 22.79-16.21"/><path fill="#fc4625" d="M22.4 46.45c-10.74-1.76-18-11.83-16.22-22.49S18.1 6.09 28.83 7.85c10.74 1.77 18 11.84 16.22 22.5S33.13 48.22 22.4 46.45m-.07.38c10.95 1.8 21.29-5.55 23.1-16.42S39.84 9.27 28.9 7.48C17.95 5.68 7.61 13.03 5.8 23.89c-1.81 10.87 5.59 21.14 16.53 22.94"/><path d="M6.18 23.96C7.96 13.3 18.1 6.09 28.83 7.85c10.74 1.77 18 11.84 16.22 22.5S33.13 48.22 22.4 46.45c-10.74-1.76-18-11.83-16.22-22.49m39.25 6.45C47.24 19.54 39.84 9.27 28.9 7.48 17.95 5.68 7.61 13.03 5.8 23.89c-1.81 10.87 5.59 21.14 16.53 22.94 10.95 1.8 21.29-5.55 23.1-16.42"/><path fill="#fc4625" d="M22.36 46.7C11.48 44.91 4.13 34.71 5.93 23.91 7.73 13.12 18 5.81 28.87 7.6 39.75 9.39 47.1 19.59 45.3 30.39S33.23 48.49 22.36 46.7m-.07.38c11.08 1.82 21.55-5.62 23.39-16.63 1.83-11-5.66-21.4-16.74-23.22C17.86 5.4 7.39 12.85 5.55 23.85c-1.83 11.01 5.66 21.41 16.74 23.23"/><path d="M5.93 23.91C7.73 13.12 18 5.81 28.87 7.6 39.75 9.39 47.1 19.59 45.3 30.39S33.23 48.49 22.36 46.7C11.48 44.91 4.13 34.71 5.93 23.91m39.75 6.54c1.83-11-5.66-21.4-16.74-23.22C17.86 5.4 7.39 12.85 5.55 23.85c-1.83 11.01 5.66 21.41 16.74 23.23s21.55-5.62 23.39-16.63"/><path fill="#fc4525" d="M22.31 46.95C11.3 45.14 3.85 34.81 5.68 23.87 7.5 12.94 17.9 5.54 28.92 7.35c11.01 1.81 18.46 12.14 16.63 23.08-1.82 10.94-12.22 18.33-23.24 16.52m-.06.38c11.22 1.84 21.82-5.69 23.68-16.84C47.79 19.35 40.2 8.82 28.98 6.97 17.76 5.13 7.16 12.67 5.3 23.81s5.73 21.67 16.95 23.52"/><path d="M5.68 23.87C7.5 12.94 17.9 5.54 28.92 7.35c11.01 1.81 18.46 12.14 16.63 23.08-1.82 10.94-12.22 18.33-23.24 16.52C11.3 45.14 3.85 34.81 5.68 23.87m40.25 6.62C47.79 19.35 40.2 8.82 28.98 6.97 17.76 5.13 7.16 12.67 5.3 23.81s5.73 21.67 16.95 23.52c11.22 1.84 21.82-5.69 23.68-16.84"/><path fill="#fc4525" d="M22.27 47.2C11.12 45.37 3.58 34.91 5.42 23.83 7.27 12.76 17.81 5.27 28.96 7.1s18.69 12.3 16.85 23.37C43.96 41.55 33.42 49.04 22.27 47.2m-.06.38c11.36 1.87 22.09-5.76 23.97-17.05 1.89-11.28-5.8-21.94-17.16-23.81C17.66 4.86 6.93 12.49 5.05 23.77c-1.89 11.28 5.8 21.94 17.16 23.81"/><path d="M5.42 23.83C7.27 12.76 17.81 5.27 28.96 7.1s18.69 12.3 16.85 23.37C43.96 41.55 33.42 49.04 22.27 47.2 11.12 45.37 3.58 34.91 5.42 23.83m40.76 6.7c1.89-11.28-5.8-21.94-17.16-23.81C17.66 4.86 6.93 12.49 5.05 23.77c-1.89 11.28 5.8 21.94 17.16 23.81s22.09-5.76 23.97-17.05"/><path fill="#fc4525" d="M22.23 47.45C10.94 45.6 3.3 35 5.17 23.79S17.71 4.99 29 6.85 47.93 19.3 46.06 30.51c-1.87 11.22-12.54 18.8-23.83 16.94m-.06.38c11.5 1.89 22.36-5.83 24.27-17.25 1.9-11.43-5.88-22.22-17.38-24.11S6.7 12.31 4.79 23.73c-1.9 11.42 5.88 22.21 17.38 24.1"/><path d="M5.17 23.79C7.04 12.58 17.71 4.99 29 6.85S47.93 19.3 46.06 30.51c-1.87 11.22-12.54 18.8-23.83 16.94C10.94 45.6 3.3 35 5.17 23.79m41.27 6.79c1.9-11.43-5.88-22.22-17.38-24.11S6.7 12.31 4.79 23.73c-1.9 11.42 5.88 22.21 17.38 24.1S44.53 42 46.44 30.58"/><path fill="#fc4524" d="M22.19 47.7C10.76 45.83 3.03 35.1 4.92 23.75S17.61 4.72 29.04 6.6 48.2 19.2 46.31 30.55C44.42 41.91 33.62 49.58 22.19 47.7m-.06.38c11.63 1.91 22.63-5.9 24.56-17.46S40.74 8.14 29.1 6.22C17.47 4.31 6.47 12.13 4.54 23.69s5.95 22.48 17.59 24.39"/><path d="M4.92 23.75C6.81 12.4 17.61 4.72 29.04 6.6S48.2 19.2 46.31 30.55C44.42 41.91 33.62 49.58 22.19 47.7 10.76 45.83 3.03 35.1 4.92 23.75m41.77 6.87c1.93-11.56-5.95-22.48-17.59-24.4C17.47 4.31 6.47 12.13 4.54 23.69s5.95 22.48 17.59 24.39c11.63 1.91 22.63-5.9 24.56-17.46"/><path fill="#fc4524" d="M22.15 47.96C10.58 46.05 2.75 35.2 4.67 23.71 6.58 12.22 17.51 4.45 29.08 6.35s19.4 12.76 17.48 24.25c-1.91 11.49-12.84 19.26-24.41 17.36m-.07.37c11.78 1.94 22.91-5.97 24.86-17.67S40.92 7.91 29.15 5.97C17.37 4.04 6.24 11.95 4.29 23.65c-1.95 11.69 6.02 22.74 17.79 24.68"/><path d="M4.67 23.71C6.58 12.22 17.51 4.45 29.08 6.35s19.4 12.76 17.48 24.25c-1.91 11.49-12.84 19.26-24.41 17.36C10.58 46.05 2.75 35.2 4.67 23.71m42.27 6.95c1.95-11.7-6.02-22.75-17.79-24.69C17.37 4.04 6.24 11.95 4.29 23.65c-1.95 11.69 6.02 22.74 17.79 24.68 11.78 1.94 22.91-5.97 24.86-17.67"/><path fill="#fc4524" d="M22.11 48.21C10.4 46.28 2.48 35.29 4.41 23.67 6.35 12.04 17.42 4.17 29.13 6.1c11.7 1.92 19.62 12.91 17.69 24.54-1.94 11.63-13.01 19.49-24.71 17.57m-.07.37c11.92 1.96 23.18-6.04 25.15-17.88 1.98-11.84-6.08-23.02-18-24.98S6.01 11.77 4.04 23.6c-1.98 11.84 6.08 23.02 18 24.98"/><path d="M4.41 23.67C6.35 12.04 17.42 4.17 29.13 6.1c11.7 1.92 19.62 12.91 17.69 24.54-1.94 11.63-13.01 19.49-24.71 17.57C10.4 46.28 2.48 35.29 4.41 23.67m42.78 7.03c1.98-11.84-6.08-23.02-18-24.98S6.01 11.77 4.04 23.6c-1.98 11.84 6.08 23.02 18 24.98s23.18-6.04 25.15-17.88"/><path fill="#fc4524" d="M22.06 48.46C10.22 46.51 2.2 35.39 4.16 23.62 6.12 11.86 17.32 3.9 29.17 5.85c11.84 1.94 19.86 13.06 17.9 24.83S33.91 50.4 22.06 48.46m-.06.37c12.06 1.99 23.45-6.11 25.45-18.09 1.99-11.97-6.16-23.29-18.22-25.27S5.78 11.59 3.78 23.56C1.79 35.54 9.94 46.85 22 48.83"/><path d="M4.16 23.62C6.12 11.86 17.32 3.9 29.17 5.85c11.84 1.94 19.86 13.06 17.9 24.83S33.91 50.4 22.06 48.46C10.22 46.51 2.2 35.39 4.16 23.62m43.29 7.12c1.99-11.97-6.16-23.29-18.22-25.27S5.78 11.59 3.78 23.56C1.79 35.54 9.94 46.85 22 48.83c12.06 1.99 23.45-6.11 25.45-18.09"/><path fill="#fc4424" d="M22.02 48.71C10.03 46.74 1.93 35.49 3.91 23.58 5.89 11.68 17.22 3.62 29.21 5.6 41.2 7.57 49.3 18.82 47.32 30.72c-1.98 11.91-13.31 19.96-25.3 17.99m-.06.37c12.2 2.01 23.72-6.18 25.74-18.3 2.02-12.11-6.23-23.55-18.43-25.56S5.55 11.41 3.53 23.52s6.23 23.56 18.43 25.56"/><path d="M3.91 23.58C5.89 11.68 17.22 3.62 29.21 5.6 41.2 7.57 49.3 18.82 47.32 30.72c-1.98 11.91-13.31 19.96-25.3 17.99S1.93 35.49 3.91 23.58m43.79 7.2c2.02-12.11-6.23-23.55-18.43-25.56S5.55 11.41 3.53 23.52s6.23 23.56 18.43 25.56c12.2 2.01 23.72-6.18 25.74-18.3"/><path fill="#fc4424" d="M21.98 48.96c-12.13-2-20.33-13.38-18.32-25.42S17.12 3.35 29.25 5.35c12.13 1.99 20.33 13.37 18.32 25.41-2.01 12.05-13.46 20.19-25.59 18.2m-.06.37c12.33 2.03 23.99-6.25 26.03-18.51C49.99 18.57 41.65 7 29.31 4.97 16.98 2.94 5.32 11.23 3.28 23.48s6.3 23.83 18.64 25.85"/><path d="M3.66 23.54C5.67 11.5 17.12 3.35 29.25 5.35c12.13 1.99 20.33 13.37 18.32 25.41-2.01 12.05-13.46 20.19-25.59 18.2-12.13-2-20.33-13.38-18.32-25.42m44.29 7.28C49.99 18.57 41.65 7 29.31 4.97 16.98 2.94 5.32 11.23 3.28 23.48s6.3 23.83 18.64 25.85c12.33 2.03 23.99-6.25 26.03-18.51"/><path fill="#fc4423" d="M21.94 49.21C9.67 47.19 1.37 35.68 3.41 23.5 5.44 11.32 17.03 3.08 29.29 5.09 41.56 7.11 49.86 18.62 47.82 30.8 45.79 42.99 34.2 51.23 21.94 49.21m-.06.37c12.47 2.06 24.26-6.32 26.32-18.71 2.07-12.39-6.37-24.1-18.85-26.15C16.88 2.67 5.09 11.05 3.03 23.44.96 35.83 9.4 47.53 21.88 49.58"/><path d="M3.41 23.5C5.44 11.32 17.03 3.08 29.29 5.09 41.56 7.11 49.86 18.62 47.82 30.8 45.79 42.99 34.2 51.23 21.94 49.21 9.67 47.19 1.37 35.68 3.41 23.5m44.79 7.37c2.07-12.39-6.37-24.1-18.85-26.15C16.88 2.67 5.09 11.05 3.03 23.44.96 35.83 9.4 47.53 21.88 49.58c12.47 2.06 24.26-6.32 26.32-18.71"/><path fill="#fc4423" d="M21.9 49.46c-12.41-2.04-20.8-13.68-18.75-26C5.21 11.14 16.93 2.8 29.33 4.84c12.41 2.04 20.8 13.68 18.75 26C46.02 43.16 34.3 51.5 21.9 49.46m-.07.38c12.62 2.07 24.54-6.41 26.63-18.93C50.54 18.38 42.01 6.54 29.4 4.47 16.78 2.39 4.86 10.87 2.77 23.4.69 35.92 9.22 47.76 21.83 49.84"/><path d="M3.15 23.46C5.21 11.14 16.93 2.8 29.33 4.84c12.41 2.04 20.8 13.68 18.75 26C46.02 43.16 34.3 51.5 21.9 49.46c-12.41-2.04-20.8-13.68-18.75-26m45.31 7.45C50.54 18.38 42.01 6.54 29.4 4.47 16.78 2.39 4.86 10.87 2.77 23.4.69 35.92 9.22 47.76 21.83 49.84c12.62 2.07 24.54-6.41 26.63-18.93"/><path fill="#fc4423" d="M21.85 49.71C9.31 47.65.82 35.88 2.9 23.42S16.83 2.53 29.38 4.59c12.54 2.07 21.03 13.84 18.95 26.3-2.08 12.45-13.93 20.88-26.48 18.82m-.06.38c12.76 2.09 24.81-6.48 26.92-19.14 2.11-12.67-6.52-24.64-19.27-26.73-12.76-2.1-24.81 6.47-26.92 19.13C.41 36.02 9.04 47.99 21.79 50.09"/><path d="M2.9 23.42C4.98 10.96 16.83 2.53 29.38 4.59c12.54 2.07 21.03 13.84 18.95 26.3-2.08 12.45-13.93 20.88-26.48 18.82C9.31 47.65.82 35.88 2.9 23.42m45.81 7.53c2.11-12.67-6.52-24.64-19.27-26.73-12.76-2.1-24.81 6.47-26.92 19.13C.41 36.02 9.04 47.99 21.79 50.09c12.76 2.09 24.81-6.48 26.92-19.14"/><path fill="#fc4423" d="M21.81 49.96C9.13 47.87.55 35.97 2.65 23.38c2.1-12.6 14.08-21.12 26.77-19.04C42.1 6.43 50.68 18.33 48.58 30.93c-2.1 12.59-14.08 21.12-26.77 19.03m-.06.38c12.89 2.12 25.08-6.55 27.21-19.35 2.14-12.8-6.59-24.9-19.48-27.02S4.4 10.51 2.27 23.31C.13 36.12 8.86 48.22 21.75 50.34"/><path d="M2.65 23.38c2.1-12.6 14.08-21.12 26.77-19.04C42.1 6.43 50.68 18.33 48.58 30.93c-2.1 12.59-14.08 21.12-26.77 19.03C9.13 47.87.55 35.97 2.65 23.38m46.31 7.61c2.14-12.8-6.59-24.9-19.48-27.02S4.4 10.51 2.27 23.31C.13 36.12 8.86 48.22 21.75 50.34s25.08-6.55 27.21-19.35"/><path fill="#fc4423" d="M21.77 50.21C8.95 48.1.27 36.07 2.4 23.33 4.52 10.6 16.64 1.98 29.46 4.09s21.5 14.14 19.37 26.88C46.71 43.7 34.59 52.32 21.77 50.21m-.06.38c13.03 2.14 25.35-6.62 27.5-19.56 2.16-12.94-6.66-25.17-19.69-27.31-13.03-2.15-25.35 6.61-27.5 19.55-2.16 12.94 6.66 25.17 19.69 27.32"/><path d="M2.4 23.33C4.52 10.6 16.64 1.98 29.46 4.09s21.5 14.14 19.37 26.88C46.71 43.7 34.59 52.32 21.77 50.21S.27 36.07 2.4 23.33m46.81 7.7c2.16-12.94-6.66-25.17-19.69-27.31-13.03-2.15-25.35 6.61-27.5 19.55-2.16 12.94 6.66 25.17 19.69 27.32 13.03 2.14 25.35-6.62 27.5-19.56"/><path fill="#fc4423" d="M21.73 50.46C8.77 48.33 0 36.17 2.14 23.29 4.29 10.42 16.54 1.71 29.5 3.84s21.73 14.3 19.59 27.17c-2.15 12.87-14.4 21.58-27.36 19.45m-.06.38c13.17 2.16 25.61-6.69 27.8-19.77 2.18-13.08-6.73-25.44-19.91-27.6C16.39 1.3 3.95 10.15 1.76 23.23-.42 36.31 8.49 48.67 21.67 50.84"/><path d="M2.14 23.29C4.29 10.42 16.54 1.71 29.5 3.84s21.73 14.3 19.59 27.17c-2.15 12.87-14.4 21.58-27.36 19.45S0 36.17 2.14 23.29m47.33 7.78c2.18-13.08-6.73-25.44-19.91-27.6C16.39 1.3 3.95 10.15 1.76 23.23-.42 36.31 8.49 48.67 21.67 50.84c13.17 2.16 25.61-6.69 27.8-19.77"/><path fill="#fc4322" d="M21.69 50.71C8.58 48.56-.28 36.26 1.89 23.25S16.44 1.44 29.54 3.59c13.11 2.16 21.97 14.45 19.8 27.46S34.79 52.87 21.69 50.71m-.07.38c13.32 2.19 25.89-6.76 28.1-19.98 2.2-13.22-6.8-25.71-20.11-27.9C16.29 1.03 3.72 9.97 1.51 23.19c-2.2 13.22 6.8 25.71 20.11 27.9"/><path d="M1.89 23.25C4.06 10.24 16.44 1.44 29.54 3.59c13.11 2.16 21.97 14.45 19.8 27.46S34.79 52.87 21.69 50.71C8.58 48.56-.28 36.26 1.89 23.25m47.83 7.86c2.2-13.22-6.8-25.71-20.11-27.9C16.29 1.03 3.72 9.97 1.51 23.19c-2.2 13.22 6.8 25.71 20.11 27.9 13.32 2.19 25.89-6.76 28.1-19.98"/><path fill="#fc4322" d="M21.65 50.96C8.4 48.79-.55 36.36 1.64 23.21S16.34 1.16 29.58 3.34c13.25 2.18 22.2 14.6 20.01 27.75s-14.7 22.05-27.94 19.87m-.07.38c13.45 2.21 26.16-6.83 28.39-20.18C52.2 17.8 43.1 5.18 29.65 2.96 16.2.75 3.49 9.79 1.26 23.15s6.87 25.98 20.32 28.19"/><path d="M1.64 23.21C3.83 10.06 16.34 1.16 29.58 3.34c13.25 2.18 22.2 14.6 20.01 27.75s-14.7 22.05-27.94 19.87C8.4 48.79-.55 36.36 1.64 23.21m48.33 7.95C52.2 17.8 43.1 5.18 29.65 2.96 16.2.75 3.49 9.79 1.26 23.15s6.87 25.98 20.32 28.19 26.16-6.83 28.39-20.18"/><path fill="#fc4322" d="M21.6 51.21C8.22 49.01-.83 36.46 1.39 23.17 3.6 9.88 16.25.89 29.63 3.09s22.43 14.76 20.21 28.05C47.63 44.42 34.98 53.41 21.6 51.21m-.06.38c13.59 2.23 26.43-6.9 28.68-20.39 2.25-13.5-6.94-26.25-20.53-28.49C16.1.48 3.26 9.61 1.01 23.11-1.24 36.6 7.95 49.36 21.54 51.59"/><path d="M1.39 23.17C3.6 9.88 16.25.89 29.63 3.09s22.43 14.76 20.21 28.05C47.63 44.42 34.98 53.41 21.6 51.21S-.83 36.46 1.39 23.17m48.83 8.03c2.25-13.5-6.94-26.25-20.53-28.49C16.1.48 3.26 9.61 1.01 23.11-1.24 36.6 7.95 49.36 21.54 51.59s26.43-6.9 28.68-20.39"/><path fill="#fc4322" d="M21.56 51.46C8.04 49.24-1.1 36.55 1.13 23.13 3.37 9.7 16.15.62 29.67 2.84S52.33 17.75 50.1 31.18C47.86 44.6 35.08 53.69 21.56 51.46m-.06.38c13.73 2.26 26.7-6.97 28.97-20.6C52.75 17.6 43.46 4.72 29.73 2.46 16 .21 3.03 9.43.76 23.06-1.52 36.7 7.77 49.58 21.5 51.84"/><path d="M1.13 23.13C3.37 9.7 16.15.62 29.67 2.84S52.33 17.75 50.1 31.18C47.86 44.6 35.08 53.69 21.56 51.46 8.04 49.24-1.1 36.55 1.13 23.13m49.34 8.11C52.75 17.6 43.46 4.72 29.73 2.46 16 .21 3.03 9.43.76 23.06-1.52 36.7 7.77 49.58 21.5 51.84s26.7-6.97 28.97-20.6"/><path fill="#fc4322" d="M21.52 51.72C7.86 49.47-1.38 36.65.88 23.08 3.14 9.52 16.05.34 29.71 2.59c13.66 2.24 22.9 15.06 20.64 28.63-2.26 13.56-15.17 22.74-28.83 20.5m-.06.37c13.87 2.28 26.97-7.04 29.27-20.81 2.29-13.77-7.09-26.79-20.96-29.07S2.8 9.25.5 23.02C-1.79 36.8 7.59 49.81 21.46 52.09"/><path d="M.88 23.08C3.14 9.52 16.05.34 29.71 2.59c13.66 2.24 22.9 15.06 20.64 28.63-2.26 13.56-15.17 22.74-28.83 20.5C7.86 49.47-1.38 36.65.88 23.08m49.85 8.2c2.29-13.77-7.09-26.79-20.96-29.07S2.8 9.25.5 23.02C-1.79 36.8 7.59 49.81 21.46 52.09s26.97-7.04 29.27-20.81"/><path fill="#fc4322" d="M21.48 51.97C7.68 49.7-1.66 36.75.63 23.04 2.91 9.34 15.95.07 29.75 2.34S52.89 17.56 50.6 31.26c-2.28 13.7-15.32 22.97-29.12 20.71m-.06.37c14 2.3 27.24-7.11 29.56-21.02S43.82 4.26 29.81 1.96C15.81-.34 2.57 9.07.25 22.98s7.16 27.06 21.17 29.36"/><path d="M.63 23.04C2.91 9.34 15.95.07 29.75 2.34S52.89 17.56 50.6 31.26c-2.28 13.7-15.32 22.97-29.12 20.71C7.68 49.7-1.66 36.75.63 23.04m50.35 8.28C53.3 17.41 43.82 4.26 29.81 1.96 15.81-.34 2.57 9.07.25 22.98s7.16 27.06 21.17 29.36c14 2.3 27.24-7.11 29.56-21.02"/><path fill="#fc4321" d="M21.44 52.22C7.5 49.92-1.93 36.84.38 23 2.68 9.16 15.85-.21 29.79 2.09 43.73 4.38 53.16 17.46 50.85 31.3c-2.3 13.84-15.47 23.21-29.41 20.92m-.07.37c14.15 2.33 27.52-7.18 29.86-21.23S44 4.04 29.86 1.71C15.71-.62 2.34 8.89 0 22.94s7.23 27.33 21.37 29.65"/><path d="M.38 23C2.68 9.16 15.85-.21 29.79 2.09 43.73 4.38 53.16 17.46 50.85 31.3c-2.3 13.84-15.47 23.21-29.41 20.92C7.5 49.92-1.93 36.84.38 23m50.85 8.36C53.57 17.31 44 4.04 29.86 1.71 15.71-.62 2.34 8.89 0 22.94s7.23 27.33 21.37 29.65c14.15 2.33 27.52-7.18 29.86-21.23"/><path fill="#fc4221" d="M21.39 52.47C7.32 50.15-2.21 36.94.12 22.96 2.46 8.98 15.76-.48 29.84 1.84c14.07 2.31 23.6 15.52 21.27 29.5-2.34 13.98-15.64 23.44-29.72 21.13m-.06.37c14.29 2.35 27.79-7.25 30.15-21.43 2.37-14.19-7.29-27.6-21.58-29.95S2.11 8.71-.25 22.9c-2.37 14.19 7.29 27.59 21.58 29.94"/><path d="M.12 22.96C2.46 8.98 15.76-.48 29.84 1.84c14.07 2.31 23.6 15.52 21.27 29.5-2.34 13.98-15.64 23.44-29.72 21.13C7.32 50.15-2.21 36.94.12 22.96m51.36 8.45c2.37-14.19-7.29-27.6-21.58-29.95S2.11 8.71-.25 22.9c-2.37 14.19 7.29 27.59 21.58 29.94s27.79-7.25 30.15-21.43"/><path fill="#fc4221" d="M21.35 52.72C7.14 50.38-2.48 37.04-.13 22.92 2.23 8.8 15.66-.75 29.88 1.59c14.21 2.33 23.83 15.67 21.48 29.79C49 45.5 35.57 55.06 21.35 52.72m-.06.37c14.43 2.38 28.06-7.32 30.45-21.64 2.39-14.33-7.37-27.87-21.8-30.24S1.88 8.53-.51 22.86c-2.39 14.32 7.37 27.86 21.8 30.23"/><path d="M-.13 22.92C2.23 8.8 15.66-.75 29.88 1.59c14.21 2.33 23.83 15.67 21.48 29.79C49 45.5 35.57 55.06 21.35 52.72 7.14 50.38-2.48 37.04-.13 22.92m51.87 8.53c2.39-14.33-7.37-27.87-21.8-30.24S1.88 8.53-.51 22.86c-2.39 14.32 7.37 27.86 21.8 30.23 14.43 2.38 28.06-7.32 30.45-21.64"/><path fill="#fc4221" d="M21.31 52.97C6.95 50.61-2.76 37.14-.38 22.88S15.56-1.03 29.92 1.33c14.36 2.37 24.07 15.84 21.69 30.1-2.38 14.25-15.94 23.9-30.3 21.54m-.06.37c14.56 2.4 28.33-7.39 30.74-21.85C54.4 17.02 44.55 3.35 29.98.96 15.42-1.44 1.65 8.35-.76 22.81c-2.41 14.47 7.44 28.14 22.01 30.53"/><path d="M-.38 22.88C2 8.62 15.56-1.03 29.92 1.33c14.36 2.37 24.07 15.84 21.69 30.1-2.38 14.25-15.94 23.9-30.3 21.54S-2.76 37.14-.38 22.88m52.37 8.61C54.4 17.02 44.55 3.35 29.98.96 15.42-1.44 1.65 8.35-.76 22.81c-2.41 14.47 7.44 28.14 22.01 30.53 14.56 2.4 28.33-7.39 30.74-21.85"/><path fill="#fc4221" d="M21.27 53.22C6.77 50.84-3.03 37.23-.63 22.84 1.77 8.44 15.46-1.3 29.96 1.08c14.5 2.39 24.3 15.99 21.9 30.39-2.4 14.39-16.09 24.13-30.59 21.75m-.06.37c14.7 2.42 28.6-7.46 31.03-22.06 2.44-14.6-7.51-28.4-22.22-30.82-14.7-2.42-28.6 7.46-31.03 22.06-2.44 14.61 7.51 28.41 22.22 30.82"/><path d="M-.63 22.84C1.77 8.44 15.46-1.3 29.96 1.08c14.5 2.39 24.3 15.99 21.9 30.39-2.4 14.39-16.09 24.13-30.59 21.75S-3.03 37.23-.63 22.84m52.87 8.69c2.44-14.6-7.51-28.4-22.22-30.82-14.7-2.42-28.6 7.46-31.03 22.06-2.44 14.61 7.51 28.41 22.22 30.82 14.7 2.42 28.6-7.46 31.03-22.06"/><path fill="#fc4221" d="M21.23 53.47C6.59 51.06-3.31 37.33-.89 22.79 1.54 8.26 15.37-1.57 30 .83c14.64 2.41 24.54 16.14 22.12 30.68-2.43 14.53-16.26 24.37-30.89 21.96m-.07.38c14.85 2.44 28.88-7.54 31.33-22.28C54.95 16.83 44.91 2.9 30.07.46 15.22-1.98 1.19 7.99-1.26 22.73-3.72 37.47 6.32 51.4 21.16 53.85"/><path d="M-.89 22.79C1.54 8.26 15.37-1.57 30 .83c14.64 2.41 24.54 16.14 22.12 30.68-2.43 14.53-16.26 24.37-30.89 21.96C6.59 51.06-3.31 37.33-.89 22.79m53.38 8.78C54.95 16.83 44.91 2.9 30.07.46 15.22-1.98 1.19 7.99-1.26 22.73-3.72 37.47 6.32 51.4 21.16 53.85c14.85 2.44 28.88-7.54 31.33-22.28"/><path fill="#fc4220" d="M21.19 53.72C6.41 51.29-3.58 37.43-1.14 22.75 1.31 8.08 15.27-1.85 30.04.58c14.78 2.43 24.77 16.3 22.33 30.97-2.45 14.67-16.41 24.6-31.18 22.17m-.07.38c14.99 2.46 29.15-7.61 31.63-22.49S45.09 2.67 30.11.21C15.12-2.26.96 7.81-1.52 22.69S6.14 51.63 21.12 54.1"/><path d="M-1.14 22.75C1.31 8.08 15.27-1.85 30.04.58c14.78 2.43 24.77 16.3 22.33 30.97-2.45 14.67-16.41 24.6-31.18 22.17C6.41 51.29-3.58 37.43-1.14 22.75m53.89 8.86C55.23 16.73 45.09 2.67 30.11.21 15.12-2.26.96 7.81-1.52 22.69S6.14 51.63 21.12 54.1c14.99 2.46 29.15-7.61 31.63-22.49"/><path fill="#fc4220" d="M21.14 53.97c-14.91-2.45-25-16.45-22.53-31.26S15.17-2.12 30.09.33c14.91 2.45 25 16.45 22.53 31.26S36.06 56.42 21.14 53.97m-.06.38C36.2 56.83 50.49 46.67 53 31.65 55.5 16.63 45.27 2.44 30.15-.04 15.03-2.53.74 7.63-1.77 22.65c-2.5 15.02 7.73 29.21 22.85 31.7"/><path d="M-1.39 22.71C1.08 7.9 15.17-2.12 30.09.33c14.91 2.45 25 16.45 22.53 31.26S36.06 56.42 21.14 53.97c-14.91-2.45-25-16.45-22.53-31.26M53 31.65C55.5 16.63 45.27 2.44 30.15-.04 15.03-2.53.74 7.63-1.77 22.65c-2.5 15.02 7.73 29.21 22.85 31.7C36.2 56.83 50.49 46.67 53 31.65"/><path fill="#fc4220" d="M21.1 54.22C6.05 51.75-4.13 37.62-1.64 22.67S15.07-2.39 30.13.08c15.05 2.48 25.23 16.6 22.74 31.55S36.16 56.7 21.1 54.22m-.06.38c15.26 2.51 29.68-7.75 32.21-22.9 2.53-15.16-7.8-29.48-23.06-31.99S.51 7.45-2.02 22.61s7.8 29.48 23.06 31.99"/><path d="M-1.64 22.67C.85 7.72 15.07-2.39 30.13.08c15.05 2.48 25.23 16.6 22.74 31.55S36.16 56.7 21.1 54.22C6.05 51.75-4.13 37.62-1.64 22.67m54.89 9.03c2.53-15.16-7.8-29.48-23.06-31.99S.51 7.45-2.02 22.61s7.8 29.48 23.06 31.99 29.68-7.75 32.21-22.9"/><path fill="#fc4120" d="M21.06 54.47C5.87 51.97-4.41 37.72-1.89 22.63.62 7.54 14.98-2.67 30.17-.17s25.47 16.76 22.95 31.84c-2.51 15.09-16.87 25.3-32.06 22.8m-.06.38c15.4 2.53 29.95-7.82 32.5-23.11 2.55-15.3-7.87-29.75-23.27-32.29C14.83-3.08.28 7.27-2.27 22.57-4.82 37.86 5.6 52.32 21 54.85"/><path d="M-1.89 22.63C.62 7.54 14.98-2.67 30.17-.17s25.47 16.76 22.95 31.84c-2.51 15.09-16.87 25.3-32.06 22.8S-4.41 37.72-1.89 22.63m55.39 9.11c2.55-15.3-7.87-29.75-23.27-32.29C14.83-3.08.28 7.27-2.27 22.57-4.82 37.86 5.6 52.32 21 54.85s29.95-7.82 32.5-23.11"/><path fill="#fc4120" d="M21.02 54.72C5.69 52.2-4.69 37.81-2.15 22.59.39 7.36 14.88-2.94 30.21-.42s25.71 16.91 23.17 32.14c-2.54 15.22-17.03 25.52-32.36 23m-.06.38c15.54 2.55 30.22-7.89 32.8-23.32C56.33 16.34 45.82 1.76 30.27-.8 14.73-3.35.05 7.09-2.53 22.52-5.1 37.96 5.41 52.54 20.96 55.1"/><path d="M-2.15 22.59C.39 7.36 14.88-2.94 30.21-.42s25.71 16.91 23.17 32.14c-2.54 15.22-17.03 25.52-32.36 23S-4.69 37.81-2.15 22.59m55.91 9.19C56.33 16.34 45.82 1.76 30.27-.8 14.73-3.35.05 7.09-2.53 22.52-5.1 37.96 5.41 52.54 20.96 55.1c15.54 2.55 30.22-7.89 32.8-23.32"/><path fill="#fc4120" d="M20.98 54.97C5.5 52.43-4.96 37.91-2.4 22.55.16 7.18 14.78-3.21 30.25-.67c15.48 2.54 25.94 17.06 23.38 32.43-2.56 15.36-17.18 25.76-32.65 23.21m-.07.38c15.69 2.58 30.5-7.96 33.1-23.53C56.6 16.25 46 1.53 30.32-1.05 14.63-3.62-.18 6.91-2.78 22.48c-2.59 15.58 8.01 30.29 23.69 32.87"/><path d="M-2.4 22.55C.16 7.18 14.78-3.21 30.25-.67c15.48 2.54 25.94 17.06 23.38 32.43-2.56 15.36-17.18 25.76-32.65 23.21C5.5 52.43-4.96 37.91-2.4 22.55m56.41 9.27C56.6 16.25 46 1.53 30.32-1.05 14.63-3.62-.18 6.91-2.78 22.48c-2.59 15.58 8.01 30.29 23.69 32.87 15.69 2.58 30.5-7.96 33.1-23.53"/><path fill="#fc411f" d="M20.94 55.22C5.32 52.66-5.24 38.01-2.65 22.5-.07 7 14.68-3.49 30.29-.92 45.91 1.65 56.47 16.3 53.88 31.8 51.3 47.3 36.55 57.79 20.94 55.22m-.07.38c15.82 2.6 30.77-8.03 33.39-23.74S46.18 1.3 30.36-1.3-.41 6.73-3.03 22.44 5.05 53 20.87 55.6"/><path d="M-2.65 22.5C-.07 7 14.68-3.49 30.29-.92 45.91 1.65 56.47 16.3 53.88 31.8 51.3 47.3 36.55 57.79 20.94 55.22 5.32 52.66-5.24 38.01-2.65 22.5m56.91 9.36C56.88 16.15 46.18 1.3 30.36-1.3S-.41 6.73-3.03 22.44 5.05 53 20.87 55.6s30.77-8.03 33.39-23.74"/><path fill="#fc411f" d="M20.89 55.47C5.14 52.88-5.51 38.1-2.9 22.46-.3 6.82 14.59-3.76 30.34-1.17s26.4 17.37 23.79 33.01c-2.6 15.64-17.49 26.22-33.24 23.63m-.06.38c15.96 2.62 31.04-8.1 33.68-23.95C57.16 16.05 46.36 1.08 30.4-1.55 14.44-4.17-.64 6.55-3.28 22.4c-2.65 15.85 8.15 30.83 24.11 33.45"/><path d="M-2.9 22.46C-.3 6.82 14.59-3.76 30.34-1.17s26.4 17.37 23.79 33.01c-2.6 15.64-17.49 26.22-33.24 23.63S-5.51 38.1-2.9 22.46m57.41 9.44C57.16 16.05 46.36 1.08 30.4-1.55 14.44-4.17-.64 6.55-3.28 22.4c-2.65 15.85 8.15 30.83 24.11 33.45s31.04-8.1 33.68-23.95"/><path fill="#fc411f" d="M20.85 55.73C4.96 53.11-5.79 38.2-3.16 22.42S14.49-4.04 30.38-1.42c15.89 2.61 26.64 17.52 24.01 33.3S36.74 58.34 20.85 55.73m-.06.37c16.1 2.65 31.31-8.17 33.98-24.16C57.43 15.96 46.54.85 30.44-1.8S-.87 6.37-3.54 22.36C-6.2 38.35 4.69 53.45 20.79 56.1"/><path d="M-3.16 22.42C-.53 6.64 14.49-4.04 30.38-1.42c15.89 2.61 26.64 17.52 24.01 33.3S36.74 58.34 20.85 55.73C4.96 53.11-5.79 38.2-3.16 22.42m57.93 9.52C57.43 15.96 46.54.85 30.44-1.8S-.87 6.37-3.54 22.36C-6.2 38.35 4.69 53.45 20.79 56.1s31.31-8.17 33.98-24.16"/><path fill="#fc411f" d="M20.81 55.98C4.78 53.34-6.06 38.3-3.41 22.38S14.39-4.31 30.42-1.67C46.45.96 57.29 16 54.64 31.92s-17.8 26.69-33.83 24.06m-.06.37c16.24 2.67 31.58-8.24 34.27-24.36C57.71 15.86 46.72.62 30.48-2.05S-1.1 6.19-3.79 22.32c-2.69 16.12 8.3 31.36 24.54 34.03"/><path d="M-3.41 22.38C-.76 6.46 14.39-4.31 30.42-1.67 46.45.96 57.29 16 54.64 31.92s-17.8 26.69-33.83 24.06C4.78 53.34-6.06 38.3-3.41 22.38m58.43 9.61C57.71 15.86 46.72.62 30.48-2.05S-1.1 6.19-3.79 22.32c-2.69 16.12 8.3 31.36 24.54 34.03s31.58-8.24 34.27-24.36"/><path fill="#fc401f" d="M20.77 56.23C4.6 53.57-6.34 38.4-3.66 22.34S14.29-4.58 30.46-1.92s27.11 17.83 24.43 33.89c-2.68 16.05-17.95 26.92-34.12 24.26m-.06.37c16.37 2.7 31.85-8.31 34.56-24.57C57.98 15.76 46.9.39 30.52-2.3 14.15-4.99-1.33 6.01-4.04 22.28-6.75 38.54 4.33 53.91 20.71 56.6"/><path d="M-3.66 22.34C-.98 6.28 14.29-4.58 30.46-1.92s27.11 17.83 24.43 33.89c-2.68 16.05-17.95 26.92-34.12 24.26S-6.34 38.4-3.66 22.34m58.93 9.69C57.98 15.76 46.9.39 30.52-2.3 14.15-4.99-1.33 6.01-4.04 22.28-6.75 38.54 4.33 53.91 20.71 56.6c16.37 2.7 31.85-8.31 34.56-24.57"/><path fill="#fc401f" d="M20.73 56.48C4.42 53.8-6.61 38.49-3.91 22.3-1.21 6.1 14.2-4.86 30.5-2.17 46.81.51 57.84 15.81 55.14 32.01c-2.7 16.19-18.11 27.15-34.41 24.47m-.07.37c16.52 2.72 32.13-8.38 34.86-24.78 2.74-16.4-8.44-31.9-24.95-34.62C14.05-5.27-1.56 5.83-4.29 22.23c-2.74 16.41 8.44 31.91 24.95 34.62"/><path d="M-3.91 22.3C-1.21 6.1 14.2-4.86 30.5-2.17 46.81.51 57.84 15.81 55.14 32.01c-2.7 16.19-18.11 27.15-34.41 24.47C4.42 53.8-6.61 38.49-3.91 22.3m59.43 9.77c2.74-16.4-8.44-31.9-24.95-34.62C14.05-5.27-1.56 5.83-4.29 22.23c-2.74 16.41 8.44 31.91 24.95 34.62 16.52 2.72 32.13-8.38 34.86-24.78"/><path fill="#fc401e" d="M20.68 56.73C4.24 54.02-6.89 38.59-4.17 22.25-1.44 5.92 14.1-5.13 30.55-2.42 46.99.28 58.12 15.71 55.4 32.05c-2.73 16.33-18.27 27.38-34.72 24.68m-.06.37c16.66 2.74 32.4-8.45 35.16-24.99C58.53 15.57 47.27-.06 30.61-2.8S-1.79 5.65-4.54 22.19C-7.3 38.73 3.96 54.37 20.62 57.1"/><path d="M-4.17 22.25C-1.44 5.92 14.1-5.13 30.55-2.42 46.99.28 58.12 15.71 55.4 32.05c-2.73 16.33-18.27 27.38-34.72 24.68C4.24 54.02-6.89 38.59-4.17 22.25m59.95 9.86C58.53 15.57 47.27-.06 30.61-2.8S-1.79 5.65-4.54 22.19C-7.3 38.73 3.96 54.37 20.62 57.1c16.66 2.74 32.4-8.45 35.16-24.99"/><path fill="#fc401e" d="M20.64 56.98C4.06 54.25-7.16 38.69-4.42 22.21-1.67 5.74 14-5.4 30.59-2.68c16.58 2.73 27.8 18.3 25.06 34.77-2.75 16.47-18.42 27.62-35.01 24.89m-.06.37c16.8 2.77 32.67-8.52 35.45-25.2S47.45-.29 30.65-3.05-2.02 5.47-4.8 22.15s8.58 32.44 25.38 35.2"/><path d="M-4.42 22.21C-1.67 5.74 14-5.4 30.59-2.68c16.58 2.73 27.8 18.3 25.06 34.77-2.75 16.47-18.42 27.62-35.01 24.89C4.06 54.25-7.16 38.69-4.42 22.21m60.45 9.94c2.78-16.68-8.58-32.44-25.38-35.2S-2.02 5.47-4.8 22.15s8.58 32.44 25.38 35.2c16.8 2.77 32.67-8.52 35.45-25.2"/><path fill="#fc401e" d="M20.6 57.23C3.87 54.48-7.44 38.78-4.67 22.17S13.9-5.68 30.63-2.93 58.67 15.52 55.9 32.13s-18.57 27.85-35.3 25.1m-.06.38c16.93 2.78 32.94-8.6 35.74-25.42S47.63-.52 30.69-3.3C13.76-6.09-2.25 5.29-5.05 22.11s8.65 32.71 25.59 35.5"/><path d="M-4.67 22.17C-1.9 5.56 13.9-5.68 30.63-2.93S58.67 15.52 55.9 32.13s-18.57 27.85-35.3 25.1S-7.44 38.78-4.67 22.17m60.95 10.02C59.08 15.37 47.63-.52 30.69-3.3 13.76-6.09-2.25 5.29-5.05 22.11s8.65 32.71 25.59 35.5c16.93 2.78 32.94-8.6 35.74-25.42"/><path fill="#fc401e" d="M20.56 57.48C3.69 54.71-7.72 38.88-4.92 22.13-2.13 5.38 13.81-5.95 30.67-3.18 47.54-.4 58.95 15.42 56.15 32.17c-2.79 16.75-18.73 28.08-35.59 25.31m-.06.38c17.07 2.8 33.21-8.67 36.03-25.62 2.83-16.96-8.72-32.99-25.8-35.79C13.66-6.36-2.48 5.11-5.3 22.07c-2.83 16.96 8.72 32.98 25.8 35.79"/><path d="M-4.92 22.13C-2.13 5.38 13.81-5.95 30.67-3.18 47.54-.4 58.95 15.42 56.15 32.17c-2.79 16.75-18.73 28.08-35.59 25.31C3.69 54.71-7.72 38.88-4.92 22.13m61.45 10.11c2.83-16.96-8.72-32.99-25.8-35.79C13.66-6.36-2.48 5.11-5.3 22.07c-2.83 16.96 8.72 32.98 25.8 35.79 17.07 2.8 33.21-8.67 36.03-25.62"/><path fill="#fc401e" d="M20.52 57.73C3.51 54.93-7.99 38.98-5.18 22.09-2.36 5.2 13.71-6.22 30.71-3.43c17.01 2.8 28.51 18.76 25.7 35.64-2.82 16.89-18.89 28.32-35.89 25.52m-.07.38c17.22 2.83 33.48-8.74 36.33-25.83 2.85-17.1-8.79-33.25-26-36.08C13.56-6.63-2.7 4.93-5.55 22.03c-2.85 17.09 8.79 33.25 26 36.08"/><path d="M-5.18 22.09C-2.36 5.2 13.71-6.22 30.71-3.43c17.01 2.8 28.51 18.76 25.7 35.64-2.82 16.89-18.89 28.32-35.89 25.52-17.01-2.8-28.51-18.75-25.7-35.64m61.96 10.19c2.85-17.1-8.79-33.25-26-36.08C13.56-6.63-2.7 4.93-5.55 22.03c-2.85 17.09 8.79 33.25 26 36.08 17.22 2.83 33.48-8.74 36.33-25.83"/><path fill="#fc401e" d="M20.48 57.98C3.33 55.16-8.27 39.07-5.43 22.05-2.59 5.02 13.61-6.5 30.75-3.68 47.9-.86 59.5 15.23 56.66 32.26 53.82 49.28 37.62 60.8 20.48 57.98m-.07.38c17.36 2.85 33.75-8.81 36.63-26.04C59.91 15.08 48.17-1.2 30.82-4.05 13.46-6.91-2.93 4.75-5.81 21.99-8.68 39.22 3.06 55.5 20.41 58.36"/><path d="M-5.43 22.05C-2.59 5.02 13.61-6.5 30.75-3.68 47.9-.86 59.5 15.23 56.66 32.26 53.82 49.28 37.62 60.8 20.48 57.98 3.33 55.16-8.27 39.07-5.43 22.05m62.47 10.27C59.91 15.08 48.17-1.2 30.82-4.05 13.46-6.91-2.93 4.75-5.81 21.99-8.68 39.22 3.06 55.5 20.41 58.36c17.36 2.85 33.75-8.81 36.63-26.04"/><path fill="#fc3f1d" d="M20.43 58.23C3.15 55.39-8.54 39.17-5.68 22.01-2.82 4.84 13.51-6.77 30.8-3.93 48.08-1.09 59.77 15.13 56.91 32.3c-2.86 17.16-19.19 28.77-36.48 25.93m-.06.38c17.49 2.87 34.02-8.88 36.92-26.25S48.35-1.43 30.86-4.3C13.37-7.18-3.16 4.57-6.06 21.94c-2.9 17.38 8.94 33.79 26.43 36.67"/><path d="M-5.68 22.01C-2.82 4.84 13.51-6.77 30.8-3.93 48.08-1.09 59.77 15.13 56.91 32.3c-2.86 17.16-19.19 28.77-36.48 25.93C3.15 55.39-8.54 39.17-5.68 22.01m62.97 10.35c2.9-17.37-8.94-33.79-26.43-36.66C13.37-7.18-3.16 4.57-6.06 21.94c-2.9 17.38 8.94 33.79 26.43 36.67 17.49 2.87 34.02-8.88 36.92-26.25"/><path fill="#fc3f1d" d="M20.39 58.48C2.97 55.62-8.82 39.27-5.93 21.96c2.88-17.3 19.34-29 36.77-26.14 17.42 2.87 29.21 19.22 26.32 36.52-2.88 17.3-19.34 29.01-36.77 26.14m-.06.38c17.63 2.9 34.29-8.95 37.21-26.46S48.53-1.66 30.9-4.56C13.27-7.45-3.39 4.39-6.31 21.9S2.7 55.96 20.33 58.86"/><path d="M-5.93 21.96c2.88-17.3 19.34-29 36.77-26.14 17.42 2.87 29.21 19.22 26.32 36.52-2.88 17.3-19.34 29.01-36.77 26.14C2.97 55.62-8.82 39.27-5.93 21.96M57.54 32.4C60.46 14.89 48.53-1.66 30.9-4.56 13.27-7.45-3.39 4.39-6.31 21.9S2.7 55.96 20.33 58.86s34.29-8.95 37.21-26.46"/><path fill="#fc3f1d" d="M20.35 58.73C2.79 55.85-9.09 39.36-6.19 21.92-3.28 4.48 13.32-7.32 30.88-4.43s29.44 19.37 26.54 36.81c-2.91 17.44-19.51 29.24-37.07 26.35m-.06.38c17.77 2.92 34.56-9.02 37.5-26.67 2.95-17.65-9.08-34.32-26.85-37.25C13.17-7.73-3.62 4.21-6.56 21.86c-2.95 17.65 9.08 34.33 26.85 37.25"/><path d="M-6.19 21.92C-3.28 4.48 13.32-7.32 30.88-4.43s29.44 19.37 26.54 36.81c-2.91 17.44-19.51 29.24-37.07 26.35C2.79 55.85-9.09 39.36-6.19 21.92m63.98 10.52c2.95-17.65-9.08-34.32-26.85-37.25C13.17-7.73-3.62 4.21-6.56 21.86c-2.95 17.65 9.08 34.33 26.85 37.25s34.56-9.02 37.5-26.67"/><path fill="#fc3f1d" d="M20.31 58.98C2.61 56.07-9.37 39.46-6.44 21.88S13.22-7.59 30.92-4.68s29.68 19.52 26.75 37.1-19.66 29.47-37.36 26.56m-.04.25c17.84 2.94 34.7-9.05 37.65-26.77S48.81-2 30.96-4.93C13.12-7.86-3.74 4.12-6.69 21.84S2.42 56.3 20.27 59.23"/><path d="M-6.44 21.88C-3.51 4.3 13.22-7.59 30.92-4.68s29.68 19.52 26.75 37.1-19.66 29.47-37.36 26.56-29.68-19.52-26.75-37.1m64.36 10.58C60.87 14.74 48.81-2 30.96-4.93 13.12-7.86-3.74 4.12-6.69 21.84S2.42 56.3 20.27 59.23c17.84 2.94 34.7-9.05 37.65-26.77"/></g><mask id="d" width="5.159" height="13.551" x="24.406" y="7.478" mask-type="alpha" maskUnits="userSpaceOnUse"><path fill="#000" d="m27.51 21.02-.83-.14c-.45-.07-1.24-.19-2.28-.34l2.03-11.75c.14-.87.97-1.44 1.83-1.3a1.6 1.6 0 0 1 1.28 1.84z"/></mask><g mask="url(#d)"><path fill="url(#e)" d="m27.51 21.02-.83-.14c-.45-.07-1.24-.19-2.28-.34l2.03-11.75c.14-.87.97-1.44 1.83-1.3a1.6 1.6 0 0 1 1.28 1.84z"/><path d="M26.68 20.88c-.45-.07-1.24-.19-2.28-.34l2.03-11.75c.14-.87.97-1.44 1.83-1.3a1.6 1.6 0 0 1 1.28 1.84l-2.03 11.69z"/></g></svg>