<svg xmlns="http://www.w3.org/2000/svg" width="50" height="50" fill="none" viewBox="0 0 50 50"><defs><linearGradient id="a" x1="0" x2="50" y1="0" y2="0" gradientUnits="userSpaceOnUse"><stop offset=".093" stop-color="#cf3bff"/><stop offset="1" stop-color="#4a26ff"/></linearGradient><linearGradient id="b" x1="12.846" x2="36.952" y1="13.333" y2="13.333" gradientUnits="userSpaceOnUse"><stop stop-color="#cf3bff"/><stop offset="1" stop-color="#4a26ff"/></linearGradient></defs><path fill="url(#a)" d="M0 10v30a9.9 9.9 0 0 0 .76 3.82c.25.61.56 1.18.92 1.73.37.55.78 1.05 1.24 1.52.47.46.97.87 1.52 1.24.55.36 1.12.67 1.73.92.6.26 1.23.44 1.87.57.65.13 1.3.2 1.96.2h30c.65 0 1.3-.07 1.95-.2.64-.13 1.27-.31 1.87-.57a10.04 10.04 0 0 0 3.25-2.16c.46-.47.87-.97 1.24-1.52.36-.55.67-1.12.92-1.73.26-.6.44-1.23.57-1.87.13-.65.2-1.3.2-1.95V10c0-.66-.07-1.31-.2-1.96-.13-.64-.31-1.27-.57-1.87-.25-.61-.56-1.18-.92-1.73-.37-.55-.78-1.05-1.24-1.52-.47-.46-.97-.87-1.52-1.24-.55-.36-1.12-.67-1.73-.92A9.913 9.913 0 0 0 40 0H9.99a9.9 9.9 0 0 0-3.82.76c-.61.25-1.18.56-1.73.92-.55.37-1.05.78-1.52 1.24-.46.47-.87.97-1.24 1.52-.36.55-.67 1.12-.92 1.73C.5 6.77.32 7.4.19 8.04.06 8.69 0 9.34 0 10" style="mix-blend-mode:normal"/><path fill="#fff" d="M11.78 40.02c-1.89-.3-3.5-1.74-4.01-3.61-.15-.55-.17-1.21-.17-6.8 0-6.13 0-6.21.22-7.04.34-1.36.65-1.85 2.06-3.26.69-.68 2.15-2.01 3.25-2.95 1.85-1.57 2.71-2.31 6.22-5.39 1.33-1.16 2.31-1.93 3.2-2.5 1.01-.64 2.69-.78 4.13-.34.94.29 2.57 1.58 7.87 6.22 5.79 5.07 6.55 5.82 7.19 7.09.58 1.13.57 1.03.61 7.85.04 5.5.02 6.32-.11 6.84-.48 1.89-1.84 3.33-3.61 3.83-.48.13-26.02.19-26.85.06"/><path d="M7.77 36.41c-.15-.55-.17-1.21-.17-6.8 0-6.13 0-6.21.22-7.04.34-1.36.65-1.85 2.06-3.26.69-.68 2.15-2.01 3.25-2.95 1.85-1.57 2.71-2.31 6.22-5.39 1.33-1.16 2.31-1.93 3.2-2.5 1.01-.64 2.69-.78 4.13-.34.94.29 2.57 1.58 7.87 6.22 5.79 5.07 6.55 5.82 7.19 7.09.58 1.13.57 1.03.61 7.85.04 5.5.02 6.32-.11 6.84-.48 1.89-1.84 3.33-3.61 3.83-.48.13-26.02.19-26.85.06-1.89-.3-3.5-1.74-4.01-3.61"/><path fill="url(#b)" d="M24.89 13.33a3.98 3.98 0 0 0-3.98 3.99c0 1.67 1.03 3.1 2.49 3.69v8.85l-2.91-2.91a3.986 3.986 0 1 0-7.65-1.56c0 2.2 1.78 3.99 3.99 3.99.55 0 1.07-.11 1.55-.32l5.02 5.02v6.06h2.99v-6.06l5.02-5.02c.47.21 1 .32 1.55.32 2.2 0 3.99-1.79 3.99-3.99s-1.79-3.99-3.99-3.99-3.98 1.79-3.98 3.99c0 .55.11 1.08.31 1.56l-2.9 2.91v-8.85a3.98 3.98 0 0 0 2.49-3.69c0-2.21-1.79-3.99-3.99-3.99m0 2.39c.88 0 1.6.71 1.6 1.6a1.596 1.596 0 1 1-1.6-1.6m-8.06 8.08a1.596 1.596 0 0 1 0 3.19c-.89 0-1.6-.72-1.6-1.6s.71-1.59 1.6-1.59m16.13 0c.88 0 1.6.71 1.6 1.59s-.72 1.6-1.6 1.6a1.596 1.596 0 0 1 0-3.19"/></svg>