<svg xmlns="http://www.w3.org/2000/svg" width="51.026" height="50" fill="none" viewBox="0 0 51.026 50"><path fill="#fff" fill-rule="evenodd" d="m.52 20.98 5.91 3.25-5.91 3.35 1.3 1.88 7.08-4.24v-1.98L1.79 19zm16 12.02v-2.18H7.44V33z"/><path stroke="#282828" stroke-linejoin="round" d="M6.43 24.23.52 27.58l1.3 1.88 7.08-4.24v-1.98L1.79 19 .52 20.98zm10.09 6.59H7.44V33h9.08z"/><path fill="red" fill-rule="evenodd" d="M21.22 30.39a2 2 0 0 1-.89-.61c-.24-.28-.42-.6-.54-.95-.12-.36-.2-.72-.24-1.09-.04-.38-.04-.76-.01-1.14.03-.39.09-.78.16-1.17l.48-2.9c.09-.53.24-1.04.44-1.54.21-.51.51-.97.89-1.36.39-.41.85-.71 1.37-.92.51-.21 1.03-.31 1.58-.31.32 0 .62.04.93.12.29.08.54.22.77.41.22.2.4.43.54.7.13.26.23.53.29.82L28.08 14h3.19l-2.75 16.42h-3.21l.25-1.52c-.17.27-.38.51-.62.72-.24.22-.5.4-.78.55-.29.15-.58.26-.89.32-.31.07-.61.1-.93.1-.38.01-.76-.06-1.12-.2m3.57-2.49c.23-.07.42-.18.6-.33.17-.16.31-.34.4-.55.1-.2.17-.41.2-.63l.5-2.9c.03-.18.05-.36.07-.55.01-.18.02-.36.01-.55-.01-.17-.04-.35-.08-.52-.04-.16-.11-.32-.21-.46a.83.83 0 0 0-.38-.31 1.2 1.2 0 0 0-.53-.11c-.26 0-.52.04-.76.14-.25.1-.47.24-.66.44-.19.18-.33.4-.43.64s-.17.49-.2.74l-.5 2.91c-.04.25-.06.5-.06.76.01.24.06.48.16.7s.26.39.48.5c.23.12.46.18.72.18.23 0 .45-.03.67-.1m5.5-.08h2.74l1.89-11.23h-2.05V14h5.69l-2.34 13.82h2.05v2.6h-7.98zm11.24-9.25h3.21l-.25 1.5c.18-.26.39-.49.62-.71.24-.22.49-.41.78-.56.28-.15.57-.25.89-.31.3-.06.61-.09.92-.09.39-.01.76.06 1.13.2.35.13.64.33.89.61.23.28.41.59.53.94q.18.525.24 1.08c.04.39.04.77.01 1.15-.03.4-.07.79-.14 1.18l-.5 2.9c-.09.52-.24 1.03-.44 1.52-.21.51-.5.97-.88 1.37-.38.42-.84.73-1.37.93-.51.21-1.04.31-1.59.31-.31 0-.61-.04-.91-.12-.29-.07-.55-.21-.78-.41-.21-.2-.39-.43-.52-.69-.14-.27-.24-.54-.32-.83L41.96 35h-3.19zm3.9 9.29c.26-.1.48-.25.66-.44.19-.19.34-.41.44-.66q.135-.345.21-.72l.48-2.91c.05-.25.07-.5.06-.76-.01-.24-.06-.48-.16-.7s-.26-.39-.48-.5a1.5 1.5 0 0 0-.72-.18c-.23 0-.45.03-.67.1s-.42.18-.59.33c-.17.16-.31.34-.4.55q-.135.3-.21.63l-.47 2.9c-.03.18-.06.36-.08.55-.03.18-.03.35-.02.53.02.18.05.35.08.52.04.17.11.32.2.47.09.14.22.25.39.32.16.08.34.11.52.11.26 0 .52-.05.76-.14"/><path stroke="#282828" stroke-linejoin="round" d="M20.33 29.78c-.24-.28-.42-.6-.54-.95-.12-.36-.2-.72-.24-1.09-.04-.38-.04-.76-.01-1.14.03-.39.09-.78.16-1.17l.48-2.9c.09-.53.24-1.04.44-1.54.21-.51.51-.97.89-1.36.39-.41.85-.71 1.37-.92.51-.21 1.03-.31 1.58-.31.32 0 .62.04.93.12.29.08.54.22.77.41.22.2.4.43.54.7.13.26.23.53.29.82L28.08 14h3.19l-2.75 16.42h-3.21l.25-1.52c-.17.27-.38.51-.62.72-.24.22-.5.4-.78.55-.29.15-.58.26-.89.32-.31.07-.61.1-.93.1-.38.01-.76-.06-1.12-.2a2 2 0 0 1-.89-.61Zm5.06-2.21c.17-.16.31-.34.4-.55.1-.2.17-.41.2-.63l.5-2.9c.03-.18.05-.36.07-.55.01-.18.02-.36.01-.55-.01-.17-.04-.35-.08-.52-.04-.16-.11-.32-.21-.46a.83.83 0 0 0-.38-.31 1.2 1.2 0 0 0-.53-.11c-.26 0-.52.04-.76.14-.25.1-.47.24-.66.44-.19.18-.33.4-.43.64s-.17.49-.2.74l-.5 2.91c-.04.25-.06.5-.06.76.01.24.06.48.16.7s.26.39.48.5c.23.12.46.18.72.18.23 0 .45-.03.67-.1.23-.07.42-.18.6-.33Zm7.64.25 1.89-11.23h-2.05V14h5.69l-2.34 13.82h2.05v2.6h-7.98v-2.6zm11.71-9.25-.25 1.5c.18-.26.39-.49.62-.71.24-.22.49-.41.78-.56.28-.15.57-.25.89-.31.3-.06.61-.09.92-.09.39-.01.76.06 1.13.2.35.13.64.33.89.61.23.28.41.59.53.94q.18.525.24 1.08c.04.39.04.77.01 1.15-.03.4-.07.79-.14 1.18l-.5 2.9c-.09.52-.24 1.03-.44 1.52-.21.51-.5.97-.88 1.37-.38.42-.84.73-1.37.93-.51.21-1.04.31-1.59.31-.31 0-.61-.04-.91-.12-.29-.07-.55-.21-.78-.41-.21-.2-.39-.43-.52-.69-.14-.27-.24-.54-.32-.83L41.96 35h-3.19l2.76-16.43zm1.35 8.85c.19-.19.34-.41.44-.66q.135-.345.21-.72l.48-2.91c.05-.25.07-.5.06-.76-.01-.24-.06-.48-.16-.7s-.26-.39-.48-.5a1.5 1.5 0 0 0-.72-.18c-.23 0-.45.03-.67.1s-.42.18-.59.33c-.17.16-.31.34-.4.55q-.135.3-.21.63l-.47 2.9c-.03.18-.06.36-.08.55-.03.18-.03.35-.02.53.02.18.05.35.08.52.04.17.11.32.2.47.09.14.22.25.39.32.16.08.34.11.52.11.26 0 .52-.05.76-.14.26-.1.48-.25.66-.44Z"/></svg>