<svg viewBox="0 0 50 50" xmlns="http://www.w3.org/2000/svg" xmlns:xlink="http://www.w3.org/1999/xlink" width="50.000000" height="50.000000" fill="none" customFrame="#000000">
	<g id="heic">
		<rect id="Прямоугольник 2" width="50.000000" height="50.000000" x="0.000000" y="0.000000" opacity="0" fill="rgb(196,196,196)" />
		<g id="Сочетание 1">
			<path id="Форма 1" d="M6.33929 49.6528L6.33929 0.347221L31.6453 0.347221L43.6607 12.6438L43.6607 49.6528L6.33929 49.6528Z" fill="rgb(139,183,240)" fill-rule="nonzero" />
			<path id="Форма 2" d="M31.5048 0.694444L43.3214 12.7875L43.3214 49.3056L6.67857 49.3056L6.67857 0.694444L31.5048 0.694444ZM31.7857 0L6 0L6 50L44 50L44 12.5L31.7857 0Z" fill="rgb(78,122,181)" fill-rule="nonzero" />
			<path id="Форма 3" d="M31.4464 12.8472L31.4464 0.347221L31.6452 0.347221L43.6607 12.6437L43.6607 12.8472L31.4464 12.8472Z" fill="rgb(255,255,255)" fill-rule="nonzero" />
			<path id="Форма 4" d="M31.7857 0.981945L43.0405 12.5L31.7857 12.5L31.7857 0.981945ZM31.7857 0L31.1071 0L31.1071 13.1944L44 13.1944L44 12.5L31.7857 0Z" fill="rgb(78,122,181)" fill-rule="nonzero" />
			<path id="Форма 5" d="M26.3965 28.834L23.6965 28.834L23.6965 32.1201L26.7487 32.1201L26.7487 34.1785L21.3853 34.1785L21.3853 22.0083L26.5546 22.0083L26.5546 24.0667L23.6965 24.0667L23.6965 26.8653L26.3965 26.8653L26.3965 28.834Z" fill="rgb(255,255,255)" fill-rule="nonzero" />
			<rect id="Прямоугольник 1" width="2.329535" height="12.170140" x="28.099037" y="22.008335" fill="rgb(255,255,255)" />
			<path id="Форма 6" d="M15.122 21.984L15.122 26.859L17.5391 26.859L17.5391 21.984L19.8503 21.984L19.8503 34.1535L17.5391 34.1535L17.5391 29.0625L15.122 29.0625L15.122 34.1542L12.8108 34.1542L12.8108 21.984L15.122 21.984Z" fill="rgb(255,255,255)" fill-rule="nonzero" />
			<path id="Форма 7" d="M37.9933 33.9007C37.6581 34.0632 37.0053 34.1896 36.2114 34.1896C33.1591 34.1896 31.7124 31.6431 31.7124 28.1764C31.7124 23.5903 34.2007 21.8028 36.5113 21.8028C37.3229 21.8028 37.8874 21.9653 38.1168 22.1278L37.7286 24.1139C37.464 23.9875 37.1641 23.8792 36.6524 23.8792C35.3469 23.8792 34.1648 25.0347 34.1648 28.05C34.1648 30.9576 35.241 32.0944 36.6524 32.0944C37.0406 32.0944 37.4816 32.0042 37.7639 31.9139L37.9933 33.9007Z" fill="rgb(255,255,255)" fill-rule="nonzero" />
		</g>
	</g>
</svg>
