<svg width="50.000000" height="50.000000" viewBox="0 0 50 50" fill="none" xmlns="http://www.w3.org/2000/svg" xmlns:xlink="http://www.w3.org/1999/xlink">
	<desc>
			Created with Pixso.
	</desc>
	<defs>
		<clipPath id="clip3_17">
			<rect id="odnoklassniki" width="50.000000" height="50.000000" fill="white" fill-opacity="0"/>
		</clipPath>
	</defs>
	<g clip-path="url(#clip3_17)">
		<path id="path" d="M50 42.68C50 46.72 46.74 50 42.72 50L7.27 50C3.25 50 0 46.72 0 42.68L0 7.31C0 3.27 3.25 3.81e-6 7.27 3.81e-6L42.72 3.81e-6C46.74 3.81e-6 50 3.27 50 7.31L50 42.68Z" fill="#FAAB62" fill-opacity="1.000000" fill-rule="nonzero"/>
		<path id="path" d="M49.74 42.5C49.74 46.5 46.51 49.74 42.53 49.74L7.46 49.74C3.48 49.74 0.25 46.5 0.25 42.5L0.25 7.49C0.25 3.49 3.48 0.25 7.46 0.25L42.53 0.25C46.51 0.25 49.74 3.49 49.74 7.49L49.74 42.5Z" fill="#F7931E" fill-opacity="1.000000" fill-rule="nonzero"/>
		<path id="path" d="M24.97 7.47C20.01 7.47 15.99 11.51 15.99 16.49C15.99 21.47 20.01 25.51 24.97 25.51C29.92 25.51 33.94 21.47 33.94 16.49C33.94 11.51 29.92 7.47 24.97 7.47ZM24.97 20.21C22.92 20.21 21.26 18.55 21.26 16.49C21.26 14.43 22.92 12.76 24.97 12.76C27.02 12.76 28.68 14.43 28.68 16.49C28.68 18.55 27.02 20.21 24.97 20.21Z" fill="#FFFFFF" fill-opacity="1.000000" fill-rule="nonzero"/>
		<path id="path" d="M28.13 32.68C31.73 31.95 33.88 30.24 33.99 30.14C35.04 29.3 35.21 27.75 34.37 26.7C33.53 25.64 31.99 25.47 30.94 26.32C30.92 26.34 28.62 28.11 24.85 28.11C21.07 28.11 18.72 26.34 18.7 26.32C17.65 25.47 16.11 25.64 15.27 26.7C14.43 27.75 14.6 29.3 15.65 30.14C15.76 30.24 18.01 31.99 21.7 32.71L16.55 38.12C15.62 39.09 15.64 40.64 16.61 41.58C17.09 42.04 17.7 42.27 18.31 42.27C18.95 42.27 19.59 42.02 20.06 41.52L24.85 36.4L30.11 41.55C31.06 42.51 32.61 42.51 33.56 41.55C34.51 40.59 34.51 39.04 33.56 38.08L28.13 32.68Z" fill="#FFFFFF" fill-opacity="1.000000" fill-rule="nonzero"/>
		<path id="path" d="" fill="#FFFFFF" fill-opacity="1.000000" fill-rule="nonzero"/>
	</g>
</svg>
