<svg viewBox="0 0 50 50" xmlns="http://www.w3.org/2000/svg" xmlns:xlink="http://www.w3.org/1999/xlink" width="50.000004" height="50.000000" fill="none" customFrame="#000000">
	<path id="Форма 1" d="M2.17309e-06 15C2.17309e-06 10.3406 2.14577e-06 8.01087 0.761206 6.17317C1.77615 3.72288 3.72288 1.77614 6.17317 0.761204C8.01088 0 10.3406 0 15 0L35 0C39.6594 0 41.9892 0 43.8269 0.761204C46.2771 1.77614 48.224 3.72287 49.2388 6.17317C50 8.01087 50 10.3406 50 15L50 35C50 39.6594 50 41.9892 49.2388 43.8269C48.224 46.2771 46.2771 48.224 43.8269 49.2387C41.9892 50 39.6594 50 35 50L15 50C10.3406 50 8.01087 50 6.17317 49.2387C3.72288 48.224 1.77614 46.2771 0.761204 43.8269C0 41.9892 0 39.6594 0 35L2.17309e-06 15ZM14.65 17.5249C12.7446 17.5249 11.2 15.9803 11.2 14.075C11.2 12.1696 12.7446 10.625 14.65 10.625L30.175 10.625C35.5735 10.625 39.95 15.0014 39.95 20.3999C39.95 25.7983 35.5735 30.1748 30.175 30.1748L18.1 30.1748L18.1 35.9246C18.1 37.83 16.5554 39.3746 14.65 39.3746C12.7446 39.3746 11.2 37.83 11.2 35.9246L11.2 26.7248C11.2 24.8194 12.7446 23.2748 14.65 23.2748L30.175 23.2748C31.7629 23.2748 33.05 21.9877 33.05 20.3999C33.05 18.8121 31.7629 17.5249 30.175 17.5249L14.65 17.5249ZM30.175 33.0498L28.7456 33.0498L34.0604 38.3646C34.6848 38.9887 35.5473 39.375 36.5 39.375C38.4054 39.375 39.95 37.8304 39.95 35.925C39.95 34.9723 39.5638 34.1098 38.9396 33.4854L36.6958 31.2419C34.7917 32.3896 32.5604 33.0498 30.175 33.0498Z" fill="rgb(255,255,255)" fill-rule="evenodd" />
</svg>
