<svg viewBox="0 0 50 50" xmlns="http://www.w3.org/2000/svg" xmlns:xlink="http://www.w3.org/1999/xlink" width="49.999996" height="50.000000" fill="none" customFrame="#000000">
	<g id="pinned">
		<path id="Форма 2" d="M3.9639 50C2.90517 50 1.91016 49.5876 1.16167 48.8389C0.221439 47.8988 -0.183473 46.5599 0.0779335 45.2567L0.902644 41.1269C1.05508 40.3577 1.43141 39.6549 1.98936 39.098L12.554 28.5311L9.34208 25.3182C8.59418 24.571 8.18153 23.5755 8.18153 22.5165C8.18093 21.4579 8.59299 20.4624 9.34089 19.7134L10.9933 18.0595C12.8458 16.2075 15.308 15.1881 17.9292 15.1881C18.9665 15.1881 19.9901 15.3519 20.9648 15.6694L29.8705 8.0604C29.8366 7.79656 29.8199 7.52914 29.8199 7.26023C29.8199 5.5765 30.4761 3.99342 31.667 2.80314L33.3164 1.15187C34.0471 0.420188 35.0689 0 36.1204 0C37.1702 0 38.192 0.419295 38.9227 1.15068L48.8388 11.069C49.5879 11.818 50 12.8135 50 13.8722C50 14.9311 49.5879 15.9266 48.8388 16.6756L47.1847 18.3293C45.9967 19.5183 44.414 20.1741 42.7306 20.1741C42.4692 20.1741 42.2102 20.158 41.9536 20.1264L34.3293 29.0311C35.4631 32.4802 34.6032 36.3339 31.9356 39.003L30.2814 40.657C29.5311 41.4059 28.5367 41.8175 27.4792 41.8175C26.4204 41.8175 25.4254 41.4051 24.6769 40.6564L21.4644 37.4438L10.8992 48.0125C10.346 48.5667 9.64457 48.9425 8.87226 49.0968L4.74097 49.9229C4.48552 49.9741 4.22411 50 3.9639 50Z" fill="rgb(242,242,242)" fill-rule="nonzero" />
		<path id="Форма 3" d="M8.09637 45.2093L3.9639 46.0358L4.78899 41.9035L19.6664 27.0241L22.9714 30.3298L8.09637 45.2093Z" fill="rgb(217,238,255)" fill-rule="nonzero" />
		<path id="Форма 4" d="M29.758 28.6255L21.4942 20.3599L36.6871 7.46065L42.5306 13.3054L29.758 28.6255Z" fill="rgb(255,117,117)" fill-rule="nonzero" />
		<path id="Форма 5" d="M35.8818 4.19238L35.0916 4.98393C34.1788 5.89571 34.1788 7.37676 35.0916 8.2897L41.7017 14.9012C42.6144 15.8142 44.0951 15.8142 45.0067 14.9012L45.7981 14.1109L35.8818 4.19238Z" fill="rgb(244,102,92)" fill-rule="nonzero" />
		<path id="Форма 6" d="M27.5892 36.6818L30.1426 34.1285C31.5553 32.7148 31.5553 30.4239 30.1426 29.0103L20.9957 19.8613C19.5824 18.4484 17.292 18.4484 15.8786 19.8613L13.3258 22.4154L27.5892 36.6818Z" fill="rgb(244,102,92)" fill-rule="nonzero" />
		<rect id="Прямоугольник 1" width="4.805964" height="1.936776" x="0.000000" y="0.000000" fill="rgb(155,167,197)" transform="matrix(0.707029,0.707184,-0.707029,0.707184,18.7077,27.7981)" />
		<path id="Форма 7" d="M3.9639 46.9506C3.72393 46.9506 3.49051 46.8559 3.31723 46.6826C3.10108 46.4664 3.00699 46.1564 3.06714 45.8565L3.89244 41.7243C3.92757 41.5471 4.01451 41.3845 4.14253 41.2568L16.8657 28.5314L11.4982 23.1622C11.141 22.8051 11.141 22.2259 11.4976 21.8688L13.15 20.2149C15.3842 17.9808 18.8426 17.6154 21.4751 19.2435L33.4046 9.05117C33.0562 8.52467 32.8687 7.90674 32.8687 7.26023C32.8687 6.39097 33.2075 5.57442 33.822 4.96036L35.4732 3.30731C35.8168 2.96365 36.4229 2.96335 36.7671 3.30701L46.6833 13.2254C46.8548 13.3969 46.9512 13.6298 46.9512 13.8722C46.9512 14.1149 46.8548 14.3477 46.6833 14.5193L45.0297 16.1723C44.4164 16.7861 43.6 17.1247 42.7306 17.1247C42.0917 17.1247 41.4814 16.9415 40.9586 16.6006L30.7512 28.5219C32.378 31.1535 32.013 34.6124 29.7794 36.847L28.1258 38.5004C27.7685 38.8571 27.1898 38.8574 26.8325 38.5001L21.4644 33.1311L8.74305 45.8562C8.61562 45.9839 8.45306 46.0709 8.27561 46.1063L4.14313 46.9327C4.08358 46.9446 4.02344 46.9506 3.9639 46.9506ZM5.63178 42.3544L5.12921 44.8699L7.64562 44.3666L20.8178 31.1904C21.1607 30.8473 21.7681 30.8473 22.1111 31.1904L27.4792 36.5596L28.4861 35.5531C30.2468 33.7919 30.4148 30.987 28.8773 29.0287C28.6081 28.6857 28.6183 28.2 28.9017 27.8688L40.166 14.7131C40.3321 14.5193 40.5709 14.4037 40.8258 14.3939C41.1003 14.3909 41.3277 14.4815 41.5082 14.6616L41.7249 14.8787C42.2614 15.4156 43.2005 15.415 43.7358 14.8787L44.7427 13.8719L36.1205 5.24774L35.1153 6.25428C34.8462 6.52319 34.6979 6.88024 34.6979 7.26023C34.6979 7.64051 34.8462 7.99787 35.1147 8.26648L35.3481 8.50025C35.528 8.68071 35.625 8.92818 35.6149 9.18279C35.6048 9.4377 35.4887 9.67683 35.2951 9.84241L22.1266 21.0934C21.7949 21.3766 21.3102 21.3864 20.9672 21.1172C19.0099 19.5791 16.2053 19.7476 14.444 21.5085L13.4382 22.5151L18.8057 27.8846C19.163 28.2419 19.163 28.8211 18.8057 29.1782L5.63178 42.3544Z" fill="rgb(64,57,110)" fill-rule="nonzero" />
	</g>
</svg>
