<svg viewBox="0 0 50 50" xmlns="http://www.w3.org/2000/svg" xmlns:xlink="http://www.w3.org/1999/xlink" width="50.000000" height="50.000000" fill="none" customFrame="#000000">
	<g id="russia_it">
		<rect id="Прямоугольник 1" width="50.000000" height="50.000000" x="0.000000" y="0.000000" opacity="0" fill="rgb(196,196,196)" />
		<g id="russia_it">
			<g id="Сочетание 6">
				<g id="Сочетание 2">
					<path id="Форма 12" d="M50 9.0201L50 14.0452L0 14.0452L0 9.0201C0 6.8 1.80181 5 4.02414 5L45.9759 5C48.1982 5 50 6.8 50 9.0201Z" fill="rgb(80,117,141)" fill-rule="nonzero" />
					<g id="Сочетание 4">
						<path id="Форма 13" d="M47.7364 9.52261C47.7364 8.27577 46.721 7.2613 45.4728 7.2613L24.0443 7.2613C23.4019 7.2613 22.8217 7.53035 22.4094 7.9611C21.9298 8.43919 22.1549 8.21427 21.6764 8.69336C21.2452 9.10532 20.9759 9.68492 20.9759 10.3266C20.9759 11.5735 21.9912 12.5879 23.2394 12.5879L44.668 12.5879C45.3104 12.5879 45.8905 12.3189 46.3029 11.8881C46.7825 11.41 46.5573 11.635 47.0359 11.1559C47.4671 10.7439 47.7364 10.1643 47.7364 9.52261L47.7364 9.52261ZM6.8662 9.49748C6.8662 8.25065 5.85081 7.23618 4.60262 7.23618C3.96026 7.23618 3.38008 7.50522 2.96771 7.93597C2.48813 8.41407 2.71328 8.18914 2.23471 8.66824C1.80352 9.0802 1.53421 9.65979 1.53421 10.3015C1.53421 11.5483 2.5496 12.5628 3.79779 12.5628C4.44014 12.5628 5.02032 12.2938 5.4327 11.863C5.91227 11.3849 5.68712 11.6098 6.16569 11.1307C6.59688 10.7188 6.8662 10.1392 6.8662 9.49748ZM13.33 9.49748C13.33 8.25065 12.3146 7.23618 11.0664 7.23618C10.424 7.23618 9.84386 7.50522 9.43149 7.93597C8.95191 8.41407 9.17706 8.18914 8.69849 8.66824C8.2673 9.0802 7.99799 9.65979 7.99799 10.3015C7.99799 11.5483 9.01338 12.5628 10.2616 12.5628C10.9039 12.5628 11.4841 12.2938 11.8965 11.863C12.3761 11.3849 12.1509 11.6098 12.6295 11.1307C13.0607 10.7188 13.33 10.1392 13.33 9.49748ZM19.7686 9.49748C19.7686 8.25065 18.7532 7.23618 17.505 7.23618C16.8627 7.23618 16.2825 7.50522 15.8701 7.93597C15.3905 8.41407 15.6157 8.18914 15.1371 8.66824C14.7059 9.0802 14.4366 9.65979 14.4366 10.3015C14.4366 11.5483 15.452 12.5628 16.7002 12.5628C17.3426 12.5628 17.9227 12.2938 18.3351 11.863C18.8147 11.3849 18.5895 11.6098 19.0681 11.1307C19.4993 10.7188 19.7686 10.1392 19.7686 9.49748Z" fill="rgb(43,89,127)" fill-rule="nonzero" />
					</g>
					<path id="Форма 14" d="M4.60262 11.7588C3.35443 11.7588 2.33904 10.7443 2.33904 9.49748C2.33904 8.25065 3.35443 7.23618 4.60262 7.23618C5.8508 7.23618 6.8662 8.25065 6.8662 9.49748C6.8662 10.7443 5.8508 11.7588 4.60262 11.7588Z" fill="rgb(253,100,111)" fill-rule="nonzero" />
					<path id="Форма 15" d="M11.0664 11.7839C9.81821 11.7839 8.80282 10.7694 8.80282 9.52261C8.80282 8.27578 9.81821 7.26131 11.0664 7.26131C12.3146 7.26131 13.33 8.27578 13.33 9.52261C13.33 10.7694 12.3146 11.7839 11.0664 11.7839Z" fill="rgb(255,198,130)" fill-rule="nonzero" />
					<path id="Форма 16" d="M17.505 11.7839C16.2568 11.7839 15.2415 10.7694 15.2415 9.52261C15.2415 8.27578 16.2568 7.26131 17.505 7.26131C18.7532 7.26131 19.7686 8.27578 19.7686 9.52261C19.7686 10.7694 18.7532 11.7839 17.505 11.7839Z" fill="rgb(147,221,183)" fill-rule="nonzero" />
					<path id="Форма 17" d="M45.4728 11.7839L24.0443 11.7839C22.7961 11.7839 21.7807 10.7694 21.7807 9.52261C21.7807 8.27578 22.7961 7.26131 24.0443 7.26131L45.4728 7.26131C46.721 7.26131 47.7364 8.27578 47.7364 9.52261C47.7364 10.7694 46.721 11.7839 45.4728 11.7839Z" fill="rgb(245,245,245)" fill-rule="nonzero" />
				</g>
				<g id="Сочетание 5">
					<path id="Форма 18" d="M0 14L0 44.9993L50 44.9993L50 14L0 14Z" fill="rgb(240,240,240)" fill-rule="nonzero" />
					<path id="Форма 19" d="M0 14.0003L50 14.0003L50 45L0 45L0 14.0003Z" fill="rgb(0,82,180)" fill-rule="nonzero" />
					<path id="Форма 20" d="M0 14.0003L50 14.0003L50 24.3332L0 24.3332L0 14.0003Z" fill="rgb(240,240,240)" fill-rule="nonzero" />
					<path id="Форма 21" d="M0 34.6661L50 34.6661L50 44.999L0 44.999L0 34.6661Z" fill="rgb(216,0,39)" fill-rule="nonzero" />
				</g>
			</g>
			<g id="Сочетание 7">
				<ellipse id="Эллипс 1" rx="9.918774" ry="9.918715" cx="25" cy="29.9999828" fill="rgb(200,239,254)" />
				<path id="Форма 22" d="M26.8852 39.7399C26.2625 39.8593 25.6341 39.9189 25 39.9187C19.522 39.9187 15.0813 35.478 15.0813 30C15.0813 24.522 19.522 20.0813 25 20.0813C25.6447 20.0813 26.2752 20.143 26.8852 20.2601C22.3087 21.1403 18.8512 25.1667 18.8512 30C18.8512 34.8333 22.3087 38.8597 26.8852 39.7399L26.8852 39.7399Z" fill="rgb(153,230,252)" fill-rule="nonzero" />
				<g id="Сочетание 8">
					<path id="Форма 23" d="M31.9467 37.412C31.8562 37.4121 31.7787 37.3804 31.7142 37.3169C29.9109 35.5474 27.5264 34.5729 25 34.5729C22.4736 34.5729 20.0891 35.5474 18.2858 37.3169C18.2544 37.3477 18.2183 37.3714 18.1774 37.3878C18.1366 37.4042 18.0942 37.4122 18.0502 37.4118C18.0062 37.4114 17.964 37.4025 17.9235 37.3853C17.883 37.3681 17.8473 37.3438 17.8165 37.3124C17.7857 37.2809 17.762 37.2448 17.7456 37.204C17.7291 37.1632 17.7211 37.1208 17.7215 37.0768C17.7219 37.0328 17.7307 36.9906 17.7479 36.9501C17.7651 36.9096 17.7894 36.8739 17.8208 36.8431C19.749 34.9509 22.2987 33.9089 25 33.9089C27.7014 33.9089 30.2511 34.9509 32.1793 36.8431C32.2275 36.8903 32.2584 36.9469 32.272 37.013C32.2856 37.079 32.2797 37.1432 32.2541 37.2057C32.2286 37.2681 32.1879 37.3181 32.1319 37.3557C32.0759 37.3932 32.0141 37.412 31.9467 37.412L31.9467 37.412ZM25 26.0911C22.2986 26.0911 19.749 25.049 17.8207 23.1569C17.7894 23.1261 17.7651 23.0904 17.7479 23.0499C17.7307 23.0094 17.7219 22.9672 17.7215 22.9232C17.7212 22.8792 17.7292 22.8368 17.7456 22.796C17.7621 22.7552 17.7857 22.7191 17.8166 22.6877C17.8474 22.6563 17.883 22.632 17.9235 22.6148C17.964 22.5976 18.0062 22.5887 18.0502 22.5883C18.0942 22.5878 18.1366 22.5958 18.1774 22.6123C18.2182 22.6287 18.2543 22.6523 18.2858 22.683C20.0891 24.4526 22.4736 25.4271 25 25.4271C27.5263 25.4271 29.9108 24.4526 31.7142 22.683C31.7457 22.6529 31.7818 22.6298 31.8224 22.6139C31.8631 22.598 31.9052 22.5903 31.9489 22.591C31.9925 22.5917 32.0344 22.6007 32.0745 22.6179C32.1147 22.6351 32.15 22.6593 32.1806 22.6904C32.2112 22.7216 32.2347 22.7574 32.2511 22.7978C32.2676 22.8383 32.2758 22.8803 32.2756 22.924C32.2755 22.9676 32.2671 23.0096 32.2504 23.05C32.2337 23.0903 32.21 23.126 32.1792 23.1569C30.2511 25.049 27.7014 26.0911 25 26.0911L25 26.0911Z" fill="rgb(130,174,227)" fill-rule="nonzero" />
					<path id="Форма 24" d="M25 40.2413C22.2644 40.2413 19.6926 39.176 17.7582 37.2417C15.8239 35.3074 14.7586 32.7356 14.7586 30C14.7586 27.2644 15.8239 24.6926 17.7583 22.7583C19.6926 20.8239 22.2645 19.7586 25 19.7586C27.7356 19.7586 30.3074 20.8239 32.2418 22.7583C34.1761 24.6926 35.2415 27.2644 35.2415 30C35.2415 32.7356 34.1761 35.3074 32.2418 37.2417C30.3075 39.1761 27.7356 40.2413 25 40.2413L25 40.2413ZM25 20.4039C22.4368 20.4039 20.027 21.4021 18.2145 23.2145C16.4021 25.027 15.4039 27.4368 15.4039 30C15.4039 32.5632 16.4021 34.973 18.2145 36.7854C20.027 38.5979 22.4368 39.596 25 39.596C27.5632 39.596 29.973 38.5979 31.7855 36.7854C33.5979 34.973 34.5961 32.5632 34.5961 30C34.5961 27.4368 33.5979 25.027 31.7855 23.2145C29.973 21.4021 27.5632 20.4039 25 20.4039Z" fill="rgb(130,174,227)" fill-rule="nonzero" />
					<path id="Форма 25" d="M25 40.2507C23.5384 40.2507 22.1831 39.154 21.1837 37.1625C20.2208 35.2438 19.6905 32.7001 19.6905 30C19.6905 27.2999 20.2208 24.7562 21.1837 22.8375C22.183 20.846 23.5384 19.7493 25 19.7493C26.4616 19.7493 27.8169 20.846 28.8163 22.8375C29.7792 24.7562 30.3095 27.2999 30.3095 30C30.3095 32.7001 29.7792 35.2438 28.8163 37.1625C27.817 39.154 26.4616 40.2507 25 40.2507L25 40.2507ZM25 20.4133C23.8026 20.4133 22.658 21.38 21.7771 23.1353C20.8598 24.9634 20.3545 27.4013 20.3545 30C20.3545 32.5987 20.8598 35.0366 21.7771 36.8647C22.658 38.62 23.8026 39.5867 25 39.5867C26.1974 39.5867 27.342 38.62 28.2229 36.8647C29.1402 35.0366 29.6455 32.5987 29.6455 30C29.6455 27.4013 29.1402 24.9634 28.2229 23.1353C27.342 21.38 26.1975 20.4133 25 20.4133L25 20.4133Z" fill="rgb(130,174,227)" fill-rule="nonzero" />
					<path id="Форма 26" d="M34.9188 30.332L15.0813 30.332C15.0372 30.332 14.9949 30.3236 14.9542 30.3067C14.9136 30.2899 14.8777 30.2659 14.8465 30.2348C14.8154 30.2036 14.7914 30.1677 14.7746 30.1271C14.7577 30.0864 14.7493 30.044 14.7493 30C14.7493 29.956 14.7577 29.9136 14.7746 29.873C14.7914 29.8323 14.8154 29.7964 14.8465 29.7653C14.8777 29.7341 14.9136 29.7102 14.9542 29.6933C14.9949 29.6765 15.0372 29.668 15.0813 29.668L34.9188 29.668C34.9628 29.668 35.0052 29.6765 35.0459 29.6933C35.0865 29.7102 35.1224 29.7342 35.1536 29.7653C35.1847 29.7964 35.2087 29.8323 35.2255 29.873C35.2424 29.9137 35.2508 29.956 35.2508 30C35.2508 30.0441 35.2423 30.0864 35.2255 30.1271C35.2086 30.1677 35.1847 30.2036 35.1535 30.2348C35.1224 30.2659 35.0865 30.2899 35.0458 30.3067C35.0051 30.3236 34.9628 30.332 34.9188 30.332Z" fill="rgb(130,174,227)" fill-rule="nonzero" />
				</g>
				<ellipse id="Эллипс 2" rx="1.081227" ry="1.081220" cx="18.0532875" cy="22.9199963" fill="rgb(255,225,119)" />
				<path id="Форма 27" d="M18.4868 21.9297C18.3486 21.8688 18.204 21.8384 18.0529 21.8387C17.4558 21.8387 16.9721 22.3229 16.9721 22.92C16.9721 23.5171 17.4558 24.0013 18.0529 24.0013C18.2074 24.0013 18.3539 23.9689 18.4868 23.9102C18.1056 23.7434 17.8394 23.363 17.8394 22.92C17.8394 22.4769 18.1056 22.0965 18.4868 21.9297L18.4868 21.9297Z" fill="rgb(255,209,91)" fill-rule="nonzero" />
				<ellipse id="Эллипс 3" rx="1.081227" ry="1.081220" cx="20.700428" cy="25.0824718" fill="rgb(255,225,119)" />
				<path id="Форма 28" d="M21.134 24.0922C20.9958 24.0313 20.8511 24.0009 20.7001 24.0012C20.1029 24.0012 19.6192 24.4854 19.6192 25.0825C19.6192 25.6796 20.1029 26.1637 20.7001 26.1637C20.8546 26.1637 21.001 26.1314 21.134 26.0727C20.7528 25.9059 20.4865 25.5255 20.4865 25.0824C20.4865 24.6394 20.7528 24.259 21.134 24.0922Z" fill="rgb(255,209,91)" fill-rule="nonzero" />
				<ellipse id="Эллипс 4" rx="1.081227" ry="1.081220" cx="20.0225449" cy="29.9999828" fill="rgb(255,225,119)" />
				<path id="Форма 29" d="M20.4561 29.0097C20.3179 28.9488 20.1732 28.9185 20.0222 28.9188C19.4251 28.9188 18.9413 29.4029 18.9413 30C18.9413 30.5972 19.4251 31.0813 20.0222 31.0813C20.1767 31.0813 20.3232 31.0489 20.4561 30.9903C20.0749 30.8234 19.8087 30.443 19.8087 30C19.8087 29.5569 20.0749 29.1766 20.4561 29.0097Z" fill="rgb(255,209,91)" fill-rule="nonzero" />
				<ellipse id="Эллипс 5" rx="1.081227" ry="1.081220" cx="29.9774971" cy="29.9999828" fill="rgb(255,225,119)" />
				<path id="Форма 30" d="M30.411 29.0097C30.2728 28.9488 30.1282 28.9185 29.9772 28.9188C29.38 28.9188 28.8963 29.4029 28.8963 30C28.8963 30.5972 29.3801 31.0813 29.9772 31.0813C30.1316 31.0813 30.2781 31.0489 30.411 30.9903C30.0299 30.8234 29.7636 30.443 29.7636 30C29.7636 29.5569 30.0299 29.1766 30.411 29.0097Z" fill="rgb(255,209,91)" fill-rule="nonzero" />
				<ellipse id="Эллипс 6" rx="1.081227" ry="1.081220" cx="34.9187737" cy="29.9999828" fill="rgb(255,225,119)" />
				<path id="Форма 31" d="M35.3524 29.0097C35.2141 28.9488 35.0695 28.9185 34.9185 28.9188C34.3213 28.9188 33.8376 29.4029 33.8376 30C33.8376 30.5972 34.3214 31.0813 34.9185 31.0813C35.0729 31.0813 35.2194 31.0489 35.3524 30.9903C34.9712 30.8234 34.7049 30.443 34.7049 30C34.7049 29.5569 34.9712 29.1766 35.3524 29.0097Z" fill="rgb(255,209,91)" fill-rule="nonzero" />
				<ellipse id="Эллипс 7" rx="1.081227" ry="1.081220" cx="15.0812263" cy="29.9999828" fill="rgb(255,225,119)" />
				<path id="Форма 32" d="M15.5148 29.0097C15.3766 28.9488 15.2319 28.9185 15.0809 28.9188C14.4837 28.9188 14 29.4029 14 30C14 30.5972 14.4838 31.0813 15.0809 31.0813C15.2354 31.0813 15.3818 31.0489 15.5148 30.9903C15.1336 30.8234 14.8673 30.443 14.8673 30C14.8674 29.5569 15.1336 29.1766 15.5148 29.0097Z" fill="rgb(255,209,91)" fill-rule="nonzero" />
				<ellipse id="Эллипс 8" rx="1.081227" ry="1.081220" cx="18.0532875" cy="37.079998" fill="rgb(255,225,119)" />
				<path id="Форма 33" d="M18.4868 36.0897C18.3486 36.0288 18.204 35.9985 18.0529 35.9988C17.4558 35.9988 16.9721 36.4829 16.9721 37.08C16.9721 37.6772 17.4558 38.1613 18.0529 38.1613C18.2074 38.1613 18.3539 38.1289 18.4868 38.0703C18.1056 37.9034 17.8394 37.523 17.8394 37.08C17.8394 36.637 18.1056 36.2566 18.4868 36.0897L18.4868 36.0897Z" fill="rgb(255,209,91)" fill-rule="nonzero" />
				<ellipse id="Эллипс 9" rx="1.081227" ry="1.081220" cx="31.9467506" cy="22.9199963" fill="rgb(255,225,119)" />
				<path id="Форма 34" d="M32.3803 21.9297C32.2421 21.8688 32.0975 21.8384 31.9464 21.8387C31.3493 21.8387 30.8655 22.3229 30.8655 22.92C30.8655 23.5171 31.3493 24.0013 31.9464 24.0013C32.1009 24.0013 32.2474 23.9689 32.3803 23.9102C31.9991 23.7434 31.7329 23.363 31.7329 22.92C31.7329 22.4769 31.9991 22.0965 32.3803 21.9297L32.3803 21.9297Z" fill="rgb(255,209,91)" fill-rule="nonzero" />
				<ellipse id="Эллипс 10" rx="1.081227" ry="1.081220" cx="31.9467506" cy="37.079998" fill="rgb(255,225,119)" />
				<path id="Форма 35" d="M32.3803 36.0897C32.2421 36.0288 32.0975 35.9985 31.9464 35.9987C31.3493 35.9987 30.8655 36.4829 30.8655 37.08C30.8655 37.6772 31.3493 38.1613 31.9464 38.1613C32.1009 38.1613 32.2474 38.1289 32.3803 38.0703C31.9991 37.9034 31.7329 37.523 31.7329 37.08C31.7329 36.637 31.9991 36.2566 32.3803 36.0897L32.3803 36.0897Z" fill="rgb(255,209,91)" fill-rule="nonzero" />
				<ellipse id="Эллипс 11" rx="1.081227" ry="1.081220" cx="20.700428" cy="35.3221855" fill="rgb(255,225,119)" />
				<path id="Форма 36" d="M21.134 34.3319C20.9958 34.271 20.8511 34.2407 20.7001 34.2409C20.1029 34.2409 19.6192 34.7251 19.6192 35.3222C19.6192 35.9193 20.1029 36.4035 20.7001 36.4035C20.8546 36.4035 21.001 36.3711 21.134 36.3124C20.7528 36.1456 20.4865 35.7652 20.4865 35.3222C20.4865 34.8791 20.7528 34.4987 21.134 34.3319L21.134 34.3319Z" fill="rgb(255,209,91)" fill-rule="nonzero" />
				<ellipse id="Эллипс 12" rx="1.081227" ry="1.081220" cx="29.2894592" cy="25.0824718" fill="rgb(255,225,119)" />
				<path id="Форма 37" d="M29.723 24.0922C29.5848 24.0313 29.4402 24.0009 29.2891 24.0012C28.692 24.0012 28.2082 24.4854 28.2082 25.0825C28.2082 25.6796 28.692 26.1637 29.2891 26.1637C29.4436 26.1637 29.5901 26.1314 29.723 26.0727C29.3418 25.9059 29.0756 25.5255 29.0756 25.0824C29.0756 24.6394 29.3418 24.259 29.723 24.0922Z" fill="rgb(255,209,91)" fill-rule="nonzero" />
				<ellipse id="Эллипс 13" rx="1.081227" ry="1.081220" cx="29.2894592" cy="35.3221855" fill="rgb(255,225,119)" />
				<path id="Форма 38" d="M29.723 34.3319C29.5848 34.271 29.4402 34.2407 29.2891 34.2409C28.692 34.2409 28.2082 34.7251 28.2082 35.3222C28.2082 35.9193 28.692 36.4035 29.2891 36.4035C29.4436 36.4035 29.5901 36.3711 29.723 36.3124C29.3418 36.1456 29.0756 35.7652 29.0756 35.3222C29.0756 34.8791 29.3418 34.4987 29.723 34.3319L29.723 34.3319Z" fill="rgb(255,209,91)" fill-rule="nonzero" />
				<path id="Форма 39" d="M25 40.2507C24.956 40.2507 24.9136 40.2423 24.873 40.2254C24.8323 40.2086 24.7964 40.1846 24.7653 40.1535C24.7341 40.1223 24.7101 40.0864 24.6933 40.0458C24.6764 40.0051 24.668 39.9627 24.668 39.9187L24.668 20.0813C24.668 20.0373 24.6764 19.9949 24.6933 19.9543C24.7101 19.9136 24.7341 19.8777 24.7653 19.8466C24.7964 19.8154 24.8323 19.7914 24.873 19.7746C24.9136 19.7578 24.956 19.7493 25 19.7493C25.044 19.7493 25.0864 19.7578 25.127 19.7746C25.1677 19.7914 25.2036 19.8154 25.2347 19.8466C25.2659 19.8777 25.2899 19.9136 25.3067 19.9543C25.3235 19.9949 25.332 20.0373 25.332 20.0813L25.332 39.9187C25.332 39.9628 25.3236 40.0051 25.3067 40.0458C25.2899 40.0864 25.2659 40.1224 25.2348 40.1535C25.2036 40.1846 25.1677 40.2086 25.127 40.2254C25.0864 40.2423 25.044 40.2507 25 40.2507Z" fill="rgb(130,174,227)" fill-rule="nonzero" />
				<ellipse id="Эллипс 14" rx="1.081226" ry="1.081220" cx="25" cy="29.9999828" fill="rgb(255,225,119)" />
				<path id="Форма 40" d="M25.4336 29.0097C25.2954 28.9488 25.1507 28.9185 24.9997 28.9188C24.4026 28.9188 23.9188 29.4029 23.9188 30C23.9188 30.5972 24.4026 31.0813 24.9997 31.0813C25.1542 31.0813 25.3007 31.0489 25.4336 30.9903C25.0524 30.8234 24.7862 30.443 24.7862 30C24.7862 29.5569 25.0524 29.1766 25.4336 29.0097Z" fill="rgb(255,209,91)" fill-rule="nonzero" />
				<ellipse id="Эллипс 15" rx="1.081226" ry="1.081220" cx="25" cy="25.7591076" fill="rgb(255,225,119)" />
				<path id="Форма 41" d="M25.4336 24.7688C25.2954 24.7079 25.1507 24.6776 24.9997 24.6778C24.4026 24.6778 23.9188 25.162 23.9188 25.7591C23.9188 26.3562 24.4026 26.8404 24.9997 26.8404C25.1542 26.8404 25.3007 26.808 25.4336 26.7493C25.0524 26.5825 24.7862 26.2021 24.7862 25.7591C24.7862 25.3161 25.0524 24.9356 25.4336 24.7688L25.4336 24.7688Z" fill="rgb(255,209,91)" fill-rule="nonzero" />
				<ellipse id="Эллипс 16" rx="1.081226" ry="1.081220" cx="25" cy="20.0812664" fill="rgb(255,225,119)" />
				<path id="Форма 42" d="M25.4336 19.091C25.2954 19.0301 25.1507 18.9997 24.9997 19C24.4026 19 23.9188 19.4842 23.9188 20.0813C23.9188 20.6784 24.4026 21.1625 24.9997 21.1625C25.1542 21.1625 25.3007 21.1302 25.4336 21.0715C25.0524 20.9047 24.7862 20.5243 24.7862 20.0812C24.7862 19.6382 25.0524 19.2579 25.4336 19.091L25.4336 19.091Z" fill="rgb(255,209,91)" fill-rule="nonzero" />
				<ellipse id="Эллипс 17" rx="1.081226" ry="1.081220" cx="25" cy="39.9186821" fill="rgb(255,225,119)" />
				<path id="Форма 43" d="M25.4336 38.9284C25.2954 38.8675 25.1507 38.8372 24.9997 38.8375C24.4026 38.8375 23.9188 39.3216 23.9188 39.9187C23.9188 40.5159 24.4026 41 24.9997 41C25.1542 41 25.3007 40.9676 25.4336 40.909C25.0524 40.7421 24.7862 40.3617 24.7862 39.9187C24.7862 39.4756 25.0524 39.0953 25.4336 38.9285L25.4336 38.9284Z" fill="rgb(255,209,91)" fill-rule="nonzero" />
				<ellipse id="Эллипс 18" rx="1.081226" ry="1.081220" cx="25" cy="34.2408867" fill="rgb(255,225,119)" />
				<path id="Форма 44" d="M25.4336 33.2506C25.2954 33.1897 25.1507 33.1593 24.9997 33.1596C24.4026 33.1596 23.9188 33.6438 23.9188 34.2409C23.9188 34.838 24.4026 35.3222 24.9997 35.3222C25.1542 35.3222 25.3007 35.2898 25.4336 35.2311C25.0524 35.0643 24.7862 34.6839 24.7862 34.2408C24.7862 33.7978 25.0524 33.4175 25.4336 33.2506L25.4336 33.2506Z" fill="rgb(255,209,91)" fill-rule="nonzero" />
			</g>
		</g>
	</g>
</svg>
