<svg viewBox="0 0 50 50" xmlns="http://www.w3.org/2000/svg" xmlns:xlink="http://www.w3.org/1999/xlink" width="50.000000" height="50.000000" fill="none" customFrame="#000000">
	<g id="freepik">
		<path id="XMLID_3728_" d="M8.97433 14.1986C7.56793 15.7015 6.34654 17.3587 5.38424 19.1314L3.86691 18.322C3.64466 17.3198 2.7196 16.6263 1.72047 16.7417C0.647245 16.8572 -0.130041 17.8979 0.0181291 19.0155C0.129054 20.1332 1.1286 20.9425 2.20182 20.7882C2.42407 20.7497 2.60908 20.7112 2.7941 20.5954L4.27458 21.4047C3.46046 23.2933 2.86818 25.2583 2.535 27.3012L4.97779 27.7638C5.71783 23.3317 7.75375 19.2853 10.7884 16.0098L8.97433 14.1986Z" fill="rgb(18,115,235)" fill-rule="nonzero" />
		<path id="XMLID_3727_" d="M26.8135 6.41398C26.2584 6.41398 25.703 6.45246 25.148 6.45246L24.9257 4.33304C25.518 3.83194 25.888 3.02257 25.7771 2.13623C25.6289 0.787275 24.4816 -0.137542 23.1865 0.016805C21.8911 0.171152 21.0028 1.36576 21.151 2.71429C21.2619 3.56215 21.7801 4.29456 22.4833 4.60283L22.7056 6.72225C20.3741 7.10749 18.1532 7.8399 16.0068 8.91906L17.08 11.2313C20.1146 9.72843 23.4088 8.95754 26.8139 8.95754C28.4425 8.95754 30.0339 9.15037 31.6254 9.49712L32.1436 6.99204C30.4036 6.60639 28.5899 6.41398 26.8135 6.41398L26.8135 6.41398Z" fill="rgb(18,115,235)" fill-rule="nonzero" />
		<path id="XMLID_3726_" d="M48.2795 15.008C49.3528 14.8536 50.13 13.8518 49.9819 12.7342C49.8337 11.6165 48.8714 10.8072 47.7982 10.9615C46.799 11.077 46.0586 12.0022 46.0586 13.004L44.689 14.2371C43.3195 12.7727 41.8021 11.5007 40.0998 10.3835L38.8043 12.5418C42.5053 14.9695 45.355 18.3994 47.1318 22.4462L49.3896 21.4055C48.5755 19.517 47.5391 17.7828 46.3177 16.1645L47.6132 14.9699C47.8354 15.0464 48.0577 15.0464 48.2795 15.008L48.2795 15.008Z" fill="rgb(18,115,235)" fill-rule="nonzero" />
		<path id="XMLID_3725_" d="M25.037 40.9438C23.7788 41.0208 22.5202 41.0593 21.2619 41.0593C18.4123 41.0593 15.6363 40.8664 13.1935 40.4427C11.9353 40.2499 10.4548 39.9031 9.04842 39.4405C12.4535 45.7223 19.0414 50 26.5544 50C35.8442 50 43.6531 43.5254 45.9108 34.7391C43.6903 36.2419 41.0253 37.5139 37.9165 38.5542C34.1046 39.8651 29.6635 40.674 25.037 40.9438L25.037 40.9438Z" fill="rgb(18,115,235)" fill-rule="nonzero" />
		<path id="XMLID_3702_" d="M26.8135 11.5392C15.9323 11.5392 7.04974 20.5573 7.04974 31.6559C7.04974 33.0818 7.19791 34.5462 7.49385 35.9337C9.67754 37.5524 16.3023 38.9394 24.8889 38.4003C34.2523 37.8222 42.0989 35.1632 46.5768 31.0779C46.5768 30.4228 46.5027 29.7674 46.4286 29.1124C45.1708 19.0929 36.7692 11.5392 26.8135 11.5392L26.8135 11.5392ZM19.7815 33.5834C16.4505 33.5834 13.7858 30.77 13.7858 27.3401C13.7858 23.8717 16.4877 21.0969 19.7815 21.0969C23.1124 21.0969 25.7771 23.9102 25.7771 27.3401C25.8143 30.77 23.1124 33.5834 19.7815 33.5834ZM35.1778 30.5002C32.735 30.5002 30.7736 28.4193 30.7736 25.9142C30.7736 23.3706 32.7723 21.3282 35.1778 21.3282C37.6206 21.3282 39.582 23.4091 39.582 25.9142C39.6193 28.4578 37.6206 30.5002 35.1778 30.5002Z" fill="rgb(18,115,235)" fill-rule="nonzero" />
	</g>
</svg>
