<svg viewBox="0 0 50 50" xmlns="http://www.w3.org/2000/svg" xmlns:xlink="http://www.w3.org/1999/xlink" width="50.000000" height="50.000000" fill="none" customFrame="#000000">
	<g id="piliapp">
		<circle id="Эллипс 1" cx="25" cy="25" r="25" fill="rgb(255,205,0)" />
		<g id="Сочетание 2">
			<path id="Форма 1" d="M25 50C23.3424 50 21.7479 49.6828 20.2165 49.0485C18.685 48.4142 17.3333 47.5109 16.1612 46.3388C14.9891 45.1667 14.0858 43.815 13.4515 42.2835C12.8172 40.7521 12.5 39.1576 12.5 37.5C12.5 35.8424 12.8172 34.2479 13.4515 32.7165C14.0858 31.185 14.9891 29.8333 16.1612 28.6612C17.3333 27.4891 18.685 26.5858 20.2165 25.9515C21.7479 25.3172 23.3424 25 25 25L50 25C50 26.6415 49.8399 28.2673 49.5196 29.8773C49.1994 31.4872 48.7252 33.0505 48.097 34.5671C47.4688 36.0837 46.6987 37.5244 45.7867 38.8893C44.8748 40.2541 43.8384 41.5169 42.6777 42.6777C41.5169 43.8384 40.2541 44.8748 38.8893 45.7867C37.5244 46.6987 36.0837 47.4688 34.5671 48.097C33.0505 48.7252 31.4872 49.1994 29.8773 49.5196C28.2673 49.8399 26.6415 50 25 50Z" fill="rgb(255,180,0)" fill-rule="evenodd" />
			<path id="Форма 2" d="M25 0C26.6576 0 28.2521 0.317169 29.7835 0.951506C31.315 1.58584 32.6667 2.48906 33.8388 3.66116C35.0109 4.83327 35.9142 6.18503 36.5485 7.71646C37.1828 9.24788 37.5 10.8424 37.5 12.5C37.5 14.1576 37.1828 15.7521 36.5485 17.2835C35.9142 18.815 35.0109 20.1667 33.8388 21.3388C32.6667 22.5109 31.315 23.4142 29.7835 24.0485C28.2521 24.6828 26.6576 25 25 25L0 25C0 23.3585 0.160123 21.7327 0.480368 20.1227C0.800613 18.5128 1.27483 16.9495 1.90301 15.4329C2.5312 13.9163 3.30128 12.4756 4.21326 11.1107C5.12524 9.74587 6.1616 8.48306 7.32233 7.32233C8.48306 6.1616 9.74587 5.12524 11.1107 4.21326C12.4756 3.30128 13.9163 2.5312 15.4329 1.90301C16.9495 1.27483 18.5128 0.800613 20.1227 0.480368C21.7327 0.160123 23.3585 0 25 0Z" fill="rgb(255,235,0)" fill-rule="evenodd" />
			<path id="Форма 3" d="M50 15.625L50 18.7516C49.9999 20.4089 49.6827 22.0032 49.0484 23.5344C48.4141 25.0656 47.511 26.4171 46.3391 27.5891C45.1671 28.761 43.8156 29.6641 42.2844 30.2984C40.7532 30.9327 39.1589 31.2499 37.5016 31.25L37.4984 31.25C35.8411 31.2499 34.2468 30.9327 32.7156 30.2984C31.1844 29.6641 29.8329 28.761 28.6609 27.5891C27.489 26.4171 26.5859 25.0656 25.9516 23.5344C25.3173 22.0032 25.0001 20.4089 25 18.7516L25 18.75C25 20.4076 24.6828 22.0021 24.0485 23.5335C23.4142 25.065 22.5109 26.4167 21.3388 27.5888C20.1667 28.7609 18.815 29.6642 17.2835 30.2985C15.7521 30.9328 14.1576 31.25 12.5 31.25L12.4984 31.25C10.8411 31.2499 9.2468 30.9327 7.71561 30.2984C6.18443 29.6641 4.83287 28.761 3.66094 27.5891C2.489 26.4171 1.58589 25.0656 0.951596 23.5344C0.317302 22.0032 0.000103779 20.4089 0 18.7516L0 15.625L50 15.625ZM13.9539 34.375C14.6789 35.1007 15.4677 35.7487 16.3203 36.319C17.173 36.8892 18.0732 37.3708 19.0207 37.7636C19.9683 38.1564 20.9451 38.453 21.9512 38.6533C22.9572 38.8536 23.9731 38.9538 24.9989 38.9539C26.0247 38.9539 27.0406 38.8539 28.0467 38.6537C29.0527 38.4536 30.0296 38.1571 30.9772 37.7644C31.9249 37.3717 32.8251 36.8903 33.6778 36.3202C34.5306 35.7501 35.3195 35.1022 36.0445 34.3766L38.257 36.5883C36.5007 38.3487 34.4738 39.7047 32.1763 40.6563C29.8788 41.6078 27.4867 42.082 25 42.0789L24.9984 42.0789C22.5116 42.0822 20.1194 41.6079 17.8219 40.6562C15.5244 39.7045 13.4975 38.3483 11.7414 36.5875L13.9539 34.375Z" fill="rgb(70,50,30)" fill-rule="evenodd" />
			<path id="Форма 4" d="M21.2156 27.7102L9.12968 15.625L26.8078 15.625L41.707 30.525C40.3472 31.0101 38.9453 31.2517 37.5016 31.25L37.4984 31.25C35.8411 31.2499 34.2468 30.9327 32.7156 30.2984C31.1844 29.6641 29.8329 28.761 28.6609 27.5891C27.489 26.4171 26.5859 25.0656 25.9516 23.5344C25.3173 22.0032 25.0001 20.4089 25 18.7516L25 18.75C25.0046 22.2715 23.7431 25.2582 21.2156 27.7102Z" fill="rgb(44,84,168)" fill-rule="evenodd" />
		</g>
	</g>
</svg>
