<svg width="50.013184" height="50.000000" viewBox="0 0 50.0132 50" fill="none" xmlns="http://www.w3.org/2000/svg" xmlns:xlink="http://www.w3.org/1999/xlink">
	<desc>
			Created with Pixso.
	</desc>
	<defs>
		<linearGradient x1="25.006426" y1="27.137110" x2="25.006426" y2="45.253681" id="paint_linear_60_6_0" gradientUnits="userSpaceOnUse">
			<stop offset="0.503000" stop-color="#A1AAB3"/>
			<stop offset="0.658000" stop-color="#9EA7AF"/>
			<stop offset="0.796000" stop-color="#949DA5"/>
			<stop offset="0.928000" stop-color="#848C92"/>
			<stop offset="1.000000" stop-color="#787F85"/>
		</linearGradient>
	</defs>
	<g opacity="0.000000">
		<rect id="Прямоугольник 1" x="0.006348" width="50.000000" height="50.000000" fill="#C4C4C4" fill-opacity="1.000000"/>
	</g>
	<path id="path" d="M45.46 45L4.55 45C3.92 44.99 3.38 44.77 2.94 44.32C2.5 43.88 2.28 43.34 2.27 42.71L2.27 18.71C2.28 18.08 2.5 17.54 2.94 17.09C3.38 16.65 3.92 16.43 4.55 16.42L45.46 16.42C46.08 16.43 46.62 16.65 47.06 17.09C47.5 17.54 47.73 18.08 47.73 18.71L47.73 42.71C47.73 43.34 47.5 43.88 47.06 44.32C46.62 44.77 46.08 44.99 45.46 45Z" fill="#6D7882" fill-opacity="1.000000" fill-rule="nonzero"/>
	<path id="path" d="M43.18 16.42L6.82 16.42L6.82 11.85C6.82 11.09 7.2 10.71 7.96 10.71L42.05 10.71C42.8 10.71 43.18 11.09 43.18 11.85L43.18 16.42Z" fill="#0076D7" fill-opacity="1.000000" fill-rule="nonzero"/>
	<path id="path" d="M12.5 5L37.5 5C38.13 4.99 38.67 5.22 39.11 5.66C39.55 6.11 39.77 6.65 39.77 7.28L39.77 16.42L10.23 16.42L10.23 7.28C10.23 6.65 10.45 6.11 10.89 5.66C11.34 5.22 11.87 4.99 12.5 5Z" fill="#50E6FF" fill-opacity="1.000000" fill-rule="nonzero"/>
	<path id="path" d="M9.09 24.42L40.91 24.42C41.54 24.42 42.07 24.65 42.52 25.09C42.96 25.54 43.18 26.08 43.18 26.71L43.18 37L6.82 37L6.82 26.71C6.82 26.08 7.04 25.54 7.48 25.09C7.93 24.65 8.46 24.42 9.09 24.42Z" fill="#252525" fill-opacity="1.000000" fill-rule="nonzero"/>
	<path id="path" d="M45.85 45L4.15 45C3.61 45 3.12 44.82 2.7 44.47C2.28 44.12 2.02 43.68 1.92 43.14L0.05 33.37C-0.11 32.53 0.08 31.78 0.62 31.12C1.16 30.47 1.85 30.14 2.7 30.14L47.3 30.14C48.15 30.14 48.84 30.47 49.38 31.12C49.92 31.78 50.11 32.53 49.95 33.37L48.08 43.14C47.98 43.68 47.72 44.12 47.3 44.47C46.88 44.82 46.4 45 45.85 45Z" fill="url(#paint_linear_60_6_0)" fill-opacity="1.000000" fill-rule="nonzero"/>
	<g opacity="0.050000">
		<rect id="rect" x="2.278809" y="29.000000" width="45.455551" height="1.142857" fill="#000000" fill-opacity="1.000000"/>
	</g>
	<g opacity="0.070000">
		<rect id="rect" x="2.278809" y="29.571533" width="45.455551" height="0.571429" fill="#000000" fill-opacity="1.000000"/>
	</g>
</svg>
