<svg viewBox="0 0 50 50" xmlns="http://www.w3.org/2000/svg" xmlns:xlink="http://www.w3.org/1999/xlink" width="50.000000" height="50.000000" fill="none" customFrame="#000000">
	<g id="shutterstock">
		<rect id="Прямоугольник 1" width="50.000000" height="50.000000" x="0.000000" y="0.000000" opacity="0" fill="rgb(196,196,196)" />
		<g id="Сочетание 1">
			<path id="Форма 12" d="M17.2955 37.2129C15.0087 36.0079 13.2145 34.3365 11.9309 32.1992C10.6418 30.0614 10 27.6424 10 24.9463C10 22.2501 10.6418 19.8401 11.9309 17.721C13.2199 15.602 14.9979 13.9446 17.2703 12.7581C19.5374 11.5716 22.1154 10.9806 24.9991 10.9806C27.8846 10.9806 30.4626 11.5716 32.7297 12.7581C34.9967 13.9446 36.7801 15.5974 38.0691 17.721C39.3582 19.8447 40 22.2501 40 24.9463C40 27.6424 39.3528 30.0614 38.0691 32.1992C36.7801 34.3365 34.9913 36.0127 32.7045 37.2129C30.4177 38.4176 27.8504 39.018 24.9991 39.018C22.1496 39.018 19.5859 38.4176 17.2955 37.2129ZM29.4397 32.8176C30.7485 32.0605 31.766 31.0034 32.4977 29.6367C33.2295 28.2702 33.5944 26.7237 33.5944 24.997C33.5944 23.2703 33.2295 21.6822 32.4977 20.3295C31.766 18.9815 30.7485 17.9287 29.4397 17.1762C28.1309 16.4192 26.6495 16.0452 24.9955 16.0452C23.3397 16.0452 21.8583 16.4238 20.5495 17.1762C19.2407 17.9333 18.2232 18.9815 17.4933 20.3295C16.7616 21.6776 16.3966 23.2335 16.3966 24.997C16.3966 26.7605 16.7616 28.2702 17.4933 29.6367C18.2232 31.0034 19.2407 32.0653 20.5495 32.8176C21.8583 33.575 23.3397 33.9488 24.9955 33.9488C26.6495 33.9488 28.1309 33.5702 29.4397 32.8176Z" fill="rgb(255,255,255)" fill-rule="nonzero" />
			<path id="Форма 13" d="M34.5491 8.95926C35.466 8.95926 35.9118 7.89282 35.225 7.32035C32.6074 5.14586 29.0658 3.8855 24.9955 3.8855C20.9253 3.8855 17.389 5.14586 14.766 7.32035C14.0811 7.89282 14.5251 8.95926 15.4438 8.95926L34.5491 8.95926Z" fill="rgb(255,255,255)" fill-rule="nonzero" />
			<path id="Форма 14" d="M32.7728 2.20218C33.5189 2.20218 33.8856 1.7405 33.3265 1.4912C31.1925 0.544775 28.3142 0 24.9991 0C21.6857 0 18.8056 0.544775 16.6717 1.4912C16.1143 1.7405 16.4739 2.20218 17.2254 2.20218L32.7728 2.20218Z" fill="rgb(255,255,255)" fill-rule="nonzero" />
			<path id="Форма 15" d="M15.4492 41.0313C14.5305 41.0313 14.0864 42.0976 14.7732 42.6701C17.3908 44.8447 20.9325 46.1051 25.0027 46.1051C29.073 46.1051 32.6093 44.8447 35.2323 42.6701C35.919 42.0976 35.4731 41.0313 34.5545 41.0313L15.4492 41.0313Z" fill="rgb(255,255,255)" fill-rule="nonzero" />
			<path id="Форма 16" d="M17.2272 47.798C16.4811 47.798 16.1162 48.2595 16.6735 48.509C18.8075 49.4555 21.6876 50 25.0009 50C28.3143 50 31.1944 49.4555 33.3284 48.509C33.8875 48.2595 33.5261 47.798 32.7746 47.798L17.2272 47.798Z" fill="rgb(255,255,255)" fill-rule="nonzero" />
		</g>
	</g>
</svg>
