<svg width="50" height="50" viewBox="0 0 50 50" fill="none" xmlns="http://www.w3.org/2000/svg">
<path d="M25 50C38.8071 50 50 38.8071 50 25C50 11.1929 38.8071 0 25 0C11.1929 0 0 11.1929 0 25C0 38.8071 11.1929 50 25 50Z" fill="#52AFFF"/>
<path d="M42.6776 7.32244C40.4135 5.05833 37.8212 3.32628 35.0558 2.11218L27.0551 19.6891L30.3103 22.9442L47.8872 14.9436C46.6737 12.1788 44.9417 9.58654 42.6776 7.32244Z" fill="#A4E2F1"/>
<path d="M2.11218 35.0558C3.32628 37.8212 5.05833 40.4135 7.32244 42.6776C9.58654 44.9417 12.1788 46.6737 14.9442 47.8878L22.9449 30.3109L19.6897 27.0558L2.11218 35.0558Z" fill="#A4E2F1"/>
<path d="M25 34.6154C30.3104 34.6154 34.6154 30.3104 34.6154 25C34.6154 19.6896 30.3104 15.3846 25 15.3846C19.6896 15.3846 15.3846 19.6896 15.3846 25C15.3846 30.3104 19.6896 34.6154 25 34.6154Z" fill="#0037FF"/>
<path d="M25 28.8462C27.1242 28.8462 28.8462 27.1242 28.8462 25C28.8462 22.8758 27.1242 21.1538 25 21.1538C22.8758 21.1538 21.1539 22.8758 21.1539 25C21.1539 27.1242 22.8758 28.8462 25 28.8462Z" fill="#52AFFF"/>
<path d="M50 23H0V50H50V23Z" fill="#FFC400"/>
<path opacity="0.35" d="M35.3277 29.0517H14.6723V34.1724H35.3277V29.0517Z" fill="black"/>
<path d="M35.3277 27.1897H14.6723V32.3103H35.3277V27.1897Z" fill="#9C4000"/>
<path d="M23.2695 47H22.3918C22.1371 47 21.9357 46.777 21.9531 46.5145L22.5528 37.4236C22.5684 37.1852 22.7604 37 22.9915 37H23.8693C24.1239 37 24.3254 37.223 24.308 37.4855L23.7083 46.5764C23.6927 46.8148 23.5007 47 23.2695 47Z" fill="#24A0DB"/>
<path d="M20.0035 44.4436L20.1134 43.5345C20.1409 43.307 20.3281 43.1364 20.55 43.1364H29.3401C29.6046 43.1364 29.8094 43.3759 29.7766 43.6473L29.6667 44.5564C29.639 44.7839 29.4518 44.9545 29.2299 44.9545H20.44C20.1754 44.9545 19.9707 44.715 20.0035 44.4436Z" fill="#24A0DB"/>
<path d="M27.2282 47H26.3504C26.0958 47 25.8943 46.777 25.9117 46.5145L26.5114 37.4236C26.527 37.1852 26.719 37 26.9502 37H27.8279C28.0826 37 28.284 37.223 28.2666 37.4855L27.6669 46.5764C27.6513 46.8148 27.4593 47 27.2282 47Z" fill="#24A0DB"/>
<path d="M20.2234 40.3527L20.3333 39.4436C20.3608 39.2161 20.548 39.0455 20.7699 39.0455H29.56C29.8246 39.0455 30.0293 39.285 29.9965 39.5564L29.8866 40.4655C29.8589 40.693 29.6717 40.8636 29.4498 40.8636H20.6599C20.3954 40.8636 20.1906 40.6241 20.2234 40.3527Z" fill="#24A0DB"/>
</svg>
