<svg width="50.000000" height="50.000000" viewBox="0 0 50 50" fill="none" xmlns="http://www.w3.org/2000/svg" xmlns:xlink="http://www.w3.org/1999/xlink">
	<desc>
			Created with Pixso.
	</desc>
	<defs/>
	<g opacity="0.000000">
		<rect id="Прямоугольник 1" width="50.000000" height="50.000000" fill="#C4C4C4" fill-opacity="1.000000"/>
	</g>
	<path id="path" d="M35.6 18.04C38.81 20.35 42.75 21.71 47 21.71L47 13.49C46.19 13.49 45.39 13.41 44.6 13.24L44.6 19.71C40.36 19.71 36.42 18.35 33.21 16.04L33.21 32.81C33.21 41.2 26.45 47.99 18.1 47.99C14.99 47.99 12.1 47.05 9.69 45.43C12.44 48.25 16.26 50 20.5 50C28.84 50 35.6 43.2 35.6 34.81L35.6 18.04ZM38.56 9.76C36.91 7.95 35.84 5.63 35.6 3.05L35.6 2L33.34 2C33.91 5.27 35.85 8.06 38.56 9.76ZM14.97 38.99C14.03 37.75 13.56 36.35 13.56 34.79C13.56 30.95 16.65 27.84 20.47 27.84C21.19 27.84 21.89 27.95 22.57 28.16L22.57 19.77C21.77 19.66 20.98 19.61 20.18 19.63L20.18 26.16C19.49 25.95 18.8 25.84 18.08 25.84C14.26 25.84 11.17 28.95 11.17 32.79C11.17 35.5 12.72 37.85 14.97 38.99Z" fill="#EE1D52" fill-opacity="1.000000" fill-rule="evenodd"/>
	<path id="path" d="M33.21 16.04C36.42 18.35 40.36 19.71 44.6 19.71L44.6 13.24C42.23 12.73 40.13 11.49 38.56 9.76C35.85 8.06 33.91 5.27 33.34 2L27.38 2L27.38 34.81C27.37 38.63 24.28 41.73 20.47 41.73C18.23 41.73 16.23 40.66 14.97 38.99C12.72 37.85 11.17 35.5 11.17 32.79C11.17 28.95 14.26 25.84 18.08 25.84C18.81 25.84 19.52 25.95 20.18 26.16L20.18 19.63C11.98 19.8 5.39 26.53 5.39 34.81C5.39 38.94 7.03 42.69 9.69 45.43C12.1 47.05 14.99 48 18.1 48C26.45 48 33.21 41.2 33.21 32.81L33.21 16.04Z" fill="#FFFFFF" fill-opacity="1.000000" fill-rule="evenodd"/>
	<path id="path" d="M44.6 13.24L44.6 11.49C42.42 11.5 40.41 10.92 38.56 9.76C40.2 11.57 42.22 12.73 44.6 13.24ZM33.34 2C33.28 1.68 33.24 1.37 33.21 1.05L33.21 0L24.99 0L24.99 32.81C24.98 36.63 21.89 39.73 18.08 39.73C16.96 39.73 15.91 39.46 14.97 38.99C16.23 40.66 18.23 41.73 20.47 41.73C24.28 41.73 27.37 38.63 27.38 34.81L27.38 2L33.34 2ZM20.18 19.63L20.18 17.77C19.49 17.67 18.8 17.62 18.1 17.62C9.76 17.62 3 24.42 3 32.81C3 38.07 5.65 42.7 9.69 45.43C7.03 42.69 5.39 38.94 5.39 34.81C5.39 26.53 11.98 19.8 20.18 19.63Z" fill="#69C9D0" fill-opacity="1.000000" fill-rule="evenodd"/>
</svg>
